<svg xmlns="http://www.w3.org/2000/svg" width="73.765" height="73.792" viewBox="0 0 73.765 73.792"><path d="M-6584.021,2518.07c0-.125,0-.249,0-.371a3.425,3.425,0,0,0-1.26-2.587,3.7,3.7,0,0,0-2.539-.842q-33.083.012-66.165.006h-.3a3.434,3.434,0,0,0-2.706,1.323,3.715,3.715,0,0,0-.792,2.485q.015,21.7.007,43.414c0,.545,0,1.091,0,1.635a3.244,3.244,0,0,0,.668,2,3.534,3.534,0,0,0,3,1.48q10-.012,20,0h.811a9.041,9.041,0,0,1-1.29-2.374h-19.081c-.149,0-.3.008-.447,0a1.247,1.247,0,0,1-1.281-1.263c-.014-.2,0-.4,0-.594v-43.867a6.606,6.606,0,0,1,.008-.667,1.235,1.235,0,0,1,1.2-1.19c.173-.016.346-.006.521-.006h65.576c.149,0,.3-.006.445,0a1.246,1.246,0,0,1,1.248,1.222c.013.173.006.347.006.521v44.09c0,.149.006.3,0,.447a1.233,1.233,0,0,1-1.317,1.3c-3.295.014-6.588.006-9.979.006,0,0-.556,1.4-1.065,2.374h11.155a3.463,3.463,0,0,0,3.005-1.607,3.7,3.7,0,0,0,.582-2.183Q-6584.026,2540.448-6584.021,2518.07Z" transform="translate(6657.78 -2514.27)" fill="#cbcbcb"/><path d="M-6410.78,2580.169c-1.88,0-3.763,0-5.682,0a4.648,4.648,0,0,0-.06,1.188c-.012.368,0,.735,0,1.168h2.872l-6.685,6.69-.224-.036a13.893,13.893,0,0,1,2.932,1.135l5.841-5.838v2.729a3.094,3.094,0,0,0,1.189.093c.369.016.739,0,1.151,0,.02-.192.054-.355.054-.521q.006-2.6,0-5.2C-6409.4,2580.585-6409.8,2580.174-6410.78,2580.169Z" transform="translate(6467.685 -2567.076)" fill="#cbcbcb"/><g transform="translate(9.516 4.764)"><path d="M-6579.708,2550.68c-.932-1.49-1.881-2.97-2.791-4.472a1.553,1.553,0,0,0-1.521-.832c-1.214.04-2.43.012-3.643.012h-.8c0-1.2.01-2.328-.005-3.461a5.3,5.3,0,0,0-.14-1.1,3.518,3.518,0,0,0-3.326-2.583c-4.833.006-9.665-.008-14.5.006a3.488,3.488,0,0,0-3.433,3.407q-.03,4.908,0,9.813a3.487,3.487,0,0,0,3.422,3.417q7.288.027,14.574,0a3.5,3.5,0,0,0,3.4-3.438c.014-.991,0-1.983,0-2.974v-.677c.155-.018.247-.038.339-.038,1.237,0,2.475,0,3.743,0,1.5,2.4,2.992,4.787,4.513,7.223a14.059,14.059,0,0,1,2.725-.189C-6577.955,2553.487-6578.83,2552.082-6579.708,2550.68Zm-11.132.64a1.238,1.238,0,0,1-1.188,1.2,5.052,5.052,0,0,1-.52.006q-3.3,0-6.607,0t-6.609,0c-.173,0-.348.01-.519,0a1.242,1.242,0,0,1-1.2-1.188c-.016-.171-.005-.345-.005-.518v-8.465c0-.172-.01-.347.005-.52a1.236,1.236,0,0,1,1.188-1.2,4.046,4.046,0,0,1,.446-.006h13.364c.148,0,.3-.008.446,0a1.241,1.241,0,0,1,1.2,1.188,5.09,5.09,0,0,1,.008.518v8.465A5.139,5.139,0,0,1-6590.84,2551.32Z" transform="translate(6609.875 -2538.247)" fill="#cbcbcb"/></g><path d="M-6593.344,2650.245a17.66,17.66,0,0,1,1.508-1.947c-.364-.4-.714-.777-1.059-1.158-.1-.111-.194-.227-.286-.344a1.385,1.385,0,0,0-2.405-.042c-2.917,3.24-5.875,6.447-8.818,9.663-1.306,1.424-2.617,2.845-3.965,4.313l1.771,1.609c2.052-2.205,4.063-4.416,6.08-6.621s4.021-4.376,6.055-6.587A5.058,5.058,0,0,1-6593.344,2650.245Z" transform="translate(6618.186 -2619.892)" fill="#cbcbcb"/><path d="M-6585.91,2562.358h11.854v2.237c-.523.147-9.722.209-11.8.072a4.787,4.787,0,0,1-.051-1.151C-6585.918,2563.148-6585.91,2562.78-6585.91,2562.358Z" transform="translate(6600.193 -2552.805)" fill="#cbcbcb"/><path d="M-6585.729,2588.63v-2.286h11.788a3.25,3.25,0,0,1,.069,1.133c.015.368,0,.738,0,1.1C-6574.438,2588.708-6584.4,2588.753-6585.729,2588.63Z" transform="translate(6600.042 -2572.026)" fill="#cbcbcb"/><g transform="translate(4.756 57.098)"><path d="M-6604.468,2805.017c-1.289,1.29-2.527,2.533-3.779,3.786h-4.174v-.679c0-.967-.014-1.933,0-2.9a3.593,3.593,0,0,0-3.552-3.534q-7.137.038-14.273,0a3.625,3.625,0,0,0-3.593,3.572q.048,4.759,0,9.515a3.633,3.633,0,0,0,3.588,3.582q7.137-.045,14.273,0a3.6,3.6,0,0,0,3.562-3.6c-.03-1.015-.009-2.032,0-3.047a4.35,4.35,0,0,1,.064-.5c1.486,0,2.922-.021,4.358.01a1.82,1.82,0,0,0,1.446-.594c1.405-1.434,2.833-2.845,4.254-4.263.174-.173.353-.339.517-.5Zm-10.341,9.834a1.236,1.236,0,0,1-1.116,1.112,4.54,4.54,0,0,1-.594.012h-13.217c-.148,0-.3.008-.445,0a1.24,1.24,0,0,1-1.27-1.273c-.023-.543-.005-1.089-.005-1.633v-7.2c0-.2-.01-.4.008-.594a1.236,1.236,0,0,1,1.2-1.192c.171-.016.346-.006.519-.006h13.216a4.961,4.961,0,0,1,.594.012,1.234,1.234,0,0,1,1.114,1.115,4.454,4.454,0,0,1,.012.594q0,4.23,0,8.464A4.436,4.436,0,0,1-6614.809,2814.851Z" transform="translate(6633.84 -2801.69)" fill="#cbcbcb"/><path d="M-6598.022,2825.656v2.287h-11.788a3.2,3.2,0,0,1-.071-1.131c-.016-.369,0-.739,0-1.1C-6609.314,2825.578-6599.4,2825.532-6598.022,2825.656Z" transform="translate(6614.651 -2820.837)" fill="#cbcbcb"/><path d="M-6598.022,2849.609v2.287h-11.788a3.2,3.2,0,0,1-.071-1.131c-.016-.369,0-.739,0-1.1C-6609.313,2849.531-6599.4,2849.485-6598.022,2849.609Z" transform="translate(6614.651 -2840.031)" fill="#cbcbcb"/></g><path d="M-6493.2,2658.524a4.858,4.858,0,0,1-.442.564q-4.539,4.556-9.091,9.1a6.167,6.167,0,0,1-.48.465,1.18,1.18,0,0,1-1.619-.045,6.991,6.991,0,0,1-.5-.547l-2.113-2.372a12.959,12.959,0,0,1,1.312-2.157l2.076,2.334q3.838-3.838,7.551-7.547c.276-.019.557-.027.838-.027A12.988,12.988,0,0,1-6493.2,2658.524Z" transform="translate(6537.314 -2629.68)" fill="#cbcbcb"/><g transform="translate(4.762 13.084)"><path d="M-6632.6,2580.148c-.367-.014-.736,0-1.149,0-.019.224-.046.413-.046.6q0,16.21,0,32.417a3.689,3.689,0,0,0,.008.447,1.148,1.148,0,0,0,1.017,1.019,5.666,5.666,0,0,0,.669.01h15.8s-.408-1.469-.546-2.41H-6631.4v-32A3.519,3.519,0,0,0-6632.6,2580.148Z" transform="translate(6633.803 -2580.139)" fill="#cbcbcb"/><path d="M-6510.589,2744.237c-.017-.006-.017-.033-.024-.05a13.035,13.035,0,0,1-.905-2.328l0-.016.041,0h9.938c.843,0,1.686,0,2.527,0,.809,0,1.615.008,2.457.014,0,.449.012.819,0,1.186a3.306,3.306,0,0,1-.088,1.192h-13.812A.3.3,0,0,1-6510.589,2744.237Z" transform="translate(6535.815 -2709.719)" fill="#cbcbcb"/></g><g transform="translate(21.412 21.308)"><path d="M-6510.418,2646.008a15.5,15.5,0,0,0-15.623,15.332,15.478,15.478,0,0,0,15.507,15.6A15.475,15.475,0,0,0-6495.1,2661.5,15.51,15.51,0,0,0-6510.418,2646.008Zm12.906,16.009c0,.071-.005.145-.01.219,0,.054-.006.109-.01.163-.006.073-.011.147-.018.221-.008.093-.017.187-.026.278a11.62,11.62,0,0,1-.174,1.154c-.012.072-.028.145-.044.216-.018.09-.039.179-.06.269-.047.207-.1.413-.161.616-.038.133-.08.268-.124.4a12.8,12.8,0,0,1-3.192,5.2c-.043.044-.087.087-.133.131s-.083.08-.127.12c-.1.1-.21.193-.316.286a13,13,0,0,1-8.666,3.292,13.068,13.068,0,0,1-13.036-12.146,11.868,11.868,0,0,1,.074-2.586c.008-.077.02-.153.032-.23s.026-.173.042-.26a14.322,14.322,0,0,1,1.014-3.3c.029-.071.063-.145.095-.216a.009.009,0,0,1,0,.006,13.079,13.079,0,0,1,1.312-2.157s-.006-.006-.007-.01c.174-.222.353-.439.533-.647.146-.167.293-.328.439-.485.085-.09.169-.177.255-.262s.153-.153.23-.227c.151-.146.306-.286.463-.423a12.8,12.8,0,0,1,7.741-3.187l-.027.028c.276-.02.556-.028.837-.028a13,13,0,0,1,2.473.234s0-.006.007-.008a12.977,12.977,0,0,1,10.528,11.56c.007.091.016.182.024.276.018.219.027.437.033.66,0,.115,0,.231,0,.346,0,.085,0,.173,0,.258S-6497.51,2661.936-6497.513,2662.018Z" transform="translate(6530.8 -2641.145)" fill="#926cdc"/><path d="M-6497.762,2666.542a6.176,6.176,0,0,0-1.81-3.336q-3.844-3.835-7.678-7.674c-.07-.069-.137-.143-.21-.208a1.2,1.2,0,0,0-1.679-.082c-.133.1-.254.219-.307.267-1.007-1.009-1.975-1.981-2.933-2.942.509-.974,1.065-2.374,1.065-2.374a20.051,20.051,0,0,0,.482-15.46,19.927,19.927,0,0,0-10.514-11.273,13.907,13.907,0,0,0-2.931-1.135,22.455,22.455,0,0,0-4.874-.791,14.048,14.048,0,0,0-2.725.189,20.443,20.443,0,0,0-13.178,6.905,17.66,17.66,0,0,0-1.508,1.947,20.132,20.132,0,0,0-3.123,14.824c.137.941.546,2.41.546,2.41.3.779.6,1.547.93,2.384a9.046,9.046,0,0,0,1.29,2.374,21.14,21.14,0,0,0,4.208,4.815,21.513,21.513,0,0,0,5.436,3.266l2.688.85a20,20,0,0,0,15.467-2.436,23.633,23.633,0,0,1,3.03,3.079c-.028.04-.052.083-.083.121-.7.81-.7,1.317.032,2.052,2.608,2.614,5.2,5.239,7.837,7.829a6.149,6.149,0,0,0,8.31.479A5.99,5.99,0,0,0-6497.762,2666.542Zm-31.992-6.856a17.737,17.737,0,0,1-17.831-17.917,17.8,17.8,0,0,1,17.857-17.754,17.8,17.8,0,0,1,17.79,17.9A17.714,17.714,0,0,1-6529.753,2659.686Zm12.813-2.153c.435-.4.968-.868,1.464-1.366s.94-1.013,1.409-1.522q1.4,1.4,2.649,2.656c-.95.952-1.937,1.941-2.876,2.88C-6515.116,2659.358-6516,2658.472-6516.94,2657.532Zm14.613,13.753a3.66,3.66,0,0,1-4.129-.7c-.39-.342-.741-.729-1.109-1.094q-2.91-2.914-5.824-5.827c-.1-.1-.2-.212-.3-.318,1.822-1.822,3.6-3.6,5.41-5.411.063.055.177.143.278.244q3.386,3.382,6.772,6.768a3.78,3.78,0,0,1,1.22,2.768A3.675,3.675,0,0,1-6502.327,2671.285Z" transform="translate(6549.988 -2621.53)" fill="#926cdc"/></g></svg>