<svg xmlns="http://www.w3.org/2000/svg" width="71.959" height="55.578" viewBox="0 0 71.959 55.578"><path d="M54.591,32.416H50.539a.938.938,0,0,0-.842.89v.016a.958.958,0,0,0,.842,1h3.1v9.342l-8.755-6.4a.952.952,0,0,0-1.065-.191c-.016.016-.032.016-.048.032s-.048.016-.064.032c-.016,0-.032.016-.048.032h0c-.016.016-.032.016-.048.032-.032.016-.048.048-.064.064a.279.279,0,0,0-.064.079l-.016.016c-.016.016-.683.636-1.239,1.176-.191-.191-.413-.381-.572-.54-.572-.54-1.319-1.239-1.621-1.525h0a1.015,1.015,0,0,0-.238-.207.96.96,0,0,0-1.255.222c-.032,0-1.954,1.827-3.337,3.114V34.323h9.279a.956.956,0,0,0,.89-.953v-.016a.961.961,0,0,0-.842-.953H34.253a.956.956,0,0,0-.953.953v11.3a.956.956,0,0,0,.953.953H54.591a.956.956,0,0,0,.953-.953V33.369A.956.956,0,0,0,54.591,32.416Zm-19.384,11.3V42.156a1.222,1.222,0,0,0,.286-.286l3.829-3.591,2.145,2.066a.791.791,0,0,0,.27.238.983.983,0,0,0,1,.016,7.621,7.621,0,0,0,.6-.572l.906-.842,6.467,4.544H35.207Z" transform="translate(-28.025 -27.332)" fill="#cbcbcb"/><path d="M34.253,182.507H48.664a.953.953,0,0,0,0-1.907H34.253a.953.953,0,1,0,0,1.907Z" transform="translate(-28.025 -151.985)" fill="#cbcbcb"/><path d="M54.591,155.1H34.253a.953.953,0,1,0,0,1.907H54.591a.953.953,0,0,0,0-1.907Z" transform="translate(-28.025 -130.536)" fill="#cbcbcb"/><path d="M55.544,204.853a.956.956,0,0,0-.953-.953H34.253a.953.953,0,1,0,0,1.907H54.591A.956.956,0,0,0,55.544,204.853Z" transform="translate(-28.025 -171.583)" fill="#cbcbcb"/><path d="M34.253,239.4a.953.953,0,1,0,0,1.907H39.5a.953.953,0,1,0,0-1.907Z" transform="translate(-28.025 -201.442)" fill="#cbcbcb"/><path d="M54.591,129.6H34.253a.953.953,0,1,0,0,1.907H54.591a.953.953,0,0,0,0-1.907Z" transform="translate(-28.025 -109.088)" fill="#cbcbcb"/><path d="M117.937,34.338h.079a.956.956,0,0,0,.89-.953v-.016a.961.961,0,0,0-.842-.953c-.032,0-.079-.016-.111-.016h0a.236.236,0,0,0-.111.016.961.961,0,0,0-.842.953v.016a.956.956,0,0,0,.89.953Z" transform="translate(-98.426 -27.332)" fill="#cbcbcb"/><path d="M46.939,44.972H2.372a.36.36,0,0,1-.365-.365V2.772a.36.36,0,0,1,.365-.365H26.427a.956.956,0,0,0,.953-.953.9.9,0,0,0-.286-.667A.951.951,0,0,0,26.427.5H2.372A2.268,2.268,0,0,0,.1,2.756V44.591a2.272,2.272,0,0,0,2.272,2.272H23.186V54.14H14.209a.953.953,0,0,0,0,1.907H41.537a.961.961,0,0,0,.937-1.16.975.975,0,0,0-.969-.747H36.771V46.863H47a.949.949,0,0,0,.953-.969A1.008,1.008,0,0,0,46.939,44.972Zm-12.091,9.2h-9.74V46.895h9.74Z" transform="translate(-0.1 -0.5)" fill="#cbcbcb"/><path d="M344.864,263.2a.956.956,0,0,0-.953.953v1.414a.37.37,0,0,1-.365.365h-2.463a.954.954,0,1,0-.032,1.907h2.494a2.272,2.272,0,0,0,2.272-2.272v-1.414A.956.956,0,0,0,344.864,263.2Z" transform="translate(-286.077 -221.461)" fill="#cbcbcb"/><ellipse cx="0.953" cy="0.953" rx="0.953" ry="0.953" transform="translate(50.017 44.472)" fill="#cbcbcb"/><path d="M387.616,173.7h0l-.016.016Z" transform="translate(-326.032 -146.181)" fill="#cbcbcb"/><path d="M407.327,130.511v-.1c0-.016-.016-.048-.016-.064v-.032c0-.016-.016-.048-.016-.064v-.032h0l-3.384-8.421a.958.958,0,0,0-1.78,0l-3.384,8.421v.016c0,.016,0,.016-.016.032,0,.016-.016.032-.016.064v.032c0,.016-.016.032-.016.064v22.832a4.314,4.314,0,1,0,8.627,0V130.511Zm-4.338-5.783,1.97,4.925H401Zm2.431,28.536a2.431,2.431,0,1,1-4.862,0v-2.479h4.862Zm0-4.385h-4.862V131.559h4.862Z" transform="translate(-335.368 -102.022)" fill="#cbcbcb"/><path d="M194.138,38.664h-7.484V33.58a.956.956,0,0,0-.953-.953H173.308a.956.956,0,0,0-.953.953v5.084h-3.178V2.407h32.254V11.1a.953.953,0,1,0,1.907,0V1.453A.956.956,0,0,0,202.384.5h-34.16a.956.956,0,0,0-.953.953V38.68h-6.117a.953.953,0,0,0,0,1.907h32.985a.961.961,0,0,0,0-1.923Zm-9.39,0H174.261V34.533h10.486Z" transform="translate(-134.762 -0.5)" fill="#cbcbcb"/><path d="M260.8,32.5H237.853a.956.956,0,0,0-.953.953v6.7a.956.956,0,0,0,.953.953H260.8a.956.956,0,0,0,.953-.953v-6.7A.956.956,0,0,0,260.8,32.5Zm-.953,6.7H238.807v-4.8h21.036Z" transform="translate(-199.276 -27.416)" fill="#cbcbcb"/><path d="M258.763,98.7H237.774a.957.957,0,0,0,0,1.907h20.989a.922.922,0,0,0,.874-.953A.932.932,0,0,0,258.763,98.7Z" transform="translate(-199.276 -83.097)" fill="#cbcbcb"/><path d="M250.146,130.7H237.753a.953.953,0,0,0,0,1.907h12.393a.953.953,0,0,0,0-1.907Z" transform="translate(-199.192 -110.013)" fill="#cbcbcb"/><path d="M343.72,130.7h-4.767a.953.953,0,0,0,0,1.907h4.767a.956.956,0,0,0,.953-.953A.967.967,0,0,0,343.72,130.7Z" transform="translate(-284.313 -110.013)" fill="#cbcbcb"/><path d="M250.146,154.7H237.753a.953.953,0,0,0,0,1.907h12.393a.953.953,0,0,0,0-1.907Z" transform="translate(-199.192 -130.2)" fill="#cbcbcb"/><path d="M344.377,154.7h-4.624a.953.953,0,0,0,0,1.907h4.624a.956.956,0,0,0,.953-.953A.946.946,0,0,0,344.377,154.7Z" transform="translate(-284.986 -130.2)" fill="#cbcbcb"/><path d="M250.146,178.7H237.753a.953.953,0,0,0,0,1.907h12.393a.953.953,0,0,0,0-1.907Z" transform="translate(-199.192 -150.387)" fill="#cbcbcb"/><path d="M344.377,178.7h-4.624a.953.953,0,0,0,0,1.907h4.624a.956.956,0,0,0,.953-.953A.946.946,0,0,0,344.377,178.7Z" transform="translate(-284.986 -150.387)" fill="#cbcbcb"/><ellipse cx="0.953" cy="0.953" rx="0.953" ry="0.953" transform="translate(66.668 14.649)" fill="#cbcbcb"/><ellipse cx="0.953" cy="0.953" rx="0.953" ry="0.953" transform="translate(28.631 0)" fill="#cbcbcb"/></svg>