<svg xmlns="http://www.w3.org/2000/svg" width="71.211" height="65.365" viewBox="0 0 71.211 65.365"><g transform="translate(0 0)"><g transform="translate(0 4.794)"><path d="M-6690.624-742.7c.117.012.226.018.33.019C-6690.4-742.688-6690.512-742.7-6690.624-742.7Zm0,0c.117.012.226.018.33.019C-6690.4-742.688-6690.512-742.7-6690.624-742.7Zm14.248-2.561a3.508,3.508,0,0,0-3.71-2.622q-5.978,0-11.958,0h-.771l.018,2.366h12.448c.162,0,.324-.007.486,0a1.237,1.237,0,0,1,1.236,1.247c.013.184,0,.37,0,.556v29.015h-14.18c-.012-.251-.033-.476-.033-.7v3.147h14.2c0,1.211.031,2.387-.012,3.562a1.17,1.17,0,0,1-1.25,1.137c-.185.007-.371,0-.556,0h-62.839c-1.471,0-1.8-.324-1.8-1.788,0-.948,0-1.9,0-2.835.544-.146,12.358-.207,14.182-.071V-714.7h-14.142c-.013-.2-.039-.4-.039-.6q0-14.315,0-28.63c0-1.116.419-1.58,1.459-1.583q6.182-.009,12.367,0c.091,0,.182.013.354.028v-2.4h-.787c-4.055,0-8.112.025-12.167-.01a3.621,3.621,0,0,0-3.6,3.618c.043,2.016.009,4.031.009,6.048q0,14.705,0,29.409a3.492,3.492,0,0,0,2.661,3.535,5.667,5.667,0,0,0,1.378.113q12.375.009,24.75.006c.27,0,.538.012.809.018v7.073h-.786c-3.174,0-6.349.015-9.524-.009a1.366,1.366,0,0,0-1.5,1.482c.057,1.644.015,3.291.015,4.937v.727h-2.322v2.362c1.319.138,39.768.082,40.246-.052v-2.352h-2.327v-.7c0-1.692.006-3.383,0-5.075a1.211,1.211,0,0,0-1.227-1.311c-.184-.015-.37,0-.556,0h-9.977a56.361,56.361,0,0,1,.05-7.092h25.285c.278,0,.556,0,.835-.013a3.444,3.444,0,0,0,3.151-2.234c.081-.187.163-.373.245-.559V-745.1A.673.673,0,0,1-6676.375-745.258Zm-38.975,40.2a62.666,62.666,0,0,1,6.921-.045,61.629,61.629,0,0,1,.07,6.908,54.194,54.194,0,0,1-6.992.036Zm18.891,9.487v4.58h-30.715a25.953,25.953,0,0,1-.062-4.541C-6726.741-695.658-6697.4-695.7-6696.459-695.568Zm6.166-47.11c-.108-.01-.219-.018-.33-.019C-6690.506-742.685-6690.4-742.679-6690.293-742.678Zm-.33-.019c.117.012.226.018.33.019C-6690.4-742.688-6690.512-742.7-6690.624-742.7Z" transform="translate(6747.465 749.062)" fill="#cbcbcb"/><g transform="translate(21.335 0)"><path d="M-6603.851-715.766h27.221v2.317h-27.18A6.555,6.555,0,0,1-6603.851-715.766Z" transform="translate(6603.933 721.713)" fill="#cbcbcb"/><path d="M-6555.549-753.431v-2.338h20.108v2.295C-6535.939-753.346-6554.374-753.3-6555.549-753.431Z" transform="translate(6562.742 755.769)" fill="#cbcbcb"/><path d="M-6603.888-529.924c0-.71,0-1.354,0-2a2.082,2.082,0,0,1,.069-.356h15.277a5.855,5.855,0,0,1,.053,2.354Z" transform="translate(6603.896 565.5)" fill="#cbcbcb"/><path d="M-6590.5-572.231v2.279h-13.024v-2.238C-6603.027-572.319-6591.554-572.363-6590.5-572.231Z" transform="translate(6603.585 599.582)" fill="#cbcbcb"/><path d="M-6539.633-673.376v-2.285h13.008v2.226C-6527.11-673.294-6538.187-673.236-6539.633-673.376Z" transform="translate(6549.192 687.569)" fill="#cbcbcb"/><path d="M-6531.276-636.248v2.231a78.847,78.847,0,0,1-8.268.045v-2.252A80.972,80.972,0,0,1-6531.276-636.248Z" transform="translate(6549.117 654.095)" fill="#cbcbcb"/><path d="M-6596.806-635.958v2.342h-7.079a19.984,19.984,0,0,1-.051-2.342Z" transform="translate(6603.945 653.768)" fill="#cbcbcb"/><path d="M-6598.783-753.412h-4.741v-2.359h4.711C-6598.748-754.987-6598.8-754.219-6598.783-753.412Z" transform="translate(6603.585 755.771)" fill="#cbcbcb"/><path d="M-6601.543-675.972v2.34c-.755.054-1.509.005-2.331.028a16.967,16.967,0,0,1-.053-2.36C-6603.116-676.011-6602.348-676-6601.543-675.972Z" transform="translate(6603.942 687.854)" fill="#cbcbcb"/><path d="M-6571.563-673.378v-2.3h2.317v2.3Z" transform="translate(6576.377 687.582)" fill="#cbcbcb"/></g><path d="M-6313.948-500.255v2.369c-.756.039-1.5.018-2.338.011-.048-.8-.026-1.566-.014-2.38Z" transform="translate(6380.406 538.237)" fill="#cbcbcb"/></g><g transform="translate(16.557)"><path d="M-6470.7-712.215a4.777,4.777,0,0,0-2.059-.721c-.1,0-.212-.007-.33-.019h0a4.758,4.758,0,0,0-1.537.23c-.156.049-.315.091-.5.14l0,0a4.988,4.988,0,0,0-1.453,1.032l-2.072,2.444-.031.037q-5.826,6.928-11.647,13.86a2.705,2.705,0,0,0-.609,1.366c-.327,2.056-.66,4.11-.978,6.166-.175,1.127.6,1.831,1.674,1.476,2.127-.7,4.244-1.439,6.351-2.2a2.241,2.241,0,0,0,.85-.675c1.508-1.775,3-3.569,4.494-5.354l.18-.214,3.384-4.028c.03-.042.063-.083.1-.125l.947-1.119c1.464-1.733,2.928-3.466,4.369-5.219A4.73,4.73,0,0,0-6470.7-712.215Zm-18.5,23.123a21.953,21.953,0,0,1,.384-2.743l2.192,1.848Zm4.828-2.139c-1.238-1.043-2.4-2.023-3.612-3.041l10.661-12.7,3.616,3.032C-6477.254-699.706-6480.785-695.5-6484.366-691.232Zm13.135-15.709c-.251.385-.569.725-.916,1.162-1.2-1-2.38-1.987-3.631-3.031.34-.4.6-.751.913-1.057a2.357,2.357,0,0,1,3.159-.143A2.341,2.341,0,0,1-6471.231-706.941Z" transform="translate(6513.372 724.114)" fill="#926cdc"/><path d="M-6598.018-761.584c.012,3.071.01,6.142.01,9.213v5.961h0c0,.444,0,.877,0,1.307v.275c0,.123,0,.247,0,.369-.008,1.164-.438,1.6-1.594,1.6q-17.414,0-34.826,0c-1.194,0-1.612-.431-1.618-1.649,0-.621,0-1.243,0-1.9h-.031v-33.243h0v-2.4c.011-.291.03-.517.03-.742,0-1.182.033-2.365-.007-3.545-.038-1.09.466-1.692,1.667-1.689q13.975.033,27.949.012h6.814c1.2.007,1.611.43,1.616,1.65,0,.532,0,1.066,0,1.6q0,.974,0,1.947v.768h.022l.018,2.367v3.224l.129-.036a5,5,0,0,0-1.452,1.032l-2.072,2.444c.192-.227.383-.455.574-.682a1.345,1.345,0,0,0,.352-.935c-.012-3.452,0-6.9-.009-10.358,0-.178-.032-.357-.052-.552h-33.07v40.173c.9.146,32.593.106,33.078-.034v-13.83c-.239.276-.421.48-.59.679l3.383-4.028A1.579,1.579,0,0,0-6598.018-761.584Z" transform="translate(6636.079 788.02)" fill="#926cdc"/></g></g></svg>