<svg xmlns="http://www.w3.org/2000/svg" viewBox="0 0 71.927 55.594"><path d="M321.369,2.407h5.625a.37.37,0,0,1,.365.365v2a.953.953,0,0,0,1.907,0v-2A2.272,2.272,0,0,0,326.994.5h-5.625a.977.977,0,0,0-.969.953A.98.98,0,0,0,321.369,2.407Z" transform="translate(-269.525 -0.484)" fill="#cbcbcb"/><path d="M42.32,54.087H36.855V46.795h1.128a.9.9,0,0,0,.667-.286.944.944,0,0,0-.667-1.621H2.472a.381.381,0,0,1-.365-.365V2.688a.36.36,0,0,1,.365-.365H43.258a.961.961,0,0,0,0-1.923H2.472A2.3,2.3,0,0,0,.2,2.688V44.522a2.272,2.272,0,0,0,2.272,2.272H23.286v7.293H14.341a.982.982,0,0,0-1,.922.953.953,0,0,0,.953.985H42.32a.956.956,0,0,0,.953-.953A.946.946,0,0,0,42.32,54.087Zm-7.372,0H25.193V46.795h9.756Z" transform="translate(-0.2 -0.4)" fill="#cbcbcb"/><path d="M67.541,47.851a.962.962,0,0,0,.794-.667l2.193-7.325A.955.955,0,1,0,68.7,39.3l-1.573,5.243L65.618,42.02a.947.947,0,0,0-.81-.461.927.927,0,0,0-.81.461l-1.541,2.542-1.525-5.084a.979.979,0,0,0-.667-.81.931.931,0,0,0-.906.207l-.048.048-.048.048c-.016.016-.032.048-.048.064a.959.959,0,0,0-.175.413h0l-1.525,5.116L55.974,42.02a.947.947,0,0,0-.81-.461.927.927,0,0,0-.81.461l-1.509,2.526L51.271,39.3a.948.948,0,0,0-1.192-.636.972.972,0,0,0-.191.079.055.055,0,0,0-.032.016c-.016.016-.032.016-.048.032a.93.93,0,0,0-.381.524l-1.573,5.243-1.509-2.526a.947.947,0,0,0-.81-.461.927.927,0,0,0-.81.461l-1.557,2.526-1.573-5.243a.955.955,0,0,0-1.827.556L41.96,47.2a.939.939,0,0,0,.794.667h.111a.927.927,0,0,0,.81-.461l1.811-3.019L47.3,47.406a.953.953,0,0,0,1.732-.207l1.287-4.322L51.6,47.184a.958.958,0,0,0,.794.667h.127a.973.973,0,0,0,.826-.461l1.811-3.019,1.811,3.019a.953.953,0,0,0,1.732-.207l1.271-4.242L61.249,47.2a.953.953,0,0,0,1.732.207l1.811-3.019L66.6,47.406a.947.947,0,0,0,.81.461A.35.35,0,0,0,67.541,47.851Z" transform="translate(-33.444 -32.55)" fill="#cbcbcb"/><path d="M46.691,125.753a.956.956,0,0,0-.953-.953H40.653a.956.956,0,0,0-.953.953v5.084a.956.956,0,0,0,.953.953h5.084a.956.956,0,0,0,.953-.953Zm-1.907,4.131H41.607v-3.178h3.178Z" transform="translate(-33.424 -105.035)" fill="#cbcbcb"/><path d="M45.738,180.8H40.653a.956.956,0,0,0-.953.953v5.084a.956.956,0,0,0,.953.953h5.084a.956.956,0,0,0,.953-.953v-5.084A.956.956,0,0,0,45.738,180.8Zm-.953,5.084H41.607v-3.178h3.178Z" transform="translate(-33.424 -152.137)" fill="#cbcbcb"/><path d="M100.467,140.8H96.653a.953.953,0,0,0,0,1.907h3.813a.953.953,0,0,0,0-1.907Z" transform="translate(-80.526 -118.493)" fill="#cbcbcb"/><path d="M153.71,140.8h-9.056a.953.953,0,0,0,0,1.907h9.056a.953.953,0,0,0,0-1.907Z" transform="translate(-120.9 -118.493)" fill="#cbcbcb"/><path d="M100.467,196.8H96.653a.953.953,0,0,0,0,1.907h3.813a.953.953,0,0,0,0-1.907Z" transform="translate(-80.526 -165.595)" fill="#cbcbcb"/><path d="M153.71,196.8h-9.056a.953.953,0,0,0,0,1.907h9.056a.953.953,0,0,0,0-1.907Z" transform="translate(-120.9 -165.595)" fill="#cbcbcb"/><ellipse cx="0.953" cy="0.953" rx="0.953" ry="0.953" transform="translate(46.506 0.016)" fill="#cbcbcb"/><path d="M282.6,81.2h-2.145a.953.953,0,0,0,0,1.907H282.6a.953.953,0,0,0,0-1.907Z" transform="translate(-235.123 -68.362)" fill="#926cdc"/><path d="M393.26,69.2a2.86,2.86,0,1,0,2.86,2.86A2.868,2.868,0,0,0,393.26,69.2Zm0,3.813a.953.953,0,1,1,.953-.953A.956.956,0,0,1,393.26,73.013Z" transform="translate(-328.403 -58.269)" fill="#926cdc"/><path d="M340.36,69.2a2.86,2.86,0,1,0,2.86,2.86A2.868,2.868,0,0,0,340.36,69.2Zm0,3.813a.953.953,0,1,1,.953-.953A.956.956,0,0,1,340.36,73.013Z" transform="translate(-283.908 -58.269)" fill="#926cdc"/><path d="M276.9,48.4h-27.09A2.807,2.807,0,0,0,247,51.212v6.7a2.807,2.807,0,0,0,2.812,2.812H276.9a2.807,2.807,0,0,0,2.812-2.812v-6.7A2.807,2.807,0,0,0,276.9,48.4Zm.906,9.517a.905.905,0,0,1-.906.906h-27.09a.905.905,0,0,1-.906-.906v-6.7a.905.905,0,0,1,.906-.906H276.9a.905.905,0,0,1,.906.906v6.7Z" transform="translate(-207.787 -40.773)" fill="#926cdc"/><path d="M282.6,170.8h-2.145a.953.953,0,0,0,0,1.907H282.6a.953.953,0,0,0,0-1.907Z" transform="translate(-235.123 -143.726)" fill="#926cdc"/><path d="M393.26,158.8a2.86,2.86,0,1,0,2.86,2.86A2.868,2.868,0,0,0,393.26,158.8Zm0,3.813a.953.953,0,1,1,.953-.953A.956.956,0,0,1,393.26,162.613Z" transform="translate(-328.403 -133.633)" fill="#926cdc"/><path d="M340.36,158.8a2.86,2.86,0,1,0,2.86,2.86A2.868,2.868,0,0,0,340.36,158.8Zm0,3.813a.953.953,0,1,1,.953-.953A.956.956,0,0,1,340.36,162.613Z" transform="translate(-283.908 -133.633)" fill="#926cdc"/><path d="M286.331,233.83a.953.953,0,0,0,0-1.907h-3.559a.943.943,0,0,0-.937-.81H279.34v-2.86a.953.953,0,1,0-1.907,0v3.813a.956.956,0,0,0,.953.953h2.495v3.988h-10.9V233.02h4.576a.953.953,0,1,0,0-1.907H273.43v-2.86a.953.953,0,1,0-1.907,0v2.86h-2.494a.943.943,0,0,0-.937.81H256.953a.953.953,0,0,0,0,1.907h11.122v1.907H256.953a.953.953,0,0,0,0,1.907h11.122v.318a.956.956,0,0,0,.953.953h12.806a.956.956,0,0,0,.953-.953v-.318h3.543a.953.953,0,0,0,0-1.907h-3.543V233.83Z" transform="translate(-215.357 -191.249)" fill="#926cdc"/><path d="M276.9,138h-27.09A2.807,2.807,0,0,0,247,140.812v6.7a2.807,2.807,0,0,0,2.812,2.812H276.9a2.807,2.807,0,0,0,2.812-2.812v-6.7A2.817,2.817,0,0,0,276.9,138Zm.906,9.517a.905.905,0,0,1-.906.906h-27.09a.905.905,0,0,1-.906-.906v-6.7a.905.905,0,0,1,.906-.906H276.9a.905.905,0,0,1,.906.906v6.7Z" transform="translate(-207.787 -116.137)" fill="#926cdc"/></svg>