<svg xmlns="http://www.w3.org/2000/svg" width="71.032" height="70.861" viewBox="0 0 71.032 70.861"><path d="M-5492.337,2034.539a3.715,3.715,0,0,1-1.438,2.261,2.681,2.681,0,0,1-1.638.618c-1.661-.008-3.32.007-4.979-.007a2.766,2.766,0,0,1-1.884-.788c-.1-.089-.18-.2-.282-.277a2.681,2.681,0,0,1-.939-1.812,3.665,3.665,0,0,1-.4.191,8.979,8.979,0,0,1-1.544.459,3.012,3.012,0,0,1-1.973-.552,5.829,5.829,0,0,1-.943-.778c-.866-.847-1.71-1.716-2.576-2.564a3.647,3.647,0,0,1-.891-1.292,2.208,2.208,0,0,1-.174-2.011c-.093-.548.369-.905.479-1.4a4.1,4.1,0,0,1-2.013-1.215,2.984,2.984,0,0,1-.839-2.025c0-1.581.005-3.162,0-4.742a2.832,2.832,0,0,1,.838-2.022,3.22,3.22,0,0,1,2.038-1.245,2.012,2.012,0,0,0-.19-.4,3.048,3.048,0,0,1-.449-1.549,2.823,2.823,0,0,1,.534-1.9,5.672,5.672,0,0,1,.777-.942c.9-.923,1.8-1.853,2.742-2.734a3.568,3.568,0,0,1,2.632-1.07,3.619,3.619,0,0,1,1.67.539c.063.037.128.068.229.122a6.307,6.307,0,0,1,.552-1.281,4.046,4.046,0,0,1,2.135-1.58,1.766,1.766,0,0,1,.545-.023c1.553,0,3.108.018,4.662-.01a2.808,2.808,0,0,1,1.5.393,3.315,3.315,0,0,1,1.813,2.51,2.878,2.878,0,0,0,.432-.209,3.32,3.32,0,0,1,1.548-.45,2.907,2.907,0,0,1,1.9.523,5.679,5.679,0,0,1,1,.831c.9.884,1.812,1.767,2.68,2.684a3.563,3.563,0,0,1,1.081,2.706,3.7,3.7,0,0,1-.658,1.809,6.047,6.047,0,0,0,.59.278,3.572,3.572,0,0,1,2.15,2.155,2.572,2.572,0,0,1,.142.888c0,1.581.012,3.162,0,4.742a2.794,2.794,0,0,1-.8,1.958c-.072.076-.156.143-.222.225a2.51,2.51,0,0,1-1.875.966,8.831,8.831,0,0,1,.613,1.7,1.675,1.675,0,0,1,.063.754,4.006,4.006,0,0,1-1.016,2.1c-1,1.044-2.021,2.077-3.075,3.071a3.452,3.452,0,0,1-2.642,1.038,3.2,3.2,0,0,1-1.661-.56A1.09,1.09,0,0,0-5492.337,2034.539Zm5.953-6.376-.336-.335c-.558-.559-1.135-1.1-1.67-1.682a1.094,1.094,0,0,1,0-1.671,1.452,1.452,0,0,1,1.137-.5c.9-.017,1.791-.005,2.673-.005l.567-.549v-4.879l-.548-.581c-.6,0-1.175,0-1.755,0a3.613,3.613,0,0,1-1.839-.269c.039.039-.013-.022-.074-.072a1.224,1.224,0,0,1,0-2.018c.644-.582,1.238-1.218,1.839-1.817v-.922l-3.433-3.433h-.921c-.715.716-1.419,1.427-2.135,2.127a1.662,1.662,0,0,1-.4.214c-.665.173-1.087-.238-1.462-.672a16.33,16.33,0,0,1-.2-3.447l-.524-.593h-4.849c-.244.218-.437.392-.621.555,0,.786-.017,1.551,0,2.314a1.7,1.7,0,0,1-1.1,1.858c-.714.008-.73,0-1.273-.54-.614-.612-1.226-1.225-1.814-1.813H-5506c-1.187,1.186-2.32,2.319-3.458,3.459v.895c.61.611,1.2,1.217,1.806,1.8a1.428,1.428,0,0,1,.52,1.436l-.615.738a15.352,15.352,0,0,1-3.445.215l-.637.547v4.8l.587.621c1.137.134,2.291-.162,3.454.219a1.491,1.491,0,0,1,.652,1.576c-.171.194-.394.471-.64.724-.568.581-1.147,1.151-1.68,1.683v.983l3.377,3.376h.962c.6-.6,1.22-1.2,1.82-1.828a1.417,1.417,0,0,1,1.433-.5l.747.634a19.265,19.265,0,0,1,.213,3.551l.52.52h4.917l.544-.585c0-.853-.009-1.748,0-2.643a1.535,1.535,0,0,1,.489-1.143,1.29,1.29,0,0,1,1.176-.353,5.186,5.186,0,0,1,1.283,1.122c.418.4.821.817,1.215,1.211h.993l3.38-3.378Q-5486.383,2028.636-5486.384,2028.163Z" transform="translate(5552.345 -2004.511)" fill="#926cdc"/><g transform="translate(0 10.127)"><path d="M-5500.044,2166.149a4.311,4.311,0,0,1,2.369.886,22.389,22.389,0,0,1,2.413,2.331,2.394,2.394,0,0,1,.717,1.668c.418.615-.086,1.23,0,1.844-.24.4-.474.807-.723,1.2a1.777,1.777,0,0,1-.276.282q-12.209,12.209-24.423,24.415a5.015,5.015,0,0,1-1.032.932,6.6,6.6,0,0,1-1.164.435,32.913,32.913,0,0,0-3.588,1.262c-.619-.019-1.1.392-1.684.52-.565.125-1.087.438-1.65.584a1.337,1.337,0,0,1-1.449-.452c-.339-.412-.594-.831-.226-1.356.756-2.629,1.737-5.185,2.536-7.8a2.1,2.1,0,0,1,.331-.573,2.828,2.828,0,0,1,.331-.338q12.266-12.266,24.528-24.533a5.49,5.49,0,0,1,1.085-.817A3.862,3.862,0,0,1-5500.044,2166.149Zm-4.547,6.506-19.006,19.006a4.573,4.573,0,0,0-.44.452,1.1,1.1,0,0,0-.105.363c1.033,1.032,2.051,2.057,3.08,3.072a1.783,1.783,0,0,0,.4.235l19.6-19.6Zm5.38,1.737c.54-.539,1.049-1.071,1.584-1.577a1.445,1.445,0,0,0,.511-1.479c-.325-.345-.728-.777-1.138-1.2s-.848-.862-1.187-1.206l-.735-.234a3.075,3.075,0,0,0-1.319.856c-.409.443-.852.854-1.281,1.28Zm-28.442,24.9c1.732-.65,3.4-1.085,5.008-1.745a26.481,26.481,0,0,0-3.326-3.259C-5526.518,2195.914-5527.062,2197.528-5527.653,2199.291Z" transform="translate(5565.41 -2142.127)" fill="#cbcbcb"/><path d="M-5610.859,2182.345c-2.556,0-5.111.01-7.667-.007a3.47,3.47,0,0,1-2.2-.795,4.458,4.458,0,0,1-1.08-1.294,2.842,2.842,0,0,1-.374-1.424c0-.975-.02-1.95,0-2.924a3.56,3.56,0,0,1,.784-2.211,5.166,5.166,0,0,1,1.289-1.089,5.455,5.455,0,0,1,1.423-.378c5.243,0,10.487-.01,15.73.009a3.294,3.294,0,0,1,2.058.763,4.187,4.187,0,0,1,1.129,1.354,2.905,2.905,0,0,1,.355,1.352c0,1.054.038,2.11-.014,3.161a3.3,3.3,0,0,1-.751,1.983,4.234,4.234,0,0,1-1.287,1.089,3.3,3.3,0,0,1-1.567.411Q-5606.947,2182.341-5610.859,2182.345Zm-8.33-2.827a2.73,2.73,0,0,0,1.59.3q6.758,0,13.519,0c.635,0,1.279.059,1.635-.26a2.279,2.279,0,0,0,.5-1.818c0-.657,0-1.313,0-1.891l-.333-.649a2.252,2.252,0,0,0-1.684-.447q-6.761.007-13.52,0a2.388,2.388,0,0,0-1.848.454l-.326.644c0,.575,0,1.233,0,1.89A2.251,2.251,0,0,0-5619.188,2179.518Z" transform="translate(5637.383 -2146.916)" fill="#cbcbcb"/><path d="M-5682.646,2052.451c2.556,0,5.112-.011,7.667.007a3.469,3.469,0,0,1,2.21.782,5.126,5.126,0,0,1,1.088,1.289,5.387,5.387,0,0,1,.378,1.424c0,1,.023,2-.007,3a3.5,3.5,0,0,1-.769,2.135,4.99,4.99,0,0,1-1.289,1.09,5.938,5.938,0,0,1-1.419.39c-5.269,0-10.539.012-15.808-.013a3.162,3.162,0,0,1-1.983-.751,4.439,4.439,0,0,1-1.169-1.412,2.867,2.867,0,0,1-.323-1.286c-.015-1.053-.039-2.109.007-3.161a3.277,3.277,0,0,1,.744-1.986,4.378,4.378,0,0,1,1.281-1.1,3.192,3.192,0,0,1,1.567-.416Q-5686.559,2052.449-5682.646,2052.451Zm-8.431,7.294a2.717,2.717,0,0,0,1.588.3q6.762,0,13.52,0a2.25,2.25,0,0,0,1.757-.415c.5-.474.372-1.082.378-1.661.007-.657,0-1.314,0-1.892l-.335-.65a2.253,2.253,0,0,0-1.681-.447q-6.76.008-13.52,0a2.281,2.281,0,0,0-1.863.479l-.312.618c0,.574,0,1.231,0,1.887A2.247,2.247,0,0,0-5691.076,2059.745Z" transform="translate(5694.088 -2052.448)" fill="#cbcbcb"/><path d="M-5682.708,2302.108c-2.556,0-5.112.013-7.667-.007a3.468,3.468,0,0,1-2.211-.783,5.24,5.24,0,0,1-1.088-1.289,5.284,5.284,0,0,1-.376-1.424c0-1-.025-2,.007-3a3.514,3.514,0,0,1,.77-2.136,5,5,0,0,1,1.289-1.089,5.973,5.973,0,0,1,1.418-.389c5.27,0,10.54-.012,15.81.014a3.148,3.148,0,0,1,1.981.752,4.456,4.456,0,0,1,1.169,1.412,2.875,2.875,0,0,1,.323,1.286c.015,1.053.038,2.109-.007,3.161a3.275,3.275,0,0,1-.745,1.985,4.338,4.338,0,0,1-1.281,1.1,3.194,3.194,0,0,1-1.566.416Zm8.512-7.164c-.481-.554-1.091-.424-1.67-.425q-6.76-.005-13.519,0c-.636,0-1.279-.057-1.632.258a2.274,2.274,0,0,0-.5,1.82c0,.657,0,1.314,0,1.89l.335.651a2.257,2.257,0,0,0,1.683.446q6.76-.007,13.52,0a2.4,2.4,0,0,0,1.845-.45l.329-.648c0-.576,0-1.234,0-1.89A2.086,2.086,0,0,0-5674.2,2294.944Z" transform="translate(5694.066 -2241.377)" fill="#cbcbcb"/><path d="M-5629.818,2121.546c-.536.839-.617.881-1.6.857a2.469,2.469,0,0,1-.33-.147,1.187,1.187,0,0,1-.6-1.067c.006-.185-.005-.369,0-.553a2.191,2.191,0,0,0-.44-1.678l-.653-.336c-3,0-6.085.009-9.165-.006a3.325,3.325,0,0,1-2.2-.8,5.007,5.007,0,0,1-1.176-1.48,2.726,2.726,0,0,1-.179-.718,6.532,6.532,0,0,1-.05-2.475c.043-.385.4-.686,1.017-.851a1.354,1.354,0,0,1,1.074.325,1.564,1.564,0,0,1,.388,1.344c-.011.368,0,.737,0,1.046l.324.638a2.259,2.259,0,0,0,1.833.448q4.069,0,8.14,0a4.118,4.118,0,0,1,1.628.458,3.76,3.76,0,0,1,1.758,1.934,3.229,3.229,0,0,1,.223,1.089C-5629.792,2120.227-5629.818,2120.887-5629.818,2121.546Z" transform="translate(5656.4 -2099.639)" fill="#cbcbcb"/><path d="M-5643.2,2238.673c-.656.871-.345,1.776-.444,2.627a1.333,1.333,0,0,1-2.516-.027c0-.629-.036-1.288.008-1.941a3.4,3.4,0,0,1,.746-1.986,4.418,4.418,0,0,1,1.28-1.1,3.163,3.163,0,0,1,1.566-.416q4.148-.006,8.3,0a2.245,2.245,0,0,0,1.684-.448l.334-.649c0-.391.01-.864,0-1.336a1.159,1.159,0,0,1,.759-1.256c.045-.017.076-.072.113-.109a1.366,1.366,0,0,1,1.667,1.681c-.038.339.012.686-.009,1.027a3.624,3.624,0,0,1-.772,2.137,4.461,4.461,0,0,1-1.1.986,3.117,3.117,0,0,1-1.687.5q-4.151,0-8.3,0A2.786,2.786,0,0,0-5643.2,2238.673Z" transform="translate(5656.297 -2194.077)" fill="#cbcbcb"/><path d="M-5574.251,2071.345a2.4,2.4,0,0,1,.236-.449,1.251,1.251,0,0,1,.984-.487q3.833.013,7.667,0a1.272,1.272,0,0,1,1.217.9c.03,1.005-.017,1.1-.856,1.628q-3.9,0-7.818,0a1.25,1.25,0,0,1-1.43-1.436C-5574.252,2071.429-5574.251,2071.352-5574.251,2071.345Z" transform="translate(5599.569 -2066.614)" fill="#cbcbcb"/><path d="M-5568.267,2304.807c.145-.2.264-.4.409-.568a1,1,0,0,1,.819-.312c1.185.007,2.371.03,3.556-.008a1.393,1.393,0,0,1,1.536.953,1.692,1.692,0,0,1-.145.954,1.168,1.168,0,0,1-1.037.633c-1.291,0-2.583,0-3.873,0a1.205,1.205,0,0,1-1.265-1.284C-5568.268,2305.045-5568.267,2304.915-5568.267,2304.807Z" transform="translate(5594.85 -2250.79)" fill="#cbcbcb"/></g><path d="M-5457.714,2066.829a9.747,9.747,0,0,1-1.39-.125,6.732,6.732,0,0,1-1.069-.459,4.91,4.91,0,0,1-1.086-.633,5.82,5.82,0,0,1-2.009-2.951,2.551,2.551,0,0,1-.106-.587c-.036-.22.1-.473-.147-.655-.039-.029-.035-.16-.007-.225.239-.566.042-1.216.318-1.762a8.049,8.049,0,0,1,1.4-2.268,8.556,8.556,0,0,1,2.621-1.494c.13-.06.31-.006.464-.024a1.254,1.254,0,0,0,.666-.123c.143-.1.463.115.7.118a5.373,5.373,0,0,1,3,1.16,6.245,6.245,0,0,1,1.857,2.549,3.617,3.617,0,0,1,.2,1.1c.036.22-.092.468.145.657a.3.3,0,0,1,.005.295.612.612,0,0,0-.14.652,1.607,1.607,0,0,1-.2.948,8.7,8.7,0,0,1-1.261,2.084,3.225,3.225,0,0,1-1.076.833,5.443,5.443,0,0,1-1.536.677c-.117.016-.226.1-.344.118C-5457.085,2066.767-5457.459,2066.8-5457.714,2066.829Zm-.139-2.641a2.9,2.9,0,0,0,3.033-2.931,3.033,3.033,0,0,0-2.966-3.095,2.961,2.961,0,0,0-3.075,2.987A2.974,2.974,0,0,0-5457.853,2064.188Z" transform="translate(5512.257 -2044.727)" fill="#926cdc"/></svg>