<svg xmlns="http://www.w3.org/2000/svg" viewBox="0 0 71.722 55.61"><path d="M42.207,45.566V40.307h9.279a.956.956,0,0,0,.89-.953h0a.961.961,0,0,0-.842-.953H41.253a.956.956,0,0,0-.953.953v11.3a.956.956,0,0,0,.953.953h23.1l.064.048.032-.048h.683a.956.956,0,0,0,.953-.953v-11.3a.956.956,0,0,0-.953-.953H57.539a.941.941,0,0,0-.842.906h0a.958.958,0,0,0,.842,1H64.18v8.77l-7.849-5.895a.966.966,0,0,0-1.049-.064L50.612,45.8l-3.686-3.432a.941.941,0,0,0-1.3.016l-3.48,3.289v-.048A.124.124,0,0,0,42.207,45.566Zm4.067-1.192,3.559,3.289a.958.958,0,0,0,1.128.127L55.7,45.057l6.133,4.624H42.143V48.3Z" transform="translate(-34.024 -32.362)" fill="#cbcbcb"/><path d="M41.253,188.407H60.177a.953.953,0,1,0,0-1.907H41.253a.953.953,0,1,0,0,1.907Z" transform="translate(-34.024 -156.931)" fill="#cbcbcb"/><path d="M65.2,161H41.253a.953.953,0,1,0,0,1.907H65.2a.953.953,0,1,0,0-1.907Z" transform="translate(-34.024 -135.483)" fill="#cbcbcb"/><path d="M66.151,210.653a.956.956,0,0,0-.953-.953H41.253a.953.953,0,0,0,0,1.907H65.2A.956.956,0,0,0,66.151,210.653Z" transform="translate(-34.024 -176.445)" fill="#cbcbcb"/><path d="M41.253,245.3a.953.953,0,0,0,0,1.907h9.74a.953.953,0,0,0,0-1.907Z" transform="translate(-34.024 -206.389)" fill="#cbcbcb"/><path d="M65.2,135.5H41.253a.953.953,0,1,0,0,1.907H65.2a.953.953,0,1,0,0-1.907Z" transform="translate(-34.024 -114.035)" fill="#cbcbcb"/><path d="M124.853,40.138h.079a.956.956,0,0,0,.89-.953v-.016a.961.961,0,0,0-.842-.953c-.032,0-.079-.016-.111-.016h-.016a.236.236,0,0,0-.111.016.961.961,0,0,0-.842.953v.016a.956.956,0,0,0,.89.953Z" transform="translate(-104.341 -32.194)" fill="#cbcbcb"/><path d="M46.4,45.237a.958.958,0,0,0-.6-.334.44.44,0,0,0-.143-.016H3.072a.381.381,0,0,1-.365-.365V2.688a.37.37,0,0,1,.365-.365h39.9a.961.961,0,0,0,0-1.923H3.072A2.3,2.3,0,0,0,.8,2.688v41.85A2.272,2.272,0,0,0,3.072,46.81H23.886V54.1H14.893a.953.953,0,0,0,0,1.907H42.936a.953.953,0,1,0,0-1.907H37.455V46.81h8.2a.956.956,0,0,0,.953-.953.816.816,0,0,0-.1-.4A.491.491,0,0,0,46.4,45.237Zm-10.852,8.85H25.793V46.795h9.756Z" transform="translate(-0.8 -0.4)" fill="#cbcbcb"/><path d="M310.669,2.407h7.436a.37.37,0,0,1,.365.365v3.8a.953.953,0,1,0,1.907,0v-3.8A2.272,2.272,0,0,0,318.105.5h-7.436a.977.977,0,0,0-.969.953A.98.98,0,0,0,310.669,2.407Z" transform="translate(-260.62 -0.484)" fill="#cbcbcb"/><path d="M285.953,2.407h0a.953.953,0,0,0,0-1.907h0a.953.953,0,0,0,0,1.907Z" transform="translate(-239.845 -0.484)" fill="#cbcbcb"/><path d="M273.329,81.345a.94.94,0,0,0-.937-.779h-15.3a.956.956,0,0,0-.953.953V87.8a.956.956,0,0,0,.953.953h7.5a6.466,6.466,0,0,1-2.526,3.162,8.87,8.87,0,0,1-4.973,1.382,8.7,8.7,0,0,1-8.183-6.038,8.945,8.945,0,0,1-.461-2.781,8.794,8.794,0,0,1,.461-2.78,8.679,8.679,0,0,1,8.183-6.038,7.86,7.86,0,0,1,5.545,2.161.949.949,0,0,0,1.335-.016l4.655-4.655a.95.95,0,0,0,.286-.683.939.939,0,0,0-.3-.683A16.567,16.567,0,0,0,257.091,67.3a17.111,17.111,0,0,0-15.364,9.47,17.23,17.23,0,0,0,0,15.444,17.111,17.111,0,0,0,15.364,9.47,16.411,16.411,0,0,0,11.392-4.195,16.8,16.8,0,0,0,5.148-12.6v-.111h0A17.564,17.564,0,0,0,273.329,81.345Zm-1.589,3.527a14.959,14.959,0,0,1-4.528,11.2,14.535,14.535,0,0,1-10.105,3.686,15.285,15.285,0,1,1,0-30.57,14.7,14.7,0,0,1,9.47,3.321l-3.3,3.3a9.794,9.794,0,0,0-6.165-2.081,10.6,10.6,0,0,0-9.994,7.34,10.576,10.576,0,0,0,0,6.769,10.578,10.578,0,0,0,9.994,7.34,10.765,10.765,0,0,0,6.038-1.716,8.467,8.467,0,0,0,3.654-5.513.909.909,0,0,0-.207-.779.927.927,0,0,0-.731-.35h-7.785V82.458H271.6a18.453,18.453,0,0,1,.159,2.288v.127Z" transform="translate(-201.911 -56.671)" fill="#926cdc"/></svg>