<svg xmlns="http://www.w3.org/2000/svg" width="68.61" height="68.618" viewBox="0 0 68.61 68.618"><g transform="translate(12.789 4.872)"><path d="M-3953.9,1592.938c-.121.084-.23.155-.333.232-.84.629-1.687,1.248-2.512,1.893a9.576,9.576,0,0,0-1.2,1.064,7.662,7.662,0,0,0-2.053,5.231c-.017,1.472.008,2.946-.009,4.42a2.221,2.221,0,0,1-1.627,2.2,3.927,3.927,0,0,1-.994.086q-3.249.008-6.5,0c-.8,0-1.608.014-2.412-.014a2.135,2.135,0,0,1-2.013-1.661,4.3,4.3,0,0,1-.107-.927c-.012-1.317-.008-2.635-.005-3.953a8.019,8.019,0,0,0-.231-2.119,7.609,7.609,0,0,0-2.968-4.321c-.686-.5-1.41-.944-2.072-1.474a19.3,19.3,0,0,1-5.49-6.9,19.683,19.683,0,0,1-1.849-7.673,18.613,18.613,0,0,1,.385-4.387,19.085,19.085,0,0,1,2.814-6.811,18.854,18.854,0,0,1,7.722-6.734,18.773,18.773,0,0,1,8.235-1.886c0,.013,0,.025,0,.037a.357.357,0,0,1,.122-.173l2.353-2.069a21.074,21.074,0,0,0-16.207,5.048,21.371,21.371,0,0,0-7.593,15.234,20.046,20.046,0,0,0,.2,4.511c.037.153.074.314.114.479.143.594.281,1.171.419,1.752.005.023.01.046.017.07a16.693,16.693,0,0,0,1.279,3.579,22.026,22.026,0,0,0,3.09,4.8q.508.6,1.064,1.171c0,.013-.007.027-.012.039a14.569,14.569,0,0,0,1.841,1.665c.871.631,1.724,1.207,2.528,1.841a5.009,5.009,0,0,1,1.625,2.323,4.7,4.7,0,0,1,.292,3.217c.015.171.038.332.038.494,0,.781.007,1.561,0,2.342a4.562,4.562,0,0,0,2.061,4.042c.053.038.1.082.217.169v.613c0,1.852-.009,3.7,0,5.556a4.568,4.568,0,0,0,1.782,3.722,4.474,4.474,0,0,0,1.731.829,2.959,2.959,0,0,1,.365.137h6.03c.221-.087.438-.187.665-.26a4.3,4.3,0,0,0,1.971-1.323,4.43,4.43,0,0,0,1.121-3c0-1.854,0-3.707,0-5.561,0-.242,0-.485,0-.667a1.507,1.507,0,0,1,.149-.157,4.6,4.6,0,0,0,2.132-4.2c-.036-1.294-.023-2.59,0-3.886a5.625,5.625,0,0,1,2.478-4.791c.493-.344,1-.676,1.472-1.046a7,7,0,0,0,1.34-1.171C-3952.93,1594.013-3953.408,1593.484-3953.9,1592.938Zm-17.439,17.511h9.026v2.144h-9.026Zm9.022,5.971a2.223,2.223,0,0,1-2.176,1.914c-1.562.05-3.129.064-4.688-.005a2.157,2.157,0,0,1-2.143-1.937c-.044-.439-.05-.882-.077-1.39h9.094A10.1,10.1,0,0,1-3962.315,1616.42Z" transform="translate(3988.487 -1556.891)" fill="#926cdc"/><path d="M-3939.347,1637.744h-2.3c-.077-.527-.117-1.036-.228-1.528a7,7,0,0,0-3.979-4.984,26.51,26.51,0,0,1-3.553-1.844,15.9,15.9,0,0,1-6.246-8.2,15.159,15.159,0,0,1-.818-5.588,16,16,0,0,1,2.281-7.664,15.824,15.824,0,0,1,4.81-5.041c.073-.05.147-.1.224-.145a.926.926,0,0,1,.165-.048l1.176,1.861c-.518.4-1.021.762-1.494,1.159a13.254,13.254,0,0,0-4.634,7.983,13.322,13.322,0,0,0,2.143,10.125,13.27,13.27,0,0,0,5.6,4.727,19.775,19.775,0,0,1,2.6,1.347,9.1,9.1,0,0,1,3.966,5.809C-3939.483,1636.354-3939.443,1637.023-3939.347,1637.744Z" transform="translate(3962.191 -1594.532)" fill="#926cdc"/><path d="M-3871.236,1815.86h-2.195a16.813,16.813,0,0,1-.031-3.372h2.175A15.64,15.64,0,0,1-3871.236,1815.86Z" transform="translate(3894.021 -1766.93)" fill="#926cdc"/></g><g transform="translate(0 0)"><path d="M-3857.669,1548.862c-1.016-.136-2.03-.275-3.044-.424a8.863,8.863,0,0,1-1.242-.242.989.989,0,0,1-.748-1.053,1.234,1.234,0,0,1,.618-1.046c.93-.7,1.861-1.387,2.788-2.084a6.352,6.352,0,0,0,.628-.5,1.094,1.094,0,0,0,.2-1.508,3.609,3.609,0,0,0-.228-.332q-1.826-2.438-3.658-4.873a3.167,3.167,0,0,0-.351-.4,1.021,1.021,0,0,0-1.342-.189,5.306,5.306,0,0,0-.663.451c-.982.734-1.959,1.478-2.947,2.207a1.164,1.164,0,0,1-1.315.166,1.1,1.1,0,0,1-.552-1.194c.063-.576.143-1.148.22-1.722.115-.861.244-1.72.345-2.583a1.187,1.187,0,0,0-1.166-1.41q-3.174-.463-6.349-.916a1.191,1.191,0,0,0-1.474,1c-.112.521-.173,1.053-.251,1.583-.138.925-.255,1.854-.41,2.775a1.1,1.1,0,0,1-1.169.979,1.317,1.317,0,0,1-.982-.62c-.743-1-1.535-1.977-2.24-3.005a1.363,1.363,0,0,0-2.287-.342c-.988.8-2.028,1.531-3.053,2.3l-2.353,2.07a.357.357,0,0,0-.121.173,1.283,1.283,0,0,0,.025.4v0a2.5,2.5,0,0,0,.528.959c.757.993,1.5,2,2.253,2.994a1.128,1.128,0,0,1,.141,1.365,1.145,1.145,0,0,1-1.271.519c-1.276-.2-2.555-.369-3.833-.558-1.116-.164-1.581.157-1.792,1.251-.018.089-.028.177-.043.266-.214,1.5-.435,3-.64,4.5-.084.617-.166,1.239-.189,1.859a1.014,1.014,0,0,0,.822,1.073,3.485,3.485,0,0,0,.522.116c1.08.15,2.164.287,3.244.444a4.642,4.642,0,0,1,1.038.232,1.052,1.052,0,0,1,.426,1.7,3.311,3.311,0,0,1-.545.49c-.765.579-1.538,1.148-2.3,1.725a11.781,11.781,0,0,0-.945.747,1.105,1.105,0,0,0-.212,1.456,3.182,3.182,0,0,0,.262.389q1.4,1.877,2.811,3.749c.362.481.713.975,1.109,1.428a1.113,1.113,0,0,0,1.508.224,3.287,3.287,0,0,0,.387-.264c.928-.7,1.854-1.4,2.784-2.089a4.264,4.264,0,0,1,.67-.435,1.091,1.091,0,0,1,1.563.907,3.442,3.442,0,0,1-.057.731c-.186,1.3-.385,2.6-.561,3.9a1.168,1.168,0,0,0,.836,1.289,3.46,3.46,0,0,0,.588.126c2.029.287,4.057.567,6.085.857a1.2,1.2,0,0,0,1.549-1.123c.146-.968.271-1.939.416-2.909a11.432,11.432,0,0,1,.258-1.445,1.081,1.081,0,0,1,1.887-.469,6.136,6.136,0,0,1,.5.627c.711.947,1.422,1.891,2.124,2.843a1.2,1.2,0,0,0,1.327.558,1.908,1.908,0,0,0,.643-.337q2.525-1.874,5.036-3.772a1.967,1.967,0,0,0,.5-.529,1.2,1.2,0,0,0-.21-1.421q-1.048-1.39-2.091-2.784a7.5,7.5,0,0,1-.5-.711,1.087,1.087,0,0,1,.038-1.2,1.06,1.06,0,0,1,1.1-.483c1.367.191,2.738.364,4.1.608a1.3,1.3,0,0,0,1.636-1.2c.127-1.127.332-2.246.5-3.37q.208-1.42.4-2.843A1.273,1.273,0,0,0-3857.669,1548.862Zm-1.79,6.625c-.677-.091-1.269-.177-1.863-.248-.64-.079-1.282-.189-1.923-.2a3.173,3.173,0,0,0-2.963,1.731,3.137,3.137,0,0,0,.072,3.422c.54.843,1.174,1.625,1.766,2.437.12.162.236.324.35.481a.654.654,0,0,1-.089.123l-3.524,2.658c-.077-.121-.15-.253-.239-.374-.545-.734-1.087-1.47-1.643-2.2a3.432,3.432,0,0,0-2.927-1.46,3.362,3.362,0,0,0-3.2,2.565c-.2.889-.283,1.8-.422,2.7-.043.283-.093.565-.151.914-1.48-.159-2.915-.412-4.382-.6a6.782,6.782,0,0,1,.16-1.67c.059-.688.191-1.371.221-2.059a3.139,3.139,0,0,0-1.663-3,3.176,3.176,0,0,0-3.487.041c-.806.515-1.554,1.123-2.327,1.688-.2.141-.395.28-.631.447l-2.7-3.6c.34-.262.638-.49.934-.716.638-.489,1.31-.938,1.91-1.469a3.388,3.388,0,0,0-.98-5.711,8.2,8.2,0,0,0-1.687-.371c-.767-.13-1.536-.223-2.382-.342.211-1.492.418-2.953.632-4.467.735.1,1.411.184,2.089.278.419.059.834.162,1.253.191a3.347,3.347,0,0,0,3.316-1.586,3.2,3.2,0,0,0,.012-3.6c-.54-.843-1.178-1.624-1.772-2.433-.105-.143-.209-.287-.354-.489,1.166-.943,2.383-1.793,3.595-2.729.633.845,1.244,1.663,1.857,2.478a3.535,3.535,0,0,0,2.692,1.542,3.413,3.413,0,0,0,3.561-2.875c.16-.966.28-1.939.419-2.909.016-.107.05-.212.093-.387,1.492.109,2.945.4,4.463.594-.12.825-.25,1.609-.341,2.4a6.447,6.447,0,0,0-.082,2.055,3.4,3.4,0,0,0,5,2.289c.763-.454,1.455-1.032,2.175-1.556.271-.2.537-.4.863-.647.95,1.148,1.794,2.367,2.736,3.594-.4.308-.784.6-1.167.9-.565.437-1.157.843-1.688,1.315a3.2,3.2,0,0,0-1.023,3.453,3.2,3.2,0,0,0,2.54,2.39c.761.159,1.534.262,2.3.383.394.062.79.112,1.242.176C-3859.031,1552.5-3859.238,1553.946-3859.459,1555.487Z" transform="translate(3924.983 -1530.897)" fill="#cbcbcb"/><path d="M-4034.946,1696.741c-.068.023-.094.025-.109.039-.476.471-.948.945-1.428,1.412a1.212,1.212,0,0,1-1.839.176c-.722-.483-1.429-.987-2.146-1.479-.232-.16-.471-.308-.751-.492-.057.18-.1.3-.13.424-.227,1.044-.453,2.087-.667,3.132a1.24,1.24,0,0,1-1.277,1.034c-1.449-.031-2.9,0-4.349-.014a1.138,1.138,0,0,1-1.186-.884,4.543,4.543,0,0,1-.115-.453c-.193-.936-.381-1.873-.58-2.809a2.933,2.933,0,0,0-.164-.432c-1.006.69-1.955,1.355-2.918,2a1.168,1.168,0,0,1-1.732-.15q-1.6-1.572-3.17-3.171a1.166,1.166,0,0,1-.152-1.732c.544-.817,1.107-1.617,1.661-2.428.107-.157.207-.321.326-.508a1.975,1.975,0,0,0-.293-.126c-.893-.189-1.78-.4-2.679-.551a2.438,2.438,0,0,1-1.6-.813v-5.493a2.577,2.577,0,0,1,1.67-.818c.877-.141,1.744-.353,2.615-.54a1.63,1.63,0,0,0,.28-.13c-.125-.191-.229-.355-.337-.513-.531-.772-1.068-1.54-1.594-2.315a1.232,1.232,0,0,1,.151-1.895q1.508-1.524,3.033-3.032a1.221,1.221,0,0,1,1.885-.173c.777.524,1.545,1.06,2.319,1.59.163.112.332.216.569.367.094-.381.187-.715.26-1.053.177-.8.326-1.613.517-2.415.2-.841.447-1.035,1.329-1.139a.532.532,0,0,0,.135-.064,20.061,20.061,0,0,0,.2,4.511c-.073.291-.125.506-.185.718a2.321,2.321,0,0,1-.8,1.28,2.191,2.191,0,0,1-2.621.155c-.659-.415-1.292-.873-1.941-1.308-.178-.12-.364-.226-.446-.278l-2.075,2.039c.075.116.166.266.265.411.417.608.843,1.207,1.25,1.822a2.241,2.241,0,0,1,.416,1.709,2.234,2.234,0,0,1-1.777,1.868c-.927.221-1.861.41-2.849.624,0,.462,0,.9,0,1.346s.012.88.018,1.326l.968.2c.652.141,1.312.253,1.957.426a2.267,2.267,0,0,1,1.389,3.356c-.161.267-.339.524-.514.781-.385.569-.775,1.136-1.092,1.6l2.037,2.123c.162-.11.347-.232.531-.357.571-.39,1.134-.793,1.713-1.169a2.226,2.226,0,0,1,1.711-.4,2.257,2.257,0,0,1,1.859,1.792c.221.927.4,1.861.614,2.829.912.005,1.791.036,2.672-.018.037-.148.061-.232.079-.317.18-.848.362-1.7.54-2.547a2.27,2.27,0,0,1,3.43-1.413c.262.169.52.344.777.52.551.373,1.1.747,1.583,1.077.841-.843,1.636-1.645,2.456-2.469A4.7,4.7,0,0,1-4034.946,1696.741Z" transform="translate(4060.24 -1646.028)" fill="#cbcbcb"/><path d="M-4033.868,1569.987l-1.338,1.869-7.983-5.7,1.334-1.87Z" transform="translate(4046.229 -1558.095)" fill="#cbcbcb"/><path d="M-3988.4,1530.133l2.215-.575c.776,3.034,1.543,6.034,2.323,9.083a15.534,15.534,0,0,1-2.209.595C-3986.862,1536.212-3987.628,1533.212-3988.4,1530.133Z" transform="translate(4001.204 -1529.558)" fill="#cbcbcb"/><path d="M-4052.965,1631.612c-.154-.61-.313-1.23-.464-1.852a1.492,1.492,0,0,1,0-.307l9.031-2.258c.11.388.218.743.311,1.1.088.342.161.688.239,1.028C-4044.328,1629.583-4052.322,1631.6-4052.965,1631.612Z" transform="translate(4054.651 -1609.792)" fill="#cbcbcb"/><path d="M-3747.785,1806.594l-1.473,1.76-6.833-5.691,1.461-1.777Z" transform="translate(3810.303 -1752.524)" fill="#cbcbcb"/><path d="M-3745.782,1767.54h7.951a22.21,22.21,0,0,1,.036,2.279h-7.964C-3745.819,1769.067-3745.781,1768.342-3745.782,1767.54Z" transform="translate(3801.841 -1725.122)" fill="#cbcbcb"/><path d="M-3783.93,1818.687h2.219c.116.533.141,7.086.032,7.929h-2.251Z" transform="translate(3833.18 -1767.152)" fill="#cbcbcb"/><path d="M-3818.521,1599.555a9.074,9.074,0,0,1-9.209,9.053,9.071,9.071,0,0,1-9.006-9.2,9.106,9.106,0,0,1,9.187-9.021A9.128,9.128,0,0,1-3818.521,1599.555Zm-15.892-.03a6.8,6.8,0,0,0,6.823,6.789,6.866,6.866,0,0,0,6.783-6.921,6.888,6.888,0,0,0-6.843-6.717A6.829,6.829,0,0,0-3834.413,1599.526Z" transform="translate(3876.574 -1579.542)" fill="#cbcbcb"/><path d="M-4002.942,1720.768a6.923,6.923,0,0,1-7.75,3.454,6.924,6.924,0,0,1-5.164-6.064,6.486,6.486,0,0,1,.854-3.857,6.888,6.888,0,0,1,5.1-3.518c-.1-.432-.2-.852-.3-1.273a16.742,16.742,0,0,0,1.278,3.579,4.4,4.4,0,0,0-4.543,3.82,4.487,4.487,0,0,0,3.331,5.035,4.464,4.464,0,0,0,5.354-2.841A14.666,14.666,0,0,0-4002.942,1720.768Z" transform="translate(4023.792 -1677.435)" fill="#cbcbcb"/></g></svg>