<svg xmlns="http://www.w3.org/2000/svg" width="71.991" height="72.022" viewBox="0 0 71.991 72.022"><g transform="translate(5404.953 -9351.61)"><path d="M-4849.951-1955.253l-1.99-1.966a20.184,20.184,0,0,1-16.587,4.854,19.7,19.7,0,0,1-13.2-7.8,20.43,20.43,0,0,1,1.937-27.076,20.515,20.515,0,0,1,27.761-.819,20.59,20.59,0,0,1,1.985,28.967l2.01,1.956.551-.643c.818-.957,1.586-1,2.536-.048,2.2,2.209,4.449,4.366,6.679,6.544.922.9,1.853,1.793,2.765,2.7a4.066,4.066,0,0,1,1.292,3.012,4.008,4.008,0,0,1-2.394,3.82,4.057,4.057,0,0,1-4.531-.584,5.211,5.211,0,0,1-.413-.382l-9.4-9.194c-.1-.1-.205-.193-.3-.3a1.2,1.2,0,0,1,.019-1.816C-4850.829-1954.45-4850.386-1954.836-4849.951-1955.253Zm-15.428.712a17.969,17.969,0,0,0,17.947-17.979,17.865,17.865,0,0,0-17.992-17.98,17.847,17.847,0,0,0-17.943,17.958A17.927,17.927,0,0,0-4865.379-1954.54Zm16.735,1.511,6.783,6.62,2.5-2.511c-1.333-1.471-6.426-6.371-6.818-6.581Zm11.137,5.906c-.771.777-1.494,1.5-2.215,2.23-.081.082-.157.17-.25.273a1.834,1.834,0,0,0,1.933.82,1.644,1.644,0,0,0,1.331-1.271A1.879,1.879,0,0,0-4837.507-1947.123Z" transform="translate(-498.762 11364.938)" fill="#926cdc"/><g transform="translate(-5404.953 9351.61)"><path d="M-5029.571-1927.076c.085-.185.172-.37.254-.556a3.459,3.459,0,0,1,3.188-2.251c.815-.035,1.634-.006,2.5-.006.033-.5.036-.941.1-1.375a1.115,1.115,0,0,1,1.276-1.016,1.218,1.218,0,0,1,1.1,1.24c.024.347,0,.7,0,1.139h8.949c.234,0,.47-.006.7.015a1.189,1.189,0,0,1,1.125,1.138,1.211,1.211,0,0,1-1.039,1.226,4.722,4.722,0,0,1-.7.021H-5025.4c-1.4,0-1.776.382-1.777,1.8q0,5.378,0,10.756c0,.164-.009.329,0,.492a1.236,1.236,0,0,0,1.4,1.313c2.343.009,4.686,0,7.028,0,2.226,0,4.451,0,6.677,0a3.169,3.169,0,0,1,.9.118,1.159,1.159,0,0,1,.8,1.118,1.175,1.175,0,0,1-.9,1.121,3.705,3.705,0,0,1-.834.091q-6.712.008-13.423,0a5.539,5.539,0,0,1-1.388-.161,3.483,3.483,0,0,1-2.442-2.228c-.066-.17-.144-.336-.216-.5Z" transform="translate(5029.571 1961.107)" fill="#cbcbcb"/><path d="M-4576.974-1905.8c0,2.015.012,4.03,0,6.044a3.537,3.537,0,0,1-2.672,3.451,5.742,5.742,0,0,1-1.321.149c-1.312.019-2.624.011-3.935,0a3.441,3.441,0,0,1-.763-.089,1.1,1.1,0,0,1-.875-1.047,1.115,1.115,0,0,1,.772-1.195,2.82,2.82,0,0,1,.826-.117c1.358-.012,2.718-.038,4.075.006a1.333,1.333,0,0,0,1.506-1.5c0-3.8.006-7.591,0-11.386,0-1.034-.478-1.481-1.525-1.487-1.382-.007-2.765,0-4.146-.006a2.339,2.339,0,0,1-.756-.1,1.118,1.118,0,0,1-.734-1.285,1.1,1.1,0,0,1,1.022-.985c.4-.036.795-.024,1.193-.023,1.312,0,2.623.011,3.935.012a3.573,3.573,0,0,1,3.4,3.447c0,.047,0,.094,0,.141Q-4576.973-1908.791-4576.974-1905.8Z" transform="translate(4648.958 1946.584)" fill="#cbcbcb"/><path d="M-4987.055-1876.489c0-1.03,0-2.06,0-3.09a4.284,4.284,0,0,1,.058-.767,1.119,1.119,0,0,1,1-.94,1.161,1.161,0,0,1,1.239.719,1.713,1.713,0,0,1,.13.612c.009,2.317.021,4.635,0,6.951a1.182,1.182,0,0,1-1.339,1.273,1.1,1.1,0,0,1-1.021-.9,4.109,4.109,0,0,1-.06-.767C-4987.059-1874.43-4987.055-1875.459-4987.055-1876.489Z" transform="translate(4993.045 1917.301)" fill="#cbcbcb"/><path d="M-5008.622-2136.887c.187.091.377.175.559.275a2.235,2.235,0,0,1,1.264,1.965c.029.912.034,1.826,0,2.737a2.294,2.294,0,0,1-2.145,2.2c-.279.021-.561.022-.841.022q-8.388,0-16.777,0c-.21,0-.421,0-.632-.008a2.338,2.338,0,0,1-2.222-1.534c-.045-.106-.1-.207-.152-.31v-3.516c.125-.241.244-.487.379-.723a3.026,3.026,0,0,1,1.449-1.105Zm-.589,2.451c-1.235-.13-17.42-.081-17.93.049v2.251h17.93Z" transform="translate(5029.571 2136.887)" fill="#cbcbcb"/><path d="M-4630.171-2136.887c.143.072.287.143.429.215a2.339,2.339,0,0,1,1.394,2.178c.011.819.016,1.639,0,2.458a2.334,2.334,0,0,1-2.249,2.327c-.233.015-.467.016-.7.016q-6.041,0-12.081,0c-.257,0-.516,0-.771-.022a2.325,2.325,0,0,1-2.176-2.251c-.025-.819-.008-1.639-.007-2.458a2.374,2.374,0,0,1,1.522-2.306c.1-.047.2-.1.3-.157Zm-13.741,4.735c1.233.126,12.632.078,13.174-.059,0-.361.016-.732,0-1.1a2.8,2.8,0,0,0-.081-1.138h-13.089Z" transform="translate(4700.329 2136.887)" fill="#cbcbcb"/><path d="M-5029.571-2067.139a1.375,1.375,0,0,0,.145-.223,2.428,2.428,0,0,1,2.345-1.586c.771-.024,1.545-.005,2.317-.005,2.294,0,4.589,0,6.883,0a2.812,2.812,0,0,1,1.665.448,2.029,2.029,0,0,1,.979,1.549,24.938,24.938,0,0,1,0,3.219,2.164,2.164,0,0,1-1.913,1.952,16.617,16.617,0,0,1-1.959.088c-.651.013-1.3,0-2.042,0a5.814,5.814,0,0,1-.012,1.014,2.306,2.306,0,0,1-.353.961,1.026,1.026,0,0,1-1.137.341,1.063,1.063,0,0,1-.867-.9c-.066-.435-.071-.879-.105-1.363-.2-.02-.373-.052-.552-.053-.89-.005-1.779,0-2.669,0a2.511,2.511,0,0,1-2.622-1.705c-.013-.034-.068-.053-.1-.079Zm2.419,2.933h9.506v-2.267h-9.506Z" transform="translate(5029.571 2078.529)" fill="#cbcbcb"/><path d="M-4838.246-2136.887a2.9,2.9,0,0,1,1.807,3.207c-.035.489,0,.983-.008,1.474a2.469,2.469,0,0,1-2.534,2.521c-3.136-.025-6.272-.018-9.409,0a2.45,2.45,0,0,1-2.5-2.539c.026-.678.005-1.358,0-2.037a2.43,2.43,0,0,1,1.66-2.5.726.726,0,0,0,.159-.125Zm-.7,2.436h-9.478v2.3c1.261.121,8.985.073,9.478-.054Z" transform="translate(4876.067 2136.887)" fill="#cbcbcb"/><path d="M-4723.754-2136.887c.162.084.325.168.486.253a2.317,2.317,0,0,1,1.329,2.071c.028.841.023,1.683,0,2.524a2.3,2.3,0,0,1-2.244,2.321q-2.556.064-5.116,0a2.222,2.222,0,0,1-2.2-2.123c-.065-.907-.05-1.821-.024-2.731a2.324,2.324,0,0,1,1.452-2.137,2.214,2.214,0,0,0,.268-.177Zm-5.311,2.41v2.327h4.736c0-.419.016-.79,0-1.16a2.783,2.783,0,0,0-.094-1.167Z" transform="translate(4773.526 2136.887)" fill="#cbcbcb"/><path d="M-4779.645-2068.924q4.319,0,8.64,0a2.717,2.717,0,0,1,1.542.384,2.289,2.289,0,0,1,1.131,1.981c.008.843.018,1.686,0,2.529a2.314,2.314,0,0,1-1.981,2.285,5.405,5.405,0,0,1-.907.077q-8.5.006-17,0a5.47,5.47,0,0,1-.976-.089,2.308,2.308,0,0,1-1.9-2.208c-.027-.843-.022-1.686-.006-2.529a2.4,2.4,0,0,1,2.259-2.415c.209-.019.421-.011.632-.011Zm8.9,2.5c-1.013-.128-17.437-.091-17.933.031v2.215h17.933Z" transform="translate(4824.71 2078.5)" fill="#cbcbcb"/><path d="M-4903.329-2068.938c1.545,0,3.091-.013,4.636,0a2.435,2.435,0,0,1,2.462,1.9,2.463,2.463,0,0,1,.06.555c.006.773-.012,1.546.006,2.318a2.412,2.412,0,0,1-2.1,2.416,8.189,8.189,0,0,1-.838.059q-4.249.007-8.5,0h-.07a2.593,2.593,0,0,1-2.938-2.927c.023-.561-.008-1.124.007-1.686a2.49,2.49,0,0,1,2.712-2.642C-4906.373-2068.944-4904.85-2068.938-4903.329-2068.938Zm4.72,2.478h-9.489v2.249c1.1.143,8.995.094,9.489-.055Z" transform="translate(4927.374 2078.514)" fill="#cbcbcb"/><path d="M-4605.758-2061.7c-1.24,0-2.481,0-3.722,0a5.66,5.66,0,0,1-.906-.076,2.345,2.345,0,0,1-2-2.277c-.027-.819-.021-1.639,0-2.458a2.424,2.424,0,0,1,2.4-2.434c.631-.028,1.264-.008,1.9-.008,2.106,0,4.213-.008,6.32,0a2.424,2.424,0,0,1,2.493,1.761,2,2,0,0,1,.089.549c.01.866.021,1.733,0,2.6a2.326,2.326,0,0,1-1.934,2.256,5.727,5.727,0,0,1-.976.085C-4603.323-2061.692-4604.541-2061.7-4605.758-2061.7Zm4.143-4.778h-8.331v2.275h8.331Z" transform="translate(4671.174 2078.53)" fill="#cbcbcb"/><path d="M-4984.447-1981.04a10.8,10.8,0,0,1-.008,1.258,1.191,1.191,0,0,1-1.728,1.016.994.994,0,0,1-.626-.861c-.022-.93-.047-1.863,0-2.79a1.062,1.062,0,0,1,1.073-.995,1.081,1.081,0,0,1,1.2.848,10.987,10.987,0,0,1,.139,1.522Z" transform="translate(4992.856 2005.035)" fill="#cbcbcb"/><path d="M-4794.688-1873.71c.171-.3.3-.517.413-.739q1.46-2.916,2.915-5.833a3.505,3.505,0,0,1,.4-.658,1.124,1.124,0,0,1,1.387-.34,1.131,1.131,0,0,1,.691,1.25,2.2,2.2,0,0,1-.216.661q-2.268,4.547-4.548,9.088a2.55,2.55,0,0,1-.168.307,1.184,1.184,0,0,1-2.108-.123c-.33-.694-.569-1.431-.841-2.152-.485-1.289-.964-2.581-1.448-3.871-.054-.143-.127-.279-.238-.519-.126.3-.221.5-.3.713q-.985,2.623-1.966,5.248a4.653,4.653,0,0,1-.271.644,1.184,1.184,0,0,1-2.037.123,4.414,4.414,0,0,1-.341-.612q-2.163-4.326-4.321-8.654a4.283,4.283,0,0,1-.284-.64,1.177,1.177,0,0,1,.586-1.43,1.132,1.132,0,0,1,1.493.354,4.266,4.266,0,0,1,.385.665q1.477,2.945,2.947,5.893c.1.205.218.4.367.677.8-2.137,1.567-4.191,2.337-6.244a6.236,6.236,0,0,1,.349-.84,1.179,1.179,0,0,1,2.105-.024,5.016,5.016,0,0,1,.326.774q1.059,2.82,2.115,5.641C-4794.894-1874.163-4794.807-1873.984-4794.688-1873.71Z" transform="translate(4839.243 1917.392)" fill="#cbcbcb"/></g><path d="M-4819.546-1942.382a15.614,15.614,0,0,1-15.591,15.581,15.6,15.6,0,0,1-15.6-15.653A15.535,15.535,0,0,1-4835.1-1958,15.572,15.572,0,0,1-4819.546-1942.382Zm-14.942-13.158a13.121,13.121,0,0,0-13.817,12.908,13.119,13.119,0,0,0,12.658,13.393,13.122,13.122,0,0,0,13.674-12.657A13.1,13.1,0,0,0-4834.488-1955.54Z" transform="translate(-529.025 11334.813)" fill="#926cdc"/></g></svg>