<svg xmlns="http://www.w3.org/2000/svg" width="71.991" height="72.071" viewBox="0 0 71.991 72.071"><g transform="translate(5272.617 -9351)"><path d="M-5301.819-1296.5a3.425,3.425,0,0,0-1.458-2.918,3.149,3.149,0,0,0-1.884-.642c-.1,0-.192,0-.289,0q-18.433,0-36.866,0a3.5,3.5,0,0,0-2.23.692,3.367,3.367,0,0,0-1.4,2.8v20.908q0,5.806,0,11.61a3.361,3.361,0,0,0,1.9,3.1,2.884,2.884,0,0,0,1.457.369c.048,0,.1,0,.146,0q18.541,0,37.082,0a3.383,3.383,0,0,0,2.209-.75,3.321,3.321,0,0,0,1.323-2.691q.006-4.863,0-9.725v-5.383h0v-2.56a2.862,2.862,0,0,1,0-.586Q-5301.828-1289.392-5301.819-1296.5Zm-2.333,32.5a1.222,1.222,0,0,1-1.1,1.084,4.431,4.431,0,0,1-.58.012h-36.127c-.073,0-.147-.006-.219,0a1.328,1.328,0,0,1-1.463-1.47q.025-11.824.009-23.65v-.411h39.451c.012.225.035.432.035.642q0,11.644,0,23.287A4.056,4.056,0,0,1-5304.152-1264Zm.025-31.989c-.056,1.474-.013,2.949-.013,4.425v.75h-39.488v-3.378c0-.725.022-1.452-.006-2.176a1.283,1.283,0,0,1,1.407-1.381c.121.008.24,0,.362,0q17.988,0,35.978-.016C-5304.629-1297.764-5304.079-1297.266-5304.127-1295.99Z" transform="translate(87.293 10667.365)" fill="#926cdc"/><path d="M-5346.054-1370.145c.017,0,.037-.025.055-.041s.035-.033.041-.037v-13.8h-13.916v5.721c-1.3.113-14.511.072-15.085-.048v-1.869c0-.654.012-1.305,0-1.959a11.567,11.567,0,0,0-.051-1.85c-2.3-.136-13.318-.074-13.9.087v5.653H-5404v-5.717c-1.146-.111-13.35-.078-13.883.033-.12,1.551-.07,13.286.068,13.855q2.778,0,5.571,0c.019,0,.04.025.057.041s.035.035.062.062v17.395c-.4.188-.775.343-1.132.535a4.582,4.582,0,0,0-2.225,5.057,4.524,4.524,0,0,0,2.614,3.176c.257.118.512.239.716.334v17.53h-5.719c-.116,1.309-.076,13.355.041,13.885,1.844.124,13.281.068,13.854-.08,0-1.85,0-3.712,0-5.573,0-.017.027-.037.042-.052s.036-.035.036-.037h15.011v5.734h13.925v-1.916c0-.654-.006-1.307,0-1.961.008-.619-.035-1.241.031-1.85,1.708-.124,14.5-.072,15.081.068,0,1.85,0,3.71,0,5.569,0,.019.023.039.04.056a.444.444,0,0,0,.04.043h13.8v-13.916h-5.736v-17.513c2.234-1.018,3.359-2.35,3.442-4.1a4.69,4.69,0,0,0-3.443-4.972c-.13-2.317-.072-16.929.077-17.54C-5349.776-1370.143-5347.916-1370.143-5346.054-1370.145Zm-40.477-11.579h9.159c.122.558.165,7.749.058,9.184-.541.118-7.731.161-9.166.054C-5386.6-1373.027-5386.642-1380.217-5386.531-1381.724Zm-29.053,9.232v-9.159c.56-.118,7.824-.159,9.186-.056.116.541.157,7.807.052,9.169C-5406.887-1372.424-5414.151-1372.383-5415.584-1372.492Zm2.317,24.415a2.326,2.326,0,0,1,2.3-2.31,2.288,2.288,0,0,1,2.308,2.3,2.262,2.262,0,0,1-2.331,2.339A2.322,2.322,0,0,1-5413.267-1348.077Zm6.938,33.6c-.556.122-7.743.165-9.184.058-.118-.541-.161-7.726-.055-9.169.541-.116,7.726-.161,9.238-.049Zm29.009.074h-9.207v-9.23h9.207Zm17.527-11.606a10.632,10.632,0,0,0-.062,1.893c-.014.652,0,1.305,0,1.959v1.869c-.572.126-13.642.171-15.1.052-.01-1.887,0-3.785-.005-5.721h-13.928v5.738h-15c-.006-.006-.023-.023-.039-.041s-.041-.037-.041-.056c0-1.86,0-3.721,0-5.616a10.739,10.739,0,0,0-1.892-.06c-.652-.014-1.305,0-1.958,0h-1.87c-.138-.619-.19-15.384-.066-17.577a4.733,4.733,0,0,0,3.3-3.3h2.479v-2.364h-2.463a4.767,4.767,0,0,0-3.322-3.318v-17.565h5.756v-5.691c.591-.171,12-.237,15.019-.1.018.017.037.035.052.052s.039.037.039.056c0,1.86,0,3.721,0,5.571.573.136,12.353.184,13.939.06.012-1.889,0-3.785.01-5.721h15.086v5.742h5.663c.06.058.077.074.093.093s.044.035.044.052q.009,8.456.016,16.908v.477c-1.92.882-2.345,1.14-3.419,3.38h-2.317a.671.671,0,0,1-.072-.188v2.56h2.468a4.747,4.747,0,0,0,3.3,3.289v17.5c.006,0-.012.013-.029.029s-.037.041-.055.041C-5356.039-1326.013-5357.9-1326.013-5359.793-1326.013Zm11.458,2.37c.114.541.155,7.805.046,9.238h-9.159c-.118-.56-.161-7.825-.056-9.186C-5356.962-1323.707-5349.7-1323.748-5348.334-1323.643Zm-2.255-24.416a2.3,2.3,0,0,1-2.292,2.317,2.3,2.3,0,0,1-2.311-2.294,2.214,2.214,0,0,1,2.323-2.329A2.22,2.22,0,0,1-5350.59-1348.06Zm-6.931-24.432v-9.159c.558-.118,7.809-.161,9.186-.056.114.541.157,7.792.052,9.169C-5348.823-1372.424-5356.074-1372.381-5357.521-1372.492Z" transform="translate(145.333 10735.104)" fill="#cbcbcb"/><g transform="translate(-5253.976 9371.935)"><g transform="translate(5.738 9.282)"><path d="M-5277.178-1192.594c-.709.1-1.431.051-2.2.1-.061-.207-.132-.405-.179-.61a3.718,3.718,0,0,0-6.118-1.92,39.136,39.136,0,0,0-3.228,3.229,3.721,3.721,0,0,0,1.992,6.134,3.644,3.644,0,0,0,3.4-.959c.7-.661,1.351-1.379,2.075-2.125l1.724,1.708c-.931.881-1.778,1.823-2.763,2.587a6.051,6.051,0,0,1-9.488-3.184,5.766,5.766,0,0,1,1.358-5.78c1.046-1.138,2.142-2.236,3.277-3.284a6.081,6.081,0,0,1,10,2.788A2.167,2.167,0,0,1-5277.178-1192.594Z" transform="translate(5292.233 1204.147)" fill="#91ddea"/><path d="M-5245.947-1222.8l-1.639-1.664a21.293,21.293,0,0,1,2.971-2.8,6.074,6.074,0,0,1,9.314,3.8,5.924,5.924,0,0,1-1.637,5.583c-.988,1.029-1.992,2.044-3.029,3.023a6.085,6.085,0,0,1-10.035-2.66c-.125-.406-.189-.829-.285-1.257a8.2,8.2,0,0,1,2.316-.229c.061.214.124.392.162.575a3.713,3.713,0,0,0,6.1,1.969,35.031,35.031,0,0,0,3.279-3.283,3.722,3.722,0,0,0-2-6.1,3.662,3.662,0,0,0-3.4.938c-.554.5-1.066,1.055-1.6,1.583C-5245.6-1223.138-5245.77-1222.97-5245.947-1222.8Z" transform="translate(5258.421 1228.285)" fill="#91ddea"/></g><path d="M-5319.544-1273.67h-2.276v-2.255h2.281C-5319.534-1275.149-5319.527-1274.4-5319.544-1273.67Z" transform="translate(5321.82 1275.969)" fill="#91ddea"/><path d="M-5297.886-1273.822v-2.246a3.115,3.115,0,0,1,1.1-.069c.359-.015.72,0,1.1,0a3.05,3.05,0,0,1,.081,1.129c.016.359,0,.72,0,1.1a3.046,3.046,0,0,1-1.129.081C-5297.085-1273.81-5297.446-1273.822-5297.886-1273.822Z" transform="translate(5302.529 1276.151)" fill="#91ddea"/><path d="M-5271.8-1273.821h-2.264a19.085,19.085,0,0,1-.035-2.253,18.823,18.823,0,0,1,2.262-.036A19.309,19.309,0,0,1-5271.8-1273.821Z" transform="translate(5283.366 1276.132)" fill="#91ddea"/></g></g></svg>