<svg xmlns="http://www.w3.org/2000/svg" width="71.991" height="65.097" viewBox="0 0 71.991 65.097"><g transform="translate(5537 -9348)"><path d="M-4056.8-1738.438a1.109,1.109,0,0,0-1.337-.614,4.454,4.454,0,0,0-.586.225q-1.86.817-3.716,1.64l-2.156.967-2.7,1.2s0-.009-.006-.013l-2.2.969-2.442,1.093a.131.131,0,0,1-.009-.023l-2.1.919,0,0c-.992-.569-2.485-1.292-3.56-1.786-1.542-.712-1.2-.641-2.607-.03-1.095.473-2.185.958-3.274,1.444l-.009.006,0,0a.013.013,0,0,0-.007,0l-4.146,2.081a.75.75,0,0,0-.29,1.056.8.8,0,0,0,.085.13,2.33,2.33,0,0,0,1.225.689c.695.2,1.375.451,2.06.686a3.3,3.3,0,0,1,.381.184c-.656.511-.873.971-.661,1.5.287.712.887.828,1.664.661-.338.772-.633,1.448-.928,2.125-.13.3-.251.6-.381.905a1,1,0,0,0,.255,1.157,1.063,1.063,0,0,0,1.159.293,6.022,6.022,0,0,0,.583-.242c2.352-1.039,4.7-2.091,7.057-3.112a1.864,1.864,0,0,0,1.153-1.294c.385-1.345.838-2.669,1.3-4.117l2.1-1.061c-.019-.036-.039-.071-.06-.107.808-.364,1.612-.725,2.479-1.114l4.94-2.173,2.233-1.014,3.507-1.567a4.592,4.592,0,0,0,.567-.272A1.071,1.071,0,0,0-4056.8-1738.438Zm-26.667,8.638-.023-.152c1.5-.669,3.005-1.339,4.54-2.023l2.278,1.052c-.212.122-.34.21-.479.274-1.086.485-2.179.952-3.257,1.45a1.367,1.367,0,0,1-1.14.039C-4082.179-1729.4-4082.829-1729.59-4083.47-1729.8Zm7.025,3.426-4.741,2.111,1.146-2.62,4.375-1.948C-4075.962-1727.9-4076.2-1727.15-4076.445-1726.374Z" transform="translate(-1443.526 11133.956)" fill="#cbcbcb"/><g transform="translate(-5537 9348)"><path d="M-4047.166-1977v1.687h-67.447a3.963,3.963,0,0,1-.045-.417q0-4.147,0-8.294a2.049,2.049,0,0,1,.99-1.9,3.377,3.377,0,0,1,.988-.306,3.066,3.066,0,0,1,.631-.009h62.276c.116,0,.235.009.351,0a2.12,2.12,0,0,1,2.265,2.28C-4047.187-1981.639-4047.166-1979.32-4047.166-1977Zm2.094-8.372a4.4,4.4,0,0,0-4.239-3.184c-.139,0-.28,0-.421,0q-31.176,0-62.35.005a6.611,6.611,0,0,0-1.6.167,4.276,4.276,0,0,0-3.223,4.176q0,24-.008,48.009a4.325,4.325,0,0,0,4.07,4.286c.111,0,.222,0,.33,0l1.126.015a.75.75,0,0,1,.289-1.056l4.146-2.081q-.724.321-1.449.648a2.616,2.616,0,0,1-1.151.244c-.937-.019-1.875-.038-2.812,0a2.176,2.176,0,0,1-2.311-2.323c.031-3.96.011-7.921.011-11.88v-24.623h67.494v36.283c0,.141,0,.282,0,.422a2.061,2.061,0,0,1-2.162,2.094q-6.469.011-12.934,0c-.563,0-1.125,0-1.687,0-.16,0-.319-.026-.489-.039l-1.232,2.314h.734q7.557,0,15.113-.006a6.6,6.6,0,0,0,1.6-.128,4.214,4.214,0,0,0,3.079-2.806c.06-.165.148-.321.224-.483v-49.771A1.946,1.946,0,0,1-4045.072-1985.373Z" transform="translate(4116.91 1988.559)" fill="#cbcbcb"/><path d="M-3830.5-1870.252c.421.02.792.018,1.158.058a1.058,1.058,0,0,1,.991,1.269,1.1,1.1,0,0,1-.967.966,4.007,4.007,0,0,1-.631.019q-7.8,0-15.6,0a3.614,3.614,0,0,1-.631-.023,1.192,1.192,0,0,1-.981-1.129,1.123,1.123,0,0,1,1.063-1.1c.345-.031.7-.005,1.092-.005.025-.234.059-.41.06-.586,0-1.007-.011-2.015.01-3.021a2.213,2.213,0,0,1,.187-.875,1.079,1.079,0,0,1,1.2-.532,1.113,1.113,0,0,1,.853.915,4.524,4.524,0,0,1,.029.631c0,.89,0,1.78,0,2.67v.732h1.789v-.7c0-1.733-.007-3.467,0-5.2a1.089,1.089,0,0,1,1.156-1.2,1.085,1.085,0,0,1,1.078,1,4.646,4.646,0,0,1,.007.492q0,2.459,0,4.918v.7h1.807v-.793q0-3.654,0-7.307c0-.211-.006-.422.01-.632a1.123,1.123,0,0,1,1.077-1.083,1.156,1.156,0,0,1,1.163,1.012,4.13,4.13,0,0,1,.012.561q0,3.759,0,7.518v.728h1.718c.01-.267.028-.515.029-.763q0-5.832,0-11.663a4.226,4.226,0,0,1,.08-.9,1.127,1.127,0,0,1,1.053-.876,1.125,1.125,0,0,1,1.09.833,3.209,3.209,0,0,1,.086.83q.007,5.867,0,11.734Z" transform="translate(3897.83 1904.016)" fill="#cbcbcb"/><path d="M-4089.252-1883.009q0-3.021,0-6.041c0-.211-.009-.423.011-.632a1.071,1.071,0,0,1,1.054-1.017c.116-.009.234,0,.351,0h8.149a3.966,3.966,0,0,1,.421.006,1.074,1.074,0,0,1,.987.935,5,5,0,0,1,.026.7q0,6.041,0,12.083c0,.211.005.422-.015.632a1.047,1.047,0,0,1-.853.98,3.031,3.031,0,0,1-.694.073q-3.9.008-7.8,0c-.141,0-.282,0-.421-.011a1.154,1.154,0,0,1-1.216-1.315C-4089.257-1878.747-4089.251-1880.878-4089.252-1883.009Zm8.691,5.374c.117-1.38.07-10.267-.049-10.784a58.018,58.018,0,0,0-6.353.056c-.11,1.431-.062,10.188.062,10.728Z" transform="translate(4094.448 1909.085)" fill="#cbcbcb"/><path d="M-3847.762-1894.968c-.421-.06-.7-.089-.973-.142a1.082,1.082,0,0,1-.927-1.137,1.108,1.108,0,0,1,.992-1.094,4.7,4.7,0,0,1,.772,0q1.439.06,2.877.13a2.809,2.809,0,0,1,.553.073,1.065,1.065,0,0,1,.883,1.1c.006.211,0,.422-.014.632-.08,1.1-.145,2.2-.255,3.289a1.083,1.083,0,0,1-1.227,1.058,1.121,1.121,0,0,1-1.021-1.273c.01-.324.062-.647.1-1.052-.2.124-.344.209-.482.308q-3.909,2.8-7.816,5.608a5.212,5.212,0,0,1-.58.395,1.152,1.152,0,0,1-1.491-.373,1.141,1.141,0,0,1,.2-1.467,6.007,6.007,0,0,1,.562-.421l7.191-5.156C-3848.229-1894.617-3848.044-1894.758-3847.762-1894.968Z" transform="translate(3905.455 1914.488)" fill="#cbcbcb"/><path d="M-4008.518-1884.656h-8.01c-.21,0-.423.006-.632-.015a1.064,1.064,0,0,1-1-1.061,1.106,1.106,0,0,1,.91-1.161,2.937,2.937,0,0,1,.56-.024h16.371a3.847,3.847,0,0,1,.421.007,1.119,1.119,0,0,1,1.042,1.189,1.08,1.08,0,0,1-1.087,1.059c-.21.015-.421.008-.632.008Z" transform="translate(4036.713 1906.012)" fill="#cbcbcb"/><path d="M-4087.626-1957.555c-.631,0-1.263.016-1.893,0a1.081,1.081,0,0,1-1.178-1.179q-.02-1.963,0-3.927a1.117,1.117,0,0,1,.986-1.168,2.243,2.243,0,0,1,.418-.029c1.1,0,2.2-.009,3.3,0,1.02.009,1.447.438,1.455,1.457.009,1.145,0,2.291,0,3.436a2.684,2.684,0,0,1,0,.281,1.149,1.149,0,0,1-1.186,1.133c-.046,0-.093,0-.14,0h-1.753Zm-.778-3.953v1.644h1.5v-1.644Z" transform="translate(4095.629 1968.505)" fill="#cbcbcb"/><path d="M-4045.345-1960.665c0,.633-.021,1.266.006,1.9a1.158,1.158,0,0,1-1.177,1.205c-1.265-.026-2.531,0-3.8-.014a1.067,1.067,0,0,1-1.144-1,3.81,3.81,0,0,1-.045-.629c0-1.031,0-2.062,0-3.093a3.179,3.179,0,0,1,.018-.421,1.177,1.177,0,0,1,1.26-1.151c.608-.023,1.219-.005,1.828-.005.586,0,1.171-.007,1.757,0a1.186,1.186,0,0,1,1.3,1.312c-.022.632,0,1.265,0,1.9Zm-3.789-.858v1.645h1.489v-1.645Z" transform="translate(4063.789 1968.519)" fill="#cbcbcb"/><path d="M-4005.893-1960.668c0,.631.011,1.263,0,1.894a1.089,1.089,0,0,1-1.164,1.2q-1.928.032-3.857,0a1.054,1.054,0,0,1-1.126-1.1q-.051-2.033,0-4.068a1.153,1.153,0,0,1,1.271-1.129c.958-.024,1.917-.007,2.875-.007.281,0,.563-.017.841.009a1.162,1.162,0,0,1,1.161,1.234C-4005.882-1961.978-4005.893-1961.323-4005.893-1960.668Zm-2.276-.834h-1.568v1.623h1.568Z" transform="translate(4031.761 1968.517)" fill="#cbcbcb"/><path d="M-4008.53-1856.526q4,0,8.01,0a5.317,5.317,0,0,1,.7.028,1.06,1.06,0,0,1,.957.96,1.056,1.056,0,0,1-.75,1.2,2,2,0,0,1-.618.088q-8.29.007-16.582,0c-.905,0-1.393-.468-1.343-1.243a1.043,1.043,0,0,1,.847-.983,4.841,4.841,0,0,1,.839-.048Q-4012.5-1856.529-4008.53-1856.526Z" transform="translate(4036.708 1881.327)" fill="#cbcbcb"/></g><line x1="0.009" y2="0.006" transform="translate(-5527.028 9401.515)" fill="none" stroke="#1a1818" stroke-miterlimit="10" stroke-width="1"/><g transform="translate(-5518.911 9377.323)"><path d="M-3951.368-1773.436a7.511,7.511,0,0,0-9.142-3.358,7.323,7.323,0,0,0-4.241,3.871,7.4,7.4,0,0,0-.3,5.712l2.156-.967a5.109,5.109,0,0,1,2.431-6.183,5.294,5.294,0,0,1,6.974,1.811,5.293,5.293,0,0,1-1.349,7.081,5.2,5.2,0,0,1-6.916-.718l-2.233,1.014a7.629,7.629,0,0,0,6.09,3,7.293,7.293,0,0,0,4.777-1.745A7.493,7.493,0,0,0-3951.368-1773.436Z" transform="translate(3975.837 1787.623)" fill="#926cdc"/><path d="M-3986.226-1807.41l-1.232,2.314c-3.749,5.5-8.86,8.52-15.5,8.424s-11.644-3.27-15.258-8.866l2.1-1.061a15.578,15.578,0,0,0,20.707,5.885,15.614,15.614,0,0,0,6.435-21.3,15.561,15.561,0,0,0-21.312-6.18,15.461,15.461,0,0,0-6.886,19.39l-2.1.918c-.007-.024-.194-.257-.169-.246a18.008,18.008,0,0,1-.272-11.967,17.53,17.53,0,0,1,7.258-9.446,17.9,17.9,0,0,1,20.474.652A18.025,18.025,0,0,1-3986.226-1807.41Z" transform="translate(4020.609 1832.443)" fill="#926cdc"/><path d="M-3973.135-1782.491a12.313,12.313,0,0,1-8.184,2.62,12.826,12.826,0,0,1-10.588-6.138l4.94-2.173-1.375.611-1.4.625a10.531,10.531,0,0,0,14.179,3.364,10.578,10.578,0,0,0,3.711-14.6,10.57,10.57,0,0,0-14.463-3.631,10.384,10.384,0,0,0-4.421,12.782l-2.2.969a12.91,12.91,0,0,1,.391-10.135,12.484,12.484,0,0,1,7.615-6.738,12.794,12.794,0,0,1,15.348,6.138A12.819,12.819,0,0,1-3973.135-1782.491Z" transform="translate(3998.817 1810.633)" fill="#926cdc"/></g></g></svg>