<svg xmlns="http://www.w3.org/2000/svg" width="72.152" height="55.765" viewBox="0 0 72.152 55.765"><g transform="translate(-0.2 -0.5)"><path d="M5.427.5H2.463A2.275,2.275,0,0,0,.2,2.779V43.77a3.244,3.244,0,0,0,3.251,3.251h.574a1,1,0,0,0,1-.972.89.89,0,0,0-.287-.653.954.954,0,0,0-.669-.287H3.467A1.347,1.347,0,0,1,2.128,43.77V2.779a.371.371,0,0,1,.367-.367H5.4a1,1,0,0,0,1-.988A.917.917,0,0,0,6.113.787.953.953,0,0,0,5.427.5Z" transform="translate(0)" fill="#cbcbcb"/><path d="M282.454,2.5h11.857a.371.371,0,0,1,.367.367V4.282a.959.959,0,0,0,.956.956h0a.959.959,0,0,0,.956-.956V2.895h0V2.879A2.285,2.285,0,0,0,294.311.6H282.5a1,1,0,0,0-1,.988.917.917,0,0,0,.287.637A.951.951,0,0,0,282.454,2.5Z" transform="translate(-236.466 -0.084)" fill="#cbcbcb"/><path d="M306.853,222.2a.917.917,0,0,0-.637.287.954.954,0,0,0-.287.669v6.981a1.347,1.347,0,0,1-1.339,1.339H295.9a1,1,0,0,0-1,.972.89.89,0,0,0,.287.653.954.954,0,0,0,.669.287h8.734a3.244,3.244,0,0,0,3.251-3.251V223.2A.977.977,0,0,0,306.853,222.2Z" transform="translate(-247.733 -186.365)" fill="#cbcbcb"/><path d="M115.492,312.829h-9v-3.873a.959.959,0,0,0-.956-.956h0a.959.959,0,0,0-.956.956v3.889h-9.77a.016.016,0,0,1-.016-.016v-3.873a.959.959,0,0,0-.956-.956h0a.959.959,0,0,0-.956.956v3.873a.016.016,0,0,1-.016.016h-9a.956.956,0,1,0,0,1.912h31.636a.964.964,0,0,0,0-1.928Z" transform="translate(-69.52 -258.493)" fill="#cbcbcb"/><path d="M232,202.832l.032-.016V202.8C232.016,202.8,232.016,202.816,232,202.832Z" transform="translate(-194.857 -170.059)" fill="#cbcbcb"/><path d="M81.456,25.059a.959.959,0,0,0,.956-.956V2.412h22.264v5.1a.956.956,0,0,0,.988.956.981.981,0,0,0,.924-.988V1.456A.959.959,0,0,0,105.633.5H81.456a.959.959,0,0,0-.956.956V24.1A.959.959,0,0,0,81.456,25.059Z" transform="translate(-67.502)" fill="#cbcbcb"/><path d="M127.115,41.038a.959.959,0,0,0,.956-.956V33.356a.959.959,0,0,0-.956-.956H113.456a.959.959,0,0,0-.956.956v6.726a.959.959,0,0,0,.956.956h13.658Zm-12.7-6.726h11.746v4.813H114.412Z" transform="translate(-94.402 -26.816)" fill="#cbcbcb"/><path d="M127.115,106.6H113.456a.956.956,0,1,0,0,1.912h13.658a.956.956,0,0,0,0-1.912Z" transform="translate(-94.402 -89.191)" fill="#cbcbcb"/><path d="M171.752,130.6h-5.2a.956.956,0,0,0,0,1.912h5.2a.956.956,0,0,0,0-1.912Z" transform="translate(-139.04 -109.366)" fill="#cbcbcb"/><path d="M385.756,99.5a.956.956,0,1,0,0,1.912H393.8a.956.956,0,1,0,0-1.912Z" transform="translate(-323.305 -83.222)" fill="#cbcbcb"/><path d="M385.05,30.161a.972.972,0,0,0,1.355,0l8.957-8.957a.958.958,0,1,0-1.355-1.355l-8.957,8.957A.972.972,0,0,0,385.05,30.161Z" transform="translate(-323.284 -16.035)" fill="#cbcbcb"/><path d="M386.4,123.55a.958.958,0,1,0-1.355,1.355l8.957,8.957a.958.958,0,1,0,1.355-1.355Z" transform="translate(-323.284 -103.208)" fill="#cbcbcb"/><path d="M118.285,130.6h-4.829a.956.956,0,0,0,0,1.912h4.829a.956.956,0,0,0,0-1.912Z" transform="translate(-94.402 -109.366)" fill="#cbcbcb"/><path d="M171.752,154.6h-5.2a.956.956,0,1,0,0,1.912h5.2a.956.956,0,0,0,0-1.912Z" transform="translate(-139.04 -129.541)" fill="#cbcbcb"/><path d="M118.094,154.6h-4.638a.956.956,0,0,0,0,1.912h4.638a.956.956,0,0,0,0-1.912Z" transform="translate(-94.402 -129.541)" fill="#cbcbcb"/><path d="M171.752,178.6h-5.2a.956.956,0,0,0,0,1.912h5.2a.956.956,0,0,0,0-1.912Z" transform="translate(-139.04 -149.716)" fill="#cbcbcb"/><path d="M118.094,178.6h-4.638a.956.956,0,1,0,0,1.912h4.638a.956.956,0,0,0,0-1.912Z" transform="translate(-94.402 -149.716)" fill="#cbcbcb"/><path d="M365.156,197.9h0a.956.956,0,1,0,0,1.912h0a.956.956,0,1,0,0-1.912Z" transform="translate(-305.988 -165.94)" fill="#cbcbcb"/><circle cx="0.956" cy="0.956" r="0.956" transform="translate(46.418 25.808)" fill="#cbcbcb"/><circle cx="0.956" cy="0.956" r="0.956" transform="translate(8.264 0.5)" fill="#cbcbcb"/><circle cx="0.956" cy="0.956" r="0.956" transform="translate(41.27 0.5)" fill="#cbcbcb"/><path d="M252.6,51.949a.98.98,0,0,0-.972.972v.749l-12.941-5.243V39.948L251.629,34.7v.287a.959.959,0,0,0,.956.956.9.9,0,0,0,.669-.287.954.954,0,0,0,.287-.669V33.445a.951.951,0,0,0-.383-.765.988.988,0,0,0-.845-.159L237.6,38.274H229.38a2.986,2.986,0,0,0-2.98,2.98v5.881a2.972,2.972,0,0,0,2.98,2.964h.861v7.06a3.86,3.86,0,0,0,3.857,3.857h3.411a.959.959,0,0,0,.956-.956V57.479a.956.956,0,0,0-1.912,0V59.1H234.1a1.942,1.942,0,0,1-1.944-1.944V50.1H237.6l14.71,5.753a.746.746,0,0,0,.271.032.921.921,0,0,0,.574-.191.951.951,0,0,0,.383-.765V52.9a.963.963,0,0,0-.287-.685A.941.941,0,0,0,252.6,51.949Zm-15.81-3.761H229.4a1.065,1.065,0,0,1-1.068-1.052v-5.9a1.068,1.068,0,0,1,1.068-1.068h7.395Z" transform="translate(-190.15 -26.889)" fill="#cbcbcb"/><path d="M162.628,169.7H162.5C162.532,169.732,162.612,169.732,162.628,169.7Z" transform="translate(-136.434 -142.234)" fill="#cbcbcb"/><path d="M76.3,167.015c1.562,0,4.542-.845,4.622-3.968.032-1.052.032-2.5.032-5.164a.956.956,0,0,0-1.912,0c0,2.646,0,4.1-.032,5.116a1.831,1.831,0,0,1-.526,1.307l-9.993-7.538,4.877-4.223.016-.016h0l.016-.016.016-.016.032-.032a.948.948,0,0,0,.255-.637.957.957,0,0,0-.255-.653h0l-.032-.032-.032-.032a.948.948,0,0,0-.637-.255.832.832,0,0,0-.335.064.625.625,0,0,0-.223.128h0c-.016,0-.016.016-.032.016-.016.016-.032.016-.032.032-.016.016-.032.016-.032.032l-5.132,4.431-.191-.143a7.148,7.148,0,0,0-8.558,0l-.191.143-11.523-9.9.908-.558c.016-.016.032-.016.064-.032a.874.874,0,0,0,.143-.112l.016-.016h0l.016-.016a.954.954,0,0,0,.287-.669.9.9,0,0,0-.287-.669l-.032-.032a.948.948,0,0,0-.637-.255.784.784,0,0,0-.335.064.625.625,0,0,0-.223.127l.016-.016-2.024,1.211a.95.95,0,0,0-.462.813v16.8A4.6,4.6,0,0,0,45,165.533a4.771,4.771,0,0,0,3.65,1.482c1.387.032,4.925.048,9.036.048C65.815,167.063,76.159,167.015,76.3,167.015ZM56.428,156.767l-9.977,7.506h0a2.746,2.746,0,0,1-.59-1.881V147.635ZM48.7,165.1h-.159l9.371-7.06,1.418-1.068a.967.967,0,0,1,.159-.112,5.234,5.234,0,0,1,5.929,0,.624.624,0,0,1,.159.127l1.418,1.068,9.355,7.06h-.08C76.063,165.1,52.795,165.2,48.7,165.1Z" transform="translate(-36.769 -120.042)" fill="#cbcbcb"/></g></svg>