<svg xmlns="http://www.w3.org/2000/svg" width="72.905" height="67.911" viewBox="0 0 72.905 67.911"><g transform="translate(7.545 8.805)"><path d="M-4948.669,1546.013a3.849,3.849,0,0,0-2.809-3.632,3.8,3.8,0,0,0-4.262,1.721,13.254,13.254,0,0,0-.6,1.387q-7.345,6.241-14.951,12.7v-.894q0-1.684,0-3.365v4.674h-6.861q-5.873,0-11.746,0c-1.053,0-1.479.426-1.489,1.465,0,.386,0,.772,0,1.2a2.653,2.653,0,0,1-.372-.04,3.786,3.786,0,0,0-4.662,3.735c.046,1.255,0,2.514.01,3.77a3.747,3.747,0,0,0,3.718,3.682c.41,0,.819-.073,1.306-.12,0,.4,0,.787,0,1.173.01,1.039.438,1.464,1.485,1.469,1.6.006,3.2,0,4.792,0,.2,0,.4.031.6.05v4.492a15.668,15.668,0,0,1,2.56-.193V1575h2.479c0,.707.011,1.425.013,2.144,0,.7,0,1.4,0,2.155a6.3,6.3,0,0,1,2.542.4c0-.8,0-1.588,0-2.373s.009-1.553.015-2.352h5.188l7.96,6.762V1578.4c-2.161-1.825-4.215-3.561-6.267-5.3v-12.658c4.532-3.835,9.1-7.7,13.785-11.659v29.876l2.568.015c-.014-.191-.038-.359-.038-.529q0-15.853,0-31.707a2.911,2.911,0,0,1,.041-.623,1.289,1.289,0,0,1,1.221-1.032,1.342,1.342,0,0,1,1.222,1.043,3.126,3.126,0,0,1,.033.625q0,15.815,0,31.628v.609l2.508.015V1558.74C-4948.677,1554.5-4948.693,1550.255-4948.669,1546.013Zm-42.727,22.316c0,.078,0,.155,0,.235a1.315,1.315,0,0,1-1.247,1.347,1.29,1.29,0,0,1-1.263-1.328c-.025-.6,0-1.2,0-1.8h0c0-.545-.019-1.1.008-1.641a2.326,2.326,0,0,1,.174-.827,1.123,1.123,0,0,1,1.066-.667,1.11,1.11,0,0,1,1.075.65,2.332,2.332,0,0,1,.187.9C-4991.381,1566.243-4991.4,1567.286-4991.4,1568.329Zm18.795,4.083h-16.183c-.13-.6-.174-9.887-.057-11.2.583-.124,14.82-.17,16.194-.052C-4972.521,1561.738-4972.477,1571.027-4972.6,1572.412Z" transform="translate(4996.432 -1542.256)" fill="#926cdc"/><path d="M-4730.374,1625.984v7.136a5.134,5.134,0,0,1-.008.549,1.222,1.222,0,0,1-1.275,1.121,1.223,1.223,0,0,1-1.217-1.1,4.192,4.192,0,0,1-.007-.47q0-7.215,0-14.43a4.436,4.436,0,0,1,.006-.47,1.22,1.22,0,0,1,1.276-1.12,1.219,1.219,0,0,1,1.216,1.1,5.832,5.832,0,0,1,.009.627Z" transform="translate(4788.181 -1601.475)" fill="#926cdc"/><path d="M-4754.329,1637.825c0,1.436.009,2.873,0,4.309a1.221,1.221,0,0,1-1.286,1.347,1.223,1.223,0,0,1-1.211-1.1,4.428,4.428,0,0,1-.007-.47v-8.149c0-.13-.006-.262,0-.392a1.22,1.22,0,0,1,1.285-1.19,1.2,1.2,0,0,1,1.211,1.182c.028.756.008,1.515.008,2.272Q-4754.328,1636.728-4754.329,1637.825Z" transform="translate(4807.109 -1613.31)" fill="#926cdc"/></g><g transform="translate(0 0)"><path d="M-5002.5,1720.16a9.332,9.332,0,0,1-1.121-2.392,2.978,2.978,0,0,0-1.282-1.632c-.13-.082-.253-.172-.4-.269a6.3,6.3,0,0,0-2.543-.4h-2.5a15.657,15.657,0,0,0-2.56.193,4.422,4.422,0,0,0-2.446,1.292c-.28.239-.582.449-.854.692a1.643,1.643,0,0,1-1.2.441c-1.282-.034-2.566-.011-3.848-.011h-3.5c-.09-.336-.153-.587-.227-.837a3.8,3.8,0,0,0-4.077-2.621,3.745,3.745,0,0,0-3.3,3.7c-.006,5.157.012,10.317-.009,15.476a3.776,3.776,0,0,0,3.219,3.695,3.727,3.727,0,0,0,4.188-2.749c.088-.319.141-.648.208-.961a30.215,30.215,0,0,1,5.682.109c.057.1.13.206.19.319a3.129,3.129,0,0,0,2.593,1.777c.313.029.625.061.94.061q3.61.01,7.225,0a9.145,9.145,0,0,0,1.1-.071,3.675,3.675,0,0,0,3.22-2.887c.288-1.3.521-2.612.814-3.909.352-1.551.6-3.12,1.063-4.652A4.977,4.977,0,0,0-5002.5,1720.16Zm-24.828,13.185a2.564,2.564,0,0,1-.185.984,1.1,1.1,0,0,1-1.074.657,1.1,1.1,0,0,1-1.066-.669,2.711,2.711,0,0,1-.179-.984c-.015-2.4-.009-4.809-.009-7.214q0-3.449,0-6.9a5.132,5.132,0,0,1,.013-.625,1.311,1.311,0,0,1,1.252-1.181,1.321,1.321,0,0,1,1.241,1.194,3.589,3.589,0,0,1,.013.47Q-5027.323,1726.21-5027.332,1733.345Zm22.834-9.083c-.37,1.192-.568,2.436-.825,3.661-.285,1.381-.549,2.765-.827,4.146a3.164,3.164,0,0,1-.136.533,1.165,1.165,0,0,1-1.1.85c-.13,0-.261.006-.392.006-2.619,0-5.235-.013-7.853.01a1.156,1.156,0,0,1-1.18-.686,2.824,2.824,0,0,0-2.7-1.557c-1.492.008-2.983.006-4.476.008-.256,0-.51,0-.8,0V1720.7c.281-.012.536-.033.79-.033,2.354,0,4.71-.019,7.066.008a2.559,2.559,0,0,0,1.793-.638c.595-.512,1.225-.98,1.825-1.488a1.529,1.529,0,0,1,1.071-.375c1.754.019,3.509.006,5.262.01.754,0,.787.031,1.041.783.116.346.2.7.349,1.039a4.294,4.294,0,0,0,.525.948A3.366,3.366,0,0,1-5004.5,1724.262Z" transform="translate(5032.366 -1669.624)" fill="#cbcbcb"/><path d="M-4785.893,1753.207a1.221,1.221,0,0,1-1.114,1.28,5.675,5.675,0,0,1-.627.008h-15.445a4.13,4.13,0,0,1-.625-.017,1.227,1.227,0,0,1-1.028-1.282,1.226,1.226,0,0,1,1.037-1.2,3.953,3.953,0,0,1,.548-.013h15.68a4.365,4.365,0,0,1,.47.006A1.222,1.222,0,0,1-4785.893,1753.207Z" transform="translate(4852.499 -1699.175)" fill="#cbcbcb"/><path d="M-4785.89,1783.191a1.229,1.229,0,0,1-1.074,1.242,4.342,4.342,0,0,1-.548.01h-15.6a4.342,4.342,0,0,1-.548-.01,1.227,1.227,0,0,1-1.068-1.248,1.22,1.22,0,0,1,1.072-1.24,5.178,5.178,0,0,1,.628-.011h15.444a5.178,5.178,0,0,1,.628.011A1.224,1.224,0,0,1-4785.89,1783.191Z" transform="translate(4852.497 -1722.837)" fill="#cbcbcb"/><path d="M-4993.024,1532.819h-7.683a4.119,4.119,0,0,1-.626-.016,1.227,1.227,0,0,1-1.03-1.279,1.222,1.222,0,0,1,1.032-1.2,3.649,3.649,0,0,1,.547-.014h15.68a4.376,4.376,0,0,1,.47.007,1.221,1.221,0,0,1,1.109,1.208,1.223,1.223,0,0,1-1.111,1.285,5.962,5.962,0,0,1-.627.008Z" transform="translate(5008.664 -1524.009)" fill="#cbcbcb"/><path d="M-4992.946,1562.775h-7.761a4.164,4.164,0,0,1-.626-.016,1.226,1.226,0,0,1-1.031-1.278,1.222,1.222,0,0,1,1.031-1.2,3.654,3.654,0,0,1,.548-.015h15.68a4.372,4.372,0,0,1,.47.007,1.22,1.22,0,0,1,1.11,1.207,1.223,1.223,0,0,1-1.11,1.286,5.952,5.952,0,0,1-.626.008Z" transform="translate(5008.664 -1547.681)" fill="#cbcbcb"/><path d="M-4999.69,1502.927a2.69,2.69,0,0,0-2.617-2.637c-9.162.031-18.323.015-27.485.019a3.083,3.083,0,0,0-.772.092,2.616,2.616,0,0,0-1.826,2.537c.036,4.819.015,9.637.015,14.456,0,1.022,0,2.042,0,3.063a2.344,2.344,0,0,0,.695,1.7,2.678,2.678,0,0,0,2.056.783q11.072-.022,22.146-.008h.864l1.316,1.651.692.869h4.895v-4.675C-4999.713,1514.824-4999.724,1508.876-4999.69,1502.927Zm-2.547,21.3c-.195-.2-.342-.323-.459-.47-.166-.2-.332-.409-.5-.613q-.665-.825-1.322-1.653a2.74,2.74,0,0,0-2.312-1.083c-7.356.021-14.712.01-22.066.01h-.852c-.16-.6-.225-15.642-.082-17.5.568-.134,26.135-.185,27.588-.048Z" transform="translate(5032.391 -1500.29)" fill="#cbcbcb"/><path d="M-4808.073,1703.716a3.18,3.18,0,0,0-.107-.768,2.593,2.593,0,0,0-2.486-1.786c-4.713.032-9.423.013-14.136.013-.277,0-.552-.01-.858-.017l-2.507-.015v0h-2.478a.04.04,0,0,0,0-.017l-2.568-.015c-.2.019-.393.04-.607.061-.65-.814-1.284-1.614-1.926-2.4a7.78,7.78,0,0,0-.779-.879,2.369,2.369,0,0,0-2.7-.428,2.373,2.373,0,0,0-1.5,2.2c-.017.357,0,.713,0,1.188v4.217c0,5.369.028,10.738-.017,16.106a2.691,2.691,0,0,0,2.617,2.637q13.741-.05,27.486,0a2.663,2.663,0,0,0,2.593-2.576C-4808.088,1715.4-4808.067,1709.555-4808.073,1703.716Zm-2.537,17.461a.487.487,0,0,1-.052.05c-.019.017-.04.04-.061.042-.157.008-.315.017-.473.017q-13.46,0-26.915,0c-.121-.508-.185-11.437-.143-17.6.015-1.874.036-3.307.072-3.873l1.8,2.233c.115.143.23.285.339.432a3.043,3.043,0,0,0,.617.64,3.082,3.082,0,0,0,1.949.577c7.331-.027,14.66-.015,21.989-.015h.875Z" transform="translate(4880.959 -1655.905)" fill="#cbcbcb"/></g></svg>