<svg xmlns="http://www.w3.org/2000/svg" width="70.812" height="70.832" viewBox="0 0 70.812 70.832"><g transform="translate(0 0)"><path d="M-5659.692,1534.027c.012-.4-.1-.811-.112-1.217a5.927,5.927,0,0,0-.079-.77,9.1,9.1,0,0,0-.793-2.4,10.181,10.181,0,0,0-3.552-4.157,10.148,10.148,0,0,0-4.5-1.692l-.084-.011c-.045-.005-.09-.014-.135-.018-.093-.009-.186-.017-.277-.024q-.42-.033-.85-.033-.174,0-.346.005a9.126,9.126,0,0,0-2.06.3,10.6,10.6,0,0,0-4.543,2.477,10.278,10.278,0,0,0-2.425,3.438,7.9,7.9,0,0,0-.712,2.592c0,.07-.081.135-.124.2v2.627c.242.185.1.455.15.682a10.686,10.686,0,0,0,3.029,5.437,9.777,9.777,0,0,0,2.565,1.777,10.211,10.211,0,0,0,2.555.841,10.414,10.414,0,0,0,2.363.238c.314-.017.627-.079.941-.126a9.383,9.383,0,0,0,1.2-.19,10.768,10.768,0,0,0,5.431-3.469c.221-.259.418-.534.6-.772h.072a10.339,10.339,0,0,0,1.149-2.372h-.035a3.615,3.615,0,0,1,.075-.368A10.66,10.66,0,0,0-5659.692,1534.027Zm-10.437,7.955a8.011,8.011,0,0,1-7.836-8.084,7.983,7.983,0,0,1,8.006-7.827,7.913,7.913,0,0,1,7.934,8.031A7.97,7.97,0,0,1-5670.13,1541.981Z" transform="translate(5680.279 -1523.7)" fill="#926cdc"/><path d="M-5417.367,1539.9h2.24v-15.86h6.883v18.19H-5433.3c-.106-.606-.142-6.312-.054-9.014a67.671,67.671,0,0,1,6.866-.062c.054.746.014,1.5.022,2.25s0,1.475,0,2.212v2.287h2.206v-11.3h6.9Zm6.786,0v-13.557c-.39,0-.754-.006-1.118,0a5.91,5.91,0,0,0-1.051.032V1539.9Zm-9.192.009c.119-.463.137-8.282.02-8.974h-2.117v8.974Zm-11.233-4.414v4.436c.744-.04,1.463.042,2.17-.047V1535.5Z" transform="translate(5479.015 -1523.976)" fill="#926cdc"/><g transform="translate(54.766 43.474)"><path d="M-5376.507,1816.2c-.115-.277-.4-.129-.6-.227a3.548,3.548,0,0,1-2.058-2.612,11.436,11.436,0,0,1-.1-1.7c-.014-.252,0-.505,0-.826-.848-.83-1.737-1.667-2.588-2.541a6.544,6.544,0,0,1-1.706-3.188,6.82,6.82,0,0,1-.262-2.082,7.793,7.793,0,0,1,1.813-4.651,7.651,7.651,0,0,1,2.618-2.022,8.538,8.538,0,0,1,2.194-.64,9.513,9.513,0,0,1,1.979-.1,7.711,7.711,0,0,1,4.337,1.511,7.978,7.978,0,0,1,2.245,2.627,8.163,8.163,0,0,1,.717,2.1,7.223,7.223,0,0,1,.1,2.114,6.4,6.4,0,0,1-.45,1.964,8.325,8.325,0,0,1-1.9,2.88c-.737.727-1.466,1.463-2.2,2.194,0,.637.021,1.259,0,1.878a3.325,3.325,0,0,1-1.808,2.921c-.266.15-.6.153-.813.4Zm2.554-6.928c.832-.825,1.676-1.611,2.46-2.452a5.047,5.047,0,0,0,1.185-5,5.108,5.108,0,0,0-3.554-3.643,6.815,6.815,0,0,0-2.09-.236,5.474,5.474,0,0,0-3.367,1.057,5.157,5.157,0,0,0-2.153,3.913,5.143,5.143,0,0,0,1.428,3.985c.756.835,1.591,1.6,2.376,2.38h.692a34.711,34.711,0,0,0-.024-4.427c-.363,0-.732.022-1.1-.006s-.779.136-1.169-.155c.017-.711-.019-1.436.021-2.156,2.164-.089,6.3-.053,6.89.061-.03.745.047,1.5-.043,2.241-.748.043-1.455-.021-2.159.039v4.4Zm-2.971,2.376a6.957,6.957,0,0,1,0,.717c-.12,1.112.572,1.671,1.66,1.454l.544-.531c.036-.595.024-1.112.02-1.64Z" transform="translate(5383.832 -1788.846)" fill="#926cdc"/><path d="M-5344.191,1759.028v4.494c-.746.1-1.5.011-2.24.049a30.51,30.51,0,0,1-.054-4.543Z" transform="translate(5353.429 -1759.028)" fill="#926cdc"/><path d="M-5322.507,1767.554l-2.145-.882c.58-1.4,1.158-2.8,1.761-4.255l2.128.9Z" transform="translate(5335.584 -1761.79)" fill="#926cdc"/><path d="M-5376.375,1763.323a12.487,12.487,0,0,1,2.057-.917c.559,1.307,1.107,2.58,1.645,3.858a1.47,1.47,0,0,1,.04.412l-1.922.793A20.513,20.513,0,0,1-5376.375,1763.323Z" transform="translate(5377.751 -1761.781)" fill="#926cdc"/></g><g transform="translate(0 13.691)"><path d="M-5664.245,1736.629c0-.046,0-.092,0-.139a2.3,2.3,0,0,0-2.409-2.387c-1.312.042-2.625.009-3.939.009h-3.665c-1.289,0-2.578.009-3.869,0a2.1,2.1,0,0,0-1.416.573,3.952,3.952,0,0,0-.735,1.1v19.5c.037.02.1.033.107.061a2.017,2.017,0,0,0,1.225,1.367c.166.068.326.155.48.229h1.674c.553,0,1.1-.006,1.659,0s1.091-.031,1.645.022l2.334-.024h.683c1.313,0,2.626.009,3.939,0a2.248,2.248,0,0,0,2.05-1.356,2.534,2.534,0,0,0,.241-1.182Q-5664.25,1745.512-5664.245,1736.629Zm-2.351,17.874a.409.409,0,0,1-.046.052.136.136,0,0,1-.056.033c-.206,0-.414.007-.621.007h-10.591v-18.241h11.238C-5666.542,1736.971-5666.49,1749.224-5666.6,1754.5Z" transform="translate(5680.279 -1708.924)" fill="#cbcbcb"/><g transform="translate(6.732)"><path d="M-5595.479,1862.265h-.641q-21.947,0-43.892.013a3.577,3.577,0,0,1-3.353-2.474,7.18,7.18,0,0,1-.2-.99c-.033-.342-.008-.689-.008-1.09l2.335-.024a5.234,5.234,0,0,0,.127,1.569.958.958,0,0,0,.869.648,6.611,6.611,0,0,0,.691.008h43.912c.056.1.15.2.153.292C-5595.472,1860.879-5595.479,1861.542-5595.479,1862.265Z" transform="translate(5643.629 -1809.688)" fill="#cbcbcb"/><path d="M-5627.782,1709.464v2.178c-.169.009-.368.031-.563.031q-5.7,0-11.406,0c-.16,0-.323-.013-.484,0a1.245,1.245,0,0,0-1.206,1.3c-.006.32,0,.641,0,1.029h-2.4q.1-1.072.2-2.086a7.517,7.517,0,0,1,.424-.874,3.227,3.227,0,0,1,2.83-1.605l12.373,0C-5627.95,1709.44-5627.884,1709.453-5627.782,1709.464Z" transform="translate(5643.839 -1688.817)" fill="#cbcbcb"/><path d="M-5553.4,1598.989c.011.369,0,.737,0,1.092a.553.553,0,0,1-.06.063.115.115,0,0,1-.057.03c-.114.006-.231.007-.346.007-7.993,0-15.985,0-24.042,0a10.3,10.3,0,0,0,1.149-2.372h23.3A5.321,5.321,0,0,1-5553.4,1598.989Z" transform="translate(5590.083 -1597.81)" fill="#cbcbcb"/><path d="M-5411.336,1635.4h2.31c.011.189.028.365.028.542,0,3.821.009,7.642,0,11.463a4.062,4.062,0,0,1-.816,2.671,2.967,2.967,0,0,1-2.265,1.214c-2.738.04-5.478.017-8.217.017a.507.507,0,0,1-.143-.056v-2.173H-5413c.138,0,.277.008.415,0a1.252,1.252,0,0,0,1.249-1.26c.009-.138,0-.276,0-.414v-12Z" transform="translate(5461.713 -1628.456)" fill="#cbcbcb"/></g><path d="M-5648.566,1808.279v2.181c-.076.054-.149.15-.222.151-2.206.008-4.411.007-6.642.007v-2.338Z" transform="translate(5660.02 -1769.397)" fill="#cbcbcb"/><path d="M-5648.577,1759.038v2.105a65.71,65.71,0,0,1-6.868.042v-2.147Z" transform="translate(5660.033 -1729.253)" fill="#cbcbcb"/><path d="M-5655.444,1785.895V1783.7h6.853v2.13A67.987,67.987,0,0,1-5655.444,1785.895Z" transform="translate(5660.032 -1749.361)" fill="#cbcbcb"/></g><g transform="translate(25.133 25.21)"><path d="M-5543.687,1675.075l1.319-1.229h-1.761c-.107-.6-.142-5.268-.055-6.9h1.806l-1.251-1.244c0-.132,0-.156,0-.178a.124.124,0,0,1,.024-.06l4.788-4.756c.5.326.844.857,1.388,1.279v-1.819h6.906v1.859c.3-.287.514-.5.73-.706l.591-.578,4.88,4.879-1.268,1.3h1.787c.107.6.142,5.245.055,6.9h-1.862l1.308,1.225a1.968,1.968,0,0,1,0,.2.114.114,0,0,1-.024.06c-1.585,1.575-3.17,3.15-4.788,4.756-.5-.327-.844-.858-1.388-1.28v1.82h-6.907v-1.858c-.3.287-.514.5-.73.706s-.423.413-.592.579Zm12.949-9.5-2.133-.9V1662.4h-2.205v2.3l-2.094.879-1.639-1.622c-.3.3-.565.552-.816.817a4.725,4.725,0,0,0-.768.853l1.591,1.579c-.31.683-.515,1.42-.881,2.069-.415,0-.784-.011-1.152,0a4.272,4.272,0,0,0-1.149.057c.037.742-.044,1.449.052,2.17h2.292l.891,2.2-1.606,1.548c.253.26.506.521.762.778s.513.508.787.779l1.645-1.62,2.085.887c0,.418,0,.785,0,1.152a8.59,8.59,0,0,0,.025,1.136h2.21v-2.287l2.088-.872c.575.529,1.069,1.1,1.546,1.513l1.555-1.555-1.514-1.5.89-2.19h2.292v-2.2h-2.309c-.288-.713-.565-1.4-.852-2.1l1.627-1.646c-.313-.3-.574-.556-.844-.8a3.642,3.642,0,0,0-.814-.722Z" transform="translate(5544.233 -1660.163)" fill="#926cdc"/><path d="M-5503.816,1696.8a3.434,3.434,0,0,1,3.431,3.474,3.377,3.377,0,0,1-3.476,3.414,3.376,3.376,0,0,1-3.4-3.425A3.427,3.427,0,0,1-5503.816,1696.8Zm1.105,3.51a1.139,1.139,0,0,0-1.051-1.182,1.151,1.151,0,0,0-1.174,1.064,1.113,1.113,0,0,0,1.055,1.175A1.106,1.106,0,0,0-5502.711,1700.313Z" transform="translate(5514.089 -1690.034)" fill="#926cdc"/></g></g></svg>