<svg xmlns="http://www.w3.org/2000/svg" width="71.991" height="72.006" viewBox="0 0 71.991 72.006"><g transform="translate(5138.047 -9350.377)"><g transform="translate(-5138.047 9350.377)"><path d="M-4740.9-1183.2a4.211,4.211,0,0,0,.6.132,30.47,30.47,0,0,1,14.333,4.8,30.787,30.787,0,0,1,11.121,12.381,30.778,30.778,0,0,1,2.779,8.417,29.337,29.337,0,0,1,.5,5.3,31.048,31.048,0,0,1-6.389,19.063c-.181.24-.361.481-.567.755.8.6,1.59,1.181,2.379,1.764,3.766,2.778,7.519,5.574,11.306,8.324a6.447,6.447,0,0,1,2.794,4.044c.007.038.058.068.088.1v1.968a1.883,1.883,0,0,0-.134.313,5.85,5.85,0,0,1-4.785,4.556,5.615,5.615,0,0,1-4.94-1.445c-1.591-1.521-3.133-3.093-4.695-4.645q-4.234-4.211-8.468-8.423c-.115-.114-.243-.214-.372-.327a31.689,31.689,0,0,1-5.963,3.133,30.506,30.506,0,0,1-7.581,1.925,30.417,30.417,0,0,1-4.551.249,30.964,30.964,0,0,1-15.969-4.837,30.847,30.847,0,0,1-12.487-15.269,31.025,31.025,0,0,1-1.764-6.977,30.418,30.418,0,0,1-.223-6.025,30.857,30.857,0,0,1,2.671-10.824,30.875,30.875,0,0,1,6.366-9.262,31.015,31.015,0,0,1,11.709-7.388,34.184,34.184,0,0,1,5.971-1.488c.622-.1,1.257-.116,1.884-.185a5.153,5.153,0,0,0,.6-.135Zm26.907,31.129a28.691,28.691,0,0,0-29.286-28.7,28.7,28.7,0,0,0-28.224,29.565,28.648,28.648,0,0,0,29.117,27.956A28.681,28.681,0,0,0-4713.989-1152.07Zm-9.3,24.485a1.063,1.063,0,0,0,.1.139q6.361,6.348,12.725,12.692a3.586,3.586,0,0,0,2.306,1.055,3.469,3.469,0,0,0,3.475-2,3.455,3.455,0,0,0-.8-3.981,8.779,8.779,0,0,0-.715-.565q-6.746-4.976-13.5-9.948c-.145-.106-.3-.2-.425-.283Z" transform="translate(4773.948 1183.199)" fill="#cbcbcb"/><path d="M-4698.13-1131.382a23.648,23.648,0,0,0-6.343-16.2,23.681,23.681,0,0,0-13.13-7.319,28.059,28.059,0,0,0-4.185-.427,2.453,2.453,0,0,1-.819-.135,1.175,1.175,0,0,1-.664-1.272,1.21,1.21,0,0,1,1.123-.994,12.809,12.809,0,0,1,1.475.012,26.184,26.184,0,0,1,15.3,5.94,25.975,25.975,0,0,1,9.13,14.989,25.439,25.439,0,0,1,.5,7.255,26.044,26.044,0,0,1-5.671,14.609,26.011,26.011,0,0,1-13.564,9.016,25.957,25.957,0,0,1-5.24.893,25.41,25.41,0,0,1-14.148-2.975,25.949,25.949,0,0,1-13.425-17.384,24.888,24.888,0,0,1-.649-7.663,26,26,0,0,1,4.744-13.45,26.087,26.087,0,0,1,13.345-9.917,1.557,1.557,0,0,1,1.02-.139,1.249,1.249,0,0,1,.91,1.052,1.2,1.2,0,0,1-.688,1.2,6.98,6.98,0,0,1-.785.3,23.891,23.891,0,0,0-15.527,17.213,23.445,23.445,0,0,0-.635,5.913,23.982,23.982,0,0,0,18.15,22.768,23.041,23.041,0,0,0,7.588.651,23.607,23.607,0,0,0,16.544-8.449,23.538,23.538,0,0,0,5.154-10.535A20.5,20.5,0,0,0-4698.13-1131.382Z" transform="translate(4753.281 1162.522)" fill="#cbcbcb"/><path d="M-4656.625-1014.082h2.374v-.719c0-.867-.012-1.734.008-2.6a1.975,1.975,0,0,1,.164-.809,1.137,1.137,0,0,1,1.24-.588,1.192,1.192,0,0,1,.994,1.192c.023.937.008,1.874.008,2.811v.716h2.386v-6.611c0-.211-.006-.423.013-.632a1.127,1.127,0,0,1,1.161-1.075,1.162,1.162,0,0,1,1.221,1.1c.014.163,0,.328,0,.492q0,2.987,0,5.974v.749a23.731,23.731,0,0,0,2.4.02v-.733q0-1.827,0-3.655c0-.164-.01-.329.006-.492a1.15,1.15,0,0,1,1.183-1.06,1.141,1.141,0,0,1,1.191,1.047,5.522,5.522,0,0,1,.012.562q0,1.792,0,3.585v.762c.3,0,.526-.009.752,0a4.342,4.342,0,0,1,.7.069,1.121,1.121,0,0,1,.94,1.069,1.123,1.123,0,0,1-.765,1.2,2.042,2.042,0,0,1-.684.111q-8.117.009-16.236,0c-1.039,0-1.487-.44-1.522-1.5-.022-.7,0-1.405,0-2.108q0-3.3,0-6.607a4.444,4.444,0,0,1,.067-.837,1.2,1.2,0,0,1,1.115-.994,1.2,1.2,0,0,1,1.2.9,2.938,2.938,0,0,1,.077.762q.009,3.549,0,7.1Z" transform="translate(4680.662 1053.597)" fill="#cbcbcb"/><path d="M-4663.454-1072.314c-.257,0-.517.021-.772,0a1.144,1.144,0,0,1-1.053-1.117,1.18,1.18,0,0,1,1.007-1.241,8.332,8.332,0,0,1,1.612,0,1.211,1.211,0,0,1,1,1.187,1.219,1.219,0,0,1-1.1,1.17c-.232.021-.467,0-.7,0Z" transform="translate(4685.687 1095.087)" fill="#cbcbcb"/><path d="M-4631.495-1072.311c-.234,0-.469.018-.7,0a1.13,1.13,0,0,1-1.064-1.167,1.138,1.138,0,0,1,1.035-1.2,9.674,9.674,0,0,1,1.47,0,1.144,1.144,0,0,1,1.069,1.173,1.146,1.146,0,0,1-1.109,1.2c-.232.018-.467,0-.7,0Z" transform="translate(4659.681 1095.085)" fill="#cbcbcb"/></g><path d="M-4690.812-1084.6c0-3.63-.011-7.26.006-10.89a4.565,4.565,0,0,1,2.19-3.934,4.845,4.845,0,0,1,2.8-.757c4.8.016,9.6.007,14.4.007,2.365,0,4.731-.025,7.1.013a4.605,4.605,0,0,1,4.295,2.868,4.357,4.357,0,0,1,.412,1.9c0,7.213.012,14.426-.007,21.639a4.784,4.784,0,0,1-4.8,4.772q-10.819.023-21.639,0a4.8,4.8,0,0,1-4.76-4.731C-4690.789-1077.339-4690.812-1080.969-4690.812-1084.6Zm28.784-3.517c-1.113-.137-25.875-.092-26.4.043v.548q0,6.712,0,13.423c0,.141,0,.282.006.422a2.372,2.372,0,0,0,2.06,2.235,5.727,5.727,0,0,0,.908.057q10.191,0,20.381,0c.164,0,.328.005.492,0a2.437,2.437,0,0,0,2.545-2.512c.007-.14,0-.281,0-.422v-13.8Zm-.088-2.519c.037-.078.072-.119.072-.16.006-1.522.036-3.045,0-4.566a2.261,2.261,0,0,0-1.464-2.2,3.194,3.194,0,0,0-1.16-.212q-10.54-.018-21.08-.007a2.447,2.447,0,0,0-2.677,2.657c-.007,1.312,0,2.623,0,3.935,0,.18.021.36.034.552Z" transform="translate(-431.615 10466.147)" fill="#926cdc"/></g></svg>