<svg xmlns="http://www.w3.org/2000/svg" width="76.112" height="68.089" viewBox="0 0 76.112 68.089"><g transform="translate(0 0.018)"><g transform="translate(24.445 8.317)"><path d="M-5749.2-886.023a7.447,7.447,0,0,1,7.46-7.428,7.426,7.426,0,0,1,7.4,7.427,7.427,7.427,0,0,1-7.468,7.428A7.447,7.447,0,0,1-5749.2-886.023Zm2.99-.018a4.425,4.425,0,0,0,4.412,4.459,4.365,4.365,0,0,0,4.441-4.424,4.37,4.37,0,0,0-4.406-4.46A4.433,4.433,0,0,0-5746.213-886.041Z" transform="translate(5768.43 893.459)" fill="#cbcbcb"/><path d="M-5847.713-893.456a4.67,4.67,0,0,1,4.583,3.312,2.651,2.651,0,0,1,.1,1.524,1.467,1.467,0,0,1-1.407,1.1,1.456,1.456,0,0,1-1.421-1.086,4.022,4.022,0,0,1-.122-.5c-.124-.859-.734-1.175-1.481-1.327a1.865,1.865,0,0,0-1.812.767,1.265,1.265,0,0,0,.543,1.826,4.524,4.524,0,0,0,1.42.336,4.843,4.843,0,0,1,3.567,2.007,4.271,4.271,0,0,1-1,5.921,4.98,4.98,0,0,1-6.7-.7,4.436,4.436,0,0,1-1.035-2.643,1.524,1.524,0,0,1,1.257-1.6,1.457,1.457,0,0,1,1.64,1.072c.056.189.094.383.139.576a1.685,1.685,0,0,0,1.612,1.287,1.945,1.945,0,0,0,1.744-.927,1.278,1.278,0,0,0-.62-1.7,4.738,4.738,0,0,0-1.421-.337,4.793,4.793,0,0,1-3.683-2.2,4.28,4.28,0,0,1,1.558-6.02A4.779,4.779,0,0,1-5847.713-893.456Z" transform="translate(5852.484 893.464)" fill="#cbcbcb"/><path d="M-5790.652-884.571v2.934c.216.016.406.041.6.042,1.238,0,2.475.008,3.713,0a1.564,1.564,0,0,1,1.106.343,1.387,1.387,0,0,1,.517,1.45,1.458,1.458,0,0,1-1.211,1.155,3.158,3.158,0,0,1-.593.022c-1.758,0-3.517-.043-5.272.017a1.693,1.693,0,0,1-1.894-1.922c.013-3.515,0-7.031,0-10.546,0-.2-.013-.4,0-.594a3.99,3.99,0,0,1,.1-.655,1.389,1.389,0,0,1,1.433-1.151q2.971-.026,5.941,0a1.519,1.519,0,0,1,1.548,1.479,1.525,1.525,0,0,1-1.551,1.477c-1.212.02-2.425.005-3.638.006h-.826c-.007.994-.015,1.945.009,2.978h.995c.668,0,1.337-.023,2,.012a1.432,1.432,0,0,1,1.4,1.443,1.435,1.435,0,0,1-1.416,1.5c-.667.033-1.336.009-2,.01Z" transform="translate(5804.636 893.49)" fill="#cbcbcb"/><path d="M-5654.731-868.6a4.4,4.4,0,0,1-4.463-4.484,4.422,4.422,0,0,1,4.448-4.431,4.408,4.408,0,0,1,4.463,4.49A4.385,4.385,0,0,1-5654.731-868.6Zm-.017-5.936c-1.076.3-1.455.72-1.427,1.551.027.769.427,1.156,1.451,1.4,1.031-.27,1.4-.645,1.418-1.432C-5653.289-873.843-5653.663-874.243-5654.748-874.532Z" transform="translate(5695.178 880.486)" fill="#cbcbcb"/></g><path d="M-5854-936.679a1.542,1.542,0,0,1-1.65,1.469,1.467,1.467,0,0,1-1.315-1.515,1.467,1.467,0,0,1,1.321-1.436A1.541,1.541,0,0,1-5854-936.679Z" transform="translate(5880.577 938.168)" fill="#cbcbcb"/><g transform="translate(16.512 45.925)"><path d="M-5756.827-689.977a1.677,1.677,0,0,1,.58-1.159,1.611,1.611,0,0,1,1.038-.329c.816.007,1.634,0,2.451,0h11.138c.223,0,.447-.01.668.008a1.445,1.445,0,0,1,1.371,1.473,1.448,1.448,0,0,1-1.366,1.478c-.147.013-.3.008-.445.008h-13.588a1.953,1.953,0,0,1-1.142-.238A1.642,1.642,0,0,1-5756.827-689.977Z" transform="translate(5782.568 691.466)" fill="#cbcbcb"/><path d="M-5878.059-689.964a1.7,1.7,0,0,1-.625,1.179,1.874,1.874,0,0,1-1.2.3q-4.6,0-9.208,0c-1.46,0-2.921-.006-4.381,0a1.538,1.538,0,0,1-1.307-.574,1.474,1.474,0,0,1,.968-2.379,4.314,4.314,0,0,1,.593-.017q6.647,0,13.293.008a2.781,2.781,0,0,1,1.075.195A1.463,1.463,0,0,1-5878.059-689.964Z" transform="translate(5895.099 691.461)" fill="#cbcbcb"/><path d="M-5785.89-691.427a1.5,1.5,0,0,1,1.5,1.49,1.5,1.5,0,0,1-1.451,1.468,1.5,1.5,0,0,1-1.505-1.49A1.5,1.5,0,0,1-5785.89-691.427Z" transform="translate(5807.403 691.435)" fill="#cbcbcb"/></g><g transform="translate(0 10.698)"><path d="M-5907.723-833a1.421,1.421,0,0,0-1.383-1.311c-.359-.028-.722-.028-1.1-.039v-35.6l-3.024,3.04v32.552h-2.409c-.169-.234-.082-.516-.082-.776q-.008-10.217-.005-20.435a6.726,6.726,0,0,0-.015-.743,1.518,1.518,0,0,0-1.458-1.335,1.522,1.522,0,0,0-1.478,1.312,6.168,6.168,0,0,0-.017.743v21.159c-.584.136-52.648.186-54.082.058v-36.483c.211-.013.4-.033.591-.035.844-.006,1.688.022,2.526-.015a1.493,1.493,0,0,0,1.4-1.467,1.48,1.48,0,0,0-1.394-1.471q-2.377-.047-4.755,0a1.409,1.409,0,0,0-1.352,1.34c-.022.246-.011.5-.011.743v37.4h-2.532v-.758c0-12.633.021-25.265-.019-37.9a3.253,3.253,0,0,1,3.526-3.541c2.575.069,5.151.017,7.727.017h.809l0-3.208a.618.618,0,0,1-.108.238h-1.256c-2.551,0-5.1-.028-7.655.009a5.788,5.788,0,0,0-5.341,3.267,6.252,6.252,0,0,0-.653,3.012q.011,18.988.006,37.974v.923c-.346,0-.614.008-.88,0a1.538,1.538,0,0,0-1.48.806,2.422,2.422,0,0,1-.169.234v2.824a1.518,1.518,0,0,1,.138.328,8.276,8.276,0,0,0,8.105,6.806q29.8-.008,59.6-.007a7.653,7.653,0,0,0,1.4-.132,8.108,8.108,0,0,0,6.305-5.158A9.679,9.679,0,0,0-5907.723-833Zm-6.886,6.476a8.547,8.547,0,0,1-1.908.22q-8.654.025-17.308.011-20.574,0-41.152,0a6.016,6.016,0,0,1-2.941-.616,5.069,5.069,0,0,1-2.8-3.946c-.019-.14-.052-.277-.086-.46h70.059A5.16,5.16,0,0,1-5914.608-826.526Zm-51.653-54.17,0,0v.385a.467.467,0,0,0,0,.052Z" transform="translate(5983.8 880.7)" fill="#cbcbcb"/><path d="M-5806.312-608.573c-.34,1.205-.729,1.512-1.859,1.512q-6.195,0-12.389,0a1.752,1.752,0,0,1-1.127-.28,1.468,1.468,0,0,1-.606-1.484,1.493,1.493,0,0,1,1.264-1.19,2.764,2.764,0,0,1,.37-.015q6.344,0,12.687,0a1.512,1.512,0,0,1,1.418.774A3.706,3.706,0,0,1-5806.312-608.573Z" transform="translate(5852.386 660.417)" fill="#cbcbcb"/></g></g><g transform="translate(16.505 0)"><path d="M-5873.594-731.386h19.393c.223,0,.447-.01.668.008a1.442,1.442,0,0,1,1.373,1.47,1.443,1.443,0,0,1-1.363,1.48c-.2.017-.4.008-.595.008h-39.007a5.478,5.478,0,0,1-.742-.02,1.473,1.473,0,0,1-1.275-1.5,1.474,1.474,0,0,1,1.264-1.429,6.008,6.008,0,0,1,.817-.022Z" transform="translate(5895.141 769.899)" fill="#926cdc"/><path d="M-5833.036-917.382c-.181.2-.367.4-.545.59l-3.024,3.04c-.222.207-.4.367-.575.538q-2.865,2.862-5.722,5.732a2.338,2.338,0,0,1-1.775.756q-21.547-.022-43.1.005c-1.225,0-1.977-.741-1.857-1.849.014-.147,0-.3,0-.447v-14.368h0l0-3.208a1.96,1.96,0,0,0,0-.516v-.434l0,0q.012-4.379.005-8.755a4.615,4.615,0,0,1,.021-.668,1.48,1.48,0,0,1,1.5-1.27,1.483,1.483,0,0,1,1.424,1.273,6.216,6.216,0,0,1,.021.815v26.4h41.746c.073-.069.166-.151.251-.238q4.546-4.546,9.09-9.094a4.8,4.8,0,0,0,1.45-2.77,4.428,4.428,0,0,0-.771-3.232,5.71,5.71,0,0,0-.668-.795q-4.588-4.61-9.183-9.209c-.052-.052-.112-.1-.218-.194h-30.114c-.174,0-.347,0-.522,0-1.121-.007-1.517-.326-1.821-1.482a3.414,3.414,0,0,1,.139-.54,1.437,1.437,0,0,1,1.234-.933c.246-.024.5-.013.744-.013q15.2,0,30.4-.017a2.806,2.806,0,0,1,2.162.907c3.024,3.07,6.08,6.11,9.123,9.163a8.591,8.591,0,0,1,1.78,2.36A7.664,7.664,0,0,1-5833.036-917.382Z" transform="translate(5890.668 938.26)" fill="#926cdc"/></g></svg>