<?xml version="1.0" encoding="utf-8"?>
<!-- Generator: Adobe Illustrator 24.0.1, SVG Export Plug-In . SVG Version: 6.00 Build 0)  -->
<svg version="1.1" id="Layer_1" xmlns="http://www.w3.org/2000/svg" xmlns:xlink="http://www.w3.org/1999/xlink" x="0px" y="0px"
	 viewBox="0 0 453.1 350.8" style="enable-background:new 0 0 453.1 350.8;" xml:space="preserve">
<style type="text/css">
	.st0{fill:#FFFFFF;}
</style>
<g>
	<path class="st0" d="M272.5,0.5L272.5,0.5c0,0-0.1,0-0.1,0H272.5z"/>
	<path class="st0" d="M224.4,231.6"/>
	<path class="st0" d="M370.4,98.7"/>
	<path class="st0" d="M375.2,119.2l-0.2,0.3C375,119.4,375.1,119.3,375.2,119.2L375.2,119.2z"/>
	<path class="st0" d="M406.9,178c0,38.8-31.4,70.2-70.2,70.2c-3.9,0-7.7-0.3-11.3-0.9c0,0,0,0,0,0c-0.4-0.1-0.8-0.1-1.2-0.2h0
		c-1.5-0.4-2.8-1.4-3.6-2.8c0-0.1-0.1-0.1-0.1-0.2c-0.4-0.7-0.6-1.5-0.7-2.4c0-0.1,0-0.3,0-0.4v0c0,0,0-0.1,0-0.2
		c0-0.4,0.1-0.8,0.1-1.1c0.6-2.7,3-4.7,5.9-4.7h0c0.3,0,0.6,0,1,0.1c0,0,0.1,0,0.1,0c0.2,0,0.3,0,0.4,0.1c0,0-0.1,0-0.1,0
		c3.1,0.5,6.3,0.8,9.6,0.8c32.1,0,58.2-26.1,58.2-58.2c0-13.6-4.7-26.1-12.6-36.1l0,0c-0.1-0.1-0.2-0.3-0.3-0.4
		c0-0.1-0.1-0.1-0.1-0.2c-0.4-0.7-0.6-1.5-0.7-2.4c0-0.1,0-0.3,0-0.4v0c0,0,0-0.1,0-0.1c0-0.4,0.1-0.8,0.1-1.1
		c0.6-2.7,3-4.7,5.9-4.7h0c0.2,0,0.5,0,0.7,0c1.5,0.2,2.9,0.9,3.8,2c0.1,0.1,0.3,0.3,0.4,0.5c0,0,0,0,0,0
		C401.4,146.9,406.9,161.8,406.9,178z"/>
	<path class="st0" d="M327.2,235.5c0,0,0.1,0,0.1,0c-0.1,0-0.3-0.1-0.4-0.1C326.9,235.4,327.1,235.4,327.2,235.5z"/>
	<path class="st0" d="M348.2,114.2c0,3.3-2.7,5.9-6,5.9h-0.1c-0.2,0-0.4,0-0.7-0.1c-1.5-0.1-3.1-0.2-4.7-0.2
		c-32.1,0-58.2,26.1-58.2,58.2c0,0.5,0,1,0,1.6c0,0.3,0,0.5,0,0.8c0,3.3-2.7,5.9-6,5.9h0c-2.2,0-4.1-1.2-5.2-3
		c0-0.1-0.1-0.1-0.1-0.2c-0.4-0.7-0.6-1.5-0.7-2.4c0-0.1,0-0.3,0-0.4v0c0-0.7,0-1.5,0-2.2c0-38.8,31.4-70.2,70.2-70.2
		c1.9,0,3.8,0.1,5.7,0.2c0.1,0,0.3,0,0.4,0c1.6,0.2,3,1,3.9,2.1c0.7,0.9,1.2,2,1.3,3.2C348.1,113.6,348.1,113.9,348.2,114.2z"/>
	<path class="st0" d="M327.2,235.5c0,0,0.1,0,0.1,0c-0.1,0-0.3-0.1-0.4-0.1C326.9,235.4,327.1,235.4,327.2,235.5z"/>
	<path class="st0" d="M392.2,135c-0.1-0.2-0.3-0.3-0.4-0.5c0,0,0.1,0.1,0.1,0.1C392,134.7,392.1,134.8,392.2,135z"/>
	<path class="st0" d="M325.3,247.3c-0.4,0-0.8-0.1-1.2-0.2C324.6,247.2,325,247.3,325.3,247.3z"/>
	<path class="st0" d="M236,165.6c0,0.4-0.1,0.8-0.1,1.1C235.8,166.3,235.9,166,236,165.6z"/>
	<polygon class="st0" points="235.8,166.9 235.8,166.9 235.8,166.9 	"/>
	<path class="st0" d="M249.2,229.5L249.2,229.5C249.2,229.5,249.2,229.5,249.2,229.5C249.2,229.5,249.2,229.5,249.2,229.5z"/>
	<path class="st0" d="M216.9,243.5c0.2,0,0.4-0.1,0.6-0.1c-0.1,0-0.2,0.1-0.3,0.1C217,243.4,216.9,243.4,216.9,243.5z"/>
	<g>
		<path class="st0" d="M287.7,338.3h-56.6v-45.9h56.6c3.3,0,6-2.7,6-6c0-3.3-2.7-6-6-6h-273c-1.2,0-2.3-1-2.3-2.3V14.8
			c0-1.2,1-2.3,2.3-2.3h257.8v-0.1c1.6,0,3.1-0.7,4.1-1.7c1.1-1.1,1.8-2.6,1.8-4.2c0-1.6-0.7-3.1-1.8-4.2c-1.1-1-2.5-1.7-4.1-1.7
			c0,0-0.1,0-0.1,0H14.7C6.8,0.5,0.4,6.9,0.4,14.8v263.4c0,7.9,6.4,14.3,14.3,14.3h131.1v45.9H89.1c-3.3,0-6,2.7-6,6
			c0,3.3,2.7,6,6,6h198.5c3.3,0,6-2.7,6-6C293.7,341,291,338.3,287.7,338.3z M219.1,338.3h-61.4v-45.9h61.4V338.3z"/>
		<path class="st0" d="M300.3,12.4L300.3,12.4c-3.3,0-6-2.7-6-6v0c0-3.3,2.7-6,6-6h0c3.3,0,6,2.7,6,6v0
			C306.3,9.8,303.6,12.4,300.3,12.4z"/>
		<path class="st0" d="M376.4,14.8v43.1c0,3.3-2.7,6-6,6c-3.3,0-6-2.7-6-6V14.8c0-1.2-1-2.3-2.3-2.3h-33.6v0c-3.3,0-5.9-2.7-5.9-6
			c0-1.6,0.7-3.1,1.8-4.2c1.1-1.1,2.5-1.7,4.2-1.8h33.6C370,0.5,376.4,6.9,376.4,14.8z"/>
		<g>
			<path class="st0" d="M140.7,211.6h21.7c3.3,0,6-2.7,6-6V63.3c0-3.3-2.7-6-6-6h-21.7c-3.3,0-6,2.7-6,6v142.3
				C134.7,208.9,137.4,211.6,140.7,211.6L140.7,211.6z M146.7,69.3h9.7v130.3h-9.7V69.3z M146.7,69.3"/>
			<path class="st0" d="M186.9,211.6h21.7c3.3,0,6-2.7,6-6v-57.7c0-3.3-2.7-6-6-6h-21.7c-3.3,0-6,2.7-6,6v57.7
				C180.9,208.9,183.5,211.6,186.9,211.6L186.9,211.6z M192.9,153.9h9.7v45.7h-9.7V153.9z M192.9,153.9"/>
			<path class="st0" d="M94.5,211.6h21.7c3.3,0,6-2.7,6-6V96.1c0-3.3-2.7-6-6-6H94.5c-3.3,0-6,2.7-6,6v109.4
				C88.5,208.9,91.2,211.6,94.5,211.6L94.5,211.6z M100.5,102.1h9.7v97.4h-9.7V102.1z M100.5,102.1"/>
			<path class="st0" d="M48.4,211.6H70c3.3,0,6-2.7,6-6v-75.9c0-3.3-2.7-6-6-6H48.4c-3.3,0-6,2.7-6,6v75.9
				C42.4,208.9,45,211.6,48.4,211.6L48.4,211.6z M54.4,135.7H64v63.9h-9.7V135.7z M54.4,135.7"/>
		</g>
		<g>
			<path class="st0" d="M375.9,116.2L375.9,116.2c0,1.1-0.3,2.1-0.8,3c-0.1,0.1-0.2,0.3-0.3,0.4c0,0,0-0.1,0.1-0.1l-69,113.6
				c-1.7,2.8-5.4,3.7-8.2,2l-53.6-32.5l-23.3,38c-0.6,1-1.4,1.7-2.3,2.2c-0.2,0.1-0.3,0.2-0.5,0.3c-0.2,0.1-0.4,0.1-0.5,0.2
				c-0.2,0.1-0.4,0.1-0.6,0.1c0,0-0.1,0-0.1,0c-0.2,0-0.3,0-0.5,0.1c-0.2,0-0.4,0-0.6,0H70.3c-3.3,0-6-2.7-6-6s2.7-6,6-6h142
				l24.7-40.3c1.7-2.8,5.4-3.7,8.2-2l53.6,32.5l65.5-107.8c0,0,0,0,0,0c0.2-0.6,0.5-1.1,0.9-1.5c1.1-1.3,2.8-2.1,4.6-2.1h0.1
				C373.2,110.2,375.9,112.9,375.9,116.2z"/>
			<g>
				<path class="st0" d="M361.6,84.4c0,1.7-0.7,3.2-1.8,4.3c-1.1,1.1-2.6,1.8-4.2,1.8c-0.4,0-0.7,0-1.1-0.1v0
					c-5.8-1.2-11.7-1.8-17.8-1.8c-46,0-84,34.8-89,79.5h0c-0.5,2.8-3,4.9-5.9,4.9h0c-3.3,0-6-2.7-6-6v0c0,0,0-0.1,0-0.1
					c0-0.4,0.1-0.8,0.1-1.1c6.1-50.2,48.9-89.1,100.8-89.1c6.7,0,13.3,0.7,19.7,1.9c0.2,0,0.4,0.1,0.6,0.1c1.1,0.3,2,0.8,2.8,1.6
					C360.9,81.3,361.6,82.8,361.6,84.4z"/>
				<path class="st0" d="M446.1,329.2L412.7,272c-0.8-1.4-2.1-2.4-3.7-2.8c-1.6-0.4-3.2-0.2-4.6,0.6l-5.2,3l-6.1-10.4
					c27.2-18.2,45-49.2,45-84.4c0-26.3-10-50.2-26.3-68.2c-1.1-1.3-2.8-2.2-4.6-2.2h0c-3.3,0-6,2.7-6,6v0c0,1.6,0.7,3.1,1.7,4.2v0
					c14.5,15.9,23.3,37,23.3,60.2c0,49.4-40.2,89.5-89.5,89.5c-33,0-61.8-17.9-77.3-44.5l0,0c-0.2-0.3-0.4-0.5-0.6-0.8
					c-1.1-1.3-2.8-2.2-4.6-2.2h0c-2.9,0-5.3,2-5.9,4.7c-0.1,0.4-0.1,0.8-0.1,1.1c0,0.1,0,0.1,0,0.2v0c0,1,0.3,2,0.7,2.8
					c0,0.1,0.1,0.1,0.1,0.2c0.1,0.1,0.1,0.2,0.2,0.3c0,0,0,0,0,0c17.7,29.9,50.2,50,87.5,50c16.6,0,32.3-4,46.2-11.1l6.1,10.3
					l-5.2,3c-1.4,0.8-2.4,2.1-2.8,3.7c-0.4,1.5-0.2,3.2,0.6,4.5l33.4,57.2c0.8,1.4,2.2,2.4,3.7,2.8c1.5,0.4,3.1,0.2,4.5-0.6
					l20.7-12.1C446.8,335.7,447.8,332,446.1,329.2z M422.4,336.1L395,289.3l10.4-6.1l27.4,46.8L422.4,336.1z"/>
			</g>
			<path class="st0" d="M48.3,243.6L48.3,243.6c-3.3,0-6-2.7-6-6v0c0-3.3,2.7-6,6-6h0c3.3,0,6,2.7,6,6v0
				C54.3,240.9,51.6,243.6,48.3,243.6z"/>
			<path class="st0" d="M448.2,43.4c-3.2,0.8-6.5-1.2-7.3-4.4l-4.2-17l-34.2,56.4c0.1-0.2,0.2-0.5,0.3-0.7c-0.1,0.2-0.2,0.4-0.3,0.6
				c0,0,0,0,0,0c-1,2-3,3.3-5.3,3.3h0c-2.4,0-4.4-1.3-5.4-3.3c-0.4-0.8-0.6-1.7-0.6-2.6v-0.1c0-0.4,0-0.8,0.1-1.2
				c0-0.2,0.1-0.4,0.1-0.6c0.1-0.3,0.2-0.7,0.4-1l0.4-0.7l34.2-56.4l-17,4.2c-3.2,0.8-6.5-1.2-7.3-4.4c-0.8-3.2,1.2-6.5,4.4-7.3
				l31.1-7.6c3.2-0.8,6.5,1.2,7.3,4.4l7.6,31.1C453.4,39.3,451.4,42.6,448.2,43.4z"/>
			<path class="st0" d="M389.9,95.1L389.9,95.1c0,3.4-2.7,6.1-6,6.1h-0.1c-3.3,0-6-2.7-6-6v-0.1c0-0.8,0.2-1.6,0.5-2.3c0,0,0,0,0,0
				c0.2-0.6,0.5-1.1,0.9-1.5c1.1-1.3,2.8-2.1,4.6-2.1h0.1C387.2,89.1,389.9,91.8,389.9,95.1z"/>
		</g>
	</g>
</g>
</svg>
