<svg xmlns="http://www.w3.org/2000/svg" width="72.22" height="55.883" viewBox="0 0 72.22 55.883"><g transform="translate(-0.4 -0.4)"><path d="M272.416.5Z" transform="translate(-228.571 -0.084)" fill="#cbcbcb"/><path d="M224.4,231.6" transform="translate(-188.235 -194.285)" fill="#cbcbcb"/><path d="M370.4,98.7" transform="translate(-310.923 -82.605)" fill="#cbcbcb"/><path d="M375.032,119.2l-.032.048c0-.016.016-.032.032-.048Z" transform="translate(-314.789 -99.832)" fill="#cbcbcb"/><path d="M333.707,139.933A11.2,11.2,0,0,1,322.5,151.142a11.013,11.013,0,0,1-1.8-.144h0c-.064-.016-.128-.016-.192-.032h0a.944.944,0,0,1-.575-.447c0-.016-.016-.016-.016-.032a.977.977,0,0,1-.112-.383v-.064h0v-.032c0-.064.016-.128.016-.176a.96.96,0,0,1,.942-.75h0a.6.6,0,0,1,.16.016h.016c.032,0,.048,0,.064.016h-.016a9.608,9.608,0,0,0,1.533.128,9.285,9.285,0,0,0,7.281-15.057h0c-.016-.016-.032-.048-.048-.064,0-.016-.016-.016-.016-.032a.977.977,0,0,1-.112-.383v-.064h0v-.016c0-.064.016-.128.016-.176a.96.96,0,0,1,.942-.75h.112a.944.944,0,0,1,.607.319.348.348,0,0,1,.064.08h0A11.025,11.025,0,0,1,333.707,139.933Z" transform="translate(-268.402 -111.176)" fill="#cbcbcb"/><path d="M326.948,235.416h.016c-.016,0-.048-.016-.064-.016A.079.079,0,0,1,326.948,235.416Z" transform="translate(-274.369 -197.478)" fill="#cbcbcb"/><path d="M279.545,108.906a.947.947,0,0,1-.958.942h-.016a.312.312,0,0,1-.112-.016c-.239-.016-.495-.032-.75-.032a9.3,9.3,0,0,0-9.293,9.293v.383a.947.947,0,0,1-.958.942h0a.973.973,0,0,1-.83-.479c0-.016-.016-.016-.016-.032a.977.977,0,0,1-.112-.383v-.064h0v-.351A11.2,11.2,0,0,1,277.709,107.9c.3,0,.607.016.91.032h.064a.93.93,0,0,1,.83.846C279.529,108.81,279.529,108.858,279.545,108.906Z" transform="translate(-223.613 -90.336)" fill="#cbcbcb"/><path d="M326.948,235.416h.016c-.016,0-.048-.016-.064-.016A.079.079,0,0,1,326.948,235.416Z" transform="translate(-274.369 -197.478)" fill="#cbcbcb"/><path d="M391.864,134.58c-.016-.032-.048-.048-.064-.08l.016.016A.22.22,0,0,1,391.864,134.58Z" transform="translate(-328.906 -112.689)" fill="#cbcbcb"/><path d="M324.292,247.132a.8.8,0,0,1-.192-.032A1.18,1.18,0,0,0,324.292,247.132Z" transform="translate(-272.016 -207.31)" fill="#cbcbcb"/><path d="M235.881,165.6c0,.064-.016.128-.016.176A.332.332,0,0,1,235.881,165.6Z" transform="translate(-197.864 -138.823)" fill="#cbcbcb"/><path d="M235.8,166.9Z" transform="translate(-197.814 -139.915)" fill="#cbcbcb"/><path d="M249.2,229.5Z" transform="translate(-209.075 -192.52)" fill="#cbcbcb"/><path d="M216.9,243.416c.032,0,.064-.016.1-.016-.016,0-.032.016-.048.016Q216.9,243.392,216.9,243.416Z" transform="translate(-181.932 -204.201)" fill="#cbcbcb"/><g transform="translate(0.4 0.4)"><path d="M46.272,54.519H37.235V47.19h9.037a.958.958,0,0,0,0-1.916H2.683a.371.371,0,0,1-.367-.367V2.866A.371.371,0,0,1,2.683,2.5H43.845V2.483a.943.943,0,0,0,.655-.271.956.956,0,0,0,.287-.671A.956.956,0,0,0,44.5.87.973.973,0,0,0,43.845.6H2.683A2.259,2.259,0,0,0,.4,2.866V44.923a2.283,2.283,0,0,0,2.283,2.283H23.616v7.329H14.562a.958.958,0,0,0,0,1.916H46.256a.961.961,0,0,0,.958-.958A.941.941,0,0,0,46.272,54.519Zm-10.953,0h-9.8V47.19h9.8Z" transform="translate(-0.4 -0.567)" fill="#cbcbcb"/><path d="M295.258,2.316h0a.961.961,0,0,1-.958-.958h0A.961.961,0,0,1,295.258.4h0a.961.961,0,0,1,.958.958h0A.951.951,0,0,1,295.258,2.316Z" transform="translate(-247.374 -0.4)" fill="#cbcbcb"/><path d="M331.19,2.783V9.665a.958.958,0,0,1-1.916,0V2.783a.371.371,0,0,0-.367-.367h-5.365a.948.948,0,0,1-.655-1.629A1,1,0,0,1,323.558.5h5.365A2.279,2.279,0,0,1,331.19,2.783Z" transform="translate(-271.155 -0.484)" fill="#cbcbcb"/><g transform="translate(6.706 9.085)"><path d="M135.658,81.937h3.465a.961.961,0,0,0,.958-.958V58.258a.961.961,0,0,0-.958-.958h-3.465a.961.961,0,0,0-.958.958V80.979a.961.961,0,0,0,.958.958Zm.958-22.721h1.549v20.8h-1.549Zm0,0" transform="translate(-119.963 -57.3)" fill="#cbcbcb"/><path d="M181.858,153.029h3.465a.961.961,0,0,0,.958-.958v-9.213a.961.961,0,0,0-.958-.958h-3.465a.961.961,0,0,0-.958.958v9.213a.951.951,0,0,0,.958.958Zm.958-9.213h1.549v7.3h-1.549Zm0,0" transform="translate(-158.786 -128.392)" fill="#cbcbcb"/><path d="M89.458,109.5h3.465a.961.961,0,0,0,.958-.958V91.058a.961.961,0,0,0-.958-.958H89.458a.961.961,0,0,0-.958.958v17.468a.964.964,0,0,0,.958.974Zm.958-17.484h1.549v15.552H90.416Zm0,0" transform="translate(-81.139 -84.863)" fill="#cbcbcb"/><path d="M43.358,137.735h3.449a.961.961,0,0,0,.958-.958V124.658a.961.961,0,0,0-.958-.958H43.358a.961.961,0,0,0-.958.958v12.119a.951.951,0,0,0,.958.958Zm.958-12.119h1.533v10.2H44.3v-10.2Zm0,0" transform="translate(-42.4 -113.098)" fill="#cbcbcb"/></g><g transform="translate(6.69 0.004)"><path d="M114.052,111.24h0a.975.975,0,0,1-.128.479c-.016.016-.032.048-.048.064a.016.016,0,0,1,.016-.016L102.876,129.9a.957.957,0,0,1-1.309.319l-8.558-5.189-3.72,6.067a.964.964,0,0,1-.367.351c-.032.016-.048.032-.08.048s-.064.016-.08.032a.2.2,0,0,1-.1.016h-.016a.144.144,0,0,0-.08.016H65.258a.958.958,0,1,1,0-1.916H87.931l3.944-6.435a.957.957,0,0,1,1.309-.319l8.558,5.189L112.2,110.873h0a.6.6,0,0,1,.144-.24.968.968,0,0,1,.734-.335h.016A.937.937,0,0,1,114.052,111.24Z" transform="translate(-60.787 -92.754)" fill="#cbcbcb"/><g transform="translate(30.896 12.179)"><path d="M255.886,77.929a.982.982,0,0,1-.958.974.655.655,0,0,1-.176-.016h0a13.953,13.953,0,0,0-2.842-.287A14.313,14.313,0,0,0,237.7,91.294h0a.959.959,0,0,1-.942.782h0a.961.961,0,0,1-.958-.958h0V91.1c0-.064.016-.128.016-.176A16.211,16.211,0,0,1,251.91,76.7a17.079,17.079,0,0,1,3.145.3c.032,0,.064.016.1.016a.967.967,0,0,1,.447.255A.892.892,0,0,1,255.886,77.929Z" transform="translate(-235.8 -76.7)" fill="#cbcbcb"/><path d="M279.8,142.982l-5.333-9.133a.933.933,0,0,0-.591-.447.978.978,0,0,0-.734.1l-.83.479-.974-1.661a16.225,16.225,0,0,0,2.986-24.365.982.982,0,0,0-.734-.351h0a.961.961,0,0,0-.958.958h0a1.014,1.014,0,0,0,.271.671h0a14.285,14.285,0,1,1-22.912,16.8h0c-.032-.048-.064-.08-.1-.128a.982.982,0,0,0-.734-.351h0a.96.96,0,0,0-.942.75.716.716,0,0,0-.016.176v.032h0a1.028,1.028,0,0,0,.112.447c0,.016.016.016.016.032.016.016.016.032.032.048h0a16.222,16.222,0,0,0,21.347,6.211l.974,1.645-.83.479a.963.963,0,0,0-.351,1.309l5.333,9.133a.976.976,0,0,0,.591.447.948.948,0,0,0,.718-.1l3.305-1.932A.868.868,0,0,0,279.8,142.982Zm-3.784,1.1-4.375-7.472,1.661-.974,4.375,7.472Z" transform="translate(-246.22 -102.666)" fill="#cbcbcb"/></g><path d="M43.258,233.516h0a.961.961,0,0,1-.958-.958h0a.961.961,0,0,1,.958-.958h0a.961.961,0,0,1,.958.958h0A.961.961,0,0,1,43.258,233.516Z" transform="translate(-42.3 -194.689)" fill="#cbcbcb"/><path d="M400.3,7.286a.969.969,0,0,1-1.166-.7l-.671-2.714L393,12.874c.016-.032.032-.08.048-.112l-.048.1h0a.941.941,0,0,1-.846.527h0a.947.947,0,0,1-.862-.527.931.931,0,0,1-.1-.415v-.016a.776.776,0,0,1,.016-.192c0-.032.016-.064.016-.1a.669.669,0,0,1,.064-.16l.064-.112,5.461-9.005-2.714.671a.962.962,0,1,1-.463-1.868L398.609.452a.969.969,0,0,1,1.166.7l1.214,4.966A.946.946,0,0,1,400.3,7.286Z" transform="translate(-335.492 -0.424)" fill="#cbcbcb"/><path d="M379.732,90.14h0a.964.964,0,0,1-.958.974h-.016a.961.961,0,0,1-.958-.958V90.14a.947.947,0,0,1,.08-.367h0a.6.6,0,0,1,.144-.239.968.968,0,0,1,.734-.335h.016A.937.937,0,0,1,379.732,90.14Z" transform="translate(-324.232 -75.023)" fill="#cbcbcb"/></g></g></g></svg>