<svg xmlns="http://www.w3.org/2000/svg" viewBox="0 0 71.959 55.61"><path d="M235.907,91a.943.943,0,0,0,.079.365.943.943,0,0,0,1.748,0,.942.942,0,0,0,.079-.365V87.536h1.907V85.629h-1.907V83.723h1.907V81.8h-2.86a.956.956,0,0,0-.953.953v2.876H234v1.907h1.907Z" transform="translate(-196.853 -68.883)" fill="#926cdc"/><path d="M200.576,74.923h11.472a2.875,2.875,0,0,0,2.876-2.876V60.56a2.872,2.872,0,0,0-2.876-2.86H200.576a2.875,2.875,0,0,0-2.876,2.876V72.047A2.875,2.875,0,0,0,200.576,74.923Zm-.953-7.69h1.494V65.358h-1.494v-4.8a.956.956,0,0,1,.953-.953h11.472a.956.956,0,0,1,.953.953v4.8h-1.494v1.875H213v4.8a.956.956,0,0,1-.953.953H200.576a.956.956,0,0,1-.953-.953Z" transform="translate(-166.32 -48.612)" fill="#926cdc"/><path d="M324.066,147.466a5.571,5.571,0,0,0,.985,3.178l-.715.731a.978.978,0,0,0-.207,1.049.959.959,0,0,0,.89.588h4.639a3.623,3.623,0,0,0,3.575-3.209l1.065-1.08a.968.968,0,0,0-.1-1.462l-1-.747a2.605,2.605,0,0,0-5.164.477,5.381,5.381,0,0,1-2.145-.874l-.334-.222a.953.953,0,0,0-.985-.048.94.94,0,0,0-.508.842Zm4.941,1.525a.956.956,0,0,0,.953-.953v-1a.7.7,0,1,1,1.4,0,.948.948,0,0,0,.381.763l.461.35-.572.556a.937.937,0,0,0-.27.667,1.7,1.7,0,0,1-1.684,1.716h-2.447a.955.955,0,0,0-.191-1.049,3.573,3.573,0,0,1-.922-1.637A7.465,7.465,0,0,0,329.007,148.992Z" transform="translate(-272.603 -121.536)" fill="#926cdc"/><path d="M359.047.5H347.576A2.875,2.875,0,0,0,344.7,3.376V14.847a2.875,2.875,0,0,0,2.876,2.876h11.472a2.875,2.875,0,0,0,2.876-2.876V3.36A2.872,2.872,0,0,0,359.047.5ZM346.591,3.837h.032V3.376a.956.956,0,0,1,.953-.953h11.472a.956.956,0,0,1,.953.953V8.142h-2a4.783,4.783,0,0,0-9.374,0h-2.034Zm9.6,5.259a2.876,2.876,0,1,1-2.876-2.86A2.875,2.875,0,0,1,356.187,9.1Zm3.829,5.752a.956.956,0,0,1-.953.953H347.592a.956.956,0,0,1-.953-.953v-.54h-.048V10.049h2.034a4.783,4.783,0,0,0,9.374,0h2l.016,4.258Z" transform="translate(-289.964 -0.5)" fill="#926cdc"/><ellipse cx="0.953" cy="0.953" rx="0.953" ry="0.953" transform="translate(64.778 20.163)" fill="#cbcbcb"/><ellipse cx="0.953" cy="0.953" rx="0.953" ry="0.953" transform="translate(37.036 53.671)" fill="#cbcbcb"/><ellipse cx="0.953" cy="0.953" rx="0.953" ry="0.953" transform="translate(34.113 28.663)" fill="#cbcbcb"/><path d="M34.265,44.972H2.456a.37.37,0,0,1-.365-.365V2.772a.37.37,0,0,1,.365-.365H46.849a.953.953,0,0,0,0-1.907H2.456A2.268,2.268,0,0,0,.2,2.772v41.85a2.272,2.272,0,0,0,2.272,2.272H23.286v7.293H14.293a.953.953,0,1,0,0,1.907H33.01a.953.953,0,0,0,0-1.907H25.193V46.895h9.072a.961.961,0,0,0,0-1.923Z" transform="translate(-0.2 -0.5)" fill="#cbcbcb"/><path d="M264.939,157.71h-1.907v-7.356a.953.953,0,0,0-1.907,0v7.356h-2.383a3.293,3.293,0,0,0-2.32.937,3.564,3.564,0,0,0-.683.922,3.325,3.325,0,0,0-.334,1.192,1.726,1.726,0,0,0-.016.286,1.048,1.048,0,0,0,.016.222,3.282,3.282,0,0,0,.937,2.1c.016.032.048.048.079.079l-.048.048a3.314,3.314,0,0,0-.969,2.288v.064a3.264,3.264,0,0,0,.508,1.748,3.338,3.338,0,0,0-1.938,2.844v.175a3.266,3.266,0,0,0,.334,1.43h-7.515a7.323,7.323,0,0,0-.111-1.335,8.631,8.631,0,0,0-1.732-3.972,8.441,8.441,0,0,0-1.859-1.748,5.467,5.467,0,0,0,1.1-.556c.032-.016.064-.048.1-.064a5.8,5.8,0,0,0,1.954-2.288c.1-.207.175-.413.254-.62a5.8,5.8,0,0,0,.3-1.827v-.048a1,1,0,0,0-.191-.524.948.948,0,0,0-.763-.381h-7.658v-4.338a.953.953,0,1,0-1.907,0v4.322a2.875,2.875,0,0,0-2.876,2.876V177.4a.957.957,0,0,0,.826.937c.048,0,.079.016.127.016a.956.956,0,0,0,.953-.953V161.539a.956.956,0,0,1,.953-.953h8.484a3.749,3.749,0,0,1-.524,1.176,4.136,4.136,0,0,1-.477.572,3.808,3.808,0,0,1-2.7,1.128h-2.876a.918.918,0,0,0-.763.4.558.558,0,0,0-.079.127,1.023,1.023,0,0,0-.111.445.956.956,0,0,0,.953.953,6.709,6.709,0,0,1,6.578,5.418,6.762,6.762,0,0,1,.127,1.271v.953a.956.956,0,0,0,.953.953h5.593a3.541,3.541,0,0,0-.318,1.08,2.691,2.691,0,0,0-.016.365,3.363,3.363,0,0,0,3.352,3.352V180.4a.956.956,0,0,0,.89.953h.127a.956.956,0,0,0,.89-.953v-1.621h4.306A3.363,3.363,0,0,0,264,175.425a3.184,3.184,0,0,0-.35-1.446,3.354,3.354,0,0,0,3.21-3.337,3.264,3.264,0,0,0-.508-1.748,4.139,4.139,0,0,0,.715-.445,3.313,3.313,0,0,0,1.223-2.574,3.261,3.261,0,0,0-1.017-2.383,3.521,3.521,0,0,0,1.017-2.431A3.353,3.353,0,0,0,264.939,157.71Zm-4.306,19.13h-6.212a1.434,1.434,0,0,1-1.43-1.43,1.739,1.739,0,0,1,.064-.429,1.441,1.441,0,0,1,1.366-1h6.212a1.436,1.436,0,0,1,1.208.667,1.385,1.385,0,0,1,.222.763A1.434,1.434,0,0,1,260.633,176.84Zm2.876-4.782H257.3a1.424,1.424,0,0,1-1.43-1.43c0-.079.016-.175.016-.254A1.435,1.435,0,0,1,257.3,169.2h6.212a1.43,1.43,0,0,1,0,2.86Zm1.43-4.782h-6.212A1.455,1.455,0,0,1,257.3,166a.6.6,0,0,1-.016-.175,1.434,1.434,0,0,1,1.43-1.43h6.212a1.438,1.438,0,0,1,.016,2.876Zm0-4.782h-6.212a1.422,1.422,0,0,1-1.35-.969,1.5,1.5,0,0,1-.079-.477v-.032a1.428,1.428,0,0,1,1.43-1.4h6.212a1.438,1.438,0,0,1,0,2.876Z" transform="translate(-196.348 -125.742)" fill="#926cdc"/><path d="M230.847,28.153a.956.956,0,0,0-.953-.953H214.053a.953.953,0,0,0,0,1.907h15.841A.956.956,0,0,0,230.847,28.153Z" transform="translate(-179.273 -22.958)" fill="#cbcbcb"/><ellipse cx="0.953" cy="0.953" rx="0.953" ry="0.953" transform="translate(14.204 38.689)" fill="#cbcbcb"/><ellipse cx="0.953" cy="0.953" rx="0.953" ry="0.953" transform="translate(30.141 4.242)" fill="#cbcbcb"/><ellipse cx="0.953" cy="0.953" rx="0.953" ry="0.953" transform="translate(49.668 0)" fill="#cbcbcb"/><path d="M36.453,187.207H50.864a.953.953,0,0,0,0-1.907H36.453a.953.953,0,0,0,0,1.907Z" transform="translate(-29.891 -155.938)" fill="#cbcbcb"/><path d="M55.885,159.8H36.453a.953.953,0,0,0,0,1.907H55.885a.953.953,0,0,0,0-1.907Z" transform="translate(-29.891 -134.49)" fill="#cbcbcb"/><path d="M56.838,209.453a.956.956,0,0,0-.953-.953H36.453a.953.953,0,1,0,0,1.907H55.885A.956.956,0,0,0,56.838,209.453Z" transform="translate(-29.891 -175.452)" fill="#cbcbcb"/><path d="M36.453,244a.953.953,0,1,0,0,1.907H41.7a.953.953,0,0,0,0-1.907Z" transform="translate(-29.891 -205.311)" fill="#cbcbcb"/><path d="M55.885,134.3H36.453a.953.953,0,0,0,0,1.907H55.885a.953.953,0,0,0,0-1.907Z" transform="translate(-29.891 -113.041)" fill="#cbcbcb"/><path d="M120.037,39.107h.079a.958.958,0,0,0,.048-1.907h-.222a.958.958,0,0,0,.048,1.907Z" transform="translate(-100.209 -31.369)" fill="#cbcbcb"/><path d="M56.838,38.153a.956.956,0,0,0-.953-.953H52.739a.941.941,0,0,0-.842.906v.016a.958.958,0,0,0,.842,1h2.209v9.327l-7.865-6.4a.944.944,0,0,0-1.223-.1c-.048.032-.079.064-.127.1a.279.279,0,0,0-.064.079l-.016.016c-.016.016-.683.651-1.239,1.176-.191-.191-.413-.381-.572-.54-.572-.54-1.319-1.239-1.6-1.525A.748.748,0,0,0,42,41.045a.961.961,0,0,0-1.255.222L37.423,44.4V39.107h9.263a.958.958,0,0,0,.048-1.907H36.453a.956.956,0,0,0-.953.953v11.3a.956.956,0,0,0,.953.953H55.885a.956.956,0,0,0,.953-.953ZM37.407,48.5V46.94a1.292,1.292,0,0,0,.286-.3l3.829-3.591,2.145,2.066a.791.791,0,0,0,.27.238.983.983,0,0,0,1,.016,7.62,7.62,0,0,0,.6-.572l.906-.842L52.008,48.5Z" transform="translate(-29.891 -31.369)" fill="#cbcbcb"/></svg>