<svg xmlns="http://www.w3.org/2000/svg" width="72.159" height="55.765" viewBox="0 0 72.159 55.765"><g transform="translate(-0.2 -0.5)"><path d="M235.912,91.025a.945.945,0,0,0,.08.366.946.946,0,0,0,1.753,0,.945.945,0,0,0,.08-.366V87.552h1.912V85.64h-1.912V83.728h1.912V81.8h-2.868a.959.959,0,0,0-.956.956V85.64H234v1.912h1.912Z" transform="translate(-196.549 -68.347)" fill="#cbcbcb"/><path d="M200.584,74.971h11.5a2.883,2.883,0,0,0,2.884-2.884V60.568a2.88,2.88,0,0,0-2.884-2.868h-11.5a2.883,2.883,0,0,0-2.884,2.884v11.5A2.883,2.883,0,0,0,200.584,74.971Zm-.956-7.711h1.5V65.38h-1.5V60.568a.959.959,0,0,1,.956-.956h11.5a.959.959,0,0,1,.956.956V65.38h-1.5v1.88h1.5v4.812a.959.959,0,0,1-.956.956h-11.5a.959.959,0,0,1-.956-.956Z" transform="translate(-166.033 -48.086)" fill="#cbcbcb"/><path d="M324.066,147.475a5.587,5.587,0,0,0,.988,3.187l-.717.733a.981.981,0,0,0-.207,1.052.961.961,0,0,0,.892.59h4.652a3.633,3.633,0,0,0,3.585-3.218l1.068-1.083a.971.971,0,0,0-.1-1.466l-1-.749a2.613,2.613,0,0,0-5.178.478,5.4,5.4,0,0,1-2.151-.876l-.335-.223a.956.956,0,0,0-.988-.048.942.942,0,0,0-.51.844Zm4.955,1.53a.959.959,0,0,0,.956-.956v-1a.7.7,0,1,1,1.4,0,.951.951,0,0,0,.382.765l.462.351-.574.558a.939.939,0,0,0-.271.669,1.707,1.707,0,0,1-1.689,1.721h-2.454a.957.957,0,0,0-.191-1.052,3.583,3.583,0,0,1-.924-1.641A7.486,7.486,0,0,0,329.021,149Z" transform="translate(-272.259 -120.973)" fill="#cbcbcb"/><path d="M359.087.5h-11.5A2.883,2.883,0,0,0,344.7,3.384v11.5a2.883,2.883,0,0,0,2.884,2.884h11.5a2.883,2.883,0,0,0,2.884-2.884V3.368A2.88,2.88,0,0,0,359.087.5ZM346.6,3.846h.032V3.384a.959.959,0,0,1,.956-.956h11.5a.959.959,0,0,1,.956.956v4.78h-2.008a4.8,4.8,0,0,0-9.4,0H346.6Zm9.623,5.274a2.884,2.884,0,1,1-2.884-2.868A2.883,2.883,0,0,1,356.219,9.12Zm3.84,5.768a.959.959,0,0,1-.956.956H347.6a.959.959,0,0,1-.956-.956v-.542H346.6v-4.27h2.039a4.8,4.8,0,0,0,9.4,0h2.008l.016,4.27Z" transform="translate(-289.612 0)" fill="#cbcbcb"/><circle cx="0.956" cy="0.956" r="0.956" transform="translate(65.158 20.719)" fill="#cbcbcb"/><circle cx="0.956" cy="0.956" r="0.956" transform="translate(37.339 54.321)" fill="#cbcbcb"/><circle cx="0.956" cy="0.956" r="0.956" transform="translate(34.408 29.243)" fill="#cbcbcb"/><path d="M34.36,45.1H2.462a.371.371,0,0,1-.366-.366V2.778a.371.371,0,0,1,.366-.366H46.979a.956.956,0,1,0,0-1.912H2.462A2.275,2.275,0,0,0,.2,2.778V44.745a2.278,2.278,0,0,0,2.278,2.278H23.35v7.313H14.332a.956.956,0,1,0,0,1.912H33.1a.956.956,0,0,0,0-1.912H25.262V47.024h9.1a.964.964,0,0,0,0-1.928Z" transform="translate(0 0)" fill="#cbcbcb"/><path d="M265.026,157.733h-1.912v-7.377a.956.956,0,1,0-1.912,0v7.377h-2.39a3.3,3.3,0,0,0-2.326.94,3.573,3.573,0,0,0-.685.924,3.334,3.334,0,0,0-.335,1.195,1.732,1.732,0,0,0-.016.287,1.052,1.052,0,0,0,.016.223,3.291,3.291,0,0,0,.94,2.1c.016.032.048.048.08.08l-.048.048a3.323,3.323,0,0,0-.972,2.294v.064a3.273,3.273,0,0,0,.51,1.753,3.347,3.347,0,0,0-1.944,2.852v.175a3.274,3.274,0,0,0,.335,1.434h-7.536a7.344,7.344,0,0,0-.112-1.338,8.656,8.656,0,0,0-1.737-3.983,8.462,8.462,0,0,0-1.864-1.753,5.483,5.483,0,0,0,1.1-.558c.032-.016.064-.048.1-.064a5.82,5.82,0,0,0,1.96-2.294c.1-.207.175-.414.255-.621a5.813,5.813,0,0,0,.3-1.832v-.048a1,1,0,0,0-.191-.526.951.951,0,0,0-.765-.382H238.2v-4.35a.956.956,0,0,0-1.912,0v4.334a2.883,2.883,0,0,0-2.884,2.884v15.9a.96.96,0,0,0,.829.94c.048,0,.08.016.127.016a.959.959,0,0,0,.956-.956v-15.9a.959.959,0,0,1,.956-.956h8.508a3.759,3.759,0,0,1-.526,1.179,4.147,4.147,0,0,1-.478.574,3.819,3.819,0,0,1-2.709,1.131H238.18a.921.921,0,0,0-.765.4.559.559,0,0,0-.08.127,1.026,1.026,0,0,0-.112.446.959.959,0,0,0,.956.956,6.728,6.728,0,0,1,6.6,5.433,6.781,6.781,0,0,1,.127,1.275v.956a.959.959,0,0,0,.956.956h5.608a3.55,3.55,0,0,0-.319,1.083,2.7,2.7,0,0,0-.016.366,3.373,3.373,0,0,0,3.362,3.362v1.625a.958.958,0,0,0,.892.956h.127a.958.958,0,0,0,.892-.956V178.86h4.318a3.373,3.373,0,0,0,3.362-3.362,3.193,3.193,0,0,0-.351-1.45,3.363,3.363,0,0,0,3.218-3.346,3.273,3.273,0,0,0-.51-1.753,4.15,4.15,0,0,0,.717-.446,3.322,3.322,0,0,0,1.227-2.581,3.27,3.27,0,0,0-1.02-2.39,3.531,3.531,0,0,0,1.02-2.438A3.362,3.362,0,0,0,265.026,157.733Zm-4.318,19.183h-6.23a1.438,1.438,0,0,1-1.434-1.434,1.744,1.744,0,0,1,.064-.43,1.445,1.445,0,0,1,1.37-1h6.23a1.44,1.44,0,0,1,1.211.669,1.389,1.389,0,0,1,.223.765A1.438,1.438,0,0,1,260.709,176.916Zm2.884-4.8h-6.23a1.428,1.428,0,0,1-1.434-1.434c0-.08.016-.175.016-.255a1.439,1.439,0,0,1,1.418-1.179h6.23a1.434,1.434,0,0,1,0,2.868Zm1.434-4.8H258.8a1.459,1.459,0,0,1-1.434-1.275.6.6,0,0,1-.016-.175,1.438,1.438,0,0,1,1.434-1.434h6.23a1.442,1.442,0,0,1,.016,2.884Zm0-4.8H258.8a1.426,1.426,0,0,1-1.354-.972,1.5,1.5,0,0,1-.08-.478v-.032a1.432,1.432,0,0,1,1.434-1.4h6.23a1.442,1.442,0,0,1,0,2.884Z" transform="translate(-196.045 -125.176)" fill="#cbcbcb"/><path d="M230.9,28.156a.959.959,0,0,0-.956-.956H214.056a.956.956,0,1,0,0,1.912h15.885A.959.959,0,0,0,230.9,28.156Z" transform="translate(-178.979 -22.446)" fill="#cbcbcb"/><circle cx="0.956" cy="0.956" r="0.956" transform="translate(14.444 39.296)" fill="#cbcbcb"/><circle cx="0.956" cy="0.956" r="0.956" transform="translate(30.424 4.754)" fill="#cbcbcb"/><circle cx="0.956" cy="0.956" r="0.956" transform="translate(50.006 0.5)" fill="#cbcbcb"/><path d="M36.456,187.212H50.907a.956.956,0,1,0,0-1.912H36.456a.956.956,0,0,0,0,1.912Z" transform="translate(-29.676 -155.356)" fill="#cbcbcb"/><path d="M55.942,159.8H36.456a.956.956,0,1,0,0,1.912H55.942a.956.956,0,1,0,0-1.912Z" transform="translate(-29.676 -133.919)" fill="#cbcbcb"/><path d="M56.9,209.456a.959.959,0,0,0-.956-.956H36.456a.956.956,0,1,0,0,1.912H55.942A.959.959,0,0,0,56.9,209.456Z" transform="translate(-29.676 -174.86)" fill="#cbcbcb"/><path d="M36.456,244a.956.956,0,1,0,0,1.912h5.258a.956.956,0,1,0,0-1.912Z" transform="translate(-29.676 -204.704)" fill="#cbcbcb"/><path d="M55.942,134.3H36.456a.956.956,0,1,0,0,1.912H55.942a.956.956,0,1,0,0-1.912Z" transform="translate(-29.676 -112.482)" fill="#cbcbcb"/><path d="M120.04,39.112h.08a.961.961,0,0,0,.048-1.912h-.223a.961.961,0,0,0,.048,1.912Z" transform="translate(-99.956 -30.853)" fill="#cbcbcb"/><path d="M56.9,38.156a.959.959,0,0,0-.956-.956H52.787a.943.943,0,0,0-.844.908v.016a.961.961,0,0,0,.844,1H55V48.48l-7.887-6.421a.946.946,0,0,0-1.227-.1c-.048.032-.08.064-.127.1a.28.28,0,0,0-.064.08l-.016.016c-.016.016-.685.653-1.243,1.179-.191-.191-.414-.382-.574-.542-.574-.542-1.322-1.243-1.609-1.53a.75.75,0,0,0-.239-.207.963.963,0,0,0-1.259.223l-3.33,3.139V39.112h9.289a.961.961,0,0,0,.048-1.912H36.456a.959.959,0,0,0-.956.956V49.484a.959.959,0,0,0,.956.956H55.942a.959.959,0,0,0,.956-.956ZM37.412,48.528V46.967a1.3,1.3,0,0,0,.287-.3l3.84-3.6,2.151,2.071a.793.793,0,0,0,.271.239.986.986,0,0,0,1,.016,7.642,7.642,0,0,0,.605-.574l.908-.844,5.576,4.557H37.412Z" transform="translate(-29.676 -30.853)" fill="#cbcbcb"/></g></svg>