<svg xmlns="http://www.w3.org/2000/svg" viewBox="0 0 71.403 55.781"><path d="M334.253,1.907h3.877a.37.37,0,0,1,.365.365V6.149a.953.953,0,1,0,1.907,0V2.272A2.272,2.272,0,0,0,338.13,0h-3.877a.956.956,0,0,0-.953.953A.946.946,0,0,0,334.253,1.907Z" transform="translate(-280.645 0.028)" fill="#cbcbcb"/><path d="M36.68,53.846H26.972V46.522h3.019a.953.953,0,1,0,0-1.907H4.172a.37.37,0,0,1-.365-.365V2.272a.36.36,0,0,1,.365-.365H37.459a.962.962,0,0,0,.953-1.08A.98.98,0,0,0,37.427,0H4.172A2.272,2.272,0,0,0,1.9,2.272V44.25a2.272,2.272,0,0,0,2.272,2.272H25.065v7.325H16.041a.953.953,0,0,0-.953.985.982.982,0,0,0,1,.922h20.56a.954.954,0,1,0,.032-1.907Z" transform="translate(-1.9 0.028)" fill="#cbcbcb"/><path d="M48.253,187.007H54.4a.953.953,0,1,0,0-1.907H48.253a.956.956,0,0,0-.953.953A.946.946,0,0,0,48.253,187.007Z" transform="translate(-40.087 -155.663)" fill="#cbcbcb"/><path d="M48.253,161.507H58.629a.953.953,0,1,0,0-1.907H48.253a.956.956,0,0,0-.953.953A.946.946,0,0,0,48.253,161.507Z" transform="translate(-40.087 -134.214)" fill="#cbcbcb"/><path d="M61.52,209.253a.956.956,0,0,0-.953-.953H48.253a.953.953,0,1,0,0,1.907H60.583A.953.953,0,0,0,61.52,209.253Z" transform="translate(-40.087 -175.176)" fill="#cbcbcb"/><path d="M48.253,243.8a.953.953,0,1,0,0,1.907H53.5a.953.953,0,1,0,0-1.907Z" transform="translate(-40.087 -205.036)" fill="#cbcbcb"/><path d="M48.253,136.007H58.629a.953.953,0,1,0,0-1.907H48.253a.956.956,0,0,0-.953.953A.946.946,0,0,0,48.253,136.007Z" transform="translate(-40.087 -112.766)" fill="#cbcbcb"/><ellipse cx="0.953" cy="0.953" rx="0.953" ry="0.953" transform="translate(15.237 38.764)" fill="#cbcbcb"/><ellipse cx="0.953" cy="0.953" rx="0.953" ry="0.953" transform="translate(18.335 38.764)" fill="#cbcbcb"/><path d="M118.487,77.237a1.013,1.013,0,0,0,.222-.127h0c.143-.079.286-.159.413-.238.048-.588.1-1.112.143-1.589.032-.238.048-.477.079-.683-.524.318-1.08.636-1.525.906a.72.72,0,0,0-.3.175l-.048.048a.91.91,0,0,0-.27.667.929.929,0,0,0,.937.937A2.246,2.246,0,0,0,118.487,77.237Z" transform="translate(-98.881 -62.719)" fill="#cbcbcb"/><ellipse cx="0.953" cy="0.953" rx="0.953" ry="0.953" transform="translate(38.482 0.028)" fill="#cbcbcb"/><path d="M51.924,38.907h.064a.9.9,0,0,0,.667-.286.959.959,0,0,0,0-1.366A.937.937,0,0,0,51.987,37H48.253a.956.956,0,0,0-.953.953v11.3a.956.956,0,0,0,.953.953H58.74a.977.977,0,0,0,.953-.953.923.923,0,0,0-.286-.667.951.951,0,0,0-.667-.286H49.207V46.66c.254-.159-.381.175,3.527-2.1l2.24,2.4a1.194,1.194,0,0,0,.238.254.806.806,0,0,0,.286.143.865.865,0,0,0,.715-.079.954.954,0,0,0,.461-.556.858.858,0,0,0-.079-.715c-.016-.016-.032-.048-.048-.064a1.069,1.069,0,0,0-.222-.238l-2.209-2.352s-.524-.62-.636-.7a.81.81,0,0,0-.493-.175h-.1a.83.83,0,0,0-.334.064c-.1.032-1.176.683-1.176.683l-2.193,1.3V38.907Z" transform="translate(-40.087 -31.094)" fill="#cbcbcb"/><path d="M91.653,38.907a.953.953,0,0,0,0-1.907h0a.953.953,0,0,0,0,1.907Z" transform="translate(-76.591 -31.094)" fill="#cbcbcb"/><path d="M121.012,40.368a.9.9,0,0,0,.667-.286.951.951,0,0,0,.286-.667V37.953a.956.956,0,0,0-.953-.953h-9.342a.961.961,0,0,0-.016,1.923h8.389v.508A.978.978,0,0,0,121.012,40.368Z" transform="translate(-93.413 -31.094)" fill="#cbcbcb"/><path d="M271.97,289.443h0a32.19,32.19,0,0,1-3.638,1.78h0a31.7,31.7,0,0,1-3.607-1.78h0a.986.986,0,0,0-.508-.143,1.017,1.017,0,0,0-.493,1.907,35.859,35.859,0,0,0,4.29,2.081.877.877,0,0,0,.635,0,35.83,35.83,0,0,0,4.29-2.066.332.332,0,0,0,.1-.064,1,1,0,0,0,.445-.842,1.014,1.014,0,0,0-1.017-1.017A.892.892,0,0,0,271.97,289.443Z" transform="translate(-221.683 -243.307)" fill="#926cdc"/><path d="M204.18,69.744a1,1,0,0,0-.1.429,1.014,1.014,0,0,0,1.017,1.017.993.993,0,0,0,.922-.6.016.016,0,0,1,.016-.016,39.221,39.221,0,0,0,2.494-16.413.849.849,0,0,0-.969-.779,23.226,23.226,0,0,1-3.066.222,19,19,0,0,1-15.73-8.357v-.016a.46.46,0,0,0-.763,0A19.077,19.077,0,0,1,172.245,53.6a20.8,20.8,0,0,1-3.066-.222.849.849,0,0,0-.969.779,39.394,39.394,0,0,0,2.463,16.3h0c.016.048.032.079.048.127.016.016.016.032.032.064h0a1.017,1.017,0,0,0,1.907-.493,1.092,1.092,0,0,0-.079-.381v.016c-.381-.985-.731-2-1.033-3.066a38.419,38.419,0,0,1-1.382-11.2s0-.016.016,0c.7.064,1.382.1,2.066.1A20.65,20.65,0,0,0,185.8,50.646a21.8,21.8,0,0,0,2.574-2.59,23.058,23.058,0,0,0,2.574,2.59A20.62,20.62,0,0,0,204.5,55.619c.683,0,1.366-.032,2.066-.1a.016.016,0,0,1,.016.016,38.571,38.571,0,0,1-1.351,11.074A32.861,32.861,0,0,1,204.18,69.744Z" transform="translate(-141.723 -37.843)" fill="#926cdc"/><path d="M285.323,192a1.919,1.919,0,0,0-1.923,1.923,1.881,1.881,0,0,0,1.1,1.716.963.963,0,0,1,.54.969l-.556,4.989h1.7l-.556-4.989a.963.963,0,0,1,.54-.969,1.91,1.91,0,0,0-.842-3.638Z" transform="translate(-238.674 -161.466)" fill="#926cdc"/><path d="M238.5,121.958v-13.68a.956.956,0,0,0-.953-.953h-3.1v-1.478a9.247,9.247,0,1,0-18.494,0v1.478h-3.1a.956.956,0,0,0-.953.953v13.68a3.848,3.848,0,0,0,3.845,3.845h18.939A3.842,3.842,0,0,0,238.5,121.958Zm-20.655-16.111a7.34,7.34,0,0,1,14.681,0v1.478h-1.986v-1.478a5.362,5.362,0,0,0-10.725,0v1.478h-1.986v-1.478Zm10.8,0v1.478h-6.912v-1.478a3.456,3.456,0,0,1,6.912,0Zm-14.856,16.111V109.247h22.784v12.711a1.919,1.919,0,0,1-1.923,1.923H215.713A1.929,1.929,0,0,1,213.791,121.958Z" transform="translate(-178.534 -81.224)" fill="#926cdc"/><path d="M188.621,11.245a.809.809,0,0,0-.922-.683,27.41,27.41,0,0,1-4.29.334A20.759,20.759,0,0,1,164.978.457c-.493-.842-.922-.842-1.414,0a20.731,20.731,0,0,1-18.431,10.423,29.646,29.646,0,0,1-4.29-.334.809.809,0,0,0-.922.683c-.508,3.607-1.923,18.447,6.594,30.792.016.016.032.048.048.064a.967.967,0,0,0,1.748-.572,1.026,1.026,0,0,0-.159-.54h0a36.5,36.5,0,0,1-5.5-12.727,48.549,48.549,0,0,1-.922-15.618,27.936,27.936,0,0,0,3.416.207,22.621,22.621,0,0,0,16.27-6.467,23.921,23.921,0,0,0,2.86-3.416,24.135,24.135,0,0,0,2.876,3.416,22.621,22.621,0,0,0,16.27,6.467,27.935,27.935,0,0,0,3.416-.207,46.266,46.266,0,0,1,.254,4.91c0,.048-.016.1-.016.143v.048a.31.31,0,0,0,.016.127.961.961,0,0,0,.953.826h.048a.956.956,0,0,0,.953-.953v-.064A49.642,49.642,0,0,0,188.621,11.245Z" transform="translate(-117.647 0.175)" fill="#926cdc"/><path d="M439.285,128h-.048a.943.943,0,0,0-.937.81v.318a.961.961,0,0,0,.953.826h.048a.956.956,0,0,0,.953-.953v-.064A.967.967,0,0,0,439.285,128Z" transform="translate(-368.962 -107.635)" fill="#926cdc"/><path d="M257.023,151.4h-.048a.96.96,0,0,0-.906.651c-.016.048-.032.111-.048.159v.111c-.159,1.112-.381,2.256-.651,3.416a34.683,34.683,0,0,1-21.64,25.295A38.113,38.113,0,0,1,223.7,175.09l-.048-.048h0a.944.944,0,0,0-.588-.207.963.963,0,0,0-.969.969.887.887,0,0,0,.159.524c.016.016.032.048.048.064a1.027,1.027,0,0,0,.127.143h.016l.016.016v.016c.016.016.048.032.064.048a.016.016,0,0,1-.016-.016l.048.048A40.288,40.288,0,0,0,233.46,183a.794.794,0,0,0,.6,0c16.826-6.721,22.323-19.972,23.9-30.379a.8.8,0,0,0,.032-.191v-.1A.978.978,0,0,0,257.023,151.4Z" transform="translate(-187.113 -127.317)" fill="#926cdc"/><ellipse cx="0.953" cy="0.953" rx="0.953" ry="0.953" transform="translate(31.92 44.643)" fill="#926cdc"/></svg>