<svg xmlns="http://www.w3.org/2000/svg" width="62.248" height="68.688" viewBox="0 0 62.248 68.688"><path d="M-4965.653,2478.3a3.721,3.721,0,0,0-2.755-1.09,1.042,1.042,0,0,1-.042-.231c.072-1,.148-2,.222-3,.01-.133.015-.268.022-.4.1-1.87.2-3.741.307-5.61.079-1.4.172-2.8.259-4.2.046-.734.089-1.469.137-2.2.006-.1.037-.207.067-.38l.193-2.548c0-.664-.009-1.268,0-1.871a3.037,3.037,0,0,0-1.992-2.756,4.216,4.216,0,0,0-1.519-.184h-29.563q-6.068,0-12.138,0a9.1,9.1,0,0,0-.938.032,2.916,2.916,0,0,0-2.047,1.125,3.1,3.1,0,0,0-.667,2.121c.016.51,0,1.023,0,1.563l.183,2.5a2.716,2.716,0,0,1,.082.338c.059,1.047.108,2.094.172,3.141.07,1.135.159,2.268.234,3.4q.081,1.2.146,2.4c.061,1.113.1,2.228.169,3.341.06.957.148,1.911.218,2.867.012.173,0,.348,0,.543-.315.044-.6.093-.88.122a2.927,2.927,0,0,0-2.6,3.337c.021.155.025.312.04.495a2.447,2.447,0,0,0,1.8,2.083h49.707a2.447,2.447,0,0,0,1.8-2.021h0c0-.007,0-.015,0-.021a.012.012,0,0,1,0-.007A3.285,3.285,0,0,0-4965.653,2478.3Zm-1.9,2.814a1.744,1.744,0,0,1-.452.106,4.234,4.234,0,0,1-.469,0h-46.411a4.085,4.085,0,0,1-.6-.016.951.951,0,0,1-.873-1,.874.874,0,0,1,.979-.871c1.787-.012,3.576,0,5.364-.011a2.915,2.915,0,0,0,.852-.121.89.89,0,0,0,.612-.935.9.9,0,0,0-.649-.913,3.008,3.008,0,0,0-.789-.11c-.738-.015-1.476-.005-2.214-.005h-.6c-.056-.65-.123-1.245-.16-1.841-.065-1.047-.1-2.1-.168-3.142-.066-1.068-.154-2.136-.227-3.2q-.081-1.169-.144-2.339c-.061-1.093-.1-2.186-.17-3.277-.063-1.024-.158-2.046-.221-3.069-.069-1.114-.137-2.228-.168-3.344a1.043,1.043,0,0,1,1.151-1.168c.179-.005.357,0,.536,0h41.449a7.044,7.044,0,0,1,.736.013,1.015,1.015,0,0,1,.934.972,10.186,10.186,0,0,1-.022,1.138q-.115,1.938-.245,3.874c-.12,1.781-.247,3.561-.368,5.34q-.076,1.135-.14,2.271c-.056,1.047-.1,2.1-.161,3.143-.092,1.512-.2,3.023-.305,4.611-.233.007-.471.02-.706.02h-13.145q-9.926,0-19.852,0a4.313,4.313,0,0,0-.992.106.862.862,0,0,0-.688.875.914.914,0,0,0,.63.989,2.52,2.52,0,0,0,.586.112c.177.017.358,0,.536,0h35.613c.223,0,.448-.01.67.007a.878.878,0,0,1,.876.766A.9.9,0,0,1-4967.556,2481.111Z" transform="translate(5022.795 -2414.544)" fill="#cbcbcb"/><path d="M-5049,2510.611a1.468,1.468,0,0,0,1.145,1.761,2.51,2.51,0,0,0,1.246-.034,2.45,2.45,0,0,0,1.806,2.084h-3.567a4.283,4.283,0,0,0-.448-.233,3.485,3.485,0,0,1-2.191-3.936c.373-2.3.782-4.6,1.182-6.9.343-1.972.684-3.945,1.044-5.913a21.356,21.356,0,0,1,.526-2.407,9.3,9.3,0,0,1,3.6-4.939c.107-.077.2-.168.292-.239l.183,2.5a7.667,7.667,0,0,0-2.443,4.53c-.249,1.378-.46,2.763-.7,4.144-.247,1.422-.515,2.843-.762,4.266C-5048.4,2507.059-5048.687,2508.836-5049,2510.611Z" transform="translate(5051.06 -2445.734)" fill="#926cdc"/><path d="M-4634.85,2514.088c-.05.012-.086.082-.13.125h-3.6a2.448,2.448,0,0,0,1.8-2.022,9.947,9.947,0,0,0,1.154-.008,1.44,1.44,0,0,0,1.265-1.721c-.345-2.038-.68-4.076-1.028-6.114q-.656-3.845-1.327-7.686a8.292,8.292,0,0,0-1.672-3.738,3.393,3.393,0,0,0-.8-.768l.193-2.548c.316.263.676.556,1.03.859a9.312,9.312,0,0,1,3.094,5.117c.288,1.255.471,2.535.689,3.806.2,1.14.374,2.282.57,3.422.2,1.184.427,2.364.629,3.548.2,1.161.311,2.343.586,3.485A3.541,3.541,0,0,1-4634.85,2514.088Z" transform="translate(4694.548 -2445.526)" fill="#926cdc"/><path d="M-4918,2178.833a3.428,3.428,0,0,0-1.5-2.844c-.16-.117-.328-.222-.517-.349,0-.695.01-1.385-.007-2.076a1.944,1.944,0,0,0-.132-.714.964.964,0,0,0-1.6-.313,1.208,1.208,0,0,0-.288.992q.015,2.716.024,5.432c0,.2,0,.392,0,.629-.182.01-.312.027-.44.02-.757-.039-1.515-.063-2.269-.133-.887-.082-1.779-.156-2.65-.324a25.711,25.711,0,0,1-5.606-1.7,18.553,18.553,0,0,1-6.587-4.712c-.2-.235-.383-.495-.6-.722a1.322,1.322,0,0,0-2.246.4,3.52,3.52,0,0,0-.123.379c-.126.426-.227.862-.384,1.276a6.744,6.744,0,0,1-1.726,2.665,5.977,5.977,0,0,1-3.087,1.485,4.21,4.21,0,0,1-2.454-.17c0-1.155,0-2.292,0-3.43a11.181,11.181,0,0,1,.245-2.457,10.439,10.439,0,0,1,5.6-7.348,10.7,10.7,0,0,1,5.025-1.176c1.968-.01,3.937.005,5.9-.005a14.671,14.671,0,0,1,2.991.277,9.862,9.862,0,0,1,3.391,1.358,10.637,10.637,0,0,1,3.552,3.668,2.277,2.277,0,0,0,.436.589,1.272,1.272,0,0,0,.583.272.9.9,0,0,0,.925-.419.976.976,0,0,0,.012-1.132,13.232,13.232,0,0,0-3.906-4.344,12.5,12.5,0,0,0-7.146-2.267c-2.458-.022-4.918-.012-7.377.007a9.888,9.888,0,0,0-1.794.166,12.511,12.511,0,0,0-6.61,3.415,12.37,12.37,0,0,0-3.829,8.84c-.011.533,0,1.069,0,1.587-.187.124-.337.218-.481.32a3.407,3.407,0,0,0-1.532,2.893c-.011,1.385,0,2.771,0,4.157a2.828,2.828,0,0,0,.674,1.913c.363.415.773.789,1.169,1.187,0,.4.013.821,0,1.244-.013.356-.067.709-.087,1.065-.061,1.026-.056,2.058-.186,3.074a6.83,6.83,0,0,0,.2,2.579,7.075,7.075,0,0,0,6.162,5.258c.755.055,1.515.062,2.271.094.172.008.342.029.538.045a2.374,2.374,0,0,1-.611,1.419h15.918a2.838,2.838,0,0,1-.61-1.418c.972-.047,1.909-.062,2.839-.143a6.842,6.842,0,0,0,5.084-2.977,6.753,6.753,0,0,0,1.277-4.475q-.1-1.939-.192-3.879c0-.09-.017-.179-.024-.267-.042-.554-.082-1.106-.119-1.59a1.509,1.509,0,0,1,.138-.177c.122-.1.248-.191.372-.288a3.336,3.336,0,0,0,1.394-2.687Q-4917.971,2180.913-4918,2178.833Zm-4.962,8.361c-.079,1.237-.16,2.495-.245,3.808h-1.424Zm-29.228-4.312c-.034-1.379-.009-2.758-.009-4.137a3.046,3.046,0,0,0,2.593,1.563,21.089,21.089,0,0,1,.066,4.1,9.584,9.584,0,0,1-1.3-.011A1.554,1.554,0,0,1-4952.187,2182.883Zm8.836,14.4a4.014,4.014,0,0,1-.445.053c-.625,0-1.25-.01-1.874-.005a5.006,5.006,0,0,1-4.875-4.226,15.443,15.443,0,0,1,.016-2.737c0-.177.046-.353.056-.531.056-1.045.107-2.091.163-3.138a1.692,1.692,0,0,1,.055-.232h.887a17.267,17.267,0,0,0,6.018,9.247Zm1.767,3.574c.094-.657.218-1.284.264-1.916.044-.617.01-1.239.01-1.969a12.243,12.243,0,0,0,10.335.03,11.518,11.518,0,0,0,.444,3.855Zm11.144-6.552a9.831,9.831,0,0,1-6.376,1.782,9.643,9.643,0,0,1-3.939-1.168,13.015,13.015,0,0,1-5.12-5.246,16.961,16.961,0,0,1-1.037-2.238,12.2,12.2,0,0,1-.542-1.989,5.118,5.118,0,0,1,.048-.993c.008-1.14,0-2.28,0-3.419v-.777c3.368-.617,5.406-2.7,6.531-5.863,4.4,4.508,9.891,6.533,16.024,7.161.017.211.041.383.042.555,0,.828-.064,1.661.018,2.48a7.526,7.526,0,0,1-.847,3.717,14.511,14.511,0,0,1-1.532,2.693h-3.554a11.413,11.413,0,0,0-.735-.9,2.312,2.312,0,0,0-1.617-.7c-.781-.018-1.565-.011-2.346-.007a2.7,2.7,0,0,0-2.371,3.6,2.7,2.7,0,0,0,2.449,1.77c.669-.016,1.34.007,2.011,0a2.642,2.642,0,0,0,2.421-1.4,2.519,2.519,0,0,1,.146-.217h1.664A5,5,0,0,1-4930.439,2194.3Zm-2.167-2.226a.652.652,0,0,1-.617.664,6.6,6.6,0,0,1-.733.01c-.354,0-.71,0-1.065,0-.594-.009-.668-.068-.894-.676.225-.6.306-.666.9-.675.511-.007,1.023,0,1.534,0a1.587,1.587,0,0,1,.266.008A.668.668,0,0,1-4932.606,2192.076Zm10.648,2.085a4.891,4.891,0,0,1-4.477,3.155c-.777.036-1.558.006-2.411.006v-1.53l2.729-2.671c.714,0,1.535-.007,2.357,0a2.679,2.679,0,0,0,2.1-.777A2.689,2.689,0,0,1-4921.958,2194.161Zm1.951-11.4a1.944,1.944,0,0,1-.09.454,1.52,1.52,0,0,1-1.348,1.2c-.393.038-.793.007-1.248.007V2181.7a3.084,3.084,0,0,1,.453-.051,2.21,2.21,0,0,0,2.237-1.436C-4920,2181.062-4920,2181.913-4920.007,2182.763Z" transform="translate(4967.23 -2161.618)" fill="#926cdc"/><path d="M-4880.459,2499.256a9.367,9.367,0,0,1-9.444-9.5,9.355,9.355,0,0,1,9.484-9.407,9.352,9.352,0,0,1,9.443,9.447A9.362,9.362,0,0,1-4880.459,2499.256Zm-2.627-2.535a7.4,7.4,0,0,0,9.021-3.088,7.515,7.515,0,0,0-1.292-9.253,7.553,7.553,0,0,0-9.38-.638,7.448,7.448,0,0,0-2.463,9.115,3.667,3.667,0,0,0,1.537-2.559q.192-1.523.4-3.045a2.164,2.164,0,0,1,1.94-1.977c1.185-.193,2.379-.351,3.546-.623a1.837,1.837,0,0,1,1.9,1.237,1.506,1.506,0,0,1-.474,1.507c-.594.607-1.2,1.2-1.8,1.8-.154.155-.3.323-.406.445-.028.385.177.5.453.607.189-.154.389-.293.561-.461.56-.547,1.118-1.1,1.659-1.66a2.059,2.059,0,0,1,1.292-.7c.121.032.275.062.421.114a1.628,1.628,0,0,1,1.129,1.813q-.274,1.814-.585,3.622a2.195,2.195,0,0,1-1.8,1.918c-1.056.159-2.116.3-3.178.407A3.444,3.444,0,0,0-4883.087,2496.721Zm-1.919-1.04.752-.744a5.027,5.027,0,0,1,2.179-1.375,17.778,17.778,0,0,1,1.957-.369c.788-.122,1.581-.215,2.407-.325a8.929,8.929,0,0,0,.215-1.181c.02-.371.265-.734.051-1.261-.41.45-.731.854-1.1,1.2a2.4,2.4,0,0,1-3.224.006,2.422,2.422,0,0,1-.366-3.261,12.856,12.856,0,0,1,.9-.99c.092-.1.171-.215.348-.439l-2.326.379c-.144,1.029-.324,2.033-.417,3.045a5.488,5.488,0,0,1-1.783,3.624c-.224.21-.432.437-.685.695Z" transform="translate(4911.564 -2437.509)" fill="#cbcbcb"/><path d="M-4621.3,2657.46c0,.007,0,.013,0,.021h0C-4621.3,2657.475-4621.3,2657.467-4621.3,2657.46Z" transform="translate(4679.063 -2590.816)"/></svg>