<svg xmlns="http://www.w3.org/2000/svg" width="71.991" height="71.975" viewBox="0 0 71.991 71.975"><g transform="translate(5006.351 -9349)"><g transform="translate(-5006.351 9349)"><path d="M-5948.787-1390.2a4.927,4.927,0,0,1,1.276,1.185,3.224,3.224,0,0,1,.556,1.786c0,.094,0,.188,0,.282q0,26.489.008,52.978a3.441,3.441,0,0,1-1.124,2.7,3.367,3.367,0,0,1-2.324.865c-2.375.016-4.75.005-7.125.005-.023,0-.047,0-.07,0a1.238,1.238,0,0,1-1.323-1.181,1.219,1.219,0,0,1,1.355-1.143c2.187-.014,4.374,0,6.561-.005.235,0,.47.008.705-.005a1.053,1.053,0,0,0,1.079-1.064c.014-.164,0-.329,0-.494q0-21.551,0-43.1v-.667c-.053-.049-.069-.066-.087-.081s-.038-.035-.057-.035l-66.945-.018h-.628c-.008.311-.022.584-.022.857q0,20,0,40,0,1.552,0,3.1a4.618,4.618,0,0,0,.006.494,1.048,1.048,0,0,0,1.061,1.007c.188.011.376.005.564.005,2.093,0,4.186,0,6.279.005a3.058,3.058,0,0,1,.9.12,1.1,1.1,0,0,1,.719,1.034,1.11,1.11,0,0,1-.714,1.039,2.333,2.333,0,0,1-.756.125q-3.386.014-6.772,0a3.492,3.492,0,0,1-2.929-1.417,1.327,1.327,0,0,1-.331-.973,3.94,3.94,0,0,0,0-.423q0-27.23-.019-54.459a2.519,2.519,0,0,1,1.183-2.235c.132-.093.258-.2.386-.294Zm-.5,9.712c.035-.071.071-.111.072-.151.005-2.139.019-4.279.005-6.418a1.08,1.08,0,0,0-1.137-1.167c-.141-.009-.283,0-.423,0h-64.608c-.164,0-.33-.01-.493.005a1.091,1.091,0,0,0-1.069,1.1c-.008.094,0,.188,0,.282v6.356Z" transform="translate(6018.938 1390.201)" fill="#cbcbcb"/><path d="M-5909.65-1260.12c0,.426.023.779-.006,1.127a1.123,1.123,0,0,1-.928,1.015,1.066,1.066,0,0,1-1.142-.509,1.5,1.5,0,0,1-.173-.664c-.023-.61-.019-1.222-.005-1.833a1.14,1.14,0,0,1,1.02-1.231c.731-.164,1.468-.3,2.2-.455.252-.052.5-.111.745-.165l1.048-2.522-1.355-2.089c-.116-.177-.243-.347-.348-.53a1.091,1.091,0,0,1,.124-1.425q1.118-1.174,2.293-2.294a1.086,1.086,0,0,1,1.425-.12c.68.418,1.34.868,2.01,1.3.213.139.431.273.618.391l2.5-1.037c.129-.563.282-1.217.428-1.873.087-.388.148-.783.254-1.166a1.07,1.07,0,0,1,1.146-.93q1.551-.028,3.1,0a1.054,1.054,0,0,1,1.184.968c.194.8.345,1.6.519,2.4.044.2.1.406.152.6l2.484,1.024c.133-.076.317-.171.49-.283.69-.446,1.371-.907,2.067-1.343a1.138,1.138,0,0,1,1.6.142q1.091,1.052,2.144,2.144a1.119,1.119,0,0,1,.126,1.591c-.541.851-1.1,1.692-1.641,2.524.343.828.673,1.625,1.042,2.515.853.185,1.786.387,2.719.592a3.367,3.367,0,0,1,.542.144,1.018,1.018,0,0,1,.7.961c.015.7.025,1.411,0,2.115a1.131,1.131,0,0,1-1.083,1.09,1.167,1.167,0,0,1-1.155-1.03c-.034-.349-.006-.7-.006-1.084a11.556,11.556,0,0,0-2.03-.509c-.27-.075-.555-.1-.827-.166a1.2,1.2,0,0,1-.959-.923,10.178,10.178,0,0,0-1.226-2.979,1.258,1.258,0,0,1,.034-1.454c.5-.763,1-1.533,1.536-2.358l-.938-.975c-.756.49-1.5.932-2.2,1.439a1.456,1.456,0,0,1-1.818.049,8.632,8.632,0,0,0-2.654-1.094,1.289,1.289,0,0,1-1.089-1.123c-.162-.894-.38-1.777-.577-2.681h-1.346q-.229,1.05-.459,2.107a1.032,1.032,0,0,0-.016.14,1.671,1.671,0,0,1-1.506,1.664,7.08,7.08,0,0,0-2.384,1.011,1.429,1.429,0,0,1-1.757-.063c-.7-.5-1.445-.951-2.207-1.446l-.9.972c.076.136.156.3.254.453.394.612.781,1.229,1.193,1.829a1.319,1.319,0,0,1,.055,1.574,9.511,9.511,0,0,0-1.181,2.847,1.27,1.27,0,0,1-1.1,1.034C-5907.8-1260.527-5908.693-1260.327-5909.65-1260.12Z" transform="translate(5932.092 1296.832)" fill="#cbcbcb"/><path d="M-5869.682-1362.911h-18.625a4.924,4.924,0,0,1-.7-.019,1.172,1.172,0,0,1-1.055-1.133,1.141,1.141,0,0,1,1.031-1.143,3.979,3.979,0,0,1,.632-.029q18.661,0,37.322,0a3.684,3.684,0,0,1,.837.079,1.009,1.009,0,0,1,.835,1,1.022,1.022,0,0,1-.747,1.135,3.084,3.084,0,0,1-.9.109Q-5860.37-1362.907-5869.682-1362.911Z" transform="translate(5914.362 1369.943)" fill="#cbcbcb"/><g transform="translate(5.369 4.785)"><path d="M-5937.84-1363.74a1.083,1.083,0,0,1-1.068,1.08,1.09,1.09,0,0,1-1.142-1.086,1.078,1.078,0,0,1,1.148-1.076A1.081,1.081,0,0,1-5937.84-1363.74Z" transform="translate(5949.554 1364.823)" fill="#cbcbcb"/><path d="M-5988.293-1363.736a1.045,1.045,0,0,1-1.112,1.088,1.046,1.046,0,0,1-1.052-1.076,1.047,1.047,0,0,1,1.11-1.084A1.034,1.034,0,0,1-5988.293-1363.736Z" transform="translate(5990.457 1364.811)" fill="#cbcbcb"/><path d="M-5963.009-1363.738a1.054,1.054,0,0,1-1.043,1.086,1.043,1.043,0,0,1-1.121-1.078,1.037,1.037,0,0,1,1.112-1.083A1.048,1.048,0,0,1-5963.009-1363.738Z" transform="translate(5969.94 1364.814)" fill="#cbcbcb"/></g><g transform="translate(22.642 49.107)"><path d="M-5797.174-1120.965c.033-1.267.042-2.535.106-3.8a3.472,3.472,0,0,1,3.527-3.177,3.492,3.492,0,0,1,3.552,3.074,11.608,11.608,0,0,1,.082,1.192q.012,2.818,0,5.637a4.2,4.2,0,0,1-.728,2.524,3.647,3.647,0,0,1-3.81,1.344,3.6,3.6,0,0,1-2.623-2.992c-.018-.187-.065-.373-.067-.559-.006-1.08,0-2.161,0-3.241Zm4.941-.043h0c0-1.149.021-2.3-.008-3.446a1.186,1.186,0,0,0-1.236-1.172,1.229,1.229,0,0,0-1.327,1.161c-.014.163-.008.328-.008.492q0,2.989,0,5.979c0,.164-.005.329.01.492a1.226,1.226,0,0,0,.932,1.1,1.289,1.289,0,0,0,1.647-1.23C-5792.248-1118.757-5792.233-1119.883-5792.233-1121.008Z" transform="translate(5816.339 1128.276)" fill="#cbcbcb"/><path d="M-5895.27-1129.707a3.6,3.6,0,0,1,2.344.732,3.212,3.212,0,0,1,1.269,3.232,1.051,1.051,0,0,1-1.031.969,1.088,1.088,0,0,1-1.183-.886,2.425,2.425,0,0,1-.047-.7.916.916,0,0,0-.617-.929,1.537,1.537,0,0,0-1.363,0,1,1,0,0,0-.624.928,1.99,1.99,0,0,0,.8,1.84c.812.639,1.584,1.329,2.365,2.005.284.246.556.508.815.778a4.166,4.166,0,0,1,.2,4.959,3.826,3.826,0,0,1-6.021-.382,3.289,3.289,0,0,1-.441-2.235,1.074,1.074,0,0,1,1.189-1.039,1.124,1.124,0,0,1,1.092,1.084,2.519,2.519,0,0,1,.009.493.9.9,0,0,0,.673.958,1.687,1.687,0,0,0,1.239,0,.993.993,0,0,0,.688-.958,1.965,1.965,0,0,0-.755-1.79c-.858-.693-1.66-1.459-2.524-2.146a4.16,4.16,0,0,1-1.528-4.4,3.023,3.023,0,0,1,1.666-2.077A3.333,3.333,0,0,1-5895.27-1129.707Z" transform="translate(5898.836 1129.713)" fill="#cbcbcb"/><path d="M-5844.98-1125.728c-.045,1.17-.019,2.241-.022,3.358.226.024.4.058.583.06.846.006,1.693,0,2.54.006a3.194,3.194,0,0,1,.765.087,1.092,1.092,0,0,1,.805.963,1.107,1.107,0,0,1-.671,1.133,2.453,2.453,0,0,1-.824.134c-1.031.015-2.062.006-3.08.006a12.369,12.369,0,0,0-.014,3.4,6.971,6.971,0,0,0,.846.115c.8.017,1.6,0,2.4.007a4.485,4.485,0,0,1,.563.02,1.071,1.071,0,0,1,.933.912,1.065,1.065,0,0,1-.637,1.208,1.941,1.941,0,0,1-.684.131c-1.011.013-2.023.023-3.034,0a2.782,2.782,0,0,1-2.818-2.891q-.015-4.057,0-8.114a2.8,2.8,0,0,1,2.809-2.908c1.034-.034,2.069-.021,3.1,0a1.139,1.139,0,0,1,1.271,1.193,1.04,1.04,0,0,1-.728,1.014,3.1,3.1,0,0,1-.832.113c-.8.014-1.6,0-2.4.007C-5844.357-1125.778-5844.61-1125.751-5844.98-1125.728Z" transform="translate(5857.046 1128.425)" fill="#cbcbcb"/></g><path d="M-5854.241-1225.41a3.524,3.524,0,0,1-.106.56,1.13,1.13,0,0,1-1.127.785,1.117,1.117,0,0,1-1.028-.9,4.081,4.081,0,0,1-.094-.7,5.435,5.435,0,0,0-4.638-4.916,5.45,5.45,0,0,0-6.037,4.109c-.06.273-.08.555-.117.833-.025.186-.037.374-.073.558a1.133,1.133,0,0,1-1.217,1.016,1.177,1.177,0,0,1-1.043-1.217,7.351,7.351,0,0,1,.156-1.467,7.823,7.823,0,0,1,6.36-6.078,7.763,7.763,0,0,1,8.791,6.1C-5854.325-1226.316-5854.3-1225.891-5854.241-1225.41Z" transform="translate(5897.853 1262.577)" fill="#cbcbcb"/></g><path d="M-5942.485-1223.566v.8q0,12.134-.007,24.268a6.52,6.52,0,0,1-.166,1.671,4.324,4.324,0,0,1-4.117,3.137q-16.05-.026-32.1,0a4.335,4.335,0,0,1-4.27-4.184c0-.282-.006-.564-.006-.846q0-12.029,0-24.057v-.8c-.3-.325-.6-.657-.905-.979q-4.4-4.581-8.793-9.16c-.276-.288-.555-.577-.813-.881a1.032,1.032,0,0,1-.207-1.174,1.1,1.1,0,0,1,1.046-.7c.893-.033,1.785-.083,2.677-.116,1.338-.051,2.678-.08,4.016-.147a1.717,1.717,0,0,1,1.383.546c1.388,1.373,2.8,2.725,4.2,4.082a1.346,1.346,0,0,1,.526,1.028,1.106,1.106,0,0,1-1.655.968,2.769,2.769,0,0,1-.542-.444q-1.8-1.74-3.6-3.487c-.134-.13-.277-.251-.417-.376l-4.011.106,8.688,9.083h37.474l8.7-9.082-4.027-.1c-.447.423-.946.884-1.434,1.356q-1.343,1.3-2.676,2.612a1.346,1.346,0,0,1-.91.477,1.064,1.064,0,0,1-1.047-.581,1.1,1.1,0,0,1,.066-1.2,2.086,2.086,0,0,1,.286-.311q2.175-2.115,4.349-4.229a1.454,1.454,0,0,1,1.14-.443q3.417.142,6.834.263a1.092,1.092,0,0,1,1.039.7,1.037,1.037,0,0,1-.216,1.172c-.29.339-.6.66-.912.982l-9.269,9.681C-5942.259-1223.822-5942.351-1223.715-5942.485-1223.566Zm-38.4.671v.7q0,11.923,0,23.846c0,.141,0,.283,0,.423a1.991,1.991,0,0,0,1.47,1.855,3.925,3.925,0,0,0,1.04.119q9.313.01,18.625,0c4.233,0,8.466-.016,12.7.009a2.2,2.2,0,0,0,2.311-2.271c-.022-8.043-.011-16.085-.013-24.128,0-.18-.028-.359-.044-.557Z" transform="translate(992.328 10614.662)" fill="#926cdc"/></g></svg>