<svg xmlns="http://www.w3.org/2000/svg" width="71.991" height="55.753" viewBox="0 0 71.991 55.753"><path d="M40.853,242.1a.953.953,0,0,0,0,1.907h9.12a.953.953,0,0,0,0-1.907Z" transform="translate(-33.56 -203.618)" fill="#cbcbcb"/><path d="M154.853,242.1a.953.953,0,0,0,0,1.907h4.671a.953.953,0,0,0,0-1.907Z" transform="translate(-129.448 -203.618)" fill="#cbcbcb"/><path d="M56.106,217.553a.956.956,0,0,0-.953-.953h-14.3a.953.953,0,1,0,0,1.907h14.3A.946.946,0,0,0,56.106,217.553Z" transform="translate(-33.56 -182.17)" fill="#cbcbcb"/><path d="M170.106,217.553a.956.956,0,0,0-.953-.953h-14.3a.953.953,0,0,0,0,1.907h14.3A.946.946,0,0,0,170.106,217.553Z" transform="translate(-129.448 -182.17)" fill="#cbcbcb"/><path d="M55.153,191.1h-14.3a.953.953,0,0,0,0,1.907h14.3a.953.953,0,0,0,0-1.907Z" transform="translate(-33.56 -160.721)" fill="#cbcbcb"/><path d="M169.153,191.1h-14.3a.953.953,0,0,0,0,1.907h14.3a.953.953,0,0,0,0-1.907Z" transform="translate(-129.448 -160.721)" fill="#cbcbcb"/><path d="M73.266,165.6H40.853a.953.953,0,1,0,0,1.907H73.266a.953.953,0,1,0,0-1.907Z" transform="translate(-33.56 -139.273)" fill="#cbcbcb"/><path d="M74.219,39.053a.956.956,0,0,0-.953-.953H51.2a.956.956,0,0,0-.953.953v.016a.956.956,0,0,0,.953.953H72.328V50.175L66.879,43.6s-.191-.286-.238-.334a1.053,1.053,0,0,0-1.16-.238l-4.846,3.988s-1.049.826-1.112.874a.936.936,0,0,0-.3,1.16.974.974,0,0,0,1.271.477L65.8,45.17l6.53,7.9v1.255H59.84c-1.589-1.938-6.975-8.484-7.007-8.516a.907.907,0,0,0-.7-.318.8.8,0,0,0-.334.032,2.08,2.08,0,0,0-.207.111l-.238.191-4.973,4.083s-3.416,2.765-4.544,3.718V40.038h2.542a.956.956,0,0,0,.953-.953v-.016a.9.9,0,0,0-.286-.667.951.951,0,0,0-.667-.286H40.853a.956.956,0,0,0-.953.953V55.276a.956.956,0,0,0,.953.953H73.266a.956.956,0,0,0,.953-.953ZM51.975,47.728l5.482,6.61H43.92Z" transform="translate(-33.56 -32.031)" fill="#cbcbcb"/><path d="M84.907,39.169v-.016a.9.9,0,0,0-.286-.667A.944.944,0,0,0,83,39.153v.016a.953.953,0,0,0,1.907,0Z" transform="translate(-69.813 -32.115)" fill="#cbcbcb"/><path d="M345.553,314.8a.953.953,0,1,0,0,1.907h3.813a.953.953,0,1,0,0-1.907Z" transform="translate(-289.848 -264.767)" fill="#926cdc"/><path d="M311.107,85.469v-.016a.953.953,0,0,0-1.907,0v.016a.953.953,0,1,0,1.907,0Z" transform="translate(-260.073 -71.058)" fill="#926cdc"/><path d="M417.286,290.886a.951.951,0,0,0-.286.667v.016a.953.953,0,1,0,1.907,0v-.016a.956.956,0,0,0-.953-.953A1.11,1.11,0,0,0,417.286,290.886Z" transform="translate(-350.745 -244.412)" fill="#926cdc"/><path d="M442.053,109.6a.956.956,0,0,0-.953.953v.016a.953.953,0,1,0,1.907,0v-.016a.951.951,0,0,0-.286-.667A.9.9,0,0,0,442.053,109.6Z" transform="translate(-371.016 -92.17)" fill="#926cdc"/><path d="M309.659,55.7H287.05A2.055,2.055,0,0,0,285,57.75v42.788a2.055,2.055,0,0,0,2.05,2.05h22.609a2.055,2.055,0,0,0,2.05-2.05V69.412a.953.953,0,0,0-1.907,0v31.126a.142.142,0,0,1-.143.143H287.05a.142.142,0,0,1-.143-.143V94.945h17a.953.953,0,0,0,0-1.907h-17V62.151h0V58.814h0V57.75a.142.142,0,0,1,.143-.143h22.609a.142.142,0,0,1,.143.143v1.764h-.016v.763H292.817a.953.953,0,0,0,0,1.907H309.8v.127a.953.953,0,0,0,1.907,0V57.75A2.044,2.044,0,0,0,309.659,55.7Z" transform="translate(-239.718 -46.834)" fill="#926cdc"/><path d="M379.223,133.778a.973.973,0,0,0-.461-.826l-6.864-4.115,3.241-6.069a.949.949,0,0,0-1.668-.906l-4.544,8.5-.032.064a.927.927,0,0,0-.1.413v.016a.956.956,0,0,0,.953.953.918.918,0,0,0,.763-.4l.127-.222.35-.651,5.418,3.241-6.864,4.083a.957.957,0,0,0-.334,1.3.939.939,0,0,0,.826.461,1.135,1.135,0,0,0,.493-.127l8.246-4.91A.948.948,0,0,0,379.223,133.778Z" transform="translate(-310.203 -102.065)" fill="#926cdc"/><path d="M313.485,170.512V170.5a.952.952,0,0,0-.286-.667l-.032-.032a.927.927,0,0,0-.636-.254.941.941,0,0,0-.81.461v.016l-.032.064h0l-.477.89-4.4-2.622,6.864-4.115a.951.951,0,0,0-.969-1.637l-8.246,4.925a.953.953,0,0,0-.461.826.973.973,0,0,0,.461.826l5.863,3.48-2.256,4.226a.95.95,0,0,0,.922,1.4.971.971,0,0,0,.747-.493l3.67-6.848h0l.048-.079C313.454,170.734,313.485,170.623,313.485,170.512Z" transform="translate(-255.699 -136.637)" fill="#926cdc"/><path d="M362.607,191.285v-.032a.953.953,0,1,0-1.907,0v.032a.956.956,0,0,0,.953.953A.946.946,0,0,0,362.607,191.285Z" transform="translate(-303.39 -160.048)" fill="#926cdc"/><path d="M321.569,1.907h5.625a.37.37,0,0,1,.365.365v3.8a.953.953,0,1,0,1.907,0v-3.8A2.272,2.272,0,0,0,327.194,0h-5.625a.977.977,0,0,0-.969.953A.98.98,0,0,0,321.569,1.907Z" transform="translate(-269.661 0.016)" fill="#cbcbcb"/><path d="M43.964,0H2.272A2.272,2.272,0,0,0,0,2.272v41.85a2.272,2.272,0,0,0,2.272,2.272H23.086v7.293H14.093a.953.953,0,0,0,0,1.907H42.12a.953.953,0,0,0,0-1.907H36.639V46.395h5.545a.953.953,0,0,0,0-1.907H2.272a.37.37,0,0,1-.365-.365V2.272a.37.37,0,0,1,.365-.365H43.964a.96.96,0,0,0,.683-.286.96.96,0,0,0,.286-.683A.951.951,0,0,0,44.647.27,1.083,1.083,0,0,0,43.964,0ZM24.993,46.379h9.756v7.293H24.993V46.379Z" transform="translate(0 0.016)" fill="#cbcbcb"/><ellipse cx="0.953" cy="0.953" rx="0.953" ry="0.953" transform="translate(31.11 16.079)" fill="#cbcbcb"/><path d="M296.653,1.807A.953.953,0,1,0,295.7.853.956.956,0,0,0,296.653,1.807Z" transform="translate(-248.718 0.1)" fill="#cbcbcb"/></svg>