<svg xmlns="http://www.w3.org/2000/svg" width="72.338" height="56.021" viewBox="0 0 72.338 56.021"><g transform="translate(6.37 26.454)"><path d="M40.858,242.1a.958.958,0,1,0,0,1.916h9.164a.958.958,0,0,0,0-1.916Z" transform="translate(-39.9 -229.887)" fill="#cbcbcb"/><path d="M154.858,242.1a.958.958,0,1,0,0,1.916h4.694a.958.958,0,1,0,0-1.916Z" transform="translate(-135.7 -229.887)" fill="#cbcbcb"/><path d="M56.184,217.558a.961.961,0,0,0-.958-.958H40.858a.958.958,0,1,0,0,1.916H55.226A.951.951,0,0,0,56.184,217.558Z" transform="translate(-39.9 -208.458)" fill="#cbcbcb"/><path d="M170.184,217.558a.961.961,0,0,0-.958-.958H154.858a.958.958,0,1,0,0,1.916h14.369A.951.951,0,0,0,170.184,217.558Z" transform="translate(-135.7 -208.458)" fill="#cbcbcb"/><path d="M55.226,191.1H40.858a.958.958,0,1,0,0,1.916H55.226a.958.958,0,1,0,0-1.916Z" transform="translate(-39.9 -187.029)" fill="#cbcbcb"/><path d="M169.226,191.1H154.858a.958.958,0,1,0,0,1.916h14.369a.958.958,0,1,0,0-1.916Z" transform="translate(-135.7 -187.029)" fill="#cbcbcb"/><path d="M73.427,165.6H40.858a.958.958,0,1,0,0,1.916H73.427a.958.958,0,1,0,0-1.916Z" transform="translate(-39.9 -165.6)" fill="#cbcbcb"/></g><path d="M74.385,39.058a.961.961,0,0,0-.958-.958H51.251a.961.961,0,0,0-.958.958v.016a.961.961,0,0,0,.958.958H72.485v10.2l-5.476-6.61s-.192-.287-.239-.335a1.058,1.058,0,0,0-1.165-.239l-4.869,4.007s-1.054.83-1.118.878a.941.941,0,0,0-.3,1.165.979.979,0,0,0,1.277.479L65.923,45.2l6.562,7.935V54.4H59.936c-1.6-1.948-7.009-8.525-7.041-8.557a.911.911,0,0,0-.7-.319.8.8,0,0,0-.335.032,2.089,2.089,0,0,0-.208.112l-.239.192-5,4.1S42.981,52.74,41.848,53.7V40.048H44.4a.961.961,0,0,0,.958-.958v-.016a.9.9,0,0,0-.287-.671.956.956,0,0,0-.671-.287H40.858a.961.961,0,0,0-.958.958V55.358a.961.961,0,0,0,.958.958H73.427a.961.961,0,0,0,.958-.958ZM52.033,47.775l5.508,6.641h-13.6Z" transform="translate(-33.53 -32.001)" fill="#cbcbcb"/><path d="M84.916,39.174v-.016a.9.9,0,0,0-.287-.671A.948.948,0,0,0,83,39.158v.016a.958.958,0,1,0,1.916,0Z" transform="translate(-69.749 -32.085)" fill="#cbcbcb"/><path d="M345.558,314.8a.958.958,0,1,0,0,1.916h3.832a.958.958,0,1,0,0-1.916Z" transform="translate(-289.584 -264.526)" fill="#cbcbcb"/><path d="M311.116,85.474v-.016a.958.958,0,0,0-1.916,0v.016a.958.958,0,0,0,1.916,0Z" transform="translate(-259.836 -70.994)" fill="#cbcbcb"/><path d="M417.287,290.887a.956.956,0,0,0-.287.671v.016a.958.958,0,1,0,1.916,0v-.016a.961.961,0,0,0-.958-.958A1.115,1.115,0,0,0,417.287,290.887Z" transform="translate(-350.426 -244.189)" fill="#cbcbcb"/><path d="M442.058,109.6a.961.961,0,0,0-.958.958v.016a.958.958,0,1,0,1.916,0v-.016a.956.956,0,0,0-.287-.671A.9.9,0,0,0,442.058,109.6Z" transform="translate(-370.678 -92.086)" fill="#cbcbcb"/><path d="M309.778,55.7H287.06A2.064,2.064,0,0,0,285,57.759v42.994a2.064,2.064,0,0,0,2.059,2.059h22.718a2.065,2.065,0,0,0,2.06-2.059V69.478a.958.958,0,1,0-1.916,0v31.276a.143.143,0,0,1-.144.144H287.06a.143.143,0,0,1-.144-.144v-5.62H304a.958.958,0,0,0,0-1.916H286.916V62.182h0V58.829h0v-1.07a.143.143,0,0,1,.144-.144h22.718a.143.143,0,0,1,.144.144v1.772h-.016V60.3H292.855a.958.958,0,0,0,0,1.916h17.067v.128a.958.958,0,0,0,1.916,0V57.759A2.054,2.054,0,0,0,309.778,55.7Z" transform="translate(-239.499 -46.791)" fill="#cbcbcb"/><path d="M379.273,133.838a.978.978,0,0,0-.463-.83l-6.9-4.135,3.257-6.1a.954.954,0,1,0-1.676-.91l-4.566,8.541-.032.064a.932.932,0,0,0-.1.415v.016a.961.961,0,0,0,.958.958.923.923,0,0,0,.766-.4l.128-.224.351-.655,5.444,3.257-6.9,4.1a.962.962,0,0,0-.335,1.309.943.943,0,0,0,.83.463,1.141,1.141,0,0,0,.495-.128l8.286-4.933A.952.952,0,0,0,379.273,133.838Z" transform="translate(-309.921 -101.972)" fill="#cbcbcb"/><path d="M313.531,170.55v-.016a.956.956,0,0,0-.287-.671l-.032-.032a.932.932,0,0,0-.639-.255.946.946,0,0,0-.814.463v.016l-.032.064h0l-.479.894-4.422-2.634,6.9-4.135a.956.956,0,1,0-.974-1.644l-8.286,4.949a.958.958,0,0,0-.463.83.978.978,0,0,0,.463.83l5.891,3.5-2.267,4.247a.954.954,0,0,0,.926,1.4.976.976,0,0,0,.75-.495l3.688-6.881h0l.048-.08C313.5,170.774,313.531,170.662,313.531,170.55Z" transform="translate(-255.466 -136.513)" fill="#cbcbcb"/><path d="M362.616,191.29v-.032a.958.958,0,1,0-1.916,0v.032a.961.961,0,0,0,.958.958A.951.951,0,0,0,362.616,191.29Z" transform="translate(-303.114 -159.902)" fill="#cbcbcb"/><path d="M321.574,1.916h5.652a.371.371,0,0,1,.367.367V6.1a.958.958,0,1,0,1.916,0V2.283A2.283,2.283,0,0,0,327.225,0h-5.652a.982.982,0,0,0-.974.958A.985.985,0,0,0,321.574,1.916Z" transform="translate(-269.416 0.016)" fill="#cbcbcb"/><path d="M44.175,0H2.283A2.283,2.283,0,0,0,0,2.283V44.335a2.283,2.283,0,0,0,2.283,2.283H23.2v7.328H14.161a.958.958,0,1,0,0,1.916H42.323a.958.958,0,1,0,0-1.916H36.816V46.618h5.572a.958.958,0,1,0,0-1.916H2.283a.371.371,0,0,1-.367-.367V2.283a.371.371,0,0,1,.367-.367H44.175a.965.965,0,0,0,.686-.287.965.965,0,0,0,.287-.686.956.956,0,0,0-.287-.671A1.089,1.089,0,0,0,44.175,0ZM25.113,46.6h9.8V53.93h-9.8V46.6Z" transform="translate(0 0.016)" fill="#cbcbcb"/><circle cx="0.958" cy="0.958" r="0.958" transform="translate(31.26 16.157)" fill="#cbcbcb"/><path d="M296.658,1.816A.958.958,0,1,0,295.7.858.961.961,0,0,0,296.658,1.816Z" transform="translate(-248.491 0.1)" fill="#cbcbcb"/></svg>