<?xml version="1.0" encoding="utf-8"?>
<!-- Generator: Adobe Illustrator 24.0.1, SVG Export Plug-In . SVG Version: 6.00 Build 0)  -->
<svg version="1.1" id="Layer_1" xmlns="http://www.w3.org/2000/svg" xmlns:xlink="http://www.w3.org/1999/xlink" x="0px" y="0px"
	 viewBox="0 0 453.1 350.8" style="enable-background:new 0 0 453.1 350.8;" xml:space="preserve">
<style type="text/css">
	.st0{fill:#FFFFFF;}
</style>
<g>
	<path class="st0" d="M45.9,242.1c-3.3,0-6,2.7-6,6s2.7,6,6,6h57.4c3.3,0,6-2.7,6-6s-2.7-6-6-6H45.9z"/>
	<path class="st0" d="M159.9,242.1c-3.3,0-6,2.7-6,6s2.7,6,6,6h29.4c3.3,0,6-2.7,6-6s-2.7-6-6-6H159.9z"/>
	<path class="st0" d="M141.9,222.6c0-3.3-2.7-6-6-6h-90c-3.3,0-6,2.7-6,6s2.7,6,6,6h90C139.2,228.6,141.9,226,141.9,222.6z"/>
	<path class="st0" d="M255.9,222.6c0-3.3-2.7-6-6-6h-90c-3.3,0-6,2.7-6,6s2.7,6,6,6h90C253.2,228.6,255.9,226,255.9,222.6z"/>
	<path class="st0" d="M135.9,191.1h-90c-3.3,0-6,2.7-6,6s2.7,6,6,6h90c3.3,0,6-2.7,6-6S139.2,191.1,135.9,191.1z"/>
	<path class="st0" d="M249.9,191.1h-90c-3.3,0-6,2.7-6,6s2.7,6,6,6h90c3.3,0,6-2.7,6-6S253.2,191.1,249.9,191.1z"/>
	<path class="st0" d="M249.9,165.6h-204c-3.3,0-6,2.7-6,6c0,3.3,2.7,6,6,6h204c3.3,0,6-2.7,6-6C255.9,168.3,253.2,165.6,249.9,165.6
		z"/>
	<path class="st0" d="M255.9,44.1c0-3.3-2.7-6-6-6H111c-3.3,0-6,2.7-6,6v0.1c0,3.3,2.7,6,6,6h133v63.9l-34.3-41.4
		c0,0-1.2-1.8-1.5-2.1c-1.1-1.3-2.7-2-4.4-2c-1-0.1-2,0.1-2.9,0.5l-30.5,25.1c0,0-6.6,5.2-7,5.5c-2.3,1.6-3.1,4.7-1.9,7.3
		c1.4,3,4.9,4.3,8,3l33.4-27.4l41.1,49.7v7.9h-78.6c-10-12.2-43.9-53.4-44.1-53.6c-1.1-1.3-2.7-2-4.4-2c-0.7-0.1-1.4,0-2.1,0.2
		c-0.3,0.1-1.3,0.7-1.3,0.7l-1.5,1.2l-31.3,25.7c0,0-21.5,17.4-28.6,23.4V53.9v-3.6h16c3.3,0,6-2.7,6-6v-0.1c0-1.7-0.7-3.2-1.8-4.2
		c-1.1-1.1-2.6-1.8-4.2-1.8H45.9c-3.3,0-6,2.7-6,6v102c0,3.3,2.7,6,6,6h204c3.3,0,6-2.7,6-6V44.1z M115.9,98.7l34.5,41.6H65.2
		L115.9,98.7z"/>
	<path class="st0" d="M95,44.3v-0.1c0-1.7-0.7-3.2-1.8-4.2c-1.1-1.1-2.6-1.8-4.2-1.8c-3.3,0-6,2.7-6,6v0.1c0,3.3,2.7,6,6,6
		S95,47.6,95,44.3z"/>
	<path class="st0" d="M350.6,314.8c-3.3,0-6,2.7-6,6c0,3.3,2.7,6,6,6h24c3.3,0,6-2.7,6-6c0-3.3-2.7-6-6-6H350.6z"/>
	<path class="st0" d="M321.2,90.6v-0.1c0-1.6-0.7-3.1-1.8-4.2c-1.1-1.1-2.6-1.8-4.2-1.8c-3.3,0-6,2.7-6,6v0.1c0,3.3,2.7,6,6,6
		S321.2,93.9,321.2,90.6z"/>
	<path class="st0" d="M418.8,292.4c-1.1,1.1-1.8,2.6-1.8,4.2v0.1c0,3.3,2.7,6,6,6s6-2.7,6-6v-0.1c0-3.3-2.7-6-6-6
		C421.4,290.7,419.9,291.4,418.8,292.4z"/>
	<path class="st0" d="M447.1,109.6c-3.3,0-6,2.7-6,6v0.1c0,3.3,2.7,6,6,6s6-2.7,6-6v-0.1c0-1.6-0.7-3.1-1.8-4.2
		C450.3,110.3,448.8,109.6,447.1,109.6z"/>
	<path class="st0" d="M440.2,55.7H297.9c-7.1,0-12.9,5.8-12.9,12.9v269.3c0,7.1,5.8,12.9,12.9,12.9h142.3c7.1,0,12.9-5.8,12.9-12.9
		V142c0-1.6-0.7-3.1-1.8-4.2c-1.1-1.1-2.6-1.8-4.2-1.8c-3.3,0-6,2.7-6,6v195.9c0,0.5-0.4,0.9-0.9,0.9H297.9c-0.5,0-0.9-0.4-0.9-0.9
		v-35.2h107c3.3,0,6-2.7,6-6c0-3.3-2.7-6-6-6H297V96.3h0v-21h0v-6.7c0-0.5,0.4-0.9,0.9-0.9h142.3c0.5,0,0.9,0.4,0.9,0.9v11.1H441
		v4.8H334.2c-3.3,0-6,2.7-6,6c0,3.3,2.7,6,6,6h106.9v0.8c0,3.3,2.7,6,6,6c3.3,0,6-2.7,6-6V68.6C453.1,61.4,447.3,55.7,440.2,55.7z"
		/>
	<path class="st0" d="M434.4,199.5c0-2.1-1.1-4.1-2.9-5.2l-43.2-25.9l20.4-38.2c1.6-2.9,0.5-6.5-2.4-8.1c-2.9-1.6-6.5-0.5-8.1,2.4
		L369.6,178l-0.2,0.4c-0.4,0.8-0.6,1.7-0.6,2.6v0.1c0,3.3,2.7,6,6,6c2,0,3.8-1,4.8-2.5l0.8-1.4l2.2-4.1l34.1,20.4l-43.2,25.7
		c-2.8,1.7-3.8,5.4-2.1,8.2c1.1,1.9,3.1,2.9,5.2,2.9c1,0,2.1-0.3,3.1-0.8l51.9-30.9C433.3,203.6,434.4,201.6,434.4,199.5z"/>
	<path class="st0" d="M363.7,213.1v-0.1c0-1.6-0.7-3.1-1.8-4.2c-0.1-0.1-0.1-0.1-0.2-0.2c-0.7-0.6-1.6-1.1-2.5-1.4
		c-0.5-0.1-1-0.2-1.5-0.2c-2.2,0-4.1,1.2-5.1,2.9c0,0,0,0,0,0.1l-0.2,0.4c0,0,0,0,0,0l-3,5.6l-27.7-16.5l43.2-25.9
		c2.8-1.7,3.8-5.4,2.1-8.2c-1.7-2.8-5.4-3.8-8.2-2.1l-51.9,31c-1.8,1.1-2.9,3-2.9,5.2c0,2.1,1.1,4.1,2.9,5.2l36.9,21.9l-14.2,26.6
		c-1.6,2.9-0.5,6.6,2.4,8.1c1.1,0.6,2.3,0.8,3.4,0.7c1.9-0.2,3.7-1.3,4.7-3.1l23.1-43.1h0l0.3-0.5
		C363.5,214.5,363.7,213.8,363.7,213.1z"/>
	<path class="st0" d="M372.7,196.5v-0.2c0-1.6-0.7-3.1-1.8-4.2c-1.1-1.1-2.6-1.8-4.2-1.8c-3.3,0-6,2.7-6,6v0.2c0,3.3,2.7,6,6,6
		S372.7,199.9,372.7,196.5z"/>
	<path class="st0" d="M326.7,12c0.1,0,0.1,0,0.2,0h35.2c1.2,0,2.3,1,2.3,2.3v23.9c0,3.3,2.7,6,6,6s6-2.7,6-6V14.3
		C376.4,6.4,370,0,362.1,0h-35.4c-1.7,0-3.2,0.7-4.3,1.8c-1.1,1.1-1.8,2.6-1.8,4.2C320.7,9.3,323.4,12,326.7,12z"/>
	<path class="st0" d="M276.7,0H14.3C6.4,0,0,6.4,0,14.3v263.4c0,7.9,6.4,14.3,14.3,14.3h131v45.9H88.7c-3.3,0-6,2.7-6,6s2.7,6,6,6
		h176.4c3.3,0,6-2.7,6-6s-2.7-6-6-6h-34.5v-45.9h20v0h14.9c3.3,0,6-2.7,6-6c0-3.3-2.7-6-6-6h-80.1c0,0-0.1,0-0.1,0h-171
		c-1.2,0-2.3-1-2.3-2.3V14.3c0-1.2,1-2.3,2.3-2.3h262.2c0.1,0,0.1,0,0.2,0c1.7,0,3.2-0.7,4.3-1.8c1.1-1.1,1.8-2.6,1.8-4.3
		c0-1.6-0.7-3.1-1.8-4.2C279.8,0.7,278.3,0,276.7,0z M157.3,291.9h61.4v45.9h-61.4V291.9z"/>
	<circle class="st0" cx="201.8" cy="107.1" r="6"/>
	<path class="st0" d="M301.7,11.9c3.3,0,6-2.7,6-6s-2.7-6-6-6c-3.3,0-6,2.7-6,6S298.4,11.9,301.7,11.9z"/>
</g>
</svg>
