<svg xmlns="http://www.w3.org/2000/svg" width="74.179" height="74.191" viewBox="0 0 74.179 74.191"><path d="M-5851.758,2665.224c-1.453-1.816-2.923-3.669-4.412-5.509a3.246,3.246,0,0,1-.624-1.169c-.639-2.272-1.3-4.538-1.934-6.812a2.891,2.891,0,0,0-.821-1.576l-2.512-2.388c-.22-.248-.454-.542-.717-.8q-10.991-11-21.983-22a7.078,7.078,0,0,0-4.125-2.224,15.88,15.88,0,0,0-2.226-.016,4.174,4.174,0,0,0-.529.072l-3.129-3.145-2.412-2.38c-.293-.246-.515-.434-.711-.6a5.971,5.971,0,0,0-6.416,6.576c1.991,1.985,4.036,4.022,6.106,6.084a7.223,7.223,0,0,0,.923,5.5c-.248.156-.438.27-.622.394a3.715,3.715,0,0,0-.829,5.489,6.67,6.67,0,0,0,.461.49q5.6,5.6,11.207,11.209c.14.14.28.283.431.414a3.728,3.728,0,0,0,5.517-.677l.453-.635c.224.272.382.5.574.689q4.676,4.685,9.353,9.361a2.178,2.178,0,0,0,1,.6c2.417.665,4.823,1.371,7.237,2.056a3.077,3.077,0,0,1,1.174.611c.782.657,1.587,1.287,2.384,1.924,1.069.853,2.14,1.7,3.161,2.516A3.6,3.6,0,0,0-5851.758,2665.224Zm-50.111-43.124a3.321,3.321,0,0,1,2.913-2.953c1.623,1.622,3.219,3.219,4.722,4.724l-2.919,2.953C-5898.687,2625.287-5900.266,2623.707-5901.869,2622.1Zm18.361,29.057a1.219,1.219,0,0,1-1.343-.02,3.485,3.485,0,0,1-.562-.489q-5.527-5.521-11.049-11.048a4.723,4.723,0,0,1-.41-.436,1.29,1.29,0,0,1,.1-1.762,1.287,1.287,0,0,1,1.7-.126,2.165,2.165,0,0,1,.282.246q5.709,5.71,11.421,11.415a1.827,1.827,0,0,1,.538,1.033A1.416,1.416,0,0,1-5883.507,2651.157Zm9.744,3.96q-10.334-10.331-20.668-20.663a4.9,4.9,0,0,1-1.447-2.554,4.385,4.385,0,0,1,1.045-3.886,21,21,0,0,1,1.792-1.8,4.548,4.548,0,0,1,6.066-.012c.149.13.29.272.432.413q10.334,10.332,20.665,20.667c.14.14.271.288.382.4-2.634,2.637-5.215,5.225-7.825,7.839C-5873.441,2655.415-5873.607,2655.273-5873.763,2655.117Zm4.023,3.958c-.526-.533-1.111-1.131-1.643-1.67l7.781-7.783,1.646,1.674Zm7.946,2.841c-1.712-.491-3.583-1.027-5.435-1.556l6.566-6.568c.523,1.818,1.055,3.664,1.564,5.425Zm6.9,4.966-4.528-3.623,1.684-1.642,3.609,4.518C-5854.4,2666.4-5854.633,2666.626-5854.9,2666.882Z" transform="translate(5904.353 -2595.115)" fill="#926cdc"/><g transform="translate(7.166)"><path d="M-5801.485,2516.419c0-1.347,0-2.691,0-4.038a3.447,3.447,0,0,0-1.323-2.728,3.716,3.716,0,0,0-2.5-.8q-29.681.015-59.362.008h-.3a3.426,3.426,0,0,0-2.627,1.213,3.543,3.543,0,0,0-.9,2.464q.015,8.785.006,17.57v.907l2.413,2.379v-12.526h62.2v.865q0,18.951.017,37.9c0,1.357-.432,1.894-1.9,1.888-8.9-.032-17.793-.016-26.689-.016h-.913l2.511,2.388h.937q12.373,0,24.747,0a3.552,3.552,0,0,0,3.181-1.746,3.852,3.852,0,0,0,.509-2.144Q-5801.492,2538.214-5801.485,2516.419Zm-2.388,1.964H-5866.1v-2.8c0-.971-.012-1.944,0-2.915a1.275,1.275,0,0,1,1.432-1.427c.15,0,.3,0,.45,0h58.45c.176,0,.349-.006.522,0a1.256,1.256,0,0,1,1.363,1.347c.021.847,0,1.695,0,2.542C-5803.87,2516.2-5803.873,2517.27-5803.873,2518.383Z" transform="translate(5868.49 -2508.85)" fill="#cbcbcb"/><path d="M-5691.436,2581v23.838h-33.354c-.148-.533-.215-22.007-.066-23.838Zm-31.042,16.7h.76c2.092,0,4.186-.017,6.277,0a7.049,7.049,0,0,0,5.418-2.229c.877-.918,1.763-1.836,2.713-2.675a8.742,8.742,0,0,1,7.475-2.155,9,9,0,0,1,4.295,1.95c.55.443,1.106.879,1.7,1.352.147-1.861.084-10.061-.072-10.589-3.373-.16-27.98-.079-28.569.092Zm-.009,4.738h28.672v-5.382c-1.284-1.008-2.543-2.067-3.877-3.021a6.071,6.071,0,0,0-4.175-1.09,6.628,6.628,0,0,0-4.221,2.007c-.822.833-1.647,1.664-2.485,2.481a8.931,8.931,0,0,1-6.519,2.658c-2.242-.013-4.483,0-6.725,0-.215,0-.431.024-.669.039Z" transform="translate(5753.623 -2566.582)" fill="#cbcbcb"/><path d="M-5688.651,2715.028v-2.35h26.252v2.35Z" transform="translate(5724.585 -2671.95)" fill="#cbcbcb"/><path d="M-5844.351,2607.191v-2.3h21.466v2.246C-5823.433,2607.27-5842.9,2607.323-5844.351,2607.191Z" transform="translate(5849.174 -2585.702)" fill="#cbcbcb"/><path d="M-5823.06,2628.9v2.3h-21.418a3.094,3.094,0,0,1-.076-1.144c-.017-.37,0-.74,0-1.159Z" transform="translate(5849.349 -2604.912)" fill="#cbcbcb"/><path d="M-5688.655,2738.933v-2.3h21.463a3.027,3.027,0,0,1,.035.311c0,.645,0,1.29,0,1.927C-5667.737,2739.013-5687.2,2739.065-5688.655,2738.933Z" transform="translate(5724.588 -2691.12)" fill="#cbcbcb"/><path d="M-5820.392,2583.234v-2.3h16.632a2.956,2.956,0,0,1,.077,1.138c.017.37,0,.741,0,1.162Z" transform="translate(5830.002 -2566.531)" fill="#cbcbcb"/><path d="M-5842.214,2583.333h-2.249a2.886,2.886,0,0,1-.088-1.158c-.017-.37,0-.74,0-1.163h2.341Z" transform="translate(5849.346 -2566.593)" fill="#cbcbcb"/><path d="M-5568.883,2738.93v-2.3h2.278a3.19,3.19,0,0,1,.074,1.141c.015.369,0,.739,0,1.159Z" transform="translate(5628.749 -2691.116)" fill="#cbcbcb"/><path d="M-5844.345,2535.4v-2.294h2.308v2.294Z" transform="translate(5849.169 -2528.26)" fill="#cbcbcb"/><path d="M-5820.39,2535.325v-2.3h2.279a3.291,3.291,0,0,1,.072,1.144c.015.369,0,.739,0,1.157Z" transform="translate(5830.001 -2528.193)" fill="#cbcbcb"/><path d="M-5794.032,2533.082v2.3h-2.3v-2.3Z" transform="translate(5810.749 -2528.24)" fill="#cbcbcb"/><path d="M-5697.284,2611.835a3.618,3.618,0,0,1-3.571-3.634,3.653,3.653,0,0,1,3.665-3.548,3.591,3.591,0,0,1,3.521,3.6A3.56,3.56,0,0,1-5697.284,2611.835Zm1.217-3.588a1.25,1.25,0,0,0-1.192-1.188,1.249,1.249,0,0,0-1.187,1.192,1.248,1.248,0,0,0,1.191,1.188A1.25,1.25,0,0,0-5696.066,2608.247Z" transform="translate(5734.351 -2585.51)" fill="#cbcbcb"/></g></svg>