<svg xmlns="http://www.w3.org/2000/svg" width="89.365" height="83.243" viewBox="0 0 89.365 83.243"><g transform="translate(5032.391 -1500.29)"><path d="M-4937.886,1546.861a4.718,4.718,0,0,0-3.443-4.452,4.655,4.655,0,0,0-5.224,2.109,16.213,16.213,0,0,0-.741,1.7q-9,7.65-18.327,15.573v-1.1q0-2.064,0-4.125v5.73h-8.41q-7.2,0-14.4,0c-1.291,0-1.813.522-1.826,1.8-.005.473,0,.946,0,1.468a3.235,3.235,0,0,1-.455-.049,4.641,4.641,0,0,0-5.715,4.578c.057,1.538,0,3.081.013,4.622a4.593,4.593,0,0,0,4.557,4.514c.5,0,1-.09,1.6-.147,0,.491,0,.964,0,1.438.012,1.273.537,1.8,1.82,1.8,1.96.008,3.917,0,5.875.005.242,0,.486.039.74.062v5.506a19.2,19.2,0,0,1,3.138-.237v-5.27h3.04c.005.867.013,1.746.016,2.628,0,.859,0,1.718,0,2.641a7.719,7.719,0,0,1,3.116.489c0-.985,0-1.947,0-2.909s.011-1.9.019-2.883h6.36l9.758,8.289v-4.084c-2.649-2.237-5.167-4.364-7.682-6.491v-15.516c5.555-4.7,11.157-9.436,16.9-14.292v36.621l3.148.018c-.018-.234-.046-.44-.046-.648q0-19.432,0-38.866a3.587,3.587,0,0,1,.049-.764,1.581,1.581,0,0,1,1.5-1.265,1.645,1.645,0,0,1,1.5,1.278,3.8,3.8,0,0,1,.041.766q0,19.385,0,38.768v.746l3.074.018v-24.471C-4937.9,1557.261-4937.916,1552.061-4937.886,1546.861Zm-52.373,27.354c0,.1,0,.19,0,.288a1.611,1.611,0,0,1-1.528,1.651,1.581,1.581,0,0,1-1.548-1.628c-.031-.733,0-1.469,0-2.2h0c0-.669-.023-1.343.01-2.011a2.844,2.844,0,0,1,.214-1.013,1.376,1.376,0,0,1,1.307-.818,1.36,1.36,0,0,1,1.317.8,2.848,2.848,0,0,1,.229,1.106C-4990.241,1571.659-4990.259,1572.937-4990.259,1574.215Zm23.039,5h-19.836c-.16-.733-.213-12.119-.07-13.726.715-.152,18.166-.208,19.85-.064C-4967.123,1566.137-4967.068,1577.522-4967.22,1579.22Z" transform="translate(-26.711 -31.173)" fill="#91ddea"/><path d="M-4995.765,1721.419a11.435,11.435,0,0,1-1.373-2.932,3.65,3.65,0,0,0-1.572-2c-.159-.1-.311-.211-.485-.329a7.723,7.723,0,0,0-3.117-.489h-3.059a19.2,19.2,0,0,0-3.138.237,5.423,5.423,0,0,0-3,1.584c-.343.293-.713.55-1.047.849a2.014,2.014,0,0,1-1.477.54c-1.571-.041-3.146-.013-4.717-.013h-4.284c-.11-.411-.188-.72-.278-1.026a4.662,4.662,0,0,0-5-3.212,4.591,4.591,0,0,0-4.042,4.534c-.008,6.322.015,12.646-.011,18.97a4.629,4.629,0,0,0,3.945,4.529,4.568,4.568,0,0,0,5.133-3.369c.108-.391.173-.795.255-1.178a37.048,37.048,0,0,1,6.965.134c.069.118.159.252.233.391a3.836,3.836,0,0,0,3.179,2.178c.384.036.767.075,1.152.075q4.425.012,8.855,0a11.194,11.194,0,0,0,1.343-.088,4.5,4.5,0,0,0,3.947-3.539c.353-1.595.638-3.2,1-4.791.432-1.9.74-3.824,1.3-5.7A6.1,6.1,0,0,0-4995.765,1721.419Zm-30.433,16.161a3.146,3.146,0,0,1-.227,1.206,1.351,1.351,0,0,1-1.316.8,1.346,1.346,0,0,1-1.307-.82,3.323,3.323,0,0,1-.219-1.206c-.019-2.947-.011-5.895-.011-8.842q0-4.228,0-8.459a6.264,6.264,0,0,1,.016-.766,1.607,1.607,0,0,1,1.535-1.448,1.618,1.618,0,0,1,1.521,1.463,4.355,4.355,0,0,1,.016.576Q-5026.187,1728.835-5026.2,1737.58Zm27.989-11.134c-.453,1.461-.7,2.986-1.011,4.488-.35,1.692-.674,3.39-1.014,5.082a3.88,3.88,0,0,1-.167.653,1.428,1.428,0,0,1-1.351,1.042c-.159.005-.32.008-.48.008-3.21,0-6.417-.016-9.626.013a1.417,1.417,0,0,1-1.446-.841,3.461,3.461,0,0,0-3.307-1.908c-1.829.01-3.657.008-5.486.01-.313,0-.625,0-.975,0v-12.916c.345-.015.656-.041.968-.041,2.886-.005,5.773-.023,8.661.01a3.135,3.135,0,0,0,2.2-.782c.729-.627,1.5-1.2,2.237-1.823a1.875,1.875,0,0,1,1.313-.46c2.15.023,4.3.008,6.45.013.924,0,.965.038,1.275.959.143.424.25.864.428,1.273a5.275,5.275,0,0,0,.644,1.162A4.127,4.127,0,0,1-4998.208,1726.447Z" transform="translate(-0.023 -159.183)" fill="#555"/><path d="M-4729.807,1627.967v8.747a6.3,6.3,0,0,1-.01.672,1.5,1.5,0,0,1-1.563,1.374,1.5,1.5,0,0,1-1.491-1.349,5.037,5.037,0,0,1-.009-.576q0-8.844,0-17.687a5.528,5.528,0,0,1,.008-.576,1.5,1.5,0,0,1,1.564-1.372,1.493,1.493,0,0,1,1.491,1.347,7.2,7.2,0,0,1,.011.769Z" transform="translate(-222.478 -86.842)" fill="#91ddea"/><path d="M-4753.763,1639.1c0,1.761.012,3.521,0,5.282a1.5,1.5,0,0,1-1.576,1.652,1.5,1.5,0,0,1-1.484-1.354,5.386,5.386,0,0,1-.009-.576v-9.988c0-.16-.008-.321,0-.48a1.5,1.5,0,0,1,1.575-1.458,1.467,1.467,0,0,1,1.484,1.449c.035.927.01,1.856.01,2.785Q-4753.761,1637.756-4753.763,1639.1Z" transform="translate(-204.684 -97.968)" fill="#91ddea"/><path d="M-4781.639,1753.483a1.5,1.5,0,0,1-1.366,1.569,6.989,6.989,0,0,1-.769.01h-18.932a5.057,5.057,0,0,1-.766-.021,1.5,1.5,0,0,1-1.26-1.571,1.5,1.5,0,0,1,1.271-1.466,4.857,4.857,0,0,1,.671-.016h19.22a5.333,5.333,0,0,1,.576.008A1.5,1.5,0,0,1-4781.639,1753.483Z" transform="translate(-169.107 -186.962)" fill="#926cdc"/><path d="M-4781.637,1783.475a1.506,1.506,0,0,1-1.317,1.523,5.334,5.334,0,0,1-.672.013h-19.124a5.334,5.334,0,0,1-.672-.013,1.5,1.5,0,0,1-1.309-1.53,1.5,1.5,0,0,1,1.314-1.52,6.368,6.368,0,0,1,.77-.013h18.931a6.368,6.368,0,0,1,.77.013A1.5,1.5,0,0,1-4781.637,1783.475Z" transform="translate(-169.109 -209.206)" fill="#926cdc"/><path d="M-4990.916,1533.385q-4.709,0-9.418,0a5.062,5.062,0,0,1-.768-.019,1.5,1.5,0,0,1-1.263-1.568,1.5,1.5,0,0,1,1.265-1.469,4.483,4.483,0,0,1,.671-.017h19.22a5.341,5.341,0,0,1,.577.009,1.5,1.5,0,0,1,1.359,1.481,1.5,1.5,0,0,1-1.361,1.575,7.33,7.33,0,0,1-.769.01Z" transform="translate(-22.305 -22.297)" fill="#926cdc"/><path d="M-4990.819,1563.342h-9.513a5.1,5.1,0,0,1-.768-.019,1.5,1.5,0,0,1-1.264-1.567,1.5,1.5,0,0,1,1.264-1.47,4.471,4.471,0,0,1,.671-.018h19.22a5.338,5.338,0,0,1,.577.009,1.5,1.5,0,0,1,1.36,1.48,1.5,1.5,0,0,1-1.361,1.576,7.352,7.352,0,0,1-.768.01Z" transform="translate(-22.305 -44.55)" fill="#926cdc"/><path d="M-4992.308,1503.523a3.3,3.3,0,0,0-3.207-3.233c-11.231.039-22.46.018-33.691.023a3.783,3.783,0,0,0-.947.113,3.207,3.207,0,0,0-2.238,3.109c.044,5.907.019,11.812.019,17.72,0,1.253,0,2.5,0,3.755a2.875,2.875,0,0,0,.852,2.078,3.282,3.282,0,0,0,2.52.959q13.571-.027,27.146-.01h1.059l1.613,2.024.849,1.065h6v-5.73C-4992.336,1518.105-4992.349,1510.814-4992.308,1503.523Zm-3.122,26.107c-.239-.244-.419-.4-.563-.576-.2-.249-.406-.5-.607-.751q-.814-1.011-1.621-2.026a3.358,3.358,0,0,0-2.834-1.327c-9.017.026-18.034.013-27.048.013h-1.044c-.2-.736-.275-19.173-.1-21.449.7-.164,32.035-.226,33.817-.059Z" transform="translate(0 0)" fill="#926cdc"/><path d="M-4800.7,1705.181a3.9,3.9,0,0,0-.131-.941,3.178,3.178,0,0,0-3.048-2.189c-5.777.039-11.55.016-17.327.016-.339,0-.676-.013-1.052-.021l-3.073-.018v.005h-3.037a.051.051,0,0,0,0-.021l-3.148-.018c-.244.023-.481.049-.744.075-.8-1-1.574-1.978-2.36-2.947a9.55,9.55,0,0,0-.955-1.078,2.9,2.9,0,0,0-3.308-.525,2.908,2.908,0,0,0-1.843,2.7c-.021.437-.006.874-.006,1.456v5.169c0,6.582.034,13.163-.021,19.742a3.3,3.3,0,0,0,3.208,3.233q16.843-.062,33.691,0a3.264,3.264,0,0,0,3.179-3.158C-4800.714,1719.5-4800.688,1712.339-4800.7,1705.181Zm-3.109,21.4a.626.626,0,0,1-.064.062c-.022.021-.049.049-.074.052-.193.01-.386.021-.579.021q-16.5,0-32.992,0c-.148-.623-.226-14.019-.175-21.573.019-2.3.044-4.053.088-4.748l2.209,2.736c.142.175.283.35.417.53a3.724,3.724,0,0,0,.756.784,3.777,3.777,0,0,0,2.389.707c8.986-.033,17.97-.018,26.953-.018h1.072Z" transform="translate(-142.353 -146.286)" fill="#926cdc"/></g></svg>