<svg xmlns="http://www.w3.org/2000/svg" width="86.8" height="86.832" viewBox="0 0 86.8 86.832"><g transform="translate(6657.78 -2514.271)"><path d="M-6570.987,2518.742c0-.147,0-.292,0-.437a4.031,4.031,0,0,0-1.482-3.044,4.352,4.352,0,0,0-2.987-.991q-38.928.014-77.856.007h-.349a4.041,4.041,0,0,0-3.184,1.557,4.372,4.372,0,0,0-.933,2.924q.018,25.541.009,51.086c0,.641,0,1.283,0,1.924a3.821,3.821,0,0,0,.786,2.359,4.159,4.159,0,0,0,3.529,1.742q11.767-.014,23.533,0h.954a10.642,10.642,0,0,1-1.518-2.793h-22.452c-.176,0-.352.009-.526,0a1.468,1.468,0,0,1-1.508-1.487c-.017-.232,0-.465,0-.7v-51.619a7.8,7.8,0,0,1,.01-.785,1.453,1.453,0,0,1,1.411-1.4c.2-.019.407-.007.613-.007h77.164c.176,0,.351-.007.523.005a1.467,1.467,0,0,1,1.469,1.438c.016.2.007.409.007.613v51.881c0,.176.007.351,0,.526a1.451,1.451,0,0,1-1.55,1.531c-3.877.016-7.752.007-11.742.007,0,0-.654,1.648-1.254,2.793h13.127a4.074,4.074,0,0,0,3.536-1.891,4.35,4.35,0,0,0,.685-2.569Q-6570.994,2545.074-6570.987,2518.742Z" transform="translate(0)" fill="#555"/><path d="M-6409.052,2580.17c-2.213,0-4.428,0-6.686,0a5.476,5.476,0,0,0-.07,1.4c-.014.433,0,.865,0,1.375h3.38l-7.866,7.873-.264-.042a16.34,16.34,0,0,1,3.45,1.335l6.873-6.87v3.212a3.644,3.644,0,0,0,1.4.11c.434.019.869,0,1.354,0,.023-.227.063-.418.063-.612q.007-3.061,0-6.122C-6407.423,2580.659-6407.9,2580.175-6409.052,2580.17Z" transform="translate(-181.767 -50.493)" fill="#9678d0"/><g transform="translate(-6646.582 2519.875)"><path d="M-6574.377,2552.877c-1.1-1.753-2.214-3.495-3.284-5.262a1.828,1.828,0,0,0-1.79-.979c-1.429.047-2.859.014-4.287.014h-.936c0-1.407.012-2.74-.007-4.073a6.194,6.194,0,0,0-.164-1.29,4.139,4.139,0,0,0-3.913-3.039c-5.687.007-11.373-.01-17.06.007a4.1,4.1,0,0,0-4.04,4.009q-.035,5.775,0,11.548a4.1,4.1,0,0,0,4.027,4.021q8.575.032,17.149,0a4.119,4.119,0,0,0,4-4.046c.017-1.167,0-2.333,0-3.5v-.8c.183-.021.29-.044.4-.044,1.456,0,2.912,0,4.4,0,1.765,2.824,3.521,5.633,5.311,8.5a16.549,16.549,0,0,1,3.206-.222C-6572.314,2556.18-6573.344,2554.527-6574.377,2552.877Zm-13.1.753a1.457,1.457,0,0,1-1.4,1.41,5.948,5.948,0,0,1-.612.007q-3.888,0-7.774,0t-7.777,0c-.2,0-.409.011-.61,0a1.461,1.461,0,0,1-1.414-1.4c-.019-.2-.007-.406-.007-.61v-9.961c0-.2-.012-.409.007-.612a1.455,1.455,0,0,1,1.4-1.409,4.812,4.812,0,0,1,.524-.007h15.727c.175,0,.351-.009.524,0a1.46,1.46,0,0,1,1.414,1.4,6.041,6.041,0,0,1,.01.61v9.961A6.1,6.1,0,0,1-6587.477,2553.63Z" transform="translate(6609.875 -2538.248)" fill="#926cdc"/></g><path d="M-6590.688,2650.981a20.751,20.751,0,0,1,1.774-2.291c-.428-.465-.84-.914-1.246-1.363-.119-.131-.229-.267-.337-.4-.9-1.183-1.919-1.059-2.83-.049-3.433,3.813-6.913,7.586-10.377,11.37-1.536,1.676-3.079,3.348-4.666,5.075.72.654,1.365,1.241,2.085,1.894,2.415-2.6,4.78-5.2,7.153-7.792s4.731-5.149,7.125-7.751A5.956,5.956,0,0,1-6590.688,2650.981Z" transform="translate(-37.86 -100.995)" fill="#9678d0"/><path d="M-6585.909,2562.358h13.949v2.633c-.615.173-11.439.246-13.887.084a5.642,5.642,0,0,1-.06-1.355C-6585.919,2563.288-6585.909,2562.855-6585.909,2562.358Z" transform="translate(-55.064 -36.847)" fill="#926cdc"/><path d="M-6585.729,2589.035v-2.69h13.871a3.808,3.808,0,0,1,.081,1.333c.019.433,0,.868,0,1.293C-6572.443,2589.126-6584.166,2589.179-6585.729,2589.035Z" transform="translate(-55.208 -55.226)" fill="#926cdc"/><g transform="translate(-6652.184 2581.458)"><path d="M-6599.278,2805.6c-1.516,1.518-2.974,2.98-4.446,4.456h-4.911v-.8c0-1.138-.017-2.274,0-3.411a4.227,4.227,0,0,0-4.18-4.159q-8.4.045-16.795,0a4.266,4.266,0,0,0-4.229,4.2q.056,5.6,0,11.2a4.275,4.275,0,0,0,4.222,4.215q8.4-.053,16.8,0a4.236,4.236,0,0,0,4.191-4.236c-.035-1.194-.01-2.392,0-3.585a5.194,5.194,0,0,1,.075-.587c1.749,0,3.438-.024,5.129.012a2.142,2.142,0,0,0,1.7-.7c1.653-1.687,3.334-3.348,5.006-5.017.205-.2.415-.4.607-.584Zm-12.168,11.571a1.454,1.454,0,0,1-1.313,1.309,5.367,5.367,0,0,1-.7.014h-15.553c-.175,0-.351.009-.523,0a1.459,1.459,0,0,1-1.494-1.5c-.027-.639-.007-1.281-.007-1.922V2806.6c0-.233-.012-.467.01-.7a1.453,1.453,0,0,1,1.407-1.4c.2-.019.407-.007.61-.007h15.552a5.844,5.844,0,0,1,.7.014,1.453,1.453,0,0,1,1.311,1.312,5.205,5.205,0,0,1,.015.7q0,4.978,0,9.96A5.179,5.179,0,0,1-6611.446,2817.176Z" transform="translate(6633.84 -2801.69)" fill="#926cdc"/></g><path d="M-6595.924,2825.669v2.691H-6609.8a3.769,3.769,0,0,1-.083-1.331c-.019-.434,0-.869,0-1.294C-6609.212,2825.577-6597.545,2825.523-6595.924,2825.669Z" transform="translate(-36.691 -238.541)" fill="#926cdc"/><path d="M-6595.924,2849.622v2.691H-6609.8a3.771,3.771,0,0,1-.083-1.331c-.019-.434,0-.869,0-1.293C-6609.211,2849.53-6597.543,2849.476-6595.924,2849.622Z" transform="translate(-36.691 -256.894)" fill="#926cdc"/><path d="M-6490.684,2658.566a5.849,5.849,0,0,1-.521.664q-5.341,5.361-10.7,10.706a7.206,7.206,0,0,1-.565.547,1.388,1.388,0,0,1-1.905-.054,8.228,8.228,0,0,1-.592-.643c-.79-.886-1.58-1.774-2.486-2.791a15.254,15.254,0,0,1,1.543-2.539l2.442,2.747q4.516-4.516,8.885-8.881c.325-.023.655-.032.987-.032A15.266,15.266,0,0,1-6490.684,2658.566Z" transform="translate(-115.188 -110.354)" fill="#555"/><path d="M-6632.392,2580.15c-.432-.016-.866,0-1.353,0-.021.264-.054.486-.054.708q0,19.075,0,38.145a4.5,4.5,0,0,0,.009.526,1.352,1.352,0,0,0,1.2,1.2,6.712,6.712,0,0,0,.787.012h18.6s-.48-1.728-.643-2.836h-17.13v-37.65A4.137,4.137,0,0,0-6632.392,2580.15Z" transform="translate(-18.373 -50.472)" fill="#555"/><path d="M-6510.424,2744.66c-.02-.007-.02-.039-.029-.059a15.342,15.342,0,0,1-1.064-2.739l-.006-.019.048,0h11.7c.991,0,1.982,0,2.974,0,.951,0,1.9.009,2.891.016,0,.529.015.963,0,1.4a3.905,3.905,0,0,1-.1,1.4h-16.252A.352.352,0,0,1-6510.424,2744.66Z" transform="translate(-112.068 -174.375)" fill="#555"/><path d="M-6507.658,2646.008a18.244,18.244,0,0,0-18.384,18.041,18.212,18.212,0,0,0,18.247,18.355,18.21,18.21,0,0,0,18.161-18.168A18.251,18.251,0,0,0-6507.658,2646.008Zm15.187,18.838c0,.084-.007.171-.012.257,0,.063-.007.128-.012.191l-.021.26c-.009.11-.02.22-.031.327a13.625,13.625,0,0,1-.205,1.358c-.015.084-.033.171-.052.255-.021.105-.045.21-.07.316-.056.243-.121.486-.188.725-.045.157-.094.315-.146.469a15.066,15.066,0,0,1-3.757,6.123c-.051.052-.1.1-.156.154s-.1.094-.149.141c-.122.114-.248.227-.372.336a15.3,15.3,0,0,1-10.2,3.873,15.377,15.377,0,0,1-15.34-14.292,13.97,13.97,0,0,1,.087-3.043c.009-.091.023-.18.037-.271s.031-.2.05-.306a16.846,16.846,0,0,1,1.192-3.888c.034-.084.074-.17.111-.255,0,0,0,0,0,.007a15.36,15.36,0,0,1,1.543-2.539s-.007-.007-.009-.012c.205-.262.415-.517.628-.762.171-.2.344-.386.517-.57.1-.105.2-.208.3-.309s.18-.18.271-.267c.178-.171.36-.337.545-.5a15.056,15.056,0,0,1,9.109-3.75l-.032.033c.325-.023.654-.033.986-.033a15.308,15.308,0,0,1,2.91.276.025.025,0,0,1,.008-.009,15.272,15.272,0,0,1,12.389,13.6c.009.108.019.215.028.325.021.257.032.515.039.776,0,.135,0,.271,0,.407,0,.1,0,.2,0,.3S-6492.468,2664.751-6492.471,2664.847Z" transform="translate(-100.943 -100.942)" fill="#91ddea"/><path d="M-6488.533,2674.5a7.266,7.266,0,0,0-2.129-3.925q-4.523-4.512-9.035-9.03c-.082-.082-.161-.168-.248-.245a1.407,1.407,0,0,0-1.976-.1c-.156.119-.3.257-.361.313-1.186-1.187-2.324-2.331-3.451-3.462.6-1.146,1.254-2.793,1.254-2.793a23.592,23.592,0,0,0,.567-18.191,23.445,23.445,0,0,0-12.371-13.266,16.359,16.359,0,0,0-3.449-1.335,26.415,26.415,0,0,0-5.734-.93,16.536,16.536,0,0,0-3.206.222,24.057,24.057,0,0,0-15.507,8.125,20.751,20.751,0,0,0-1.774,2.291,23.689,23.689,0,0,0-3.675,17.443c.161,1.108.643,2.835.643,2.835.357.916.709,1.821,1.094,2.805a10.642,10.642,0,0,0,1.518,2.793,24.847,24.847,0,0,0,4.951,5.666,25.3,25.3,0,0,0,6.4,3.843l3.163,1a23.533,23.533,0,0,0,18.2-2.866,27.808,27.808,0,0,1,3.565,3.623c-.033.047-.061.1-.1.143-.823.954-.826,1.55.037,2.415,3.069,3.076,6.124,6.164,9.222,9.212a7.236,7.236,0,0,0,9.778.563A7.048,7.048,0,0,0-6488.533,2674.5Zm-37.645-8.067a20.872,20.872,0,0,1-20.982-21.083,20.948,20.948,0,0,1,21.013-20.891,20.946,20.946,0,0,1,20.934,21.06A20.844,20.844,0,0,1-6526.178,2666.429Zm15.077-2.534c.512-.474,1.139-1.021,1.723-1.608s1.106-1.192,1.657-1.791q1.645,1.648,3.117,3.125c-1.118,1.12-2.279,2.284-3.385,3.39C-6508.954,2666.043-6509.994,2665-6511.1,2663.895Zm17.2,16.184a4.308,4.308,0,0,1-4.859-.821c-.458-.4-.872-.857-1.3-1.288q-3.425-3.43-6.854-6.856c-.124-.122-.241-.25-.358-.374,2.145-2.144,4.236-4.236,6.366-6.368.074.065.208.168.327.288q3.984,3.979,7.969,7.964a4.446,4.446,0,0,1,1.436,3.257A4.324,4.324,0,0,1-6493.905,2680.078Z" transform="translate(-82.596 -82.187)" fill="#91ddea"/></g></svg>