<svg xmlns="http://www.w3.org/2000/svg" xmlns:xlink="http://www.w3.org/1999/xlink" width="108" height="108" viewBox="0 0 108 108"><defs><linearGradient id="a" x1="0.5" x2="0.5" y2="1" gradientUnits="objectBoundingBox"><stop offset="0" stop-color="#8eecff"/><stop offset="1" stop-color="#743fdb"/></linearGradient></defs><g transform="translate(-0.432)"><rect width="108" height="108" transform="translate(0.432)" opacity="0" fill="url(#a)"/><g transform="translate(4191.886 1059.928)"><path d="M-4118.152-993.383l6.711,6.467c.13-.054.323-.121.5-.211a1.746,1.746,0,0,1,2.439.317c.183.164.349.346.522.52q5.848,5.848,11.691,11.7a20.625,20.625,0,0,1,1.737,1.954,5.583,5.583,0,0,1,1.262,3.666,7.366,7.366,0,0,1-.365,2.67,6.317,6.317,0,0,1-.914,1.619,6.628,6.628,0,0,1-3.075,2.282,6.691,6.691,0,0,1-3.273.278,7.978,7.978,0,0,1-4.345-2.477q-6.239-6.278-12.517-12.514a2.067,2.067,0,0,1-.8-1.934,6.541,6.541,0,0,1,.458-1.16l-6.825-6.827a30,30,0,0,1-23.072,4.533,29.7,29.7,0,0,1-19.358-13.173l-6.377,6.368a4.739,4.739,0,0,1-.391,3.97,4.063,4.063,0,0,1-1.948,1.673,4.493,4.493,0,0,1-5.078-1.032,4.684,4.684,0,0,1-.506-5.361,4.382,4.382,0,0,1,5.459-1.768l7.025-7.025c-.23-.558-.561-1.28-.833-2.024a39.015,39.015,0,0,1-1.711-6.074,41.673,41.673,0,0,1-.352-8.144,16.656,16.656,0,0,1,.493-3.166,29.091,29.091,0,0,1,.768-3.113,34.153,34.153,0,0,1,1.233-3.2,30.157,30.157,0,0,1,4.189-6.831,23.288,23.288,0,0,1,2.709-2.916,29.675,29.675,0,0,1,6.639-4.659,32.586,32.586,0,0,1,4.2-1.851,28.656,28.656,0,0,1,5.747-1.314,25.3,25.3,0,0,1,4.662-.369,40.937,40.937,0,0,1,5.864.716,35.516,35.516,0,0,1,4.468,1.327,24.82,24.82,0,0,1,3.963,1.835,30.5,30.5,0,0,1,3.657,2.4c.841.672,1.668,1.363,2.5,2.045a4.805,4.805,0,0,0,.5-.772,1.461,1.461,0,0,0,.167-.888,3.846,3.846,0,0,1,1.019-3.737,4.256,4.256,0,0,1,5.222-1.031c.248.125.493.256.753.392l10.071-4.576a5,5,0,0,1,1.632-3.866,4.476,4.476,0,0,1,2.46-1.02,4.372,4.372,0,0,1,4.582,2.931,4.29,4.29,0,0,1-1.7,5.166,4.376,4.376,0,0,1-5.515-.451l-9.829,4.462a4.609,4.609,0,0,1-1.79,4.516,4.455,4.455,0,0,1-4.725.362l-.656.914a29.8,29.8,0,0,1,7.154,19.024A29.7,29.7,0,0,1-4118.152-993.383Zm-4.667-38.057a27.02,27.02,0,0,0-33.26-3.989A26.379,26.379,0,0,0-4167.966-1020a26.66,26.66,0,0,0,1.215,18.877l1.969-1.932c-.056-.7-.136-1.423-.168-2.145a3.8,3.8,0,0,1,1.813-3.415,4.212,4.212,0,0,1,5.586.549c.3.341.639.643.945.947l8.833-1.285a7.368,7.368,0,0,1,11.131-5.737l4.953-4.969c-.215-1.3-.5-2.836.549-4.252a4.773,4.773,0,0,1,4.21-1.911Zm-1.294,7.735a4.709,4.709,0,0,1-.068,5.8,4.281,4.281,0,0,1-4.963,1.217c-1.705,1.649-3.344,3.235-4.982,4.822a.2.2,0,0,0-.036.1c-.007.034-.007.07-.01.1,2.542,5.022-.149,8.938-3.138,10.4a7.377,7.377,0,0,1-10.018-3.954,8.067,8.067,0,0,0-1,.006c-1.029.125-2.056.27-3.081.427-1.535.234-3.068.485-4.722.748a6.374,6.374,0,0,1-2.348,2.957,4.516,4.516,0,0,1-3.911.133c-.929.992-1.941,1.852-2.76,2.842a26.189,26.189,0,0,0,12.106,10.747,26.819,26.819,0,0,0,16.071,1.93,27.206,27.206,0,0,0,20.953-18.444c2.99-9.347.468-19.3-4.657-25.105C-4121.8-1027.182-4123.075-1025.494-4124.112-1023.7Zm23.591,53.573c.067.122.141.242.2.367a1.307,1.307,0,0,1-.277,1.872c-.191.206-.4.4-.6.6l-1.216,1.22,1.527.779a3.69,3.69,0,0,0,3.408-.76,3.317,3.317,0,0,0,1.184-2.871,4.074,4.074,0,0,0-1.3-2.546q-5.932-5.912-11.85-11.839a4.889,4.889,0,0,0-.508-.4l-5.03,5.024c.281.26.591.543.9.83s.586.557.921.875c.494-.515.919-.983,1.373-1.422a2.9,2.9,0,0,1,.749-.554,1.523,1.523,0,0,1,2.217.841,1.248,1.248,0,0,1-.354,1.51c-.573.615-1.189,1.19-1.827,1.823l.736.694a1.8,1.8,0,0,0,.15-.107c.473-.47.943-.944,1.418-1.412.917-.9,1.125-.933,2.285-.336.061.032.119.07.178.106a1.914,1.914,0,0,1-.359,2.556c-.464.476-.948.935-1.462,1.44l.675.609c.515-.514,1-.966,1.447-1.455a1.948,1.948,0,0,1,2.046-.654l.834.776a2.082,2.082,0,0,1-.689,2.137c-.49.438-.935.927-1.481,1.475l.689.633c.506-.529.931-1,1.38-1.441A1.914,1.914,0,0,1-4100.521-970.131Zm-40-33.617c2.254.314,4.224-2.073,4.257-4.048a4.442,4.442,0,0,0-4.136-4.227,4.3,4.3,0,0,0-4.3,4.156A4.125,4.125,0,0,0-4140.522-1003.749Zm18.44,14.636,6.5,6.5,1.792-1.8-6.463-6.462Zm-4.9-30.442c.955-.91.991-1.13.395-2.192a1.506,1.506,0,0,0-1.973.064c-.53,1.078-.469,1.335.511,2.128h1.067Zm-34.679,13.686c-.5,1.06-.455,1.245.446,2.089h1.194c.916-.91.948-1.134.344-2.153A1.509,1.509,0,0,0-4161.66-1005.869Zm-17.612,18.236c.5,1.14.646,1.22,2.01,1.1.876-.878.909-1.1.308-2.124a1.5,1.5,0,0,0-2.008.1Zm64.433-48.4c.272-1.381-.456-2.1-1.822-1.778l-.619.575v1.156l.629.7h1.1Zm14.836-9.738v1.082l.719.67h.958l.777-.623v-1.185l-.719-.67h-1.1Z" fill="#fff"/><path d="M-3901.429-893.656a2.36,2.36,0,0,1-.335,1.81c-1.177.68-1.563.58-3.158-.837-.391.03-.553.384-.8.612-.924.858-1.519.862-2.575-.049l-.175-.869a2.964,2.964,0,0,1,1.24-2c-.8-.838-1.562-1.635-1.042-2.914.667-.7.727-.727,1.909-.672l1.34,1.246,1.748-1.348,1.33.277a2.265,2.265,0,0,1,.518,2l-1.3,1.376Z" transform="translate(-196.734 -108.512)" fill="#fff"/><path d="M-3904.9-985.187l-.966-.368c-.669-1.213-.634-1.868.1-2.407a1.543,1.543,0,0,1,2.145.277c.587.719.49,1.417-.331,2.3Z" transform="translate(-198.26 -44.138)" fill="#fff"/><path d="M-4123.171-977.92c-.8,1.2-1.914,1.231-2.906-.165-.2-9.476,3.583-17.078,11.717-22.2a24.256,24.256,0,0,1,27.322,1.073,2.218,2.218,0,0,1,.387,1.854l-.6.637a2.107,2.107,0,0,1-2.214-.333,21.537,21.537,0,0,0-7.383-3.27,19.247,19.247,0,0,0-6.436-.46,21.629,21.629,0,0,0-7.558,2.083,16.839,16.839,0,0,0-3.778,2.391,36.765,36.765,0,0,0-3.272,3.1,22.635,22.635,0,0,0-2.262,3.238,20.745,20.745,0,0,0-2.464,6.382,19.113,19.113,0,0,0-.254,2.378C-4122.974-980.148-4123.066-979.075-4123.171-977.92Z" transform="translate(-40.383 -32.847)" fill="#fff"/><path d="M-4067.787-952.276h1.131a2.645,2.645,0,0,1,1.144,1.508,22.492,22.492,0,0,1,1.141,4.193,21.494,21.494,0,0,1,.411,5.186,36.08,36.08,0,0,1-.515,4.112,24.427,24.427,0,0,1-2.631,7.092,20,20,0,0,1-2.739,3.924c-.537.6-1.018,1.249-1.605,1.789a27.059,27.059,0,0,1-4.393,3.339,23.526,23.526,0,0,1-4.712,2.207,26.8,26.8,0,0,1-4.114,1.015,21.869,21.869,0,0,1-2.913.2,5.756,5.756,0,0,0-.874.151,7.38,7.38,0,0,0-1.154-.149,20.563,20.563,0,0,1-7.12-1.288,21.78,21.78,0,0,1-6.984-3.851c-1.158-.955-2.221-2.027-3.295-3.078a11.23,11.23,0,0,1-.96-1.227,2.184,2.184,0,0,1,.4-1.838,1.652,1.652,0,0,1,1.821-.142,1.816,1.816,0,0,1,.419.3c.939.987,1.8,2.063,2.824,2.954a19.693,19.693,0,0,0,3.4,2.4,23.436,23.436,0,0,0,5.794,2.236c.772.191,1.566.263,2.346.394a17.615,17.615,0,0,0,2.916.165,21.189,21.189,0,0,0,4.016-.492,19.418,19.418,0,0,0,5.543-2.033,16.7,16.7,0,0,0,3.771-2.592c.527-.506,1.142-.926,1.639-1.458a22.653,22.653,0,0,0,5.523-10.248,20.71,20.71,0,0,0,.414-6.551,20.319,20.319,0,0,0-1.3-5.636,1.047,1.047,0,0,0-.049-.093A1.73,1.73,0,0,1-4067.787-952.276Z" transform="translate(-53.371 -70.002)" fill="#fff"/></g></g></svg>