<svg xmlns="http://www.w3.org/2000/svg" width="108" height="108" viewBox="0 0 108 108"><g transform="translate(-387 -2447)"><rect width="108" height="108" transform="translate(387 2447)" opacity="0"/><g transform="translate(4443.815 5041.46)"><path d="M-3909.615-2464.822l5.635,2.109,7.564,2.831c.535.2,1.061.427,1.606.592a1.558,1.558,0,0,1,1.121,1.619c.021.411,0,.825,0,1.237,0,2.255.006,4.51-.006,6.765a3.735,3.735,0,0,1-.149,1.047,1.07,1.07,0,0,1-1.125.782,1.085,1.085,0,0,1-1.173-.817,3.008,3.008,0,0,1-.133-.88c-.011-2.007-.006-4.015-.006-6.022v-.593c-4.084,1.5-8.066,2.992-12.051,4.509v16.3l12.008-4.5c.013-.186.04-.4.041-.609,0-.825,0-1.65,0-2.475.009-1.2.454-1.625,1.625-1.589a1.578,1.578,0,0,1,.965,1.666c0,1.127.005,2.255,0,3.382a5.728,5.728,0,0,1-.092.643,1.234,1.234,0,0,1-.9,1.055c-1.148.424-2.289.867-3.434,1.3q-4.279,1.605-8.56,3.2c-.968.362-1.939.714-2.971,1.094-1.261-.47-2.561-.953-3.859-1.439q-3.786-1.418-7.571-2.84c-1.147-.431-2.274-.925-3.442-1.285a1.536,1.536,0,0,1-1.1-1.451,3.236,3.236,0,0,1,0-.494c0-2.64,0-5.28,0-7.92,0-.3.077-.591.105-.888.049-.508.428-.733.8-.962,1.182-.061,1.672.386,1.675,1.564.007,2.392,0,4.785,0,7.177v.852l12.045,4.515v-16.266c-1.215-.591-2.57-1-3.88-1.507-1.344-.524-2.705-1-4.056-1.511-1.323-.5-2.642-1-4-1.52a5.128,5.128,0,0,0-.107,1.493,5.641,5.641,0,0,1-.141,1.044,1.085,1.085,0,0,1-1.171.818,1.086,1.086,0,0,1-1.124-.788,3.081,3.081,0,0,1-.147-.883c-.017-1.017-.013-2.035,0-3.052a5.6,5.6,0,0,1,.105-.724,1.189,1.189,0,0,1,.875-.98c1.3-.481,2.6-.982,3.9-1.469q4.97-1.862,9.942-3.719C-3910.451-2464.54-3910.089-2464.658-3909.615-2464.822Zm11.036,6.821-11.074-4.157-11.069,4.152c.362.15.635.272.914.377,3.107,1.168,6.22,2.321,9.319,3.513a2.285,2.285,0,0,0,1.739-.035C-3905.394-2455.429-3902.033-2456.7-3898.579-2458Z" transform="translate(-92.906 -91.707)" fill="#926cdc"/><path d="M-3986.383-2325.9c.221-.215.457-.438.687-.667.662-.659,1.332-1.31,1.977-1.985a1.91,1.91,0,0,1,1.125-.649,1.387,1.387,0,0,1,1.279,1.278,1.932,1.932,0,0,1-.667,1.153c-.884.859-1.746,1.741-2.661,2.658a8.623,8.623,0,0,1,1.338,7.54,8.38,8.38,0,0,1-3.53,4.781,8.548,8.548,0,0,1-10.94-1.268,8.541,8.541,0,0,1-.439-11.312C-3995.994-2327.129-3991.326-2329.121-3986.383-2325.9Zm-11.229,6.961a6.076,6.076,0,0,0,6.058,6.045,6.024,6.024,0,0,0,6.072-6.024,5.942,5.942,0,0,0-6.134-6.111A6.012,6.012,0,0,0-3997.612-2318.936Z" transform="translate(-34.826 -197.437)" fill="#91ddea"/><path d="M-3986.444-2522.284a8.58,8.58,0,0,1-11.727-1.438,8.512,8.512,0,0,1,.473-11.492,8.513,8.513,0,0,1,11.608-.584,8.558,8.558,0,0,1,1.46,11.693,4.369,4.369,0,0,0,.331.422c.753.761,1.507,1.523,2.274,2.271a1.843,1.843,0,0,1,.68,1.176,1.365,1.365,0,0,1-1.292,1.266,1.9,1.9,0,0,1-1.093-.629c-.7-.733-1.431-1.443-2.152-2.16C-3986.054-2521.931-3986.237-2522.091-3986.444-2522.284Zm-11.194-6.974a6.01,6.01,0,0,0,6.048,6.122,5.936,5.936,0,0,0,6.083-6.09,6.018,6.018,0,0,0-6.043-6.049A6.079,6.079,0,0,0-3997.638-2529.258Z" transform="translate(-34.799 -34.811)" fill="#91ddea"/><path d="M-3786.5-2522.257c-.9.9-1.782,1.767-2.644,2.648a1.9,1.9,0,0,1-1.14.667c-.914-.244-.982-.305-1.3-1.2a1.826,1.826,0,0,1,.7-1.246c.729-.708,1.442-1.433,2.158-2.154.152-.152.29-.318.463-.51a8.58,8.58,0,0,1-1.471-6.995,8.415,8.415,0,0,1,3.565-5.22,8.539,8.539,0,0,1,10.956,1.1,8.538,8.538,0,0,1,.452,11.5A8.6,8.6,0,0,1-3786.5-2522.257Zm5.207-12.974a6,6,0,0,0-6.118,6.047,5.933,5.933,0,0,0,6.089,6.084,6.021,6.021,0,0,0,6.048-6.047A6.07,6.07,0,0,0-3781.289-2535.231Z" transform="translate(-197.416 -34.847)" fill="#91ddea"/><path d="M-3788.269-2324.086c-.131-.152-.263-.322-.413-.474-.735-.741-1.464-1.488-2.217-2.211a2.027,2.027,0,0,1-.666-1.133,1.39,1.39,0,0,1,1.279-1.292,1.89,1.89,0,0,1,1.189.711c.708.729,1.432,1.442,2.154,2.158.152.151.321.286.473.42a8.638,8.638,0,0,1,12.2,2.071,8.56,8.56,0,0,1-1.076,11.024,8.529,8.529,0,0,1-11.432.48A8.579,8.579,0,0,1-3788.269-2324.086Zm6.972-.973a6.041,6.041,0,0,0-6.1,6.1,6.046,6.046,0,0,0,6.027,6.067,6.111,6.111,0,0,0,6.11-6A6.121,6.121,0,0,0-3781.3-2325.058Z" transform="translate(-197.428 -197.438)" fill="#91ddea"/><path d="M-3740.92-2411.739c-.051.054-.132.1-.147.164a6.18,6.18,0,0,1-4.912,4.813,6.44,6.44,0,0,1-6.059-2.244,7.668,7.668,0,0,1-1.126-2.167,3.222,3.222,0,0,0-.2-.422h-.79c-2.5,0-5,.005-7.506-.007a3.206,3.206,0,0,1-.961-.151,1.1,1.1,0,0,1-.749-1.147,1.093,1.093,0,0,1,.76-1.138,3.308,3.308,0,0,1,.962-.144c2.474-.011,4.949-.006,7.423-.006h.88c.078-.223.151-.452.239-.675a6.394,6.394,0,0,1,4.144-4.006,6.271,6.271,0,0,1,7.879,4.493,1.565,1.565,0,0,0,.166.327Zm-9.93-1.146a3.623,3.623,0,0,0,3.734,3.737,3.615,3.615,0,0,0,3.7-3.715,3.622,3.622,0,0,0-3.715-3.778A3.621,3.621,0,0,0-3750.85-2412.885Z" transform="translate(-219.404 -127.313)" fill="#555"/><path d="M-3876.425-2278.55c-.054-.05-.1-.132-.163-.147a6.108,6.108,0,0,1-4.8-4.907,6.192,6.192,0,0,1,3.1-6.643c.549-.29,1.137-.507,1.726-.766,0-2.752,0-5.5.006-8.241a3.228,3.228,0,0,1,.123-.881,1.075,1.075,0,0,1,1.132-.867,1.086,1.086,0,0,1,1.206.878,3.265,3.265,0,0,1,.121.882c.009,2.471.005,4.943.005,7.414v.843a1.927,1.927,0,0,0,.362.2,6.065,6.065,0,0,1,4.465,4.839,6.23,6.23,0,0,1-4.8,7.252c-.061.01-.109.1-.163.146Zm1.19-9.93a3.651,3.651,0,0,0-3.787,3.689,3.646,3.646,0,0,0,3.756,3.744,3.621,3.621,0,0,0,3.741-3.673A3.625,3.625,0,0,0-3875.235-2288.48Z" transform="translate(-127.295 -219.416)" fill="#555"/><path d="M-4032.39-2414.2c2.821,0,5.57,0,8.318.006a3.276,3.276,0,0,1,.962.144,1.1,1.1,0,0,1,.758,1.14,1.092,1.092,0,0,1-.751,1.144,3.6,3.6,0,0,1-1.043.152c-2.721.012-5.442.007-8.221.007a4.515,4.515,0,0,0-.22.485,6.155,6.155,0,0,1-4.79,4.337,6.3,6.3,0,0,1-7.148-4.229,6.293,6.293,0,0,1,4.557-7.988,6.238,6.238,0,0,1,7.393,4.391A2.822,2.822,0,0,0-4032.39-2414.2Zm-2.485,1.313a3.623,3.623,0,0,0-3.707-3.765,3.624,3.624,0,0,0-3.725,3.768,3.616,3.616,0,0,0,3.687,3.725A3.625,3.625,0,0,0-4034.875-2412.889Z" transform="translate(0 -127.298)" fill="#555"/><path d="M-3876.626-2570.064a6.348,6.348,0,0,1-4.451-3.681,5.982,5.982,0,0,1-.321-4,6.284,6.284,0,0,1,6.661-4.686,6.233,6.233,0,0,1,5.624,5.436,5.968,5.968,0,0,1-1.141,4.419,6.569,6.569,0,0,1-3.781,2.522v.655c0,2.556,0,5.113-.005,7.669a3.188,3.188,0,0,1-.126.882,1.082,1.082,0,0,1-1.142.857,1.087,1.087,0,0,1-1.2-.892,3.269,3.269,0,0,1-.117-.883c-.009-2.474-.005-4.948-.005-7.422Zm1.269-2.451a3.624,3.624,0,0,0,3.773-3.7,3.623,3.623,0,0,0-3.76-3.732,3.615,3.615,0,0,0-3.731,3.679A3.627,3.627,0,0,0-3875.357-2572.516Z" transform="translate(-127.234)" fill="#555"/></g></g></svg>