<svg xmlns="http://www.w3.org/2000/svg" width="76.81" height="76.79" viewBox="0 0 76.81 76.79"><path d="M123.14,43.915c-1.881-2.234-3.8-4.435-5.705-6.651-.715-.831-1.424-1.667-2.151-2.518.07-.557.136-1.1.2-1.643.118-.937.232-1.877.351-2.815.126-.988.329-1.971.371-2.963a32.347,32.347,0,0,0-.381-7.3,30.828,30.828,0,0,0-2.528-7.857A28.192,28.192,0,0,0,105.277,2.05c-.841-.661-1.753-1.232-2.652-1.815a1.409,1.409,0,0,0-1.558,0c-.174.1-.347.2-.515.308a27.082,27.082,0,0,0-7.4,7.011,30.081,30.081,0,0,0-4.641,9.639,27.167,27.167,0,0,0-1.018,5.944,26.011,26.011,0,0,0,.108,5.086c.208,1.452.389,2.909.571,4.365.094.739.164,1.48.24,2.179-2.26,2.634-4.469,5.21-6.677,7.79A21.861,21.861,0,0,0,80.207,44.4a4.778,4.778,0,0,0,3.9,7.488c1.949.018,3.9,0,5.847,0h.751c.118.791.232,1.524.337,2.26s.188,1.48.3,2.218A1.51,1.51,0,0,0,93.09,57.9a4.462,4.462,0,0,1,1.268.064l3.6-.016c1.6-.068,5.757-.086,7.6-.034h.034l3.794-.018c.511,0,.982.01,1.452,0a1.484,1.484,0,0,0,1.5-1.3c.066-.393.1-.789.158-1.184.158-1.154.319-2.308.487-3.516h.763q2.963,0,5.923,0a4.753,4.753,0,0,0,4.367-3.085,4.7,4.7,0,0,0-.9-4.9m-21.292-40.6a23.429,23.429,0,0,1,5.944,5.6c-.547.132-10.457.18-11.915.054a23.791,23.791,0,0,1,5.972-5.651M90.033,48.9c-1.919,0-3.84.014-5.761,0a1.842,1.842,0,0,1-1.839-1.354,1.672,1.672,0,0,1,.393-1.595c.387-.487.8-.956,1.2-1.428l4.944-5.757c.461,3.442.9,6.733,1.348,10.056a1.225,1.225,0,0,1-.288.078m19.475,5.978H94.254a23.818,23.818,0,0,1-.465-2.883c.543-.12,15.088-.152,16.128-.032-.14,1-.274,1.949-.409,2.915m3.71-28.165c-.116,1.438-.351,2.865-.529,4.3-.164,1.308-.321,2.618-.495,3.924-.17,1.282-.363,2.562-.537,3.844-.122.887-.23,1.775-.349,2.664-.18,1.356-.369,2.71-.547,4.067-.124.938-.24,1.877-.359,2.815-.022.168-.04.339-.064.541H93.382c-.13-.94-.256-1.847-.379-2.754q-.276-2.034-.551-4.067c-.118-.887-.23-1.777-.349-2.664-.18-1.356-.365-2.712-.545-4.066-.122-.913-.236-1.827-.359-2.74-.132-.986-.264-1.971-.4-2.957a28.684,28.684,0,0,1-.314-6.116,27.513,27.513,0,0,1,2.784-10.3c.188-.379.4-.745.611-1.144H109.8a17.7,17.7,0,0,1,1.346,2.7,26.175,26.175,0,0,1,1.775,6.146,23.95,23.95,0,0,1,.3,5.813m7.392,21.8a1.754,1.754,0,0,1-.952.369c-2.063.034-4.127.018-6.284.018.455-3.4.9-6.687,1.356-10.112.381.433.671.755.952,1.084,1.719,2.007,3.444,4.006,5.146,6.026a1.686,1.686,0,0,1-.218,2.616" transform="translate(-63.43 0)" fill="#91ddea"/><path d="M33.923,281.31c0,1.5.01,3-.008,4.5a8.754,8.754,0,0,1-.136,1.408,7.792,7.792,0,0,1-7.618,6.162,1.484,1.484,0,0,1-1.538-1.494,6.468,6.468,0,0,0-.25-1.388,4.449,4.449,0,0,0-6.937-2.182c-.218.166-.413.363-.637.521a1.392,1.392,0,0,1-1.334.252,1.491,1.491,0,0,1-.609-2.524,7,7,0,0,1,2-1.428c.15-.074.3-.158.5-.27a5.008,5.008,0,0,0-.509-.683,10.87,10.87,0,0,0-1.562-1.388,7.362,7.362,0,0,0-7.654-.621,8.429,8.429,0,0,0-3.84,3.862,6.029,6.029,0,0,0-.643,3.9,7.531,7.531,0,0,0,2.536,4.451,8.14,8.14,0,0,0,5.565,2q9.934-.018,19.866,0c.2,0,.4-.008.6,0a1.505,1.505,0,0,1,1.422,1.122,1.523,1.523,0,0,1-.649,1.629c-.122.082-.244.162-.365.244H9.484L8.428,299.1a10.7,10.7,0,0,1-8.151-8.1,8.745,8.745,0,0,1,.9-6.506,11.424,11.424,0,0,1,5.761-5.337,10.312,10.312,0,0,1,9.016.5,10.333,10.333,0,0,1,4.427,4.331c.058.108.118.218.188.345a7.754,7.754,0,0,1,6.905,5.777,3.2,3.2,0,0,0,.513-.138,4.579,4.579,0,0,0,2.943-4.447c0-1.647,0-3.293,0-4.974l3.6-.016a5.652,5.652,0,0,0-.609.044Z" transform="translate(0 -222.591)" fill="#555"/><path d="M245.136,287.77v2.55c-.072.25-.148.5-.216.751a10.848,10.848,0,0,1-8.109,8.1c-.373.1-.747.2-1.122.3H213.047l-.367-.244a1.427,1.427,0,0,1-.665-1.48,1.413,1.413,0,0,1,1.072-1.218,2.983,2.983,0,0,1,.817-.052q9.931,0,19.866-.008a11.1,11.1,0,0,0,1.709-.132,7.627,7.627,0,0,0,6.008-4.517,6.142,6.142,0,0,0-.064-5.617,8.768,8.768,0,0,0-2.368-2.955,7.2,7.2,0,0,0-5.847-1.657,7.971,7.971,0,0,0-4.976,2.776,6.4,6.4,0,0,0-.407.607c.256.126.437.208.611.3a8.253,8.253,0,0,1,1.925,1.41,1.6,1.6,0,0,1,.056,2.055,1.484,1.484,0,0,1-2.087.148c-.256-.2-.489-.431-.757-.613a4.467,4.467,0,0,0-5.99.853,4.671,4.671,0,0,0-1.042,2.823,1.477,1.477,0,0,1-1.585,1.518,6.972,6.972,0,0,1-2.061-.3,7.687,7.687,0,0,1-5.653-7.482c.054-1.5.01-3,.006-4.5,0-.192-.018-.383-.028-.567-.146-.014-.4-.026-.727-.036l3.794-.018a3.778,3.778,0,0,0-.04.393c0,1.649-.012,3.3,0,4.948a4.574,4.574,0,0,0,3.419,4.277c.062-.138.14-.284.194-.439a7.5,7.5,0,0,1,5.216-5.022c.238-.07.485-.112.727-.158s.487-.088.723-.128c.437-.641.837-1.3,1.31-1.907a10.45,10.45,0,0,1,5.881-3.744c4.667-1.152,8.786.783,11.454,4.447a9.775,9.775,0,0,1,1.843,4.361c.008.062.078.114.12.172" transform="translate(-168.327 -222.677)" fill="#555"/><path d="M185.325,371.372l-.363-.241a1.507,1.507,0,1,1,1.626,0l-.363.242Z" transform="translate(-147.352 -294.583)" fill="#9678d0"/><path d="M169.316,101.806a7.5,7.5,0,1,1-7.549-7.473,7.55,7.55,0,0,1,7.549,7.473m-11.993.025a4.47,4.47,0,0,0,4.468,4.49,4.479,4.479,0,1,0,.021-8.958,4.466,4.466,0,0,0-4.489,4.468" transform="translate(-123.399 -75.436)" fill="#9678d0"/></svg>