<svg xmlns="http://www.w3.org/2000/svg" width="745.5" height="603.754" viewBox="0 0 745.5 603.754"><g transform="translate(-95.736 -49.501)"><path d="M408.074,277.969c5.081-2.934,13.4-2.934,18.482,0L699.586,435.61c5.085,2.935,5.085,7.736,0,10.672L518.613,550.767c-5.084,2.934-13.4,2.934-18.485,0L227.1,393.131c-5.084-2.935-5.084-7.738,0-10.672Z" transform="translate(31.686 56.21)" fill="#e3def7"/><path d="M703.4,418.631l0,10.543c.059,1.977-1.211,3.966-3.81,5.466L518.613,539.126c-5.084,2.936-13.4,2.936-18.485,0L227.1,381.488c-2.539-1.464-3.81-3.4-3.811-5.33l.006-10.457c0-.036,0-.072,0-.107.046,1.9,1.311,3.783,3.8,5.222l273.03,157.638c5.084,2.931,13.4,2.931,18.485,0L699.585,423.966c2.567-1.481,3.839-3.438,3.813-5.393Z" transform="translate(31.686 78.525)" fill="#c5bdd6"/><path d="M378.163,98.407c0-5.869,4.158-8.27,9.241-5.336L660.439,250.7c5.085,2.935,9.245,10.137,9.245,16.006l0,208.972c0,5.87-4.16,8.272-9.242,5.338L387.4,323.385c-5.081-2.935-9.24-10.138-9.24-16.007Z" transform="translate(70.161 10.513)" fill="#c5bdd6"/><path d="M650.469,457.839c2.034,1.174,3.7.212,3.7-2.136l0-191.9a8.2,8.2,0,0,0-3.7-6.4L392.225,108.31c-2.036-1.175-3.7-.213-3.7,2.135V302.337a8.2,8.2,0,0,0,3.7,6.4Z" transform="translate(72.736 14.485)" fill="#f1edfc"/><path d="M299.38,346.505a1.124,1.124,0,0,0-.009,2.131L552.7,494.9a4.118,4.118,0,0,0,3.7,0L657.569,437a1.125,1.125,0,0,0,.005-2.131L404.243,288.6a4.114,4.114,0,0,0-3.7,0Z" transform="translate(50.399 59.288)" fill="#c5bdd6"/><path d="M309.769,414.334a1.128,1.128,0,0,0,0,2.135l84.486,48.781a4.11,4.11,0,0,0,3.7,0l61.477-35.5a1.129,1.129,0,0,0,0-2.135l-84.491-48.78a4.1,4.1,0,0,0-3.7,0Z" transform="translate(52.981 81.705)" fill="#d6d1ea"/><path d="M669.1,476.528l0-208.972c0-5.869-4.16-13.071-9.245-16.006L386.821,93.916c-2.436-1.406-4.653-1.574-6.31-.735.029-.014.051-.034.08-.047l7.263-4.177c1.66-.879,3.908-.713,6.373.712L667.265,247.3c5.082,2.934,9.241,10.137,9.241,16.007V472.281c0,2.931-1.041,4.992-2.71,5.957l-7.363,4.226C668.076,481.484,669.1,479.432,669.1,476.528Z" transform="translate(70.744 9.667)" fill="#e3def7"/><g transform="translate(357.986 352.149)"><path d="M376.665,312.431a4.091,4.091,0,0,1-3.688,0l-11.228-6.483a1.126,1.126,0,0,1,0-2.13l11.228-6.483a4.091,4.091,0,0,1,3.688,0l11.228,6.483a1.126,1.126,0,0,1,0,2.13Z" transform="translate(-292.092 -290.69)" fill="#e3def7"/><path d="M390.429,320.38a4.094,4.094,0,0,1-3.688,0l-11.23-6.483a1.126,1.126,0,0,1,0-2.13l11.23-6.483a4.091,4.091,0,0,1,3.688,0l11.228,6.483a1.126,1.126,0,0,1,0,2.13Z" transform="translate(-288.672 -288.716)" fill="#e3def7"/><path d="M404.193,328.324a4.086,4.086,0,0,1-3.689,0l-11.23-6.483a1.125,1.125,0,0,1,0-2.129l11.231-6.484a4.1,4.1,0,0,1,3.688,0l11.227,6.484a1.124,1.124,0,0,1,0,2.129Z" transform="translate(-285.253 -286.742)" fill="#e3def7"/><path d="M417.958,336.271a4.088,4.088,0,0,1-3.69,0l-11.228-6.483a1.125,1.125,0,0,1,0-2.129l11.23-6.484a4.094,4.094,0,0,1,3.689,0l11.228,6.484a1.125,1.125,0,0,1,0,2.129Z" transform="translate(-281.834 -284.768)" fill="#e3def7"/><path d="M431.722,344.218a4.1,4.1,0,0,1-3.69,0L416.8,337.735a1.127,1.127,0,0,1,0-2.13l11.231-6.483a4.1,4.1,0,0,1,3.69,0l11.228,6.483a1.126,1.126,0,0,1,0,2.13Z" transform="translate(-278.415 -282.794)" fill="#e3def7"/><path d="M445.484,352.165a4.091,4.091,0,0,1-3.688,0l-11.228-6.483a1.126,1.126,0,0,1,0-2.13l11.231-6.483a4.085,4.085,0,0,1,3.685,0l11.23,6.482a1.126,1.126,0,0,1,0,2.131Z" transform="translate(-274.995 -280.82)" fill="#e3def7"/><path d="M459.249,360.112a4.093,4.093,0,0,1-3.689,0l-11.227-6.484a1.124,1.124,0,0,1,0-2.128l11.23-6.483a4.084,4.084,0,0,1,3.688,0l11.228,6.483a1.125,1.125,0,0,1,0,2.128Z" transform="translate(-271.576 -278.846)" fill="#e3def7"/><path d="M473.012,368.06a4.093,4.093,0,0,1-3.689,0L458.1,361.575a1.125,1.125,0,0,1,0-2.129l11.231-6.484a4.088,4.088,0,0,1,3.687,0l11.228,6.483a1.125,1.125,0,0,1,0,2.13Z" transform="translate(-268.157 -276.871)" fill="#e3def7"/><path d="M486.776,376.005a4.091,4.091,0,0,1-3.688,0l-11.228-6.483a1.125,1.125,0,0,1,0-2.13l11.231-6.483a4.085,4.085,0,0,1,3.687,0L498,367.392a1.125,1.125,0,0,1,0,2.13Z" transform="translate(-264.738 -274.897)" fill="#e3def7"/><path d="M500.54,383.952a4.089,4.089,0,0,1-3.689,0l-11.228-6.482a1.126,1.126,0,0,1,0-2.13l11.228-6.483a4.093,4.093,0,0,1,3.689,0l11.228,6.483a1.125,1.125,0,0,1,0,2.13Z" transform="translate(-261.318 -272.923)" fill="#e3def7"/><path d="M514.3,391.9a4.092,4.092,0,0,1-3.69,0l-11.228-6.482a1.126,1.126,0,0,1,0-2.13l11.228-6.483a4.089,4.089,0,0,1,3.69,0l11.229,6.483a1.125,1.125,0,0,1,0,2.129Z" transform="translate(-257.899 -270.949)" fill="#e3def7"/><path d="M528.069,399.845a4.1,4.1,0,0,1-3.69,0l-11.23-6.483a1.125,1.125,0,0,1,0-2.129l11.231-6.483a4.089,4.089,0,0,1,3.69,0l11.227,6.482a1.125,1.125,0,0,1,0,2.13Z" transform="translate(-254.48 -268.975)" fill="#e3def7"/><path d="M541.832,407.792a4.085,4.085,0,0,1-3.689,0l-11.228-6.483a1.125,1.125,0,0,1,0-2.129l11.228-6.484a4.1,4.1,0,0,1,3.69,0l11.227,6.484a1.126,1.126,0,0,1,0,2.13Z" transform="translate(-251.061 -267.001)" fill="#e3def7"/><path d="M390.809,304.17a4.083,4.083,0,0,1-3.688,0l-11.766-6.794a1.125,1.125,0,0,1,0-2.13l4.991-2.881a4.088,4.088,0,0,1,3.687,0l11.768,6.793a1.126,1.126,0,0,1,0,2.13Z" transform="translate(-288.712 -291.925)" fill="#e3def7"/><path d="M405.069,312.4a4.091,4.091,0,0,1-3.688,0l-11.768-6.793a1.127,1.127,0,0,1,0-2.131l4.992-2.881a4.091,4.091,0,0,1,3.688,0l11.768,6.794a1.125,1.125,0,0,1,0,2.129Z" transform="translate(-285.169 -289.88)" fill="#e3def7"/><path d="M419.33,320.636a4.089,4.089,0,0,1-3.69,0l-11.765-6.793a1.125,1.125,0,0,1,0-2.13l4.992-2.883a4.09,4.09,0,0,1,3.688,0l11.766,6.794a1.126,1.126,0,0,1,0,2.13Z" transform="translate(-281.627 -287.835)" fill="#e3def7"/><path d="M433.59,328.87a4.1,4.1,0,0,1-3.69,0l-11.766-6.794a1.126,1.126,0,0,1,0-2.13l4.992-2.883a4.093,4.093,0,0,1,3.69,0l11.764,6.793a1.125,1.125,0,0,1,0,2.13Z" transform="translate(-278.084 -285.79)" fill="#e3def7"/><path d="M447.848,337.1a4.088,4.088,0,0,1-3.687,0l-11.768-6.794a1.126,1.126,0,0,1,0-2.13l4.992-2.883a4.1,4.1,0,0,1,3.688,0l11.768,6.794a1.124,1.124,0,0,1,0,2.127Z" transform="translate(-274.542 -283.744)" fill="#e3def7"/><path d="M462.11,345.335a4.093,4.093,0,0,1-3.689,0l-11.766-6.794a1.125,1.125,0,0,1,0-2.13l4.993-2.881a4.091,4.091,0,0,1,3.688,0l11.768,6.794a1.126,1.126,0,0,1,0,2.13Z" transform="translate(-270.999 -281.699)" fill="#e3def7"/><path d="M476.369,353.568a4.083,4.083,0,0,1-3.688,0l-11.766-6.793a1.126,1.126,0,0,1,0-2.131l4.991-2.881a4.1,4.1,0,0,1,3.69,0l11.764,6.794a1.125,1.125,0,0,1,0,2.129Z" transform="translate(-267.457 -279.653)" fill="#e3def7"/><path d="M490.629,361.8a4.1,4.1,0,0,1-3.69,0l-11.763-6.794a1.125,1.125,0,0,1,0-2.13L480.167,350a4.086,4.086,0,0,1,3.689,0l11.764,6.793a1.126,1.126,0,0,1,0,2.13Z" transform="translate(-263.914 -277.608)" fill="#e3def7"/><path d="M504.889,370.035a4.1,4.1,0,0,1-3.686,0l-11.769-6.794a1.126,1.126,0,0,1,0-2.129l4.992-2.883a4.091,4.091,0,0,1,3.688,0l11.766,6.793a1.126,1.126,0,0,1,0,2.131Z" transform="translate(-260.371 -275.563)" fill="#e3def7"/><path d="M519.149,378.269a4.091,4.091,0,0,1-3.688,0l-11.768-6.793a1.126,1.126,0,0,1,0-2.13l4.994-2.884a4.1,4.1,0,0,1,3.688,0l11.766,6.8a1.125,1.125,0,0,1,0,2.129Z" transform="translate(-256.829 -273.518)" fill="#e3def7"/><path d="M533.41,386.5a4.088,4.088,0,0,1-3.69,0l-11.765-6.794a1.125,1.125,0,0,1,0-2.13l4.992-2.881a4.091,4.091,0,0,1,3.688,0l11.766,6.793a1.127,1.127,0,0,1,0,2.13Z" transform="translate(-253.287 -271.472)" fill="#e3def7"/><path d="M547.67,394.734a4.086,4.086,0,0,1-3.689,0l-11.768-6.793a1.127,1.127,0,0,1,0-2.131l4.991-2.881a4.1,4.1,0,0,1,3.692,0l11.764,6.794a1.125,1.125,0,0,1,0,2.13Z" transform="translate(-249.744 -269.427)" fill="#e3def7"/><path d="M561.931,402.967a4.1,4.1,0,0,1-3.692,0l-11.766-6.793a1.126,1.126,0,0,1,0-2.13l4.992-2.883a4.092,4.092,0,0,1,3.688,0l11.766,6.794a1.126,1.126,0,0,1,0,2.13Z" transform="translate(-246.202 -267.382)" fill="#e3def7"/><path d="M576.226,411.222a4.09,4.09,0,0,1-3.688,0l-11.765-6.794a1.126,1.126,0,0,1,0-2.131l4.991-2.883a4.1,4.1,0,0,1,3.688,0l11.768,6.794a1.125,1.125,0,0,1,0,2.129Z" transform="translate(-242.649 -265.331)" fill="#e3def7"/><path d="M564.223,420.722a4.1,4.1,0,0,1-3.688,0l-19.821-11.443a1.127,1.127,0,0,1,0-2.131l11.228-6.482a4.091,4.091,0,0,1,3.692,0l19.82,11.443a1.126,1.126,0,0,1,0,2.13Z" transform="translate(-247.632 -265.021)" fill="#e3def7"/><path d="M321.48,344.294a4.1,4.1,0,0,1-3.69,0l-11.228-6.484a1.126,1.126,0,0,1,0-2.13L317.79,329.2a4.091,4.091,0,0,1,3.688,0l11.23,6.483a1.126,1.126,0,0,1,0,2.13Z" transform="translate(-305.801 -282.775)" fill="#e3def7"/><path d="M335.243,352.24a4.083,4.083,0,0,1-3.688,0l-11.23-6.482a1.125,1.125,0,0,1,0-2.13l11.228-6.483a4.088,4.088,0,0,1,3.687,0l11.228,6.483a1.125,1.125,0,0,1,0,2.13Z" transform="translate(-302.382 -280.801)" fill="#e3def7"/><path d="M349.008,360.187a4.088,4.088,0,0,1-3.69,0L334.09,353.7a1.125,1.125,0,0,1,0-2.13l11.228-6.482a4.091,4.091,0,0,1,3.688,0l11.23,6.483a1.125,1.125,0,0,1,0,2.128Z" transform="translate(-298.963 -278.826)" fill="#e3def7"/><path d="M500.57,438.62a4.1,4.1,0,0,1-3.688,0l-11.228-6.483a1.125,1.125,0,0,1,0-2.13l2.647-1.528a4.085,4.085,0,0,1,3.689,0l11.228,6.483a1.127,1.127,0,0,1,0,2.131Z" transform="translate(-261.311 -258.112)" fill="#e3def7"/><path d="M479.8,434.716a4.081,4.081,0,0,1-3.687,0l-11.23-6.482a1.125,1.125,0,0,1,0-2.13l2.645-1.527a4.089,4.089,0,0,1,3.69,0l11.228,6.482a1.126,1.126,0,0,1,0,2.13Z" transform="translate(-266.471 -259.081)" fill="#e3def7"/><path d="M493.564,442.664a4.1,4.1,0,0,1-3.69,0l-11.227-6.484a1.125,1.125,0,0,1,0-2.129l2.645-1.527a4.081,4.081,0,0,1,3.69,0l11.228,6.481a1.125,1.125,0,0,1,0,2.13Z" transform="translate(-263.051 -257.107)" fill="#e3def7"/><path d="M507.328,450.61a4.086,4.086,0,0,1-3.689,0l-11.228-6.483a1.126,1.126,0,0,1,0-2.13l2.647-1.527a4.094,4.094,0,0,1,3.689,0l11.23,6.483a1.126,1.126,0,0,1,0,2.13Z" transform="translate(-259.632 -255.132)" fill="#e3def7"/><path d="M362.771,368.134a4.093,4.093,0,0,1-3.689,0l-11.23-6.483a1.126,1.126,0,0,1,0-2.13l11.228-6.483a4.091,4.091,0,0,1,3.688,0L374,359.523a1.125,1.125,0,0,1,0,2.129Z" transform="translate(-295.544 -276.853)" fill="#e3def7"/><path d="M453.929,420.765a4.089,4.089,0,0,1-3.69,0L361.618,369.6a1.125,1.125,0,0,1,0-2.13l11.228-6.484a4.1,4.1,0,0,1,3.688,0l88.622,51.169a1.125,1.125,0,0,1,0,2.129Z" transform="translate(-292.125 -274.878)" fill="#e3def7"/><path d="M452.255,419.8a4.1,4.1,0,0,1-3.69,0l-11.228-6.484a1.125,1.125,0,0,1,0-2.129l11.228-6.484a4.093,4.093,0,0,1,3.69,0l11.227,6.483a1.125,1.125,0,0,1,0,2.129Z" transform="translate(-273.314 -264.018)" fill="#e3def7"/><path d="M466.016,427.745a4.08,4.08,0,0,1-3.687,0L451.1,421.262a1.126,1.126,0,0,1,0-2.13l11.228-6.483a4.085,4.085,0,0,1,3.687,0l11.23,6.482a1.126,1.126,0,0,1,0,2.13Z" transform="translate(-269.894 -262.044)" fill="#e3def7"/><path d="M383.583,332.319a4.088,4.088,0,0,1-3.687,0l-11.23-6.484a1.125,1.125,0,0,1,0-2.129l11.23-6.483a4.081,4.081,0,0,1,3.687,0l11.23,6.483a1.125,1.125,0,0,1,0,2.129Z" transform="translate(-290.373 -285.75)" fill="#e3def7"/><path d="M371.493,325.34a4.1,4.1,0,0,1-3.689,0L347.984,313.9a1.125,1.125,0,0,1,0-2.13l11.23-6.483a4.088,4.088,0,0,1,3.687,0l19.822,11.443a1.126,1.126,0,0,1,0,2.13Z" transform="translate(-295.511 -288.716)" fill="#e3def7"/><path d="M397.347,340.267a4.093,4.093,0,0,1-3.689,0l-11.228-6.484a1.125,1.125,0,0,1,0-2.129l11.228-6.483a4.086,4.086,0,0,1,3.689,0l11.23,6.482a1.126,1.126,0,0,1,0,2.13Z" transform="translate(-286.954 -283.776)" fill="#e3def7"/><path d="M411.111,348.214a4.1,4.1,0,0,1-3.689,0l-11.227-6.483a1.125,1.125,0,0,1,0-2.129l11.227-6.484a4.093,4.093,0,0,1,3.689,0l11.228,6.484a1.125,1.125,0,0,1,0,2.129Z" transform="translate(-283.534 -281.802)" fill="#e3def7"/><path d="M424.875,356.159a4.079,4.079,0,0,1-3.688,0l-11.228-6.482a1.125,1.125,0,0,1,0-2.13l11.228-6.483a4.091,4.091,0,0,1,3.688,0l11.23,6.483a1.126,1.126,0,0,1,0,2.13Z" transform="translate(-280.115 -279.827)" fill="#e3def7"/><path d="M438.639,364.106a4.093,4.093,0,0,1-3.689,0l-11.23-6.483a1.126,1.126,0,0,1,0-2.13l11.23-6.484a4.1,4.1,0,0,1,3.689,0l11.23,6.484a1.126,1.126,0,0,1,0,2.13Z" transform="translate(-276.696 -277.853)" fill="#e3def7"/><path d="M452.4,372.053a4.088,4.088,0,0,1-3.687,0l-11.23-6.482a1.126,1.126,0,0,1,0-2.131l11.231-6.483a4.088,4.088,0,0,1,3.687,0l11.228,6.483a1.125,1.125,0,0,1,0,2.13Z" transform="translate(-273.277 -275.879)" fill="#e3def7"/><path d="M466.168,380a4.093,4.093,0,0,1-3.689,0l-11.227-6.483a1.125,1.125,0,0,1,0-2.13L462.48,364.9a4.091,4.091,0,0,1,3.688,0l11.228,6.482a1.126,1.126,0,0,1,0,2.131Z" transform="translate(-269.858 -273.905)" fill="#e3def7"/><path d="M479.929,387.947a4.083,4.083,0,0,1-3.688,0l-11.227-6.483a1.125,1.125,0,0,1,0-2.13l11.227-6.483a4.1,4.1,0,0,1,3.69,0l11.228,6.483a1.125,1.125,0,0,1,0,2.129Z" transform="translate(-266.438 -271.931)" fill="#e3def7"/><path d="M493.7,395.894a4.093,4.093,0,0,1-3.689,0l-11.228-6.483a1.125,1.125,0,0,1,0-2.13l11.228-6.483a4.086,4.086,0,0,1,3.689,0l11.228,6.482a1.126,1.126,0,0,1,0,2.13Z" transform="translate(-263.019 -269.956)" fill="#e3def7"/><path d="M507.46,403.84a4.1,4.1,0,0,1-3.69,0l-11.227-6.483a1.125,1.125,0,0,1,0-2.129l11.227-6.483a4.088,4.088,0,0,1,3.69,0l11.227,6.483a1.125,1.125,0,0,1,0,2.129Z" transform="translate(-259.599 -267.982)" fill="#e3def7"/><path d="M521.222,411.786a4.079,4.079,0,0,1-3.689,0L506.3,405.3a1.125,1.125,0,0,1,0-2.129l11.228-6.484a4.1,4.1,0,0,1,3.691,0l11.229,6.483a1.127,1.127,0,0,1,0,2.13Z" transform="translate(-256.181 -266.008)" fill="#e3def7"/><path d="M534.987,419.735a4.1,4.1,0,0,1-3.689,0l-11.228-6.483a1.124,1.124,0,0,1,0-2.129l11.228-6.484a4.086,4.086,0,0,1,3.689,0l11.23,6.483a1.125,1.125,0,0,1,0,2.13Z" transform="translate(-252.761 -264.034)" fill="#e3def7"/><path d="M548.751,427.68a4.086,4.086,0,0,1-3.689,0L533.834,421.2a1.125,1.125,0,0,1,0-2.13l11.23-6.484a4.092,4.092,0,0,1,3.69,0l11.228,6.483a1.126,1.126,0,0,1,0,2.13Z" transform="translate(-249.342 -262.06)" fill="#e3def7"/><path d="M373.055,342.135a4.083,4.083,0,0,1-3.688,0l-11.23-6.483a1.125,1.125,0,0,1,0-2.129l11.23-6.484a4.083,4.083,0,0,1,3.688,0l11.231,6.484a1.125,1.125,0,0,1,0,2.129Z" transform="translate(-292.989 -283.312)" fill="#e3def7"/><path d="M361.813,335.644a4.088,4.088,0,0,1-3.687,0l-23.906-13.8a1.125,1.125,0,0,1,0-2.129l11.23-6.484a4.1,4.1,0,0,1,3.688,0l23.906,13.8a1.126,1.126,0,0,1,0,2.13Z" transform="translate(-298.93 -286.742)" fill="#e3def7"/><path d="M386.819,350.081a4.093,4.093,0,0,1-3.689,0L371.9,343.6a1.125,1.125,0,0,1,0-2.13l11.227-6.483a4.1,4.1,0,0,1,3.69,0l11.228,6.483a1.126,1.126,0,0,1,0,2.13Z" transform="translate(-289.569 -281.337)" fill="#e3def7"/><path d="M400.582,358.029a4.094,4.094,0,0,1-3.685,0l-11.231-6.483a1.126,1.126,0,0,1,0-2.13l11.231-6.483a4.081,4.081,0,0,1,3.687,0l11.229,6.483a1.126,1.126,0,0,1,0,2.13Z" transform="translate(-286.15 -279.363)" fill="#e3def7"/><path d="M414.347,365.974a4.083,4.083,0,0,1-3.688,0l-11.228-6.484a1.124,1.124,0,0,1,0-2.129l11.23-6.483a4.091,4.091,0,0,1,3.688,0l11.231,6.483a1.125,1.125,0,0,1,0,2.129Z" transform="translate(-282.731 -277.389)" fill="#e3def7"/><path d="M428.112,373.923a4.094,4.094,0,0,1-3.689,0l-11.23-6.484a1.126,1.126,0,0,1,0-2.13l11.23-6.483a4.089,4.089,0,0,1,3.689,0l11.227,6.482a1.125,1.125,0,0,1,0,2.13Z" transform="translate(-279.311 -275.415)" fill="#e3def7"/><path d="M441.875,381.868a4.091,4.091,0,0,1-3.688,0l-11.227-6.484a1.124,1.124,0,0,1,0-2.129l11.227-6.483a4.093,4.093,0,0,1,3.689,0l11.228,6.483a1.125,1.125,0,0,1,0,2.129Z" transform="translate(-275.892 -273.441)" fill="#e3def7"/><path d="M455.64,389.816a4.1,4.1,0,0,1-3.689,0l-11.228-6.483a1.125,1.125,0,0,1,0-2.129l11.228-6.484a4.1,4.1,0,0,1,3.689,0l11.23,6.484a1.125,1.125,0,0,1,0,2.129Z" transform="translate(-272.473 -271.466)" fill="#e3def7"/><path d="M469.4,397.762a4.088,4.088,0,0,1-3.687,0l-11.228-6.483a1.125,1.125,0,0,1,0-2.13l11.23-6.483a4.085,4.085,0,0,1,3.685,0l11.231,6.483a1.125,1.125,0,0,1,0,2.13Z" transform="translate(-269.053 -269.492)" fill="#e3def7"/><path d="M483.168,405.709a4.094,4.094,0,0,1-3.689,0l-11.227-6.483a1.125,1.125,0,0,1,0-2.13l11.228-6.483a4.093,4.093,0,0,1,3.689,0L494.4,397.1a1.125,1.125,0,0,1,0,2.13Z" transform="translate(-265.634 -267.518)" fill="#e3def7"/><path d="M496.931,413.656a4.091,4.091,0,0,1-3.688,0l-11.23-6.483a1.127,1.127,0,0,1,0-2.131l11.23-6.482a4.083,4.083,0,0,1,3.688,0l11.23,6.482a1.126,1.126,0,0,1,0,2.131Z" transform="translate(-262.215 -265.544)" fill="#e3def7"/><path d="M510.695,421.6a4.089,4.089,0,0,1-3.687,0l-11.23-6.484a1.125,1.125,0,0,1,0-2.13l11.23-6.483a4.084,4.084,0,0,1,3.687,0l11.228,6.482a1.126,1.126,0,0,1,0,2.13Z" transform="translate(-258.796 -263.57)" fill="#e3def7"/><path d="M537.6,437.137a4.094,4.094,0,0,1-3.689,0l-24.371-14.071a1.126,1.126,0,0,1,0-2.13l11.228-6.483a4.094,4.094,0,0,1,3.689,0l24.372,14.072a1.126,1.126,0,0,1,0,2.13Z" transform="translate(-255.376 -261.596)" fill="#e3def7"/><path d="M366.307,354.133a4.086,4.086,0,0,1-3.685,0l-11.23-6.483a1.126,1.126,0,0,1,0-2.13l11.23-6.484a4.1,4.1,0,0,1,3.687,0l11.231,6.484a1.125,1.125,0,0,1,0,2.13Z" transform="translate(-294.664 -280.331)" fill="#e3def7"/><path d="M356.777,348.63a4.094,4.094,0,0,1-3.689,0l-32.631-18.841a1.125,1.125,0,0,1,0-2.129l11.231-6.484a4.091,4.091,0,0,1,3.688,0l32.633,18.841a1.126,1.126,0,0,1,0,2.13Z" transform="translate(-302.349 -284.768)" fill="#e3def7"/><path d="M380.073,362.08a4.091,4.091,0,0,1-3.688,0L365.158,355.6a1.125,1.125,0,0,1,0-2.13l11.228-6.483a4.1,4.1,0,0,1,3.688,0l11.232,6.483a1.126,1.126,0,0,1,0,2.13Z" transform="translate(-291.245 -278.357)" fill="#e3def7"/><path d="M393.838,370.028a4.09,4.09,0,0,1-3.688,0l-11.23-6.483a1.125,1.125,0,0,1,0-2.13l11.23-6.484a4.093,4.093,0,0,1,3.689,0l11.227,6.484a1.125,1.125,0,0,1,0,2.129Z" transform="translate(-287.826 -276.382)" fill="#e3def7"/><path d="M407.6,377.973a4.081,4.081,0,0,1-3.687,0l-11.23-6.483a1.126,1.126,0,0,1,0-2.13l11.23-6.482a4.081,4.081,0,0,1,3.687,0l11.231,6.482a1.126,1.126,0,0,1,0,2.13Z" transform="translate(-284.406 -274.408)" fill="#e3def7"/><path d="M421.365,385.92a4.091,4.091,0,0,1-3.688,0l-11.228-6.484a1.124,1.124,0,0,1,0-2.129l11.228-6.483a4.091,4.091,0,0,1,3.688,0l11.23,6.483a1.125,1.125,0,0,1,0,2.129Z" transform="translate(-280.987 -272.434)" fill="#e3def7"/><path d="M435.13,393.867a4.087,4.087,0,0,1-3.688,0l-11.231-6.482a1.126,1.126,0,0,1,0-2.13l11.231-6.483a4.091,4.091,0,0,1,3.688,0l11.227,6.483a1.125,1.125,0,0,1,0,2.13Z" transform="translate(-277.568 -270.46)" fill="#e3def7"/><path d="M448.895,401.816a4.1,4.1,0,0,1-3.69,0l-11.226-6.483a1.125,1.125,0,0,1,0-2.129l11.23-6.484a4.093,4.093,0,0,1,3.689,0l11.228,6.484a1.125,1.125,0,0,1,0,2.129Z" transform="translate(-274.148 -268.486)" fill="#e3def7"/><path d="M462.659,409.761a4.09,4.09,0,0,1-3.689,0l-11.228-6.482a1.126,1.126,0,0,1,0-2.13l11.228-6.483a4.093,4.093,0,0,1,3.689,0l11.227,6.483a1.125,1.125,0,0,1,0,2.13Z" transform="translate(-270.729 -266.511)" fill="#e3def7"/><path d="M476.422,417.708a4.084,4.084,0,0,1-3.687,0l-11.23-6.482a1.126,1.126,0,0,1,0-2.13l11.231-6.483a4.088,4.088,0,0,1,3.687,0l11.23,6.483a1.126,1.126,0,0,1,0,2.13Z" transform="translate(-267.31 -264.537)" fill="#e3def7"/><path d="M490.186,425.654a4.094,4.094,0,0,1-3.689,0l-11.228-6.482a1.126,1.126,0,0,1,0-2.13l11.228-6.483a4.087,4.087,0,0,1,3.689,0l11.228,6.483a1.125,1.125,0,0,1,0,2.13Z" transform="translate(-263.891 -262.563)" fill="#e3def7"/><path d="M525.513,446.052a4.083,4.083,0,0,1-3.688,0l-32.792-18.934a1.125,1.125,0,0,1,0-2.13l11.231-6.482a4.072,4.072,0,0,1,3.686,0l32.794,18.931a1.129,1.129,0,0,1,0,2.132Z" transform="translate(-260.472 -260.589)" fill="#e3def7"/></g><path d="M346.566,296.592l16.782,9.647L403.5,282.715l-16.36-9.445Z" transform="translate(62.312 55.589)" opacity="0.15" style="mix-blend-mode:multiply;isolation:isolate"/><path d="M716.751,509.457,596.828,440.223l0-207.708L716.753,301.75Z" transform="translate(124.483 45.465)" opacity="0.1" style="mix-blend-mode:multiply;isolation:isolate"/><path d="M616.479,451.627,496.558,382.391l0-207.708,119.922,69.235Z" transform="translate(99.573 31.098)" opacity="0.1" style="mix-blend-mode:multiply;isolation:isolate"/><path d="M415.994,335.958,296.072,266.723l0-207.707L416,128.251Z" transform="translate(49.768 2.364)" opacity="0.1" style="mix-blend-mode:multiply;isolation:isolate"/><path d="M516.264,393.633,396.344,324.4V116.69l119.923,69.236Z" transform="translate(74.678 16.691)" opacity="0.1" style="mix-blend-mode:multiply;isolation:isolate"/><path d="M624.466,410.339l-19.83-11.448L565.4,423.238l18.4,10.577Z" transform="translate(116.675 86.796)" opacity="0.15" style="mix-blend-mode:multiply;isolation:isolate"/><path d="M624.29,410.366,504.368,341.132,465.13,365.479,584.141,433.89Z" transform="translate(91.766 72.448)" opacity="0.15" style="mix-blend-mode:multiply;isolation:isolate"/><path d="M524.075,352.09,404.152,282.857,364.916,307.2l119.01,68.411Z" transform="translate(66.87 57.971)" opacity="0.15" style="mix-blend-mode:multiply;isolation:isolate"/><g transform="translate(696.153 292.606)"><path d="M696.6,521.173,576.677,451.938l0-207.707L696.6,313.466Z" transform="translate(-576.677 -244.231)" fill="#fbfbfb"/><g transform="translate(23.307 42.992)"><path d="M669.866,348.291c0-23.76-16.683-52.654-37.26-64.535s-37.259-2.248-37.259,21.513,16.68,52.653,37.258,64.533S669.866,372.053,669.866,348.291Z" transform="translate(-595.346 -278.668)" fill="#77d2ff"/><path d="M643.711,342.442c.18-5.507.823-18.85.514-21.212s-2.129-13.253-2.938-14.52-7.839-9.469-11.99-10.8-8.748.628-9.949,2.474-5.542,8.07-5.513,9.766.085,15.352,0,17.376a47,47,0,0,1-1.011,6.029l-4.931,5.845s2.906,3.382,11,8.637,31.8,15.811,31.8,15.811S643.532,347.951,643.711,342.442Z" transform="translate(-592.229 -274.493)" fill="#951578"/><path d="M640.664,343.927c-2.645-4.346-.986-14.12-.986-14.12l-18.99-10.964s1.662,11.69-.986,12.981-13.225-.381-13.225-.381v5.873l46.877,27.065V358.51S643.311,348.274,640.664,343.927Z" transform="translate(-592.581 -268.688)" fill="#d8a681"/><path d="M628.146,340.567c2.879,1.662,5.1.963,7.709.3s4.427-2.618,5.784-8.753.519-8.964.935-10.947,1.529-12.012-3.177-20.721a29.332,29.332,0,0,0-11.251-11.907c-2.089-1.207-7.212-3.894-11.252-1.084-4.705,3.276-3.594,14.587-3.177,17.051s-.417,4.331.936,12.03,3.178,11.759,5.784,15.43S625.258,338.9,628.146,340.567Z" transform="translate(-590.886 -276.793)" fill="#ffcca7"/><path d="M636.793,321.124c-1.91,1.361-3.705,2.333-4.548,4.7a75.547,75.547,0,0,1-2.307,7.314c.581-.13,1.172-.286,1.783-.441,2.606-.663,4.427-2.618,5.784-8.753a34.549,34.549,0,0,0,.73-4.838A5.508,5.508,0,0,1,636.793,321.124Z" transform="translate(-586.753 -268.622)" fill="#d8a681" opacity="0.2"/><path d="M632.319,296.582l-14.489-9.808a6.447,6.447,0,0,0-.936.543c-4.705,3.276-3.594,14.587-3.177,17.051s-.417,4.331.936,12.03,3.178,11.759,5.784,15.431c2.478,3.492,4.607,6.618,7.3,8.347-.723-4.9-.359-11.658-.375-13.016a35.1,35.1,0,0,0-.876-5.694c-.265-1.124.947-3.9.875-7.251,2.9.042,8.5-.357,11.266-3.815C642.454,305.615,632.319,296.582,632.319,296.582Z" transform="translate(-590.886 -276.655)" fill="#d8a681" opacity="0.4"/><path d="M615.122,309.5a20.881,20.881,0,0,1-1.3-3.245c.11,1.4.32,3.116.7,5.308,1.356,7.7,3.179,11.759,5.784,15.431.558.783,1.1,1.548,1.627,2.285-1.117-3.846-1.675-7.5-2.263-9.829C618.827,316.107,617.032,313.06,615.122,309.5Z" transform="translate(-590.757 -271.816)" fill="#d8a681" opacity="0.2"/><path d="M644.3,345.029c-1.637,1.441-5.607,3.184-13.774-1.532a37.422,37.422,0,0,1-14.145-14.243,113.293,113.293,0,0,1-12.639-.481c6.775,12,16.264,22.514,26.777,28.583,10.537,6.084,20.046,6.514,26.823,2.308C655.37,357.55,647.572,349.156,644.3,345.029Z" transform="translate(-593.26 -266.221)" fill="#fe61ca"/><path d="M607.894,339.955c8.99-.549,10.647-8.885,8.744-17.448s2.069-13.759,4.981-12.765c15.353,5.235,16.861-2.218,16.861-2.218-1.11,6.341-8.93,5.64-8.93,5.64s9.361,1.134,10.626-2.868c-1.122,2.767.9,7.971,2.054,10.693,1.426,3.353,1.247,11.161-1.013,16.71s3.945,20.157,9.484,26.7c0,0-4.793-16.6-3.833-28.1s2.692-14.148-2.533-30.1c-2.458-7.492-8.009-15.238-14.569-19.026s-14.309-2.241-16.779,5.438c-4.382,13.627-.976,23.438-.977,31.8C612.011,328.787,609.461,338.356,607.894,339.955Z" transform="translate(-592.229 -277.046)" fill="#c747aa"/></g><path d="M684.511,417.467,587.083,361.22v-3.365L684.511,414.1Z" transform="translate(-574.092 -216.004)" fill="#d6d1ea"/><path d="M684.51,425.009l-97.427-56.247V365.4l97.428,56.249Z" transform="translate(-574.092 -214.131)" fill="#d6d1ea"/><path d="M684.51,432.551,587.083,376.3v-3.366l97.428,56.25Z" transform="translate(-574.092 -212.257)" fill="#d6d1ea"/><path d="M684.51,440.093l-97.427-56.247V380.48l97.427,56.248Z" transform="translate(-574.092 -210.384)" fill="#d6d1ea"/><path d="M642.8,423.551l-55.713-32.164v-3.366L642.8,420.187Z" transform="translate(-574.092 -208.51)" fill="#d6d1ea"/><g transform="translate(30.449 130.658)"><path d="M606.016,348.889l1.53,4.461,3.42,2.549-2.475,1.357.585,4.27-3.06-3.623-3.059.091.584-3.6-2.475-4.215,3.42,1.4Z" transform="translate(-601.066 -348.889)" fill="#d81159"/><path d="M616.553,354.972l1.529,4.462,3.42,2.549-2.475,1.357.585,4.27-3.059-3.623-3.061.091.585-3.595-2.474-4.215,3.419,1.4Z" transform="translate(-598.449 -347.378)" fill="#d81159"/><path d="M627.09,361.055l1.529,4.463,3.42,2.548-2.475,1.356.584,4.27-3.058-3.622-3.061.09.585-3.6-2.475-4.214,3.421,1.4Z" transform="translate(-595.832 -345.867)" fill="#d81159"/><path d="M637.626,367.138l1.529,4.462,3.42,2.548L640.1,375.5l.585,4.271-3.06-3.623-3.059.091.584-3.6-2.475-4.213,3.421,1.4Z" transform="translate(-593.214 -344.356)" fill="#d81159"/><path d="M648.161,373.22l1.53,4.462,3.421,2.549-2.476,1.356.583,4.271-3.058-3.623-3.059.092.584-3.6-2.475-4.214,3.42,1.4Z" transform="translate(-590.597 -342.845)" fill="#d6d1ea"/></g></g><g transform="translate(570.972 220.408)"><path d="M596.327,463.343,476.405,394.107l0-207.707,119.922,69.236Z" transform="translate(-476.405 -186.399)" fill="#fbfbfb"/><g transform="translate(23.083 42.954)"><path d="M569.862,290.849c0-23.9-16.779-52.971-37.483-64.924S494.9,223.664,494.9,247.567s16.783,52.971,37.483,64.922S569.86,314.752,569.862,290.849Z" transform="translate(-494.895 -220.806)" fill="#77d2ff"/><path d="M540.176,291.683c-1.825-3.716,0-18.063,0-18.063l-25.688-14.83s1.826,16.454,0,18.062c0,0,5.4,11.468,11.982,15.448S540.176,291.683,540.176,291.683Z" transform="translate(-490.028 -211.37)" fill="#d9a782"/><path d="M513.194,247.552s-.519-2.561-1.683-3.411-2.388.144-1.591,5.056a37.614,37.614,0,0,0,1.9,7.316c.306,1.273,1.5,3.658,2.568,1.659Z" transform="translate(-491.226 -215.077)" fill="#f2a983"/><path d="M513.194,247.552s-.519-2.561-1.683-3.411-2.388.144-1.591,5.056a37.614,37.614,0,0,0,1.9,7.316c.306,1.273,1.5,3.658,2.568,1.659Z" transform="translate(-491.226 -215.077)" fill="#d88f69" opacity="0.5"/><path d="M513.194,247.552s-.519-2.561-1.683-3.411-2.388.144-1.591,5.056a37.614,37.614,0,0,0,1.9,7.316c.306,1.273,1.5,3.658,2.568,1.659Z" transform="translate(-491.226 -215.077)" fill="#d9a782" opacity="0.5"/><path d="M537.073,261.182s.523-1.961,1.685-1.467,2.386,2.9,1.588,6.891-1.591,4.206-1.9,5.126-1.5,1.925-2.569-1.308Z" transform="translate(-484.714 -211.161)" fill="#ffcda8"/><path d="M528,231.64c5.755,3.323,12.036,10.657,14.548,18.654a32.541,32.541,0,0,1,1.376,14.9,83.208,83.208,0,0,1-1,8.537c-.5,2.7-.643,7.806-1.638,10.7s-2.976,2.923-5.521,3.6-6.488-.453-7.769-1.193a34.083,34.083,0,0,1-7.773-7.78c-2.542-3.615-4.528-5.939-5.523-9.977s-1.138-9.318-1.634-12.588-.849-7.28-.992-9.684-1.14-8.21,1.372-13.308S522.238,228.316,528,231.64Z" transform="translate(-490.706 -218.68)" fill="#ffcda8"/><path d="M525.609,282.039h0a27.992,27.992,0,0,1-7.676-18.4c-.141-3.278-2.487-7.016-3.848-10.175s-1.406-11.553-1.406-11.553l-.844-.674c.074,1.066.177,1.968.219,2.617.144,2.4.5,6.421.992,9.684s.642,8.549,1.634,12.588,2.981,6.362,5.523,9.977A36.748,36.748,0,0,0,525.609,282.039Z" transform="translate(-490.687 -215.731)" fill="#d88f69" opacity="0.5"/><path d="M532.174,281.454c2.544-.679,4.529-.709,5.521-3.6s1.141-8,1.638-10.7a83.226,83.226,0,0,0,1-8.537c.039-.616.143-1.414.22-2.416l-1.074-.382s-.045,8.342-1.407,9.929-3.708,2.615-3.846,5.734-.951,10.318-7.679,9.534c-.117-.015-.228-.024-.335-.031A11.982,11.982,0,0,0,532.174,281.454Z" transform="translate(-487.116 -212.108)" fill="#ffcda8" opacity="0.2"/><path d="M527.487,269.045a8.108,8.108,0,0,1-1.127-2.875c0-1.026.543-5.087.654-8.327s-.665-3.562-2.831-5.775A75.8,75.8,0,0,0,515.8,245.3c-1.3-.9-.417-5.119.345-7.62,1.009,1.316,3.459,3.967,9,7.815,8.193,5.684,15.572,4.353,15.572,4.353l-24.879-15.761-.12.974L513.43,232.7c-2.492,5.089-1.5,10.874-1.357,13.274s.5,6.421.992,9.684.642,8.549,1.634,12.588,2.981,6.362,5.523,9.977A34.23,34.23,0,0,0,527.98,286c-.06-3.932-.306-12.794-.306-12.794Z" transform="translate(-490.706 -217.852)" fill="#d9a782" opacity="0.5"/><path d="M544.743,259.553c.681-4.022.639-19.462-16.63-29.216-17.268-10.185-17.31,5.206-16.629,10.014.427,3.022-.662,7.206-.146,8.121a3.034,3.034,0,0,1,.915,1.484c.177.86.467,3.461.467,3.461s.583-6.163.865-7.951a34.879,34.879,0,0,0,.668-5.032c.2-2.971,1.022-4.557,3.086-4.72s7.932,5.23,9.949,6.719l1.69.978c2.019.839,7.883,2.22,9.947,4.766a13.553,13.553,0,0,1,3.086,8.283,53.377,53.377,0,0,0,.667,5.8c.283,2.114.846,8.937.846,8.937s.27-2.278.448-2.931.916-.428.916-.428C545.4,267.52,544.317,262.081,544.743,259.553Z" transform="translate(-490.845 -219.287)" fill="#3f02a8"/><path d="M533.582,241.006l-15.113-8.725-5.43,1.4c20.414,21.558,29.236,15.655,29.236,15.655Z" transform="translate(-490.388 -217.956)" fill="#3f02a8"/><path d="M512.492,270.94v16.252a65.6,65.6,0,0,0,15.515,12.842c5.7,3.293,11.11,4.936,15.95,5.1V289.1l-16.2-2.916Z" transform="translate(-490.524 -208.352)" fill="#d6d1ea"/><path d="M526.091,283.208l-6.614-.1,4.689,10-.222,2.473c.77.5,1.543.982,2.327,1.434.519.3,1.035.578,1.551.85l-.117-2.715,5-4.733Z" transform="translate(-488.788 -205.331)" fill="#c747aa"/><path d="M528.237,287.131l-12.321-19.807-5.075,4.324,11.27,20.789Z" transform="translate(-490.934 -209.25)" fill="#f0ebff"/><path d="M524.718,284.266l12.321-5.58,5.077,10.185-11.27,7.776Z" transform="translate(-487.486 -206.428)" fill="#f0ebff"/><path d="M500,264.527a89.7,89.7,0,0,0,17.257,26.037c-2.034-14.336-.637-21.932-.637-21.932Z" transform="translate(-493.627 -209.945)" fill="#535fe9"/><path d="M553.295,296.656,535.761,280.7a76.192,76.192,0,0,1-.656,21.693C542.544,303.59,548.888,301.514,553.295,296.656Z" transform="translate(-484.906 -205.928)" fill="#535fe9"/></g><path d="M584.24,360.213l-97.427-56.247V300.6l97.427,56.249Z" transform="translate(-473.82 -158.029)" fill="#d6d1ea"/><path d="M584.24,367.755l-97.427-56.248v-3.365l97.426,56.247Z" transform="translate(-473.82 -156.156)" fill="#d6d1ea"/><path d="M584.239,375.3l-97.427-56.249v-3.364l97.427,56.249Z" transform="translate(-473.82 -154.282)" fill="#d6d1ea"/><path d="M584.239,382.838l-97.427-56.247v-3.366l97.427,56.248Z" transform="translate(-473.82 -152.409)" fill="#d6d1ea"/><path d="M542.525,366.3l-55.712-32.165v-3.364l55.712,32.165Z" transform="translate(-473.82 -150.535)" fill="#d6d1ea"/><g transform="translate(30.449 131.377)"><path d="M505.745,291.634l1.53,4.462,3.421,2.549L508.221,300l.584,4.271-3.06-3.624-3.058.092.584-3.6-2.476-4.215,3.42,1.4Z" transform="translate(-500.795 -291.634)" fill="#d81159"/><path d="M516.282,297.717l1.528,4.461,3.422,2.549-2.476,1.356.584,4.271-3.058-3.623-3.059.092.581-3.6-2.474-4.213,3.421,1.4Z" transform="translate(-498.178 -290.122)" fill="#d81159"/><path d="M526.818,303.8l1.527,4.462,3.422,2.549-2.476,1.356.585,4.271-3.059-3.623-3.06.09.584-3.6-2.473-4.215,3.419,1.4Z" transform="translate(-495.56 -288.611)" fill="#d81159"/><path d="M537.354,309.883l1.529,4.462,3.421,2.549-2.476,1.356.586,4.271-3.06-3.623-3.06.091.585-3.6-2.475-4.214,3.42,1.4Z" transform="translate(-492.942 -287.1)" fill="#d6d1ea"/><path d="M547.889,315.965l1.531,4.463,3.42,2.548-2.476,1.357.585,4.271-3.06-3.623-3.059.091.585-3.6-2.475-4.213,3.42,1.4Z" transform="translate(-490.325 -285.589)" fill="#d6d1ea"/></g></g><g transform="translate(320.683 76.006)"><path d="M395.841,347.674,275.921,278.439l0-207.708,119.922,69.235Z" transform="translate(-275.921 -70.731)" fill="#fbfbfb"/><path d="M383.755,244.545,286.327,188.3v-3.365l97.428,56.249Z" transform="translate(-273.336 -42.362)" fill="#d6d1ea"/><path d="M383.754,252.086l-97.427-56.249v-3.364l97.428,56.247Z" transform="translate(-273.336 -40.488)" fill="#d6d1ea"/><path d="M383.754,259.628,286.327,203.38v-3.366l97.427,56.248Z" transform="translate(-273.336 -38.615)" fill="#d6d1ea"/><path d="M383.754,267.169l-97.427-56.248v-3.364L383.754,263.8Z" transform="translate(-273.336 -36.741)" fill="#d6d1ea"/><path d="M342.039,250.628l-55.712-32.165V215.1l55.712,32.164Z" transform="translate(-273.336 -34.868)" fill="#d6d1ea"/><g transform="translate(23.031 43.455)"><path d="M368.509,174.809c0-23.641-16.594-52.386-37.069-64.206s-37.069-2.237-37.071,21.4,16.6,52.389,37.069,64.208S368.509,198.449,368.509,174.809Z" transform="translate(-294.369 -105.54)" fill="#77d2ff"/><path d="M339.352,175.75c-1.808-3.675,0-17.862,0-17.862L313.947,143.22s1.807,16.274,0,17.864c0,0,5.342,11.341,11.848,15.277S339.352,175.75,339.352,175.75Z" transform="translate(-289.505 -96.179)" fill="#d9a782"/><path d="M312.666,132.106s-.514-2.533-1.664-3.373-2.361.141-1.574,5a37.454,37.454,0,0,0,1.876,7.236c.3,1.26,1.483,3.618,2.543,1.64Z" transform="translate(-290.69 -99.845)" fill="#f2a983"/><path d="M312.666,132.106s-.514-2.533-1.664-3.373-2.361.141-1.574,5a37.454,37.454,0,0,0,1.876,7.236c.3,1.26,1.483,3.618,2.543,1.64Z" transform="translate(-290.69 -99.845)" fill="#d88f69" opacity="0.5"/><path d="M312.666,132.106s-.514-2.533-1.664-3.373-2.361.141-1.574,5a37.454,37.454,0,0,0,1.876,7.236c.3,1.26,1.483,3.618,2.543,1.64Z" transform="translate(-290.69 -99.845)" fill="#d9a782" opacity="0.5"/><path d="M327.3,116.368c5.694,3.287,11.9,10.539,14.388,18.448a32.114,32.114,0,0,1,1.36,14.731,81.935,81.935,0,0,1-.983,8.444c-.492,2.664-.635,7.719-1.619,10.579s-2.946,2.889-5.461,3.562-6.418-.448-7.687-1.18a33.825,33.825,0,0,1-7.685-7.694c-2.514-3.576-4.479-5.875-5.461-9.869s-1.126-9.216-1.619-12.448-.836-7.2-.981-9.577-1.126-8.121,1.358-13.163S321.611,113.082,327.3,116.368Z" transform="translate(-290.177 -103.408)" fill="#ffcca7"/><path d="M324.945,166.214h0a27.709,27.709,0,0,1-7.593-18.2c-.139-3.245-2.458-6.94-3.8-10.064s-1.392-11.424-1.392-11.424l-.833-.668c.074,1.055.176,1.946.214,2.589.145,2.377.493,6.347.981,9.577s.638,8.454,1.619,12.448,2.946,6.293,5.461,9.869A36.422,36.422,0,0,0,324.945,166.214Z" transform="translate(-290.157 -100.492)" fill="#d88f69" opacity="0.5"/><path d="M331.439,165.633c2.514-.673,4.479-.7,5.461-3.562s1.127-7.915,1.619-10.579a81.926,81.926,0,0,0,.982-8.444c.04-.607.142-1.4.218-2.388l-1.061-.377s-.045,8.251-1.392,9.819-3.668,2.587-3.8,5.669-.939,10.206-7.593,9.432c-.117-.016-.227-.025-.333-.031A11.872,11.872,0,0,0,331.439,165.633Z" transform="translate(-286.626 -96.909)" fill="#d88f69" opacity="0.2"/><path d="M326.8,154.217a8.026,8.026,0,0,1-1.119-2.846c0-1.014.539-5.031.649-8.235s-.659-3.522-2.8-5.712a74.735,74.735,0,0,0-8.3-6.69c-1.285-.89-1.216-7.134.11-8.991,2.207-3.091,6.7,2.506,12.185,6.311,8.1,5.622,14.266,4.94,14.266,4.94l-22.825-18.146-3.046-.865L312.9,118.27c-2.464,5.032-1.487,10.754-1.343,13.13s.493,6.347.981,9.577.638,8.454,1.619,12.448,2.946,6.293,5.461,9.869a33.81,33.81,0,0,0,7.673,7.685c-.057-3.889-.3-12.653-.3-12.653Z" transform="translate(-290.177 -103.442)" fill="#d88f69" opacity="0.5"/><path d="M343.868,143.974c.673-3.979.633-19.247-16.445-28.894-17.078-10.074-17.122,5.147-16.448,9.9.423,2.989-.653,7.127-.142,8.031a2.993,2.993,0,0,1,.9,1.468c.176.851.462,3.423.462,3.423s.577-6.095.856-7.861a34.706,34.706,0,0,0,.658-4.98c.2-2.938,1.014-4.506,3.054-4.667s7.845,5.171,9.839,6.645l1.67.965c2,.83,7.8,2.195,9.839,4.714a13.4,13.4,0,0,1,3.052,8.191,53.574,53.574,0,0,0,.659,5.741c.28,2.09.836,8.839.836,8.839s.267-2.253.444-2.9.905-.423.905-.423C344.521,151.854,343.443,146.475,343.868,143.974Z" transform="translate(-290.314 -104.008)" fill="#3f02a8"/><path d="M311.972,155.235v16.2a64.611,64.611,0,0,0,15.093,12.427c5.74,3.313,11.173,4.942,16.023,5.056V173.2l-16.023-2.884Z" transform="translate(-289.996 -93.194)" fill="#d6d1ea"/><path d="M325.421,167.37l-6.54-.106,4.638,9.894-.712,2.141c.841.553,1.688,1.085,2.542,1.579.685.4,1.366.763,2.041,1.111l-.375-2.811,4.945-4.68Z" transform="translate(-288.28 -90.206)" fill="#535fe9"/><path d="M327.543,171.248l-12.184-19.589-5.019,4.277,11.143,20.559Z" transform="translate(-290.401 -94.083)" fill="#f0ebff"/><path d="M324.063,168.415l12.187-5.517,5.021,10.072-11.147,7.689Z" transform="translate(-286.992 -91.291)" fill="#f0ebff"/><path d="M299.76,149.539A88.1,88.1,0,0,0,317.429,175.4c-3.108-13.377-1.409-22.6-1.409-22.6Z" transform="translate(-293.03 -94.609)" fill="#1b6c7f"/><path d="M352.167,180.6,335.15,164.889s1.728,11.362-1.483,21.2C341.235,187.472,347.7,185.474,352.167,180.6Z" transform="translate(-284.606 -90.796)" fill="#1b6c7f"/><path d="M327.212,151.212c.82.4,5.031,3.333,5.689,4.717a33.712,33.712,0,0,0,3.072,4.4c.829,1.137,1.622,1.285,3.031.1a20.046,20.046,0,0,0,1.424-3.476c.276-.845,1.835-8.522,1.835-8.522l.458.577s-1.323,5.645-1.084,7.213-.016,9.061-2.444,11.218-.76,8.453-11.982,1.974-9.554-10.849-11.982-15.809-2.682-12.748-2.444-14.041S311.7,131.1,311.7,131.1l.457-.049s1.56,9.479,1.836,10.643,1.145,4.562,1.423,5.116c1.408,2.816,2.2,3.583,3.033,3.406s2.417-.227,3.072-.853S326.394,150.665,327.212,151.212Z" transform="translate(-290.063 -99.202)" fill="#3f02a8"/><path d="M324.878,153.8c1.9,1.05,2.986,3.635,3.756,4.3s2.117.6,2.466-.134-.618-2.713-1.467-3.959-3.689-2.885-4.755-3.59c-1.067-.527-3.909-2.167-4.755-1.9a1.921,1.921,0,0,0-1.464,2.266,5.636,5.636,0,0,0,2.464,2.98C321.892,153.985,322.983,152.658,324.878,153.8Z" transform="translate(-288.353 -94.871)" fill="#f2a983"/></g><g transform="translate(30.449 131.377)"><path d="M305.26,175.966l1.53,4.462,3.42,2.549-2.475,1.356.584,4.271-3.059-3.623-3.059.091.584-3.6-2.475-4.215,3.42,1.4Z" transform="translate(-300.311 -175.966)" fill="#d81159"/><path d="M315.8,182.049l1.529,4.462,3.421,2.547-2.476,1.357.586,4.271-3.06-3.623-3.06.091.584-3.6-2.474-4.213,3.42,1.4Z" transform="translate(-297.693 -174.455)" fill="#d81159"/><path d="M326.333,188.131l1.53,4.462,3.42,2.55-2.476,1.355.585,4.271-3.059-3.623-3.059.09.584-3.6-2.475-4.214,3.421,1.4Z" transform="translate(-295.076 -172.944)" fill="#d81159"/><path d="M336.868,194.214l1.53,4.462,3.42,2.549-2.476,1.356.587,4.272-3.06-3.624-3.059.091.584-3.6-2.474-4.215,3.418,1.4Z" transform="translate(-292.458 -171.433)" fill="#d81159"/><path d="M347.406,200.3l1.529,4.462,3.42,2.549-2.476,1.356.585,4.271-3.058-3.624-3.061.091.585-3.6-2.475-4.215,3.42,1.4Z" transform="translate(-289.841 -169.921)" fill="#d81159"/></g><path d="M336.631,145.187s.523-1.96,1.685-1.467,2.386,2.9,1.591,6.891-1.593,4.207-1.9,5.127-1.5,1.925-2.569-1.31Z" transform="translate(-261.135 -52.619)" fill="#ffcda8"/></g><g transform="translate(445.863 148.006)"><path d="M496.113,405.349,376.191,336.113l0-207.708,119.923,69.236Z" transform="translate(-376.191 -128.405)" fill="#fbfbfb"/><g transform="translate(23.306 43.714)"><path d="M469.38,233.042c0-23.76-16.683-52.653-37.258-64.533s-37.262-2.25-37.262,21.512,16.683,52.655,37.26,64.535S469.38,256.8,469.38,233.042Z" transform="translate(-394.86 -163.42)" fill="#77d2ff"/><path d="M449.583,216.456s1.079,10.046-3.357,14.115l-.4-2.811s-1.592,4.454-9.271,1.975-19.924-12.721-21.443-18.1a29.127,29.127,0,0,0,1.366,4.35s-6.655-10.821-6.427-15.855,5.632-11.684,5.632-11.684l12.8-8.664,7.663,3.251s8.738,8.8,8.841,9.21S449.583,216.456,449.583,216.456Z" transform="translate(-391.087 -159.357)" fill="#00005c"/><path d="M440.658,228.954c-2.645-4.346-.986-14.118-.986-14.118l-18.988-10.964s1.66,11.69-.987,12.98-13.225-.38-13.225-.38l5.042,11.838,35.816,20.679,6.019-5.452S443.307,233.3,440.658,228.954Z" transform="translate(-391.976 -153.371)" fill="#d8a681"/><path d="M428.139,225.595c2.88,1.662,5.1.963,7.71.3s4.426-2.618,5.783-8.753.519-8.962.936-10.947,1.528-12.012-3.179-20.72a29.328,29.328,0,0,0-11.251-11.91c-2.089-1.2-7.212-3.893-11.251-1.082-4.707,3.275-3.594,14.587-3.178,17.052s-.416,4.33.939,12.029,3.176,11.76,5.781,15.43S425.253,223.927,428.139,225.595Z" transform="translate(-390.281 -161.476)" fill="#ffcca7"/><path d="M436.788,206.152c-1.91,1.361-3.705,2.333-4.548,4.7a75.429,75.429,0,0,1-2.307,7.315c.582-.13,1.172-.286,1.783-.441,2.6-.663,4.426-2.618,5.783-8.753a34.421,34.421,0,0,0,.732-4.836A5.507,5.507,0,0,1,436.788,206.152Z" transform="translate(-386.147 -153.305)" fill="#d8a681" opacity="0.2"/><path d="M439.82,188.1s-14.781-11.414-22-16.3a6.359,6.359,0,0,0-.935.543c-4.707,3.275-3.594,14.587-3.178,17.052s-.416,4.33.939,12.029,3.176,11.76,5.781,15.43c2.479,3.491,4.608,6.618,7.3,8.347-.722-4.9-.358-11.658-.372-13.017a35.359,35.359,0,0,0-.879-5.693c-.262-1.124.949-3.9.875-7.251-.654-7.8.9-9.448,1.943-10.937,2.087-2.966,5.134-.679,9.324,7.122C443.411,204.346,439.82,188.1,439.82,188.1Z" transform="translate(-390.281 -161.338)" fill="#d8a681" opacity="0.4"/><path d="M415.117,194.524a20.9,20.9,0,0,1-1.3-3.245c.11,1.395.32,3.116.705,5.308,1.353,7.7,3.176,11.76,5.781,15.43.558.783,1.1,1.548,1.629,2.285-1.119-3.846-1.677-7.506-2.265-9.829C418.823,201.135,417.026,198.088,415.117,194.524Z" transform="translate(-390.151 -156.499)" fill="#d8a681" opacity="0.2"/><path d="M444.364,230.064c-1.638,1.439-5.609,10.5-13.775,5.785-8.092-4.673-12.323-18.222-14.145-21.562-3.769.3-12.994-.511-12.994-.511v.121c6.758,11.818,16.148,22.151,26.535,28.147,10.627,6.135,20.208,6.52,27,2.2C454.5,241.573,447.438,233.938,444.364,230.064Z" transform="translate(-392.726 -150.91)" fill="#535fe9"/><path d="M414.574,188.62s-.482-2.383-1.564-3.173-2.221.132-1.481,4.7a35.229,35.229,0,0,0,1.764,6.808c.286,1.184,1.4,3.4,2.391,1.543Z" transform="translate(-390.778 -158.011)" fill="#d8a681"/><path d="M436.789,201.3s.486-1.824,1.569-1.365,2.217,2.7,1.479,6.413a12.767,12.767,0,0,1-1.765,4.768c-.286.856-1.4,1.793-2.391-1.217Z" transform="translate(-384.719 -154.367)" fill="#ffcca7"/><path d="M429.191,236.833,415.078,213.58H411.55l9.374,23.664q1.434,1.148,2.91,2.19Z" transform="translate(-390.714 -150.959)" fill="#7a86ff"/><path d="M425.247,233.339l5.185,8.426a35.957,35.957,0,0,0,3.476,1.175l8.979-12.484-3.526-4.074Z" transform="translate(-387.311 -147.779)" fill="#7a86ff"/><path d="M428.643,182.586c-.151-.01,6.563,5.954,8.383,14.2S440.5,183.318,428.643,182.586Z" transform="translate(-386.468 -158.659)" fill="#00005c"/><path d="M436.22,188.733s-3.784-6.177-6.313-1.413c-1.569,2.954-3.909,10.975-10.85,9.97,0,0-6.937,4.578-2.558,14.992,0,0-4.095-4.457-4.549-8.768,0,0-1.195,1.683-.343,5.247,0,0-3.582-6.049-2.614-11.771s.854-19.07,4.605-23.278,15.414-7.665,22.98,4.658c0,0,6.94,3.588,10.01,14.015s2.789,10.265,3.242,13.947-.8,16.148,3.014,19.4a16.173,16.173,0,0,1-3.7-5.483s-.057,8.76-5.689,7.115a9.479,9.479,0,0,0,2.957-7.925c-.513-5.04-4.492-13.2-4.378-17.811S441.793,186.648,436.22,188.733Z" transform="translate(-391.39 -161.827)" fill="#190082"/></g><path d="M484.025,302.218,386.6,245.97v-3.364l97.428,56.248Z" transform="translate(-373.606 -100.035)" fill="#d6d1ea"/><path d="M484.025,309.76,386.6,253.512v-3.364L484.026,306.4Z" transform="translate(-373.606 -98.161)" fill="#d6d1ea"/><path d="M484.025,317.3,386.6,261.055v-3.366l97.427,56.249Z" transform="translate(-373.606 -96.288)" fill="#d6d1ea"/><path d="M484.025,324.845,386.6,268.6v-3.365l97.427,56.249Z" transform="translate(-373.606 -94.414)" fill="#d6d1ea"/><path d="M442.311,308.3,386.6,276.137v-3.364l55.713,32.165Z" transform="translate(-373.606 -92.541)" fill="#d6d1ea"/><g transform="translate(30.449 131.378)"><path d="M405.531,233.64l1.53,4.462,3.42,2.549-2.474,1.356.584,4.271-3.06-3.624-3.059.091.584-3.6-2.475-4.215,3.42,1.4Z" transform="translate(-400.581 -233.64)" fill="#d81159"/><path d="M416.068,239.723l1.529,4.461,3.42,2.549-2.475,1.357.585,4.271-3.059-3.624-3.061.091.585-3.6-2.474-4.213,3.42,1.4Z" transform="translate(-397.963 -232.129)" fill="#d81159"/><path d="M426.6,245.806l1.529,4.461,3.421,2.549-2.475,1.356.583,4.271-3.058-3.623-3.059.09.583-3.6-2.475-4.214,3.422,1.4Z" transform="translate(-395.346 -230.618)" fill="#d81159"/><path d="M437.14,251.889l1.529,4.462,3.421,2.549-2.476,1.356.584,4.271L437.14,260.9l-3.06.091.584-3.6-2.474-4.213,3.42,1.4Z" transform="translate(-392.729 -229.107)" fill="#d81159"/><path d="M447.675,257.972l1.53,4.461,3.421,2.549-2.476,1.356.584,4.27-3.059-3.623-3.059.091.584-3.6-2.474-4.215,3.418,1.4Z" transform="translate(-390.111 -227.596)" fill="#d81159"/></g></g><g transform="translate(483.296 49.501)"><g transform="translate(212.348 121.87)"><path d="M576.269,185.146a16.291,16.291,0,0,0,7.347,12.725l26.294,15.181c4.04,2.333,7.347.423,7.347-4.242v-30.36a16.3,16.3,0,0,0-7.347-12.728l-26.294-15.18c-4.044-2.332-7.347-.424-7.347,4.245Z" transform="translate(-576.269 -146.518)" fill="#ffd22e"/><path d="M616.728,209.412v-30.36a16.3,16.3,0,0,0-7.347-12.728l-26.294-15.18a5.493,5.493,0,0,0-4.687-.742h0l4.433-2.717c1.337-.849,3.228-.773,5.312.429l26.294,15.18a16.319,16.319,0,0,1,7.35,12.728l-.005,30.359c0,2.393-.867,4.06-2.257,4.8l-4.865,2.913v0C615.939,213.3,616.728,211.688,616.728,209.412Z" transform="translate(-575.74 -147.12)" fill="#ebac08"/><g transform="translate(6.76 16.573)"><path d="M601.306,170.887l-1.453-2.514-3.341,1.93a23.572,23.572,0,0,1,1.625,2.418Z" transform="translate(-578 -158.414)" fill="#fff"/><path d="M589,166.182l-3.341-5.786-1.453.839,3.17,5.488A4.815,4.815,0,0,1,589,166.182Z" transform="translate(-581.058 -160.396)" fill="#fff"/><path d="M593.511,167.985v-5.8L591.456,161v5.8a10.439,10.439,0,0,1,1.024.472C592.834,167.473,593.168,167.745,593.511,167.985Z" transform="translate(-579.256 -160.246)" fill="#fff"/><path d="M581.684,169.013,585.13,171a9.589,9.589,0,0,1,.33-2.182l-3.775-2.179Z" transform="translate(-581.684 -158.845)" fill="#fff"/><path d="M599.85,177.128a16.547,16.547,0,0,1,.33,2.559l3.444,1.99v-2.371Z" transform="translate(-577.171 -156.239)" fill="#fff"/><path d="M593.766,168.392c-4.13-2.386-7.488-.451-7.488,4.326,0,2.255.979,4.663,1.969,6.982,1.03,2.4,2.356,3.885,2.356,5.979v4.462a3.461,3.461,0,0,0,1.558,2.7l3.215,1.86c.859.493,1.558.089,1.558-.9,0,0,0-3.06,0-4.463,0-2.091,1.331-2.045,2.352-3.26a6.723,6.723,0,0,0,1.976-4.708A16.565,16.565,0,0,0,593.766,168.392Zm4.042,12.438s.936-3.5-3.438-10.585a14.642,14.642,0,0,1,5.728,11.909Z" transform="translate(-580.543 -158.663)" fill="#fff"/></g></g><path d="M406.176,87.525a16.285,16.285,0,0,0,7.346,12.726l26.293,15.181c4.042,2.333,7.351.424,7.351-4.242V80.831A16.3,16.3,0,0,0,439.815,68.1l-26.293-15.18c-4.042-2.333-7.346-.424-7.346,4.242Z" transform="translate(-406.176 -48.898)" fill="#77d2ff"/><path d="M446.636,111.793V81.434a16.3,16.3,0,0,0-7.351-12.728l-26.293-15.18a5.489,5.489,0,0,0-4.684-.743h0l4.429-2.715c1.342-.851,3.23-.774,5.314.429l26.294,15.178A16.312,16.312,0,0,1,451.695,78.4l0,30.359c0,2.394-.87,4.062-2.26,4.8l-4.864,2.911v0C445.844,115.684,446.636,114.071,446.636,111.793Z" transform="translate(-405.646 -49.501)" fill="#51acd9"/><g transform="translate(10.537 17.555)"><path d="M431.22,85.52l-5.613,3.238-5.613-9.72c-3.22.353-5.378,3.166-5.378,7.806L436.6,99.533C436.6,94.893,434.439,89.591,431.22,85.52Z" transform="translate(-414.616 -59.719)" fill="#f5f5f5"/><path d="M425.015,83.176c4.428,2.556,8.017.482,8.017-4.629a17.724,17.724,0,0,0-8.017-13.889C420.588,62.1,417,64.175,417,69.288A17.72,17.72,0,0,0,425.015,83.176Z" transform="translate(-414.024 -63.563)" fill="#f5f5f5"/></g><g transform="translate(159.672 91.598)"><path d="M534.075,160.9a16.291,16.291,0,0,0,7.348,12.726L567.716,188.8c4.041,2.332,7.349.423,7.349-4.242V154.2a16.3,16.3,0,0,0-7.349-12.729l-26.293-15.18c-4.041-2.332-7.348-.424-7.348,4.245Z" transform="translate(-534.075 -122.269)" fill="#9013b9"/><path d="M574.536,185.165V154.805a16.3,16.3,0,0,0-7.35-12.729L540.893,126.9a5.484,5.484,0,0,0-4.684-.74v0l4.43-2.715c1.341-.85,3.228-.773,5.313.429l26.294,15.18a16.32,16.32,0,0,1,7.351,12.728l-.005,30.359c0,2.393-.868,4.061-2.26,4.8l-4.865,2.913v0C573.744,189.053,574.536,187.442,574.536,185.165Z" transform="translate(-533.545 -122.872)" fill="#6a0093"/><path d="M563.619,152.489l-4.879-2.818v-3.82a1.825,1.825,0,0,0-.825-1.428L547.475,138.4c-.454-.262-.825-.047-.825.477v3.818L542,140c-.453-.263-.823-.05-.823.476v19.046a1.832,1.832,0,0,0,.824,1.431l21.623,12.484c.457.261.825.045.825-.478V153.917A1.824,1.824,0,0,0,563.619,152.489Zm-15.342-11.781,8.835,5.1v2.92l-8.835-5.1Zm13.4,26.267-18.161-10.485v-1.081l18.161,10.484Zm0-4.17-18.162-10.488v-1.081l18.162,10.485Zm0-4.172-18.162-10.485v-1.082l18.162,10.485Z" transform="translate(-532.312 -119.044)" fill="#f5f5f5"/></g><g transform="translate(105.664 60.583)"><path d="M490.814,136.054a16.292,16.292,0,0,0,7.346,12.726l26.294,15.182c4.041,2.331,7.348.422,7.348-4.243v-30.36a16.3,16.3,0,0,0-7.348-12.728l-26.294-15.18c-4.041-2.332-7.346-.424-7.346,4.243Z" transform="translate(-490.814 -97.426)" fill="#27e0c0"/><path d="M531.273,160.322v-30.36a16.3,16.3,0,0,0-7.348-12.728l-26.294-15.18a5.488,5.488,0,0,0-4.684-.74h0l4.429-2.717c1.341-.85,3.231-.773,5.315.431L528.983,114.2a16.31,16.31,0,0,1,7.349,12.728l0,30.359c0,2.393-.868,4.061-2.258,4.8l-4.864,2.913v0C530.484,164.21,531.273,162.6,531.273,160.322Z" transform="translate(-490.284 -98.029)" fill="#01ba9a"/><g transform="translate(4.955 22.066)"><path d="M500.188,124.419v5.2c0,1.5.859,3.494,2.574,5.629,3.434,4.27,9,7.483,12.433,7.177a2.506,2.506,0,0,0,2.572-2.659v-5.195l-8.789.787Z" transform="translate(-493.44 -113.539)" fill="#f5f5f5"/><path d="M525.861,135.034l-15.54-19.33-15.538,1.389,15.538,19.329Z" transform="translate(-494.783 -115.704)" fill="#f5f5f5"/></g></g><g transform="translate(52.775 29.467)"><path d="M448.449,111.13a16.288,16.288,0,0,0,7.346,12.726l26.294,15.181c4.042,2.333,7.347.423,7.347-4.242v-30.36a16.3,16.3,0,0,0-7.347-12.728l-26.294-15.18c-4.042-2.332-7.346-.424-7.346,4.243Z" transform="translate(-448.449 -72.502)" fill="#591bc2"/><path d="M488.907,135.4v-30.36a16.3,16.3,0,0,0-7.347-12.728L455.265,77.13a5.49,5.49,0,0,0-4.685-.742h0l4.432-2.715c1.337-.85,3.228-.773,5.315.429l26.292,15.18a16.321,16.321,0,0,1,7.351,12.728l-.006,30.358c0,2.394-.866,4.062-2.257,4.8l-4.865,2.913v0C488.118,139.286,488.907,137.675,488.907,135.4Z" transform="translate(-447.92 -73.105)" fill="#26008f"/><g transform="translate(7.814 19.584)"><path d="M480.069,103.435,454.708,88.792l12.98,14.868Z" transform="translate(-454.708 -88.792)" fill="#f5f5f5"/><path d="M467.688,106.6l-12.98-17.81V108.73l25.361,14.641V103.435Z" transform="translate(-454.708 -88.792)" fill="#f5f5f5"/></g></g></g><g transform="translate(386.084 416.3)"><path d="M633.257,563.084l17.771-10.045L593.51,519.9l7.745-3.4L498.273,457.162c15.5-10.419,23.283-23.353,23.283-36.3V403.412c0-14.278-9.432-28.554-28.3-39.449s-43.595-16.339-68.327-16.339-49.455,5.448-68.32,16.339-28.3,25.171-28.3,39.448v17.452c0,14.281,9.433,28.555,28.3,39.449s43.6,16.342,68.324,16.341c20.3,0,40.593-3.678,57.648-11.017l37.575,21.65-10.079,5.7s-2.144,1.863,1.782,4.124L626.35,563.068S630.032,564.908,633.257,563.084ZM340.4,403.411c0-12.488,8.253-24.978,24.759-34.509s38.137-14.293,59.768-14.3,43.27,4.765,59.776,14.3,24.755,22.022,24.755,34.51-8.252,24.98-24.755,34.508-38.139,14.3-59.773,14.3l-58.9-18.034Z" transform="translate(-328.308 -342.24)" opacity="0.1" style="mix-blend-mode:multiply;isolation:isolate"/><path d="M499.659,359.649c-18.866-10.894-43.6-16.338-68.326-16.338s-49.455,5.447-68.32,16.338-28.3,25.171-28.3,39.449V416.55c0,14.277,9.436,28.555,28.3,39.448s43.6,16.342,68.326,16.341,49.456-5.447,68.322-16.341,28.3-25.168,28.3-39.445V399.1C527.962,384.821,518.527,370.544,499.659,359.649Zm-8.55,73.957c-16.508,9.533-38.139,14.3-59.772,14.3s-43.265-4.763-59.773-14.3-24.756-22.02-24.756-34.508,8.252-24.98,24.756-34.511S409.7,350.3,431.333,350.293s43.27,4.765,59.776,14.293,24.756,22.022,24.756,34.513S507.609,424.078,491.108,433.606Z" transform="translate(-326.717 -343.311)" fill="#51acd9"/><path d="M369.156,373.693c16.507-9.53,38.137-14.293,59.77-14.293s43.27,4.763,59.776,14.293c14.19,8.193,22.261,18.577,24.252,29.263a28.554,28.554,0,0,0,.5-5.246c0-12.49-8.251-24.981-24.756-34.513S450.562,348.9,428.926,348.9s-43.263,4.765-59.77,14.293S344.4,385.219,344.4,397.709a28.78,28.78,0,0,0,.5,5.247C346.9,392.268,354.967,381.886,369.156,373.693Z" transform="translate(-324.31 -341.922)" fill="#91ecff"/><path d="M428.926,350.929c-21.633,0-43.263,4.763-59.77,14.293S344.4,387.243,344.4,399.732s8.252,24.98,24.756,34.51,38.141,14.3,59.773,14.295,43.264-4.764,59.772-14.295,24.756-22.02,24.756-34.51-8.251-24.978-24.756-34.51S450.562,350.928,428.926,350.929Z" transform="translate(-324.31 -341.418)" fill="#77d2ff" opacity="0.3"/><path d="M484.476,414.829c-15.816,7.766-36.544,11.65-57.271,11.649s-41.453-3.883-57.27-11.649A56.771,56.771,0,0,1,354.1,403.835a54.862,54.862,0,0,0,16.5,13.944c15.446,8.918,35.684,13.374,55.924,13.374S467,426.7,482.442,417.779a61.307,61.307,0,0,0,12.043-8.927A66.76,66.76,0,0,1,484.476,414.829Z" transform="translate(-321.901 -328.275)" fill="#fff" opacity="0.5"/><path d="M499.659,359.649c-18.866-10.894-43.6-16.338-68.326-16.338s-49.455,5.447-68.32,16.338-28.3,25.171-28.3,39.449,9.436,28.554,28.3,39.448,43.6,16.342,68.326,16.339,49.456-5.446,68.322-16.339,28.3-25.168,28.3-39.446S518.527,370.544,499.659,359.649Zm-8.55,73.957c-16.508,9.533-38.139,14.3-59.772,14.3s-43.265-4.763-59.773-14.3-24.756-22.02-24.756-34.508,8.252-24.98,24.756-34.511S409.7,350.3,431.333,350.293s43.27,4.765,59.776,14.293,24.756,22.022,24.756,34.513S507.609,424.078,491.108,433.606Z" transform="translate(-326.717 -343.311)" fill="#91ecff"/><path d="M488.693,365.222c-16.505-9.531-38.139-14.294-59.776-14.293s-43.263,4.763-59.769,14.293c-16.034,9.26-24.257,21.313-24.713,33.443a29.363,29.363,0,0,0,.459,3.788c1.993-10.688,10.064-21.07,24.253-29.263,16.507-9.53,38.137-14.293,59.769-14.293s43.27,4.763,59.776,14.293c14.19,8.193,22.261,18.577,24.252,29.263a29.145,29.145,0,0,0,.459-3.788C512.948,386.535,504.728,374.482,488.693,365.222Z" transform="translate(-324.302 -341.418)" fill="#3893c0"/><path d="M497.468,359.753c-18.4-10.619-42.508-15.929-66.617-15.929s-48.215,5.311-66.608,15.931-27.593,24.539-27.593,38.458,9.2,27.839,27.593,38.459,42.5,15.934,66.612,15.932,48.216-5.31,66.613-15.932,27.588-24.538,27.588-38.458S515.86,370.374,497.468,359.753Zm-6.841,73.726c-16.508,9.533-38.139,14.3-59.772,14.3s-43.265-4.763-59.773-14.3-24.756-22.02-24.756-34.508,8.252-24.98,24.756-34.511,38.137-14.291,59.77-14.293,43.27,4.765,59.776,14.293,24.756,22.022,24.756,34.513S507.127,423.95,490.627,433.478Z" transform="translate(-326.236 -343.184)" fill="#77d2ff"/><path d="M488.7,365.222c-16.505-9.531-38.139-14.294-59.776-14.293s-43.263,4.763-59.77,14.293S344.4,387.243,344.4,399.732c0,12.052,7.707,24.1,23.076,33.488,10.574-13.965,28.252-31.932,56.183-46.629,22.666-11.922,50.1-16.083,71.269-17.346A73.61,73.61,0,0,0,488.7,365.222Z" transform="translate(-324.31 -341.418)" fill="#fff" opacity="0.3"/><g transform="translate(33.996 13.046)" opacity="0.7"><path d="M416.251,354.027c-16.664,1.219-32.784,5.508-45.579,12.9a56.349,56.349,0,0,0-15.133,12.282,73.349,73.349,0,0,1,9.764-5.584c12.808-6.129,28.633-9.927,45.184-11.408A84.239,84.239,0,0,1,416.251,354.027Z" transform="translate(-355.539 -353.695)" fill="#fff"/><path d="M467.913,366.991c-14.574-8.417-33.46-12.82-52.557-13.23a51.8,51.8,0,0,0-4.514,7.828c.633-.007,1.265-.021,1.9-.021,22.145,0,44.285,4.04,61.178,12.12a76.01,76.01,0,0,1,8.272,4.584A57.562,57.562,0,0,0,467.913,366.991Z" transform="translate(-341.801 -353.761)" fill="#fff"/></g><path d="M506.829,443.37l-36.75-21.038c-1.395-.8-3.318-.675-5.437.548a17.059,17.059,0,0,0-7.716,13.368c0,2.476.873,4.211,2.285,5.011L495.962,462.3c1.395.789,3.313.664,5.432-.556a17.06,17.06,0,0,0,7.718-13.368C509.111,445.9,508.235,444.173,506.829,443.37Z" transform="translate(-296.356 -323.806)" fill="#77d2ff"/><path d="M501.8,444.189a17.06,17.06,0,0,1-7.718,13.368c-2.119,1.22-4.037,1.345-5.432.556-1.412-.8-2.287-2.537-2.287-5.012a17.056,17.056,0,0,1,7.719-13.366c2.119-1.226,4.04-1.346,5.436-.552S501.8,441.717,501.8,444.189Z" transform="translate(-289.044 -319.619)" fill="#b8bfc3"/><path d="M458,429.254a14.244,14.244,0,0,0-1.076,5.148c0,2.476.873,4.211,2.285,5.011l36.751,21.041c1.395.789,3.313.664,5.432-.556a14.16,14.16,0,0,0,3.823-3.386Z" transform="translate(-296.356 -321.961)" fill="#51acd9"/><path d="M619.322,499.282,506.09,435.789c-2.6-1.481-6.182-1.256-10.137,1.029A26.546,26.546,0,0,0,483.1,459.579c0,4.617,1.63,7.85,4.265,9.341l111.7,65.648c2.6,1.473,6.175,1.243,10.123-1.036,7.944-4.587,14.386-15.741,14.386-24.916C623.573,504.007,621.948,500.776,619.322,499.282Z" transform="translate(-289.854 -320.57)" fill="#591bc2"/><path d="M484.375,448.2a26.656,26.656,0,0,0-1.273,8.06c0,4.617,1.63,7.85,4.265,9.341l111.7,65.648c2.6,1.473,6.175,1.243,10.123-1.036a26.1,26.1,0,0,0,6.874-5.985Z" transform="translate(-289.854 -317.254)" fill="#3f02a8"/><path d="M601.346,495.982c0,9.175-6.442,20.329-14.385,24.916-3.949,2.28-7.524,2.509-10.123,1.036-2.633-1.492-4.262-4.725-4.262-9.341,0-9.175,6.438-20.328,14.386-24.917,3.955-2.282,7.537-2.508,10.135-1.029C599.721,488.142,601.346,491.372,601.346,495.982Z" transform="translate(-267.627 -307.936)" fill="#7334dc"/><path d="M601.252,496.829c0,8.51-5.975,18.859-13.343,23.113-3.662,2.113-6.977,2.326-9.391.96-2.442-1.382-3.955-4.383-3.955-8.665,0-8.509,5.975-18.855,13.346-23.111,3.668-2.12,6.99-2.327,9.4-.955C599.746,489.559,601.252,492.557,601.252,496.829Z" transform="translate(-267.133 -307.54)" fill="#3f02a8"/></g><g transform="translate(95.736 234.305)"><path d="M201.894,339.548,96.453,400.423l-.716,1.1,0-142.018.712-1.1,105.44-60.873Z" transform="translate(-95.736 -197.531)" fill="#a12184"/><path d="M225.047,214.088,123.011,278.094l-26.7-16.323L201.75,200.9Z" transform="translate(-95.594 -196.695)" fill="#d6d1ea"/><path d="M121.458,261.387l-1.176-.046L95.74,247.171l0,142.018,24.545,14.17,1.179.045ZM108.009,363.953a12.23,12.23,0,0,1-5.526-9.573c0-3.519,2.477-4.949,5.526-3.191a12.233,12.233,0,0,1,5.527,9.573C113.536,364.282,111.057,365.712,108.009,363.953Z" transform="translate(-95.736 -185.2)" fill="#a12184"/><path d="M221.783,351.814,116.342,412.688l0-142.017L221.782,209.8Z" transform="translate(-90.618 -194.484)" fill="#c747aa"/><path d="M119.1,399.044l.517-.3V256.727l-.517.3Z" transform="translate(-89.933 -182.826)" fill="#a12184"/><path d="M116.574,258.567l-1.176-.045V400.539l1.179.045Z" transform="translate(-90.852 -182.38)" fill="#e161c4"/><g transform="translate(3.476 73.072)" opacity="0.1" style="mix-blend-mode:multiply;isolation:isolate"><path d="M116.395,334.574c0,1.446-1.024,2.037-2.277,1.315L100.8,328.2a5.046,5.046,0,0,1-2.28-3.944l0-66.568c0-1.446,1.024-2.039,2.276-1.315l13.319,7.688A5.056,5.056,0,0,1,116.4,268Z" transform="translate(-98.52 -256.063)"/></g><g transform="translate(3.238 72.952)"><path d="M116.2,334.477c0,1.448-1.024,2.039-2.277,1.316l-13.318-7.69a5.047,5.047,0,0,1-2.277-3.945V257.591c0-1.447,1.025-2.039,2.278-1.316l13.318,7.689a5.056,5.056,0,0,1,2.277,3.944Z" transform="translate(-98.33 -255.967)" fill="#fbfbfb"/></g><path d="M106.794,329.437c-1.986-1.149-3.768-1.186-5.012-.335,1.216-.682,2.883-.576,4.724.487a14.885,14.885,0,0,1,6.733,11.661c0,3.094-1.568,4.851-3.836,4.794,2.461.238,4.193-1.562,4.193-4.83A15.037,15.037,0,0,0,106.794,329.437Z" transform="translate(-94.234 -164.992)" opacity="0.2" style="mix-blend-mode:multiply;isolation:isolate"/><path d="M106.667,330.641c-3.049-1.758-5.526-.328-5.526,3.191a12.23,12.23,0,0,0,5.526,9.573c3.047,1.759,5.527.328,5.527-3.191A12.233,12.233,0,0,0,106.667,330.641Z" transform="translate(-94.393 -164.651)" opacity="0.4" style="mix-blend-mode:multiply;isolation:isolate"/><path d="M106.905,329.558c-3.715-2.145-6.73-.406-6.731,3.888a14.884,14.884,0,0,0,6.733,11.661c3.718,2.146,6.732.4,6.732-3.888A14.884,14.884,0,0,0,106.905,329.558Zm0,14.157a12.23,12.23,0,0,1-5.526-9.573c0-3.519,2.477-4.949,5.526-3.191a12.233,12.233,0,0,1,5.527,9.573C112.433,344.043,109.954,345.474,106.907,343.715Z" transform="translate(-94.633 -164.961)" fill="#d6d1ea"/><g transform="translate(5.54 76.587)"><path d="M113.639,268.5l-13.464-7.773v-1.851l13.464,7.773Z" transform="translate(-100.173 -258.878)" fill="#d6d1ea"/><path d="M113.638,320.364l-13.465-7.773V310.74l13.465,7.773Z" transform="translate(-100.174 -245.995)" fill="#d6d1ea"/><g transform="translate(0.002 9.875)"><path d="M113.308,274.648l-13.133-7.582v-.277l13.133,7.581Z" transform="translate(-100.175 -266.789)" fill="#d6d1ea"/></g><g transform="translate(0.002 17.151)"><path d="M113.308,280.477l-13.133-7.583v-.279l13.131,7.583Z" transform="translate(-100.175 -272.616)" fill="#d6d1ea"/></g><g transform="translate(0.002 24.429)"><path d="M113.306,286.307l-13.131-7.581v-.28l13.133,7.581Z" transform="translate(-100.175 -278.446)" fill="#d6d1ea"/></g><g transform="translate(0.002 31.706)"><path d="M113.306,292.137l-13.131-7.583v-.278l13.133,7.582Z" transform="translate(-100.175 -284.275)" fill="#d6d1ea"/></g><g transform="translate(0.002 38.983)"><path d="M113.308,297.967l-13.133-7.583V290.1l13.133,7.581Z" transform="translate(-100.175 -290.104)" fill="#d6d1ea"/></g><g transform="translate(0.002 46.262)"><path d="M113.306,303.795l-13.131-7.581v-.278l13.131,7.581Z" transform="translate(-100.175 -295.935)" fill="#d6d1ea"/></g><g transform="translate(0.002 53.538)"><path d="M113.306,309.623l-13.131-7.581v-.278l13.131,7.582Z" transform="translate(-100.175 -301.763)" fill="#d6d1ea"/></g><g transform="translate(0.002 60.816)"><path d="M113.306,315.451l-13.131-7.579v-.279l13.131,7.581Z" transform="translate(-100.175 -307.593)" fill="#d6d1ea"/></g></g><g transform="translate(28.071 16.756)"><path d="M224.379,352.969l-105.44,60.875-.717,1.1,0-142.019.712-1.1,105.44-60.872Z" transform="translate(-118.221 -210.953)" fill="#26008f"/><path d="M247.532,227.509,145.5,291.515l-26.7-16.323,105.442-60.873Z" transform="translate(-118.079 -210.117)" fill="#d6d1ea"/><path d="M143.943,274.806l-1.176-.045-24.543-14.17,0,142.019,24.545,14.17,1.178.044ZM130.494,377.374a12.231,12.231,0,0,1-5.527-9.573c0-3.519,2.478-4.95,5.527-3.191a12.233,12.233,0,0,1,5.527,9.573C136.021,377.7,133.542,379.133,130.494,377.374Z" transform="translate(-118.221 -198.621)" fill="#26008f"/><path d="M244.268,365.235,138.827,426.109l0-142.017,105.442-60.873Z" transform="translate(-113.103 -207.906)" fill="#3f02a8"/><path d="M141.583,412.465l.517-.3V270.147l-.516.3Z" transform="translate(-112.418 -196.247)" fill="#26008f"/><path d="M139.059,271.987l-1.176-.045V413.961l1.179.044Z" transform="translate(-113.337 -195.801)" fill="#591bc2"/><g transform="translate(3.476 73.071)" opacity="0.1" style="mix-blend-mode:multiply;isolation:isolate"><path d="M138.881,347.995c0,1.446-1.026,2.037-2.28,1.315l-13.317-7.69a5.05,5.05,0,0,1-2.28-3.945l0-66.567c0-1.447,1.024-2.037,2.276-1.316l13.319,7.69a5.051,5.051,0,0,1,2.278,3.943Z" transform="translate(-121.005 -269.483)"/></g><g transform="translate(3.238 72.952)"><path d="M138.687,347.9c0,1.448-1.024,2.039-2.277,1.316l-13.318-7.69a5.051,5.051,0,0,1-2.277-3.945V271.011c0-1.446,1.025-2.037,2.278-1.315l13.319,7.689a5.056,5.056,0,0,1,2.276,3.944Z" transform="translate(-120.815 -269.388)" fill="#fbfbfb"/></g><path d="M129.279,342.858c-1.986-1.149-3.768-1.185-5.012-.335,1.217-.682,2.883-.576,4.724.487a14.887,14.887,0,0,1,6.733,11.663c0,3.092-1.568,4.85-3.836,4.793,2.461.24,4.193-1.562,4.193-4.83A15.033,15.033,0,0,0,129.279,342.858Z" transform="translate(-116.719 -178.414)" opacity="0.2" style="mix-blend-mode:multiply;isolation:isolate"/><path d="M129.152,344.062c-3.049-1.759-5.527-.328-5.527,3.191a12.232,12.232,0,0,0,5.527,9.573c3.047,1.759,5.527.327,5.527-3.191A12.233,12.233,0,0,0,129.152,344.062Z" transform="translate(-116.879 -178.072)" opacity="0.4" style="mix-blend-mode:multiply;isolation:isolate"/><path d="M129.391,342.979c-3.715-2.145-6.729-.406-6.732,3.889a14.878,14.878,0,0,0,6.733,11.659c3.718,2.147,6.731.406,6.731-3.885A14.887,14.887,0,0,0,129.391,342.979Zm0,14.157a12.232,12.232,0,0,1-5.527-9.573c0-3.519,2.478-4.95,5.527-3.191a12.233,12.233,0,0,1,5.527,9.573C134.919,357.463,132.439,358.895,129.392,357.136Z" transform="translate(-117.118 -178.383)" fill="#d6d1ea"/><g transform="translate(5.541 76.586)"><path d="M136.124,281.923l-13.464-7.773V272.3l13.464,7.773Z" transform="translate(-122.659 -272.299)" fill="#d6d1ea"/><path d="M136.124,333.785l-13.464-7.773v-1.851l13.464,7.773Z" transform="translate(-122.659 -259.416)" fill="#d6d1ea"/><g transform="translate(0.002 9.875)"><path d="M135.792,288.069l-13.132-7.582v-.277l13.132,7.581Z" transform="translate(-122.661 -280.21)" fill="#d6d1ea"/></g><g transform="translate(0.002 17.151)"><path d="M135.792,293.9l-13.132-7.583v-.278l13.131,7.582Z" transform="translate(-122.661 -286.038)" fill="#d6d1ea"/></g><g transform="translate(0.002 24.429)"><path d="M135.792,299.729l-13.131-7.581v-.28l13.132,7.581Z" transform="translate(-122.661 -291.867)" fill="#d6d1ea"/></g><g transform="translate(0.002 31.707)"><path d="M135.792,305.557l-13.131-7.583V297.7l13.132,7.581Z" transform="translate(-122.661 -297.697)" fill="#d6d1ea"/></g><g transform="translate(0.002 38.983)"><path d="M135.792,311.388l-13.132-7.583v-.28l13.132,7.582Z" transform="translate(-122.661 -303.525)" fill="#d6d1ea"/></g><g transform="translate(0.002 46.262)"><path d="M135.792,317.216l-13.131-7.581v-.279l13.131,7.581Z" transform="translate(-122.661 -309.355)" fill="#d6d1ea"/></g><g transform="translate(0.002 53.539)"><path d="M135.792,323.044l-13.131-7.582v-.277l13.131,7.581Z" transform="translate(-122.661 -315.185)" fill="#d6d1ea"/></g><g transform="translate(0.002 60.816)"><path d="M135.792,328.872l-13.131-7.579v-.279l13.131,7.581Z" transform="translate(-122.661 -321.014)" fill="#d6d1ea"/></g></g></g></g><g transform="translate(254.068 275.27)"><path d="M232.156,477.592c-18.92,10.921-8.992,34.36,22.169,52.352s71.759,23.723,90.68,12.8,8.991-34.363-22.171-52.355S251.076,466.67,232.156,477.592Z" transform="translate(-222.562 -170.298)" fill="#fff" opacity="0.1"/><g transform="translate(23.206)"><path d="M309.75,459.887c-2.283,11.423-4.669,35.161-6.653,45.59s-2.782,18.472-1.886,25.126a102.56,102.56,0,0,0,3.843,15.434s3.7,5.238.633,6.685-5.6-1.358-8.579-5.693-12.512-12.96-14.273-14.723c.967-.964,1.789-1.5,2.19-6.472s-3.976-27.213-5.267-36.151,6.059-27.513,7.647-33.051-.792-13.73-3.177-21.973-3.479-34.067-3.479-34.067-4.864-28.7-1.19-36.848,33.967-4.371,38.436,1.011,5.069,26.7,3.476,41.994S312.036,448.466,309.75,459.887Z" transform="translate(-231.95 -198.377)" fill="#cc9a75"/><path d="M261.056,506.083l-.723,7.589s3.7.361,2.8,3.339-3.881.995-4.333-1.446-2.8-4.152-4.426-5.055-8.491-4.428-8.491-4.428a41.222,41.222,0,0,0,2.739-7.13c.745-3.135-1.523-21.691-2.411-32.9s9.1-25.971,12.542-35.073-1.444-29.634-2.775-48.614,5.773-29.746,5.773-29.746l30.3,12.987v18.867s-3.277,17.713-6.549,32.966-10.321,28.192-12.431,33.3-8.215,28.414-9.942,36.739A129.665,129.665,0,0,0,261.056,506.083Z" transform="translate(-239.975 -199.969)" fill="#cc9a75"/><path d="M289.2,487.487c3.051-11.266,7.508-34.851,4.341-50.81s4.235-77.412,4.235-77.412h.006c7.99.765,15.681,2.924,17.761,5.432,4.469,5.382,5.069,26.7,3.476,41.994s-9.433,41.715-11.719,53.137-4.669,35.161-6.653,45.59-2.782,18.472-1.886,25.126a102.552,102.552,0,0,0,3.843,15.434s3.7,5.238.633,6.685-5.6-1.358-8.579-5.693a54.362,54.362,0,0,0-5.411-6.15c.16-.658.372-1.412.658-2.291,1.643-5.047-.119-7.863,0-8.8S286.153,498.753,289.2,487.487Z" transform="translate(-229.504 -198.317)" fill="#b3815c"/><path d="M254.408,482.857c.881-15.863,3.146-29.333,5.288-34.494s8.181-13.093,8.937-25.809c.536-9.032,2.386-45.642,3.412-66.1l19.126,8.2V383.52s-3.277,17.713-6.549,32.966-10.321,28.192-12.43,33.3-8.215,28.414-9.943,36.739a129.662,129.662,0,0,0-2.071,18.609l-.723,7.589s3.7.361,2.8,3.339-3.881,1-4.333-1.446-2.8-4.152-4.426-5.055c-.7-.393-2.392-1.277-4.081-2.154A91.75,91.75,0,0,0,254.408,482.857Z" transform="translate(-239.098 -199.015)" fill="#b3815c"/><path d="M283.2,276.106l.245.369,9.852,5.064,2.644,8.07-15.876-7.166Z" transform="translate(-231.482 -218.976)" fill="#fff"/><path d="M324.486,338.232l-22.642-10.824,4.992-8.907Z" transform="translate(-226.073 -208.444)" fill="#c747aa"/><path d="M328.433,320.5s.514-7.889,0-8.4-12.19-3.074-12.19-3.074Z" transform="translate(-222.496 -210.799)" fill="#ffcda8"/><path d="M326.635,311.4a.651.651,0,0,1,.184.1c.514.512,0,8.4,0,8.4l-4.076-3.835C324.1,314.338,325.45,312.755,326.635,311.4Z" transform="translate(-220.881 -210.207)" fill="#d9a782"/><path d="M283.372,497.826s-5.6,2.62-7,7,1.762,8.081,2.844,12.148S280.3,531.7,280.3,531.7l1.9-.545s-.18-9.934,1.173-12.192,4.788-2.166,7.588,0,10.84,10.027,15.443,10.027,19.419-12.553,18.7-16.076-19.51-1.356-19.51-1.356,3.7,5.238.633,6.685-5.6-1.358-8.579-5.693S285.133,499.589,283.372,497.826Z" transform="translate(-232.488 -163.896)" fill="#190082"/><path d="M247.056,475.816s6.866,3.523,8.491,4.428,3.974,2.617,4.426,5.055,3.432,4.427,4.333,1.446-2.8-3.34-2.8-3.34l.723-7.589s4.607-1.805,5.421-1.262.449,16.346-2.8,19.6c-4.516,4.519-11.291-.813-13.1-.722a7.414,7.414,0,0,0-5.148,5.147c-1.444,4.427-2.26,8.037-2.26,8.037l-1.805-.541s2.348-8.761,1.173-12.555-3.07-6.952-2.438-10.024S247.056,475.816,247.056,475.816Z" transform="translate(-241.15 -169.702)" fill="#190082"/><path d="M326.819,371.8s1.978,7.141,2.472,26.444-8.263,44.882-8.263,44.882-8.216,5.114-21.328,3.474c-6.1-.764-39-14.449-42.61-23.53,0,0-4.1-37.434-4.1-49.233s9.507-26.55,9.507-26.55S320.992,346.981,326.819,371.8Z" transform="translate(-238.208 -201.294)" fill="#9088f1"/><path d="M326.819,371.8s1.978,7.141,2.472,26.444-8.263,44.882-8.263,44.882-6.066,3.769-16.087,3.794c1.247-16.5.031-37.669-1.3-43.167-1.653-6.78-16.494-8.98-31.52-14.11A46.89,46.89,0,0,1,253.064,377c-.046-1.188-.071-2.255-.071-3.166,0-11.8,9.507-26.55,9.507-26.55S320.992,346.981,326.819,371.8Z" transform="translate(-238.208 -201.294)" fill="#766ed7"/><path d="M317.776,299.591s7.195,20.574,6.473,27.193-4.408,21.438-3.21,27.911,8.821,41.293,10.118,49.492c0,0-3.226,5.875-23.7,7.17s-47.254-11-54.736-20.636c0,0,5.2-17.463,9.516-25.665S274.9,347.5,272.6,340.021s-22.874-41.58-23.45-49.924,2.3-15.539,6.762-17.409,20.623,1.006,20.623,1.006a141.517,141.517,0,0,1,22.092,10.59C306.1,288.725,315.107,295.616,317.776,299.591Z" transform="translate(-239.182 -219.982)" fill="#fe61ca"/><path d="M287.165,319.485c.28-8.944,12.962-17.947,22.038-23.259,1.9,5.766,6.147,19.4,5.585,24.554-.718,6.618-4.408,21.438-3.21,27.911s8.821,41.293,10.118,49.492c0,0-3.226,5.875-23.7,7.17a67.229,67.229,0,0,1-7.729.017C299.255,374.435,286.749,332.933,287.165,319.485Z" transform="translate(-229.722 -213.978)" fill="#c747aa"/><path d="M296.982,288.476c2.838-.744,14.314,6.258,20.216,15.178s22.66,24.38,24.817,28.845,2.547,13.889-1.15,16.261c-5.377,3.451-16.775-5.095-22.817-10.275s-22.217-17.494-27.253-29.435S290.941,290.058,296.982,288.476Z" transform="translate(-229.323 -215.916)" fill="#fe61ca"/><g transform="translate(12.405)"><path d="M287.661,303.232s-.733-11.8,1.027-16.162,3.282-5.087,5.265-5.548c1.536-.358,4.688.522,8.246-6.578s2.22-10.128,2.82-13.153,1.511-5.136,1-8.064-1.486-13.834-10.069-17.552-19.063-3.077-24.8.236-10.251,11.036-10.208,19.07,4.421,13.046,4.489,18.519-3.3,12.2-6.577,16.438,3.539,10.208,8.2,12.381C277.474,307.668,287.661,303.232,287.661,303.232Z" transform="translate(-249.37 -229.524)" fill="#ffcda8"/><path d="M289.74,268.486a102,102,0,0,1-.26-10.989l-9.93,7.471s.755,20.251-5.052,29.046a5.368,5.368,0,0,0-.63,5.145,27.737,27.737,0,0,0,9.947-1.851s-.733-11.8,1.027-16.162,3.282-5.087,5.265-5.548a10.893,10.893,0,0,0,3.256-.71A9.565,9.565,0,0,1,289.74,268.486Z" transform="translate(-245.524 -223.599)" fill="#d9a782"/><path d="M289.6,297.867c-2.441-15.909-7.786-27.479-2.146-33.166l1.318-1.954c.119-.024.737,2.195,2.528,1.71.9-.243,2.074-5.074,3.127-7.838.255-.664.616-1.524,1.027-2.457a83.911,83.911,0,0,1-7.074,6.588l-.474-.509s8.366-6.989,11.248-12.7c0,0-5.956,7.422-9.638,9.5s-8.061,4.433-6.451,15.3c1.275,8.6,6.338,22.963,6.01,32.651A17.123,17.123,0,0,0,289.6,297.867Z" transform="translate(-243.228 -226.072)" fill="#6d2d3d"/><path d="M303.8,237.77c-3.346-4.065-9.153-8.564-22.355-7.165-6.363.675-11.5,5.562-14.047,9.059-2.854,3.916-5.453,9.534-4.79,20.79s.067,20.775-7.222,28.035c-4.059,4.04-6.041,15.482-2.333,22.408a20.71,20.71,0,0,1,.37-14.634c.044-.109.071-.171.071-.171-.027.057-.047.114-.071.171a21.506,21.506,0,0,0,1.268,16.961,9.48,9.48,0,0,0,2.662,2.056c9.558,4.931,21.865,8.614,24.606,8.352,2.155-.2,5.065-1.692,7.8-4.039a25.93,25.93,0,0,1-3.151,3.318c5.723-2.493,8.7-9.04,9.926-12.547a34.8,34.8,0,0,1-2.3,7.808s3.762-6.1,4-10.986-2.216-12.862-2.216-12.862v0c-2.507-11.9-5.367-20.644-.7-25.354l1.318-1.954c.119-.024.737,2.195,2.528,1.71.9-.243,2.074-5.073,3.127-7.838.255-.664.615-1.524,1.027-2.457C314.536,249.108,303.8,237.77,303.8,237.77Z" transform="translate(-251.087 -230.344)" fill="#9013b9"/><path d="M306.295,248.344c-2.439,4.1-6.736,5.11-11.748,9.853s-4.91,16.085-1.836,26.415a64.394,64.394,0,0,1,2.753,18.754,44.984,44.984,0,0,0-4.206-16.428s3.891,10.854,1.794,18.227a19.037,19.037,0,0,1-8.694,10.8c2.487-2.635,4.684-7.905,4.684-7.905-4.08,6.564-9.076,8.158-9.076,8.158A32.488,32.488,0,0,0,288.2,287.1c.619,26.956-16.319,27.986-16.319,27.986l1.372-2.638c-.936,1.011-3.167,2.719-4.7,1.689s-2.668-4.509-2.668-4.509l-.141,3.73c-1.645-.92-3.7-4.848-3.7-4.848l-.117,3.134c-5.492-8.022-.758-24.795-.758-24.795-5.632,13.037-2.245,23.263-2.245,23.263-4.332-3.975-4-12.929-4-12.929a13.389,13.389,0,0,0-.248,6.565c-.888-2.2-2.217-8,2.8-16.705s5.627-14.356,5.627-14.356a33.947,33.947,0,0,1-2.73,6.173,31.092,31.092,0,0,0,2.441-16.64h0c-.01,8.562-1.526,15.92-7.428,21.8-4.059,4.04-6.041,15.482-2.333,22.408a20.71,20.71,0,0,1,.37-14.634c.044-.109.071-.171.071-.171-.027.057-.047.114-.071.171a21.506,21.506,0,0,0,1.268,16.961,9.481,9.481,0,0,0,2.662,2.056c9.558,4.931,21.865,8.614,24.606,8.352,2.155-.2,5.065-1.692,7.8-4.039a25.928,25.928,0,0,1-3.151,3.318c5.723-2.493,8.7-9.04,9.926-12.547a34.8,34.8,0,0,1-2.3,7.808s3.762-6.1,4-10.986-2.216-12.863-2.216-12.863v.005c-2.507-11.9-5.367-20.644-.7-25.354l1.318-1.954c.119-.024.737,2.195,2.528,1.71.9-.243,2.074-5.074,3.127-7.838.255-.664.615-1.524,1.027-2.457l-3.568,1.719A22.709,22.709,0,0,0,306.295,248.344Z" transform="translate(-251.087 -225.873)" fill="#7700a0"/><path d="M288.021,269.072c-.321.514-4.012.826-3.394-5.534s4.88-7.849,4.776-3.2A35.467,35.467,0,0,1,288.021,269.072Z" transform="translate(-242.772 -223.567)" fill="#ffcda8"/><path d="M279.17,230.6c-6.363.675-11.5,5.562-14.047,9.059-2.854,3.916-5.453,9.534-4.79,20.79.132,2.208.213,4.35.2,6.421a51.145,51.145,0,0,1,1.337,5.015c.744,4.431-1.094,14.836-1.094,14.836,1.246-2.838,2.04-9.789,2.04-9.789.911,3.98-1.715,17.291-1.715,17.291,2.713-4.672,5.17-15.959,4.622-31.58s9.721-25.505,13.664-28.007a20.371,20.371,0,0,1,14.332-2.627C290.237,230.639,285.575,229.926,279.17,230.6Z" transform="translate(-248.816 -230.344)" fill="#7700a0"/><g transform="translate(14.995 15.633)"><path d="M274.918,242.866a12.938,12.938,0,0,0-1.644,1.9,20.668,20.668,0,0,0-2.974,5.914,23.018,23.018,0,0,0-.928,4.341,36.652,36.652,0,0,0-.147,4.981c.056,3.482.182,7.215.162,10.974,0,7.512-.65,14.983-2.241,20.326a25.694,25.694,0,0,1-2.59,6.152,16.045,16.045,0,0,1-1.458,2.057,16.527,16.527,0,0,0,1.406-2.138,26.484,26.484,0,0,0,2.4-6.256,57.051,57.051,0,0,0,1.5-9.337c.3-3.447.406-7.132.419-10.805s-.065-7.364-.074-10.839a37.466,37.466,0,0,1,.223-5.027A22.7,22.7,0,0,1,270,250.7a20.353,20.353,0,0,1,3.178-5.952A13,13,0,0,1,274.918,242.866Z" transform="translate(-263.098 -242.866)" fill="#7700a0"/></g><g transform="translate(22.844 24.23)"><path d="M269.385,304.3a73.941,73.941,0,0,0,2.935-8.115,57.949,57.949,0,0,0,1.944-8.662,32.213,32.213,0,0,0,.312-5c-.055-1.7-.24-3.466-.363-5.217a140.321,140.321,0,0,1-.639-19.211,26.83,26.83,0,0,1,1.006-6.19,8.629,8.629,0,0,1,.975-2.156,8.68,8.68,0,0,0-.9,2.22,27.775,27.775,0,0,0-.805,6.248,177.039,177.039,0,0,0,.92,19.043c.127,1.729.3,3.438.347,5.168a30.987,30.987,0,0,1-.366,5.041,53.719,53.719,0,0,1-2.127,8.7A67.818,67.818,0,0,1,269.385,304.3Z" transform="translate(-269.385 -249.753)" fill="#7700a0"/></g><g transform="translate(23.971 7.35)"><path d="M289.978,236.242a13.379,13.379,0,0,0-4.786,1.122,18.334,18.334,0,0,0-4.351,2.574,22.957,22.957,0,0,0-4.057,4.195,36.377,36.377,0,0,0-5.042,9.689c-1,2.81-1.441,4.742-1.453,4.737a46.164,46.164,0,0,1,1.208-4.884,31.98,31.98,0,0,1,4.84-9.88,21.33,21.33,0,0,1,4.158-4.188,17.582,17.582,0,0,1,4.539-2.481A12.8,12.8,0,0,1,289.978,236.242Z" transform="translate(-270.288 -236.231)" fill="#7700a0"/></g><g transform="translate(30.724 13.121)"><path d="M293.378,240.854a14.279,14.279,0,0,0-2.487,1.129,21.06,21.06,0,0,0-5.587,4.508,22.639,22.639,0,0,0-4.773,8.94,30.136,30.136,0,0,0-.986,5.7c-.166,1.984-.272,4-.31,6.036-.094,4.062.167,8.1.2,11.89a48.439,48.439,0,0,1-.92,10.275,59.6,59.6,0,0,1-1.9,6.994c-.558,1.653-.921,2.577-.916,2.578s.335-.956.845-2.649a61.042,61.042,0,0,0,1.719-7.1,50.162,50.162,0,0,0,.7-10.232c-.092-3.752-.374-7.761-.282-11.769.036-2,.149-4.006.328-5.976a29.415,29.415,0,0,1,1.039-5.744,22.649,22.649,0,0,1,4.967-9.039,20.874,20.874,0,0,1,5.8-4.469A14.291,14.291,0,0,1,293.378,240.854Z" transform="translate(-275.697 -240.854)" fill="#7700a0"/></g></g></g></g></g></svg>