<svg xmlns="http://www.w3.org/2000/svg" width="80.735" height="80.744" viewBox="0 0 80.735 80.744"><g transform="translate(4060.24 -1529.558)"><path d="M-3850.959,1551.986c-1.2-.16-2.389-.323-3.582-.5a10.409,10.409,0,0,1-1.462-.285,1.164,1.164,0,0,1-.881-1.24,1.453,1.453,0,0,1,.728-1.231c1.095-.818,2.19-1.632,3.281-2.452a7.523,7.523,0,0,0,.739-.589,1.287,1.287,0,0,0,.23-1.774,4.183,4.183,0,0,0-.268-.39q-2.149-2.869-4.3-5.734a3.782,3.782,0,0,0-.413-.472,1.2,1.2,0,0,0-1.579-.222,6.273,6.273,0,0,0-.78.531c-1.155.864-2.3,1.739-3.467,2.6a1.371,1.371,0,0,1-1.548.195,1.289,1.289,0,0,1-.65-1.405c.074-.677.167-1.351.258-2.026.136-1.013.287-2.024.407-3.039a1.4,1.4,0,0,0-1.372-1.659q-3.734-.544-7.471-1.078a1.4,1.4,0,0,0-1.735,1.181c-.132.613-.2,1.24-.3,1.862-.162,1.089-.3,2.181-.483,3.266a1.294,1.294,0,0,1-1.376,1.152,1.551,1.551,0,0,1-1.156-.73c-.874-1.181-1.806-2.326-2.636-3.536a1.6,1.6,0,0,0-2.691-.4c-1.162.942-2.386,1.8-3.593,2.7l-2.768,2.435a.419.419,0,0,0-.143.2,1.492,1.492,0,0,0,.03.47v0a2.945,2.945,0,0,0,.621,1.128c.892,1.168,1.766,2.349,2.651,3.524a1.327,1.327,0,0,1,.166,1.607,1.346,1.346,0,0,1-1.5.61c-1.5-.237-3.008-.434-4.511-.657-1.313-.193-1.861.185-2.108,1.472-.021.1-.033.208-.051.313-.251,1.764-.512,3.526-.752,5.292-.1.726-.2,1.458-.223,2.188a1.193,1.193,0,0,0,.967,1.263,4.1,4.1,0,0,0,.615.136c1.271.176,2.546.338,3.817.522a5.445,5.445,0,0,1,1.221.273,1.237,1.237,0,0,1,.5,2,3.891,3.891,0,0,1-.641.577c-.9.682-1.81,1.351-2.712,2.03a13.837,13.837,0,0,0-1.112.879,1.3,1.3,0,0,0-.249,1.714,3.689,3.689,0,0,0,.308.457q1.651,2.209,3.307,4.411c.426.566.839,1.147,1.3,1.68a1.31,1.31,0,0,0,1.774.264,3.892,3.892,0,0,0,.455-.31c1.092-.818,2.181-1.642,3.276-2.458a5.009,5.009,0,0,1,.789-.512,1.283,1.283,0,0,1,1.839,1.068,3.987,3.987,0,0,1-.067.86c-.218,1.529-.453,3.058-.66,4.589a1.374,1.374,0,0,0,.984,1.516,4.061,4.061,0,0,0,.692.149c2.387.338,4.774.667,7.161,1.009a1.41,1.41,0,0,0,1.823-1.321c.172-1.139.319-2.282.489-3.423a13.466,13.466,0,0,1,.3-1.7,1.272,1.272,0,0,1,2.221-.552,7.157,7.157,0,0,1,.588.738c.837,1.114,1.673,2.225,2.5,3.345a1.413,1.413,0,0,0,1.561.656,2.248,2.248,0,0,0,.757-.4q2.97-2.206,5.925-4.438a2.325,2.325,0,0,0,.592-.623,1.409,1.409,0,0,0-.248-1.672q-1.233-1.636-2.46-3.276a8.805,8.805,0,0,1-.585-.837,1.28,1.28,0,0,1,.044-1.414,1.248,1.248,0,0,1,1.3-.568c1.609.224,3.221.428,4.82.715a1.534,1.534,0,0,0,1.926-1.416c.149-1.326.39-2.643.585-3.966q.245-1.671.476-3.345A1.5,1.5,0,0,0-3850.959,1551.986Zm-2.106,7.8c-.8-.107-1.493-.208-2.192-.292-.753-.092-1.508-.223-2.263-.239a3.734,3.734,0,0,0-3.486,2.036,3.691,3.691,0,0,0,.084,4.027c.635.992,1.382,1.913,2.078,2.867.14.191.277.382.411.566a.76.76,0,0,1-.1.145l-4.146,3.127c-.09-.143-.176-.3-.281-.441-.642-.864-1.28-1.73-1.934-2.586a4.039,4.039,0,0,0-3.444-1.718,3.956,3.956,0,0,0-3.765,3.018c-.231,1.047-.333,2.12-.5,3.182-.051.333-.109.665-.178,1.076-1.741-.187-3.43-.484-5.156-.711a7.989,7.989,0,0,1,.188-1.965c.07-.81.225-1.613.26-2.422a3.693,3.693,0,0,0-1.957-3.526,3.737,3.737,0,0,0-4.1.048c-.948.606-1.829,1.321-2.739,1.986-.231.166-.464.329-.743.526l-3.18-4.235c.4-.308.751-.577,1.1-.843.75-.575,1.541-1.1,2.248-1.728a3.987,3.987,0,0,0-1.153-6.72,9.654,9.654,0,0,0-1.984-.436c-.9-.153-1.808-.262-2.8-.4.248-1.755.491-3.475.743-5.256.864.115,1.661.216,2.458.327.493.069.981.191,1.474.224a3.938,3.938,0,0,0,3.9-1.867,3.771,3.771,0,0,0,.015-4.241c-.635-.992-1.386-1.911-2.085-2.863-.124-.168-.246-.338-.417-.575,1.372-1.109,2.8-2.11,4.23-3.211.744.994,1.464,1.957,2.185,2.915a4.162,4.162,0,0,0,3.167,1.814,4.016,4.016,0,0,0,4.19-3.383c.189-1.137.329-2.282.493-3.423.019-.126.059-.25.109-.455,1.756.128,3.465.466,5.252.7-.141.971-.294,1.894-.4,2.821a7.577,7.577,0,0,0-.1,2.418,4,4,0,0,0,5.881,2.693c.9-.535,1.711-1.214,2.559-1.831.319-.231.631-.472,1.015-.761,1.118,1.351,2.112,2.785,3.219,4.229-.47.363-.923.709-1.374,1.057-.665.514-1.361.992-1.987,1.548a3.759,3.759,0,0,0-1.2,4.063,3.761,3.761,0,0,0,2.989,2.813c.9.187,1.806.308,2.709.451.464.073.93.132,1.462.208C-3852.561,1556.269-3852.8,1557.967-3853.064,1559.782Z" transform="translate(-130.073 -1.288)" fill="#91ddea"/><path d="M-3947.786,1599.309c-.143.1-.27.182-.392.273-.988.74-1.984,1.468-2.956,2.228a11.287,11.287,0,0,0-1.409,1.252,9.016,9.016,0,0,0-2.417,6.156c-.021,1.732.009,3.467-.01,5.2a2.613,2.613,0,0,1-1.915,2.59,4.619,4.619,0,0,1-1.17.1q-3.823.01-7.647,0c-.946,0-1.892.017-2.838-.017a2.512,2.512,0,0,1-2.369-1.955,5.05,5.05,0,0,1-.125-1.091c-.015-1.55-.009-3.1-.006-4.652a9.444,9.444,0,0,0-.272-2.494,8.951,8.951,0,0,0-3.492-5.084c-.808-.583-1.659-1.111-2.437-1.734a22.711,22.711,0,0,1-6.459-8.123,23.163,23.163,0,0,1-2.175-9.029,21.9,21.9,0,0,1,.453-5.162,22.455,22.455,0,0,1,3.312-8.014,22.184,22.184,0,0,1,9.086-7.924,22.09,22.09,0,0,1,9.69-2.219c0,.015,0,.029,0,.044a.421.421,0,0,1,.143-.2l2.769-2.435a24.8,24.8,0,0,0-19.071,5.94,25.148,25.148,0,0,0-8.935,17.927,23.576,23.576,0,0,0,.239,5.308c.043.18.087.369.134.564.168.7.332,1.378.493,2.062.006.027.012.055.021.082a19.643,19.643,0,0,0,1.5,4.212,25.913,25.913,0,0,0,3.637,5.653q.6.711,1.252,1.378c0,.015-.008.031-.014.046a17.153,17.153,0,0,0,2.166,1.959c1.025.743,2.028,1.42,2.974,2.167a5.9,5.9,0,0,1,1.913,2.733,5.53,5.53,0,0,1,.344,3.786c.018.2.045.39.045.581,0,.919.008,1.837,0,2.756a5.368,5.368,0,0,0,2.424,4.757c.063.044.122.1.256.2v.721c0,2.179-.01,4.359,0,6.538a5.376,5.376,0,0,0,2.1,4.38,5.267,5.267,0,0,0,2.037.975,3.516,3.516,0,0,1,.43.162h7.1c.26-.1.516-.22.783-.306a5.059,5.059,0,0,0,2.32-1.556,5.214,5.214,0,0,0,1.319-3.526q0-3.272,0-6.544c0-.285,0-.571,0-.784a1.788,1.788,0,0,1,.176-.185,5.408,5.408,0,0,0,2.508-4.948c-.042-1.523-.027-3.047,0-4.572a6.618,6.618,0,0,1,2.916-5.638c.581-.4,1.174-.8,1.732-1.231a8.243,8.243,0,0,0,1.577-1.378C-3946.647,1600.573-3947.209,1599.95-3947.786,1599.309Zm-20.521,20.6h10.622v2.523h-10.622Zm10.617,7.026a2.616,2.616,0,0,1-2.56,2.253c-1.838.059-3.682.076-5.517-.006a2.539,2.539,0,0,1-2.521-2.28c-.052-.516-.059-1.038-.09-1.636h10.7A11.848,11.848,0,0,1-3957.69,1626.94Z" transform="translate(-56.703 -21.6)" fill="#926cdc"/><path d="M-4030.476,1701.239c-.08.027-.111.029-.128.046-.56.554-1.116,1.112-1.68,1.661a1.426,1.426,0,0,1-2.164.208c-.85-.568-1.682-1.162-2.525-1.741-.273-.189-.555-.363-.884-.579-.067.212-.122.354-.153.5-.267,1.229-.533,2.456-.784,3.685a1.459,1.459,0,0,1-1.5,1.217c-1.705-.036-3.413,0-5.118-.017a1.34,1.34,0,0,1-1.4-1.04,5.3,5.3,0,0,1-.136-.533c-.227-1.1-.449-2.2-.682-3.306a3.406,3.406,0,0,0-.193-.508c-1.183.812-2.3,1.594-3.434,2.351a1.374,1.374,0,0,1-2.039-.176q-1.882-1.85-3.731-3.731a1.372,1.372,0,0,1-.179-2.039c.64-.961,1.3-1.9,1.955-2.857.126-.185.243-.378.384-.6a2.366,2.366,0,0,0-.344-.149c-1.051-.222-2.095-.472-3.152-.648a2.869,2.869,0,0,1-1.881-.956v-6.464a3.032,3.032,0,0,1,1.965-.963c1.032-.166,2.052-.415,3.078-.635a1.931,1.931,0,0,0,.329-.153c-.147-.224-.269-.417-.4-.6-.625-.908-1.257-1.812-1.875-2.724a1.449,1.449,0,0,1,.178-2.23q1.775-1.793,3.568-3.568a1.437,1.437,0,0,1,2.219-.2c.915.617,1.818,1.248,2.729,1.871.191.132.391.254.669.432.111-.449.22-.841.306-1.24.208-.946.384-1.9.608-2.842.235-.99.526-1.219,1.564-1.34a.634.634,0,0,0,.159-.075,23.605,23.605,0,0,0,.239,5.308c-.086.342-.147.6-.218.845a2.731,2.731,0,0,1-.942,1.506,2.577,2.577,0,0,1-3.083.182c-.776-.489-1.52-1.028-2.284-1.54-.209-.141-.428-.266-.524-.327l-2.441,2.4c.088.136.195.313.313.484.491.715.992,1.42,1.47,2.144a2.637,2.637,0,0,1,.489,2.011,2.629,2.629,0,0,1-2.091,2.2c-1.091.26-2.19.482-3.352.734,0,.543,0,1.063,0,1.584s.015,1.036.021,1.56l1.139.239c.767.166,1.544.3,2.3.5a2.667,2.667,0,0,1,1.634,3.949c-.189.315-.4.617-.6.919-.453.669-.912,1.336-1.285,1.881.832.868,1.606,1.674,2.4,2.5.191-.13.409-.273.625-.42.671-.459,1.334-.933,2.016-1.376a2.618,2.618,0,0,1,2.013-.476,2.657,2.657,0,0,1,2.188,2.108c.26,1.091.476,2.19.722,3.329,1.074.006,2.107.042,3.144-.021.043-.174.071-.273.092-.373.211-1,.426-2,.635-3a2.671,2.671,0,0,1,4.036-1.663c.308.2.612.4.914.612.648.438,1.294.879,1.863,1.267.99-.992,1.925-1.936,2.89-2.9A5.534,5.534,0,0,1-4030.476,1701.239Z" transform="translate(0 -112.005)" fill="#555"/><path d="M-3936.318,1643.937h-2.708c-.09-.62-.138-1.219-.269-1.8a8.234,8.234,0,0,0-4.683-5.865,31.2,31.2,0,0,1-4.181-2.17,18.708,18.708,0,0,1-7.35-9.653,17.843,17.843,0,0,1-.962-6.575,18.835,18.835,0,0,1,2.684-9.019,18.621,18.621,0,0,1,5.66-5.932c.086-.058.173-.119.264-.171a1.1,1.1,0,0,1,.194-.056l1.383,2.19c-.61.471-1.2.9-1.758,1.364a15.6,15.6,0,0,0-5.453,9.394,15.675,15.675,0,0,0,2.522,11.915,15.613,15.613,0,0,0,6.594,5.563,23.25,23.25,0,0,1,3.065,1.585,10.7,10.7,0,0,1,4.667,6.836C-3936.478,1642.3-3936.432,1643.089-3936.318,1643.937Z" transform="translate(-81.992 -57.799)" fill="#91ddea"/><path d="M-4032.22,1570.995l-1.575,2.2-9.394-6.709,1.57-2.2Z" transform="translate(-13.474 -27.443)" fill="#91ddea"/><path d="M-3988.4,1530.235l2.606-.677c.913,3.571,1.816,7.1,2.734,10.688a18.253,18.253,0,0,1-2.6.7C-3986.591,1537.388-3987.492,1533.858-3988.4,1530.235Z" transform="translate(-56.773)" fill="#91ddea"/><path d="M-4052.882,1632.393c-.181-.718-.368-1.448-.546-2.179a1.751,1.751,0,0,1,0-.361l10.627-2.657c.129.456.256.874.365,1.3.1.4.189.809.282,1.209C-4042.719,1630.006-4052.125,1632.374-4052.882,1632.393Z" transform="translate(-5.374 -77.159)" fill="#91ddea"/><path d="M-3746.318,1807.6l-1.733,2.071-8.04-6.7,1.719-2.091Z" transform="translate(-240.357 -214.42)" fill="#91ddea"/><path d="M-3745.78,1767.54h9.356a26.08,26.08,0,0,1,.042,2.682h-9.372C-3745.824,1769.336-3745.779,1768.484-3745.78,1767.54Z" transform="translate(-248.495 -188.068)" fill="#91ddea"/><path d="M-3783.93,1818.687h2.611c.137.627.166,8.339.038,9.33h-2.649Z" transform="translate(-218.357 -228.487)" fill="#91ddea"/><path d="M-3870.831,1816.456h-2.583a19.782,19.782,0,0,1-.036-3.968h2.559A18.4,18.4,0,0,1-3870.831,1816.456Z" transform="translate(-147.548 -223.588)" fill="#91ddea"/><path d="M-3815.3,1601.176a10.678,10.678,0,0,1-10.836,10.653,10.673,10.673,0,0,1-10.6-10.83,10.716,10.716,0,0,1,10.811-10.615A10.741,10.741,0,0,1-3815.3,1601.176Zm-18.7-.035a8,8,0,0,0,8.029,7.989,8.079,8.079,0,0,0,7.981-8.143,8.106,8.106,0,0,0-8.052-7.9A8.036,8.036,0,0,0-3834,1601.141Z" transform="translate(-176.626 -48.068)" fill="#91ddea"/><path d="M-4000.655,1722.757a8.146,8.146,0,0,1-9.119,4.065,8.148,8.148,0,0,1-6.077-7.135,7.632,7.632,0,0,1,1-4.539,8.1,8.1,0,0,1,6-4.14c-.122-.508-.239-1-.357-1.5a19.692,19.692,0,0,0,1.5,4.212,5.183,5.183,0,0,0-5.346,4.495,5.28,5.28,0,0,0,3.92,5.925,5.253,5.253,0,0,0,6.3-3.343A17.249,17.249,0,0,0-4000.655,1722.757Z" transform="translate(-35.052 -142.209)" fill="#555"/></g></svg>