<svg xmlns="http://www.w3.org/2000/svg" width="108" height="108" viewBox="0 0 108 108"><g transform="translate(-387 -2447)"><rect width="108" height="108" transform="translate(387 2447)" opacity="0"/><g transform="translate(3851.121 4961.5)"><path d="M-3274.422-2479.677c0-3.448.021-6.9-.014-10.343a1.792,1.792,0,0,1,1.1-1.786q9.645-5.109,19.258-10.275a2.212,2.212,0,0,1,2.346-.025c6.38,3.436,12.78,6.833,19.174,10.242.123.066.246.134.37.2a1.459,1.459,0,0,1,.828,1.434c-.021,1.289-.006,2.579-.006,3.868,0,5.689-.014,11.379.014,17.069a1.862,1.862,0,0,1-1.129,1.854q-9.679,5.128-19.328,10.31a1.958,1.958,0,0,1-2.048.054q-9.8-5.262-19.63-10.467a1.639,1.639,0,0,1-.94-1.625C-3274.409-2472.67-3274.422-2476.173-3274.422-2479.677Zm4.1-10.65,17.435,10.539,17.431-10.54-17.432-9.3Zm-1.368,2.354v18.3l17.411,9.28v-17.055Zm20.167,27.593,17.432-9.3v-18.292l-17.432,10.532Z" transform="translate(-136.914 0)" fill="#9678d0"/><path d="M-3421.272-2264.306v14.7c0,.2,0,.392,0,.588a1.326,1.326,0,0,1-1.477,1.436c-.2,0-.392,0-.588,0h-10.839c-.2,0-.393.01-.588,0a1.3,1.3,0,0,1-1.3-1.274c-.015-.195,0-.391,0-.588v-29.913c0-.167-.007-.336,0-.5a1.3,1.3,0,0,1,1.307-1.349c.111-.008.224,0,.336,0h11.511c.083,0,.168,0,.252,0a1.3,1.3,0,0,1,1.382,1.358c.019.5,0,1.008,0,1.512Zm-2.739,14.016v-28.235c-3.146,0-6.237,0-9.317,0v28.234Z" transform="translate(-11.598 -171.511)" fill="#555"/><path d="M-3331.45-2232.507q0,5.461,0,10.921a6.347,6.347,0,0,1-.009.672,1.3,1.3,0,0,1-1.209,1.186c-.194.019-.391.007-.587.007h-11.173c-.2,0-.393.012-.588-.007a1.3,1.3,0,0,1-1.223-1.259c-.017-.223,0-.448,0-.672q0-10.838,0-21.675c0-.224-.012-.449,0-.671a1.3,1.3,0,0,1,1.3-1.274c.112-.008.224,0,.336,0h11.509c.084,0,.169,0,.252,0a1.305,1.305,0,0,1,1.393,1.431c.015,1.512,0,3.024,0,4.536Zm-2.741,10.072V-2242.6c-3.147.006-6.237-.008-9.312.009v20.153Z" transform="translate(-81.238 -199.367)" fill="#555"/><path d="M-3303.448-2305.706l-2.149-4.135,2.347-1.242a3.832,3.832,0,0,1,.248.359q1.6,3.047,3.189,6.1c.052.1.1.2.146.3a1.3,1.3,0,0,1-.587,1.794c-2.211,1.193-4.444,2.348-6.735,3.553-.422-.8-.82-1.561-1.261-2.4l3.376-1.8c-2.665-.7-5.224-1.342-7.762-2.057s-5.047-1.455-7.543-2.268q-3.785-1.234-7.511-2.641c-2.482-.94-4.941-1.946-7.379-3-2.412-1.04-4.8-2.144-7.172-3.27-2.4-1.136-4.753-2.352-7.1-3.659l1.385-2.324A173.029,173.029,0,0,0-3303.448-2305.706Z" transform="translate(-78.838 -139.583)" fill="#91ddea"/><path d="M-3451.029-2384.283a10.784,10.784,0,0,1,10.8-10.752,10.827,10.827,0,0,1,10.73,10.834,10.831,10.831,0,0,1-10.939,10.713A10.806,10.806,0,0,1-3451.029-2384.283Zm10.729,8.094a8.039,8.039,0,0,0,8.083-8.063,7.956,7.956,0,0,0-7.978-8.062,7.976,7.976,0,0,0-8.126,8.084A8.038,8.038,0,0,0-3440.3-2376.19Z" transform="translate(0 -83.264)" fill="#926cdc"/><path d="M-3256.475-2206.006c0-2.6-.005-5.207,0-7.811a1.328,1.328,0,0,1,1.475-1.518c.112,0,.224,0,.336,0h11.171c.084,0,.168,0,.252,0,1.069.015,1.539.474,1.559,1.521,0,.168,0,.336,0,.5v14.782c0,.14,0,.281,0,.42-.012,1.123-.465,1.587-1.562,1.6-.14,0-.28,0-.42,0H-3254.5a2.16,2.16,0,0,0-.251,0,1.483,1.483,0,0,1-1.745-1.693C-3256.436-2200.8-3256.475-2203.4-3256.475-2206.006Zm12.057,6.791v-13.38h-9.319v13.38Z" transform="translate(-150.824 -222.585)" fill="#555"/><path d="M-3159.185-2173.291c-1.931,0-3.862,0-5.793,0-1.159,0-1.606-.459-1.607-1.637q-.006-4.408,0-8.816c0-1.185.445-1.646,1.6-1.647q5.793-.007,11.587,0c.084,0,.168,0,.252,0a1.29,1.29,0,0,1,1.353,1.385q.02,4.66,0,9.32a1.286,1.286,0,0,1-1.426,1.394C-3155.211-2173.281-3157.2-2173.291-3159.185-2173.291Zm4.681-9.365h-9.344v6.627h9.344Z" transform="translate(-220.528 -245.798)" fill="#555"/><path d="M-3418.5-2374.942v-1.248a3.27,3.27,0,0,1,1.334-.11c.417-.019.834,0,1.312,0l.091,1.357a3.468,3.468,0,0,1,2.648,3.308h-2.593l-.517-.631c-.484,0-1.011-.01-1.538,0a.689.689,0,0,0-.717.673.728.728,0,0,0,.817.67c.392,0,.785,0,1.177,0a3.364,3.364,0,0,1,3.324,2.666,3.4,3.4,0,0,1-1.977,3.786c-.2.09-.409.168-.661.271v1.292h-2.671v-1.287a3.809,3.809,0,0,1-2.258-1.68,2.658,2.658,0,0,1-.418-1.635h2.578c.385.926,1.26.59,2,.608.448.011.458-.045.754-.647a.737.737,0,0,0-.866-.691c-.364.007-.729,0-1.092,0a3.38,3.38,0,0,1-3.375-2.712,3.407,3.407,0,0,1,2.1-3.8C-3418.9-2374.813-3418.738-2374.86-3418.5-2374.942Z" transform="translate(-23.12 -97.777)" fill="#926cdc"/></g></g></svg>