<svg xmlns="http://www.w3.org/2000/svg" width="731.206" height="483.655" viewBox="0 0 731.206 483.655"><g transform="translate(2214.206 -13501)"><g transform="translate(-1973.972 13564.198)"><g transform="translate(66.902 0)"><path d="M911.993,538.03c-6.631-15.753-20.707-24.86-31.44-20.342s-14.057,20.951-7.426,36.7a43.674,43.674,0,0,0,6.109,10.343l35.885-15.106A43.644,43.644,0,0,0,911.993,538.03Z" transform="translate(-869.714 -516.53)" fill="#bed1f9"/></g><g transform="translate(5.779 8.168)"><path d="M712.383,575.938a2.065,2.065,0,0,1-.864-3.94l73.792-33.978a2.064,2.064,0,1,1,1.726,3.75l-73.792,33.978A2.061,2.061,0,0,1,712.383,575.938Z" transform="translate(-710.317 -537.831)" fill="#649abd"/></g><g transform="translate(0 19.852)"><path d="M697.312,727.661a2.043,2.043,0,0,1-.264-.017,2.064,2.064,0,0,1-1.786-2.309L715.079,570.1a2.064,2.064,0,0,1,4.095.523L699.357,725.858A2.064,2.064,0,0,1,697.312,727.661Z" transform="translate(-695.245 -568.3)" fill="#649abd"/></g><path d="M741.367,603.485a8.119,8.119,0,1,1-8.119-8.119A8.119,8.119,0,0,1,741.367,603.485Z" transform="translate(-713.671 -565.136)" fill="#649abd"/></g><path d="M1371.093,877.542a249.035,249.035,0,0,1-28.431-5.795s-2.423-27.332-2.523-28.346c-.871-14.035-2.615-23.393,6.467-33.392,4.313-4.748,24.355-1.835,27.705,15.064,3.1,15.662-.171,37.877-2.3,51.774l-.122.8Z" transform="translate(-3066.366 12867.99)" fill="#b75742"/><g transform="translate(-2214.206 13721.081)"><g transform="translate(48.931 0)"><path d="M289.605,1123.5s-70.315-50.464-80.218-72.342,9.643-19.783,9.643-19.783-28.66-38.906-21.531-52.1,19.345-6.771,19.345-6.771-10.5-43.214.676-46.412c20.818-5.958,39.159,51.163,39.159,51.163s2.2-22.76,11.141-20.88c19.912,4.185,10.447,56.026,10.447,56.026s5.553-19.454,16.564-11.009C314.587,1016.541,289.605,1123.5,289.605,1123.5Z" transform="translate(-196.36 -925.652)" fill="#4951ec"/></g><path d="M330.977,998.543c-10.439-7.242-17.547,3.854-17.547,3.854s8.228-41.4-11.587-46.026c-10.409-2.43-11.141,20.88-11.141,20.88s-18.341-57.121-39.159-51.163l72.312,196.583C326.659,1110.245,347.635,1010.1,330.977,998.543Z" transform="translate(-181.452 -925.652)" fill="#7c9af2"/><g transform="translate(0 124.476)"><path d="M191.635,1307.956s-72.321.027-82.381-1.143,1.055-10.149,1.055-10.149-22.5.819-25.934-4.654,5.761-7.63,5.761-7.63-22.411-6.495-21.341-11.26c1.993-8.877,26.745-3.09,26.745-3.09s-9.193-4.462-5.457-8.611c5.635-6.257,29.7,10.755,29.7,10.755s-7.392-14.841-3.7-19.255C130.47,1235.692,191.635,1307.956,191.635,1307.956Z" transform="translate(-68.757 -1250.265)" fill="#bed1f9"/></g><g transform="translate(140.806 70.179)"><path d="M435.954,1237.955s69.26-13.441,84.57-26.3-3.469-13.857-3.469-13.857,41.058-15.549,40.54-28.1-18.142-13.289-18.142-13.289,24.5-21.949,19.471-32.589c-7.73-16.351-42.773,14.658-42.773,14.658s.849-27-10.02-29.6c-16.39-3.917-30.548,46.785-30.548,46.785s-2.5-12.24-13.76-9.908C441.621,1149.945,435.954,1237.955,435.954,1237.955Z" transform="translate(-435.954 -1108.667)" fill="#92b5f9"/></g><path d="M305.487,1478.619h97.2c12.379-14,13.62-34.684,13.345-55.839-.139-10.684,4.386-18.6.683-27.745L291.4,1396.78a83.233,83.233,0,0,0-5.183,30.18C286.475,1447.112,293.783,1465.282,305.487,1478.619Z" transform="translate(-202.822 -1215.045)" fill="#fa7167"/></g><g transform="translate(-1807.659 13501)"><path d="M1192.844,407.758c14.426-4.472,27.132,11.044,19.964,24.409a11.371,11.371,0,0,0-1.013,7.862l2.052,9.146a4.955,4.955,0,0,1-3.368,5.818l-5.465,1.694a4.955,4.955,0,0,1-6.068-2.893c-3.5-8.752-4.157-12.232-8.761-14.614C1176.715,432.212,1178.414,412.23,1192.844,407.758Z" transform="translate(-1161.038 -385.786)" fill="#bed1f9"/><g transform="translate(26.555 33.223)"><path d="M1219.12,463.63c-2.564-7.165-5.112-15.151-5.968-18.167a22.909,22.909,0,0,1-8.213,1.543c2.415,5.832,4.7,11.779,6.8,17.711l-.767.272c-2.138-6.03-4.464-12.075-6.924-18-1.711-.063-3.723-.229-4.944-1.392a2.986,2.986,0,0,1-.9-2.171c.049-2.114,2.457-2.734,4.063-1.393,1.064.888,1.562,2.321,2.327,4.157a22.081,22.081,0,0,0,8.34-1.519,7.458,7.458,0,0,1,0-4.482c1.888-5.038,8.819,1.564.968,4.963.663,2.362,3.244,10.571,5.976,18.2Zm-5.418-23.154a6.616,6.616,0,0,0,0,3.881c1.7-.754,2.675-1.644,2.987-2.715C1217.214,439.844,1214.718,437.764,1213.7,440.475Zm-14.25,1.976a1.842,1.842,0,0,0,.219,2.558c.979.933,2.636,1.076,4.038,1.152-.607-1.454-1.061-2.756-1.955-3.5A3.291,3.291,0,0,0,1199.451,442.451Z" transform="translate(-1198.21 -438.36)" fill="#fff"/></g><path d="M1234.868,492.575c.016.076.024.154.041.23l2.052,9.146a4.955,4.955,0,0,1-3.368,5.818l-5.465,1.694a4.955,4.955,0,0,1-6.068-2.893c-1.557-3.893-2.551-6.741-3.581-8.916Z" transform="translate(-1184.152 -438.562)" fill="#7c9af2"/><g transform="translate(35.398 0)"><path d="M1224.523,362.675l.347-9.269a1.625,1.625,0,1,0-3.249-.122l-.348,9.269a1.626,1.626,0,0,0,3.249.122Z" transform="translate(-1221.272 -351.72)" fill="#bed1f9"/></g><g transform="translate(53.684 16.083)"><path d="M1271.435,401.777l8.308-5.1a1.625,1.625,0,0,0-1.7-2.77l-8.308,5.1a1.625,1.625,0,1,0,1.7,2.77Z" transform="translate(-1268.958 -393.663)" fill="#bed1f9"/></g><g transform="translate(65.396 42.261)"><path d="M1312.2,466.2a1.626,1.626,0,0,0-1.04-2.05,53.141,53.141,0,0,0-9.829-2.2,1.625,1.625,0,0,0-.406,3.225,49.847,49.847,0,0,1,9.225,2.068A1.625,1.625,0,0,0,1312.2,466.2Z" transform="translate(-1299.502 -461.929)" fill="#bed1f9"/></g><g transform="translate(6.649 7.786)"><path d="M1156.637,385.533a1.626,1.626,0,0,0,.139-2.295,61.818,61.818,0,0,1-7.437-10.393,1.625,1.625,0,0,0-2.825,1.608,65.143,65.143,0,0,0,7.828,10.94A1.626,1.626,0,0,0,1156.637,385.533Z" transform="translate(-1146.301 -372.023)" fill="#bed1f9"/></g><g transform="translate(0 35.588)"><path d="M1142.583,445.877a1.626,1.626,0,0,0-1.879-1.325l-10.393,1.794a1.625,1.625,0,1,0,.553,3.2l10.394-1.794A1.626,1.626,0,0,0,1142.583,445.877Z" transform="translate(-1128.961 -444.528)" fill="#bed1f9"/></g><g transform="translate(8.449 57.423)"><path d="M1153.347,512.438a1.617,1.617,0,0,0,.367-.252,50.992,50.992,0,0,0,7.232-8.148,1.626,1.626,0,0,0-2.648-1.886,47.744,47.744,0,0,1-6.77,7.628,1.626,1.626,0,0,0,1.819,2.657Z" transform="translate(-1150.995 -501.47)" fill="#bed1f9"/></g></g><rect width="149.632" height="49.301" transform="translate(-1742.052 13817.747) rotate(180)" fill="#649abd"/><rect width="111.913" height="192.35" transform="translate(-1841.775 13957.979) rotate(180)" fill="#fae0b2"/><rect width="11.356" height="25.147" transform="translate(-1895.862 13982.65) rotate(180)" fill="#555"/><rect width="11.355" height="24.744" transform="translate(-1958.814 13982.637) rotate(180)" fill="#555"/><path d="M1631,1401.856h11.977c-16.435-10.673-25.858-38.38-30.761-56.939-9.5-35.731-11.651-70.562-11.685-70.843l-16.273,2.374C1589.382,1310.258,1603.273,1376.155,1631,1401.856Z" transform="translate(-3217.326 12580.613)" fill="#0b0754"/><rect width="181.989" height="192.35" transform="translate(-1833.112 13957.979) rotate(180)" fill="#649abd"/><rect width="13.395" height="221.378" transform="translate(-2001.461 13982.738) rotate(180)" fill="#555"/><g transform="translate(-2017.475 13719.396)"><path d="M581.8,982.149H697.582a8.161,8.161,0,0,0,8.007-8.306V968.9a8.161,8.161,0,0,0-8.007-8.306H581.8a16.4,16.4,0,0,1,.213,21.3Z" transform="translate(-581.797 -945.514)" fill="#4951ec"/><path d="M586.45,967.038h64.221a8.161,8.161,0,0,1,8.008,8.306h0a8.161,8.161,0,0,1-8.008,8.305H586.445A16.478,16.478,0,0,0,586.45,967.038Z" transform="translate(-584.663 -949.484)" fill="#dde8fe"/><path d="M669.481,921.26h96.447a5.423,5.423,0,0,1,5.423,5.423v4.561a5.423,5.423,0,0,1-5.423,5.423H669.481l.05-.053A11.043,11.043,0,0,0,669.481,921.26Z" transform="translate(-635.858 -921.26)" fill="#fa7167"/><path d="M673.934,927.208h51.558a5.423,5.423,0,0,1,5.423,5.423h0a5.423,5.423,0,0,1-5.423,5.423H673.935A11.06,11.06,0,0,0,673.934,927.208Z" transform="translate(-638.603 -924.927)" fill="#dde8fe"/></g><g transform="translate(-2054.503 13550.946)"><path d="M1346.059,1384.494h6.055c5.465-37.605,6.572-81.674.463-138.58l-14.654.3C1347.65,1302.691,1349.251,1346.8,1346.059,1384.494Z" transform="translate(-1010.95 -952.971)" fill="#2c2794" stroke="#4951ec" stroke-width="1"/><path d="M1243.022,820.4c-7.26-9.219-22.652-3.394-16.939,27.154.032.171,1.586,23.989.89,33.2-7.319-1.7-20.655-6.126-30.387-6.626,0,0-11.907-11.6-16.59-13.711-3.471-1.564-12.886-.773-12.886-.773s-13.723,7.248-12.661,9.588c1.452,3.2,9.363-5.885,13.686-4.407,0,0-10.007,5.609-7.623,6.624s6.38-.317,8.324-.453,8.968,5.655,14.44,8.531c.9.475,3.016,2.328,7.141,4.593,4.186,2.3,8.59,6.173,14.3,8.528,15.367,6.334,32.448,14.733,38.358,10.226l-.031-.066C1249.8,894.816,1255.126,835.769,1243.022,820.4Z" transform="translate(-897.794 -688.162)" fill="#ef7f7f"/><path d="M1484.776,875.293h0c-8.2-1.756-16.416,2.836-18.5,10.335l-30.619,110.1a9.5,9.5,0,0,1-9.31,6.649H1332.82a14.11,14.11,0,0,0-14.11,14.11h0a14.111,14.111,0,0,0,13.6,14.1l112.446,4.083c7.486,0,15.841-10.1,17.648-16.786l33.881-125.293C1498.368,884.882,1493.188,877.095,1484.776,875.293Z" transform="translate(-999.104 -724.238)" fill="#37329e"/><rect width="15.823" height="223.876" transform="translate(315.485 432.249) rotate(180)" fill="#555"/><path d="M1112.042,1482.549c-4.115,7.65-14.172,32.872-14.551,34.782a9.348,9.348,0,0,1-2.01,2.739c-12.985,1.3-22.485-5.671-29.7-12.545,6.81.478,17.219-1.281,18.734-1.54,3.95-.674,3.527-12.689,5.783-26.188C1093.8,1481.4,1106.941,1477.933,1112.042,1482.549Z" transform="translate(-843.165 -1097.169)" fill="#fb9390"/><path d="M1069.282,1559.516c-1.075,4.223-5.542,12.007-6.4,11.783-1.031-.267-39.36-14.028-42.658-19.521-2.035-3.388,8.444-3.55,16.879-3.119C1044.31,1555.533,1067.066,1560.61,1069.282,1559.516Z" transform="translate(-814.915 -1139.519)" fill="#4951ec"/><path d="M1272.206,1145.972l-79.168,8.715L1150.53,1263.68l-25.834-5.057s14.5-116.464,22.944-126.21c23.035-26.583,103.517-23.437,103.517-23.437Z" transform="translate(-879.487 -868.472)" fill="#7c9af2"/><path d="M1277.946,1499c-.33,5.188-1.518,11.469-1.285,17.522a48.725,48.725,0,0,0,1.845,9.765,9.372,9.372,0,0,1-.685,3.328c-11.26,6.6-22.8,4.219-32.223.978,6.389-2.4,10.835-7.192,12.441-8.935,2.715-2.948.78-11.789-2.8-25C1259.094,1496.663,1271.385,1496.932,1277.946,1499Z" transform="translate(-954.028 -1107.568)" fill="#fb9390"/><path d="M1311.749,1079.318s-82.879,4.486-103.776,35.072c-15.637,22.886,23.3,135.768,23.3,135.768l23.43-4.316s-5.4-76.491-9.3-101.73c-.662-4.276-3.707-16.908-3.707-16.908s88.792,8.729,103.2,1.238,20.445-27.805,14.106-41.057S1311.749,1079.318,1311.749,1079.318Z" transform="translate(-928.548 -849.642)" fill="#92b5f9"/><path d="M1251.541,1573.473c1.461,2.677,2.216,13.046,1.339,13.2-1.049.188-45.1,2.654-50.386-.963-3.262-2.231,8.334-4.636,16.18-7.761C1228.1,1581.193,1251.067,1576.341,1251.541,1573.473Z" transform="translate(-927.105 -1154.924)" fill="#4951ec"/><path d="M1339.254,772.558c-7.382,1.292-7.833,7.253-7.833,7.253l-7.561,31.511s-.7,13.348.837,18.456c2.981,9.936,9,13.854,18.875,17.23,13.083,4.476,18.255,15.756,23.9,22.338,9.789,11.42,1.822,25.083,1.822,25.083l26.031,8.216,38.942-5.229s4.376-6.739-11.122-44.261C1409.682,820.572,1377.425,765.88,1339.254,772.558Z" transform="translate(-1002.182 -660.784)" fill="#fa7167"/><path d="M1390.966,1276.513h5.946c7.7-56.737,5.372-119.949-2.232-176.47a10.816,10.816,0,0,1,10.206-12.251l89.523-4.241v-6.183c-.036,0-75.689-4.629-109.676-6.579a9.7,9.7,0,0,0-10.019,11.828c1,4.423,2.187,9.977,3.488,16.63C1389.379,1155.954,1395.528,1218.8,1390.966,1276.513Z" transform="translate(-1033.483 -844.99)" fill="#4951ec"/><path d="M1274.876,784.9c-8.394-9.22-23.255-3.3-16.65,27.245.037.171-.02,29.6-.825,38.8-8.463-1.7-26.7-9.907-38.254-12.66,0,0-11.728-11.266-17.143-13.376-4.013-1.564-14.9-.773-14.9-.773s-15.866,7.248-14.639,9.588c1.679,3.2,10.826-5.885,15.823-4.406,0,0-11.57,5.608-8.814,6.624s7.376-.317,9.624-.453,8.416,6.509,14.744,9.385a90.812,90.812,0,0,1,10.209,3.738c4.839,2.3,52.958,35.915,57.383,29.028C1283.157,859.4,1288.87,800.274,1274.876,784.9Z" transform="translate(-908.898 -666.289)" fill="#fb9390"/><path d="M1407.693,840.942a249.2,249.2,0,0,1-28.431-5.794s-2.424-27.332-2.523-28.346c-.872-14.036-2.614-23.393,6.468-33.391,4.313-4.748,24.355-1.835,27.7,15.064,3.1,15.662-.171,37.877-2.3,51.775l-.122.8Z" transform="translate(-1034.429 -660.391)" fill="#e8605d"/><path d="M1333.054,541.777c1.043-9.052,1.031-43.452,21.939-42.743s21.031,23.72,37.964-4.007c15.687-25.687,44.66-9.086,41.966,12.17a18.925,18.925,0,0,1,8.568,3.066c9.144,6.076,11.351,18.835,4.93,28.5-1.021,1.536-.936,3.267-2.23,4.452.644,9.6-2.986,19.753-12.068,29.038-24.808,25.361-38.36-8.866-51.717-9.717s-6.789,10.965-19.6,16.781-21.517,2-35.791-23.209l-3.4-6.848S1332.011,550.829,1333.054,541.777Z" transform="translate(-1002.125 -481.971)" fill="#2c2794"/><path d="M1242.8,614.845c14.711,10.266,17.962,36.407,4.421,48.891-8.8,8.113-26.136,9.525-35.762,1.478-15.611-13.052-17.353-27.824-11.817-39.421C1206.782,610.829,1230.661,606.376,1242.8,614.845Z" transform="translate(-923.926 -561.271)" fill="#2c2794"/><path d="M1299.964,714.046s4.532,14.073,20.494,22.191c1.965,1-22.271,39.977-22.281,39.512-.07-3.008,4.19-20.567,3.154-22.725-2.834-5.906-19.29-32.832-19.29-32.832Z" transform="translate(-976.497 -625.054)" fill="#fb9390"/><path d="M1290.809,717.186l-8.768,3.007h0c.016.026,7.231,11.833,12.925,21.517a19.127,19.127,0,0,0,5.234-7.346,27.954,27.954,0,0,0,1.753-15.955,28.34,28.34,0,0,1-1.989-4.364Z" transform="translate(-976.497 -625.054)" fill="#ef7f7f"/><path d="M1224.323,642.747a24.111,24.111,0,0,1,16.392-.123c8.541,3.2,23.885,23.961,15.977,42.174s-26.812,9.162-35.2-2.389S1204.745,653.44,1224.323,642.747Z" transform="translate(-933.51 -580.163)" fill="#fb9390"/><path d="M1258.6,645.48c-6.767-11.75-14.191-18.642-24.624-15.969s-19.79,4.461-20.494,16.706l-.752,2.092s15.11-7.38,21.375-1.606,19.391,7.661,21.134,11.666,6.061,11.255,6.061,11.255l.779-4.5S1265.368,657.23,1258.6,645.48Z" transform="translate(-933.764 -572.582)" fill="#2c2794"/><path d="M1289.728,676.749c1.412,3.645,4.6,5.75,7.128,4.7s3.427-4.854,2.015-8.5-4.6-5.75-7.128-4.7S1288.316,673.1,1289.728,676.749Z" transform="translate(-980.824 -596.652)" fill="#fb9390"/><rect width="15.036" height="221.379" transform="translate(233.889 431.792) rotate(180)" fill="#555"/><g transform="translate(134.484 93.845)"><path d="M837.142,726.7a26.935,26.935,0,0,1,15.136,15c5.917,15.412-3.234,40.111-.62,46.991s14.93,14.38,14.93,14.38l27.933-9.908s-9.77-18.438-9.494-24.768-.688-36.19-12.385-41.694Z" transform="translate(-836.683 -726.703)" fill="#bed1f9"/><g transform="translate(14.219 5.229)"><path d="M896.143,741.44H873.576a.55.55,0,0,1,0-1.1h22.567a.55.55,0,0,1,0,1.1Z" transform="translate(-873.026 -740.339)" fill="#4951ec"/></g><g transform="translate(17.659 9.495)"><path d="M905.665,752.564H882.548a.55.55,0,1,1,0-1.1h23.117a.55.55,0,0,1,0,1.1Z" transform="translate(-881.997 -751.463)" fill="#4951ec"/></g><g transform="translate(26.053 14.311)"><path d="M920.262,765.124H904.437a.55.55,0,0,1,0-1.1h15.824a.55.55,0,0,1,0,1.1Z" transform="translate(-903.887 -764.023)" fill="#4951ec"/></g><rect width="24.952" height="6.146" transform="translate(16.512 104.854)" fill="#0b0754"/><rect width="26.603" height="7.385" transform="translate(101.826 103.569)" fill="#0b0754"/><path d="M865.381,864.731h-8.623V850.146h7.614Z" transform="translate(-848.777 -802.81)" fill="#0b0754"/><path d="M858.328,808.706a11.192,11.192,0,1,1-11.192-11.192A11.192,11.192,0,0,1,858.328,808.706Z" transform="translate(-835.945 -770.361)" fill="#4951ec"/><path d="M861.562,817.261a5.871,5.871,0,1,1-5.871-5.871A5.871,5.871,0,0,1,861.562,817.261Z" transform="translate(-844.5 -778.916)" fill="#0b0754"/><g transform="translate(22.796 20.044)"><path d="M904.2,783.378a4.4,4.4,0,1,1-4.4-4.4A4.4,4.4,0,0,1,904.2,783.378Z" transform="translate(-895.394 -778.975)" fill="#0b0754"/></g><g transform="translate(13.446 26.695)"><path d="M873.106,831.068l-2.1-2.9c.12-.087,11.954-8.7,14.353-15.775,2.358-6.949-.752-14.625-.784-14.7l3.3-1.374c.151.363,3.668,8.974.869,17.225C885.986,821.7,873.631,830.689,873.106,831.068Z" transform="translate(-871.011 -796.318)" fill="#0b0754"/></g><g transform="translate(51.418 20.044)"><path d="M978.84,783.378a4.4,4.4,0,1,1-4.4-4.4A4.4,4.4,0,0,1,978.84,783.378Z" transform="translate(-970.034 -778.975)" fill="#0b0754"/></g><g transform="translate(42.068 26.695)"><path d="M947.746,831.068l-2.1-2.9c.119-.087,11.953-8.7,14.353-15.775,2.358-6.949-.752-14.625-.784-14.7l3.3-1.374c.151.363,3.668,8.974.869,17.225C960.625,821.7,948.271,830.689,947.746,831.068Z" transform="translate(-945.651 -796.318)" fill="#0b0754"/></g><g transform="translate(28.025 22.796)"><rect width="26.007" height="2.202" fill="#0b0754"/></g><g transform="translate(31.947 29.516)"><ellipse cx="8.623" cy="9.907" rx="8.623" ry="9.907" transform="translate(22.521)" fill="#4951ec"/><rect width="21.283" height="20.113" transform="translate(10.091 0.046)" fill="#4951ec"/><path d="M940.173,813.822a10.473,10.473,0,1,1-10.458-9.908A10.194,10.194,0,0,1,940.173,813.822Z" transform="translate(-919.257 -803.822)" fill="#0b0754"/></g><path d="M1116.129,918.6c0,1.14-2.125,2.064-4.747,2.064s-4.747-.924-4.747-2.064,2.125-2.064,4.747-2.064S1116.129,917.455,1116.129,918.6Z" transform="translate(-1002.835 -843.739)" fill="#0b0754"/><path d="M1144.124,932.308c0,1.083-1.725,1.961-3.853,1.961s-3.853-.878-3.853-1.961,1.725-1.961,3.853-1.961S1144.124,931.225,1144.124,932.308Z" transform="translate(-1021.198 -852.257)" fill="#0b0754"/><path d="M1175.7,932.308c0,1.083-1.725,1.961-3.853,1.961s-3.853-.878-3.853-1.961,1.725-1.961,3.853-1.961S1175.7,931.225,1175.7,932.308Z" transform="translate(-1040.667 -852.257)" fill="#0b0754"/><path d="M1160.271,920.825c0,1.083-1.725,1.961-3.853,1.961s-3.853-.878-3.853-1.961,1.725-1.961,3.853-1.961S1160.271,919.742,1160.271,920.825Z" transform="translate(-1031.153 -845.178)" fill="#0b0754"/><g transform="translate(118.178 80.842)"><rect width="1.926" height="14.379" fill="#0b0754"/></g><path d="M1129.77,942.356c0,1.083-1.725,1.961-3.853,1.961s-3.853-.878-3.853-1.961,1.725-1.961,3.853-1.961S1129.77,941.273,1129.77,942.356Z" transform="translate(-1012.348 -858.452)" fill="#0b0754"/><g transform="translate(112.674 84.695)"><rect width="1.927" height="14.38" fill="#0b0754"/></g><g transform="translate(107.582 76.163)"><rect width="1.927" height="14.38" fill="#0b0754"/></g><g transform="translate(130.287 80.773)"><rect width="1.926" height="14.38" fill="#0b0754"/></g><g transform="translate(124.302 77.126)"><rect width="1.926" height="15.205" fill="#0b0754"/></g><path d="M975.355,891.835v16.612H838.577V863.588H859.4L867.474,849l50.457-.242,4.967-.022C920.809,877.805,948.255,899.263,975.355,891.835Z" transform="translate(-837.568 -801.942)" fill="#2c2794"/><path d="M1102.785,891.835v5.119a46.544,46.544,0,0,1-57.425-48.194l4.967-.022C1048.239,877.805,1075.685,899.263,1102.785,891.835Z" transform="translate(-964.998 -801.942)" fill="#4951ec"/><path d="M950.462,930.2h-96.6V896.9a.826.826,0,1,0-1.651,0v34.126a.826.826,0,0,0,.826.826h97.423a.826.826,0,1,0,0-1.651Z" transform="translate(-845.975 -831.129)" fill="#4951ec"/></g><path d="M6.812,0H332.566a6.812,6.812,0,0,1,6.812,6.812v0a6.812,6.812,0,0,1-6.812,6.812H6.812A6.812,6.812,0,0,1,0,6.812v0A6.812,6.812,0,0,1,6.812,0Z" transform="translate(339.379 218.408) rotate(180)" fill="#555"/></g><g transform="translate(-2022.545 13670.434)"><path d="M599.433,856.832l-6.356.6-5.8-53.493,1.987-10.365,4.369,9.768Z" transform="translate(-580.108 -793.571)" fill="#fa7167"/><path d="M593.7,808.238l-.011-.1-3.033-6.782-1.94.167-1.349,7.037A27.664,27.664,0,0,0,593.7,808.238Z" transform="translate(-580.162 -798.372)" fill="#dde8fe"/><path d="M611.756,878.571l-6.353-.62,5.865-47.842c.2-1.733,1.552-5.493,3.287-5.324h0c1.773.173,1.954,4.161,1.755,5.931Z" transform="translate(-591.281 -812.812)" fill="#0b0754"/><g transform="translate(22.614 8.829)"><path d="M627.914,824.13l-.045,0a.365.365,0,0,1-.316-.407l.851-6.8a.365.365,0,0,1,.724.091l-.851,6.8A.365.365,0,0,1,627.914,824.13Z" transform="translate(-627.549 -816.597)" fill="#0b0754"/></g><path d="M0,0H28.371a0,0,0,0,1,0,0V32.642A12.379,12.379,0,0,1,15.992,45.021H12.379A12.379,12.379,0,0,1,0,32.641V0A0,0,0,0,1,0,0Z" transform="translate(0 40.321)" fill="#7c9af2"/><path d="M585.525,938.515V898.721h-16.95v39.794a5.226,5.226,0,0,0,5.227,5.227h6.5A5.227,5.227,0,0,0,585.525,938.515Z" transform="translate(-568.575 -858.4)" fill="#92b5f9"/></g><g transform="translate(-1804.306 13684.52)"><path d="M1142.634,842.811l-1.32,2.81a1.9,1.9,0,0,1-2.033,1.062h0a1.894,1.894,0,0,1-1.375-2.718l6.856-13.66,4.991.849,2.016,15.162a1.9,1.9,0,0,1-2.2,2.117l-.17-.029a1.9,1.9,0,0,1-1.562-1.634l-.39-3.141Zm4.752-2.119-.441-3.748c-.129-1.049-.216-2.348-.3-3.389l-.05-.008c-.419.956-.886,2.187-1.326,3.113l-1.6,3.4Z" transform="translate(-1137.703 -830.306)" fill="#92b5f9"/></g><g transform="translate(-1830.69 13662.92)"><path d="M1068.9,778.911a39.749,39.749,0,0,1,5.628-3.207c2.751-1.318,4.564-1.86,6.425-1.7a4.811,4.811,0,0,1,4.266,2.756,5,5,0,0,1-1.241,5.834l.028.059a5.532,5.532,0,0,1,6.317,3.011,5.89,5.89,0,0,1-.044,5.221c-.9,1.848-3.01,3.662-6.973,5.561a38.922,38.922,0,0,1-5.022,2.043Zm8.123,5.49,1.479-.709c2.367-1.134,3.17-2.719,2.462-4.2-.723-1.509-2.259-1.754-4.3-.776a13.572,13.572,0,0,0-1.866,1.04Zm4.239,8.843a15.816,15.816,0,0,0,1.774-.777c2.04-.978,3.476-2.611,2.47-4.711-.964-2.011-3.151-1.946-5.4-.868l-1.538.737Z" transform="translate(-1068.9 -773.979)" fill="#bed1f9"/></g><g transform="translate(-1812.067 13632.251)"><path d="M1137.094,715.247a2.216,2.216,0,0,1-1.384,2.794,20.74,20.74,0,0,1-4.015.9c-8.285,1.068-13.217-3.539-14.1-10.366-1.054-8.179,4.191-13.482,11.446-14.417a18.5,18.5,0,0,1,3.789-.115,2.209,2.209,0,0,1,2,2.481l-.01.082a2.215,2.215,0,0,1-2.385,1.935,12.3,12.3,0,0,0-2.565.066c-4.3.554-7.311,3.581-6.624,8.915.618,4.8,3.853,7.458,8.69,6.834a14.351,14.351,0,0,0,2.419-.543,2.2,2.2,0,0,1,2.739,1.429Z" transform="translate(-1117.464 -693.998)" fill="#bed1f9"/></g><g transform="translate(-1847.89 13598.532)"><path d="M1024.046,611.235a62.373,62.373,0,0,1,8.776-3.577c5.578-1.843,9.526-2.036,13.063-.837,3.8,1.258,6.911,4.241,8.626,9.427,1.857,5.622,1.091,10.176-.95,13.509-2.244,3.594-6.548,6.369-12.3,8.269a60.755,60.755,0,0,1-7.684,2.056ZM1038.633,633a12.873,12.873,0,0,0,2.353-.633c6.027-1.943,8.854-6.551,6.537-13.567-1.973-6.115-6.611-8.159-12.32-6.273a14.481,14.481,0,0,0-2.92,1.257Z" transform="translate(-1024.046 -606.065)" fill="#92b5f9"/></g><g transform="translate(-1652.291 13783.757)"><g transform="translate(78.033 85.563)"><g transform="translate(48.734)"><g transform="translate(6.576 0.427)"><path d="M1887.882,1316.014a3.019,3.019,0,1,1-3.349-2.647A3.019,3.019,0,0,1,1887.882,1316.014Z" transform="translate(-1881.865 -1313.346)" fill="#fa7167"/><path d="M1885.334,1320.682a1.952,1.952,0,1,0,1.407-3.006,1.954,1.954,0,0,0-1.407,3.006Z" transform="translate(-1883.808 -1316.007)" fill="#fa7167"/></g><g transform="translate(27.01 6.579)"><path d="M1935.868,1330.461a3.019,3.019,0,1,0,4.254-.359A3.018,3.018,0,0,0,1935.868,1330.461Z" transform="translate(-1935.155 -1329.39)" fill="#fa7167"/><path d="M1937.482,1336.692a1.952,1.952,0,0,0,2.893-2.561,1.988,1.988,0,0,0-.375-.422,1.952,1.952,0,0,0-2.519,2.982Z" transform="translate(-1936.165 -1331.769)" fill="#fa7167"/></g><g transform="translate(14.111)"><path d="M1901.516,1315.242a3.019,3.019,0,1,0,3.028-3.009A3.019,3.019,0,0,0,1901.516,1315.242Z" transform="translate(-1901.516 -1312.233)" fill="#fa7167"/><path d="M1906.052,1320.485a1.952,1.952,0,1,0-1.945-1.958A1.955,1.955,0,0,0,1906.052,1320.485Z" transform="translate(-1903.113 -1314.915)" fill="#fa7167"/></g><g transform="translate(0 3.251)"><path d="M1865.417,1325.663a3.018,3.018,0,1,0,.386-4.251A3.019,3.019,0,0,0,1865.417,1325.663Z" transform="translate(-1864.717 -1320.712)" fill="#fa7167"/><path d="M1868.809,1328.02a1.952,1.952,0,1,0,.25-2.749A1.954,1.954,0,0,0,1868.809,1328.02Z" transform="translate(-1866.96 -1323.245)" fill="#fa7167"/></g><g transform="translate(23.206 38.664)"><path d="M1925.556,1417.436a3.019,3.019,0,1,1,4.052,1.343A3.019,3.019,0,0,1,1925.556,1417.436Z" transform="translate(-1925.235 -1413.062)" fill="#fa7167"/><path d="M1927.469,1417.554a1.952,1.952,0,1,0,.754-2.817,1.949,1.949,0,0,0-.754,2.817Z" transform="translate(-1926.414 -1413.966)" fill="#fa7167"/></g><g transform="translate(31.82 27.024)"><path d="M1949.52,1388.5a3.018,3.018,0,1,1,3.968-1.576A3.019,3.019,0,0,1,1949.52,1388.5Z" transform="translate(-1947.697 -1382.707)" fill="#fa7167"/><path d="M1949.277,1388.054a1.952,1.952,0,1,0,2.4-2.864,1.954,1.954,0,0,0-2.4,2.864Z" transform="translate(-1948.469 -1384.134)" fill="#fa7167"/></g><g transform="translate(30.936 12.57)"><path d="M1949.278,1350.924a3.018,3.018,0,1,1,2.026-3.757A3.019,3.019,0,0,1,1949.278,1350.924Z" transform="translate(-1945.393 -1345.014)" fill="#fa7167"/><path d="M1950.4,1351.311a1.952,1.952,0,1,0-3.587-.367A1.941,1.941,0,0,0,1950.4,1351.311Z" transform="translate(-1946.216 -1347.124)" fill="#fa7167"/></g><g transform="translate(28.421 33.762)"><path d="M1943.37,1400.688a3.018,3.018,0,1,0,1.092,4.127A3.018,3.018,0,0,0,1943.37,1400.688Z" transform="translate(-1938.833 -1400.278)" fill="#fa7167"/><path d="M1942.8,1405.951a1.951,1.951,0,1,0-2.185-2.868A1.954,1.954,0,0,0,1942.8,1405.951Z" transform="translate(-1939.765 -1401.41)" fill="#fa7167"/></g><g transform="translate(20.969 2.066)"><path d="M1924.941,1322.3a3.019,3.019,0,1,1-.863-4.18A3.019,3.019,0,0,1,1924.941,1322.3Z" transform="translate(-1919.4 -1317.62)" fill="#fa7167"/><path d="M1922.359,1325.4a1.949,1.949,0,1,0-.56-.559A1.953,1.953,0,0,0,1922.359,1325.4Z" transform="translate(-1920.682 -1320.207)" fill="#fa7167"/></g><g transform="translate(32.664 19.917)"><path d="M1952.4,1364.217a3.019,3.019,0,1,0,3.488,2.461A3.018,3.018,0,0,0,1952.4,1364.217Z" transform="translate(-1949.898 -1364.172)" fill="#fa7167"/><path d="M1953.39,1370.912a1.952,1.952,0,1,0-2.255-1.591A1.955,1.955,0,0,0,1953.39,1370.912Z" transform="translate(-1950.643 -1365.938)" fill="#fa7167"/></g><path d="M1876.529,1330.412l-.476.314L1896,1361.162l.477-.312-8.87-13.606,13.034,9.692.34-.457-13.582-10.1,16.194,4.921.166-.545-15.541-4.722,16.214-.953-.034-.568-16.9.993,15.568-6.64-.223-.525-14.942,6.372,11.807-11.156-.392-.415-12.3,11.624,7.657-15.092-.508-.258-7.35,14.486,1.874-16.136-.566-.066-1.953,16.813-3.838-16.484-.555.129,3.684,15.819Z" transform="translate(-1871.706 -1321.769)" fill="#fa7167"/></g><g transform="translate(0 22.065)"><rect width="76.271" height="2.439" transform="matrix(0.836, -0.548, 0.548, 0.836, 0, 41.794)" fill="#fa7167"/></g></g><g transform="translate(67.669)"><g transform="translate(24.292)"><g transform="translate(7.423 9.377)"><path d="M1802.569,1115.684a5.11,5.11,0,1,1-7.13-1.174A5.11,5.11,0,0,1,1802.569,1115.684Z" transform="translate(-1793.307 -1113.552)" fill="#fa7167"/><path d="M1801.589,1126.453a3.3,3.3,0,1,0-.381-5.606,3.307,3.307,0,0,0,.381,5.606Z" transform="translate(-1797.331 -1117.666)" fill="#fa7167"/></g><g transform="translate(42.728 1.728)"><path d="M1885.474,1097.725a5.11,5.11,0,1,0,6.005-4.02A5.11,5.11,0,0,0,1885.474,1097.725Z" transform="translate(-1885.376 -1093.607)" fill="#fa7167"/><path d="M1891.935,1107.4a3.3,3.3,0,1,0-1.2-5.985A3.306,3.306,0,0,0,1891.935,1107.4Z" transform="translate(-1887.783 -1098.076)" fill="#fa7167"/></g><g transform="translate(18.23 2.565)"><path d="M1822.122,1103.359a5.11,5.11,0,1,0,2.017-6.938A5.11,5.11,0,0,0,1822.122,1103.359Z" transform="translate(-1821.489 -1095.788)" fill="#fa7167"/><path d="M1832.083,1109.15a3.3,3.3,0,1,0-4.486-1.3A3.309,3.309,0,0,0,1832.083,1109.15Z" transform="translate(-1824.998 -1100.195)" fill="#fa7167"/></g><g transform="translate(0 18.951)"><path d="M1777.212,1148.4a5.11,5.11,0,1,0-2.915-6.613A5.111,5.111,0,0,0,1777.212,1148.4Z" transform="translate(-1773.95 -1138.521)" fill="#fa7167"/><path d="M1783.127,1150.872a3.3,3.3,0,1,0-1.885-4.275A3.308,3.308,0,0,0,1783.127,1150.872Z" transform="translate(-1778.307 -1142.2)" fill="#fa7167"/></g><g transform="translate(63.409 52.36)"><path d="M1941.536,1234.974a5.109,5.109,0,1,1,7.1-1.334A5.109,5.109,0,0,1,1941.536,1234.974Z" transform="translate(-1939.309 -1225.646)" fill="#fa7167"/><path d="M1943.421,1235.349a3.3,3.3,0,1,0-1.192-4.79,3.3,3.3,0,0,0,1.192,4.79Z" transform="translate(-1940.753 -1227.786)" fill="#fa7167"/></g><g transform="translate(66.618 28.059)"><path d="M1953.289,1172.468a5.11,5.11,0,1,1,4.583-5.587A5.11,5.11,0,0,1,1953.289,1172.468Z" transform="translate(-1947.677 -1162.273)" fill="#fa7167"/><path d="M1951.558,1173.789a3.3,3.3,0,1,0,1.211-6.212,3.307,3.307,0,0,0-1.211,6.212Z" transform="translate(-1948.983 -1165.533)" fill="#fa7167"/></g><g transform="translate(53.456 7.381)"><path d="M1922.116,1117.03a5.11,5.11,0,1,1-.081-7.225A5.11,5.11,0,0,1,1922.116,1117.03Z" transform="translate(-1913.353 -1108.348)" fill="#fa7167"/><path d="M1923.044,1118.44a3.3,3.3,0,1,0-5.614,2.4A3.281,3.281,0,0,0,1923.044,1118.44Z" transform="translate(-1915.254 -1112.555)" fill="#fa7167"/></g><g transform="translate(67.111 40.825)"><path d="M1954.18,1195.564a5.11,5.11,0,1,0,5,5.218A5.11,5.11,0,0,0,1954.18,1195.564Z" transform="translate(-1948.963 -1195.563)" fill="#fa7167"/><path d="M1956.619,1205.587a3.3,3.3,0,1,0-5.589-2.455A3.308,3.308,0,0,0,1956.619,1205.587Z" transform="translate(-1950.237 -1198.236)" fill="#fa7167"/></g><g transform="translate(30.081)"><path d="M1862.6,1094.6a5.109,5.109,0,1,1-4.706-5.483A5.11,5.11,0,0,1,1862.6,1094.6Z" transform="translate(-1852.397 -1089.1)" fill="#fa7167"/><path d="M1860.276,1103.075a3.3,3.3,0,1,0-1.289-.369A3.355,3.355,0,0,0,1860.276,1103.075Z" transform="translate(-1855.373 -1093.649)" fill="#fa7167"/></g><g transform="translate(62.038 16.843)"><path d="M1937.645,1134.15a5.11,5.11,0,1,0,7.183.783A5.11,5.11,0,0,0,1937.645,1134.15Z" transform="translate(-1935.735 -1133.024)" fill="#fa7167"/><path d="M1943.556,1145.025a3.3,3.3,0,1,0-4.644-.506A3.309,3.309,0,0,0,1943.556,1145.025Z" transform="translate(-1937.245 -1136.798)" fill="#fa7167"/></g><path d="M1798.6,1131.467l-.448.855,54.5,28.712.452-.853-24.293-12.873,27.248,3.663.129-.956-28.395-3.817,28.016-5.994-.2-.944-26.885,5.753,23.229-14.708-.515-.814-24.206,15.326,17.609-22.6-.761-.593-16.9,21.69,8.334-26.2-.919-.293-8.684,27.3-1.037-28.629-.964.034,1,27.479-10.457-25.43-.892.367,10.9,26.5-19.2-21.261-.717.647,18.429,20.4Z" transform="translate(-1788.874 -1105.37)" fill="#fa7167"/></g><g transform="translate(0 37.57)"><rect width="129.107" height="4.129" transform="matrix(0.466, -0.885, 0.885, 0.466, 0, 114.215)" fill="#fa7167"/></g></g><path d="M1640.148,1299.925s-41.815-31.039-47.546-44.416,6.084-11.866,6.084-11.866-16.885-23.923-12.4-31.829S1600.09,1214,1600.09,1214s-7.833-32.365-1.022-34.165c12.686-3.353,23.094,31.478,23.094,31.478s-.933-14.461,7.007-12.513c11.974,2.937,5.64,34.071,5.64,34.071s3.817-5.521,10.384-.269C1656.975,1242.03,1640.148,1299.925,1640.148,1299.925Z" transform="translate(-1565.819 -1144.904)" fill="#7c9af2"/><path d="M1668.734,1233.412c-6.567-5.252-12.156-.536-12.156-.536s6.334-31.134-5.64-34.071c-7.94-1.948-7.007,12.513-7.007,12.513s-10.409-34.831-23.095-31.478l41.392,119.986C1664.08,1292.332,1679.739,1242.214,1668.734,1233.412Z" transform="translate(-1587.589 -1144.904)" fill="#4951ec"/><g transform="translate(0 92.979)"><path d="M1608.4,1392.535s-42.851-.045-51.7-7.472,2-8.005,2-8.005-20.479-10.871-20.18-18.119,7.241-5.789,7.241-5.789-14.155-12.68-11.249-18.827c4.466-9.446,24.71,8.468,24.71,8.468s-1.547-7.185,4.731-8.685c9.469-2.264,19.075,24.659,19.075,24.659s-4.529-12.127,1.976-10.78C1596.688,1350.4,1608.4,1392.535,1608.4,1392.535Z" transform="translate(-1534.132 -1331.573)" fill="#bed1f9"/></g><path d="M1713.021,1308.245s38.034-32.456,42.674-45.531-6.509-10.92-6.509-10.92,14.614-23.786,9.871-31.036-11.464-2.961-11.464-2.961,3.951-25.385-2.638-26.686c-12.273-2.421-20.064,31.35-20.064,31.35s.011-13.815-7.425-11.48c-11.214,3.521-3.3,32.758-3.3,32.758s-4.139-10.93-10.069-5.535C1693.458,1247.884,1713.021,1308.245,1713.021,1308.245Z" transform="translate(-1636.968 -1151.917)" fill="#4951ec"/><path d="M1698.98,1235.868c6.874-4.125,11.009,1.376,11.009,1.376s-6.286-22.743,4.928-26.264c7.437-2.335,7.425,11.48,7.425,11.48s7.791-33.771,20.064-31.35l-32.1,116.67C1708.086,1300.764,1690.792,1240.781,1698.98,1235.868Z" transform="translate(-1634.419 -1151.917)" fill="#7c9af2"/><g transform="translate(79.882 119.767)"><path d="M1742.45,1433.331s41.78.016,47.592-.659-.61-5.864-.61-5.864,13,.473,14.982-2.689-3.328-4.408-3.328-4.408,12.947-3.752,12.33-6.5c-1.151-5.129-15.45-1.785-15.45-1.785s5.31-2.577,3.152-4.974c-3.255-3.615-17.157,6.213-17.157,6.213s5.219-9.873,2.139-11.124C1780.575,1399.292,1742.45,1433.331,1742.45,1433.331Z" transform="translate(-1742.45 -1401.43)" fill="#bed1f9"/></g><path d="M1686.7,1529.629h-69.537c-8.856-8.089-14.252-19.23-14.055-31.451a37.654,37.654,0,0,1,4.019-16.835l89.654,1.007a39.887,39.887,0,0,1,3.708,17.434A41.369,41.369,0,0,1,1686.7,1529.629Z" transform="translate(-1576.652 -1330.933)" fill="#fa7167"/></g></g></svg>