<svg xmlns="http://www.w3.org/2000/svg" width="87.289" height="80.121" viewBox="0 0 87.289 80.121"><g transform="translate(6747.465 788.02)"><g transform="translate(-6747.465 -782.144)"><path d="M-6677.791-741.524c.144.015.277.022.4.024C-6677.519-741.513-6677.654-741.523-6677.791-741.524Zm0,0c.144.015.277.022.4.024C-6677.519-741.513-6677.654-741.523-6677.791-741.524Zm17.465-3.14a4.3,4.3,0,0,0-4.547-3.214q-7.328,0-14.657,0h-.946l.022,2.9h15.258c.2,0,.4-.009.6.005a1.516,1.516,0,0,1,1.515,1.529c.016.226.005.454.005.682V-707.2h-17.381c-.015-.308-.04-.583-.04-.86v3.857h17.41c0,1.485.038,2.926-.015,4.366a1.434,1.434,0,0,1-1.532,1.394c-.226.009-.454,0-.681,0h-77.026c-1.8,0-2.205-.4-2.205-2.192,0-1.163,0-2.325,0-3.475.667-.179,15.148-.253,17.384-.087v-3.01H-6744.5c-.017-.248-.047-.494-.047-.738q-.005-17.547,0-35.094c0-1.368.514-1.937,1.788-1.941q7.578-.011,15.16,0c.111,0,.222.016.434.035v-2.939h-.964c-4.971,0-9.943.031-14.914-.013a4.438,4.438,0,0,0-4.417,4.435c.053,2.471.011,4.942.011,7.414q0,18.025,0,36.049a4.281,4.281,0,0,0,3.262,4.333,6.948,6.948,0,0,0,1.689.138q15.169.011,30.338.007c.33,0,.66.015.992.022v8.67h-.964c-3.89,0-7.782.018-11.674-.011a1.674,1.674,0,0,0-1.842,1.817c.069,2.015.019,4.034.019,6.051v.891h-2.846v2.9c1.617.169,48.746.1,49.332-.064v-2.883H-6682v-.864c0-2.074.007-4.147,0-6.221a1.485,1.485,0,0,0-1.5-1.607c-.226-.018-.454-.005-.681-.005h-12.229a69.083,69.083,0,0,1,.061-8.693h30.994c.341,0,.682,0,1.023-.016a4.22,4.22,0,0,0,3.862-2.739c.1-.23.2-.457.3-.685v-45.516A.819.819,0,0,1-6660.326-744.664Zm-47.773,49.281a76.806,76.806,0,0,1,8.484-.055,75.486,75.486,0,0,1,.086,8.467,66.424,66.424,0,0,1-8.57.044Zm23.155,11.629v5.614h-37.65a31.853,31.853,0,0,1-.077-5.567C-6722.062-683.866-6686.094-683.919-6684.944-683.755Zm7.558-57.746c-.133-.013-.268-.022-.4-.024C-6677.647-741.51-6677.514-741.5-6677.386-741.5Zm-.4-.024c.144.015.277.022.4.024C-6677.519-741.513-6677.654-741.523-6677.791-741.524Z" transform="translate(6747.465 749.327)" fill="#555"/><path d="M-6603.833-715.766h33.366v2.84h-33.316A8.026,8.026,0,0,1-6603.833-715.766Z" transform="translate(6630.086 723.056)" fill="#91ddea"/><path d="M-6555.549-752.9v-2.866h24.647v2.813C-6531.512-752.8-6554.108-752.741-6555.549-752.9Z" transform="translate(6590.518 755.77)" fill="#91ddea"/><path d="M-6603.888-529.392c0-.87,0-1.66,0-2.45a2.467,2.467,0,0,1,.085-.436h18.727a7.2,7.2,0,0,1,.064,2.886Z" transform="translate(6630.049 573.001)" fill="#926cdc"/><path d="M-6587.559-572.214v2.794h-15.965v-2.744C-6602.916-572.321-6588.852-572.374-6587.559-572.214Z" transform="translate(6629.752 605.739)" fill="#926cdc"/><path d="M-6539.633-672.86v-2.8h15.945v2.728C-6524.283-672.759-6537.861-672.688-6539.633-672.86Z" transform="translate(6577.502 690.258)" fill="#91ddea"/><path d="M-6529.41-636.227v2.735a96.619,96.619,0,0,1-10.134.055V-636.2A99.241,99.241,0,0,1-6529.41-636.227Z" transform="translate(6577.43 658.104)" fill="#91ddea"/><path d="M-6595.194-635.958v2.871h-8.677a24.364,24.364,0,0,1-.062-2.871Z" transform="translate(6630.098 657.789)" fill="#91ddea"/><path d="M-6597.712-752.879h-5.812v-2.892h5.774C-6597.67-754.809-6597.729-753.869-6597.712-752.879Z" transform="translate(6629.752 755.771)" fill="#91ddea"/><path d="M-6601-675.967v2.869c-.925.066-1.85.007-2.857.034a20.807,20.807,0,0,1-.065-2.893C-6602.929-676.014-6601.988-676-6601-675.967Z" transform="translate(6630.094 690.531)" fill="#91ddea"/><path d="M-6571.563-672.859v-2.817h2.84v2.817Z" transform="translate(6603.615 690.271)" fill="#91ddea"/><path d="M-6313.414-500.255v2.9c-.926.048-1.839.022-2.865.013-.06-.979-.033-1.92-.018-2.918Z" transform="translate(6394.876 546.813)" fill="#91ddea"/></g><path d="M-6465.9-712.048a5.858,5.858,0,0,0-2.524-.884c-.127,0-.26-.009-.4-.024h0a5.836,5.836,0,0,0-1.884.282c-.191.06-.386.111-.612.171a.006.006,0,0,1,0,0,6.117,6.117,0,0,0-1.78,1.265l-2.54,3-.039.046q-7.142,8.492-14.276,16.989a3.316,3.316,0,0,0-.747,1.675c-.4,2.52-.809,5.038-1.2,7.558-.215,1.381.731,2.245,2.052,1.809,2.607-.858,5.2-1.764,7.784-2.7a2.744,2.744,0,0,0,1.042-.827c1.849-2.176,3.675-4.375,5.508-6.563l.22-.262,4.147-4.938c.037-.051.077-.1.12-.153l1.161-1.372c1.795-2.125,3.589-4.249,5.355-6.4A5.8,5.8,0,0,0-6465.9-712.048Zm-22.671,28.343a26.931,26.931,0,0,1,.47-3.362l2.688,2.265Zm5.918-2.622c-1.518-1.279-2.946-2.48-4.427-3.728l13.068-15.568c1.494,1.254,2.924,2.453,4.433,3.717Zm16.1-19.256c-.308.472-.7.889-1.123,1.425-1.472-1.23-2.917-2.436-4.451-3.715.417-.488.741-.92,1.119-1.3a2.889,2.889,0,0,1,3.872-.175A2.87,2.87,0,0,1-6466.554-705.583Z" transform="translate(-208.961 -61.386)" fill="#91ddea"/><path d="M-6589.425-755.616q.021,5.647.013,11.293v7.307h0c0,.545,0,1.075,0,1.6v.337c0,.151,0,.3,0,.452-.009,1.427-.538,1.966-1.953,1.966q-21.346,0-42.688,0c-1.465,0-1.977-.528-1.984-2.021,0-.762,0-1.523,0-2.327a.265.265,0,0,0-.038,0v-40.748h0V-780.7c.014-.357.038-.634.038-.909,0-1.449.04-2.9-.009-4.346-.046-1.336.572-2.074,2.044-2.07q17.129.041,34.259.015h8.353c1.465.009,1.975.526,1.981,2.022,0,.652,0,1.307,0,1.959q0,1.194,0,2.387v.942h.027l.021,2.9v3.952l.159-.044a6.117,6.117,0,0,0-1.78,1.265l-2.54,3,.7-.836a1.649,1.649,0,0,0,.432-1.146c-.015-4.231-.007-8.464-.011-12.7,0-.219-.04-.437-.064-.676H-6633v49.242c1.1.179,39.951.129,40.545-.042v-16.953c-.293.339-.516.589-.723.833l4.147-4.938A1.941,1.941,0,0,0-6589.425-755.616Z" transform="translate(-91.09 0)" fill="#926cdc"/></g></svg>