<svg xmlns="http://www.w3.org/2000/svg" width="692.481" height="429.323" viewBox="0 0 692.481 429.323"><g transform="translate(-30.752 -38.248)"><rect width="662" height="3" transform="translate(34.252 464.571)" fill="#9678d0"/><g transform="translate(44.39 69.249)"><g transform="translate(8.548 5.794)"><rect width="118.218" height="212.371" fill="#ebebeb"/></g><g transform="translate(13.271 11.953)"><rect width="107.553" height="199.886" fill="#fafafa"/></g><g transform="translate(13.271 11.953)"><path d="M165.524,84.051,57.971,220.863V81.7H165.524Z" transform="translate(-57.971 -81.697)" fill="#f5f5f5"/></g><g transform="translate(13.271 69.454)"><rect width="109.888" height="2.128" fill="#ebebeb"/></g><g transform="translate(13.271 117.055)"><rect width="109.888" height="2.128" fill="#ebebeb"/></g><g transform="translate(13.271 164.655)"><rect width="109.888" height="2.128" fill="#ebebeb"/></g><g transform="translate(64.331 70.518)"><rect width="146.988" height="5.434" transform="translate(0 146.988) rotate(-90)" fill="#ebebeb"/></g><g transform="translate(33.981 11.953)"><rect width="2.462" height="58.566" fill="#ebebeb"/></g><g transform="translate(55.213 11.953)"><rect width="2.462" height="58.566" fill="#ebebeb"/></g><g transform="translate(76.445 11.953)"><rect width="2.462" height="58.566" fill="#ebebeb"/></g><g transform="translate(97.677 11.953)"><rect width="2.462" height="58.566" fill="#ebebeb"/></g><g transform="translate(3.547 2.193)"><rect width="5" height="217.287" fill="#f5f5f5"/></g><g transform="translate(126.766 2.193)"><path d="M177.773,289.711l-5-1.914V71.824h5Z" transform="translate(-172.773 -71.824)" fill="#e0e0e0"/></g><g transform="translate(3.547)"><rect width="128.218" height="5.794" fill="#e0e0e0"/></g><g transform="translate(0 220.794)"><rect width="135.15" height="5.399" fill="#e0e0e0"/></g><g transform="translate(0 218.165)"><path d="M171.312,290.285l8.385,2.629H44.547l8.548-2.629Z" transform="translate(-44.547 -290.285)" fill="#ebebeb"/></g></g><g transform="translate(647.385 207.401)"><path d="M686.785,209.38s-8.356-.6-7.587,18.143,2.681,28.728,2.681,28.728-.245,4.156-3.464,3.341-9.274-4.86-12.265-1.837c-3.1,3.136-2,7.945,2.116,13.61s12.672,18.408,13.441,19.564c.755,1.134,1.059,3.26-1.223,3.056s-17.683-5.425-19.723,2.032,12.015,21.356,13.522,22.905,1.589,2.526.977,3.463-5.623-1.3-10.064-2.61-9.82-2.04-10.636,2.36,5.374,17.279,28.557,30.814l11.152,5.568,10.555-6.732c21.713-15.786,26.584-29.218,25.331-33.516s-6.531-3.027-10.818-1.285-9.051,4.475-9.753,3.6-.72-1.852.626-3.544,13.938-16.927,11.163-24.142-17.577-.48-19.828-.049-2.161-1.714-1.522-2.917c.649-1.227,7.89-14.762,11.417-20.809s4.143-10.945.742-13.755c-3.277-2.709-8.9,1.921-12.02,3.055s-3.78-2.977-3.78-2.977.9-10.125-.206-28.853-9.564-17.216-9.564-17.216" transform="translate(-654.491 -209.35)" fill="#ebebeb"/><g transform="translate(32.952 16.817)"><path d="M687.825,226.361s.022.132.044.391l.089,1.151c.07,1.031.171,2.519.3,4.426.255,3.845.584,9.411.964,16.288.765,13.756,1.658,32.769,2.575,53.769s1.764,40.022,2.451,53.781c.349,6.865.632,12.427.828,16.293.095,1.908.169,3.4.22,4.43.02.492.036.875.047,1.153.008.26,0,.393,0,.393s-.022-.132-.044-.391c-.022-.278-.05-.659-.089-1.151-.07-1.031-.171-2.519-.3-4.425-.256-3.845-.585-9.41-.965-16.287-.764-13.757-1.658-32.771-2.575-53.778s-1.764-40.013-2.451-53.772c-.349-6.865-.632-12.427-.828-16.294-.095-1.909-.169-3.4-.22-4.431-.02-.492-.036-.875-.047-1.153C687.818,226.5,687.825,226.361,687.825,226.361Z" transform="translate(-687.822 -226.361)" fill="#e0e0e0"/></g><g transform="translate(19.901 54.402)"><path d="M674.623,264.381a3.591,3.591,0,0,1,.694.577c.429.39,1.031.972,1.769,1.7,1.472,1.458,3.451,3.525,5.593,5.847l5.454,5.968,1.661,1.8a3.658,3.658,0,0,1,.58.69,3.631,3.631,0,0,1-.7-.572c-.428-.391-1.031-.974-1.762-1.709-1.457-1.473-3.409-3.565-5.549-5.887l-5.5-5.926q-.983-1.054-1.67-1.793A3.65,3.65,0,0,1,674.623,264.381Z" transform="translate(-674.622 -264.379)" fill="#e0e0e0"/></g><g transform="translate(36.759 51.838)"><path d="M691.675,280.566c-.084-.083,3.994-4.354,9.108-9.539s9.33-9.323,9.414-9.24-3.993,4.353-9.109,9.539S691.758,280.649,691.675,280.566Z" transform="translate(-691.674 -261.786)" fill="#e0e0e0"/></g><g transform="translate(36.714 90.741)"><path d="M691.628,313.331a3.894,3.894,0,0,1,.777-.494l2.182-1.224c1.841-1.034,4.378-2.471,7.12-4.157s5.182-3.286,6.936-4.461l2.081-1.388a3.808,3.808,0,0,1,.793-.469,3.805,3.805,0,0,1-.7.6c-.465.367-1.147.883-2,1.5-1.714,1.241-4.129,2.891-6.886,4.576s-5.32,3.091-7.2,4.059c-.942.48-1.709.86-2.248,1.106A3.764,3.764,0,0,1,691.628,313.331Z" transform="translate(-691.628 -301.137)" fill="#e0e0e0"/></g><g transform="translate(18.237 91.623)"><path d="M672.939,302.032a3.243,3.243,0,0,1,.772.362c.481.257,1.173.642,2.022,1.124,1.7.965,4.028,2.322,6.588,3.846s4.868,2.922,6.526,3.953c.829.515,1.5.939,1.952,1.24a3.264,3.264,0,0,1,.686.505,3.321,3.321,0,0,1-.771-.362c-.482-.257-1.173-.642-2.022-1.124-1.7-.965-4.029-2.322-6.589-3.846s-4.867-2.922-6.525-3.953c-.829-.515-1.5-.939-1.953-1.24A3.291,3.291,0,0,1,672.939,302.032Z" transform="translate(-672.938 -302.029)" fill="#e0e0e0"/></g><g transform="translate(14.573 120.15)"><path d="M669.232,330.887a5.292,5.292,0,0,1,.981.475l2.6,1.431c2.182,1.225,5.182,2.943,8.482,4.863s6.278,3.681,8.421,4.973l2.527,1.548a5.348,5.348,0,0,1,.9.619,5.34,5.34,0,0,1-.981-.475l-2.6-1.431c-2.182-1.226-5.182-2.943-8.483-4.864s-6.277-3.68-8.42-4.972L670.13,331.5A5.388,5.388,0,0,1,669.232,330.887Z" transform="translate(-669.232 -330.884)" fill="#e0e0e0"/></g><g transform="translate(37.999 117.411)"><path d="M692.928,344.271a6.16,6.16,0,0,1,.97-.65l2.711-1.651c2.288-1.394,5.442-3.33,8.864-5.563s6.476-4.325,8.674-5.856l2.607-1.811a6.086,6.086,0,0,1,.986-.624,6.18,6.18,0,0,1-.887.758c-.588.466-1.45,1.125-2.529,1.922-2.156,1.6-5.184,3.736-8.618,5.969s-6.614,4.136-8.944,5.465c-1.167.662-2.117,1.187-2.781,1.535A6.167,6.167,0,0,1,692.928,344.271Z" transform="translate(-692.928 -328.114)" fill="#e0e0e0"/></g><g transform="translate(23.908 152.814)"><path d="M709.528,363.925H678.674l10.07,76.229h10.713Z" transform="translate(-678.674 -363.925)" fill="#e0e0e0"/><g transform="translate(1.599 6.228)"><path d="M680.293,373.368c-.012.007.035.108.165.271a1.953,1.953,0,0,0,.744.533,3.737,3.737,0,0,0,3.258-.4c1.246-.687,2.331-2.038,4-2.634a8.753,8.753,0,0,1,5.674.113,24.323,24.323,0,0,1,5.283,2.56,36.466,36.466,0,0,0,4.3,2.305,11.893,11.893,0,0,0,3.169.916,5.958,5.958,0,0,0,.9.06c.2,0,.311-.009.312-.026a16.088,16.088,0,0,1-4.232-1.276,42.057,42.057,0,0,1-4.2-2.378,23.433,23.433,0,0,0-5.373-2.643,9.051,9.051,0,0,0-5.988-.065,7.882,7.882,0,0,0-2.254,1.394,17.675,17.675,0,0,1-1.766,1.368,3.624,3.624,0,0,1-3.005.521A3.126,3.126,0,0,1,680.293,373.368Z" transform="translate(-680.291 -370.225)" fill="#f5f5f5"/></g><g transform="translate(2.724 17.815)"><path d="M681.432,387.541c.042.026.244-.313.727-.818a6.866,6.866,0,0,1,2.465-1.563,10.983,10.983,0,0,1,4.291-.647,45.227,45.227,0,0,1,5.369.732,18.493,18.493,0,0,0,5.5.228,15.146,15.146,0,0,0,4.326-1.236,13.784,13.784,0,0,0,2.6-1.546,3.688,3.688,0,0,0,.824-.741,27.394,27.394,0,0,1-3.567,1.961,15.81,15.81,0,0,1-4.239,1.1,18.957,18.957,0,0,1-5.362-.265,40.527,40.527,0,0,0-5.434-.7,10.864,10.864,0,0,0-4.438.78,6.473,6.473,0,0,0-2.475,1.762,4.355,4.355,0,0,0-.468.684C681.457,387.442,681.417,387.532,681.432,387.541Z" transform="translate(-681.429 -381.945)" fill="#f5f5f5"/></g><g transform="translate(4.473 28.798)"><path d="M706.084,395.184a2.589,2.589,0,0,0-.85-.442,9.08,9.08,0,0,0-2.557-.548,16.325,16.325,0,0,0-3.865.22c-1.44.233-2.982.631-4.6.975a19.452,19.452,0,0,1-4.595.519,10.038,10.038,0,0,1-3.648-.789,8.436,8.436,0,0,1-2.767-2.06,2.4,2.4,0,0,0,.523.806,6.508,6.508,0,0,0,2.095,1.577,9.828,9.828,0,0,0,3.776.929,18.524,18.524,0,0,0,4.719-.489c1.638-.348,3.169-.756,4.577-1.01a17.652,17.652,0,0,1,3.767-.322A14.162,14.162,0,0,1,706.084,395.184Z" transform="translate(-683.198 -393.055)" fill="#f5f5f5"/></g><g transform="translate(5.452 39.705)"><path d="M684.19,405.881a5,5,0,0,1,3-.3,14.5,14.5,0,0,1,3.134,1.169,11.893,11.893,0,0,0,4.068,1.121,12.2,12.2,0,0,0,7.381-1.71,10.474,10.474,0,0,0,1.837-1.413c.376-.4.568-.63.544-.653a27.243,27.243,0,0,1-2.56,1.759,12.646,12.646,0,0,1-7.158,1.517c-2.92-.167-5.162-1.909-7.188-2.139a4.6,4.6,0,0,0-2.327.2C684.395,405.633,684.174,405.863,684.19,405.881Z" transform="translate(-684.189 -404.088)" fill="#f5f5f5"/></g><g transform="translate(7.171 51.867)"><path d="M685.928,420.653a5.923,5.923,0,0,0,2.572-.512c1.551-.518,3.471-1.707,5.713-2.6a9.278,9.278,0,0,1,3.278-.687,6.039,6.039,0,0,1,2.636.6,5.836,5.836,0,0,1,1.906,1.645,1.4,1.4,0,0,0-.293-.65,4.232,4.232,0,0,0-1.445-1.308,6.038,6.038,0,0,0-2.8-.751,9.184,9.184,0,0,0-3.465.68c-2.323.925-4.182,2.149-5.663,2.736C686.908,420.441,685.916,420.572,685.928,420.653Z" transform="translate(-685.928 -416.39)" fill="#f5f5f5"/></g><g transform="translate(8.684 62.917)"><path d="M687.458,427.587a7.2,7.2,0,0,0,1.953.635,35.94,35.94,0,0,0,9.835.966,7.187,7.187,0,0,0,2.039-.241c-.008-.152-3.127-.019-6.941-.4C690.53,428.178,687.5,427.439,687.458,427.587Z" transform="translate(-687.458 -427.568)" fill="#f5f5f5"/></g></g></g><g transform="translate(589.37 83.779)"><rect width="95.265" height="62.634" fill="#e0e0e0"/><g transform="translate(3.314 2.561)"><rect width="88.588" height="57.272" fill="#fafafa"/></g><g transform="translate(33.158 23.437)"><rect width="28.9" height="15.76" fill="#e0e0e0"/></g></g><g transform="translate(30.752 437.196)"><g transform="translate(0 0)"><path d="M711.4,442.051c0,.142-152.381.257-340.311.257-187.994,0-340.342-.115-340.342-.257s152.348-.258,340.342-.258C559.024,441.793,711.4,441.909,711.4,442.051Z" transform="translate(-30.752 -441.793)" fill="#263238"/></g></g><g transform="translate(287.141 38.248)"><path d="M0,0H204.007a0,0,0,0,1,0,0V194.113a16.22,16.22,0,0,1-16.22,16.22H0a0,0,0,0,1,0,0V0A0,0,0,0,1,0,0Z" fill="#ebebeb"/><g transform="translate(22.458 61.827)"><path d="M477.515,101.56c0,.426-36.873.772-82.347.772-45.49,0-82.355-.346-82.355-.772s36.865-.772,82.355-.772C440.642,100.788,477.515,101.134,477.515,101.56Z" transform="translate(-312.813 -100.788)" fill="#455a64"/><g transform="translate(1.957 14.248)"><path d="M396.165,115.972c0,.427-18.218.773-40.684.773s-40.688-.346-40.688-.773,18.213-.772,40.688-.772S396.165,115.546,396.165,115.972Z" transform="translate(-314.793 -115.2)" fill="#455a64"/></g><g transform="translate(94.326 12.928)"><path d="M429.779,114.637c0,.427-4.825.773-10.776.773s-10.777-.346-10.777-.773,4.823-.772,10.777-.772S429.779,114.211,429.779,114.637Z" transform="translate(-408.226 -113.865)" fill="#455a64"/></g><g transform="translate(126.435 12.049)"><path d="M483.37,113.748c0,.426-9.552.772-21.332.772s-21.333-.346-21.333-.772,9.549-.772,21.333-.772S483.37,113.321,483.37,113.748Z" transform="translate(-440.705 -112.976)" fill="#455a64"/></g><g transform="translate(0 27.884)"><path d="M389.347,129.765c0,.426-17.135.772-38.265.772s-38.269-.346-38.269-.772,17.131-.772,38.269-.772S389.347,129.338,389.347,129.765Z" transform="translate(-312.813 -128.993)" fill="#455a64"/></g><g transform="translate(85.528 27.49)"><path d="M482.9,129.367c0,.427-18.709.772-41.784.772s-41.788-.345-41.788-.772,18.705-.772,41.788-.772S482.9,128.941,482.9,129.367Z" transform="translate(-399.327 -128.595)" fill="#455a64"/></g><g transform="translate(131.89 41.211)"><path d="M483.433,143.246c0,.427-8.331.773-18.6.773s-18.607-.346-18.607-.773,8.329-.772,18.607-.772S483.433,142.82,483.433,143.246Z" transform="translate(-446.223 -142.474)" fill="#455a64"/></g></g><g transform="translate(24.416 46.554)"><path d="M404.96,86.111c0,.427-20.186.772-45.082.772s-45.086-.345-45.086-.772,20.181-.772,45.086-.772S404.96,85.685,404.96,86.111Z" transform="translate(-314.793 -85.339)" fill="#e8505b"/></g></g><g transform="translate(100.634 156.059)"><g transform="translate(17.129)"><rect width="423.782" height="280.243" rx="14.567" fill="#263238"/></g><g transform="translate(0 259.516)"><g transform="translate(0 0)"><path d="M0,0H459.135a0,0,0,0,1,0,0V6.723a17.8,17.8,0,0,1-17.8,17.8H17.8A17.8,17.8,0,0,1,0,6.723V0A0,0,0,0,1,0,0Z" fill="#263238"/></g></g><g transform="translate(29.097 11.134)"><rect width="399.846" height="236.661" fill="#455a64"/></g><g transform="translate(187.836 259.241)"><g transform="translate(0 0)"><path d="M291.44,419.92c-.008,0,.141-.009.442-.013l1.344-.014,5.222-.03,19.374-.078,64.778-.139h.478l-.242.413c-.815,1.4-1.69,2.9-2.57,4.405l-2.72,4.657-.079.136h-.157l-80.171-.149h-.069l-.036-.057c-1.827-2.971-3.234-5.259-4.2-6.827-.456-.746-.806-1.321-1.055-1.73-.234-.385-.339-.571-.339-.571s.143.209.4.6c.265.409.637.986,1.121,1.733l4.283,6.663-.1-.057,80.171-.15-.237.135,2.719-4.657,2.572-4.405.236.412-64.513-.138-19.466-.079-5.3-.03-1.389-.013C291.613,419.929,291.44,419.92,291.44,419.92Z" transform="translate(-291.44 -419.645)" fill="#455a64"/></g></g><g transform="translate(17.129 259.259)"><g transform="translate(0 0.257)"><line x2="423.782" fill="#263238"/></g><g transform="translate(0)"><path d="M542.548,419.92c0,.142-94.875.258-211.881.258-117.047,0-211.9-.116-211.9-.258s94.854-.257,211.9-.257C447.673,419.663,542.548,419.778,542.548,419.92Z" transform="translate(-118.766 -419.663)" fill="#455a64"/></g></g></g><g transform="translate(185.653 119.598)"><g transform="translate(224.178 0.331)"><path d="M437.76,120.871h0A11.838,11.838,0,0,1,449.6,132.709V157H414.2v-22.41a13.719,13.719,0,0,1,13.72-13.72Z" transform="translate(-414.199 -120.871)" fill="#263238"/></g><g transform="translate(98.554)"><path d="M436.312,120.867c0,.142-33.4.228-74.59.192s-74.6-.18-74.6-.322,33.391-.228,74.6-.193C402.913,120.58,436.312,120.725,436.312,120.867Z" transform="translate(-287.127 -120.536)" fill="#263238"/></g><g transform="translate(29.477 0.201)"><path d="M435.2,120.841l-14.762-.1L399,120.87H241.474a24.22,24.22,0,0,0-24.22,24.22V405.362H421.26V134.148C421.858,120.87,435.2,120.841,435.2,120.841Z" transform="translate(-217.254 -120.739)" fill="#fafafa"/></g><g transform="translate(28.985 0.035)"><path d="M435.2,120.839l-123.009.268-61.5.046-7.688,0c-1.288-.025-2.551.05-3.814.119a24.849,24.849,0,0,0-3.73.68,23.766,23.766,0,0,0-16.309,14.628c-.2.6-.474,1.175-.612,1.793l-.471,1.838a26.076,26.076,0,0,0-.441,3.764c-.109,5.093-.024,10.242-.045,15.36l.164,246.02-.491-.492L421.255,405l-.359.36.1-146.318.118-73.157.071-36.579.018-9.144.009-4.572a14.941,14.941,0,0,1,.1-2.284,12.263,12.263,0,0,1,.359-2.259,12.1,12.1,0,0,1,4.94-7.448,14.318,14.318,0,0,1,4.1-1.981A17.26,17.26,0,0,1,435.2,120.839Zm0,0a17.265,17.265,0,0,0-4.486.8,14.3,14.3,0,0,0-4.087,1.994,12.052,12.052,0,0,0-4.892,7.435,12.31,12.31,0,0,0-.348,2.249,14.971,14.971,0,0,0-.086,2.279l.009,4.572.018,9.146.071,36.579.118,73.158.1,146.312v.359h-.36l-204.006.132h-.492v-.491l.164-246.02c.03-5.131-.049-10.237.067-15.389a26.724,26.724,0,0,1,.459-3.862l.485-1.885a19.429,19.429,0,0,1,.63-1.841,24.384,24.384,0,0,1,16.743-14.979,25.573,25.573,0,0,1,3.823-.691c1.3-.069,2.593-.142,3.869-.116l7.687,0,61.505.046Z" transform="translate(-216.756 -120.571)" fill="#263238"/></g><g transform="translate(60.149 47.161)"><path d="M248.337,168.24h35.6l.057,11.924h-1.7q-.838-6.4-4.792-8.658a14.768,14.768,0,0,0-6.641-1.361v31.149q0,3.265,1.141,4.334t4.749,1.07v1.5H255.671v-1.5q3.464,0,4.606-1.083t1.14-4.32V170.144a15.145,15.145,0,0,0-6.64,1.361q-4.244,2.318-4.792,8.658h-1.7Z" transform="translate(-248.28 -168.24)" fill="#e8505b"/></g><g transform="translate(117.772 49.077)"><path d="M394.284,170.95c0,.427-19.638.772-43.857.772s-43.861-.345-43.861-.772,19.633-.772,43.861-.772S394.284,170.524,394.284,170.95Z" transform="translate(-306.567 -170.178)" fill="#e8505b"/></g><g transform="translate(119.532 63.091)"><path d="M342.262,185.126c0,.426-7.593.772-16.957.772s-16.959-.346-16.959-.772,7.591-.772,16.959-.772S342.262,184.7,342.262,185.126Z" transform="translate(-308.347 -184.354)" fill="#455a64"/></g><g transform="translate(46.29 105.841)"><path d="M298.671,228.37c0,.426-14.42.772-32.2.772s-32.206-.346-32.206-.772,14.417-.773,32.206-.773S298.671,227.943,298.671,228.37Z" transform="translate(-234.261 -227.597)" fill="#455a64"/></g><g transform="translate(119.227 105.841)"><path d="M372.448,228.37c0,.426-14.419.772-32.2.772s-32.207-.346-32.207-.772,14.417-.773,32.207-.773S372.448,227.943,372.448,228.37Z" transform="translate(-308.038 -227.597)" fill="#e8505b"/></g><g transform="translate(46.29 117.259)"><path d="M298.671,239.918c0,.427-14.42.772-32.2.772s-32.206-.345-32.206-.772,14.417-.772,32.206-.772S298.671,239.492,298.671,239.918Z" transform="translate(-234.261 -239.146)" fill="#455a64"/></g><g transform="translate(46.29 128.676)"><path d="M298.671,251.467c0,.426-14.42.772-32.2.772s-32.206-.346-32.206-.772,14.417-.772,32.206-.772S298.671,251.04,298.671,251.467Z" transform="translate(-234.261 -250.695)" fill="#e8505b"/></g><g transform="translate(119.532 86.346)"><path d="M342.262,208.649c0,.427-7.593.773-16.957.773s-16.959-.346-16.959-.773,7.591-.772,16.959-.772S342.262,208.223,342.262,208.649Z" transform="translate(-308.347 -207.877)" fill="#455a64"/></g><g transform="translate(189.657 105.841)"><path d="M401.89,228.37c0,.426-5.062.772-11.3.772s-11.306-.346-11.306-.772,5.061-.773,11.306-.773S401.89,227.943,401.89,228.37Z" transform="translate(-379.28 -227.597)" fill="#455a64"/></g><g transform="translate(160.123 63.091)"><path d="M407.6,185.126c0,.426-13.029.772-29.1.772s-29.1-.346-29.1-.772,13.025-.772,29.1-.772S407.6,184.7,407.6,185.126Z" transform="translate(-349.406 -184.354)" fill="#455a64"/></g><g transform="translate(119.532 74.224)"><path d="M404.505,196.387c0,.427-21.528.773-48.077.773s-48.081-.346-48.081-.773,21.522-.772,48.081-.772S404.505,195.961,404.505,196.387Z" transform="translate(-308.347 -195.615)" fill="#455a64"/></g><g transform="translate(119.227 117.259)"><path d="M401.079,239.918c0,.427-20.83.772-46.518.772s-46.523-.345-46.523-.772,20.825-.772,46.523-.772S401.079,239.492,401.079,239.918Z" transform="translate(-308.038 -239.146)" fill="#455a64"/></g><g transform="translate(124.963 150.311)"><path d="M401.145,273.352c0,.426-19.546.772-43.651.772s-43.654-.346-43.654-.772,19.541-.773,43.654-.773S401.145,272.925,401.145,273.352Z" transform="translate(-313.84 -272.579)" fill="#e8505b"/></g><g transform="translate(124.963 161.423)"><path d="M401.145,284.591c0,.427-19.546.772-43.651.772s-43.654-.345-43.654-.772,19.541-.772,43.654-.772S401.145,284.165,401.145,284.591Z" transform="translate(-313.84 -283.819)" fill="#455a64"/></g><g transform="translate(124.963 172.535)"><path d="M401.145,295.831c0,.426-19.546.772-43.651.772s-43.654-.346-43.654-.772,19.541-.772,43.654-.772S401.145,295.4,401.145,295.831Z" transform="translate(-313.84 -295.059)" fill="#455a64"/></g><g transform="translate(124.963 183.646)"><path d="M401.145,307.07c0,.427-19.546.773-43.651.773s-43.654-.346-43.654-.773,19.541-.772,43.654-.772S401.145,306.644,401.145,307.07Z" transform="translate(-313.84 -306.298)" fill="#455a64"/></g><g transform="translate(124.963 194.758)"><path d="M364.1,318.31c0,.214-2.813.406-7.36.547s-10.83.225-17.768.225-13.224-.086-17.771-.225-7.36-.333-7.36-.547,2.813-.406,7.36-.546,10.83-.226,17.771-.226,13.221.087,17.768.226S364.1,318.1,364.1,318.31Z" transform="translate(-313.84 -317.538)" fill="#455a64"/></g><g transform="translate(121.25 129.273)"><path d="M385.283,252.071c0,.427-16.835.773-37.6.773s-37.6-.346-37.6-.773,16.831-.772,37.6-.772S385.283,251.645,385.283,252.071Z" transform="translate(-310.085 -251.299)" fill="#455a64"/></g><g transform="translate(0 146.39)"><g transform="translate(29.879 5.221)"><path d="M296.958,274.621l4.632,85.77-83.864,10.5-.065-97Z" transform="translate(-217.661 -273.894)" fill="#e0e0e0"/></g><rect width="90.988" height="113.811" transform="translate(0 90.987) rotate(-89.632)" fill="#f5f5f5"/><g transform="translate(3.96 5.753)"><rect width="79.533" height="105.815" transform="translate(0 79.531) rotate(-89.632)" fill="#e8505b"/></g><g transform="translate(3.96 36.086)" opacity="0.2"><path d="M191.443,354.313l37.275-49.2,22.695,31.076,15.634-16.435,30.209,35.236Z" transform="translate(-191.443 -305.115)"/></g><g transform="translate(57.223 21.854)" opacity="0.2"><path d="M261.983,299.1a8.332,8.332,0,1,1-8.278-8.385A8.332,8.332,0,0,1,261.983,299.1Z" transform="translate(-245.32 -290.719)"/></g></g><g transform="translate(121.25 257.817)"><path d="M313.6,383.084a1.759,1.759,0,1,1-1.759-1.76A1.758,1.758,0,0,1,313.6,383.084Z" transform="translate(-310.085 -381.324)" fill="#263238"/><g transform="translate(10.443)"><path d="M324.167,383.084a1.76,1.76,0,1,1-1.76-1.76A1.759,1.759,0,0,1,324.167,383.084Z" transform="translate(-320.648 -381.324)" fill="#263238"/></g><g transform="translate(20.886)"><path d="M334.73,383.084a1.759,1.759,0,1,1-1.759-1.76A1.759,1.759,0,0,1,334.73,383.084Z" transform="translate(-331.212 -381.324)" fill="#263238"/></g></g><g transform="translate(119.717 217.912)"><path d="M372.944,341.731c0,.427-14.42.772-32.2.772s-32.207-.345-32.207-.772,14.417-.772,32.207-.772S372.944,341.3,372.944,341.731Z" transform="translate(-308.534 -340.959)" fill="#e8505b"/></g><g transform="translate(119.717 229.33)"><path d="M401.574,353.28c0,.426-20.829.772-46.518.772s-46.522-.346-46.522-.772,20.825-.772,46.522-.772S401.574,352.853,401.574,353.28Z" transform="translate(-308.534 -352.508)" fill="#455a64"/></g></g><g transform="translate(566.794 358.269)"><g transform="translate(35.955 10.453)"><rect width="54.808" height="68.555" transform="translate(0 54.807) rotate(-89.632)" fill="#f5f5f5"/><rect width="47.907" height="63.738" transform="translate(2.385 51.371) rotate(-89.632)" fill="#e8505b"/><path d="M611.753,424.151l22.453-29.635,13.67,18.719,9.417-9.9,18.2,21.225Z" transform="translate(-609.367 -372.78)" opacity="0.2"/><g transform="translate(34.469 13.164)" opacity="0.2"><path d="M654.242,390.9a5.018,5.018,0,1,1-4.986-5.051A5.018,5.018,0,0,1,654.242,390.9Z" transform="translate(-644.206 -385.845)"/></g></g><g transform="translate(25.901 4.729)"><rect width="54.808" height="68.555" transform="translate(0 54.806) rotate(-89.632)" fill="#f5f5f5"/><rect width="47.907" height="63.738" transform="translate(2.385 51.371) rotate(-89.632)" fill="#e8505b"/><path d="M601.584,418.362l22.453-29.635,13.67,18.719,9.417-9.9,18.2,21.225Z" transform="translate(-599.198 -366.991)" opacity="0.2"/><g transform="translate(34.469 13.164)" opacity="0.2"><path d="M644.073,385.107a5.018,5.018,0,1,1-4.986-5.051A5.018,5.018,0,0,1,644.073,385.107Z" transform="translate(-634.037 -380.056)"/></g></g><g transform="translate(16.948)"><rect width="54.808" height="68.555" transform="translate(0 54.807) rotate(-89.632)" fill="#f5f5f5"/><rect width="47.907" height="63.738" transform="translate(2.386 51.371) rotate(-89.632)" fill="#e8505b"/><path d="M592.528,413.578l22.453-29.635,13.67,18.719,9.417-9.9,18.2,21.225Z" transform="translate(-590.142 -362.207)" opacity="0.2"/><g transform="translate(34.468 13.164)" opacity="0.2"><path d="M635.017,380.323a5.019,5.019,0,1,1-4.987-5.051A5.018,5.018,0,0,1,635.017,380.323Z" transform="translate(-624.98 -375.272)"/></g></g><g transform="translate(6.895 5.887)"><rect width="54.808" height="68.555" transform="translate(0 54.806) rotate(-89.632)" fill="#f5f5f5"/><rect width="47.907" height="63.738" transform="translate(2.386 51.371) rotate(-89.632)" fill="#455a64"/><path d="M582.358,419.533,604.811,389.9l13.67,18.719,9.417-9.9,18.2,21.225Z" transform="translate(-579.973 -368.162)" opacity="0.2"/><g transform="translate(34.468 13.164)" opacity="0.2"><path d="M624.848,386.278a5.019,5.019,0,1,1-4.987-5.051A5.018,5.018,0,0,1,624.848,386.278Z" transform="translate(-614.811 -381.227)"/></g></g><g transform="translate(0 26.267)"><rect width="39.579" height="52.918" transform="translate(75.8)" fill="#263238"/><path d="M572.971,388.526v52.918h79.158V388.526Zm47.994,12.524h-16.83a3.643,3.643,0,0,1,0-7.285h16.83a3.643,3.643,0,0,1,0,7.285Z" transform="translate(-572.971 -388.526)" fill="#e8505b"/></g></g><g transform="translate(320.026 259.275)"><g transform="translate(0 71.428)"><g transform="translate(0 95.046)"><path d="M518.8,436.388l-73.609-4.508c-.464-1.053-.773-1.666-.773-1.666l-19.95.4-6.491-.4s-.1.2-.257.532l-66.969,1.334c-13.351,0-27.388,8.146-27.388,18.555-.169,9.906,4.629,20.659,16.592,20.415l91.244-.306,91.244.306c11.963.244,15.127-6.971,15.145-15.528C538.985,439.582,529,436.52,518.8,436.388Z" transform="translate(-323.36 -430.214)" fill="#455a64"/><g transform="translate(24.971 12.955)"><path d="M348.618,471.2s.148-.017.439-.025l1.29-.025,4.971-.046,18.359-.08,61.266-.081-.256.273c-.125-2-.259-4.14-.393-6.3-.275-4.414-.545-8.756-.8-12.887l.226.237-56.44-6.281-16.724-1.913-4.506-.54-1.166-.151a2.534,2.534,0,0,1-.394-.067,2.429,2.429,0,0,1,.4.02l1.171.1,4.515.451,16.742,1.76,56.457,6.111.214.023L434,452c.259,4.129.531,8.471.808,12.886.134,2.157.268,4.3.392,6.3l.017.273h-.274l-61.266-.081-18.359-.079-4.971-.046-1.29-.025C348.766,471.221,348.618,471.2,348.618,471.2Z" transform="translate(-348.618 -443.319)" fill="#263238"/></g><g transform="translate(24.198 8.629)"><path d="M367.422,444.979c-.056.069-.972-.668-2.58-1.649a27.381,27.381,0,0,0-13.944-4.01c-1.882-.024-3.05.115-3.061.027a2.589,2.589,0,0,1,.809-.188,17.1,17.1,0,0,1,2.249-.2,24.237,24.237,0,0,1,14.144,4.067,16.918,16.918,0,0,1,1.8,1.367C367.236,444.745,367.445,444.953,367.422,444.979Z" transform="translate(-347.837 -438.942)" fill="#263238"/></g><g transform="translate(124.761 10.746)"><path d="M514.525,441.088c.033.138-14.486,3.649-32.423,7.841s-32.511,7.479-32.544,7.34,14.483-3.649,32.426-7.842S514.493,440.95,514.525,441.088Z" transform="translate(-449.558 -441.084)" fill="#263238"/></g><g transform="translate(167.135 9.311)"><path d="M502.737,439.653a20.994,20.994,0,0,0-10.311,7.016,5.06,5.06,0,0,1,.991-1.609,15.12,15.12,0,0,1,7.461-5.077A5.054,5.054,0,0,1,502.737,439.653Z" transform="translate(-492.421 -439.633)" fill="#263238"/></g></g><g transform="translate(121.184 20.808)"><path d="M474.808,355.121l23.316,40.586a17.244,17.244,0,0,1,.471,16.3h0a17.245,17.245,0,0,1-15.911,9.526l-35.8-1.01-.943-13.02,31.531-6.037-21.259-36.794Z" transform="translate(-445.94 -355.121)" fill="#ffbe9d"/></g><g transform="translate(44.42 20.808)"><path d="M387.028,424.575l32.921,8.721.716-9.872L390.326,405.8l22.158-41.128-18.6-9.553-23.315,40.586h0a19.008,19.008,0,0,0,10.975,27.124Z" transform="translate(-368.291 -355.121)" fill="#ffbe9d"/></g><g transform="translate(58.237)"><path d="M464.183,380.94l22.5-11.849a113.94,113.94,0,0,0-9.64-16.076A49.371,49.371,0,0,0,447,334.073h0l-25.882.305a34.223,34.223,0,0,0-9.23,2.125l.018-.1c-14.045,3.1-29.633,33.733-29.633,33.733l20.476,10.78.453,3.221a21.874,21.874,0,0,0,5.337,11.477L402.57,434.83l66.455,1.374-8.461-28.085Z" transform="translate(-382.268 -334.073)" fill="#e8505b"/></g><g transform="translate(79.021 32.924)"><path d="M409.376,396.2a4.76,4.76,0,0,1-.99-.749,14.331,14.331,0,0,1-2.26-2.526,16.442,16.442,0,0,1-2.773-10.692,34.826,34.826,0,0,1,1.519-5.962c.6-1.787,1.2-3.372,1.727-4.694s.982-2.379,1.311-3.1a5.437,5.437,0,0,1,.566-1.1,6.032,6.032,0,0,1-.381,1.177c-.309.844-.7,1.9-1.157,3.157-.481,1.335-1.048,2.926-1.616,4.711a37.4,37.4,0,0,0-1.459,5.878,16.93,16.93,0,0,0,.56,5.951,15.813,15.813,0,0,0,2,4.473A27.56,27.56,0,0,0,409.376,396.2Z" transform="translate(-403.292 -367.377)" fill="#263238"/></g><g transform="translate(71.392 66.484)"><path d="M399.327,445.066l-3.752-43.743h80.949l-5.365,44.288Z" transform="translate(-395.575 -401.323)" fill="#263238"/><g transform="translate(35.32 18.173)"><path d="M441.611,424.861a5.155,5.155,0,1,1-5.155-5.155A5.155,5.155,0,0,1,441.611,424.861Z" transform="translate(-431.302 -419.706)" fill="#fafafa"/></g></g><g transform="translate(110.45 118.772)"><path d="M435.083,454.214l13.744,1.919v14.939l-12.64-.326Z" transform="translate(-435.083 -454.214)" fill="#ffbe9d"/><g transform="translate(13.744 1.918)"><path d="M448.985,456.154h6.179a6.851,6.851,0,0,1,3.426.918l3.258,1.881a50.535,50.535,0,0,0,5.694,2.716c3.757,1.208,10.078,2.832,11.41,3.859,3.8,2.932,2.646,6.4.558,6.76-1.834.317-30.524-1.194-30.524-1.194Z" transform="translate(-448.985 -456.154)" fill="#e8505b"/><g transform="translate(9.476 5.907)"><path d="M459.245,469.927a14.123,14.123,0,0,1-.234-7.8,223.12,223.12,0,0,0,.234,7.8Z" transform="translate(-458.57 -462.129)" fill="#263238"/></g><g transform="translate(12.851 6.493)"><path d="M462.215,469.852a24.8,24.8,0,0,1,.056-7.13,24.8,24.8,0,0,1-.056,7.13Z" transform="translate(-461.984 -462.722)" fill="#263238"/></g><g transform="translate(15.874 6.863)"><path d="M465.713,470.448a26.595,26.595,0,0,1-.573-7.352,26.5,26.5,0,0,1,.573,7.352Z" transform="translate(-465.042 -463.096)" fill="#263238"/></g><g transform="translate(1.327 3.51)"><path d="M456.476,465.922a4.266,4.266,0,0,1-1.266-.4,11.879,11.879,0,0,1-3.087-1.908c-.293-.25-.589-.525-.883-.828a3.527,3.527,0,0,1-.787-1.115,1.556,1.556,0,0,1,.172-1.533,1.163,1.163,0,0,1,.768-.422,1.96,1.96,0,0,1,.832.094,6.153,6.153,0,0,1,1.293,10.946,3.905,3.905,0,0,1-1.416.636,1.651,1.651,0,0,1-.807-.039,1.081,1.081,0,0,1-.623-.549,1.558,1.558,0,0,1,.181-1.424,4.379,4.379,0,0,1,.794-.954,9.483,9.483,0,0,1,3.038-1.99,3.92,3.92,0,0,1,1.279-.362c.013.041-.439.178-1.2.545a10.222,10.222,0,0,0-2.862,2.064,4.082,4.082,0,0,0-.7.891,1.18,1.18,0,0,0-.145,1.041.817.817,0,0,0,.965.331,3.491,3.491,0,0,0,1.233-.584,5.713,5.713,0,0,0-1.172-10.1.974.974,0,0,0-1.106.162,1.127,1.127,0,0,0-.125,1.1,6.053,6.053,0,0,0,1.512,1.823A16.652,16.652,0,0,0,456.476,465.922Z" transform="translate(-450.328 -459.704)" fill="#263238"/></g></g><g transform="translate(20.936 2.092)"><path d="M479.592,472.29a3.623,3.623,0,0,0,.752-.939,3.537,3.537,0,0,0-.4-3.116,6.943,6.943,0,0,0-3.818-2.878c-1.746-.629-3.831-.932-5.934-1.588a41.374,41.374,0,0,1-10.208-4.651c-1.214-.773-2.149-1.466-2.783-1.96a5.6,5.6,0,0,1-.936-.825,6,6,0,0,1,1.055.664c.666.442,1.627,1.084,2.854,1.811a46.144,46.144,0,0,0,10.166,4.469c2.07.648,4.134.958,5.951,1.636a7.184,7.184,0,0,1,3.972,3.148,3.666,3.666,0,0,1,.264,3.382,2.087,2.087,0,0,1-.637.7C479.7,472.26,479.6,472.3,479.592,472.29Z" transform="translate(-456.26 -456.33)" fill="#263238"/></g></g><g transform="translate(72.047 10.531)"><path d="M469.55,344.932a.8.8,0,0,1,0,.211l-.046.617q-.079.866-.217,2.389c-.214,2.123-.518,5.16-.9,8.975l-.023.23-.208-.109-11.934-6.283.283-.079-6.481,10.937-.139.234-.217-.166-10.916-8.371.313,0-4.754,3.727-6.482,5.076-.238.187-.143-.266c-2.151-3.981-4.221-7.809-6.175-11.423l.309.1-13.1,5.835-.24.107-.044-.258c-.762-4.488-1.425-8.393-1.976-11.646l.2.113-7.5,2.859-1.994.739-.517.18a.665.665,0,0,1-.18.048.626.626,0,0,1,.165-.087l.5-.217,1.966-.812,7.447-2.989.169-.068.033.181c.582,3.249,1.28,7.148,2.084,11.628l-.284-.15,13.064-5.9.2-.091.107.2c1.961,3.609,4.04,7.433,6.2,11.409l-.382-.079,6.478-5.079,4.757-3.724.156-.124.157.122,10.9,8.393-.355.068c2.343-3.914,4.55-7.6,6.532-10.907l.1-.175.178.1,11.882,6.382-.23.122c.445-3.809.8-6.84,1.046-8.959l.3-2.381c.036-.249.064-.45.088-.612A.791.791,0,0,1,469.55,344.932Z" transform="translate(-396.237 -344.725)" fill="#f5f5f5"/></g><g transform="translate(67.245 21.133)"><path d="M479.1,356.06a1.356,1.356,0,0,1-.055.29l-.207.839c-.2.766-.484,1.848-.846,3.234-.766,2.844-1.866,6.93-3.239,12.029l-.052.195-.184-.088-13.945-6.694.274-.07L449.1,382.547l-.172.245-.212-.214c-3.586-3.635-7.383-7.484-11.289-11.441l-2.37-2.4.32.038-15.214,9.539-.217.136-.126-.222-8.2-14.485.258.1-15.644,5.385-.148.051-.05-.147c-1.482-4.3-2.656-7.7-3.471-10.067l-.9-2.677c-.092-.286-.165-.513-.221-.691a1.07,1.07,0,0,1-.061-.239,1.037,1.037,0,0,1,.1.224l.261.677q.348.945.977,2.649l3.608,10.019-.2-.1,15.605-5.495.168-.059.089.156,8.254,14.455-.342-.086,15.2-9.561.175-.11.145.147,2.37,2.4,11.279,11.451-.383.033,11.8-16.715.107-.152.167.081,13.9,6.783-.236.107c1.436-5.081,2.586-9.154,3.387-11.988l.932-3.21c.1-.345.188-.618.252-.827A1.41,1.41,0,0,1,479.1,356.06Z" transform="translate(-391.38 -355.45)" fill="#f5f5f5"/></g></g><g transform="translate(88.083)"><g transform="translate(6.769)"><path d="M469.447,286.027a14.509,14.509,0,0,1-11.05-3.487c3.6,1.817,8.4-.677,9.667-4.508s.227-10.957-2.917-13.484a12.471,12.471,0,0,0-10.847-2.333c-3.708.993-7.637,6.629-8.849,10.271l.069.111c-.57-.226-1.145-.44-1.724-.634a29.692,29.692,0,0,0-12.8-1.548,20.744,20.744,0,0,0-11.7,5.149l25.138,40.405c4.565-.4,8.611-3.481,11-7.391a27.658,27.658,0,0,0,3.536-13.14c.056-1.148.053-2.309.006-3.47l8.085,1.3a18.023,18.023,0,0,0-5.375-4.8A6.75,6.75,0,0,0,469.447,286.027Z" transform="translate(-419.305 -261.822)" fill="#263238"/></g><g transform="translate(1.078 14.684)"><path d="M437.607,348.906a12.644,12.644,0,0,0,12.37-12.494l.583-50.269h0a4,4,0,0,0-3.58-4.058l-21.232-5.366c-6.8-.72-11.321,7.654-11.751,14.477-.478,7.582-.762,16.858.136,22.515,1.806,11.375,10.525,12.822,10.525,12.822,0-.03.006,4.4.032,9.793a12.647,12.647,0,0,0,12.916,12.58Z" transform="translate(-413.548 -276.675)" fill="#ffbe9d"/><g transform="translate(2.438 17.813)"><g transform="translate(2.422 2.753)"><path d="M418.465,298.8a1.458,1.458,0,0,0,1.407,1.472,1.4,1.4,0,0,0,1.5-1.315,1.461,1.461,0,0,0-1.406-1.473A1.4,1.4,0,0,0,418.465,298.8Z" transform="translate(-418.464 -297.478)" fill="#263238"/></g><path d="M416.038,296.226c.181.19,1.286-.628,2.856-.624,1.568-.018,2.72.79,2.891.6.083-.085-.1-.428-.6-.794a4.008,4.008,0,0,0-2.313-.713,3.85,3.85,0,0,0-2.274.734C416.112,295.8,415.949,296.141,416.038,296.226Z" transform="translate(-416.015 -294.693)" fill="#263238"/></g><g transform="translate(17.869 18.105)"><g transform="translate(1.925 2.46)"><path d="M433.571,298.8a1.459,1.459,0,0,0,1.407,1.472,1.4,1.4,0,0,0,1.5-1.315,1.46,1.46,0,0,0-1.406-1.473A1.4,1.4,0,0,0,433.571,298.8Z" transform="translate(-433.57 -297.478)" fill="#263238"/></g><path d="M431.646,296.522c.182.191,1.288-.627,2.857-.623,1.568-.019,2.721.789,2.891.6.083-.086-.1-.429-.6-.794a4,4,0,0,0-2.313-.714,3.857,3.857,0,0,0-2.274.734C431.722,296.093,431.558,296.437,431.646,296.522Z" transform="translate(-431.623 -294.989)" fill="#263238"/></g><g transform="translate(8.195 18.2)"><path d="M425.838,308.166a10.366,10.366,0,0,0-2.55-.461c-.4-.042-.781-.121-.848-.394a2.035,2.035,0,0,1,.268-1.188q.565-1.455,1.185-3.052c1.646-4.346,2.838-7.92,2.662-7.985s-1.653,3.406-3.3,7.752q-.595,1.607-1.136,3.071a2.322,2.322,0,0,0-.208,1.573,1.006,1.006,0,0,0,.659.586,2.689,2.689,0,0,0,.68.095A10.225,10.225,0,0,0,425.838,308.166Z" transform="translate(-421.838 -295.085)" fill="#263238"/></g><g transform="translate(11.111 45.794)"><path d="M424.787,327.06A28.943,28.943,0,0,0,440.021,323s-3.7,7.814-15.081,6.749Z" transform="translate(-424.787 -322.997)" fill="#eb996e"/></g><g transform="translate(12.702 33.997)"><path d="M426.553,312.132a2.827,2.827,0,0,1,2.536-1.051,2.581,2.581,0,0,1,1.783.956,1.636,1.636,0,0,1,.125,1.871,1.9,1.9,0,0,1-2.058.521,5.948,5.948,0,0,1-2.006-1.2,1.74,1.74,0,0,1-.449-.464.523.523,0,0,1,0-.584" transform="translate(-426.396 -311.064)" fill="#eb996e"/></g><g transform="translate(11.812 32.367)"><path d="M430.5,309.415c-.255-.015-.259,1.69-1.717,2.9s-3.272,1.022-3.285,1.26c-.025.107.4.331,1.171.352a4.248,4.248,0,0,0,2.743-.956,3.689,3.689,0,0,0,1.33-2.431C430.806,309.827,430.616,309.405,430.5,309.415Z" transform="translate(-425.496 -309.415)" fill="#263238"/></g><g transform="translate(17.178 15.714)"><path d="M430.932,293.746c.155.427,1.722.224,3.564.447,1.847.185,3.332.724,3.576.341.11-.183-.149-.584-.75-1a6.243,6.243,0,0,0-5.439-.6C431.206,293.209,430.866,293.544,430.932,293.746Z" transform="translate(-430.924 -292.57)" fill="#263238"/></g><g transform="translate(2.64 14.823)"><path d="M416.259,293.3c.277.357,1.357-.014,2.658-.031,1.3-.063,2.4.239,2.655-.133.111-.181-.062-.538-.544-.876a3.85,3.85,0,0,0-4.282.132C416.288,292.754,416.137,293.121,416.259,293.3Z" transform="translate(-416.218 -291.669)" fill="#263238"/></g><g transform="translate(35.404 23.247)"><path d="M449.709,300.548a2.85,2.85,0,0,1,2.975.148,5.274,5.274,0,0,1-3.324,9.794" transform="translate(-449.36 -300.19)" fill="#ffbe9d"/></g><g transform="translate(36.287 25.784)"><path d="M450.514,307.127c.033-.081.442.1.992-.155a1.98,1.98,0,0,0,.976-1.944,2.006,2.006,0,0,0-1.214-1.824c-.568-.233-.988-.12-1.011-.208-.041-.056.387-.358,1.137-.19a2.088,2.088,0,0,1,1.112.693,2.534,2.534,0,0,1,.564,1.5,2.258,2.258,0,0,1-1.424,2.366C450.873,307.567,450.454,307.172,450.514,307.127Z" transform="translate(-450.253 -302.756)" fill="#eb996e"/></g></g><g transform="translate(38.899 46.252)"><path d="M453.641,309.5a2.293,2.293,0,0,1,.521.368L455.556,311l4.908,4.17.165.14-.139.167c-1.828,2.195-3.864,4.943-6.153,7.814-.518.649-1.036,1.282-1.539,1.874l-.42.5-.03-.649c-.207-4.632-.366-8.731-.457-11.674-.034-1.4-.061-2.562-.083-3.469a6.437,6.437,0,0,1,.035-1.263,6.483,6.483,0,0,1,.15,1.256c.062.9.142,2.063.239,3.461.182,2.938.4,7.036.626,11.667l-.45-.153,1.526-1.865c2.282-2.861,4.343-5.6,6.222-7.774l.026.307-4.791-4.309-1.315-1.23A2.364,2.364,0,0,1,453.641,309.5Z" transform="translate(-451.805 -308.607)" fill="#455a64"/></g><g transform="translate(0 9.755)"><path d="M430.19,271.689a41.4,41.4,0,0,0-8.294.907,13.886,13.886,0,0,0-7.171,4.038,8.43,8.43,0,0,0-1.981,7.758,6.107,6.107,0,0,0,6.3,4.391c2.1-.281,4.108-1.833,6.131-1.216,1.912.582,2.965,2.916,4.93,3.279,1.941.359,3.668-1.383,5.634-1.554,2.169-.188,4.051,1.593,5.016,3.543s1.332,4.157,2.3,6.106a4.95,4.95,0,0,0,2.93,2.789,4.029,4.029,0,0,0,3.546-1,8.242,8.242,0,0,0,2.077-3.179,17.667,17.667,0,0,0-14.354-24.217" transform="translate(-412.458 -271.689)" fill="#263238"/></g><g transform="translate(33.193 10.745)"><path d="M458.288,283.782c-.088.025-.353-.918-1.052-2.31a16.474,16.474,0,0,0-8.8-7.95c-1.455-.555-2.42-.722-2.4-.813,0-.036.25-.02.691.038a10.289,10.289,0,0,1,1.834.432,15.008,15.008,0,0,1,9.008,8.138,10.424,10.424,0,0,1,.615,1.781C458.283,283.531,458.322,283.773,458.288,283.782Z" transform="translate(-446.033 -272.69)" fill="#e8505b"/></g><g transform="translate(37.95 3.727)"><path d="M467.044,267.038a18.863,18.863,0,0,0-2.739-.849,10.928,10.928,0,0,0-6.672,1,14.811,14.811,0,0,0-5.157,4.486c-1.055,1.431-1.547,2.434-1.625,2.394a2.2,2.2,0,0,1,.271-.74,14.1,14.1,0,0,1,1.057-1.864,13.859,13.859,0,0,1,5.225-4.738,10.6,10.6,0,0,1,6.974-.9,7.839,7.839,0,0,1,2.021.753C466.842,266.835,467.06,267.013,467.044,267.038Z" transform="translate(-450.845 -265.592)" fill="#455a64"/></g><g transform="translate(37.089 18.539)"><path d="M456.1,280.574a7.119,7.119,0,0,1,.018,2.339,18.572,18.572,0,0,1-4.424,10.262,7.166,7.166,0,0,1-1.712,1.594,23.835,23.835,0,0,0,6.118-14.194Z" transform="translate(-449.974 -280.574)" fill="#455a64"/></g><g transform="translate(39.375 18.78)"><path d="M456.452,280.818c.035-.01.132.221.279.651a11.155,11.155,0,0,1,.445,1.875,16.053,16.053,0,0,1-3.049,12.066,11.033,11.033,0,0,1-1.282,1.438c-.334.309-.529.467-.554.441-.065-.063.64-.775,1.541-2.092a17.732,17.732,0,0,0,2.983-11.806C456.647,281.806,456.364,280.844,456.452,280.818Z" transform="translate(-452.287 -280.818)" fill="#455a64"/></g></g></g><g transform="translate(478.434 165.239)"><g transform="translate(0 115.25)"><path d="M486.724,283.439a4.658,4.658,0,1,0,2.129-.159" transform="translate(-483.592 -283.28)" fill="#ebebeb"/></g><g transform="translate(12.904 95.805)"><path d="M500.238,263.793a5.344,5.344,0,1,0,2.442-.182" transform="translate(-496.645 -263.611)" fill="#ebebeb"/></g><g transform="translate(0.816)"><g transform="translate(0.193 0.114)"><path d="M528.645,177.072c-8.944-.755-17.99,1.242-24.122,7.8a30.288,30.288,0,0,0-7.709,24.852c-9.512,3.952-14.7,16.049-11,25.664s15.648,15.125,25.359,11.689a34.394,34.394,0,0,0,58.486,9.311c9.33,2.109,19.8,1.971,27.638-3.511s11.385-17.544,5.413-25.015c10.747-2.617,16.208-16.038,13.021-26.63S603,183.034,592.81,178.73c-6.734-2.844-15.131-4.329-20.876.191a26.6,26.6,0,0,0-43.289-1.849" transform="translate(-484.612 -166.818)" fill="#f5f5f5"/></g><path d="M528.642,177.071s.176-.238.542-.69a22.422,22.422,0,0,1,1.735-1.915,26.874,26.874,0,0,1,8.26-5.542,27.352,27.352,0,0,1,6.98-1.974,25.568,25.568,0,0,1,8.65.264,27.328,27.328,0,0,1,9.254,3.744,27.055,27.055,0,0,1,8.014,7.867l-.253-.042a14.449,14.449,0,0,1,8.462-2.9,27.411,27.411,0,0,1,9.532,1.519,49.755,49.755,0,0,1,9.336,4.283,43.794,43.794,0,0,1,8.656,6.53,32.376,32.376,0,0,1,6.687,9.2A27.165,27.165,0,0,1,616.4,203a23.88,23.88,0,0,1-3.463,17.668,18.715,18.715,0,0,1-4.345,4.642,17.225,17.225,0,0,1-5.83,2.79l.135-.4a14.081,14.081,0,0,1,2.655,5.645,17.014,17.014,0,0,1,.155,6.344,20.88,20.88,0,0,1-5.908,11.4,24.029,24.029,0,0,1-11.767,6.012,39.749,39.749,0,0,1-13.549.4c-1.654-.2-3.284-.524-4.887-.866l.255-.087a34.413,34.413,0,0,1-49.08,4.177,34.786,34.786,0,0,1-9.824-13.565l.3.135a20.682,20.682,0,0,1-16.595-1.735,19.456,19.456,0,0,1-9.71-12.306,20.9,20.9,0,0,1,2.009-14.506,20.2,20.2,0,0,1,9.794-9.193l-.108.191A30.48,30.48,0,0,1,497.251,198a31,31,0,0,1,4.265-9.563,30.1,30.1,0,0,1,2.953-3.707,23.733,23.733,0,0,1,3.309-2.879,24.557,24.557,0,0,1,6.817-3.426,33.087,33.087,0,0,1,10.391-1.554,32.3,32.3,0,0,1,3.656.2s-.315,0-.929-.035-1.527-.063-2.727-.06a33.616,33.616,0,0,0-10.33,1.638,24.433,24.433,0,0,0-6.738,3.434,23.606,23.606,0,0,0-3.259,2.863,29.926,29.926,0,0,0-2.909,3.687,30.766,30.766,0,0,0-4.188,9.484,30.168,30.168,0,0,0-.574,11.609l.021.136-.129.054a19.849,19.849,0,0,0-9.585,9.047,20.5,20.5,0,0,0-1.945,14.224,19.025,19.025,0,0,0,9.518,12.014,20.236,20.236,0,0,0,16.219,1.683l.215-.074.084.211a34.943,34.943,0,0,0,25.158,20.937,34.815,34.815,0,0,0,32.911-11.7l.1-.12.155.033c1.588.339,3.2.658,4.84.858a39.289,39.289,0,0,0,13.371-.39,23.542,23.542,0,0,0,11.521-5.874,20.385,20.385,0,0,0,5.768-11.112,14.813,14.813,0,0,0-2.7-11.6l-.237-.3.373-.1a16.74,16.74,0,0,0,5.654-2.7,18.245,18.245,0,0,0,4.236-4.518,23.417,23.417,0,0,0,3.411-17.307,26.673,26.673,0,0,0-1.862-5.489,31.915,31.915,0,0,0-6.581-9.078,43.412,43.412,0,0,0-8.561-6.482,49.491,49.491,0,0,0-9.248-4.266,27.075,27.075,0,0,0-9.394-1.524,14.1,14.1,0,0,0-8.261,2.8l-.15.116-.1-.157a26.76,26.76,0,0,0-7.891-7.794,27.1,27.1,0,0,0-9.141-3.739,25.413,25.413,0,0,0-8.563-.3,27.5,27.5,0,0,0-15.2,7.356,25.475,25.475,0,0,0-1.766,1.876C528.845,176.853,528.642,177.071,528.642,177.071Z" transform="translate(-484.418 -166.702)" fill="#263238"/></g><g transform="translate(27.864 40.413)"><path d="M590.085,208.353c0,.427-17.531.772-39.152.772s-39.156-.345-39.156-.772,17.527-.772,39.156-.772S590.085,207.927,590.085,208.353Z" transform="translate(-511.777 -207.581)" fill="#455a64"/></g><g transform="translate(27.864 48.909)"><path d="M590.085,216.947c0,.426-17.531.772-39.152.772s-39.156-.346-39.156-.772,17.527-.772,39.156-.772S590.085,216.52,590.085,216.947Z" transform="translate(-511.777 -216.175)" fill="#455a64"/></g><g transform="translate(27.864 57.404)"><path d="M590.085,225.54c0,.427-17.531.773-39.152.773s-39.156-.346-39.156-.773,17.527-.772,39.156-.772S590.085,225.114,590.085,225.54Z" transform="translate(-511.777 -224.768)" fill="#455a64"/></g><g transform="translate(27.864 65.9)"><path d="M590.085,234.134c0,.427-17.531.772-39.152.772s-39.156-.345-39.156-.772,17.527-.772,39.156-.772S590.085,233.708,590.085,234.134Z" transform="translate(-511.777 -233.362)" fill="#455a64"/></g></g></g></svg>