<svg xmlns="http://www.w3.org/2000/svg" width="74.449" height="73.604" viewBox="0 0 74.449 73.604"><path d="M178,146.737a.073.073,0,0,1-.027-.049c-.027-.429-.08-.853-.13-1.277,0-.025,0-.051-.008-.076a16.218,16.218,0,0,0-.429-2.186c-.017-.072-.035-.144-.054-.216-.07-.262-.142-.525-.214-.787-.029-.1-.058-.206-.087-.307a23.634,23.634,0,0,0-1.875-4.52l-.018-.033c-.181-.336-.366-.669-.561-1a22.786,22.786,0,0,0-1.724-2.494q-.2-.262-.416-.518c-.111-.138-.227-.276-.348-.412-.019-.025-.043-.051-.066-.078q-.318-.37-.651-.729a21.337,21.337,0,0,0-1.832-1.751c-.13-.115-.26-.225-.393-.332l-.062-.051q-.522-.426-1.067-.824a26.29,26.29,0,0,0-2.614-1.693c-.025-.016-.051-.029-.078-.045-.093-.052-.187-.1-.282-.154q-.872-.475-1.786-.869l-.012-.006q-.8-.344-1.638-.62c-.354-.117-.7-.243-1.043-.369a24.823,24.823,0,0,0-18.188,1.5l-.109.056c-.457.233-.906.474-1.347.729l-.128.076a24.753,24.753,0,0,0-10.217,30.924c.039.091.078.185.119.276.078.183.159.365.247.548a24.756,24.756,0,0,0,18.155,13.907c.251.043.5.078.756.109.237.029.476.066.713.1a10.056,10.056,0,0,0,1.485.144c.2,0,.4,0,.6,0l.591.01a15.321,15.321,0,0,0,2.493-.113h.006c.622-.093,1.248-.155,1.873-.253.041-.006.082-.014.122-.021.062-.01.126-.019.188-.031a23.518,23.518,0,0,0,5.148-1.551,24.764,24.764,0,0,0,7.011-4.524,22.169,22.169,0,0,0,1.762-1.813.052.052,0,0,0,.014-.016q.493-.565.956-1.156.793-1.009,1.475-2.081c.089-.142.179-.286.266-.429.066-.109.13-.218.194-.328s.138-.239.206-.361q.149-.259.286-.525c.047-.087.093-.177.138-.266.093-.177.183-.356.266-.536.113-.233.221-.466.325-.7.058-.128.115-.258.171-.391.01-.025.021-.051.031-.074q.09-.222.181-.449.187-.475.352-.96c.177-.519.344-1.04.5-1.566a19.12,19.12,0,0,0,.591-2.757c.01-.072.019-.146.027-.22.052-.451.111-.9.138-1.352a.171.171,0,0,1,.035-.085c.027-.041.066-.084.093-.124v-4.219c-.029-.029-.074-.056-.1-.085m-9.265,17.691a21.791,21.791,0,1,1,.01-30.836,21.6,21.6,0,0,1-.01,30.836" transform="translate(-103.649 -100.13)" fill="#9678d0"/><path d="M65.893,15.34A6.424,6.424,0,0,0,63.7,11.991a6.312,6.312,0,0,0-4.065-1.51c-3.684-.019-7.369-.006-11.053-.006h-.735a6.71,6.71,0,0,0,1.02-5.021,6.56,6.56,0,0,0-2.818-4.3A6.442,6.442,0,0,0,42.293,0Q24.731.006,7.17,0a9.528,9.528,0,0,0-1.862.13A6.419,6.419,0,0,0,1.853,2.027,6.217,6.217,0,0,0,.091,5.544a7.108,7.108,0,0,0,.14,2.967,6.54,6.54,0,0,0,2.2,3.346A6.243,6.243,0,0,0,6.49,13.375c3.684.019,7.369.008,11.053.008h.733a6.767,6.767,0,0,0,0,7.565c-1.288,0-2.522,0-3.756,0a6.881,6.881,0,0,0-1.209.117,6.464,6.464,0,0,0-4.345,2.868A6.443,6.443,0,0,0,8,29.189a5.664,5.664,0,0,0,1.384,2.7c.307.323.6.655.921,1a6.742,6.742,0,0,0,.019,10.456,6.749,6.749,0,0,0-.025,10.458c-.342.371-.663.688-.95,1.034a6.613,6.613,0,0,0,.888,9.337A6.454,6.454,0,0,0,14.5,65.744q8.217.006,16.434,0h.709a22.281,22.281,0,0,0,3.71,3.263,24.444,24.444,0,0,0,8.974,4.007q.565.125,1.139.216A24.745,24.745,0,0,1,28.341,61.3c.294.506.6,1.007.939,1.5-.233.017-.394.039-.556.039-4.726,0-9.452.016-14.177-.006a3.865,3.865,0,0,1-3.7-2.987,3.77,3.77,0,0,1,2.907-4.438,7.927,7.927,0,0,1,.841-.126q5.454-.015,10.907-.006h.317a26.214,26.214,0,0,0,.874,2.608,24.782,24.782,0,0,1,1.734-21.573,25.249,25.249,0,0,0-2.446,5.585c-3.877,0-7.7.035-11.527-.016a3.753,3.753,0,0,1-3.593-2.928,3.84,3.84,0,0,1,1.834-4.141,3.5,3.5,0,0,1,1.7-.472c5.06-.012,10.12-.006,15.324-.006q-.7.974-1.288,1.978a24.85,24.85,0,0,1,8.735-8.733c-.575.334-1.139.694-1.685,1.082a25.215,25.215,0,0,0-3.28,2.763h-.7q-8.395,0-16.793,0a3.782,3.782,0,0,1-2.394-6.826,3.856,3.856,0,0,1,2.34-.736q17.666,0,35.333.008a10.692,10.692,0,0,1,1.329.161c-1.417.185-2.833.078-4.246.251a26.187,26.187,0,0,0-4.112.8,22.706,22.706,0,0,0-3.846,1.457c-.122.062-.245.122-.367.187a24.823,24.823,0,0,1,18.188-1.5c-.2-.072-.394-.146-.587-.214-.214-.394-.41-.752-.626-1.148,1.341,0,2.625-.014,3.908.006a6.343,6.343,0,0,0,1.895-.311,6.164,6.164,0,0,0,2.765-1.724A6.532,6.532,0,0,0,66.048,18.3a6.934,6.934,0,0,0-.155-2.965M12.265,45.562a3.571,3.571,0,0,1,2.184-.752c3.583-.019,7.166-.008,10.876-.008a24.793,24.793,0,0,0-.113,7.532c-.1.008-.233.031-.367.031-3.414,0-6.826.019-10.241-.008A3.681,3.681,0,0,1,11.357,50.6a3.737,3.737,0,0,1,.907-5.039M6.738,10.472A3.892,3.892,0,0,1,2.986,7.456,3.822,3.822,0,0,1,5.845,3.031a7.652,7.652,0,0,1,1.207-.122H24.5q8.829,0,17.662,0a3.8,3.8,0,0,1,2.882,1.2,3.739,3.739,0,0,1-.62,5.672,3.928,3.928,0,0,1-2.211.682q-17.734.012-35.469,0m54.852,9.78a3.9,3.9,0,0,1-2.207.692q-17.734.009-35.469,0a3.9,3.9,0,0,1-3.762-3A3.817,3.817,0,0,1,23,13.507a7.2,7.2,0,0,1,1.2-.126q8.724,0,17.444,0,8.832,0,17.662,0a3.806,3.806,0,0,1,2.938,1.248,3.737,3.737,0,0,1-.655,5.62" transform="translate(0)" fill="#555"/><path d="M231.9,211.219v.893a1.553,1.553,0,0,1-2.189,1.031l-.726-.878V211.2a5.942,5.942,0,0,1-3.628-2.379,5.074,5.074,0,0,1-1-3.612l.634-.806c1.179-.362,1.659-.159,2.241.894a2.674,2.674,0,0,0,.809,2.2,3.352,3.352,0,0,0,2.125.9,3.682,3.682,0,0,0,2.129-.49,2.546,2.546,0,0,0,1.325-2.3,2.41,2.41,0,0,0-1.037-1.96,3.365,3.365,0,0,0-1.773-.671,8.379,8.379,0,0,1-3.177-.689,5.725,5.725,0,0,1-3.137-3.707,5.191,5.191,0,0,1,1.01-4.708,6.352,6.352,0,0,1,3.1-2.064q.133-.046.263-.1c.021-.009.037-.031.09-.078v-.943l.415-.8.728-.385h.644a1.918,1.918,0,0,1,1.156,1.167v.973a2.789,2.789,0,0,0,.378.166,5.971,5.971,0,0,1,2.576,1.48,5.606,5.606,0,0,1,1.563,2.763,6.622,6.622,0,0,1,.124,1.555,1.525,1.525,0,0,1-2.9.024,2.9,2.9,0,0,0-.969-2.359,3.155,3.155,0,0,0-1.323-.679,3.456,3.456,0,0,0-2.226.13,2.776,2.776,0,0,0-1.881,2.4,2.27,2.27,0,0,0,.794,1.921,3.242,3.242,0,0,0,2.261.921,6.394,6.394,0,0,1,3.271.845,5.63,5.63,0,0,1,2.939,4.112,5.072,5.072,0,0,1-1.322,4.311,6.037,6.037,0,0,1-3.3,1.987" transform="translate(-180.723 -152.676)" fill="#91ddea"/><path d="M169.435,228.786a16.391,16.391,0,0,1-4.033-2.547,30.694,30.694,0,0,1-2.724-2.8,15.469,15.469,0,0,1-2.461-3.928,20.541,20.541,0,0,1-1.285-3.895,18.533,18.533,0,0,1-.391-5.288,16.854,16.854,0,0,1,.573-3.507,19.748,19.748,0,0,1,1.5-3.9,1.473,1.473,0,0,1,1.49-.907,1.375,1.375,0,0,1,1.209.766c.047.083.089.169.139.265v.753a16.123,16.123,0,0,0,7.439,22.448l.418.764v.717c-.448.956-.7,1.1-1.878,1.059" transform="translate(-127.706 -162.757)" fill="#91ddea"/><path d="M287.734,165.74l-.4-.759v-.71c.449-.955.7-1.1,1.872-1.06a18.161,18.161,0,0,1,3.26,1.911,18.868,18.868,0,0,1,2.613,2.4,18.217,18.217,0,0,1,4.289,7.418,20.807,20.807,0,0,1,.646,3.274,15.869,15.869,0,0,1,.08,3.534,17.867,17.867,0,0,1-1.445,5.976c-.205.454-.409.908-.626,1.356a1.505,1.505,0,0,1-2.759.01c-.02-.043-.045-.083-.073-.134v-.744a16.135,16.135,0,0,0-7.456-22.469" transform="translate(-231.498 -131.492)" fill="#91ddea"/><path d="M260.023,154.637l.74-.39h.727a1.874,1.874,0,0,1,1,.753c.327,1.089.125,1.562-.925,2.141h-.792l-.728-.372-.4-.742v-.656l.374-.734" transform="translate(-209.194 -124.274)" fill="#926cdc"/><path d="M237.8,333.88h.785l.731.373.4.743v.656l-.369.725-.743.4h-.728a1.866,1.866,0,0,1-1-.753c-.328-1.088-.125-1.564.928-2.143" transform="translate(-190.728 -269.001)" fill="#926cdc"/></svg>