<svg xmlns="http://www.w3.org/2000/svg" width="140" height="140" viewBox="0 0 140 140"><g transform="translate(-853 -2447)"><rect width="140" height="140" transform="translate(853 2447)" opacity="0"/><g transform="translate(1281.997 2404.731)"><path d="M-366.281,158.092c-.857.1-1.738.142-2.592.317a16.558,16.558,0,0,0-13.081,11.468,1.546,1.546,0,0,0,.382,1.743,1.5,1.5,0,0,0,1.574.348,1.726,1.726,0,0,0,1.121-1.3,12.907,12.907,0,0,1,2.315-4.251,13.575,13.575,0,0,1,9.444-5.043,5.312,5.312,0,0,1,.637,0,1.7,1.7,0,0,1,.306.1c.009.716.023,1.48.028,2.241V153.207C-366.162,155.661-366.2,157.707-366.281,158.092Zm-23.1-4.443c.676-.719,1.381-1.415,2.1-2.1a16.029,16.029,0,0,1,2.307-2.14c.311.272.606.507.872.773,1.3,1.293,2.592,2.6,3.894,3.891a3.812,3.812,0,0,0,4.811.891c.741-.323,1.491-.637,2.241-.94a3.676,3.676,0,0,0,2.513-3.665c.006-1.908,0-3.812.006-5.72,0-.376.048-.753.076-1.124a5.577,5.577,0,0,1,2.165-.178c.7-.028,1.4-.006,2.077-.006.1.4.159,3.274.173,6.385v-9.563c-1.322,0-2.519.059-3.7-.014a3.805,3.805,0,0,0-3.979,3.99c.048,1.868.011,3.741.011,5.612v1.09c-1.228.515-2.386,1-3.577,1.5-.3-.275-.566-.5-.812-.747-1.324-1.319-2.64-2.652-3.971-3.965a3.717,3.717,0,0,0-5.694.008q-2.717,2.679-5.394,5.391a3.7,3.7,0,0,0-.02,5.615c1.31,1.336,2.646,2.649,3.965,3.974.246.246.475.509.784.841-.5,1.2-.991,2.386-1.506,3.62h-1.132c-1.871,0-3.744.059-5.612-.014a3.846,3.846,0,0,0-3.965,4.01c.074,2.5.011,5.012.017,7.52a3.794,3.794,0,0,0,4.14,4.149c1.837.011,3.673,0,5.507,0,.348,0,.7.031,1.1.048a32.509,32.509,0,0,1,1.446,3.8,7.415,7.415,0,0,0-.841.642c-1.333,1.31-2.666,2.626-3.971,3.968a3.642,3.642,0,0,0-.054,5.383c1.9,1.947,3.815,3.874,5.776,5.754a4.362,4.362,0,0,0,1.718.974,3.539,3.539,0,0,0,3.662-1.073c1.327-1.319,2.646-2.646,3.973-3.965.269-.269.558-.518.883-.818,1.208.5,2.366.974,3.58,1.472v1.112c0,1.908-.017,3.815.006,5.72a3.744,3.744,0,0,0,3.86,3.891c.991.017,1.978,0,2.966.006.269,0,.535.054.841.085V166.008a9.469,9.469,0,0,1-.94.2,8.759,8.759,0,0,0-7.65,8.827,8.8,8.8,0,0,0,7.828,8.584c.2.023.41.034.722.059v4.678a4.254,4.254,0,0,1-2.2-.122,13.446,13.446,0,0,1-10.723-9.945c-.091-.3-.136-.623-.249-.917a1.536,1.536,0,0,0-1.879-.974,1.514,1.514,0,0,0-1.158,1.664,7.138,7.138,0,0,0,.246,1.135A16.747,16.747,0,0,0-367.917,191.5c.555.065,1.109.139,1.712.212v14.745c-1.4.023-2.793.037-4.285-.014a11.311,11.311,0,0,1-.147-1.208c-.014-1.9,0-3.812-.011-5.717a3.714,3.714,0,0,0-2.6-3.815c-.784-.317-1.565-.645-2.343-.971a3.77,3.77,0,0,0-4.472.812c-1.327,1.322-2.646,2.649-3.971,3.968-.272.272-.56.524-.875.821a3.242,3.242,0,0,1-.657-.391q-2.747-2.717-5.468-5.462a4.449,4.449,0,0,1-.41-.577c.26-.306.487-.611.753-.877,1.265-1.279,2.547-2.547,3.815-3.824a3.875,3.875,0,0,0,.937-4.984c-.311-.71-.591-1.435-.886-2.151a3.688,3.688,0,0,0-3.671-2.507c-1.941,0-3.883.008-5.824-.008a8.654,8.654,0,0,1-1.067-.133,46.743,46.743,0,0,1,.1-9.17h1.081c1.8,0,3.6-.034,5.4.008a3.968,3.968,0,0,0,4.1-2.85c.235-.736.589-1.435.892-2.148a3.767,3.767,0,0,0-.826-4.469c-1.316-1.33-2.646-2.646-3.968-3.973-.269-.272-.521-.563-.841-.906A13.14,13.14,0,0,1-389.38,153.648Zm23.176,26.7a5.343,5.343,0,0,1-5.321-4.848,5.493,5.493,0,0,1,5.321-6.153Z" transform="translate(0 -58.891)" fill="#555"/><path d="M-177.089,170.9a1.559,1.559,0,0,0-1.6-1.5,1.521,1.521,0,0,0-1.557,1.537c-.037.668-.008,1.341-.011,2.012v2.267c-1.658.212-25.27.147-26.006-.054V159.381h5.06c.017.4.045.739.045,1.081,0,2.471,0,4.944.006,7.415a4.894,4.894,0,0,0,.11,1.152,1.459,1.459,0,0,0,1.582,1.121,1.46,1.46,0,0,0,1.441-1.293,6.269,6.269,0,0,0,.04-.951q0-3.71,0-7.415c0-.371.037-.742.057-1.109h2.839v8.5a7.661,7.661,0,0,0,.014.846,1.544,1.544,0,0,0,1.559,1.426,1.547,1.547,0,0,0,1.582-1.4,6.48,6.48,0,0,0,.02-.846c0-2.541,0-5.083.006-7.624,0-.3.04-.6.062-.894h2.827v8.394a8.874,8.874,0,0,0,.025.951,1.469,1.469,0,0,0,1.435,1.421,1.494,1.494,0,0,0,1.65-1.3,5.672,5.672,0,0,0,.065-1.053q.008-3.655,0-7.31v-1.01a23.442,23.442,0,0,1,5.578.031c0,1.327-.025,2.669.008,4.007a1.51,1.51,0,0,0,1.511,1.579,1.525,1.525,0,0,0,1.641-1.557c.037-1.554.051-3.11-.011-4.661a2.749,2.749,0,0,0-2.247-2.6,6.9,6.9,0,0,0-1.472-.116q-12.129-.013-24.254-.006h-1.248l-.074,39.316a4.629,4.629,0,0,0,.071-1.05c.008-1.149,0-2.3,0-3.614a10.247,10.247,0,0,0,5.686,2.055v1.228q0,8.686,0,17.368a11.278,11.278,0,0,0,.108,2.007,7.165,7.165,0,0,0,6.557,5.793,7.1,7.1,0,0,0,7.344-5.182,9.94,9.94,0,0,0,.269-2.51c.023-5.861.011-11.722.014-17.581,0-.376.025-.753.04-1.112.6-.091,1.087-.142,1.568-.241a11.128,11.128,0,0,0,1.426-.376,9.37,9.37,0,0,0,6.221-8.751c.04-4.058.011-8.12.011-12.178A4.243,4.243,0,0,0-177.089,170.9Zm-12.45,40.72a5.9,5.9,0,0,1-.28,1.97,3.925,3.925,0,0,1-4.333,2.465,3.95,3.95,0,0,1-3.3-3.733c-.017-.317-.011-.637-.014-.954V192.855h7.939v1.084C-189.527,199.832-189.518,205.724-189.538,211.616Zm9.24-27.67a6.085,6.085,0,0,1-5.94,5.655c-4.831.059-9.665.04-14.5.008a5.927,5.927,0,0,1-4.848-2.6,3.588,3.588,0,0,1-.761-2.355c.059-1.656.017-3.314.017-4.973V178.5c8.708,0,17.326,0,26.048,0C-180.278,180.431-180.182,182.194-180.3,183.946Z" transform="translate(-139.351 -70.371)" fill="#91ddea"/><path d="M-258,132.664a3.611,3.611,0,0,0-.057-.841,1.566,1.566,0,0,0-2.14-1.126,1.549,1.549,0,0,0-.979,1.6q.013,2.012,0,4.024c0,.266-.054.532-.088.86h-2.708l-2.59-.008c-.2-1.82-.122-55.459.062-56.212h5.326v42.831c0,.354-.017.71.017,1.058a1.5,1.5,0,0,0,1.435,1.429,1.531,1.531,0,0,0,1.653-1.186L-258,85.778V84.654c0-1.52-.031-3.037.008-4.554a8.274,8.274,0,0,0-.7-3.492q-3.417-8.083-6.792-16.183A4.18,4.18,0,0,0-267.519,58H-269a4.23,4.23,0,0,0-1.831,2.066c-2.326,5.638-4.7,11.255-7.067,16.873a7.015,7.015,0,0,0-.572,2.881c.006.447,0,.894,0,1.446v9.563c.009,1.166.009,2.369,0,3.487v57.358c.031,1.868-.051,3.747.119,5.606a10.148,10.148,0,0,0,14.725,8.063,9.9,9.9,0,0,0,5.609-9.271C-257.965,148.269-258,140.467-258,132.664Zm-10.237-70.521c.906,2.148,1.743,4.135,2.609,6.187h-5.19C-269.964,66.272-269.141,64.3-268.241,62.143Zm-3.965,9.458h7.941c.829,1.967,1.67,3.968,2.547,6.059H-274.75C-273.879,75.584-273.049,73.608-272.206,71.6Zm-3.048,9.4a12.3,12.3,0,0,1,2.615-.1c.88-.025,1.76-.006,2.624-.006.226.792.269,55.066.051,56.234H-275.1a1.046,1.046,0,0,1-.085-.091.245.245,0,0,1-.057-.088.645.645,0,0,1-.045-.2q-.008-27.585-.008-55.168C-275.291,81.408-275.271,81.235-275.254,81Zm.054,59.512c.767-.192,12.73-.232,13.961-.04v6.1c-.713.224-11.49.32-13.893.116A32.9,32.9,0,0,1-275.2,140.512Zm13.828,16.955a6.786,6.786,0,0,1-6.458,5.807,7.009,7.009,0,0,1-7.183-5.224,8.2,8.2,0,0,1-.266-1.981c-.037-1.868-.014-3.739-.009-5.606a4.062,4.062,0,0,1,.054-.47h14.125C-261.183,152.554-261.064,155.039-261.372,157.467Z" transform="translate(-87.676 0)" fill="#926cdc"/><path d="M-380.828,79.222c0-1.518.025-3.036-.007-4.552a3.013,3.013,0,0,1,1.71-2.914q3.875-2.17,7.692-4.442a3.212,3.212,0,0,1,3.576-.037q3.87,2.285,7.784,4.493a3.1,3.1,0,0,1,1.7,2.939c-.01,3-.017,6,0,9a3.219,3.219,0,0,1-1.83,3.077q-3.79,2.1-7.5,4.344a3.372,3.372,0,0,1-3.851-.026c-2.467-1.5-4.978-2.939-7.505-4.342a3.124,3.124,0,0,1-1.776-3.093C-380.79,82.187-380.828,80.7-380.828,79.222ZM-361.6,83.91V74.576l-8-4.628-7.972,4.6v9.386l7.967,4.594Z" transform="translate(-14.279 -6.274)" fill="#91ddea"/><path d="M-195.977,66.922a2.076,2.076,0,0,1,1.845,1.152,6.948,6.948,0,0,1,.441,1.075,5.5,5.5,0,0,0,3.455,3.478,9.739,9.739,0,0,1,1.077.434,2.071,2.071,0,0,1,1.181,1.979,2.053,2.053,0,0,1-1.186,1.87c-.376.189-.781.322-1.175.474a5.438,5.438,0,0,0-3.318,3.342c-.12.331-.245.662-.389.982a2.079,2.079,0,0,1-1.979,1.338,2.106,2.106,0,0,1-2.061-1.38c-.173-.385-.3-.789-.464-1.181a5.238,5.238,0,0,0-3.072-3.029c-.426-.166-.86-.32-1.27-.52a2.03,2.03,0,0,1-1.211-1.951,2.034,2.034,0,0,1,1.214-1.95c.347-.17.716-.3,1.078-.431a5.381,5.381,0,0,0,3.339-3.317,9.8,9.8,0,0,1,.427-1.081A2.151,2.151,0,0,1-195.977,66.922Zm-.139,11.318c.553-.672,1-1.308,1.542-1.848.526-.525,1.148-.954,1.784-1.47a8.9,8.9,0,0,1-3.289-3.253,8.449,8.449,0,0,1-3.313,3.314A8.389,8.389,0,0,1-196.117,78.24Z" transform="translate(-140.998 -6.397)" fill="#91ddea"/><path d="M-137.078,113.465c0,.7-.035,1.261.008,1.815a1.639,1.639,0,0,1-1.551,1.782c-.944.025-1.6-.694-1.629-1.813-.016-.555,0-1.111,0-1.774-.641,0-1.195.01-1.748,0-1.124-.024-1.865-.664-1.832-1.6a1.658,1.658,0,0,1,1.872-1.577c.52.038,1.046.007,1.707.007,0-.5-.011-.948,0-1.392a4.6,4.6,0,0,1,.092-1.044,1.547,1.547,0,0,1,1.581-1.148,1.559,1.559,0,0,1,1.476,1.4c.053.523.017,1.055.027,1.583,0,.168.024.335.044.6.611,0,1.168-.026,1.72.009a2.777,2.777,0,0,1,1.013.222,1.533,1.533,0,0,1,.78,1.7,1.57,1.57,0,0,1-1.418,1.228C-135.6,113.5-136.266,113.465-137.078,113.465Z" transform="translate(-184.209 -34.926)" fill="#926cdc"/><path d="M-163.27,337.666c0,.562.021,1.125,0,1.686a1.607,1.607,0,0,1-1.544,1.673,1.6,1.6,0,0,1-1.62-1.7q-.041-1.686,0-3.373a1.6,1.6,0,0,1,1.539-1.674,1.611,1.611,0,0,1,1.625,1.7C-163.251,336.541-163.27,337.1-163.27,337.666Z" transform="translate(-167.988 -198.089)" fill="#fff"/><path d="M-356.085,90.067a5.834,5.834,0,0,1,5.866,5.941,5.911,5.911,0,0,1-5.863,5.877A5.914,5.914,0,0,1-362,95.959,5.836,5.836,0,0,1-356.085,90.067Zm2.684,5.871a2.663,2.663,0,0,0-2.676-2.69,2.663,2.663,0,0,0-2.738,2.73,2.692,2.692,0,0,0,2.673,2.708A2.7,2.7,0,0,0-353.4,95.938Z" transform="translate(-27.788 -22.992)" fill="#91ddea"/><line y1="3.487" transform="translate(-366.148 90.829)" fill="none"/></g></g></svg>