<svg xmlns="http://www.w3.org/2000/svg" width="72.72" height="72.702" viewBox="0 0 72.72 72.702"><g transform="translate(1151.114 255.951)"><path d="M-1151.114-148.719a1.685,1.685,0,0,0,.141-.3,2.849,2.849,0,0,1,2.763-2.119c1.015.045,2.034.01,3.052.009h.767c0-.363,0-.663,0-.963.021-1.087.038-2.174.069-3.26a2.33,2.33,0,0,1,2.338-2.033c.753.037,1.511-.008,2.266-.019.019,0,.037-.028.035-.026-.062-1-.19-1.983-.172-2.966a17.7,17.7,0,0,1,4.464-11.648c.746-.854,1.572-1.638,2.333-2.48.982-1.087,1.969-2.174,2.887-3.313a9.718,9.718,0,0,0,1.119-1.879,3.148,3.148,0,0,0,.066-2.417.633.633,0,0,0-.112-.176,19.141,19.141,0,0,1-1.834.775,7.151,7.151,0,0,1-2.816.095c-.868-.083-1.73-.239-2.6-.333a6.576,6.576,0,0,0-.965.032,1.6,1.6,0,0,0,.2,1.012c.42,1.259.28,1.621-.888,2.2q-2.284,1.133-4.572,2.259c-1.009.5-1.464.358-2.013-.652-1.274-2.344-2.525-4.7-3.8-7.042a1.27,1.27,0,0,1,.3-1.815q3.927-3.7,7.834-7.416,2.731-2.587,5.461-5.174c.2-.194.429-.367.686-.585-.309-.4-.556-.739-.816-1.065-.634-.794-1.275-1.584-1.912-2.376a3.27,3.27,0,0,1-.217-.28,1.121,1.121,0,0,1,.386-1.7,5.47,5.47,0,0,1,2.281-.7,7.316,7.316,0,0,1,3.651.664,13.841,13.841,0,0,1,2.672,1.593c.206.156.417.306.534.392.96.061,1.809.109,2.656.171a15.044,15.044,0,0,1,6.293,1.972,21.1,21.1,0,0,1,7.227,6.978,35.48,35.48,0,0,1,4.654,10.653,40.652,40.652,0,0,1,1.182,6.678,34.663,34.663,0,0,1,.079,4.889,17,17,0,0,1-.666,3.968,1.3,1.3,0,0,1-1.25,1.057,5.091,5.091,0,0,0-4.239,3.767,3.947,3.947,0,0,0,.818,3.4,7.08,7.08,0,0,0,1.589,1.519c.975,0,1.945,0,2.914,0a2.322,2.322,0,0,1,2.416,2.409c.015,1.017,0,2.035,0,3.052v.741c.22.017.4.043.582.043,1.088,0,2.178.031,3.265,0a2.845,2.845,0,0,1,2.84,2.831c-.022,1.112-.038,2.226.005,3.336a2.864,2.864,0,0,1-1.9,2.787,1.23,1.23,0,0,0-.237.138h-49.7c-.03-.034-.052-.088-.09-.1a2.78,2.78,0,0,1-1.948-2.216c-.007-.037-.06-.065-.092-.1Zm43.029-19.576c.14-1.131.325-2.225.4-3.326a28.805,28.805,0,0,0-.294-5.868,37.214,37.214,0,0,0-1.389-6.2,29.969,29.969,0,0,0-5.837-10.91,16.015,16.015,0,0,0-6.063-4.441,13.078,13.078,0,0,0-6.021-.97,1.968,1.968,0,0,1-1.448-.431c-.539-.421-1.092-.829-1.662-1.206a7.007,7.007,0,0,0-2.73-1.117,1.849,1.849,0,0,0-1,.025c.1.145.164.241.235.33.721.906,1.454,1.8,2.164,2.719a1.1,1.1,0,0,1-.089,1.644c-.146.155-.3.3-.457.446q-3.966,3.758-7.933,7.515c-1.477,1.4-2.964,2.787-4.431,4.2-.473.454-.9.959-1.377,1.477l3.108,5.755,3.471-1.726c-.118-.355-.191-.653-.312-.929a1.56,1.56,0,0,1,.347-1.761,2.9,2.9,0,0,1,2.187-1,28.255,28.255,0,0,1,3.874.355c1.393.122,2.623-.032,3.361-1.483a1.1,1.1,0,0,1,2.067.025c.439.78.83,1.589,1.194,2.408a4.625,4.625,0,0,1-.223,4.285,14.038,14.038,0,0,1-1.907,2.724c-1.361,1.51-2.761,2.986-4.153,4.468a17.163,17.163,0,0,0-2.747,3.77,15.247,15.247,0,0,0-1.776,6.424,17.264,17.264,0,0,0,.23,3.681h24.7c0-.037.008-.062,0-.076-.078-.117-.163-.231-.24-.349a6.166,6.166,0,0,1-.54-6.254,7.45,7.45,0,0,1,2.424-2.911A7.8,7.8,0,0,1-1108.085-168.3Zm-40.621,23.724c.357.365.732.254,1.073.254q23.527.007,47.054,0c.118,0,.237,0,.355,0,.626-.015.782-.165.789-.809.009-.852,0-1.7,0-2.555,0-1.142-.044-1.185-1.205-1.185h-46.912a2.729,2.729,0,0,0-.5.006,6.552,6.552,0,0,0-.659.192Zm42.536-10.5h-35.813a23.1,23.1,0,0,0,.035,3.943h.4l35.259-.023a.114.114,0,0,0,.063-.027.444.444,0,0,0,.055-.066Z" transform="translate(0 -41.204)" fill="#fff"/><path d="M-882.85-166.239h-9.661c-.166,0-.332.007-.5,0a1.2,1.2,0,0,1-1.182-1.1,4.961,4.961,0,0,1-.008-.567q0-6.138,0-12.276v-.911c-.772.948-1.441,1.77-2.111,2.591a2.977,2.977,0,0,1-.374.424,1.139,1.139,0,0,1-1.492-.007,1.128,1.128,0,0,1-.2-1.474,2.793,2.793,0,0,1,.218-.279l3.958-4.915c.045-.055.093-.108.139-.161.729-.833,1.4-.824,2.111.048q2.035,2.5,4.05,5.024a1.788,1.788,0,0,1,.358.747,1.034,1.034,0,0,1-.591,1.173,1.06,1.06,0,0,1-1.3-.213c-.389-.411-.732-.866-1.091-1.3-.416-.507-.828-1.018-1.265-1.556-.141.586-.155,11.749-.016,12.489h9.612c.189,0,.379-.009.568.006a1.069,1.069,0,0,1,1.041,1.046c.015.188.009.378.009.567q0,6.351,0,12.7c0,.189.005.379-.009.567a1.072,1.072,0,0,1-1.044,1.041,1.11,1.11,0,0,1-1.21-.95,4.439,4.439,0,0,1-.014-.638q0-5.606,0-11.212Z" transform="translate(-204.644 -57.06)" fill="#fff"/><path d="M-883.835-251.535a4.369,4.369,0,0,1-4.409,4.387,4.361,4.361,0,0,1-4.369-4.379,4.368,4.368,0,0,1,4.467-4.424A4.373,4.373,0,0,1-883.835-251.535Zm-6.449-.012a2.058,2.058,0,0,0,2.092,2.113,2.1,2.1,0,0,0,2.073-2.147,2.089,2.089,0,0,0-2.07-2.076A2.052,2.052,0,0,0-890.284-251.547Z" transform="translate(-209.464 0)" fill="#fff"/><path d="M-824.129,16.522a4.413,4.413,0,0,1-4.439,4.365,4.447,4.447,0,0,1-4.349-4.4,4.411,4.411,0,0,1,4.422-4.4A4.378,4.378,0,0,1-824.129,16.522Zm-4.37,2.08a2.119,2.119,0,0,0,2.088-2.148,2.059,2.059,0,0,0-2.152-2.066,2.02,2.02,0,0,0-2.049,2.094A2.107,2.107,0,0,0-828.5,18.6Z" transform="translate(-257.836 -217.189)" fill="#fff"/><path d="M-973.274-232.236c-.714-.718-1.333-1.33-1.939-1.955a2.529,2.529,0,0,1-.469-.609,1.047,1.047,0,0,1,.327-1.326,1.039,1.039,0,0,1,1.311-.084,3.106,3.106,0,0,1,.475.423c.6.6,1.191,1.211,1.818,1.851.181-.15.328-.255.455-.38.556-.548,1.1-1.111,1.661-1.649a1.124,1.124,0,0,1,1.279-.35,1.113,1.113,0,0,1,.493,1.792c-.3.364-.655.68-.988,1.016-.349.353-.7.7-1.05,1.056a1.334,1.334,0,0,0-.109.16c.107.126.215.27.341.4q.847.858,1.7,1.706a1.169,1.169,0,0,1,.337,1.169,1.143,1.143,0,0,1-1.709.655,2.992,2.992,0,0,1-.475-.423c-.6-.6-1.2-1.2-1.838-1.833a4.075,4.075,0,0,0-.378.294c-.607.6-1.189,1.219-1.815,1.795a1.127,1.127,0,0,1-1.911-.521,1.168,1.168,0,0,1,.409-1.206c.51-.526,1.031-1.041,1.554-1.555C-973.659-231.943-973.5-232.052-973.274-232.236Z" transform="translate(-142.055 -15.839)" fill="#fff"/><path d="M-806.587-179.246c.305-.3.572-.564.837-.828.452-.45.886-.92,1.36-1.345a1.093,1.093,0,0,1,1.717.205,1.383,1.383,0,0,1-.2,1.506c-.5.53-1.033,1.039-1.549,1.558-.165.166-.324.337-.524.547.418.418.815.812,1.209,1.21s.791.806,1.166,1.189v1.029a3.294,3.294,0,0,1-.4.429,1.059,1.059,0,0,1-1.42-.1c-.52-.481-1.013-.992-1.51-1.5-.2-.2-.377-.421-.595-.667-.2.171-.34.28-.467.405-.538.531-1.057,1.082-1.613,1.594a1.986,1.986,0,0,1-.775.456,1.053,1.053,0,0,1-1.15-.515,1.139,1.139,0,0,1,.092-1.32c.531-.57,1.095-1.11,1.643-1.664.179-.181.352-.368.559-.586-.692-.694-1.352-1.365-2.022-2.026a1.232,1.232,0,0,1-.431-1,1.109,1.109,0,0,1,1.708-.889,3.373,3.373,0,0,1,.525.472C-807.828-180.487-807.229-179.887-806.587-179.246Z" transform="translate(-275.861 -60.13)" fill="#fff"/><path d="M-999.326-141.575a7.489,7.489,0,0,1,0,.78,1.139,1.139,0,0,1-1.287,1.114.987.987,0,0,1-.934-.742,3.812,3.812,0,0,1-.109-.839c-.068-1.369-.05-2.746-.2-4.105a27.634,27.634,0,0,0-4.4-12.708,16.819,16.819,0,0,0-5.589-5.345c-.348-.2-.724-.348-1.072-.544a1.088,1.088,0,0,1-.575-1.193,1.1,1.1,0,0,1,.792-.911,1.224,1.224,0,0,1,.957.131,15.568,15.568,0,0,1,3.235,2.027,21.869,21.869,0,0,1,5.506,6.783,29.74,29.74,0,0,1,3.02,8.793,34.432,34.432,0,0,1,.58,5.131c.017.543.07,1.085.106,1.627Z" transform="translate(-111.495 -72.79)" fill="#fff"/></g></svg>