<svg xmlns="http://www.w3.org/2000/svg" width="71.751" height="71.704" viewBox="0 0 71.751 71.704"><g transform="translate(1188.6 921.8)"><path d="M-1188.6-888.62a2.206,2.206,0,0,0,.136-.383,14.348,14.348,0,0,1,9.781-11.874,10.413,10.413,0,0,1,2.922-.647,6.713,6.713,0,0,0,.735-.136,22.23,22.23,0,0,1,9.543-16.146A21.5,21.5,0,0,1-1152.4-921.8a21.851,21.851,0,0,1,14.789,5.9,22.289,22.289,0,0,1,7.162,14.26,14.5,14.5,0,0,1,11.411,6.935,13.928,13.928,0,0,1,1.974,10,14.569,14.569,0,0,1-15.451,12.16v-2.207c.26,0,.532,0,.8,0a12.433,12.433,0,0,0,6.892-1.969,11.979,11.979,0,0,0,5.447-8.121,11.847,11.847,0,0,0-2.4-9.8,11.875,11.875,0,0,0-8.38-4.65c-.371-.04-.743-.074-1.115-.1-.935-.064-1.313-.447-1.426-1.381-.117-.969-.238-1.941-.417-2.9a18.282,18.282,0,0,0-2.521-6.321,19.976,19.976,0,0,0-6.111-6.258,19.722,19.722,0,0,0-7.135-2.9,19.891,19.891,0,0,0-12.031,1.359,19.8,19.8,0,0,0-7.646,5.961,19.415,19.415,0,0,0-3.7,7.6c-.251,1.061-.355,2.156-.522,3.237-.025.161-.016.328-.047.487a1.181,1.181,0,0,1-1.286,1.11,13.677,13.677,0,0,0-3.175.47,11.934,11.934,0,0,0-8.6,8.76,12.229,12.229,0,0,0,8.826,15.005,14.283,14.283,0,0,0,3.463.412c.205,0,.411,0,.65,0v2.169a3.517,3.517,0,0,1-1.214.064,8.714,8.714,0,0,1-1.189-.036,14.968,14.968,0,0,1-5.206-1.5,14.472,14.472,0,0,1-7.05-7.727,12.935,12.935,0,0,1-.871-3.441,1.262,1.262,0,0,0-.126-.316Z" transform="translate(0 0)" fill="#fff"/><path d="M-1188.6-634.311a11.134,11.134,0,0,1,.562-1.416,4.264,4.264,0,0,1,4.411-2.337,4.28,4.28,0,0,1,3.716,2.881c.052.129.108.257.174.415.174.01.357.03.541.03q4.062,0,8.124,0a4.223,4.223,0,0,0,.49-.014,1.057,1.057,0,0,0,1.035-1.1c.01-.163,0-.327,0-.49v-10.673h2.215c.009.132.023.243.023.354,0,3.665.015,7.33-.013,10.995a3.081,3.081,0,0,1-1.952,2.9,3.44,3.44,0,0,1-1.5.278c-2.708-.008-5.416,0-8.124,0h-.808c-.074.165-.155.326-.22.492a4.491,4.491,0,0,1-4.387,2.863,4.5,4.5,0,0,1-4.082-3.188c-.061-.2-.138-.389-.208-.583Zm6.725.693a2.271,2.271,0,0,0-2.229-2.234,2.282,2.282,0,0,0-2.236,2.231,2.287,2.287,0,0,0,2.233,2.237A2.281,2.281,0,0,0-1181.875-633.619Z" transform="translate(0 -226.572)" fill="#fff"/><path d="M-1005.918-634.078a11.414,11.414,0,0,1-1.351-.533,4.265,4.265,0,0,1-2.4-4.375,4.286,4.286,0,0,1,2.891-3.783c.129-.052.257-.105.44-.181v-16.867h2.14a.5.5,0,0,1,.04.038c.015.017.039.036.039.054,0,5.576,0,11.151,0,16.762.17.073.311.142.459.194a4.511,4.511,0,0,1,2.921,4.412,4.533,4.533,0,0,1-3.2,4.075c-.2.061-.39.136-.584.2Zm.679-6.725a2.278,2.278,0,0,0-2.214,2.251,2.29,2.29,0,0,0,2.256,2.214,2.288,2.288,0,0,0,2.214-2.256A2.279,2.279,0,0,0-1005.239-640.8Z" transform="translate(-147.52 -216.018)" fill="#fff"/><path d="M-888.726-618.93a4.528,4.528,0,0,1,5.154-3.278,4.5,4.5,0,0,1,3.7,4.382,4.515,4.515,0,0,1-3.7,4.452,4.546,4.546,0,0,1-5.159-3.292h-.735c-2.8,0-5.6.008-8.4-.005a3.213,3.213,0,0,1-3.185-2.445,2.618,2.618,0,0,1-.1-.687q-.011-3.884,0-7.769a2.156,2.156,0,0,1,.034-.249h2.169c.011.2.032.407.032.609q0,3.324,0,6.649c0,.187-.008.374,0,.56a1.06,1.06,0,0,0,1.049,1.091,2.6,2.6,0,0,0,.28,0h8.538C-888.951-618.909-888.86-618.92-888.726-618.93Zm4.367-1.094a2.271,2.271,0,0,0-2.226,2.236,2.281,2.281,0,0,0,2.234,2.232,2.287,2.287,0,0,0,2.231-2.239A2.282,2.282,0,0,0-884.359-620.024Z" transform="translate(-237.016 -242.401)" fill="#fff"/><path d="M-1004.148-772.516v10.14h-2.227v-10.132a4.688,4.688,0,0,1-2.951-2.465,4.359,4.359,0,0,1-.326-2.862,4.5,4.5,0,0,1,4.376-3.535,4.48,4.48,0,0,1,4.393,3.6,4.3,4.3,0,0,1-.608,3.284A4.78,4.78,0,0,1-1004.148-772.516Zm-1.138-2.139a2.289,2.289,0,0,0,2.246-2.223,2.291,2.291,0,0,0-2.225-2.245,2.291,2.291,0,0,0-2.246,2.224A2.29,2.29,0,0,0-1005.286-774.655Z" transform="translate(-147.463 -115.792)" fill="#fff"/><path d="M-914.789-734.159v9.012h-2.134s-.019-.019-.034-.037-.039-.036-.039-.053c0-2.963,0-5.926,0-8.932a4.653,4.653,0,0,1-3.078-2.754,4.352,4.352,0,0,1-.126-2.881,4.479,4.479,0,0,1,4.613-3.221,4.528,4.528,0,0,1,4.12,3.758C-911.084-737.1-912.254-735.265-914.789-734.159Zm-3.345-4.413a2.289,2.289,0,0,0,2.216,2.253,2.291,2.291,0,0,0,2.251-2.219,2.29,2.29,0,0,0-2.217-2.252A2.289,2.289,0,0,0-918.134-738.572Z" transform="translate(-221.154 -147.403)" fill="#fff"/><path d="M-1093.611-734.141v5.635h-2.124c-.008-.008-.026-.024-.041-.041s-.038-.036-.038-.054c0-1.84,0-3.679,0-5.571a4.64,4.64,0,0,1-3.093-2.807,4.279,4.279,0,0,1-.106-2.81,4.472,4.472,0,0,1,4.591-3.236,4.525,4.525,0,0,1,4.144,3.722C-1089.886-737.115-1091.01-735.346-1093.611-734.141Zm1.136-4.441a2.26,2.26,0,0,0-2.261-2.2,2.169,2.169,0,0,0-2.191,2.254,2.173,2.173,0,0,0,2.246,2.2A2.257,2.257,0,0,0-1092.475-738.582Z" transform="translate(-73.713 -147.404)" fill="#fff"/><path d="M-957.585-659.978l1.22-1.334,1.582,1.606a3.534,3.534,0,0,1-.264.327q-1.381,1.389-2.769,2.772l-.049.049c-.739.7-1.268.713-1.99,0-.931-.916-1.849-1.845-2.771-2.771-.128-.129-.244-.271-.357-.4l1.561-1.588,1.421,1.4v-12.833a2.748,2.748,0,0,1,1.123-.1c.346-.015.694,0,1.106,0v12.807Z" transform="translate(-186.033 -205.27)" fill="#fff"/><path d="M-1050.747-693.188l-1.55-1.535a2.61,2.61,0,0,1,.234-.318c.954-.959,1.907-1.92,2.872-2.869a1.194,1.194,0,0,1,1.989-.01c.849.833,1.685,1.68,2.526,2.522.211.211.419.425.634.644l-1.58,1.579-1.441-1.38c-.024.952-.009,1.793-.012,2.633s0,1.68,0,2.519v7.732h-2.231v-12.893Z" transform="translate(-112.389 -184.165)" fill="#fff"/></g></svg>