<svg xmlns="http://www.w3.org/2000/svg" width="67.752" height="67.732" viewBox="0 0 67.752 67.732"><g transform="translate(720.668 660.714)"><path d="M-654.293-660.714a1.363,1.363,0,0,1,.894.315c.023.02.045.041.066.062a1.462,1.462,0,0,1,.4,1.08c-.013,1.212,0,2.425,0,3.637,0,1.279-.041,2.559.014,3.835a1.477,1.477,0,0,1-1.632,1.631c-.4.01-.794,0-1.19,0-1.94,0-3.88-.012-5.82,0-1.37.012-1.959-.549-1.93-1.956.013-.638,0-1.276,0-1.893-.042-.036-.058-.051-.076-.064s-.036-.032-.055-.032q-4.927-.009-9.853-.016-.3,0-.595.012c-.038,0-.075.034-.142.066A29.792,29.792,0,0,1-661.927-643.5a30.057,30.057,0,0,1,5.043,15.289c.166.015.333.041.5.042.683,0,1.367.021,2.05,0a1.408,1.408,0,0,1,1.412,1.484c-.03,2.513-.008,5.026-.012,7.539a1.388,1.388,0,0,1-1.327,1.527,2.183,2.183,0,0,1-.282.015c-2.347,0-4.693-.01-7.039,0-1.34.008-1.915-.546-1.908-1.913.012-2.27,0-4.541.007-6.812a3.335,3.335,0,0,1,.1-.778,1.239,1.239,0,0,1,1.31-1.058c.814-.012,1.629,0,2.508,0a26.987,26.987,0,0,0-5.072-14.515,27.022,27.022,0,0,0-16.816-10.886,4.033,4.033,0,0,0-.057,1.1c-.012.264.007.529,0,.793a1.43,1.43,0,0,1-1.32,1.505,1.867,1.867,0,0,1-.269.016h-7.33a2.28,2.28,0,0,1-.279-.013,1.425,1.425,0,0,1-1.361-1.521c-.015-.44,0-.882,0-1.323v-.523c-11.244,1.839-21.447,12.471-21.923,25.365.7,0,1.4.046,2.1-.01,1.323-.107,1.8.718,1.8,1.8-.013,2.315.005,4.629-.013,6.944a2.713,2.713,0,0,1-.213,1.079,1.437,1.437,0,0,1-1.43.747c-.837.016-1.675,0-2.513,0-1.477,0-2.955-.026-4.431.01a2.065,2.065,0,0,1-1.961-.914v-8.732c.033-.027.08-.047.1-.082a1.37,1.37,0,0,1,1.428-.845c.529.014,1.058,0,1.587,0,.278,0,.557-.008.768-.011.221-1.62.37-3.172.66-4.7a26.24,26.24,0,0,1,1.295-4.477,30.44,30.44,0,0,1,1.98-4.23,30.2,30.2,0,0,1,2.578-3.823,28.561,28.561,0,0,1,3.167-3.451,32.955,32.955,0,0,1,3.681-2.9,31.891,31.891,0,0,1,4.112-2.309c-1.389-.11-10.272-.07-10.794.044,0,.651-.007,1.31,0,1.969.02,1.618-.811,2.122-2.91,1.817a15.542,15.542,0,0,0-4.644-.011,3.166,3.166,0,0,1-2.6-.354,1.145,1.145,0,0,1-.4-.883v-7.781a1.453,1.453,0,0,1,1.453-1.453h7.9a.884.884,0,0,1,.6.229,2.039,2.039,0,0,1,.612,1.73c-.033.5-.009,1.012,0,1.517,0,.145.028.29.047.47h.63l17.224-.014c.018,0,.037-.021.053-.035s.03-.031.074-.078c0-.693,0-1.418,0-2.143a4.927,4.927,0,0,1,.051-.587,1.08,1.08,0,0,1,.322-.631,1.566,1.566,0,0,1,1.129-.459h7.528a1.527,1.527,0,0,1,1.537,1.589c0,.007,0,.015,0,.022-.016.241,0,.484,0,.726v1.553c.956.106,17.514.078,18-.026.008-.126.023-.256.024-.387,0-.594,0-1.188,0-1.782a1.6,1.6,0,0,1,.838-1.591h0a.621.621,0,0,1,.286-.1Zm-35.1,7.8h5.144a39.449,39.449,0,0,0-.016-5.13,46.312,46.312,0,0,0-5.128.05Zm-28.6-5.142v5.14h5.083a35.881,35.881,0,0,0-.033-5.14Zm57.269,0v5.14h5.086a39.118,39.118,0,0,0-.03-5.14Zm-57.269,32.543v5.141h5.083a36.183,36.183,0,0,0-.032-5.141Zm62.347,5.141a42.424,42.424,0,0,0-.01-5.123h-5.073v5.123Z" fill="#fff"/><path d="M-563.021-533.144c.879,1.143,1.769,2.23,2.578,3.374a18.391,18.391,0,0,1,1.938,3.662,21.656,21.656,0,0,1,1.2,4.017c.477.109,8.294.14,9.2.035a21.626,21.626,0,0,1,5.789-11l-9.029-16.4v9.65a4.7,4.7,0,0,1,2.817,2.637,4.3,4.3,0,0,1,.159,2.905,4.469,4.469,0,0,1-4.828,3.245,4.413,4.413,0,0,1-3.948-3.763,4.532,4.532,0,0,1,3.1-5.032v-9.613c-.239.41-.433.727-.612,1.052-.732,1.328-1.457,2.66-2.192,3.986a3.406,3.406,0,0,1-.419.588,1.221,1.221,0,0,1-1.334.334,1.155,1.155,0,0,1-.852-.916c-.026-.129-.052-.258-.1-.48.2-.4.4-.886.657-1.345q2.4-4.364,4.812-8.716a2.615,2.615,0,0,1,.632-.822,1.238,1.238,0,0,1,1.838.332c.315.475.587.981.862,1.481,1.566,2.851,3.122,5.707,4.692,8.556q3.008,5.457,6.03,10.906c.159.288.295.591.461.875a1.415,1.415,0,0,1-.263,1.852c-.55.538-1.082,1.1-1.581,1.686A18.57,18.57,0,0,0-545.379-522h1.283a3.925,3.925,0,0,1,3.784,3.015,3.853,3.853,0,0,1-1.6,4.227c-.139.1-.29.193-.46.305v.727q0,4.895,0,9.79c0,.176.008.354-.005.529a1.321,1.321,0,0,1-1.3,1.244,1.322,1.322,0,0,1-1.335-1.273c-.011-.176,0-.353,0-.529q0-4.7,0-9.393v-.678h-15.351v.665q0,4.73,0,9.459a4.886,4.886,0,0,1-.012.595,1.336,1.336,0,0,1-1.314,1.154,1.328,1.328,0,0,1-1.3-1.165,5.191,5.191,0,0,1-.011-.595q0-4.928,0-9.856v-.627c-.372-.309-.728-.568-1.042-.871a3.94,3.94,0,0,1,.872-6.2,3.87,3.87,0,0,1,2.011-.527c.372.006.743,0,1.15,0a17.751,17.751,0,0,0-1.47-4.245,18.589,18.589,0,0,0-3.776-5.212c-.158-.154-.316-.309-.46-.475a1.227,1.227,0,0,1-.21-1.408c.146-.319.31-.63.479-.939.454-.829.914-1.655,1.372-2.481a1.874,1.874,0,0,1,.662-.8,1.35,1.35,0,0,1,1.54.109,1.239,1.239,0,0,1,.35,1.489c-.248.538-.539,1.056-.817,1.58C-562.573-533.961-562.807-533.539-563.021-533.144Zm10.295,16.434c2.69,0,5.38,0,8.069-.006a3.083,3.083,0,0,0,.97-.136,1.266,1.266,0,0,0,.653-1.8,1.5,1.5,0,0,0-1.456-.711q-8.2,0-16.4.005a2.587,2.587,0,0,0-.837.142,1.3,1.3,0,0,0-.778,1.193,1.29,1.29,0,0,0,.807,1.169,3.757,3.757,0,0,0,.971.134C-558.062-516.706-555.394-516.71-552.726-516.71Zm0-16.933a1.854,1.854,0,0,0,1.872-1.813,1.867,1.867,0,0,0-1.814-1.878,1.867,1.867,0,0,0-1.872,1.821A1.855,1.855,0,0,0-552.721-533.643Z" transform="translate(-134.107 -90.818)" fill="#fff"/><path d="M-531.567-447.78c-.269,1.009-.728,1.4-1.525,1.319a1.276,1.276,0,0,1-1.12-1.252,1.3,1.3,0,0,1,1.15-1.371C-532.364-449.178-531.854-448.742-531.567-447.78Z" transform="translate(-161.739 -183.566)" fill="#fff"/></g></svg>