<svg xmlns="http://www.w3.org/2000/svg" width="68.784" height="68.767" viewBox="0 0 68.784 68.767"><g transform="translate(42.257 710.572)"><path d="M-42.257-480.137a1.721,1.721,0,0,1,1.831-.947c.575.046,1.157.009,1.839.009v-.746c0-1.589-.005-3.178,0-4.767a3.518,3.518,0,0,1,.107-.928,1.377,1.377,0,0,1,1.12-.943q2.7-.668,5.391-1.343c.215-.054.428-.118.667-.184l2.218-5.348c-.112-.2-.227-.412-.351-.619-.92-1.534-1.844-3.064-2.761-4.6a1.463,1.463,0,0,1,.256-2.2q2.369-2.379,4.749-4.747a1.467,1.467,0,0,1,2.156-.254c1.536.915,3.065,1.843,4.6,2.763.209.125.425.239.649.365l5.355-2.219c.263-1.027.526-2.039.78-3.053.238-.952.462-1.908.7-2.86a1.505,1.505,0,0,1,1.767-1.352q3.324,0,6.648,0a1.5,1.5,0,0,1,1.752,1.37q.687,2.761,1.368,5.522c.027.107.072.21.131.38l5.331,2.213c.241-.135.458-.249.667-.375,1.515-.908,3.026-1.821,4.542-2.727a1.5,1.5,0,0,1,2.258.288q2.33,2.323,4.654,4.653a1.487,1.487,0,0,1,.282,2.251c-1.032,1.725-2.07,3.447-3.111,5.179l2.228,5.382,3.345.843c.866.218,1.732.431,2.6.655a1.481,1.481,0,0,1,1.342,1.706c.013,1.634,0,3.267,0,4.9v.795c.752,0,1.441-.026,2.126.011a2.065,2.065,0,0,1,.945.252,1.287,1.287,0,0,1,.144,2.071,5.721,5.721,0,0,1-.485.35H-42.257Zm20.069-.97c-.013-.208-.013-.382-.038-.554a13.032,13.032,0,0,1,.175-4.6,14.392,14.392,0,0,1,6.2-9.214,11.6,11.6,0,0,1,2.987-1.493,1.306,1.306,0,0,1,1.568.7,1.3,1.3,0,0,1-.45,1.656,3.729,3.729,0,0,1-.648.347,11.579,11.579,0,0,0-6.664,7.28,11.527,11.527,0,0,0-.328,5.865H3.726c.047-.863.141-1.687.129-2.509A11.438,11.438,0,0,0,.08-492.069a11.309,11.309,0,0,0-3.359-2.176,3.691,3.691,0,0,1-.706-.378,1.292,1.292,0,0,1-.4-1.617,1.249,1.249,0,0,1,1.491-.715,11.589,11.589,0,0,1,1.841.785,14.084,14.084,0,0,1,6.116,6.293,13.763,13.763,0,0,1,1.468,7.655c-.038.368-.045.738-.066,1.1H20.068v-4.914c-.209-.06-.379-.114-.552-.157-1.646-.409-3.29-.824-4.939-1.219a1.751,1.751,0,0,1-1.338-1.087q-1.272-3.133-2.584-6.25A1.686,1.686,0,0,1,10.8-496.4c.808-1.313,1.6-2.639,2.391-3.961.193-.322.379-.648.486-.831L9.92-504.959c-.113.066-.307.176-.5.29-1.437.864-2.877,1.722-4.307,2.6a1.642,1.642,0,0,1-1.59.168q-3.182-1.332-6.371-2.644a1.556,1.556,0,0,1-.986-1.176c-.124-.544-.267-1.083-.4-1.624-.335-1.338-.67-2.675-1.007-4.022h-5.252c-.473,1.88-.954,3.713-1.388,5.557a1.728,1.728,0,0,1-1.105,1.315q-3.1,1.266-6.187,2.563a1.69,1.69,0,0,1-1.656-.123c-1.16-.717-2.332-1.413-3.5-2.116-.477-.287-.957-.568-1.376-.817l-3.744,3.751c.934,1.552,1.888,3.167,2.876,4.763a1.846,1.846,0,0,1,.15,1.837q-1.284,3.019-2.514,6.061a1.792,1.792,0,0,1-1.349,1.167c-1.5.354-2.992.727-4.486,1.1-.359.089-.712.2-1.028.3v4.909Z" transform="translate(0 -163.414)" fill="#fff"/><path d="M-42.257-686.128c.435-.475.853-.966,1.308-1.421q6.95-6.964,13.91-13.917c1.2-1.2,1.73-1.195,2.948.023q7.266,7.265,14.53,14.532a5.655,5.655,0,0,1,.431.539L7.83-703.328c-.782-.779-1.607-1.6-2.43-2.419q-1.188-1.186-2.372-2.376a1.37,1.37,0,0,1-.439-1.57,1.289,1.289,0,0,1,1.163-.87c.178-.015.358-.006.537-.006q10.209,0,20.418,0a4.268,4.268,0,0,1,.736.031,1.317,1.317,0,0,1,1.064,1.151,5.014,5.014,0,0,1,.015.6q0,10.24,0,20.481c0,.067,0,.135,0,.2a1.343,1.343,0,0,1-.787,1.425,1.376,1.376,0,0,1-1.644-.392c-.8-.782-1.588-1.578-2.378-2.37-.821-.824-1.637-1.651-2.573-2.594a5.517,5.517,0,0,1-.469.635q-6.334,6.346-12.679,12.679a4.154,4.154,0,0,1-.715.6,1.294,1.294,0,0,1-1.6-.221,1.264,1.264,0,0,1-.217-1.546,4.206,4.206,0,0,1,.639-.771q6.311-6.321,12.632-12.631a6.411,6.411,0,0,1,.517-.429L9.78-701.179-7.039-684.371c.625.617,1.283,1.255,1.927,1.908a1.426,1.426,0,0,1,.491,1.379,1.3,1.3,0,0,1-1.97.866,3.939,3.939,0,0,1-.714-.6q-8.837-8.829-17.665-17.665c-.188-.188-.344-.407-.542-.644-.263.248-.443.409-.613.579q-6.7,6.693-13.4,13.388c-.142.142-.278.293-.432.422a1.337,1.337,0,0,1-2.124-.3c-.061-.092-.12-.186-.18-.279ZM7.391-707.877l16.4,16.392v-16.392Z" fill="#fff"/><path d="M-42.257-549.087c.417-.46.816-.939,1.255-1.378q8.541-8.552,17.093-17.094a6.816,6.816,0,0,1,.535-.508,1.345,1.345,0,0,1,1.879.048,1.39,1.39,0,0,1-.024,1.887c-.159.187-.343.353-.517.527q-.734.737-1.469,1.475a1.145,1.145,0,0,0-.1.17c.147.159.3.338.47.506,2.152,2.153,4.312,4.3,6.451,6.464a2.506,2.506,0,0,1,.614,1,1.162,1.162,0,0,1-.576,1.373,1.253,1.253,0,0,1-1.445-.034,4.459,4.459,0,0,1-.606-.526q-3.162-3.153-6.315-6.315c-.172-.172-.31-.378-.492-.6-.267.251-.447.412-.617.582q-6.7,6.692-13.393,13.386c-.127.127-.253.254-.381.378a1.363,1.363,0,0,1-2.213-.307,1.719,1.719,0,0,0-.145-.224Z" transform="translate(0 -118.237)" fill="#fff"/><path d="M210.064-512.616a1.3,1.3,0,0,1,1.3,1.334,1.356,1.356,0,0,1-1.313,1.343,1.426,1.426,0,0,1-1.363-1.391A1.374,1.374,0,0,1,210.064-512.616Z" transform="translate(-208.734 -164.659)" fill="#fff"/><path d="M155.639-417.533a1.319,1.319,0,0,1,1.336,1.368,1.349,1.349,0,0,1-1.34,1.31,1.365,1.365,0,0,1-1.376-1.348A1.331,1.331,0,0,1,155.639-417.533Z" transform="translate(-163.461 -243.749)" fill="#fff"/></g></svg>