<svg xmlns="http://www.w3.org/2000/svg" width="108" height="108" viewBox="0 0 108 108"><rect width="108" height="108" opacity="0"/><g transform="translate(4829.868 705.66)"><path d="M-4701.2-581.043c-1.1-9.283-5.759-16.521-13.4-21.9l-1.744,3.033c9.829,6.124,16.217,21.094,8.853,35.135a27.073,27.073,0,0,1-37.073,11.235,27.115,27.115,0,0,1-9.788-38.784,27.053,27.053,0,0,1,35.132-9.323l1.7-2.994a30.015,30.015,0,0,0-23.25-1.964,29.558,29.558,0,0,0-17.855,14.947,30.435,30.435,0,0,0,10.266,39.75,30.455,30.455,0,0,0,40.561-6.337A29.674,29.674,0,0,0-4701.2-581.043Z" transform="translate(-47.247 -72.157)" fill="#fff"/><path d="M-4482.187-684.2c-.141-.087-.285-.168-.428-.251q-4.132-2.386-8.265-4.768-4.742-2.725-9.491-5.443h-1a4.98,4.98,0,0,0-1.369,1.7q-4.424,7.694-8.88,15.373c-.146.255-.3.5-.475.786l-1.7,2.994c-.553.959-1.106,1.855-1.587,2.786a2.707,2.707,0,0,0-.32,1.247,1.506,1.506,0,0,0,1.171,1.442,1.572,1.572,0,0,0,1.762-.61,8.908,8.908,0,0,0,.571-.914c.43-.736.853-1.476,1.279-2.215l1.744-3.033c.458-.786.9-1.541,1.342-2.3.4.221.711.391,1.023.571q7.507,4.334,15.015,8.67a6.255,6.255,0,0,0,.654.358,1.625,1.625,0,0,0,2.008-.483,4.813,4.813,0,0,0,.452-.693q2.246-3.877,4.483-7.757c.915-1.58,1.842-3.151,2.74-4.74A1.754,1.754,0,0,0-4482.187-684.2Zm-8.778,12.479c-.626-.147-13.526-7.506-15.059-8.575.145-.578,5.058-9.211,5.914-10.38l15.069,8.7C-4487.046-678.5-4489.008-675.1-4490.965-671.719Z" transform="translate(-252.675)" fill="#fff"/><path d="M-4818.867-627.281c.11-.76.245-1.517.327-2.28a37.346,37.346,0,0,1,2.078-8.764,39.283,39.283,0,0,1,5.113-9.638c.194-.269.38-.544.58-.832-1.087-2.465-.911-4.8,1.059-6.716,1.88-1.834,4.132-2.058,6.589-.965.376-.26.786-.534,1.187-.821a38.746,38.746,0,0,1,12.189-5.86,40.14,40.14,0,0,1,6.17-1.213,40.115,40.115,0,0,1,6.548-.265,40.137,40.137,0,0,1,9.065,1.457,1.661,1.661,0,0,1,1.278,1.176,1.659,1.659,0,0,1-1.988,2.089c-.677-.129-1.342-.326-2.014-.482a39.154,39.154,0,0,0-5.9-.844,35.159,35.159,0,0,0-5.558.077,35.044,35.044,0,0,0-7.15,1.362,36.7,36.7,0,0,0-11.155,5.545c-.108.079-.2.177-.294.259a5.694,5.694,0,0,1-7.581,7.551c-.571.844-1.186,1.688-1.734,2.573a35.863,35.863,0,0,0-4.309,10.1,31.947,31.947,0,0,0-1.041,6.788c-.041,1.189-.152,2.383-.094,3.568a36.312,36.312,0,0,0,14.042,27.649,35.348,35.348,0,0,0,15.508,7.162,36.047,36.047,0,0,0,9.661.6,36.011,36.011,0,0,0,18.717-6.709,36.19,36.19,0,0,0,14.15-20.185,34.078,34.078,0,0,0,1.229-11.907,16.169,16.169,0,0,1-.062-1.908,1.6,1.6,0,0,1,2.058-1.548,1.754,1.754,0,0,1,1.259,1.671c.065.661.135,1.323.154,1.986a43.533,43.533,0,0,1-.162,6.14,39.315,39.315,0,0,1-7.481,19.42,39.588,39.588,0,0,1-23.521,15.5,38.851,38.851,0,0,1-10.877.948,39.31,39.31,0,0,1-20.626-6.964,39.962,39.962,0,0,1-13.373-15.47,38.069,38.069,0,0,1-3.536-11.258c-.146-.983-.231-1.975-.354-2.962a3.779,3.779,0,0,0-.147-.541Zm13.019-26.467a2.207,2.207,0,0,0-2.222,2.272,2.289,2.289,0,0,0,2.233,2.213,2.3,2.3,0,0,0,2.267-2.265A2.215,2.215,0,0,0-4805.849-653.748Z" transform="translate(0 -24.994)" fill="#fff"/><path d="M-4363.364-495.842a1.7,1.7,0,0,1-1.636,1.661,1.738,1.738,0,0,1-1.671-1.726,1.693,1.693,0,0,1,1.733-1.646A1.679,1.679,0,0,1-4363.364-495.842Z" transform="translate(-376.888 -164.28)" fill="#fff"/><path d="M-4680.445-423.5a9.212,9.212,0,0,1,9.257,9.219,9.256,9.256,0,0,1-9.3,9.279,9.225,9.225,0,0,1-9.214-9.275A9.174,9.174,0,0,1-4680.445-423.5Zm-5.871,9.238a5.793,5.793,0,0,0,5.887,5.888,5.772,5.772,0,0,0,5.864-5.92,5.872,5.872,0,0,0-5.854-5.856A5.9,5.9,0,0,0-4686.315-414.264Z" transform="translate(-107.658 -225.999)" fill="#fff"/><path d="M-4548.409-458.874a8.7,8.7,0,0,1-8.655-8.673,8.763,8.763,0,0,1,8.7-8.64,8.763,8.763,0,0,1,8.652,8.69A8.7,8.7,0,0,1-4548.409-458.874Zm5.308-8.637a5.216,5.216,0,0,0-5.315-5.311,5.252,5.252,0,0,0-5.264,5.288,5.271,5.271,0,0,0,5.241,5.312A5.235,5.235,0,0,0-4543.1-467.511Z" transform="translate(-218.203 -182.088)" fill="#fff"/><path d="M-4640.5-544.874a5.625,5.625,0,0,1-5.629-5.567,5.636,5.636,0,0,1,5.62-5.656,5.573,5.573,0,0,1,5.621,5.564A5.562,5.562,0,0,1-4640.5-544.874Zm-.028-3.36a2.245,2.245,0,0,0,2.29-2.236,2.265,2.265,0,0,0-2.251-2.284,2.315,2.315,0,0,0-2.309,2.245A2.286,2.286,0,0,0-4640.528-548.234Z" transform="translate(-143.97 -115.487)" fill="#fff"/><path d="M-4545.927-517.228a1.607,1.607,0,0,1-1.681,1.64,1.691,1.691,0,0,1-1.628-1.642,1.748,1.748,0,0,1,1.715-1.667A1.667,1.667,0,0,1-4545.927-517.228Z" transform="translate(-224.727 -146.491)" fill="#fff"/><path d="M-4707.176-468.371a1.616,1.616,0,0,1,1.576-1.688,1.709,1.709,0,0,1,1.734,1.65,1.732,1.732,0,0,1-1.654,1.657A1.647,1.647,0,0,1-4707.176-468.371Z" transform="translate(-93.09 -187.195)" fill="#fff"/><path d="M-4545.9-317.932a1.692,1.692,0,0,1-1.652,1.636,1.735,1.735,0,0,1-1.649-1.666,1.633,1.633,0,0,1,1.718-1.646A1.606,1.606,0,0,1-4545.9-317.932Z" transform="translate(-224.758 -312.592)" fill="#fff"/></g></svg>