<svg xmlns="http://www.w3.org/2000/svg" width="69.76" height="69.744" viewBox="0 0 69.76 69.744"><g transform="translate(722.07 -37.274)"><path d="M-637.721,38.515a1.136,1.136,0,0,0-1.2-1.238c-.1,0-.194,0-.291,0q-22.155,0-44.312,0c-.212,0-.421.021-.631.033v2.3h44.081V44.2h-55.71V39.579h9.2V37.3c-.184-.008-.326-.019-.466-.019q-4.868,0-9.735,0a3.217,3.217,0,0,0-.363.008,1.127,1.127,0,0,0-1,.992,5.619,5.619,0,0,0-.01.652q0,6.321,0,12.641v.819l-.006,32.778c0,.606.05,1.215,0,1.815a1.3,1.3,0,0,0,1.458,1.452q28.767-.032,57.535-.016c1.089,0,1.454-.38,1.458-1.5,0-.646,0-1.291,0-1.939V39.461C-637.719,39.146-637.711,38.832-637.721,38.515Zm-2.358,47.53h-55.728V46.608h55.658C-640,47.13-639.926,84.083-640.079,86.045Z" transform="translate(-19.256)" fill="#fff"/><path d="M-425.267,117.8a2.7,2.7,0,0,0-2.747-2.735c-.619.043-1.244.008-1.918.008v32.591h2.285a57.5,57.5,0,0,1-.122,8.081H-440.34v2.3c.144.012.237.025.332.025,4.043,0,8.087-.012,12.132.01a2.717,2.717,0,0,0,2.607-2.727Q-425.3,136.579-425.267,117.8Zm-4.614-.365h2.209c.027.291.066.545.068.8.006,1.429,0,2.857,0,4.286v22.719h-2.279" transform="translate(-227.043 -62.689)" fill="#fff"/><path d="M-669.815,158.124V155.81q-24.813,0-49.518,0a.824.824,0,0,1-.21-.05.191.191,0,0,1-.058-.039c-.019-.016-.035-.035-.1-.1v-7.9h2.234a1.168,1.168,0,0,1,.043.186l.006-32.778h-2.11a2.449,2.449,0,0,0-1.809.792,2.689,2.689,0,0,0-.736,1.98q.014,18.742.006,37.485c0,.072,0,.146,0,.217a2.529,2.529,0,0,0,1.718,2.368,4,4,0,0,0,1.209.155q11.443.012,22.884.006h.842a4.569,4.569,0,0,1-2.863,4.771c-.45.173-.918.3-1.369.476a3.784,3.784,0,0,0-2.529,2.855,12.019,12.019,0,0,0-.126,2.308,1.118,1.118,0,0,0,1.227,1.213c.144,0,.289,0,.435,0h26.879a5.616,5.616,0,0,0,.652-.01,1.047,1.047,0,0,0,.986-.914,11.682,11.682,0,0,0-.087-2.527,3.783,3.783,0,0,0-2.615-2.949c-.476-.175-.959-.33-1.429-.516a4.537,4.537,0,0,1-2.729-4.717ZM-719.7,117.535a13.545,13.545,0,0,1,2.258-.093v27.865H-719.7Zm42.843,47.592c.382.151.775.272,1.163.406a1.814,1.814,0,0,1,1.283,1.881h-25.475a1.539,1.539,0,0,1,.976-1.79c.377-.161.778-.262,1.161-.406a6.962,6.962,0,0,0,4.694-5.684,11.779,11.779,0,0,0,.07-1.349h11.536c.066.58.087,1.182.208,1.763A6.769,6.769,0,0,0-676.855,165.127Z" transform="translate(0 -62.744)" fill="#fff"/><path d="M-673.985,57.679V55.452h2.258v2.227Z" transform="translate(-38.751 -14.65)" fill="#fff"/><path d="M-649.933,55.419h2.237v2.232h-2.237Z" transform="translate(-58.134 -14.623)" fill="#fff"/><path d="M-623.8,57.751h-2.144V55.494h2.181A5.813,5.813,0,0,1-623.8,57.751Z" transform="translate(-77.465 -14.684)" fill="#fff"/><path d="M-422.469,57.734V55.5h2.247v2.234Z" transform="translate(-241.445 -14.688)" fill="#fff"/><path d="M-606.276,111.1l-.483-2.33h-.782q-10.28,0-20.559,0a3.99,3.99,0,0,1-3.041-1.3,3.825,3.825,0,0,1-1.089-2.688c0-1.211-.01-2.422,0-3.632a4.017,4.017,0,0,1,4.031-4q13.4-.011,26.807,0a4.02,4.02,0,0,1,4.024,4.01c.01.968,0,1.935,0,2.91a5.988,5.988,0,0,1,1.977,6.828l4.446,2.684-1.2,2-4.544-2.713-.68.58v.783q0,8.064,0,16.128c0,.194.011.389-.006.581a1.124,1.124,0,0,1-1.082,1.065c-.193.016-.387.005-.581.005h-31.529c-.121,0-.242,0-.363,0a1.15,1.15,0,0,1-1.3-1.287c-.01-.8,0-1.6,0-2.4q0-7.773,0-15.547a6.492,6.492,0,0,1,.008-.653,1.113,1.113,0,0,1,1.041-1.026c.216-.02.435-.007.653-.007h24.252Zm6.568,3.4a6.025,6.025,0,0,1-4.616-1.044h-25.547v16.2h30.162Zm-6.518-8.048a6,6,0,0,1,6.543-3.427c0-.453,0-.861,0-1.269a5.76,5.76,0,0,0-.016-.653,1.782,1.782,0,0,0-1.676-1.622c-.192-.018-.387-.009-.581-.009h-25.715a5.408,5.408,0,0,0-.581.013,1.727,1.727,0,0,0-1.637,1.651c-.051,1.208-.049,2.422,0,3.631a1.729,1.729,0,0,0,1.619,1.669,5.626,5.626,0,0,0,.653.015h21.393Zm5.4-1.163a3.538,3.538,0,0,0-3.5,3.446,3.5,3.5,0,0,0,3.5,3.511,3.434,3.434,0,0,0,3.451-3.475A3.463,3.463,0,0,0-600.829,105.292Z" transform="translate(-72.397 -48.256)" fill="#fff"/><path d="M-608.1,243.308v-2.232h13.879v2.232Z" transform="translate(-91.847 -164.242)" fill="#fff"/><path d="M-567.9,217.178v2.236H-578.31c0-.36-.009-.735-.011-1.11,0-.36,0-.719,0-1.127Z" transform="translate(-115.845 -144.983)" fill="#fff"/><path d="M-566.174,195.4v-2.235h8.042V195.4Z" transform="translate(-125.635 -125.629)" fill="#fff"/><path d="M-608.094,195.4v-2.234h5.717V195.4Z" transform="translate(-91.852 -125.63)" fill="#fff"/><path d="M-608.1,219.354v-2.232h3.393v2.232Z" transform="translate(-91.848 -144.938)" fill="#fff"/><path d="M-605.972,115.4v4.553h-2.281c0-.739-.008-1.5-.01-2.261s0-1.493,0-2.292Z" transform="translate(-91.716 -62.96)" fill="#fff"/></g></svg>