<svg xmlns="http://www.w3.org/2000/svg" width="67.396" height="81.228" viewBox="0 0 67.396 81.228"><g transform="translate(0 0)"><path d="M59,19.28c0-.1.007-.211,0-.316a1.68,1.68,0,0,0-1.705-1.671c-.766-.019-1.532,0-2.3,0H53.951l-.009,3.382c.482-.247.707-.263,1.751-.129v.773c0,3.384,0,6.768.007,10.151a10.457,10.457,0,0,0,.133,1.237c.088.712.637,1.009,1.208,1.194a1.41,1.41,0,0,0,1.369-.383A1.886,1.886,0,0,0,59,31.968q-.013-6.344,0-12.687m8.145,52.095a1.471,1.471,0,0,0-1.272-.649c-1.743.016-3.489,0-5.234,0H59V45.489a2.174,2.174,0,0,0-.146-1A1.611,1.611,0,0,0,57.5,43.462a1.456,1.456,0,0,0-1.532.859,2.889,2.889,0,0,0-.275,1.358q.007,12.095,0,24.187c0,.281-.017.562-.028.87h-32.9a1.816,1.816,0,0,0-1.089,1.045c-.1.861-.169,1.51-.248,2.155a7.072,7.072,0,0,1-.689,2.287,9.144,9.144,0,0,1-4.36,4.345,8.512,8.512,0,0,1-5.755.77,8.665,8.665,0,0,1-4.212-2.065,9.079,9.079,0,0,1-3.22-7.022q-.03-25.574-.01-51.147c0-.2.018-.407.028-.6H4.927L4.9,17.273H1.257c-.322.2-.61.375-.884.542-.129.252-.246.483-.371.726v.307q0,27,0,54a9.944,9.944,0,0,0,.482,2.9,12.113,12.113,0,0,0,4.507,6.5,12.473,12.473,0,0,0,7.489,2.454q21.095-.041,42.188-.016a13.4,13.4,0,0,0,2.27-.129,12.344,12.344,0,0,0,3.031-.9A12.093,12.093,0,0,0,64.66,80.1,12.816,12.816,0,0,0,67.3,74.043a15.09,15.09,0,0,0,.094-2.034,1.149,1.149,0,0,0-.252-.634M62.659,77.4a8.966,8.966,0,0,1-5.51,3.827,10.62,10.62,0,0,1-2.391.305q-16.688,0-33.378,0h-.674a12.919,12.919,0,0,0,4.049-7.578H64.069a9.208,9.208,0,0,1-1.41,3.448m-45.5-56.888H41.872l-.007-4.035v.781H17.173a1.036,1.036,0,0,1-.05-.259l.041,4.6Z" transform="translate(0 -3.485)" fill="#555"/><path d="M18.436,13.508v0a2.342,2.342,0,0,1,0-.341c.006-.122.013-.247.009-.371-.013-.343,0-.687,0-1.03A1.722,1.722,0,0,0,16.667,10c-.868,0-1.735,0-2.674,0v-.65c0-2.351-.038-4.7.017-7.054A2.389,2.389,0,0,0,12.892,0H11.783a2.467,2.467,0,0,0-1.108,2.314c.035,2.352.011,4.7.009,7.056,0,.2-.019.4-.03.628-.768,0-1.481.037-2.19-.008a1.93,1.93,0,0,0-2.253,1.642v2.155l.03,3.236c0,.588.02,1.143,0,1.693a1.994,1.994,0,0,0,1.133,2.062h9.888a1.958,1.958,0,0,0,1.22-1.464v-1.2ZM9.567,17.579v-4.3a40.574,40.574,0,0,1,5.526-.046,2.443,2.443,0,0,1,.037.291c0,1.34,0,2.681,0,4.053Z" transform="translate(-1.314 0)" fill="#926cdc"/><path d="M65.185,11.207a1.971,1.971,0,0,0-1.43-1.233H60.729v-.8c0-2.511-.011-5.022.009-7.533A1.538,1.538,0,0,0,59.9.159c-.055-.032-.086-.1-.129-.159H58.662a2.16,2.16,0,0,0-1.124,1.552V10h-2.3a2.1,2.1,0,0,0-1.752.527c-.117.222-.24.45-.391.733v1.727l.006,4.035h0c0,.371,0,.731,0,1.087s0,.723,0,1.083a1.475,1.475,0,0,0,1.619,1.594q4.438.009,8.881,0a1.467,1.467,0,0,0,1.563-1.572c.011-.684,0-1.367,0-2.026l.009-3.382Zm-3.2,6.3a42,42,0,0,1-5.7.054V13.19h5.609a.539.539,0,0,1,.064.064.14.14,0,0,1,.027.068q0,2.1,0,4.188" transform="translate(-11.234 0)" fill="#926cdc"/><path d="M14.7,51.968c.884-1.481,1.758-2.956,2.644-4.423.994-1.646,2-3.286,3-4.928q1.478-2.43,2.952-4.862c.256-.422.5-.854.754-1.276a1.712,1.712,0,0,1,.9-.821,1.653,1.653,0,0,1,1.928.587c.368.565.693,1.157,1.058,1.773a8.789,8.789,0,0,0,1.027-1.6c1.441-2.375,2.855-4.768,4.3-7.139a1.7,1.7,0,0,1,2.048-.833,1.977,1.977,0,0,1,.9.885c.823,1.385,1.675,2.754,2.512,4.131q1.722,2.831,3.437,5.667c.859,1.423,1.7,2.856,2.563,4.279.994,1.646,2,3.285,3,4.931.726,1.2,1.439,2.41,2.146,3.6a1.7,1.7,0,0,1-.509,1.663,1.879,1.879,0,0,1-1.049.455,3.3,3.3,0,0,1-.475,0q-15.544,0-31.087,0A3.043,3.043,0,0,1,15.976,54c-.926-.247-1.293-.829-1.273-2.029M34.739,33.093l-4.873,8.06c.6,1.089,1.257,2.142,1.925,3.193.683,1.072,1.275,2.2,1.95,3.279.659,1.051,1.21,2.173,1.942,3.119,3.226,0,6.371,0,9.516,0,.02,0,.042-.027.058-.046a.912.912,0,0,0,.057-.1L34.739,33.093M19.21,50.718H31.849c-2.116-3.505-4.2-6.961-6.32-10.469L19.21,50.718" transform="translate(-3.11 -6.004)" fill="#91ddea"/><path d="M48.781,66.007a1.623,1.623,0,0,1-.226,3.155H16.045a1.76,1.76,0,0,1-1.349-1.3v-.579a1.882,1.882,0,0,1,1.142-1.279Z" transform="translate(-3.109 -13.965)" fill="#91ddea"/><path d="M22.47,76.41a1.925,1.925,0,0,1-1.125-1.331v-.536a1.721,1.721,0,0,1,1.362-1.307h.847q7.215,0,14.431,0a1.549,1.549,0,0,1,1.621,1.187A1.615,1.615,0,0,1,38.364,76.4a3.153,3.153,0,0,1-.4.009l-15.066,0H22.47" transform="translate(-4.516 -15.494)" fill="#91ddea"/><path d="M50.638,73.248a1.91,1.91,0,0,1,1.216,1.224v.692a2.066,2.066,0,0,1-1.082,1.213,1.667,1.667,0,0,1-2.066-1.066c-.068-1.563.413-2.087,1.932-2.064" transform="translate(-10.303 -15.497)" fill="#926cdc"/><path d="M72.743,42.657l.687.361c.683,1.015.69,1.562.106,2.235a1.579,1.579,0,0,1-1.974.393,1.653,1.653,0,0,1-.736-1.9,2.294,2.294,0,0,1,.583-.811c.37-.374.866-.289,1.335-.277" transform="translate(-14.969 -9.021)" fill="#926cdc"/></g></svg>