<svg xmlns="http://www.w3.org/2000/svg" width="83.584" height="83.385" viewBox="0 0 83.584 83.385"><g transform="translate(5694.088 -2004.511)"><path d="M-5488.443,2039.845a4.375,4.375,0,0,1-1.693,2.66,3.154,3.154,0,0,1-1.927.727c-1.954-.009-3.906.008-5.859-.008a3.256,3.256,0,0,1-2.217-.927c-.114-.1-.211-.23-.331-.326a3.156,3.156,0,0,1-1.105-2.133,4.23,4.23,0,0,1-.476.225,10.552,10.552,0,0,1-1.817.54,3.544,3.544,0,0,1-2.321-.649,6.9,6.9,0,0,1-1.11-.915c-1.019-1-2.013-2.02-3.031-3.018a4.3,4.3,0,0,1-1.048-1.52,2.6,2.6,0,0,1-.2-2.366c-.11-.644.434-1.065.563-1.65a4.825,4.825,0,0,1-2.368-1.43,3.512,3.512,0,0,1-.987-2.383c0-1.86.006-3.72,0-5.58a3.33,3.33,0,0,1,.987-2.38,3.789,3.789,0,0,1,2.4-1.465,2.355,2.355,0,0,0-.224-.467,3.593,3.593,0,0,1-.528-1.823,3.327,3.327,0,0,1,.628-2.234,6.715,6.715,0,0,1,.915-1.109c1.063-1.086,2.118-2.181,3.227-3.218a4.2,4.2,0,0,1,3.1-1.259,4.257,4.257,0,0,1,1.965.634c.074.043.151.081.27.144a7.413,7.413,0,0,1,.649-1.507,4.765,4.765,0,0,1,2.513-1.859,2.072,2.072,0,0,1,.641-.027c1.827,0,3.658.021,5.486-.012a3.3,3.3,0,0,1,1.764.463,3.9,3.9,0,0,1,2.133,2.954,3.42,3.42,0,0,0,.508-.246,3.906,3.906,0,0,1,1.821-.529,3.42,3.42,0,0,1,2.241.615,6.687,6.687,0,0,1,1.175.978c1.064,1.04,2.131,2.079,3.154,3.159a4.2,4.2,0,0,1,1.271,3.184,4.354,4.354,0,0,1-.774,2.128,7.1,7.1,0,0,0,.7.328,4.2,4.2,0,0,1,2.53,2.536,3.034,3.034,0,0,1,.167,1.045c0,1.86.014,3.721,0,5.58a3.292,3.292,0,0,1-.942,2.3c-.085.09-.184.169-.261.265a2.954,2.954,0,0,1-2.206,1.137,10.424,10.424,0,0,1,.722,2,1.969,1.969,0,0,1,.074.887,4.711,4.711,0,0,1-1.2,2.474c-1.182,1.228-2.379,2.444-3.619,3.614a4.062,4.062,0,0,1-3.108,1.221,3.77,3.77,0,0,1-1.954-.659A1.285,1.285,0,0,0-5488.443,2039.845Zm7-7.5-.4-.395c-.657-.658-1.336-1.294-1.966-1.979a1.287,1.287,0,0,1,0-1.966,1.708,1.708,0,0,1,1.338-.585c1.053-.02,2.107-.006,3.145-.006l.667-.646v-5.741c-.231-.244-.443-.469-.645-.684-.7,0-1.383,0-2.066,0a4.253,4.253,0,0,1-2.165-.317c.046.046-.015-.026-.087-.085a1.44,1.44,0,0,1,0-2.374c.757-.685,1.457-1.433,2.165-2.138v-1.085l-4.04-4.04h-1.083c-.841.842-1.67,1.679-2.512,2.5a1.963,1.963,0,0,1-.473.251c-.782.2-1.279-.28-1.721-.791-.42-1.378-.106-2.764-.234-4.056l-.617-.7h-5.706c-.287.256-.515.461-.731.653,0,.925-.02,1.825.006,2.723a2,2,0,0,1-1.292,2.186c-.841.009-.859,0-1.5-.635-.722-.72-1.442-1.442-2.134-2.134h-1.042l-4.07,4.07v1.053c.718.719,1.408,1.432,2.125,2.117a1.681,1.681,0,0,1,.612,1.689l-.724.868c-1.456.463-2.844.111-4.054.253l-.75.644v5.651l.691.731c1.338.158,2.7-.191,4.064.257a1.754,1.754,0,0,1,.768,1.854c-.2.228-.463.554-.753.852-.668.684-1.35,1.354-1.977,1.98v1.157l3.973,3.973h1.133c.7-.7,1.436-1.415,2.142-2.151a1.665,1.665,0,0,1,1.685-.591l.879.746c.421,1.45.095,2.835.25,4.178l.612.612h5.785l.64-.689c0-1-.01-2.057,0-3.11a1.809,1.809,0,0,1,.576-1.345,1.518,1.518,0,0,1,1.384-.415,6.093,6.093,0,0,1,1.51,1.32c.493.47.966.962,1.43,1.424h1.167c1.348-1.346,2.663-2.66,3.978-3.975Q-5481.437,2032.9-5481.438,2032.342Z" transform="translate(-135.034 0)" fill="#926cdc"/><path d="M-5494.585,2166.149a5.074,5.074,0,0,1,2.788,1.043,26.3,26.3,0,0,1,2.84,2.742,2.82,2.82,0,0,1,.843,1.963c.492.724-.1,1.447,0,2.171-.282.472-.557.949-.85,1.414a2.1,2.1,0,0,1-.325.332q-14.367,14.367-28.739,28.729a5.907,5.907,0,0,1-1.214,1.1,7.787,7.787,0,0,1-1.369.512,38.637,38.637,0,0,0-4.223,1.485c-.728-.022-1.3.462-1.981.612-.666.147-1.28.515-1.942.687a1.574,1.574,0,0,1-1.706-.532c-.4-.484-.7-.977-.266-1.6.89-3.094,2.044-6.1,2.985-9.179a2.483,2.483,0,0,1,.389-.674,3.327,3.327,0,0,1,.39-.4q14.433-14.433,28.862-28.869a6.468,6.468,0,0,1,1.277-.961A4.545,4.545,0,0,1-5494.585,2166.149Zm-5.35,7.656q-11.2,11.2-22.365,22.365a5.484,5.484,0,0,0-.518.532,1.317,1.317,0,0,0-.124.427c1.215,1.214,2.414,2.421,3.625,3.615a2.067,2.067,0,0,0,.469.276l23.064-23.064Zm6.331,2.043c.635-.635,1.235-1.26,1.864-1.856a1.7,1.7,0,0,0,.6-1.741c-.383-.406-.856-.915-1.338-1.415s-1-1.013-1.4-1.419l-.865-.275a3.626,3.626,0,0,0-1.552,1.007c-.481.522-1,1-1.508,1.506Zm-33.469,29.3c2.039-.765,4-1.277,5.893-2.053a31.153,31.153,0,0,0-3.913-3.834C-5525.736,2201.174-5526.376,2203.073-5527.073,2205.147Z" transform="translate(-122.587 -121.454)" fill="#91ddea"/><path d="M-5608.856,2184.134c-3.007,0-6.015.012-9.022-.008a4.083,4.083,0,0,1-2.595-.935,5.25,5.25,0,0,1-1.271-1.522,3.35,3.35,0,0,1-.44-1.675c0-1.147-.023-2.295.006-3.441a4.184,4.184,0,0,1,.922-2.6,6.05,6.05,0,0,1,1.517-1.281,6.4,6.4,0,0,1,1.674-.445c6.17,0,12.34-.011,18.51.011a3.875,3.875,0,0,1,2.421.9,4.93,4.93,0,0,1,1.329,1.593,3.419,3.419,0,0,1,.418,1.591c0,1.24.044,2.482-.017,3.72a3.886,3.886,0,0,1-.884,2.333,4.982,4.982,0,0,1-1.514,1.281,3.888,3.888,0,0,1-1.845.484Q-5604.252,2184.129-5608.856,2184.134Zm-9.8-3.326a3.215,3.215,0,0,0,1.872.348q7.953,0,15.908,0c.747,0,1.5.07,1.923-.306a2.677,2.677,0,0,0,.59-2.139c0-.773,0-1.545,0-2.224l-.393-.764a2.65,2.65,0,0,0-1.981-.527q-7.955.009-15.908,0a2.81,2.81,0,0,0-2.175.534l-.384.757c0,.677,0,1.45,0,2.224A2.648,2.648,0,0,0-5618.658,2180.808Z" transform="translate(-54.021 -126.017)" fill="#91ddea"/><path d="M-5680.624,2052.452c3.007,0,6.015-.014,9.022.008a4.083,4.083,0,0,1,2.6.921,6.039,6.039,0,0,1,1.281,1.517,6.36,6.36,0,0,1,.445,1.675c0,1.178.027,2.357-.009,3.534a4.118,4.118,0,0,1-.9,2.513,5.879,5.879,0,0,1-1.517,1.282,6.979,6.979,0,0,1-1.67.459c-6.2,0-12.4.014-18.6-.015a3.717,3.717,0,0,1-2.333-.884,5.212,5.212,0,0,1-1.376-1.661,3.376,3.376,0,0,1-.38-1.513c-.018-1.24-.045-2.481.008-3.719a3.856,3.856,0,0,1,.876-2.336,5.16,5.16,0,0,1,1.507-1.29,3.757,3.757,0,0,1,1.844-.489Q-5685.229,2052.449-5680.624,2052.452Zm-9.92,8.583a3.2,3.2,0,0,0,1.869.35q7.956,0,15.909,0a2.65,2.65,0,0,0,2.067-.488c.589-.558.437-1.273.445-1.955.009-.773,0-1.546,0-2.227l-.395-.765a2.653,2.653,0,0,0-1.978-.525q-7.955.009-15.909,0a2.682,2.682,0,0,0-2.192.563l-.368.728c0,.676,0,1.448,0,2.221A2.647,2.647,0,0,0-5690.544,2061.035Z" transform="translate(0 -36.02)" fill="#555"/><path d="M-5680.7,2303.9c-3.008,0-6.015.015-9.022-.008a4.079,4.079,0,0,1-2.6-.921,6.165,6.165,0,0,1-1.281-1.517,6.208,6.208,0,0,1-.443-1.675c0-1.178-.029-2.358.009-3.535a4.134,4.134,0,0,1,.906-2.514,5.9,5.9,0,0,1,1.517-1.281,7.034,7.034,0,0,1,1.669-.458c6.2,0,12.4-.014,18.6.016a3.7,3.7,0,0,1,2.332.885,5.244,5.244,0,0,1,1.375,1.662,3.374,3.374,0,0,1,.38,1.513c.018,1.24.045,2.482-.008,3.72a3.858,3.858,0,0,1-.877,2.336,5.108,5.108,0,0,1-1.508,1.289,3.759,3.759,0,0,1-1.843.489Zm10.016-8.43c-.566-.652-1.284-.5-1.965-.5q-7.955-.007-15.908,0c-.748,0-1.505-.068-1.921.3a2.676,2.676,0,0,0-.593,2.142c0,.773,0,1.546,0,2.224l.395.767a2.654,2.654,0,0,0,1.98.524q7.955-.009,15.909,0a2.829,2.829,0,0,0,2.17-.53l.388-.762c0-.678,0-1.451,0-2.224A2.454,2.454,0,0,0-5670.686,2295.467Z" transform="translate(-0.021 -216.007)" fill="#555"/><path d="M-5626.9,2123.183c-.63.987-.727,1.036-1.882,1.008a2.97,2.97,0,0,1-.389-.174,1.4,1.4,0,0,1-.707-1.256c.007-.217-.007-.434,0-.651a2.58,2.58,0,0,0-.519-1.975l-.769-.4c-3.535,0-7.161.011-10.785-.007a3.91,3.91,0,0,1-2.59-.944,5.907,5.907,0,0,1-1.385-1.742,3.214,3.214,0,0,1-.209-.844,7.678,7.678,0,0,1-.059-2.912c.05-.453.466-.807,1.2-1a1.593,1.593,0,0,1,1.264.383,1.842,1.842,0,0,1,.457,1.581c-.014.433,0,.867,0,1.231l.381.751a2.658,2.658,0,0,0,2.157.527q4.789,0,9.579,0a4.85,4.85,0,0,1,1.916.539,4.425,4.425,0,0,1,2.068,2.275,3.826,3.826,0,0,1,.263,1.281C-5626.875,2121.631-5626.9,2122.408-5626.9,2123.183Z" transform="translate(-35.904 -80.978)" fill="#555"/><path d="M-5642.674,2239.849c-.771,1.025-.406,2.09-.522,3.091a1.569,1.569,0,0,1-2.961-.032c0-.74-.042-1.515.01-2.284a4,4,0,0,1,.877-2.337,5.2,5.2,0,0,1,1.506-1.291,3.731,3.731,0,0,1,1.843-.489q4.882-.007,9.764,0a2.643,2.643,0,0,0,1.981-.527l.394-.764c0-.46.012-1.017,0-1.573a1.364,1.364,0,0,1,.894-1.478c.053-.02.089-.085.133-.128a1.607,1.607,0,0,1,1.961,1.978c-.044.4.014.807-.011,1.208a4.272,4.272,0,0,1-.909,2.514,5.274,5.274,0,0,1-1.291,1.161,3.675,3.675,0,0,1-1.986.584q-4.884-.005-9.766,0A3.279,3.279,0,0,0-5642.674,2239.849Z" transform="translate(-36.002 -170.945)" fill="#555"/><path d="M-5574.252,2071.51a2.838,2.838,0,0,1,.278-.528,1.471,1.471,0,0,1,1.157-.573q4.511.016,9.022,0a1.5,1.5,0,0,1,1.432,1.064c.035,1.183-.021,1.293-1.007,1.916q-4.593,0-9.2,0a1.471,1.471,0,0,1-1.683-1.69C-5574.253,2071.61-5574.252,2071.518-5574.252,2071.51Z" transform="translate(-90.045 -49.516)" fill="#555"/><path d="M-5568.267,2304.964c.17-.24.311-.469.481-.668a1.172,1.172,0,0,1,.963-.367c1.395.008,2.791.036,4.185-.009a1.64,1.64,0,0,1,1.808,1.121,2,2,0,0,1-.17,1.123,1.374,1.374,0,0,1-1.22.745c-1.519,0-3.039,0-4.557,0a1.419,1.419,0,0,1-1.489-1.511C-5568.268,2305.245-5568.267,2305.092-5568.267,2304.964Z" transform="translate(-94.541 -224.974)" fill="#555"/><path d="M-5456.683,2068.832a11.432,11.432,0,0,1-1.636-.147,7.89,7.89,0,0,1-1.258-.54,5.768,5.768,0,0,1-1.277-.744,6.845,6.845,0,0,1-2.365-3.473,3,3,0,0,1-.125-.691c-.042-.258.116-.557-.173-.771-.045-.034-.041-.188-.008-.265.281-.666.049-1.43.374-2.073a9.471,9.471,0,0,1,1.642-2.668,10.068,10.068,0,0,1,3.084-1.758c.154-.071.364-.007.546-.028a1.474,1.474,0,0,0,.783-.145c.168-.112.544.136.828.139a6.323,6.323,0,0,1,3.531,1.365,7.35,7.35,0,0,1,2.186,3,4.266,4.266,0,0,1,.233,1.294c.042.259-.108.55.17.773a.354.354,0,0,1,.007.347.719.719,0,0,0-.165.768,1.891,1.891,0,0,1-.238,1.115,10.207,10.207,0,0,1-1.483,2.452,3.8,3.8,0,0,1-1.266.98,6.408,6.408,0,0,1-1.807.8c-.138.019-.266.12-.4.139C-5455.942,2068.758-5456.383,2068.8-5456.683,2068.832Zm-.164-3.108a3.41,3.41,0,0,0,3.569-3.449,3.568,3.568,0,0,0-3.49-3.642,3.484,3.484,0,0,0-3.619,3.515A3.5,3.5,0,0,0-5456.846,2065.724Z" transform="translate(-173.225 -38.312)" fill="#926cdc"/></g></svg>