<svg xmlns="http://www.w3.org/2000/svg" width="76.302" height="84.195" viewBox="0 0 76.302 84.195"><g transform="translate(5051.06 -2161.618)"><path d="M-4953.743,2483.823a4.56,4.56,0,0,0-3.377-1.336,1.293,1.293,0,0,1-.051-.283c.088-1.226.182-2.45.272-3.676.012-.163.018-.328.027-.493.123-2.292.243-4.585.375-6.877.1-1.719.211-3.435.317-5.153.056-.9.109-1.8.168-2.7.008-.127.044-.253.083-.466l.237-3.124c0-.814-.011-1.554,0-2.293a3.723,3.723,0,0,0-2.441-3.378,5.165,5.165,0,0,0-1.862-.226h-36.237q-7.438,0-14.879,0a11.143,11.143,0,0,0-1.15.04,3.573,3.573,0,0,0-2.509,1.379,3.8,3.8,0,0,0-.817,2.6c.02.626,0,1.254,0,1.916l.224,3.061a3.258,3.258,0,0,1,.1.414c.072,1.283.132,2.567.211,3.85.086,1.391.194,2.78.287,4.17q.1,1.473.179,2.948c.074,1.364.125,2.731.207,4.1.073,1.173.182,2.343.267,3.514.015.212,0,.427,0,.666-.386.054-.731.114-1.079.15a3.588,3.588,0,0,0-3.19,4.091c.025.19.031.382.048.606a3,3,0,0,0,2.212,2.554h60.928a3,3,0,0,0,2.2-2.478h0a.25.25,0,0,0,0-.026.014.014,0,0,1,0-.009A4.026,4.026,0,0,0-4953.743,2483.823Zm-2.333,3.45a2.123,2.123,0,0,1-.554.13,5.124,5.124,0,0,1-.575,0h-56.889a4.989,4.989,0,0,1-.738-.02,1.166,1.166,0,0,1-1.069-1.231,1.072,1.072,0,0,1,1.2-1.067c2.191-.015,4.384,0,6.575-.013a3.585,3.585,0,0,0,1.044-.148,1.09,1.09,0,0,0,.75-1.146,1.1,1.1,0,0,0-.8-1.119,3.683,3.683,0,0,0-.967-.135c-.9-.018-1.809-.007-2.714-.007h-.741c-.069-.8-.15-1.526-.2-2.257-.079-1.283-.125-2.569-.206-3.852-.081-1.31-.189-2.618-.279-3.926q-.1-1.433-.176-2.867c-.074-1.339-.125-2.679-.208-4.016-.077-1.255-.194-2.508-.271-3.761-.084-1.366-.168-2.731-.206-4.1a1.278,1.278,0,0,1,1.41-1.432c.22-.006.438,0,.657,0h50.807a8.675,8.675,0,0,1,.9.016,1.245,1.245,0,0,1,1.146,1.191,12.447,12.447,0,0,1-.028,1.4q-.141,2.375-.3,4.748c-.147,2.183-.3,4.364-.452,6.546q-.093,1.391-.171,2.784c-.069,1.284-.118,2.568-.2,3.852-.112,1.854-.244,3.705-.374,5.653-.286.008-.577.025-.865.025h-16.113q-12.166,0-24.334,0a5.294,5.294,0,0,0-1.216.13,1.057,1.057,0,0,0-.844,1.073,1.121,1.121,0,0,0,.773,1.212,3.092,3.092,0,0,0,.718.137c.217.021.438,0,.657,0h43.653c.273,0,.549-.011.822.008a1.076,1.076,0,0,1,1.074.939A1.1,1.1,0,0,1-4956.076,2487.272Z" transform="translate(-27.273 -244.059)" fill="#91ddea"/><path d="M-5048.53,2515.3a1.8,1.8,0,0,0,1.4,2.158,3.082,3.082,0,0,0,1.527-.042,3,3,0,0,0,2.213,2.554h-4.373a5.183,5.183,0,0,0-.549-.285,4.272,4.272,0,0,1-2.686-4.824c.457-2.825.959-5.643,1.448-8.463.42-2.417.839-4.836,1.28-7.248a26.241,26.241,0,0,1,.645-2.951,11.4,11.4,0,0,1,4.407-6.054c.131-.094.25-.206.357-.293l.224,3.061a9.4,9.4,0,0,0-2.995,5.552c-.305,1.689-.564,3.387-.857,5.08-.3,1.743-.631,3.484-.934,5.229C-5047.8,2510.945-5048.152,2513.123-5048.53,2515.3Z" transform="translate(0 -274.155)" fill="#555"/><path d="M-4633.87,2519.615c-.061.015-.105.1-.159.153h-4.417a3,3,0,0,0,2.2-2.478,12.254,12.254,0,0,0,1.415-.01,1.765,1.765,0,0,0,1.55-2.109c-.423-2.5-.833-5-1.26-7.495q-.8-4.713-1.626-9.421a10.169,10.169,0,0,0-2.049-4.582,4.161,4.161,0,0,0-.979-.941l.237-3.124c.387.323.829.682,1.262,1.053a11.415,11.415,0,0,1,3.792,6.272c.353,1.539.577,3.107.845,4.666.242,1.4.458,2.8.7,4.195.25,1.452.523,2.9.771,4.35.244,1.423.38,2.872.718,4.272A4.341,4.341,0,0,1-4633.87,2519.615Z" transform="translate(-344.013 -273.955)" fill="#555"/><path d="M-4909.82,2182.72a4.2,4.2,0,0,0-1.837-3.486c-.2-.143-.4-.272-.634-.428,0-.852.013-1.7-.009-2.545a2.383,2.383,0,0,0-.163-.875,1.181,1.181,0,0,0-1.964-.384,1.479,1.479,0,0,0-.353,1.216q.018,3.329.03,6.658c0,.24,0,.481,0,.771-.223.012-.383.033-.539.025-.928-.048-1.857-.078-2.781-.163-1.087-.1-2.181-.191-3.249-.4a31.52,31.52,0,0,1-6.871-2.087,22.739,22.739,0,0,1-8.075-5.776c-.25-.288-.47-.606-.731-.885a1.621,1.621,0,0,0-2.753.486,4.353,4.353,0,0,0-.15.465c-.155.522-.278,1.056-.471,1.563a8.264,8.264,0,0,1-2.115,3.267,7.327,7.327,0,0,1-3.784,1.821,5.161,5.161,0,0,1-3.008-.208c0-1.415,0-2.809,0-4.2a13.733,13.733,0,0,1,.3-3.012,12.8,12.8,0,0,1,6.86-9.007,13.113,13.113,0,0,1,6.16-1.442c2.413-.011,4.825.006,7.234-.007a17.978,17.978,0,0,1,3.666.339,12.087,12.087,0,0,1,4.157,1.664,13.043,13.043,0,0,1,4.354,4.5,2.794,2.794,0,0,0,.534.721,1.56,1.56,0,0,0,.715.333,1.107,1.107,0,0,0,1.134-.514,1.2,1.2,0,0,0,.015-1.387,16.22,16.22,0,0,0-4.788-5.325,15.314,15.314,0,0,0-8.759-2.779c-3.014-.027-6.028-.015-9.043.008a12.139,12.139,0,0,0-2.2.2,15.334,15.334,0,0,0-8.1,4.186,15.162,15.162,0,0,0-4.694,10.836c-.013.654,0,1.31,0,1.946-.229.151-.413.267-.589.392a4.177,4.177,0,0,0-1.878,3.546c-.013,1.7,0,3.4,0,5.1a3.467,3.467,0,0,0,.827,2.344c.445.509.947.967,1.433,1.455,0,.488.016,1.007,0,1.524-.016.437-.082.87-.107,1.306-.074,1.257-.069,2.522-.227,3.768a8.372,8.372,0,0,0,.25,3.162,8.673,8.673,0,0,0,7.553,6.445c.926.067,1.857.076,2.784.115.211.01.42.035.659.055a2.914,2.914,0,0,1-.749,1.74h19.512a3.484,3.484,0,0,1-.748-1.738c1.191-.058,2.34-.076,3.48-.175a8.388,8.388,0,0,0,6.232-3.649,8.277,8.277,0,0,0,1.565-5.485q-.119-2.377-.236-4.755c-.006-.11-.021-.219-.029-.328-.051-.679-.1-1.356-.145-1.949a1.827,1.827,0,0,1,.168-.217c.149-.122.3-.234.456-.353a4.09,4.09,0,0,0,1.709-3.293Q-4909.789,2185.27-4909.82,2182.72Zm-6.083,10.249c-.1,1.516-.2,3.058-.3,4.668h-1.746C-4917.258,2196.062-4916.58,2194.513-4915.9,2192.969Zm-35.827-5.285c-.042-1.69-.012-3.38-.012-5.071a3.734,3.734,0,0,0,3.178,1.916,25.831,25.831,0,0,1,.081,5.03,11.732,11.732,0,0,1-1.6-.013A1.9,1.9,0,0,1-4951.729,2187.684Zm10.831,17.648a4.935,4.935,0,0,1-.546.064c-.766,0-1.532-.012-2.3-.007a6.136,6.136,0,0,1-5.976-5.18,18.973,18.973,0,0,1,.02-3.354c0-.217.056-.433.069-.651.068-1.281.132-2.563.2-3.847a2.033,2.033,0,0,1,.068-.285h1.087a21.163,21.163,0,0,0,7.376,11.335Zm2.166,4.381c.116-.806.267-1.573.323-2.348.054-.756.012-1.519.012-2.414a15.007,15.007,0,0,0,12.669.036,14.135,14.135,0,0,0,.544,4.725Zm13.66-8.032a12.051,12.051,0,0,1-7.816,2.185,11.824,11.824,0,0,1-4.829-1.432,15.951,15.951,0,0,1-6.275-6.43,20.812,20.812,0,0,1-1.271-2.743,14.936,14.936,0,0,1-.664-2.438,6.281,6.281,0,0,1,.059-1.218c.01-1.4,0-2.794,0-4.191v-.952c4.129-.756,6.626-3.3,8.006-7.187,5.4,5.526,12.124,8.009,19.642,8.778.021.259.05.47.052.681,0,1.015-.079,2.036.021,3.04a9.225,9.225,0,0,1-1.038,4.555,17.8,17.8,0,0,1-1.878,3.3h-4.356a14.037,14.037,0,0,0-.9-1.1,2.834,2.834,0,0,0-1.982-.858c-.957-.021-1.918-.013-2.875-.008a3.311,3.311,0,0,0-2.906,4.417,3.309,3.309,0,0,0,3,2.17c.82-.02,1.642.008,2.465,0a3.24,3.24,0,0,0,2.967-1.715,3.137,3.137,0,0,1,.179-.267h2.04A6.129,6.129,0,0,1-4925.072,2201.681Zm-2.656-2.729a.8.8,0,0,1-.756.814,8.092,8.092,0,0,1-.9.013c-.435,0-.871.005-1.306,0-.728-.011-.819-.084-1.1-.829.275-.736.375-.817,1.1-.827.626-.008,1.254,0,1.88,0a1.94,1.94,0,0,1,.326.01A.819.819,0,0,1-4927.728,2198.953Zm13.053,2.555a6,6,0,0,1-5.487,3.867c-.952.045-1.91.007-2.956.007v-1.875l3.346-3.274c.875,0,1.881-.008,2.89,0a3.284,3.284,0,0,0,2.57-.952A3.293,3.293,0,0,1-4914.675,2201.508Zm2.391-13.971a2.411,2.411,0,0,1-.111.557,1.865,1.865,0,0,1-1.652,1.468c-.481.046-.972.009-1.529.009v-3.338a3.755,3.755,0,0,1,.555-.063,2.708,2.708,0,0,0,2.742-1.76C-4912.279,2185.452-4912.274,2186.494-4912.284,2187.537Z" transform="translate(-80.891)" fill="#555"/><path d="M-4878.328,2503.524a11.481,11.481,0,0,1-11.576-11.645,11.466,11.466,0,0,1,11.625-11.531,11.463,11.463,0,0,1,11.575,11.58A11.476,11.476,0,0,1-4878.328,2503.524Zm-3.221-3.107a9.068,9.068,0,0,0,11.058-3.785,9.213,9.213,0,0,0-1.583-11.342,9.258,9.258,0,0,0-11.5-.782,9.131,9.131,0,0,0-3.019,11.172,4.494,4.494,0,0,0,1.884-3.137q.235-1.868.486-3.732a2.653,2.653,0,0,1,2.378-2.423c1.453-.236,2.916-.43,4.347-.764a2.252,2.252,0,0,1,2.327,1.517,1.847,1.847,0,0,1-.581,1.848c-.728.744-1.472,1.473-2.2,2.212-.189.19-.362.4-.5.545-.035.471.217.608.555.745.231-.189.477-.36.687-.565.686-.67,1.37-1.343,2.033-2.035a2.524,2.524,0,0,1,1.583-.853c.148.04.337.076.516.14a2,2,0,0,1,1.384,2.222q-.336,2.224-.718,4.44a2.69,2.69,0,0,1-2.2,2.352c-1.295.194-2.594.369-3.9.5A4.221,4.221,0,0,0-4881.548,2500.417Zm-2.352-1.275.922-.912a6.163,6.163,0,0,1,2.671-1.685,21.772,21.772,0,0,1,2.4-.452c.966-.149,1.937-.263,2.95-.4a10.967,10.967,0,0,0,.264-1.448c.024-.455.325-.9.062-1.546-.5.552-.9,1.047-1.354,1.475a2.943,2.943,0,0,1-3.952.007,2.968,2.968,0,0,1-.449-4,15.754,15.754,0,0,1,1.1-1.213c.113-.125.21-.264.427-.538l-2.851.465c-.177,1.261-.4,2.492-.511,3.732a6.726,6.726,0,0,1-2.185,4.441c-.274.258-.529.536-.839.852Z" transform="translate(-134.605 -266.219)" fill="#926cdc"/><path d="M-4621.295,2657.46a.207.207,0,0,0,0,.026h0C-4621.3,2657.478-4621.3,2657.468-4621.295,2657.46Z" transform="translate(-358.956 -414.151)"/></g></svg>