<svg xmlns="http://www.w3.org/2000/svg" width="664" height="688.556" viewBox="0 0 664 688.556">
  <path id="evoblockIcon" d="M-627,328.813a23.888,23.888,0,0,1-.694-3.3c-1.343-19.175-3.171-38.246-7.41-57.085-12.079-53.673-34.847-102.064-70.346-144.255-30.32-36.036-66.021-65.5-107.744-87.511a310.335,310.335,0,0,0-89.382-30.7C-916.51,3.409-930.453.926-944.616.038-961.078-1-977.528-1.5-994.031-.337A341.564,341.564,0,0,0-1066.865,12.5c-44.429,13.078-84.214,34.842-119.924,64.21a385.049,385.049,0,0,0-41.9,40.236c-1.051,1.171-2.046,2.393-3.3,3.868,3.206,1.928,6.017,3.947,9.093,5.413,15.247,7.268,30.413,14.7,46.634,19.725a291.826,291.826,0,0,0,75.353,13.063,197.478,197.478,0,0,0,102.256-23.45c14.8-7.867,29.561-15.8,44.478-23.426A244.055,244.055,0,0,1-888,89.538a127.625,127.625,0,0,1,65.42,4.556q15.386,5.167,30.454,11.27c13.316,5.376,24.567,14,35.085,23.6,18.823,17.167,34.506,36.978,48.374,58.255,17.832,27.359,32.448,56.3,42.136,87.578,5.328,17.2,8.861,34.719,8.23,52.86-.067,1.925.355,4.075-1.6,5.6-1.975-.528-1.668-2.171-1.9-3.494a218.015,218.015,0,0,0-17.8-56.43c-18.543-39.007-45.8-70.663-81.016-95.505-23.127-16.314-48.271-28.362-75.886-34.992-15.948-3.829-32.162-5.5-48.526-6.062-33.38-1.144-66.058,2.859-97.879,13.2a233.234,233.234,0,0,0-34.218,14.613c-11.944,6.122-24.208,11.622-36.332,17.394-1.565.745-3.121,1.508-4.695,2.235-1.554.719-2.034,1.93-1.658,3.821,8.54,8.093,17.269,16.32,25.948,24.6,25.557,24.383,55.875,40.217,89.642,49.763,12.329,3.486,25.018,4.4,37.792,4.295,24.477-.2,48.2-5.22,71.77-11.212,13.714-3.486,27.382-7.169,41.166-10.352a142.3,142.3,0,0,1,34.83-3.868,83.214,83.214,0,0,1,11.216,1.018,34.781,34.781,0,0,1,18.979,9.736,99.088,99.088,0,0,1,15.387,19.281c17.178,27.575,29.762,57.079,36.563,88.906,1.989,9.308,3.367,18.753,4.8,28.17.556,3.65.918,7.425-.554,11.209-2.2-.533-2.2-2.186-2.333-3.7a143.157,143.157,0,0,0-8.024-35.407c-9.462-26.568-23.629-50.141-44.822-69.1-3.438-3.075-7.251-5.736-10.939-8.526a12.385,12.385,0,0,0-4.825-2.326,17.013,17.013,0,0,0,1.558,2.014c4.681,4.516,9.614,8.794,14.056,13.532,11.419,12.178,19.375,26.555,25.857,41.82a217.994,217.994,0,0,1,16.343,62.658,212.09,212.09,0,0,1-.431,48.91c-7.093,56.179-30.99,104.206-70.189,144.794a183.771,183.771,0,0,1-41.323,32.1c-12.3,7.01-24.794,13.666-37.237,20.415a21,21,0,0,1-4.84,1.807c-1.85.468-3.078-.345-3.421-2.907,1.166-.632,2.475-1.4,3.837-2.071,13.248-6.478,26.54-12.944,38.429-21.75,42.477-31.461,74.489-71.075,93.159-120.887a174.627,174.627,0,0,0,11.448-59.738c.351-33.348-7.653-64.42-26.611-92.211-13.51-19.8-31.614-34.388-52.842-45.2-18.3-9.319-37.76-15.091-57.984-18.443a261.758,261.758,0,0,0-50.122-3.385,322.913,322.913,0,0,0-120.276,26.6c-.635.275-1.245.609-2.453,1.2,9.581,12.289,18.609,24.6,28.407,36.257A194.56,194.56,0,0,0-932.229,385.8a177.013,177.013,0,0,0,72.085,25.651c11.168,1.468,22.223.879,33.283-.592,17.33-2.305,34.6-5.078,51.973-7.02,11.918-1.332,23.961-1.743,35.793,1.311a34.184,34.184,0,0,1,13.5,6.628,11.994,11.994,0,0,1,4.793,9.275c.269,9.1,1.084,18.215.731,27.288a215.135,215.135,0,0,1-7.658,48.713c-.568,2.067-1.292,4.091-2.142,6.757-1.031-.68-2.15-1.009-2.337-1.622a20.19,20.19,0,0,1-.653-4.661c-1.267-21.055-7.9-40.171-20.981-56.81-2.823-3.591-6.588-6.444-9.947-9.606a1.89,1.89,0,0,0-1.765-.294c.778,1.114,1.54,2.239,2.335,3.342,11.639,16.134,19.144,33.975,21.332,53.786a112.433,112.433,0,0,1-8.922,57.616,149.582,149.582,0,0,1-34.437,48.988c-15.072,14.473-31.941,26.7-49.416,38.047-5.044,3.276-10.8,5.46-16.253,8.1a14.64,14.64,0,0,1-2.428.707c-2.336-1.1-3.589-2.581-2.481-5.669,1.146-.675,2.6-1.569,4.095-2.408,13.75-7.735,27.2-15.922,39.264-26.18a125.568,125.568,0,0,0,23.851-26.805A72.276,72.276,0,0,0-777.349,550.6a125.783,125.783,0,0,0-3.388-53.257c-3.308-11.5-9.714-21.231-17.38-30.2-15.49-18.128-35.211-29.688-57.744-36.744-21.061-6.6-42.7-8.549-64.676-8-17.7.443-35.122,2.922-52.432,6.414a29.112,29.112,0,0,0-2.914.955c.568,4.829.988,9.694,1.733,14.507,2.8,18.106,8.724,35.042,19.7,49.894,15.794,21.375,36.944,34.7,62.831,40.154,9.434,1.988,19.185,2.462,28.785,3.682,8.591,1.092,17.18,2.2,25.751,3.436a25.329,25.329,0,0,1,5.355,1.69c9.376,3.622,14.1,10.632,14.678,20.527.169,2.872.026,5.761.026,8.737l2.23,1.09c.454-.207.812-.251.946-.448,2.684-3.962,5.113-8.063,6.218-12.782,1.945-8.311-.253-15.732-5.054-22.529a40.306,40.306,0,0,0-12.069-11.067c-8.915-5.47-18.618-9.21-28.326-12.955-11.178-4.312-22.4-8.515-33.45-13.15a87.165,87.165,0,0,1-22.811-14.049,58.343,58.343,0,0,1-16.353-22.086c.425-.86.774-1.64,1.193-2.38a8.283,8.283,0,0,1,.906-1.089c15.082-.95,30.2-2.527,45.409-1.857,21.867.963,41.018,8.93,57.84,22.753a25.132,25.132,0,0,1,3.42,3.318c12,14.483,20.063,30.722,21.276,49.755.877,13.753-2.668,26.634-8.951,38.806-7.059,13.673-16.857,25.189-28.163,35.486-3.407,3.1-7.008,5.993-10.6,9.046l-3.16-1.978c1.4-10.009,1.744-19.757-4.235-28.53-3.881-5.7-10.215-10.227-18.678-12.747.7.684,1.428,1.344,2.1,2.055,3.172,3.359,6.628,6.5,9.427,10.149,5.441,7.089,6.589,15.091,2.936,23.289-2.04,4.578-4.9,8.806-7.565,13.087a6.663,6.663,0,0,1-6.333,3.066l-4.106-.182c-4.5-5.74-9.009-11.55-13.578-17.311a451.2,451.2,0,0,0-38.31-43.1c-31.435-30.638-68.331-51.039-111.508-59.737-14.729-2.967-29.557-3.184-44.461-1.7-18.318,1.825-36.081,6.529-54.017,10.333a214.784,214.784,0,0,1-27.822,4.252c-23.128,1.812-42.752-5.512-58.545-22.459a134.017,134.017,0,0,1-34.759-69.572,70.8,70.8,0,0,1,1.008-30.55c4.74-17.955,16.362-29.891,33.035-37.173a69.421,69.421,0,0,1,13.2-4.043,22.67,22.67,0,0,1,19.943,4.885,77.1,77.1,0,0,1,9.554,10c3.421,4.1,6.479,8.511,9.7,12.783a67.492,67.492,0,0,0,33.689,24.065c8.231,2.685,16.609,4.925,24.837,7.619a153.345,153.345,0,0,1,15.752,6.016,54.941,54.941,0,0,1,21.539,17.734c3.7,4.995,7.259,10.092,10.927,15.111.986,1.35,2.138,2.579,3.58,4.3a8,8,0,0,0-.461-5.57c-2.695-7.768-5.613-15.458-8.31-23.224-2.867-8.252-7.189-15.752-11.782-23.1-2.285-3.655-4.991-7.047-7.943-11.165a80.124,80.124,0,0,0-4-30.169c1.613-.5,2.815-.9,4.032-1.247,18.808-5.38,35.026-14.914,47.716-29.992a65.292,65.292,0,0,0,15.217-34.848c.068-.562.009-1.138.009-2.205-6.813-2.123-13.679-2.872-19.844,1.322-4.794,3.261-6.983,8.663-8.6,14.166-1.356,4.623-.745,9.269.285,13.743,1.9,8.234-1.171,14.379-7.157,19.6-7.4,6.456-16.052,10.759-25.005,14.522-2.381,1-4.884,1.712-7.311,2.548l-3.25-3.07c1.617-1.545,3.147-3.038,4.71-4.5,18.782-17.508,30.917-38.8,35.615-64.047,3.808-20.463,1.875-40.328-8.366-58.88-1.436-2.6-2.662-5.436-5.59-7.576-7.083,4.774-12.426,10.76-14.238,19.277-2.383,11.206-.824,22.137,2.99,32.812a90.713,90.713,0,0,0,13.264,24.245c.78,1.033,1.545,2.078,2.255,3.034-2.314,13.539-19.977,43.521-30.831,52.255l-2.827-2.018c.147-.738.246-1.43.423-2.1,2.04-7.816,4.526-15.544,6.067-23.456,7.148-36.707-1.584-69.605-24.4-98.981-13.789-17.757-30.638-32.25-48.659-45.472-6.036-4.429-12.233-8.639-19.274-13.6.419,5.585.6,10.145,1.132,14.665,1.549,13.249,5.521,25.686,13.061,36.807,11.474,16.923,27.554,26.805,47.462,30.728,1.84.363,3.706.607,5.568.841,1.7.214,3.417.341,5.1.5a80.45,80.45,0,0,1,11.939,25.571,112.251,112.251,0,0,1,3.923,39.5c-.673,8.2-1.852,16.354-2.869,24.521-.211,1.693-.709,3.35-1.064,4.973-3.385-.149-4.884-1.773-5.29-4.859-.9-6.875-2.219-13.7-2.959-20.592-.927-8.632-3.862-16.565-7.614-24.26-8.716-17.872-21.8-31.984-38.221-42.891-8.882-5.9-18.365-10.913-27.685-16.135-6.045-3.387-12.279-6.437-18.436-9.624-24.133-12.491-38.058-32.557-43.638-58.812-.745-3.5-1.446-7.019-2.261-10.982-.915.7-1.833,1.039-2.1,1.66-6.187,14.293-13.578,28.12-16.887,43.535-1.874,8.728-2.652,17.542-.289,26.208,4.031,14.781,13.743,24.466,28.167,29.347a71.217,71.217,0,0,0,21.307,3.6c12.715.277,25.44.135,38.161.183,3.76.015,7.524-.026,11.278.145,6.69.306,12.61,2.946,18.178,6.44,13.973,8.77,23.345,21.335,29.735,36.323a85.074,85.074,0,0,1,6.345,26.435,22.923,22.923,0,0,1-.152,2.844c-1.089-.583-1.852-.927-2.547-1.378-1.818-1.18-3.7-2.285-5.392-3.636-11.989-9.594-26.107-14-40.866-16.809-5.531-1.054-11.077-2.208-16.67-2.732-26.229-2.456-48.964,6.29-69,22.583-22.582,18.36-35.811,42.431-41.283,70.788-6.641,34.412-.532,67.048,15.21,97.944,18.647,36.6,43.69,68.359,74.176,95.862a342.641,342.641,0,0,0,102.034,63.8,333.086,333.086,0,0,0,72.9,20.215,334.032,334.032,0,0,0,76.978,3.075c50.467-3.724,97.855-18.022,142.4-41.761,31.037-16.542,58.042-38.447,82.1-63.992a357.086,357.086,0,0,0,64.63-95.461,334.294,334.294,0,0,0,28.09-96.113c.967-7.155,1.372-14.386,2.082-21.577.138-1.4.492-2.783.746-4.173Zm-101.847,63.874c-2.583-.821-4.072-1.265-5.542-1.767-12.374-4.225-24.928-7.359-38.172-6.568-3.749.225-7.508.286-11.264.367-23.591.513-47.084-.357-70.366-4.674-21.619-4.01-41.764-11.484-59.107-25.31-6.653-5.3-12.722-11.333-19.133-16.945a9.886,9.886,0,0,1-3.378-7.324c.92-.416,1.789-.878,2.7-1.213a138.828,138.828,0,0,1,36.225-8.181c12.516-1.053,25.094-1.379,37.64-2.1a118.962,118.962,0,0,1,31.042,2.044c8.472,1.75,17.035,3.217,25.337,5.586,9.32,2.658,18.012,7.027,26.324,12.033,19.92,12,35.537,28.011,45.586,49.17C-730.348,389.075-729.835,390.388-728.847,392.688ZM-993.55,198.8c2.612-3.461,5.866-5.324,9.2-7.012,7.393-3.741,15.309-6,23.33-7.9a295.338,295.338,0,0,1,44.094-6.726c10.944-.9,21.952-1.637,32.918-1.493,20.658.272,40.754,4.258,60.313,10.913,19.692,6.7,38.3,15.471,54.584,28.648,1.992,1.611,3.862,3.373,5.655,4.947-.67,2.4-2.284,1.955-3.654,1.975-4.772.071-9.551-.04-14.314.194-19.378.95-38.5,4.076-57.642,7-16.583,2.533-33.179,4.8-49.987,5.237A163,163,0,0,1-934.6,229.81C-956.512,224.112-975.829,213.452-993.55,198.8ZM-885.115,63.968c-1.533.089-2.951.188-4.371.253a272.334,272.334,0,0,0-35.753,3.768c-19.406,3.485-38.1,9.386-56.409,16.59-17.191,6.766-34.454,13.367-51.482,20.527-17.607,7.4-35.662,9.035-54.364,6.07-9.841-1.56-19.73-2.825-29.609-4.131-3.978-.526-7.989-.8-12.246-1.22a16.2,16.2,0,0,1,5.575-7.54,91.284,91.284,0,0,1,10.491-6.856c6.22-3.361,12.806-6.064,18.93-9.58,26.879-15.433,56.014-23.668,86.567-27.26,11.9-1.4,23.894-2.01,35.847-2.954a230.62,230.62,0,0,1,68.075,4.8c5.635,1.239,11.209,2.762,16.807,4.172C-885.6,60.969-884.12,61.371-885.115,63.968ZM-902.7,646.661l.1.731a18.008,18.008,0,0,1-2.575.765c-3.714.543-7.443.987-11.159,1.515-8.579,1.22-17.121,2.8-25.736,3.638-18.292,1.78-35.864-1.618-53.256-7.314-16.093-5.271-29.248-14.283-39.525-27.574-5.656-7.315-11.036-14.843-16.506-22.3-7.009-9.555-13.587-19.457-21.058-28.633a100.1,100.1,0,0,0-49.751-33.165,108.522,108.522,0,0,0-22.526-4.193,15.1,15.1,0,0,1-2.909-.877l.989-1.96c5.751.233,11.229.292,16.679.719,5.891.462,11.925.6,17.6,2.043,18.757,4.782,35.054,14.011,48.2,28.444,4.965,5.452,9.918,10.917,14.912,16.343,10.786,11.72,23.311,20.307,39.085,24.422,18.452,4.814,36.971,7.962,56.068,7.128,3.61-.158,7.213-.482,10.821-.667a19.661,19.661,0,0,1,2.722.222q.107.418.214.836a19.876,19.876,0,0,1-3.241,1.494,133.548,133.548,0,0,1-29.081,4.354c-18.944.686-37.02-3.365-54.659-9.872-1.14-.421-2.314-.751-3.859-1.247a90.537,90.537,0,0,0,46.852,36.3c18.784,6.353,38.205,8.925,58,8.811,6.8-.039,13.593-.159,20.39-.208C-904.842,646.4-903.77,646.573-902.7,646.661ZM-1165.68,258.781c-1.031,2.592-2.46,2.287-3.9,1.959-3.234-.737-6.435-1.722-9.709-2.159-11.726-1.566-23.479-2.932-35.219-4.4-7.46-.933-14.848-2.2-21.793-5.267-8.2-3.62-13.772-9.664-15.372-18.536-.911-5.054-.823-10.328-.777-15.5.027-3,.883-5.984,1.33-8.98.2-1.377.669-2.83,2.163-2.787,1.107.032,2.232.952,3.255,1.62.441.288.6.973.963,1.42,2.893,3.594,5.6,7.37,8.75,10.72a101.044,101.044,0,0,0,26.217,19.709c13.1,6.989,26.515,13.386,39.794,20.037C-1168.6,257.31-1167.224,258-1165.68,258.781Zm2.689-56.814c2.878,2.17,5.755,4.309,8.6,6.489,9.536,7.305,18.938,14.8,26.784,23.952,3.269,3.813,5.921,8.159,8.775,12.316a12.735,12.735,0,0,1,1.01,2.945,14.074,14.074,0,0,1-2.127-.349c-13.83-5.016-26.048-12.469-35.452-23.983a41.749,41.749,0,0,1-9.358-20.12Zm92.72,37.807c.725,1.587,1.258,2.6,1.664,3.67a124.019,124.019,0,0,1,6.756,27.219c.877,6.3,1.54,12.622.092,18.941-.538,2.349-1.1,4.694-3.482,6.457a31.965,31.965,0,0,1-1.869-3.616c-2.246-6.229-4.67-12.411-6.546-18.752a55.751,55.751,0,0,1-2.071-21.422C-1075.282,247.787-1074.084,243.555-1070.271,239.774Zm-58.8,118.1c11.886-1.9,21.414,8.521,19.148,20.937C-1121.363,380.513-1130.146,370.97-1129.073,357.872Zm81.492-29.937c-1.072-5.684.894-14.612,3.814-18.377a8.775,8.775,0,0,1,6.957-3.686C-1038.2,314.278-1039.939,322.128-1047.582,327.936Z" transform="translate(1291 1.003)" fill="#fff"/>
</svg>
