<svg xmlns="http://www.w3.org/2000/svg" width="56.768" height="21.198" viewBox="0 0 56.768 21.198">
  <g id="golang" transform="translate(0 -25)">
    <path id="Path_253" data-name="Path 253" d="M4.281,31.418c-.111,0-.138-.055-.083-.138l.58-.746a.4.4,0,0,1,.305-.138h9.863c.111,0,.138.083.083.166l-.47.718a.421.421,0,0,1-.276.166l-10-.028ZM.11,33.96c-.111,0-.138-.055-.083-.138l.58-.746a.4.4,0,0,1,.305-.138h12.6a.127.127,0,0,1,.138.166l-.221.663a.241.241,0,0,1-.249.166ZM6.8,36.5c-.111,0-.138-.083-.083-.166l.387-.691a.366.366,0,0,1,.276-.166H12.9c.111,0,.166.083.166.193l-.055.663a.207.207,0,0,1-.193.193L6.8,36.5Zm28.674-5.58-4.642,1.215c-.415.111-.442.138-.8-.276a3.669,3.669,0,0,0-1.3-1.05,4.8,4.8,0,0,0-5,.415,5.875,5.875,0,0,0-2.818,5.249,4.331,4.331,0,0,0,3.729,4.337,5.1,5.1,0,0,0,4.7-1.823c.249-.305.47-.635.746-1.022H24.752c-.58,0-.718-.359-.524-.829.359-.856,1.022-2.293,1.409-3.011a.746.746,0,0,1,.69-.442H36.382c-.055.746-.055,1.492-.166,2.238a11.781,11.781,0,0,1-2.264,5.414,11.509,11.509,0,0,1-7.874,4.7,9.787,9.787,0,0,1-7.432-1.823,8.672,8.672,0,0,1-3.508-6.135,10.843,10.843,0,0,1,2.348-8.094A12.259,12.259,0,0,1,25.221,25.2a9.521,9.521,0,0,1,7.321,1.353,8.662,8.662,0,0,1,3.2,3.9c.166.249.055.387-.276.47Z" transform="translate(0 0)" fill="#fff"/>
    <path id="Path_254" data-name="Path 254" d="M58.848,46.3a10.375,10.375,0,0,1-6.741-2.431,8.662,8.662,0,0,1-2.983-5.332A10.545,10.545,0,0,1,51.361,30.2,11.58,11.58,0,0,1,59.1,25.584a10.248,10.248,0,0,1,7.873,1.409,8.6,8.6,0,0,1,3.9,6.16,10.663,10.663,0,0,1-3.177,9.365,12.659,12.659,0,0,1-6.63,3.535c-.746.138-1.492.166-2.21.249Zm6.575-11.16a7.99,7.99,0,0,0-.083-.912A4.55,4.55,0,0,0,59.7,30.557a6.034,6.034,0,0,0-4.834,4.807,4.549,4.549,0,0,0,2.537,5.221,5.066,5.066,0,0,0,4.5-.166,6.043,6.043,0,0,0,3.508-5.277Z" transform="translate(-14.224 -0.105)" fill="#fff"/>
  </g>
</svg>
