<svg xmlns="http://www.w3.org/2000/svg" width="84.891" height="77.811" viewBox="0 0 84.891 77.811"><g transform="translate(0 -0.001)"><g transform="translate(0 0)"><path d="M76.588,60.38a19.12,19.12,0,0,0-.439-2.371,14.028,14.028,0,0,0-.925-2.682c-.652-1.307-1.365-2.585-2.092-3.85-.243-.425-.464-.86-.714-1.276-.555-.928-1.117-1.85-1.639-2.8-.283-.518-.584-1.029-.873-1.541-.545-.966-1.138-1.9-1.688-2.862-.484-.846-.893-1.739-1.42-2.554-.6-.931-1.1-1.924-1.678-2.867-.347-.565-.584-1.2-.953-1.753-.6-.9-1.089-1.866-1.626-2.8-.561-.98-1.107-1.97-1.674-2.943-.6-1.022-1.172-2.058-1.788-3.072-.478-.788-.9-1.619-1.363-2.408-.6-1.019-1.168-2.061-1.787-3.072-.267-.438-.5-.9-.763-1.339-.5-.843-1.023-1.671-1.516-2.517-.6-1.021-1.155-2.063-1.764-3.076-.731-1.219-1.528-2.4-2.242-3.627-.584-1.006-1.2-1.988-1.85-2.955C47.113,7,46.446,5.973,45.74,4.976a11.963,11.963,0,0,0-1.933-2.258,6.853,6.853,0,0,0-.964-.588c-.126.09-.211.146-.295.207A22.31,22.31,0,0,0,38.381.572,21.556,21.556,0,0,0,34.975.027a8.584,8.584,0,0,0-2.17.108c-.75.121-1.514.165-2.261.36a17.152,17.152,0,0,0-2.9.995A15.777,15.777,0,0,0,22.9,4.815c-.356.364-.659.776-1,1.154l0,0a11.174,11.174,0,0,0-1.408,2.061c-.117.212-.239.422-.363.632a25.875,25.875,0,0,0-1.694,9.979,1.727,1.727,0,0,1,.239.5,8.332,8.332,0,0,0,.609,2.233,20.531,20.531,0,0,0,1.386,2.9c.425.763.8,1.553,1.289,2.283.357.529.578,1.141.9,1.7.489.85,1.013,1.677,1.515,2.517.263.442.509.9.772,1.336.539.909,1.078,1.82,1.6,2.736.493.869,1.026,1.72,1.5,2.6a24.356,24.356,0,0,0,1.448,2.463,10.31,10.31,0,0,1,.718,1.276c.5.99,1.177,1.873,1.628,2.884.03.071.049.146.077.234l2.119,3.481a1.339,1.339,0,0,1,.175.2c.364.675.71,1.363,1.094,2.028.489.847,1.023,1.67,1.511,2.52.318.555.529,1.178.9,1.693.8,1.117,1.373,2.366,2.1,3.526.6.951,1.129,1.953,1.68,2.939.263.47.5.956.772,1.418.5.844,1.023,1.67,1.514,2.518.318.554.532,1.175.893,1.694.794,1.151,1.407,2.4,2.116,3.6a15.387,15.387,0,0,0,1.8,2.476,14.735,14.735,0,0,0,2.262,2.116,15.764,15.764,0,0,0,1.758,1.151,14.421,14.421,0,0,0,5.12,1.821c.386.292.86.052,1.249.186a3.467,3.467,0,0,0,1.262.143,8.544,8.544,0,0,0,1.615-.1c.518-.117,1.077.1,1.557-.226a9.981,9.981,0,0,0,3.189-.9,15.052,15.052,0,0,0,4.464-2.79,14.163,14.163,0,0,0,1.846-1.952,16.235,16.235,0,0,0,1.8-2.822c.221-.463.512-.893.688-1.37.186-.5.372-1.013.509-1.524a18.886,18.886,0,0,0,.5-2.854,12.384,12.384,0,0,0-.009-2.89m-3.594,2.589c-.134.387.106.86-.184,1.248a8.068,8.068,0,0,1-.947,3,8.315,8.315,0,0,1-1.61,2.479c-.3.305-.519.685-.827.976a12.43,12.43,0,0,1-5.127,3c-.549.158-1.12.25-1.675.373a14.721,14.721,0,0,1-1.846.127c-.217,0-.354,0-.491,0A11.687,11.687,0,0,1,52.622,71.1c-.272-.272-.679-.354-.86-.784-.14-.33-.526-.546-.768-.844a9.51,9.51,0,0,1-.818-1.148c-.489-.843-.927-1.714-1.414-2.557s-1.015-1.675-1.515-2.518c-.263-.441-.493-.9-.76-1.339-.778-1.275-1.428-2.625-2.274-3.861-.357-.523-.572-1.143-.893-1.7-.506-.87-1.061-1.71-1.57-2.577-.48-.82-.914-1.662-1.389-2.485-.5-.872-1.031-1.723-1.537-2.592-.272-.464-.489-.963-.783-1.411-.807-1.23-1.411-2.576-2.252-3.786-.306-.438-.5-.956-.772-1.415-.743-1.237-1.411-2.517-2.215-3.721-.28-.422-.471-.906-.716-1.354-.7-1.284-1.476-2.527-2.181-3.811-.568-1.035-1.185-2.051-1.8-3.062-.548-.9-1.068-1.824-1.594-2.738-.419-.726-.8-1.486-1.22-2.217-.487-.847-.912-1.727-1.415-2.566a7.609,7.609,0,0,1-.9-1.94,12.594,12.594,0,0,0-.548-1.261,5.028,5.028,0,0,1-.437-1.806,6.807,6.807,0,0,1-.166-1.256c.119-.743.116-1.506.2-2.245a9.18,9.18,0,0,1,.8-2.8,16.06,16.06,0,0,1,1.357-2.5c.27-.377.61-.679.885-1.039a9.647,9.647,0,0,1,2.228-2,9.694,9.694,0,0,1,2.165-1.154c.72-.263,1.448-.494,2.171-.744a.471.471,0,0,1,.146-.049c.727.023,1.428-.263,2.167-.175a7.843,7.843,0,0,0,1.076.007,12.692,12.692,0,0,1,1.775.288A13.5,13.5,0,0,1,40.945,5.5a6.376,6.376,0,0,1,2.124,1.881c.651.8,1.194,1.665,1.778,2.5.531.762.989,1.574,1.477,2.363.584.944,1.174,1.885,1.745,2.835.425.705.815,1.43,1.239,2.137.539.906,1.016,1.849,1.616,2.728.413.606.646,1.337,1.039,1.962.648,1.023,1.172,2.118,1.827,3.131.577.889,1.021,1.85,1.619,2.731.252.372.447.8.677,1.206.572,1,1.041,2.066,1.678,3.021.763,1.141,1.311,2.4,2.112,3.519.354.493.551,1.1.856,1.628.561.984,1.207,1.924,1.714,2.932.439.875,1.025,1.66,1.438,2.546.295.629.742,1.181,1.089,1.785.476.823.911,1.665,1.385,2.488.564.982,1.148,1.95,1.72,2.927.259.445.493.9.763,1.341.617,1.008,1.164,2.06,1.791,3.066a31.015,31.015,0,0,1,1.537,3,9.2,9.2,0,0,1,.655,2.215c.15.75.2,1.511.305,2.267a2.606,2.606,0,0,1-.134,1.261" transform="translate(8.213 0.001)" fill="#91ddea"/><path d="M40.3,41.637c-.305.561-.593,1.13-.9,1.684-.3.523-.648,1.006-.937,1.522-.577,1.036-1.154,2.074-1.8,3.065-.351.531-.577,1.139-.9,1.693-.483.85-1.013,1.677-1.512,2.52-.273.467-.5.958-.765,1.42-.562.958-1.132,1.911-1.739,2.94-.039-.078-.078-.149-.117-.211a15.6,15.6,0,0,1,.273,2.91,15.838,15.838,0,0,1-1.794,7.346l.069-.069c.593-1.35,1.459-2.536,2.152-3.831a11.932,11.932,0,0,1,.726-1.349c.8-1.178,1.443-2.433,2.145-3.666.491-.873,1.006-1.732,1.5-2.6.515-.921,1.036-1.84,1.583-2.738.538-.873,1.015-1.794,1.521-2.683.585-1.022,1.21-2.035,1.8-3.065.257-.452.531-.9.811-1.405ZM25.555,10.687c-.266.437-.461.921-.734,1.35-.57.919-1.13,1.84-1.638,2.8-.273.522-.561,1.036-.873,1.544-.484.788-.944,1.592-1.4,2.4-.554.982-1.107,1.973-1.677,2.948-.6,1.045-1.217,2.083-1.817,3.135-.243.421-.452.866-.718,1.279C15.875,27.386,15.172,28.7,14.447,30c-.452.811-.958,1.583-1.4,2.4-.467.889-1.052,1.716-1.56,2.589-.319.546-.545,1.154-.889,1.693-.616.958-1.162,1.95-1.746,2.924-.273.46-.491.96-.765,1.42-.546.9-1.093,1.8-1.592,2.731-.28.522-.585,1.029-.882,1.535-.554.96-1.138,1.9-1.677,2.871-.28.491-.522,1-.827,1.474-.053.094-.116.179-.163.273a15.935,15.935,0,0,1,7.41-5.694c.406-.726.671-1.3,1.022-1.833.413-.624.74-1.3,1.115-1.943.491-.873,1.054-1.707,1.568-2.573.257-.445.483-.9.717-1.357.679-1.3,1.482-2.527,2.184-3.813.577-1.054,1.155-2.129,1.81-3.135.749-1.148,1.381-2.363,2.1-3.534.577-.919,1.093-1.911,1.631-2.869.483-.85.944-1.716,1.5-2.527.273-.4.468-.85.71-1.279.6-1.045,1.217-2.09,1.817-3.135a1.312,1.312,0,0,0,.087-.243,25.891,25.891,0,0,1,1.693-9.983c-.328.57-.671,1.132-1,1.7-.577,1.006-1.169,2-1.762,3M22.247,73.864a13.912,13.912,0,0,0,3.244-1.9,16.007,16.007,0,0,1-4.055,2.2c.273-.094.545-.2.811-.305m-18.883-4.8c.117.117.227.241.344.359a15.482,15.482,0,0,1-1.217-1.652,6.88,6.88,0,0,0,.873,1.294M2.2,67.329c.032.039.055.078.087.124A16.1,16.1,0,0,1,.945,64.669,10.44,10.44,0,0,0,2.2,67.329M.61,63.686c.11.312.211.632.321.944q-.258-.713-.445-1.45a2.291,2.291,0,0,0,.124.506M.049,61.074c.016.007.039.007.055.016a3.142,3.142,0,0,1-.055-.484Zm0-3.643v.319a2.272,2.272,0,0,1,.032-.327c-.016,0-.025,0-.032.007" transform="translate(0.022 2.67)" fill="#555"/><path d="M19.6,6.825a7.008,7.008,0,0,1,1.771-2.693l0,0" transform="translate(8.735 1.84)" fill="none" stroke="#1a1818" stroke-miterlimit="10" stroke-width="1"/><path d="M0,43.225A14.032,14.032,0,0,1,.071,41.8v2.854A14.032,14.032,0,0,1,0,43.225" transform="translate(0 18.624)" fill="#1a1818"/><path d="M.367,45.635c.032.179.062.358.094.538a13.648,13.648,0,0,1-.374-2.067c.039.009.078.025.078.039.023.243.007.491.039.734s.108.5.163.756" transform="translate(0.039 19.652)" fill="#1a1818"/><path d="M.07,43.886a15.7,15.7,0,0,1,2.871-7.511c-.328.523-.624,1.061-.914,1.6a17.936,17.936,0,0,0-1,2.152A9.9,9.9,0,0,0,.374,42.42c-.039.226-.132.452-.163.678-.03.241-.016.491-.03.733,0,.023-.064.032-.11.055" transform="translate(0.031 16.208)" fill="#1a1818"/><path d="M19.37,50.151c.133-.153.279-.3.406-.454a2.494,2.494,0,0,1-.265.311l-.142.143" transform="translate(8.631 22.144)" fill="#1a1818"/><path d="M19.826,50.011A15.657,15.657,0,0,1,18.347,51.5c.509-.483.983-1,1.479-1.492" transform="translate(8.175 22.284)" fill="#1a1818"/><path d="M17.946,51.562c.2-.162.385-.347.58-.518-.188.178-.38.351-.58.518" transform="translate(7.996 22.744)" fill="#1a1818"/><path d="M20.45,49.373c.374-.46.491-1.077.912-1.5a15.383,15.383,0,0,1-1.684,2.6c.273-.35.491-.749.772-1.091" transform="translate(8.768 21.329)" fill="#1a1818"/><path d="M31.63,44.768a1.419,1.419,0,0,1-.117-.257,18.041,18.041,0,0,0-.757-2.59c-.233-.538-.522-1.052-.733-1.6a8.924,8.924,0,0,0-1.061-1.794,15.654,15.654,0,0,0-1.808-2.144c-.554-.562-1.224-1.015-1.833-1.537a15.08,15.08,0,0,0-2.45-1.49,12.457,12.457,0,0,0-2.215-.843,22.787,22.787,0,0,0-2.355-.531,12.873,12.873,0,0,0-2.177-.117,9.749,9.749,0,0,0-2.231.016,13.085,13.085,0,0,0-2.924.718,5.03,5.03,0,0,1-.616.132c0-.007.007-.007.007-.014A15.942,15.942,0,0,0,2.95,38.41c-.327.523-.624,1.061-.912,1.6a17.966,17.966,0,0,0-1,2.154,9.9,9.9,0,0,0-.655,2.293c-.039.226-.133.452-.163.678-.032.243-.016.491-.032.734,0,.023-.062.03-.108.053a2.292,2.292,0,0,0-.032.328V49.1a3.124,3.124,0,0,0,.055.483c.039.009.078.023.078.039.023.241.007.491.039.733s.108.5.163.757c.032.179.062.358.094.538,0,.007.007.016.007.023.062.25.133.491.2.733s.156.484.243.718a.06.06,0,0,1,.014.039,16.155,16.155,0,0,0,1.343,2.784c.069.11.132.211.2.319a15.5,15.5,0,0,0,1.217,1.654,21.886,21.886,0,0,0,2.316,2.191A15.407,15.407,0,0,0,10.539,62.6a5.375,5.375,0,0,0,2.09.546c.312.241.71.062,1,.186a3.109,3.109,0,0,0,1.021.149c.335.039.664.14,1,.147a2.245,2.245,0,0,0,.241.009h.055a10.749,10.749,0,0,0,1.3-.133c.788-.094,1.56-.179,2.348-.328a11.051,11.051,0,0,0,1.334-.335c.163-.053.335-.108.507-.171A15.684,15.684,0,0,0,25.024,60.8c.156-.108.311-.218.467-.335s.289-.218.429-.335c.2-.163.39-.343.577-.515s.367-.358.546-.538c.305-.305.593-.617.9-.921.007-.016.023-.023.032-.039l.14-.14a2.4,2.4,0,0,0,.265-.312.214.214,0,0,0,.039-.046c.273-.351.491-.749.772-1.093.374-.46.491-1.076.914-1.5A15.843,15.843,0,0,0,31.9,47.676a15.6,15.6,0,0,0-.273-2.908m-3.76,5.545a7.879,7.879,0,0,1-.859,2.706,11.743,11.743,0,0,1-1.138,1.927,12.85,12.85,0,0,1-1.693,1.865,10.962,10.962,0,0,1-2.09,1.535,10.96,10.96,0,0,1-2.309,1.038c-.312.1-.632.2-.96.28s-.678.071-1,.172a9.079,9.079,0,0,1-2.309.179,16.444,16.444,0,0,1-2.1-.211,11.638,11.638,0,0,1-1.693-.491,12.71,12.71,0,0,1-1.529-.694A9.02,9.02,0,0,1,8,57.107c-.382-.383-.866-.664-1.2-1.07a14.013,14.013,0,0,1-2.058-3.2,11.045,11.045,0,0,1-.9-2.862c-.071-.476-.11-.944-.149-1.427-.014-.282-.179-.57-.14-.836a17.471,17.471,0,0,1,.64-3.79,15.729,15.729,0,0,1,1.652-3.37,10.2,10.2,0,0,1,1.826-2.129,15.443,15.443,0,0,1,2.028-1.474,12.2,12.2,0,0,1,2.238-1,14.065,14.065,0,0,1,2.122-.484,15.636,15.636,0,0,1,2.176-.14,1.859,1.859,0,0,1,.928.156c.243.124.6-.124.843.156a5.351,5.351,0,0,1,1.592.343,16.085,16.085,0,0,1,3.386,1.638,10.991,10.991,0,0,1,2.7,2.426,10.632,10.632,0,0,1,2.028,3.62,8.353,8.353,0,0,1,.507,2.69c-.007.312.179.632.14.929a9.965,9.965,0,0,1-.476,3.026" transform="translate(0.022 14.173)" fill="#926cdc"/></g></g></svg>