<svg xmlns="http://www.w3.org/2000/svg" width="155.391" height="155.561" viewBox="0 0 155.391 155.561"><g transform="translate(0)"><g transform="translate(22.308 60.247)"><path d="M391.174,383.612v1.821a3.474,3.474,0,0,1-3.227,1.512c-6.524-.057-13.048-.024-19.572-.024h-1.589c-.26.268-.5.511-.726.738a8.547,8.547,0,0,0,2.384-5.648c.016.081.041.182.065.308h1.6c5.92,0,11.835.032,17.751-.024A3.861,3.861,0,0,1,391.174,383.612Z" transform="translate(-258.091 -327.532)" fill="#91ddea"/><path d="M154.681,374.9a9.633,9.633,0,0,0-7.586-3.041c-.15-6.082-3.994-10.242-10.335-10.42-.43-6.5-3.868-10-10.4-10.323a17.54,17.54,0,0,0-.142-2.056,9.316,9.316,0,0,0-6.378-7.619,9.093,9.093,0,0,0-9.695,2.076q-3.965,3.753-7.736,7.712a9.057,9.057,0,0,0-2.494,8.081c.138.827.365,1.634.588,2.595l0,0a15.212,15.212,0,0,0,4.707,4.687,7.368,7.368,0,0,0,4.732,1.062c.32,5.944,3.819,9.926,10.408,10.226.053.531.105,1.074.158,1.622a9.44,9.44,0,0,0,8.632,8.515c.531.041,1.062.085,1.589.13.032.482.069.787.069,1.087a9.453,9.453,0,0,0,11.264,9.009,8.5,8.5,0,0,0,5.016-2.619,2.22,2.22,0,0,0,.077-3.033,2.3,2.3,0,0,0-3.021-.393c-.381.247-.71.576-1.095.815A5,5,0,0,1,137,385.1q3.485-3.491,6.978-6.97a6.458,6.458,0,0,1,1.184-.941,4.848,4.848,0,0,1,5.664.41,4.936,4.936,0,0,1,1.646,5.3,5.764,5.764,0,0,1-1.614,2.518,2.319,2.319,0,0,0-.791,2.181,2.281,2.281,0,0,0,3.661,1.362,22.588,22.588,0,0,0,1.715-1.626l0,0a11.5,11.5,0,0,0,1.8-4.728A9.411,9.411,0,0,0,154.681,374.9Zm-41.99-13.384a4.6,4.6,0,0,1-5.486.791,4.866,4.866,0,0,1-2.8-4.841,4.317,4.317,0,0,1,1.35-3.082c2.481-2.522,4.959-5.052,7.513-7.5a4.685,4.685,0,0,1,5.332-1.01,4.83,4.83,0,0,1,3.094,4.318,4.484,4.484,0,0,1-1.277,3.613C117.877,356.409,115.331,359.012,112.691,361.517Zm10.461,10.238a4.934,4.934,0,0,1-7.274-.4,4.421,4.421,0,0,1-1.127-3.183,4.61,4.61,0,0,1,1.431-3.568c2.421-2.445,4.833-4.89,7.3-7.286a4.733,4.733,0,0,1,5.153-1.22,4.989,4.989,0,0,1,1.926,8.263c-1.192,1.241-2.421,2.441-3.637,3.657C125.674,369.27,124.462,370.567,123.152,371.755Zm17.767,2.911c-.929,1-1.918,1.946-2.883,2.911-1.5,1.5-2.964,3.049-4.525,4.488a4.939,4.939,0,0,1-7.282-.349,4.672,4.672,0,0,1-1.156-3.349,4.419,4.419,0,0,1,1.314-3.292c2.477-2.53,4.967-5.048,7.513-7.505a4.667,4.667,0,0,1,5.04-1.151,4.874,4.874,0,0,1,3.365,3.945A4.792,4.792,0,0,1,140.92,374.667Z" transform="translate(-99.776 -303.065)" fill="#91ddea"/><path d="M291.263,261.845a3.918,3.918,0,0,1-3.322,1.317q-14.637-.066-29.275,0a4.487,4.487,0,0,1-3.6-1.518c-1.964-2.106-4.074-4.077-6.087-6.139a10.056,10.056,0,0,0-7.587-3.173q-10.769.062-21.539,0a9.952,9.952,0,0,0-7.452,3.122c-3.231,3.276-6.5,6.514-9.758,9.763a7.709,7.709,0,0,1-1.132,1,2.163,2.163,0,0,1-2.889-.317,2.351,2.351,0,0,1-.2-2.929,6.136,6.136,0,0,1,.713-.784c3.323-3.327,6.662-6.638,9.969-9.981a14.92,14.92,0,0,1,11.022-4.559q10.466-.011,20.933,0a14.928,14.928,0,0,1,11.164,4.583c2.048,2.1,4.122,4.17,6.236,6.3h1.663c9.3,0,18.607.022,27.91-.024a3.439,3.439,0,0,1,3.224,1.511Z" transform="translate(-158.18 -247.649)" fill="#91ddea"/></g><g transform="translate(0 64.439)"><path d="M67.8,392.773l0,0H66.077q-9.032,0-18.055.008a6.006,6.006,0,0,0-1.646.154,2.255,2.255,0,0,0,.369,4.4,12.607,12.607,0,0,0,1.662.065q11.306.006,22.609,0a7.963,7.963,0,0,1,1.492.057A15.213,15.213,0,0,1,67.8,392.773Z" transform="translate(-44.756 -338.12)" fill="#926cdc"/><path d="M291.761,363.364a8.547,8.547,0,0,1-2.384,5.648.55.55,0,0,1-.049.049c-.243.239-.466.454-.681.653-.016.016-.036.032-.053.049-1.833,1.675-2.859,1.958-5.66,2.684.815,4.549-.478,8.328-4.553,10.749-3.5,2.08-7.051,1.7-10.5-.482a2.168,2.168,0,0,0-.32.45c-2.052,5.19-5.855,7.408-11.329,6.605-.146-.02-.292-.065-.5-.114-.142.531-.284,1.062-.426,1.589a9.576,9.576,0,0,1-15.643,4.626c-.9-.811-1.675-1.756-2.579-2.713l0,0a11.5,11.5,0,0,0,1.8-4.728c1.407,1.452,2.648,2.931,4.091,4.176a4.784,4.784,0,0,0,6.491-.255,4.908,4.908,0,0,0,.584-6.6,10.638,10.638,0,0,0-1.026-1.115q-5.249-5.261-10.51-10.518a7.659,7.659,0,0,1-.916-1.006,2.271,2.271,0,0,1,3.183-3.142,9.159,9.159,0,0,1,1.123,1.018q6.277,6.271,12.549,12.553a5.235,5.235,0,0,0,3.852,1.812,4.7,4.7,0,0,0,4.513-2.769,4.871,4.871,0,0,0-.628-5.409,12.029,12.029,0,0,0-.949-.981q-6.222-6.228-12.44-12.448a7.359,7.359,0,0,1-1.006-1.131,2.155,2.155,0,0,1,.324-2.773,2.22,2.22,0,0,1,2.773-.349,8.81,8.81,0,0,1,1.366,1.188q8.7,8.685,17.378,17.382a5.289,5.289,0,0,0,3.994,1.837,4.722,4.722,0,0,0,4.4-2.721,4.812,4.812,0,0,0-.5-5.283,9.857,9.857,0,0,0-1.034-1.107q-6.648-6.654-13.3-13.307a7.759,7.759,0,0,1-1.014-1.119,2.224,2.224,0,0,1,.288-2.9,2.3,2.3,0,0,1,2.923-.219,8.84,8.84,0,0,1,1.115,1.022q5.857,5.845,11.694,11.7a5.188,5.188,0,0,0,3.714,1.776,4.967,4.967,0,0,0,3.844-8.308c-1.342-1.439-2.777-2.8-4.164-4.2a7.986,7.986,0,0,1-.912-1.014,2.163,2.163,0,0,1,.26-2.9,2.328,2.328,0,0,1,2.919-.264,6.811,6.811,0,0,1,.9.807c1.184,1.176,2.335,2.384,3.548,3.532a10.512,10.512,0,0,1,3.106,5.157A8.406,8.406,0,0,1,291.761,363.364Z" transform="translate(-159.1 -313.077)" fill="#926cdc"/><path d="M226.274,302.233c.467.491.8.859,1.15,1.209q3.749,3.758,7.5,7.512a8.3,8.3,0,0,1,.923,1,2.217,2.217,0,0,1-.257,3.019,2.324,2.324,0,0,1-2.93.174,8.4,8.4,0,0,1-1-.922q-3.7-3.7-7.395-7.407a12.829,12.829,0,0,1-1.012-1.366c-.839.829-1.44,1.42-2.037,2.014A16.942,16.942,0,0,1,212.3,312.3a8.988,8.988,0,0,1-1.5.2c-2.577.048-5.155.1-7.732.088a16.492,16.492,0,0,1-9.7-3.309c-.341.294-.692.56-1,.868q-3.172,3.156-6.331,6.326a11.527,11.527,0,0,1-6.915,3.417,11.041,11.041,0,0,1-11.916-8.722,10.9,10.9,0,0,1,3.037-10.008c.941-.988,1.924-1.937,2.893-2.9a2.311,2.311,0,0,1,2.181-.783,2.28,2.28,0,0,1,1.209,3.882c-.963,1.1-2.054,2.091-3.082,3.137a5.985,5.985,0,0,0-1.8,4.206,6.072,6.072,0,0,0,3.572,6,6.353,6.353,0,0,0,7.055-1.018c.339-.3.653-.633.975-.955q3.917-3.913,7.834-7.826c1.525-1.515,2.468-1.564,4.032-.176A12.293,12.293,0,0,0,203.823,308c1.718-.037,3.438-.016,5.157-.006a11.913,11.913,0,0,0,8.728-3.577c2.486-2.448,4.938-4.93,7.408-7.393a8.747,8.747,0,0,1,1-.924,2.2,2.2,0,0,1,3.02.2,2.348,2.348,0,0,1,.136,3.054,6.13,6.13,0,0,1-.726.772C227.812,300.823,227.065,301.5,226.274,302.233Z" transform="translate(-117.432 -280.35)" fill="#926cdc"/><path d="M62.213,270.378q-6.828,0-13.657-.005a5.96,5.96,0,0,1-1.5-.129,2.18,2.18,0,0,1-1.688-2.375,2.114,2.114,0,0,1,2.023-2.07,12.9,12.9,0,0,1,1.515-.041c8.5,0,17-.014,25.493.015a3.509,3.509,0,0,0,2.594-.951c1.3-1.2,2.674-2.318,4.029-3.456a13.9,13.9,0,0,1,9.187-3.373q8.346-.006,16.692,0a5.978,5.978,0,0,1,1.059.037,2.256,2.256,0,0,1,1.853,2.408,2.127,2.127,0,0,1-2,2.088,12.951,12.951,0,0,1-1.364.032c-5.109,0-10.218.037-15.326-.013a10.9,10.9,0,0,0-7.87,2.942c-1.445,1.34-3.005,2.554-4.479,3.864a4.062,4.062,0,0,1-2.9,1.041C71.318,270.356,66.766,270.378,62.213,270.378Z" transform="translate(-45.117 -257.988)" fill="#926cdc"/></g><g transform="translate(55.217)"><path d="M224.035,172.7c.628,1.982,1.237,3.847,1.8,5.725a5.26,5.26,0,0,1,.3,1.77A3.138,3.138,0,0,1,221.92,183a47.382,47.382,0,0,1-5.816-2.532,4.091,4.091,0,0,0-4.236-.013c-1.734.916-3.587,1.6-5.379,2.413a3.271,3.271,0,0,1-4.533-4.082c.611-2.02,1.271-4.027,1.926-6.093q-1.723-2.123-3.434-4.233a19.367,19.367,0,0,1-1.213-1.551,3.9,3.9,0,0,1,2.906-6.1c1.6-.138,3.226-.025,4.949-.025.684-1.087,1.352-2.145,2.016-3.2.455-.727.883-1.472,1.362-2.183,1.866-2.768,5.161-2.768,6.98.017,1.1,1.689,2.139,3.422,3.3,5.282.935.013,1.932.026,2.929.041.656.01,1.317-.019,1.969.04a3.9,3.9,0,0,1,2.921,6.269c-.982,1.4-2.14,2.685-3.217,4.022C224.935,171.574,224.527,172.085,224.035,172.7Zm-3.374,4.753c-.338-1.11-.515-1.934-.836-2.7a4.816,4.816,0,0,1,1.068-5.559c1.049-1.145,1.973-2.4,3.138-3.841-1.251,0-2.239-.005-3.227,0a4.251,4.251,0,0,1-3.916-2.134c-.552-.9-1.116-1.8-1.68-2.7-.384-.611-.776-1.216-1.266-1.982-.82,1.317-1.6,2.38-2.179,3.541a5.358,5.358,0,0,1-5.874,3.283,14.693,14.693,0,0,0-1.948.06c1.244,1.538,2.246,2.86,3.337,4.1a4.491,4.491,0,0,1,.935,4.775c-.341.978-.611,1.98-.974,3.169,1.54-.675,2.882-1.227,4.192-1.848a5.864,5.864,0,0,1,3.546-.453,11,11,0,0,1,2.271.8C218.3,176.4,219.329,176.871,220.661,177.453Z" transform="translate(-191.415 -139.234)" fill="#f90"/><path d="M183.291,139.175a7.289,7.289,0,0,1,1.565.784,21.571,21.571,0,0,1,2.249,2.229,2.292,2.292,0,0,1-.015,3.259,2.331,2.331,0,0,1-3.262-.062,29.315,29.315,0,0,1-2.329-2.364,2.061,2.061,0,0,1-.313-2.392A2.531,2.531,0,0,1,183.291,139.175Z" transform="translate(-180.939 -130.823)" fill="#cbcbcb"/><path d="M230.947,122.454c0-.6-.049-1.211.01-1.808a2.257,2.257,0,0,1,4.451-.307,18.1,18.1,0,0,1,.031,4.054,2.266,2.266,0,0,1-4.489-.281c-.051-.548-.009-1.1-.009-1.658Z" transform="translate(-210.658 -118.577)" fill="#cbcbcb"/><path d="M277.739,146.231a2.228,2.228,0,0,1-2.252-1.174,1.937,1.937,0,0,1,.092-2.271,26.252,26.252,0,0,1,2.85-2.887,2.253,2.253,0,0,1,2.9.219,2.227,2.227,0,0,1,.251,2.894,30.028,30.028,0,0,1-2.875,2.863A2.266,2.266,0,0,1,277.739,146.231Z" transform="translate(-236.96 -130.996)" fill="#cbcbcb"/></g><path d="M364.941,396.06a8.75,8.75,0,0,1-.681.653C364.475,396.514,364.7,396.3,364.941,396.06Z" transform="translate(-234.713 -275.638)"/></g></svg>