<svg xmlns="http://www.w3.org/2000/svg" width="108" height="108" viewBox="0 0 108 108"><rect width="108" height="108" opacity="0"/><g transform="translate(5695.614 225.523)"><path d="M-5682.486-193.149c.151-.771.275-1.548.457-2.312,1.925-8.153,6.873-13.615,14.863-16.05a21.037,21.037,0,0,1,26.289,15.133,20.807,20.807,0,0,1-2.407,16.266,23.273,23.273,0,0,1-1.784,2.324,18.848,18.848,0,0,0-3.575,7.529,4.2,4.2,0,0,1-1.409,2.591,20.052,20.052,0,0,1-1.93,1.149c0,.566-.015,1.277,0,1.986a4.154,4.154,0,0,1-2.547,4.192.746.746,0,0,0-.134.114c-1.023,3.323-3.158,5.377-6.766,5.344-3.532-.033-5.616-2.08-6.621-5.378a4.7,4.7,0,0,1-1.852-1.429,4.106,4.106,0,0,1-.82-2.438c0-.842,0-1.684,0-2.52-.287-.107-.508-.183-.724-.271a3.925,3.925,0,0,1-2.466-2.8,22.714,22.714,0,0,0-1.585-4.637,19.6,19.6,0,0,0-2.846-4.283,16.114,16.114,0,0,1-3.135-6c-.4-1.279-.577-2.625-.859-3.94a3.752,3.752,0,0,0-.151-.435Zm25.773,23.978c1.253,0,2.416.006,3.579,0,1.229-.009,1.684-.4,1.964-1.619a21.677,21.677,0,0,1,4.836-9.513,6.728,6.728,0,0,0,.691-.867,18.319,18.319,0,0,0,2.356-14.243,18.578,18.578,0,0,0-21.058-14.127,18.138,18.138,0,0,0-11.075,6.292,18.187,18.187,0,0,0-3.73,17.459,14.3,14.3,0,0,0,3.071,5.843,17.45,17.45,0,0,1,1.557,2.1,21.139,21.139,0,0,1,3,7.116,1.67,1.67,0,0,0,1.938,1.557c.5.006,1.006,0,1.509,0h2.064v-13.181c-.632,0-1.211.007-1.791,0a4.326,4.326,0,0,1-4.111-5.437,4.322,4.322,0,0,1,4.69-3.181,4.329,4.329,0,0,1,3.806,4.277c-.027.573,0,1.148,0,1.735h4.137c0-.636-.005-1.216,0-1.8a4.3,4.3,0,0,1,5.507-4.076,4.314,4.314,0,0,1,3.062,4.915,4.328,4.328,0,0,1-4.252,3.563c-.574.006-1.147,0-1.749,0Zm-6.669-.059h4.05c.153-1.767.085-12.535-.073-13.08h-3.978Zm-4.788,2.648c0,.755-.006,1.414,0,2.073.013,1.328.563,1.887,1.874,1.89,2.22.006,4.44,0,6.66,0,1.163,0,2.325.012,3.488-.007a1.41,1.41,0,0,0,1.55-1.28,26.413,26.413,0,0,0,.021-2.678Zm3,6.585a4.133,4.133,0,0,0,4.041,2.6,3.933,3.933,0,0,0,3.535-2.6Zm-.8-24.929c0-.686.039-1.269-.009-1.845a1.724,1.724,0,0,0-1.785-1.644,1.7,1.7,0,0,0-1.71,1.535,1.706,1.706,0,0,0,1.546,1.94A17.4,17.4,0,0,0-5665.964-184.925Zm9.229-.007a16.51,16.51,0,0,0,1.992-.015,1.69,1.69,0,0,0,1.511-1.891,1.7,1.7,0,0,0-1.671-1.577,1.723,1.723,0,0,0-1.823,1.6C-5656.781-186.214-5656.736-185.608-5656.736-184.932Z" transform="translate(0 0)" fill="#fff"/><path d="M-5480.86,14.106a2.391,2.391,0,0,1-.875-1.52c-.228-1.217-.528-2.421-.8-3.647l-2.171-.915-2.86,1.81c-.224.141-.441.293-.671.423a1.336,1.336,0,0,1-1.8-.214c-.855-.83-1.689-1.681-2.532-2.524-.543-.543-1.092-1.08-1.627-1.631a1.368,1.368,0,0,1-.225-1.985c.628-1.011,1.275-2.01,1.912-3.015.084-.132.155-.273.242-.428l-.9-2.15c-1.277-.291-2.563-.582-3.847-.878-1.061-.245-1.321-.565-1.323-1.629q0-2.82,0-5.64c0-1.086.256-1.409,1.3-1.648,1.26-.289,2.522-.573,3.855-.875l.926-2.17-1.181-1.866c-.284-.447-.569-.892-.852-1.339-.669-1.058-.627-1.493.239-2.362q1.879-1.884,3.763-3.764c.075-.075.147-.153.225-.224a1.353,1.353,0,0,1,1.866-.2c.878.54,1.74,1.107,2.612,1.659.288.183.584.355.889.54l2.149-.9c.293-1.285.584-2.57.88-3.854.245-1.058.563-1.315,1.634-1.316q2.861,0,5.72,0c.97,0,1.335.291,1.55,1.228.3,1.286.581,2.574.884,3.927l2.175.924,2.943-1.861c.157-.1.31-.2.468-.3a1.372,1.372,0,0,1,1.989.2c1.113,1.1,2.212,2.207,3.316,3.312.281.281.571.554.841.844a1.353,1.353,0,0,1,.191,1.868c-.583.946-1.191,1.875-1.786,2.813-.141.221-.268.45-.407.683l.9,2.149c1.289.294,2.575.584,3.859.88,1.048.241,1.3.564,1.306,1.644q0,2.82,0,5.64c0,1.065-.264,1.388-1.32,1.633-1.26.291-2.521.576-3.843.877l-.917,2.172c.684,1.077,1.365,2.145,2.042,3.216.656,1.037.606,1.487-.267,2.362q-1.879,1.884-3.762,3.764a1.494,1.494,0,0,1-2.3.269c-1.072-.68-2.142-1.361-3.244-2.062l-2.189.9c-.276,1.234-.576,2.437-.805,3.654a2.416,2.416,0,0,1-.873,1.521Zm-7.83-35.662-3.048,3.038c.616.968,1.276,2.019,1.952,3.061a1.5,1.5,0,0,1,.126,1.568c-.437.958-.827,1.939-1.217,2.918a1.426,1.426,0,0,1-1.061.966c-.619.134-1.235.28-1.853.423l-1.963.456v4.185c.189.055.337.108.49.142,1.031.228,2.062.456,3.1.674a1.607,1.607,0,0,1,1.293,1.033c.39,1.007.812,2,1.246,2.992a1.356,1.356,0,0,1-.077,1.357q-.465.738-.933,1.475c-.394.623-.785,1.248-1.157,1.838l2.979,2.992c.2-.119.424-.249.645-.388.872-.55,1.748-1.1,2.613-1.657a1.44,1.44,0,0,1,1.5-.088c.96.433,1.939.826,2.918,1.216a1.412,1.412,0,0,1,.964,1.062c.086.413.182.825.276,1.236.2.867.4,1.733.6,2.578h4.176a2.642,2.642,0,0,0,.128-.335c.225-1,.487-2,.651-3.018A1.882,1.882,0,0,1-5472.9,6.5a10.7,10.7,0,0,0,2.19-.9,1.845,1.845,0,0,1,2.2.109c.95.664,1.952,1.253,2.893,1.85l2.991-2.991c-.11-.185-.24-.412-.38-.632-.538-.849-1.071-1.7-1.622-2.541a1.529,1.529,0,0,1-.09-1.639c.433-.9.81-1.833,1.158-2.772a1.5,1.5,0,0,1,1.16-1.064c.62-.129,1.238-.267,1.855-.409.635-.145,1.269-.3,1.885-.445V-9.1a2.586,2.586,0,0,0-.334-.129c-1-.224-2-.486-3.018-.652a1.886,1.886,0,0,1-1.665-1.455,10.731,10.731,0,0,0-.9-2.19,1.846,1.846,0,0,1,.111-2.2c.665-.95,1.254-1.953,1.78-2.782l-2.993-3.079c-.984.628-2.011,1.278-3.032,1.937a1.555,1.555,0,0,1-1.638.169c-.954-.447-1.937-.829-2.917-1.22a1.414,1.414,0,0,1-.966-1.058c-.137-.645-.285-1.288-.433-1.931s-.3-1.269-.456-1.933h-4.195c-.268,1.211-.546,2.337-.761,3.475a1.848,1.848,0,0,1-1.364,1.566,17.132,17.132,0,0,0-2.407,1,1.7,1.7,0,0,1-1.919-.1C-5486.745-20.361-5487.766-20.972-5488.69-21.556Z" transform="translate(-145.055 -145.122)" fill="#fff"/><path d="M-5462.991-136.429v-18.084h-14.79a6.016,6.016,0,0,1-.634-.009,1.263,1.263,0,0,1-1.172-1.271,1.233,1.233,0,0,1,1.175-1.254c.236-.023.476-.016.714-.016,5.137,0,10.274.031,15.411-.019,1.625-.015,1.924.707,1.917,1.93-.031,5.931-.014,11.863-.014,17.794v1.036c.713-.71,1.309-1.3,1.9-1.9a1.323,1.323,0,0,1,1.2-.469,1.267,1.267,0,0,1,.878,1.95,2.824,2.824,0,0,1-.41.482c-1.233,1.239-2.464,2.479-3.708,3.707-.861.85-1.45.845-2.306,0q-1.86-1.848-3.708-3.706c-.093-.094-.192-.183-.278-.284a1.248,1.248,0,0,1,0-1.784,1.226,1.226,0,0,1,1.78-.04c.535.472,1.02,1,1.531,1.5C-5463.36-136.725-5463.2-136.6-5462.991-136.429Z" transform="translate(-159.826 -43.57)" fill="#fff"/><path d="M-5608.179,73.357c-.584.583-1.045,1.046-1.51,1.506a6.53,6.53,0,0,1-.632.6,1.283,1.283,0,0,1-1.669-.1,1.222,1.222,0,0,1-.112-1.661q2.171-2.262,4.428-4.439a1.205,1.205,0,0,1,1.663.068c.358.313.683.664,1.021,1q1.46,1.459,2.918,2.92a4.929,4.929,0,0,1,.383.4,1.236,1.236,0,0,1-.058,1.722,1.235,1.235,0,0,1-1.722.074,14.113,14.113,0,0,1-1.138-1.106c-.273-.283-.522-.591-.832-.945a78.156,78.156,0,0,0-.1,9.287c.284.015.588.044.893.045q8.3,0,16.6.005a5.055,5.055,0,0,1,1.023.08,1.212,1.212,0,0,1,.99,1.179,1.239,1.239,0,0,1-.909,1.248,2.786,2.786,0,0,1-.781.093q-9.369.007-18.739,0c-1.264,0-1.712-.457-1.713-1.73q0-4.606,0-9.211Z" transform="translate(-55.224 -221.623)" fill="#fff"/><path d="M-5438.4,42.436a10.679,10.679,0,0,1-10.658-10.705A10.751,10.751,0,0,1-5438.3,21.11a10.763,10.763,0,0,1,10.581,10.645A10.684,10.684,0,0,1-5438.4,42.436Zm.024-18.762a8.123,8.123,0,0,0-8.119,8.056,8.086,8.086,0,0,0,8.014,8.154,8.115,8.115,0,0,0,8.2-8.131A8.133,8.133,0,0,0-5438.376,23.673Z" transform="translate(-183.873 -183.934)" fill="#fff"/></g></svg>