<svg xmlns="http://www.w3.org/2000/svg" width="140" height="140" viewBox="0 0 140 140"><g transform="translate(-387 -2447)"><rect width="140" height="140" transform="translate(387 2447)" opacity="0"/><g transform="translate(54.886 2417.685)"><path d="M551.487,140.971c.5.33.961.586,1.364.919a5.108,5.108,0,0,1,1.953,3.835,41.61,41.61,0,0,1-.007,4.22,5.219,5.219,0,0,1-3.085,4.578c-.125.063-.246.134-.457.25a7.291,7.291,0,0,1-3.028,6.129,7.024,7.024,0,0,1-4.882,1.334,7.307,7.307,0,0,1-6.594-7.459c-.181-.1-.389-.221-.6-.338a5.427,5.427,0,0,1-2.962-4.892c-.028-1.091-.019-2.183,0-3.275a5.4,5.4,0,0,1,3.029-5.056c.092-.048.175-.111.322-.206a4.129,4.129,0,0,0-.75-1.894,13.261,13.261,0,0,0-3.011-3.231c-1.09-.891-2.221-1.732-3.319-2.613a23.192,23.192,0,0,1-8.586-15.141,23.7,23.7,0,0,1,3.438-16.886,23.153,23.153,0,0,1,16.214-10.762c6.778-1.135,12.841.79,18.137,5.062a22.764,22.764,0,0,1,8.453,14.543,24.337,24.337,0,0,1-5.665,20.468,30.53,30.53,0,0,1-3.922,3.52,29.214,29.214,0,0,0-4.491,3.987A16.215,16.215,0,0,0,551.7,140.2,3.106,3.106,0,0,0,551.487,140.971ZM538.6,120.815c-.5,0-.92.021-1.332-.005a11.59,11.59,0,0,1-1.673-.172,5.356,5.356,0,0,1-4.105-4.21,5.416,5.416,0,1,1,10.736-1.009c.023.581.035,1.162.052,1.731h3.566c0-.756-.028-1.454.005-2.149a5.365,5.365,0,0,1,6.25-4.942,5.409,5.409,0,0,1-.8,10.749c-.588.024-1.178,0-1.8,0v15.9a31.85,31.85,0,0,1,6.362-5.915,17.669,17.669,0,0,0,2.956-2.7,20.995,20.995,0,0,0-4.478-31.177,17.768,17.768,0,0,0-16.925-1.908,20.923,20.923,0,0,0-11.533,27.767,20.321,20.321,0,0,0,7.228,8.75,24.742,24.742,0,0,1,5.011,4.659,4.19,4.19,0,0,0,.482.421Zm5.439,23.445c-1.724,0-3.448-.012-5.172,0a1.838,1.838,0,0,0-2.08,2.077c-.018.985-.016,1.97,0,2.955.024,1.462.692,2.157,2.127,2.163q5.119.022,10.238,0a1.81,1.81,0,0,0,2.05-2c.028-1.055.024-2.111,0-3.166-.03-1.428-.643-2.019-2.1-2.031C547.42,144.25,545.731,144.26,544.042,144.26Zm1.723-3.655v-19.79c-.627,0-1.187-.02-1.745.005a5.087,5.087,0,0,0-1.737.108c-.176,2.488-.1,18.821.1,19.677Zm-5.305,14.524a3.568,3.568,0,0,0,3.909,3.52,3.314,3.314,0,0,0,3.09-3.52Zm8.994-37.88a16.653,16.653,0,0,0,2.265-.172,1.7,1.7,0,0,0,1.3-1.906,1.763,1.763,0,0,0-1.823-1.551,1.7,1.7,0,0,0-1.728,1.524C549.4,115.795,549.453,116.458,549.453,117.25Zm-10.961-.049a4.261,4.261,0,0,0,.022-2.28,1.737,1.737,0,0,0-2.119-1.267,1.762,1.762,0,0,0-1.335,2.078,1.791,1.791,0,0,0,1.7,1.46C537.319,117.239,537.883,117.2,538.492,117.2Z" transform="translate(-123.764 -32.19)" fill="#926cdc"/><g transform="translate(384.218 45.337)"><path d="M671.4,88.367a1.806,1.806,0,0,1-1.573-2.644,3.391,3.391,0,0,1,.6-.732c1.088-1.1,2.214-2.165,3.272-3.293a1.853,1.853,0,1,1,2.55,2.6c-1.156,1.079-2.25,2.226-3.364,3.351A2.256,2.256,0,0,1,671.4,88.367Z" transform="translate(-614.97 -70.903)" fill="#926cdc"/><path d="M518.8,86.49a1.773,1.773,0,0,1-2.549,1.647,3.038,3.038,0,0,1-.743-.578c-1.151-1.136-2.286-2.288-3.434-3.427a1.877,1.877,0,0,1-.635-1.9,1.78,1.78,0,0,1,2.942-.864c.689.6,1.305,1.278,1.953,1.923q.934.93,1.865,1.863A1.742,1.742,0,0,1,518.8,86.49Z" transform="translate(-501.397 -70.875)" fill="#926cdc"/><path d="M704.071,170.286c-.876,0-1.753.018-2.629,0a1.8,1.8,0,1,1,0-3.586c1.718-.03,3.436-.012,5.154-.006a1.828,1.828,0,0,1,1.719,1.006,1.664,1.664,0,0,1-.106,1.792,1.7,1.7,0,0,1-1.511.8Z" transform="translate(-636.424 -132.445)" fill="#926cdc"/><path d="M600.942,49.853c0,.911.045,1.825-.01,2.733a1.78,1.78,0,0,1-2.519,1.649,1.715,1.715,0,0,1-1.064-1.669c0-1.787-.023-3.576.008-5.363a1.753,1.753,0,0,1,1.785-1.809,1.842,1.842,0,0,1,1.792,1.725,5.947,5.947,0,0,1,.012.631q0,1.051,0,2.1Z" transform="translate(-563.097 -45.395)" fill="#926cdc"/><path d="M480.5,170.262c-.88,0-1.761.022-2.64-.005a1.788,1.788,0,1,1-.057-3.575q2.691-.07,5.385,0a1.788,1.788,0,1,1-.048,3.575C482.258,170.284,481.377,170.262,480.5,170.262Z" transform="translate(-476.021 -132.421)" fill="#926cdc"/></g><g transform="translate(348.114 45.315)"><path d="M348.114,108.09a14.273,14.273,0,0,1,2.429-4.039,68.355,68.355,0,0,0,7.8-12.643c.163-.342.279-.706.4-1.014a6.47,6.47,0,0,0-1.673-1.982,14.471,14.471,0,0,1-1.586-1.821,4.922,4.922,0,0,1-.514-4.638,13.927,13.927,0,0,1,.584-1.469,41.232,41.232,0,0,0,2.934-8.668A34.108,34.108,0,0,1,364.7,59a26.888,26.888,0,0,1,12.012-8.811,60.141,60.141,0,0,1,11.313-2.938q4.62-.826,9.282-1.412a48.067,48.067,0,0,1,11.8-.27c.733.088,1.458.254,2.193.315a1.8,1.8,0,1,1-.589,3.541,36.669,36.669,0,0,0-8.315-.432q-4.521.378-9.02,1.006A95.21,95.21,0,0,0,381.9,52.292a37.57,37.57,0,0,0-6.034,2.206,23.808,23.808,0,0,0-10.391,9.743,33.806,33.806,0,0,0-4.014,10.492,27.09,27.09,0,0,1-1.812,5.387c-.391.865-.787,1.729-1.121,2.616a9.573,9.573,0,0,0-.323,1.4,5.952,5.952,0,0,0,1.766,1.994,6.5,6.5,0,0,1,1.856,2.4,4.525,4.525,0,0,1-.041,4.069,73.987,73.987,0,0,1-6.375,10.926c-.879,1.232-1.815,2.423-2.706,3.646-.369.506-.688,1.048-1.026,1.569a6.7,6.7,0,0,0,2.15,1.647c.546.32,1.121.589,1.674.9,2.966,1.655,3.665,4.184,2.384,7.382-.31.773-.75,1.495-1.164,2.307.663.513,1.3,1,1.934,1.5a1.865,1.865,0,0,1,.506,2.837c-.185.293-.362.59-.578.942a2.968,2.968,0,0,0,.434.334,5.721,5.721,0,0,1,3.167,7.044,8.309,8.309,0,0,0,.14,4.874,3.217,3.217,0,0,0,4.078,2.206,167.832,167.832,0,0,0,17.029-5.231c2.354-.829,4.72-1.623,7.076-2.446a19.117,19.117,0,0,0,4.475-2.106,14.71,14.71,0,0,0,1.881-1.522,4.49,4.49,0,0,0,1.3-3.029,1.663,1.663,0,0,1,1.631-1.619,1.769,1.769,0,0,1,1.915,2,7.262,7.262,0,0,1-1.157,3.787,10.759,10.759,0,0,1-2.623,2.724,25.755,25.755,0,0,1-7.376,3.567c-1.464.492-2.92,1.007-4.525,1.563a29.418,29.418,0,0,1,6.3,11.406h40.708c-.023-.215,0-.328-.048-.4a33.91,33.91,0,0,1-4-9.71,65.341,65.341,0,0,1-1.716-9.221,1.8,1.8,0,0,1,1.487-2.087,1.735,1.735,0,0,1,2.039,1.529c.24,1.278.37,2.576.6,3.856a43.086,43.086,0,0,0,2.977,10.525c.567,1.242,1.316,2.4,1.974,3.6.505.924,1.029,1.839,1.488,2.786a1.848,1.848,0,0,1-1.837,2.707c-2.04-.069-4.085-.013-6.128,0a8.582,8.582,0,0,0-1.018.126H390.383a3.487,3.487,0,0,1-1.337-2.032c-.5-1.606-1.1-3.184-1.759-4.734a18.514,18.514,0,0,0-2.951-4.847,7.883,7.883,0,0,0-2.446-2.1,137.19,137.19,0,0,1-14.972,4.484,6.637,6.637,0,0,1-7.581-3.582,10.561,10.561,0,0,1-.917-6.675c.142-.722.252-1.452.339-2.183a1.644,1.644,0,0,0-.91-1.75c-.552-.309-1.087-.648-1.628-.976a2.632,2.632,0,0,1-1.367-2.846c.092-.582.269-1.151.423-1.794-.518-.441-1.085-.9-1.631-1.392a2.124,2.124,0,0,1-.7-2.378,12.9,12.9,0,0,1,.62-1.559c.285-.6.629-1.177.931-1.773a2.963,2.963,0,0,0,.268-2.162,8.475,8.475,0,0,0-.9-.711c-.569-.347-1.183-.621-1.755-.963-.723-.432-1.443-.875-2.129-1.362a6.848,6.848,0,0,1-1.867-2.623Z" transform="translate(-348.114 -45.315)" fill="#555"/><path d="M408.795,105.943a1.712,1.712,0,0,1-1.774-2.087c.169-1.038.434-2.062.693-3.083a28.094,28.094,0,0,1,4.3-9.324,20.816,20.816,0,0,1,9.828-7.5,20.387,20.387,0,0,1,2.211-.692,1.747,1.747,0,0,1,2.324,1.2,1.8,1.8,0,0,1-1.362,2.244c-1.156.412-2.334.785-3.448,1.3-4.172,1.913-6.879,5.236-8.814,9.287a30.671,30.671,0,0,0-2.095,6.615,5.3,5.3,0,0,1-.241.916A1.691,1.691,0,0,1,408.795,105.943Z" transform="translate(-390.372 -72.483)" fill="#91ddea"/><path d="M401.024,173.26a1.719,1.719,0,0,1,1.76,1.812,1.8,1.8,0,0,1-1.736,1.764,1.863,1.863,0,0,1-1.844-1.792A1.79,1.79,0,0,1,401.024,173.26Z" transform="translate(-384.783 -137.145)" fill="#91ddea"/></g></g></g></svg>