<svg xmlns="http://www.w3.org/2000/svg" width="78.478" height="78.512" viewBox="0 0 78.478 78.512"><g transform="translate(5029.571 2136.887)"><path d="M-5029.571-1926.606c.092-.2.188-.4.277-.606a3.77,3.77,0,0,1,3.475-2.454c.889-.038,1.781-.007,2.725-.007.036-.544.039-1.026.1-1.5a1.216,1.216,0,0,1,1.391-1.108,1.328,1.328,0,0,1,1.2,1.351c.026.378,0,.759,0,1.241h9.755c.255,0,.512-.006.766.016a1.3,1.3,0,0,1,1.226,1.24,1.321,1.321,0,0,1-1.132,1.336,5.154,5.154,0,0,1-.764.023h-14.481c-1.526,0-1.937.417-1.937,1.966q0,5.863,0,11.725c0,.179-.01.358,0,.536a1.348,1.348,0,0,0,1.522,1.432c2.554.01,5.108,0,7.662,0,2.426,0,4.852,0,7.278.005a3.451,3.451,0,0,1,.978.129,1.263,1.263,0,0,1,.876,1.219,1.28,1.28,0,0,1-.978,1.222,4.038,4.038,0,0,1-.909.1q-7.317.009-14.633,0a6.036,6.036,0,0,1-1.513-.176,3.8,3.8,0,0,1-2.662-2.428c-.072-.185-.157-.366-.235-.549Z" transform="translate(0 -173.182)" fill="#91ddea"/><path d="M-4846.707-1951.845l-2.169-2.143a22,22,0,0,1-18.082,5.292,21.471,21.471,0,0,1-14.389-8.5,22.271,22.271,0,0,1,2.111-29.516,22.363,22.363,0,0,1,30.263-.893,22.445,22.445,0,0,1,2.165,31.577l2.191,2.132.6-.7c.892-1.043,1.729-1.093,2.764-.053,2.4,2.408,4.85,4.76,7.281,7.134,1,.982,2.02,1.954,3.014,2.946a4.433,4.433,0,0,1,1.408,3.283,4.37,4.37,0,0,1-2.61,4.164,4.422,4.422,0,0,1-4.939-.636,5.725,5.725,0,0,1-.45-.417l-10.245-10.022c-.109-.107-.224-.21-.324-.326a1.313,1.313,0,0,1,.02-1.979C-4847.664-1950.97-4847.18-1951.391-4846.707-1951.845Zm-16.818.777a19.588,19.588,0,0,0,19.564-19.6,19.475,19.475,0,0,0-19.613-19.6,19.455,19.455,0,0,0-19.56,19.576A19.543,19.543,0,0,0-4863.525-1951.069Zm18.243,1.647,7.395,7.217,2.729-2.738c-1.453-1.6-7.005-6.945-7.433-7.173Zm12.141,6.439c-.841.847-1.628,1.638-2.414,2.431-.088.09-.171.186-.272.3a2,2,0,0,0,2.107.894,1.793,1.793,0,0,0,1.451-1.385A2.048,2.048,0,0,0-4833.142-1942.983Z" transform="translate(-121.557 -121.734)" fill="#926cdc"/><path d="M-4576.111-1904.941c0,2.2.013,4.393,0,6.589a3.856,3.856,0,0,1-2.913,3.761,6.256,6.256,0,0,1-1.439.163c-1.43.02-2.86.012-4.29,0a3.746,3.746,0,0,1-.832-.1,1.2,1.2,0,0,1-.954-1.142,1.216,1.216,0,0,1,.842-1.3,3.077,3.077,0,0,1,.9-.127c1.481-.013,2.963-.042,4.442.006a1.453,1.453,0,0,0,1.642-1.64c0-4.137.006-8.275-.005-12.412,0-1.127-.521-1.615-1.662-1.621-1.507-.008-3.014,0-4.52-.007a2.551,2.551,0,0,1-.825-.11,1.219,1.219,0,0,1-.8-1.4,1.2,1.2,0,0,1,1.114-1.074c.431-.04.867-.026,1.3-.025,1.43,0,2.86.012,4.29.013a3.9,3.9,0,0,1,3.711,3.757c0,.051,0,.1,0,.153Q-4576.111-1908.2-4576.111-1904.941Z" transform="translate(-374.99 -187.491)" fill="#91ddea"/><path d="M-4987.055-1876.056c0-1.123,0-2.245,0-3.368a4.691,4.691,0,0,1,.063-.837,1.22,1.22,0,0,1,1.086-1.024,1.265,1.265,0,0,1,1.351.783,1.867,1.867,0,0,1,.142.667c.01,2.526.023,5.052,0,7.578a1.288,1.288,0,0,1-1.459,1.387,1.193,1.193,0,0,1-1.113-.982,4.472,4.472,0,0,1-.065-.836C-4987.059-1873.811-4987.055-1874.934-4987.055-1876.056Z" transform="translate(-35.986 -216.341)" fill="#91ddea"/><path d="M-5006.734-2136.887c.2.1.411.19.609.3a2.437,2.437,0,0,1,1.377,2.142c.032.994.037,1.99,0,2.984a2.5,2.5,0,0,1-2.338,2.393c-.3.023-.611.024-.917.024q-9.144,0-18.289,0c-.229,0-.459,0-.688-.008a2.549,2.549,0,0,1-2.422-1.672c-.05-.115-.111-.225-.166-.338v-3.833c.137-.263.266-.531.413-.788a3.3,3.3,0,0,1,1.579-1.2Zm-.643,2.672c-1.346-.142-18.99-.089-19.546.053v2.454h19.546Z" fill="#555"/><path d="M-4628.713-2136.887c.156.078.312.156.467.235a2.551,2.551,0,0,1,1.519,2.374c.012.893.018,1.787,0,2.68a2.544,2.544,0,0,1-2.452,2.536c-.254.016-.51.018-.765.018q-6.585,0-13.169,0c-.281,0-.562,0-.841-.024a2.534,2.534,0,0,1-2.372-2.454c-.028-.893-.009-1.787-.008-2.68a2.588,2.588,0,0,1,1.66-2.514c.112-.051.219-.114.329-.171Zm-14.979,5.162c1.344.137,13.77.085,14.361-.065,0-.393.017-.8,0-1.2a3.047,3.047,0,0,0-.088-1.241h-14.269Z" transform="translate(-324.377)" fill="#555"/><path d="M-5029.571-2066.975a1.539,1.539,0,0,0,.158-.244,2.646,2.646,0,0,1,2.556-1.729c.841-.026,1.684-.006,2.526-.006,2.5,0,5,0,7.5,0a3.062,3.062,0,0,1,1.815.488,2.21,2.21,0,0,1,1.068,1.689,27.148,27.148,0,0,1,0,3.509,2.359,2.359,0,0,1-2.085,2.128,18.128,18.128,0,0,1-2.136.1c-.71.014-1.42,0-2.227,0a6.373,6.373,0,0,1-.013,1.1,2.523,2.523,0,0,1-.384,1.048,1.119,1.119,0,0,1-1.24.371,1.158,1.158,0,0,1-.945-.978c-.072-.474-.077-.958-.115-1.486-.213-.021-.407-.056-.6-.057-.97-.006-1.94,0-2.91,0a2.737,2.737,0,0,1-2.858-1.859c-.014-.038-.075-.058-.114-.086Zm2.637,3.2h10.363v-2.472h-10.363Z" transform="translate(0 -57.495)" fill="#555"/><path d="M-4837.105-2136.887a3.16,3.16,0,0,1,1.97,3.5c-.039.533,0,1.072-.009,1.607a2.691,2.691,0,0,1-2.763,2.748c-3.418-.027-6.837-.02-10.256,0a2.67,2.67,0,0,1-2.73-2.767c.029-.739.006-1.48,0-2.22a2.648,2.648,0,0,1,1.81-2.722.774.774,0,0,0,.173-.136Zm-.762,2.656H-4848.2v2.512c1.375.132,9.794.079,10.332-.059Z" transform="translate(-151.236)" fill="#555"/><path d="M-4723.052-2136.887c.177.092.354.183.53.276a2.526,2.526,0,0,1,1.449,2.257c.03.916.025,1.835,0,2.751a2.509,2.509,0,0,1-2.446,2.53q-2.787.069-5.577,0a2.423,2.423,0,0,1-2.4-2.314c-.071-.988-.054-1.985-.026-2.977a2.533,2.533,0,0,1,1.583-2.329,2.429,2.429,0,0,0,.292-.194Zm-5.79,2.627v2.537h5.163c0-.457.017-.862,0-1.264a3.031,3.031,0,0,0-.1-1.273Z" transform="translate(-252.262)" fill="#555"/><path d="M-4778.611-2068.924q4.709,0,9.419,0a2.961,2.961,0,0,1,1.68.418,2.494,2.494,0,0,1,1.233,2.159c.009.919.02,1.838,0,2.757a2.522,2.522,0,0,1-2.16,2.491,5.915,5.915,0,0,1-.989.084q-9.265.007-18.531,0a5.952,5.952,0,0,1-1.063-.1,2.516,2.516,0,0,1-2.075-2.407c-.029-.918-.024-1.838-.006-2.757a2.616,2.616,0,0,1,2.462-2.632c.228-.021.459-.012.689-.012Zm9.707,2.725c-1.1-.139-19.009-.1-19.549.033v2.414h19.549Z" transform="translate(-201.834 -57.524)" fill="#555"/><path d="M-4902.672-2068.937c1.684,0,3.369-.015,5.054.005a2.655,2.655,0,0,1,2.684,2.071,2.7,2.7,0,0,1,.065.605c.007.843-.014,1.685.007,2.527a2.629,2.629,0,0,1-2.292,2.634,8.9,8.9,0,0,1-.914.064q-4.632.007-9.265,0h-.077a2.826,2.826,0,0,1-3.2-3.191c.025-.612-.009-1.226.007-1.838a2.714,2.714,0,0,1,2.956-2.88C-4905.99-2068.944-4904.331-2068.937-4902.672-2068.937Zm5.145,2.7h-10.344v2.452c1.194.155,9.805.1,10.344-.06Z" transform="translate(-100.688 -57.511)" fill="#555"/><path d="M-4605.159-2061.043c-1.352,0-2.7.005-4.057,0a6.166,6.166,0,0,1-.988-.083,2.557,2.557,0,0,1-2.183-2.483c-.029-.892-.023-1.787,0-2.679a2.643,2.643,0,0,1,2.614-2.653c.688-.031,1.378-.009,2.067-.009,2.3,0,4.593-.009,6.889,0a2.643,2.643,0,0,1,2.717,1.92,2.19,2.19,0,0,1,.1.6c.01.944.022,1.889,0,2.833a2.536,2.536,0,0,1-2.108,2.46,6.281,6.281,0,0,1-1.063.093C-4602.5-2061.037-4603.832-2061.043-4605.159-2061.043Zm4.516-5.208h-9.081v2.48h9.081Z" transform="translate(-353.102 -57.495)" fill="#555"/><path d="M-4984.232-1980.826a11.663,11.663,0,0,1-.009,1.371,1.3,1.3,0,0,1-1.883,1.107,1.084,1.084,0,0,1-.683-.938c-.024-1.014-.052-2.031,0-3.042a1.157,1.157,0,0,1,1.169-1.084,1.178,1.178,0,0,1,1.307.924,12.044,12.044,0,0,1,.152,1.659Z" transform="translate(-36.172 -129.904)" fill="#555"/><path d="M-4816.736-1940.975a17.02,17.02,0,0,1-17,16.985,17,17,0,0,1-17-17.063,16.935,16.935,0,0,1,17.04-16.95A16.974,16.974,0,0,1-4816.736-1940.975Zm-16.288-14.343a14.3,14.3,0,0,0-15.062,14.071,14.3,14.3,0,0,0,13.8,14.6,14.3,14.3,0,0,0,14.906-13.8A14.277,14.277,0,0,0-4833.024-1955.318Z" transform="translate(-151.374 -151.413)" fill="#926cdc"/><path d="M-4793.486-1873.017c.187-.332.33-.564.451-.806q1.591-3.178,3.178-6.358a3.832,3.832,0,0,1,.431-.717,1.226,1.226,0,0,1,1.512-.371,1.233,1.233,0,0,1,.754,1.363,2.4,2.4,0,0,1-.235.72q-2.472,4.957-4.958,9.907a2.817,2.817,0,0,1-.184.334,1.29,1.29,0,0,1-2.3-.134c-.36-.756-.621-1.56-.917-2.346-.529-1.406-1.051-2.814-1.579-4.22-.059-.156-.138-.3-.259-.566-.138.326-.241.548-.328.777q-1.074,2.86-2.143,5.721a5.057,5.057,0,0,1-.3.7,1.291,1.291,0,0,1-2.221.134,4.843,4.843,0,0,1-.372-.667q-2.358-4.716-4.71-9.433a4.708,4.708,0,0,1-.31-.7,1.283,1.283,0,0,1,.64-1.558,1.233,1.233,0,0,1,1.627.386,4.616,4.616,0,0,1,.42.725q1.61,3.21,3.212,6.424c.112.224.238.44.4.738.872-2.33,1.708-4.569,2.548-6.806a6.818,6.818,0,0,1,.381-.916,1.285,1.285,0,0,1,2.295-.026,5.45,5.45,0,0,1,.355.844q1.155,3.074,2.306,6.15C-4793.709-1873.511-4793.615-1873.316-4793.486-1873.017Z" transform="translate(-187.516 -216.252)" fill="#91ddea"/></g></svg>