<svg xmlns="http://www.w3.org/2000/svg" width="140" height="140" viewBox="0 0 140 140"><g transform="translate(-1319 -2447)"><rect width="140" height="140" transform="translate(1319 2447)" opacity="0"/><g transform="translate(1709 1858.05)"><path d="M-272.317,742.778a7,7,0,0,0-5.394-5.029,14.3,14.3,0,0,0-1.418-.186c-.024-.172-.056-.32-.064-.468a4.224,4.224,0,0,0-3.155-4.158q-1.464-.478-2.951-.894c-.832-.234-1.675-.425-2.481-.628l-.564,2.839c.347.067.675.111.993.2,1.381.38,2.758.774,4.137,1.162a1.55,1.55,0,0,1,1.2,1.669c0,.311.007.624.007.935v50.155a64.266,64.266,0,0,0-36.545-.141v-52.17a17.986,17.986,0,0,1,4.188-1.33l-.626-2.889,0-.023c-1.628.571-3.176,1.128-4.737,1.643a1.394,1.394,0,0,1-.791-.086c-.946-.309-1.872-.688-2.826-.969a51.129,51.129,0,0,0-9.391-1.628c-1.334-.135-2.677-.217-4.017-.26a1.342,1.342,0,0,0-1.462,1.613,1.437,1.437,0,0,0,1.467,1.192c.9.081,1.806.127,2.709.195a54.1,54.1,0,0,1,9.056,1.36,13.651,13.651,0,0,1,3.464,1.212c.191,2.355.1,51.5-.1,52.214a58.009,58.009,0,0,0-18.167-2.614,53.837,53.837,0,0,0-18.276,2.782v-7.959q0-21.27,0-42.542c0-1.866.122-2.02,1.879-2.589a40.853,40.853,0,0,1,9.715-1.864c.9-.066,1.808-.1,2.708-.2a1.439,1.439,0,0,0,1.357-1.506,1.415,1.415,0,0,0-1.55-1.291c-.094,0-.187.006-.281.009a49,49,0,0,0-10,1.366,36.44,36.44,0,0,0-4.092,1.3,3.718,3.718,0,0,0-2.443,3.065c-.064.423-.122.849-.185,1.3a2.875,2.875,0,0,1-.386.064,7,7,0,0,0-6.481,5.423,2.361,2.361,0,0,1-.184.4v51.613c.109.384.221.766.326,1.152a8.6,8.6,0,0,0,7.585,6.513c1.735.171,3.491.157,5.237.159q24.826.025,49.649.023c.219,0,.438.011.656-.008a1.4,1.4,0,0,0,1.409-1.437,1.344,1.344,0,0,0-1.456-1.368c-1.75-.022-3.5-.008-5.246-.006q-3.983,0-7.963.006h-.622a14.851,14.851,0,0,1-.077-4.3h1.077q16.582,0,33.163-.006a8.159,8.159,0,0,0,1.671-.141,4.309,4.309,0,0,0,3.393-3.968c.026-.4.013-.809.013-1.214V740.447a7.829,7.829,0,0,1,1.046.1,4.233,4.233,0,0,1,3.24,3.886c.017.279.009.56.009.841q0,23.983-.009,47.963a9.474,9.474,0,0,1-.249,2.312,5.855,5.855,0,0,1-5.048,4.379,18.3,18.3,0,0,1-2.147.135q-7.4.025-14.8.019c-.313,0-.628-.011-.937.019a1.4,1.4,0,0,0-1.295,1.259,1.416,1.416,0,0,0,1.059,1.469,3.241,3.241,0,0,0,.832.075c5.278,0,10.555,0,15.833-.022a9.52,9.52,0,0,0,6.779-2.456,8.871,8.871,0,0,0,2.618-4.752c.045-.206.126-.4.189-.607V743.454C-272.151,743.229-272.244,743.008-272.317,742.778ZM-321.542,800.1h-.924q-17.749-.014-35.5-.045a11.342,11.342,0,0,1-2.867-.347,5.92,5.92,0,0,1-4.34-5.584c-.011-.217-.009-.437-.009-.654q0-24.21-.008-48.42a4.419,4.419,0,0,1,1.621-3.706,3.614,3.614,0,0,1,2.681-.86V741.6q0,24.584.006,49.168a7.362,7.362,0,0,0,.144,1.664,4.3,4.3,0,0,0,4.006,3.35c.343.022.688.013,1.031.013q16.484,0,32.968,0h1.186Zm.073-7.768c-.007.18-.041.36-.077.643h-.935q-16.72,0-33.44,0c-1.373,0-1.756-.255-2.085-1.413a20.285,20.285,0,0,1,3.858-1.345,57.3,57.3,0,0,1,17.92-1.581,57.39,57.39,0,0,1,10.279,1.383c1.179.283,2.333.675,3.493,1.034a9.9,9.9,0,0,1,.989.425C-321.467,791.781-321.457,792.058-321.468,792.333Zm37.66.643c-.185.006-.375,0-.56,0h-34.182c-.024-.515-.045-.963-.066-1.432a10.1,10.1,0,0,1,2.895-1.115,53.25,53.25,0,0,1,10.6-1.724,67.121,67.121,0,0,1,10.1,0,44.076,44.076,0,0,1,11.881,2.4c.373.137.736.3,1.1.453C-282.413,792.65-282.793,792.942-283.809,792.976Z" transform="translate(0 -96.354)" fill="#555"/><path d="M-263.871,905.971a1.4,1.4,0,0,1-2.024,1.286,17.05,17.05,0,0,0-3.628-1.206,39.468,39.468,0,0,0-10.612-.745,29.18,29.18,0,0,0-7.526,1.361c-.53.18-1.045.408-1.571.6a1.434,1.434,0,0,1-1.9-.667,1.405,1.405,0,0,1,.811-1.924,22.311,22.311,0,0,1,5.63-1.685,41.29,41.29,0,0,1,16.728.532,23.019,23.019,0,0,1,3.154,1.147A1.392,1.392,0,0,1-263.871,905.971Z" transform="translate(-62.353 -236.015)" fill="#91ddea"/><path d="M-279.521,791.648a42.979,42.979,0,0,1,12.176,1.318,14.66,14.66,0,0,1,2.678,1.081,1.342,1.342,0,0,1,.364,2.2,1.307,1.307,0,0,1-1.545.312c-4.587-2.015-9.428-2.2-14.323-1.975a24.732,24.732,0,0,0-9,1.93,1.479,1.479,0,0,1-1.987-.665,1.383,1.383,0,0,1,.92-1.941,31.681,31.681,0,0,1,4.72-1.466C-283.231,792.007-280.892,791.821-279.521,791.648Z" transform="translate(-62.329 -146.028)" fill="#91ddea"/><path d="M-277.534,847.213A36.35,36.35,0,0,1-267,848.588a13.894,13.894,0,0,1,2.162.87,1.4,1.4,0,0,1,.8,1.987,1.408,1.408,0,0,1-2.016.538,21.326,21.326,0,0,0-6.959-1.709,40.041,40.041,0,0,0-8.97-.023,24.159,24.159,0,0,0-6.88,1.667,4.245,4.245,0,0,1-.522.2,1.42,1.42,0,0,1-1.781-.8,1.344,1.344,0,0,1,.75-1.79,32.872,32.872,0,0,1,3.883-1.329A33.366,33.366,0,0,1-277.534,847.213Z" transform="translate(-62.357 -191.182)" fill="#91ddea"/><path d="M-277.486,957.932a36.328,36.328,0,0,1,10.535,1.384,13.867,13.867,0,0,1,2.242.919,1.354,1.354,0,0,1,.718,1.868,1.385,1.385,0,0,1-1.983.624,22.326,22.326,0,0,0-7.419-1.764,40.489,40.489,0,0,0-8.689.022,23.9,23.9,0,0,0-6.7,1.626,4.093,4.093,0,0,1-.7.252,1.388,1.388,0,0,1-1.672-.85,1.354,1.354,0,0,1,.7-1.738,21.32,21.32,0,0,1,2.527-.97A34.2,34.2,0,0,1-277.486,957.932Z" transform="translate(-62.374 -281.155)" fill="#91ddea"/><path d="M-58.119,672.5a11.542,11.542,0,0,0-5.825-9.192,14.864,14.864,0,0,0-14.525-.41,11.433,11.433,0,0,0-6,6.963,13.26,13.26,0,0,0-.665,4.6c.011.367,0,.734,0,1.031l0,.023.626,2.889a16.909,16.909,0,0,0,3.234,5.248c.442.525.873,1.06,1.3,1.6a9.3,9.3,0,0,1,2.14,4.763l-.6.358a4.889,4.889,0,0,0-2.293,5.46,4.857,4.857,0,0,0,4.673,3.629q4.449.042,8.9,0a4.846,4.846,0,0,0,4.71-3.577,4.845,4.845,0,0,0-2.218-5.479c-.186-.114-.375-.219-.59-.345a4.9,4.9,0,0,1,.718-2.657,24.014,24.014,0,0,1,1.641-2.492c.512-.706,1.092-1.362,1.643-2.039a14.949,14.949,0,0,0,2.762-4.952l.564-2.839C-57.988,674.175-58.019,673.334-58.119,672.5Zm-6.97,22.025a1.992,1.992,0,0,1-1.853,2.093q-4.623.087-9.252,0a1.942,1.942,0,0,1-1.831-2.091,1.981,1.981,0,0,1,1.971-1.966c1.493-.041,2.99-.011,4.486-.011v0h3.832c.219,0,.438-.009.654.006A2.07,2.07,0,0,1-65.089,694.528Zm1.774-13.59c-.519.622-1.021,1.259-1.538,1.883a12.935,12.935,0,0,0-3.281,6.876h-1.861a81.313,81.313,0,0,1-.019-9.755c.472,0,.965.013,1.458,0a4.733,4.733,0,0,0,1.019-.1,1.3,1.3,0,0,0,.989-1.31,1.3,1.3,0,0,0-.961-1.33,3.016,3.016,0,0,0-.83-.1c-2.217-.009-4.433-.006-6.65,0a2.928,2.928,0,0,0-.558.041,1.355,1.355,0,0,0-1.2,1.435,1.316,1.316,0,0,0,1.207,1.319,7.22,7.22,0,0,0,1.027.056c.463.009.927,0,1.37,0a83.548,83.548,0,0,1,.084,9.738c-.283.015-.581.037-.881.047s-.618,0-.986,0c-.054-.2-.116-.367-.146-.54a12.372,12.372,0,0,0-2.623-5.608c-.768-.982-1.566-1.941-2.348-2.912a10.1,10.1,0,0,1-1.988-8.967,8.866,8.866,0,0,1,5.522-6.61,12.19,12.19,0,0,1,11,.568,9,9,0,0,1,4.557,6.921A10.139,10.139,0,0,1-63.315,680.938Z" transform="translate(-229.861 -40.026)" fill="#926cdc"/><path d="M49.468,636.985a2.782,2.782,0,0,1-.418.777q-1.245,1.328-2.571,2.58a1.384,1.384,0,0,1-2.012.05,1.347,1.347,0,0,1,0-2c.851-.908,1.748-1.774,2.642-2.641a1.333,1.333,0,0,1,1.561-.252A1.419,1.419,0,0,1,49.468,636.985Z" transform="translate(-334.821 -19.019)" fill="#926cdc"/><path d="M-17.374,615.246c0,.622.03,1.246-.008,1.866a1.376,1.376,0,0,1-1.029,1.3,1.32,1.32,0,0,1-1.486-.51,1.758,1.758,0,0,1-.277-.865q-.046-1.818-.007-3.639A1.381,1.381,0,0,1-18.8,611.95a1.415,1.415,0,0,1,1.423,1.43c.037.62.007,1.244.007,1.866Z" transform="translate(-282.633 0)" fill="#926cdc"/><path d="M-93.169,639.242a1.452,1.452,0,0,1-.762,1.347,1.246,1.246,0,0,1-1.488-.133c-1-.937-1.978-1.9-2.9-2.9a1.316,1.316,0,0,1,.152-1.852,1.329,1.329,0,0,1,1.794-.081c1.006.927,1.963,1.908,2.905,2.9A1.964,1.964,0,0,1-93.169,639.242Z" transform="translate(-218.892 -18.982)" fill="#926cdc"/><path d="M-64.952,902.293a35.012,35.012,0,0,1,11.278,1.852c.379.144.761.282,1.125.46a1.412,1.412,0,0,1,.8,1.93,1.479,1.479,0,0,1-1.911.67,21.371,21.371,0,0,0-5.464-1.571,36.721,36.721,0,0,0-7.18-.478,35.237,35.237,0,0,0-7.419.908c-.992.25-1.947.644-2.918.978-.147.05-.28.138-.426.191a1.378,1.378,0,0,1-1.757-.638,1.29,1.29,0,0,1,.458-1.8,13.581,13.581,0,0,1,2.3-1,27.875,27.875,0,0,1,6.694-1.269C-67.7,902.378-66.01,902.345-64.952,902.293Z" transform="translate(-234.838 -235.942)" fill="#926cdc"/><path d="M-51.62,961.511a1.315,1.315,0,0,1-1.325,1.391,2.355,2.355,0,0,1-.9-.206,25.253,25.253,0,0,0-8.361-1.846,37.888,37.888,0,0,0-11.8.881c-.9.228-1.763.6-2.641.916-.146.052-.28.141-.428.186a1.41,1.41,0,0,1-1.794-.764,1.317,1.317,0,0,1,.615-1.757,14.423,14.423,0,0,1,2.41-1,36.529,36.529,0,0,1,11-1.373,33,33,0,0,1,10.412,1.527c.678.228,1.343.5,2,.787A1.3,1.3,0,0,1-51.62,961.511Z" transform="translate(-234.853 -281.162)" fill="#926cdc"/></g></g></svg>