<svg xmlns="http://www.w3.org/2000/svg" width="84.018" height="84.111" viewBox="0 0 84.018 84.111"><g transform="translate(5417.95 1384.104)"><path d="M-5294.447-1295.908a4,4,0,0,0-1.7-3.406,3.676,3.676,0,0,0-2.2-.749c-.113,0-.224,0-.337,0q-21.513,0-43.025,0a4.081,4.081,0,0,0-2.6.808,3.929,3.929,0,0,0-1.631,3.27v24.4q0,6.776,0,13.55a3.922,3.922,0,0,0,2.22,3.619,3.365,3.365,0,0,0,1.7.43c.057,0,.113,0,.17,0q21.639,0,43.276,0a3.95,3.95,0,0,0,2.579-.876,3.875,3.875,0,0,0,1.544-3.141q.007-5.676,0-11.35v-6.282h0v-2.988a3.331,3.331,0,0,1,0-.683Q-5294.458-1287.608-5294.447-1295.908Zm-2.723,37.933a1.426,1.426,0,0,1-1.278,1.265,5.159,5.159,0,0,1-.677.014h-42.163c-.086,0-.172-.007-.256,0a1.549,1.549,0,0,1-1.708-1.715q.029-13.8.011-27.6v-.48h46.042c.014.262.041.5.041.749q0,13.589,0,27.178A4.752,4.752,0,0,1-5297.17-1257.975Zm.029-37.333c-.065,1.72-.016,3.442-.016,5.165v.876h-46.085v-3.942c0-.847.025-1.7-.007-2.539a1.5,1.5,0,0,1,1.642-1.611c.141.009.28,0,.423,0q20.993,0,41.988-.018C-5297.727-1297.379-5297.084-1296.8-5297.141-1295.308Z" transform="translate(-55.707 -65.016)" fill="#926cdc"/><path d="M-5334.042-1367.813c.02,0,.043-.029.063-.048s.041-.038.047-.043v-16.107h-16.24v6.676c-1.519.131-16.936.084-17.605-.057v-2.182c0-.763.014-1.523,0-2.286a13.543,13.543,0,0,0-.059-2.159c-2.689-.158-15.543-.086-16.223.1v6.6h-17.607v-6.672c-1.338-.129-15.581-.091-16.2.038-.14,1.811-.082,15.505.08,16.17q3.242,0,6.5,0c.022,0,.046.029.066.047s.041.041.072.072v20.3c-.464.219-.9.4-1.321.625a5.347,5.347,0,0,0-2.6,5.9,5.28,5.28,0,0,0,3.05,3.707c.3.138.6.278.836.389v20.459h-6.674c-.136,1.528-.088,15.587.047,16.2,2.153.145,15.5.079,16.168-.093,0-2.159,0-4.332,0-6.5,0-.02.032-.043.049-.061s.042-.041.042-.043h17.519v6.692h16.252v-2.236c0-.763-.007-1.525,0-2.288.009-.722-.041-1.448.037-2.159,1.994-.145,16.919-.084,17.6.079,0,2.159,0,4.329,0,6.5,0,.023.027.045.046.066a.484.484,0,0,0,.047.05h16.1v-16.241h-6.694v-20.439c2.607-1.188,3.92-2.743,4.017-4.789.143-2.965-1.351-4.82-4.019-5.8-.152-2.7-.084-19.757.09-20.47C-5338.386-1367.811-5336.215-1367.811-5334.042-1367.813Zm-47.239-13.513h10.689c.143.652.192,9.044.067,10.718-.631.138-9.023.188-10.7.063C-5381.361-1371.176-5381.411-1379.568-5381.282-1381.326Zm-33.907,10.775v-10.689c.654-.138,9.131-.186,10.721-.066.136.632.183,9.112.061,10.7C-5405.038-1370.472-5413.516-1370.425-5415.188-1370.551Zm2.7,28.494a2.714,2.714,0,0,1,2.689-2.7,2.67,2.67,0,0,1,2.693,2.68,2.64,2.64,0,0,1-2.72,2.729A2.71,2.71,0,0,1-5412.484-1342.058Zm8.1,39.209c-.649.143-9.037.193-10.718.068-.138-.632-.187-9.017-.063-10.7.631-.136,9.017-.188,10.782-.057Zm33.855.086h-10.745v-10.773h10.745Zm20.455-13.545a12.405,12.405,0,0,0-.073,2.209c-.016.76,0,1.523,0,2.286v2.182c-.668.147-15.921.2-17.622.061-.011-2.2,0-4.418-.006-6.676h-16.255v6.7h-17.512c-.007-.007-.027-.027-.046-.047s-.047-.043-.047-.066c0-2.17,0-4.343,0-6.554a12.541,12.541,0,0,0-2.208-.07c-.761-.016-1.523,0-2.286,0h-2.183c-.161-.722-.222-17.954-.077-20.513a5.523,5.523,0,0,0,3.849-3.852h2.893v-2.759h-2.874a5.563,5.563,0,0,0-3.877-3.872v-20.5h6.717v-6.642c.69-.2,14.009-.276,17.528-.118.021.02.043.041.061.061s.045.043.045.066c0,2.17,0,4.343,0,6.5.668.159,14.417.215,16.268.07.014-2.2,0-4.418.012-6.676h17.607v6.7h6.609c.07.068.09.086.109.109s.052.041.052.061q.01,9.869.018,19.733v.557c-2.241,1.03-2.736,1.331-3.99,3.945h-2.7a.787.787,0,0,1-.084-.22v2.987h2.881a5.539,5.539,0,0,0,3.848,3.838v20.423c.007,0-.014.016-.034.034s-.043.047-.064.047C-5345.7-1316.308-5347.866-1316.308-5350.077-1316.308Zm13.373,2.766c.133.631.181,9.109.054,10.782h-10.689c-.138-.654-.187-9.132-.066-10.721C-5346.773-1313.617-5338.293-1313.664-5336.7-1313.542Zm-2.632-28.5a2.687,2.687,0,0,1-2.676,2.7,2.678,2.678,0,0,1-2.7-2.677,2.584,2.584,0,0,1,2.71-2.718A2.591,2.591,0,0,1-5339.336-1342.038Zm-8.089-28.514v-10.689c.652-.138,9.114-.188,10.721-.066.133.632.183,9.094.061,10.7C-5337.274-1370.472-5345.736-1370.422-5347.425-1370.551Z" fill="#555"/><path d="M-5274.663-1191.634c-.827.118-1.67.059-2.566.112-.071-.241-.154-.473-.208-.711a4.34,4.34,0,0,0-7.14-2.241,45.7,45.7,0,0,0-3.768,3.769,4.343,4.343,0,0,0,2.325,7.159,4.253,4.253,0,0,0,3.964-1.119c.819-.771,1.577-1.61,2.421-2.48l2.012,1.993c-1.087,1.028-2.075,2.128-3.225,3.019a7.062,7.062,0,0,1-11.073-3.716,6.729,6.729,0,0,1,1.585-6.746c1.22-1.328,2.5-2.609,3.824-3.833a7.1,7.1,0,0,1,11.667,3.254A2.527,2.527,0,0,1-5274.663-1191.634Z" transform="translate(-97.266 -143.722)" fill="#91ddea"/><path d="M-5245.222-1221.879l-1.913-1.941a24.848,24.848,0,0,1,3.468-3.267,7.089,7.089,0,0,1,10.87,4.439,6.915,6.915,0,0,1-1.91,6.516c-1.153,1.2-2.325,2.385-3.535,3.528a7.1,7.1,0,0,1-11.712-3.1c-.146-.474-.22-.968-.332-1.467a9.573,9.573,0,0,1,2.7-.268c.071.25.144.457.188.671a4.334,4.334,0,0,0,7.121,2.3,40.864,40.864,0,0,0,3.827-3.831,4.344,4.344,0,0,0-2.333-7.114,4.273,4.273,0,0,0-3.973,1.1c-.646.588-1.244,1.231-1.863,1.848C-5244.814-1222.278-5245.015-1222.083-5245.222-1221.879Z" transform="translate(-129.719 -120.555)" fill="#91ddea"/><path d="M-5319.164-1273.293h-2.656v-2.632h2.663C-5319.151-1275.019-5319.144-1274.146-5319.164-1273.293Z" transform="translate(-74.375 -83.696)" fill="#91ddea"/><path d="M-5297.886-1273.433v-2.621a3.638,3.638,0,0,1,1.285-.08c.419-.018.84,0,1.289,0a3.543,3.543,0,0,1,.094,1.318c.019.419,0,.84,0,1.289a3.554,3.554,0,0,1-1.317.094C-5296.951-1273.419-5297.372-1273.433-5297.886-1273.433Z" transform="translate(-92.891 -83.521)" fill="#91ddea"/><path d="M-5271.413-1273.436h-2.642a22.194,22.194,0,0,1-.041-2.63,21.937,21.937,0,0,1,2.64-.042A22.508,22.508,0,0,1-5271.413-1273.436Z" transform="translate(-111.283 -83.54)" fill="#91ddea"/></g></svg>