<svg xmlns="http://www.w3.org/2000/svg" width="201.337" height="50.022" viewBox="0 0 201.337 50.022"><g transform="translate(-299.231 -587.167)"><g transform="translate(299.231 587.167)"><path d="M-1291,22.957a1.691,1.691,0,0,0,.051-.24,27.572,27.572,0,0,1,.538-4.147,24.27,24.27,0,0,1,5.111-10.48,26.051,26.051,0,0,1,7.827-6.357A22.545,22.545,0,0,1-1270.98-.5a25.973,25.973,0,0,1,3.054-.431,27.02,27.02,0,0,1,3.59-.027,24.814,24.814,0,0,1,5.291.933,24.5,24.5,0,0,1,8.712,4.665,27.986,27.986,0,0,1,3.044,2.923c.076.085.148.174.24.281-.233.14-.437.287-.66.393a25.47,25.47,0,0,1-3.388,1.433,21.2,21.2,0,0,1-5.474.949,14.347,14.347,0,0,1-7.429-1.7c-1.075-.572-2.147-1.148-3.231-1.7a17.731,17.731,0,0,0-4.808-1.642,9.271,9.271,0,0,0-4.752.331q-1.118.375-2.213.819a8.622,8.622,0,0,0-2.549,1.714,21.659,21.659,0,0,0-3.514,4.232,25.426,25.426,0,0,0-3.061,6.362,11.572,11.572,0,0,0-.6,3.84c0,.14-.026.3.116.407.143-.038.121-.158.138-.254a15.835,15.835,0,0,1,1.293-4.1,17.659,17.659,0,0,1,5.886-6.938,15.986,15.986,0,0,1,5.513-2.542,17.624,17.624,0,0,1,3.525-.44,20.538,20.538,0,0,1,7.111.959,16.938,16.938,0,0,1,2.486,1.062c.868.445,1.759.844,2.64,1.264.114.054.227.11.341.162a.218.218,0,0,1,.12.278c-.621.588-1.255,1.186-1.885,1.787a15.242,15.242,0,0,1-6.512,3.615,9.735,9.735,0,0,1-2.746.312,21.872,21.872,0,0,1-5.214-.815c-1-.253-1.989-.521-2.991-.752a10.338,10.338,0,0,0-2.531-.281,6.046,6.046,0,0,0-.815.074,2.527,2.527,0,0,0-1.379.707,7.206,7.206,0,0,0-1.118,1.4,20.109,20.109,0,0,0-2.656,6.459c-.144.676-.245,1.362-.349,2.047a1.537,1.537,0,0,0,.04.814c.16-.039.16-.159.17-.269a10.385,10.385,0,0,1,.583-2.572,11.937,11.937,0,0,1,3.256-5.02c.25-.223.527-.417.795-.619a.9.9,0,0,1,.35-.169,1.24,1.24,0,0,1-.113.146c-.34.328-.7.639-1.021.983a10.134,10.134,0,0,0-1.879,3.038,15.839,15.839,0,0,0-1.187,4.552,15.4,15.4,0,0,0,.031,3.553,18.053,18.053,0,0,0,5.1,10.519,13.35,13.35,0,0,0,3,2.332c.893.509,1.8.993,2.705,1.483a1.524,1.524,0,0,0,.352.131c.134.034.224-.025.249-.211-.085-.046-.18-.1-.279-.15a17.559,17.559,0,0,1-2.792-1.58,19.173,19.173,0,0,1-6.768-8.782,12.685,12.685,0,0,1-.832-4.34,11.374,11.374,0,0,1,1.933-6.7,10.041,10.041,0,0,1,3.839-3.283,14.389,14.389,0,0,1,4.213-1.34,19.014,19.014,0,0,1,3.641-.246,23.459,23.459,0,0,1,8.738,1.932c.046.02.091.044.178.088-.7.893-1.352,1.787-2.064,2.634a14.137,14.137,0,0,1-3.313,2.889,12.861,12.861,0,0,1-5.237,1.863,9.166,9.166,0,0,1-2.418-.043c-1.259-.167-2.514-.369-3.776-.51a7.142,7.142,0,0,0-2.6.1,2.483,2.483,0,0,0-.981.482.871.871,0,0,0-.348.674c-.02.661-.079,1.323-.053,1.982a15.628,15.628,0,0,0,.557,3.539c.041.15.094.3.156.491.075-.049.156-.073.17-.118a1.462,1.462,0,0,0,.047-.339,7.215,7.215,0,0,1,1.524-4.127,6.81,6.81,0,0,1,.723-.7.138.138,0,0,1,.128-.021c-.057.081-.112.163-.17.243a8.134,8.134,0,0,0-1.55,3.907,8.17,8.17,0,0,0,.648,4.186,10.867,10.867,0,0,0,2.5,3.559,23.96,23.96,0,0,0,3.59,2.764,10.635,10.635,0,0,0,1.181.589,1.061,1.061,0,0,0,.177.051.288.288,0,0,0,.18-.412c-.083-.049-.189-.114-.3-.175a17.822,17.822,0,0,1-2.853-1.9,9.126,9.126,0,0,1-1.733-1.947,5.252,5.252,0,0,1-.818-2.161,9.141,9.141,0,0,1,.246-3.869,5.906,5.906,0,0,1,1.263-2.194,8.823,8.823,0,0,1,4.195-2.669,14.375,14.375,0,0,1,4.7-.581,22.026,22.026,0,0,1,3.809.466,2.132,2.132,0,0,1,.212.069c-.041.351-.072.7-.126,1.054a8.042,8.042,0,0,1-1.431,3.625,7.4,7.4,0,0,1-4.564,2.917c-.686.144-1.394.179-2.091.267-.624.079-1.248.16-1.871.25a1.84,1.84,0,0,0-.389.123,1.574,1.574,0,0,0-1.066,1.491c-.012.209,0,.419,0,.635l-.162.079c-.033-.015-.059-.018-.069-.033a2.822,2.822,0,0,1-.452-.929,1.962,1.962,0,0,1,.367-1.637,2.929,2.929,0,0,1,.877-.8,12.4,12.4,0,0,1,2.058-.941c.812-.313,1.628-.619,2.43-.955a6.332,6.332,0,0,0,1.657-1.021,4.238,4.238,0,0,0,1.188-1.6c-.031-.062-.056-.119-.087-.173a.6.6,0,0,0-.066-.079,30.836,30.836,0,0,0-3.3-.135,6.96,6.96,0,0,0-4.2,1.653,1.825,1.825,0,0,0-.249.241,6.22,6.22,0,0,0-1.546,3.615,5.339,5.339,0,0,0,.65,2.819,9.238,9.238,0,0,0,2.046,2.578c.248.225.509.435.77.657l.23-.144a2.8,2.8,0,0,1,.308-2.073,2.44,2.44,0,0,1,1.357-.926c-.051.05-.1.1-.153.149a9.944,9.944,0,0,0-.685.737,1.581,1.581,0,0,0-.213,1.692,8.059,8.059,0,0,0,.549.951.484.484,0,0,0,.46.223l.3-.013c.327-.417.655-.839.986-1.258a32.777,32.777,0,0,1,2.783-3.131,15.912,15.912,0,0,1,8.1-4.34,10.823,10.823,0,0,1,3.23-.123,36.377,36.377,0,0,1,3.924.751,15.6,15.6,0,0,0,2.021.309,5,5,0,0,0,4.253-1.632,9.737,9.737,0,0,0,2.525-5.054,5.144,5.144,0,0,0-.073-2.219,3.959,3.959,0,0,0-2.4-2.7,5.039,5.039,0,0,0-.959-.294,1.647,1.647,0,0,0-1.449.355,5.613,5.613,0,0,0-.694.726c-.249.3-.471.618-.7.929a4.9,4.9,0,0,1-2.448,1.748c-.6.2-1.207.358-1.8.553a11.153,11.153,0,0,0-1.144.437,3.992,3.992,0,0,0-1.565,1.288c-.269.363-.527.733-.794,1.1-.072.1-.155.187-.26.312a.582.582,0,0,1,.034-.4c.2-.564.408-1.123.6-1.687a8.376,8.376,0,0,1,.856-1.678c.166-.266.363-.512.577-.811a5.821,5.821,0,0,1,.291-2.192c-.117-.036-.2-.065-.293-.091A6.865,6.865,0,0,1-1261,23.294a4.743,4.743,0,0,1-1.105-2.532c0-.041,0-.083,0-.16a1.6,1.6,0,0,1,1.442.1,1.766,1.766,0,0,1,.625,1.029,1.948,1.948,0,0,1-.021,1,1.365,1.365,0,0,0,.52,1.424,6.555,6.555,0,0,0,1.816,1.055c.173.073.355.124.531.185l.236-.223c-.117-.112-.229-.221-.342-.327a8.313,8.313,0,0,1-2.587-4.653,6.235,6.235,0,0,1,.608-4.278,1.476,1.476,0,0,1,.406-.55,2.24,2.24,0,0,1,1.035,1.4,4.311,4.311,0,0,1-.217,2.384,6.588,6.588,0,0,1-.964,1.761c-.057.075-.112.151-.164.22a9.233,9.233,0,0,0,2.24,3.8l.205-.147c-.011-.054-.018-.1-.031-.153-.148-.568-.329-1.129-.441-1.7a8.579,8.579,0,0,1,1.772-7.191,17.4,17.4,0,0,1,3.535-3.3c.438-.322.889-.628,1.4-.988-.031.406-.044.737-.082,1.065a5.9,5.9,0,0,1-.949,2.674,5.207,5.207,0,0,1-3.448,2.232c-.134.026-.269.044-.4.061s-.248.025-.37.037a5.844,5.844,0,0,0-.867,1.858,8.159,8.159,0,0,0-.285,2.869c.049.6.135,1.188.209,1.781.015.123.052.243.077.361a.356.356,0,0,0,.384-.353c.066-.5.161-1,.215-1.5a5.305,5.305,0,0,1,.553-1.762,7.84,7.84,0,0,1,2.777-3.116c.645-.429,1.334-.793,2.011-1.172.439-.246.892-.468,1.339-.7a5.936,5.936,0,0,0,3.17-4.273c.054-.255.105-.51.164-.8.067.051.133.075.153.121a17.135,17.135,0,0,1,1.227,3.163,3.984,3.984,0,0,1,.021,1.9,2.987,2.987,0,0,1-2.046,2.132,5.174,5.174,0,0,1-1.548.261c-.924.02-1.848.01-2.772.013-.273,0-.547,0-.819.011a2.71,2.71,0,0,0-1.321.468,5.576,5.576,0,0,0-2.16,2.639,6.186,6.186,0,0,0-.461,1.92,1.694,1.694,0,0,0,.011.207c.079-.042.135-.067.185-.1.132-.086.269-.166.391-.264a6.553,6.553,0,0,1,2.969-1.221c.4-.077.8-.16,1.211-.2a6.734,6.734,0,0,1,5.013,1.641,8.476,8.476,0,0,1,3,5.143,10.811,10.811,0,0,1-1.1,7.115,24.033,24.033,0,0,1-5.389,6.964,24.892,24.892,0,0,1-7.413,4.635,24.2,24.2,0,0,1-5.3,1.469,24.268,24.268,0,0,1-5.592.223,25.832,25.832,0,0,1-10.345-3.034,23.187,23.187,0,0,1-5.964-4.649,25.938,25.938,0,0,1-4.7-6.935,24.282,24.282,0,0,1-2.041-6.982c-.07-.52-.1-1.045-.151-1.568-.01-.1-.036-.2-.054-.3Zm7.4,4.64c.188-.06.3-.092.4-.128a7.2,7.2,0,0,1,2.773-.477c.272.016.546.021.818.027a24.949,24.949,0,0,0,5.112-.34,9.5,9.5,0,0,0,4.294-1.839c.483-.385.924-.823,1.39-1.231a.717.717,0,0,0,.245-.532c-.067-.03-.13-.064-.2-.088a10.082,10.082,0,0,0-2.631-.594c-.909-.076-1.823-.1-2.735-.153a8.641,8.641,0,0,0-2.255.148c-.615.127-1.238.234-1.841.406a7.979,7.979,0,0,0-1.912.874,8.267,8.267,0,0,0-3.312,3.572C-1283.492,27.335-1283.529,27.431-1283.6,27.6Zm19.23-14.085a1.776,1.776,0,0,0-.669-.509,7.587,7.587,0,0,0-1.695-.574,21.457,21.457,0,0,0-3.2-.489c-.8-.065-1.595-.119-2.391-.108a14.136,14.136,0,0,0-4.382.793,12.675,12.675,0,0,0-3.965,2.081c-.145.117-.281.245-.411.359.049.174.166.142.265.144.347.005.694,0,1.04.014a41.059,41.059,0,0,1,4.188.509,29.063,29.063,0,0,0,3.631.38,11.843,11.843,0,0,0,3.309-.347A11.016,11.016,0,0,0-1264.371,13.512Zm-7.878-9.8c.111.006.214.014.318.018a19.787,19.787,0,0,1,2.6.274,21.644,21.644,0,0,1,4.1,1.205c1.249.492,2.5.971,3.74,1.491a7.091,7.091,0,0,0,3.949.441c.715-.113,1.433-.205,2.151-.3.289-.038.58-.058.889-.089a1.178,1.178,0,0,0-.4-.548,6.642,6.642,0,0,0-.762-.5c-.452-.244-.931-.441-1.375-.7a16.258,16.258,0,0,0-6.289-1.98c-.865-.1-1.736-.146-2.6-.215a16.755,16.755,0,0,0-4.946.348c-.409.09-.814.2-1.221.3C-1272.213,3.5-1272.321,3.528-1272.248,3.717Zm1.277,42.332-.007.053a1.3,1.3,0,0,0,.187.056c.27.039.541.072.811.11.623.089,1.244.2,1.87.264a9.4,9.4,0,0,0,3.869-.531,5.813,5.813,0,0,0,2.871-2c.411-.531.8-1.078,1.2-1.62.509-.694.987-1.414,1.53-2.08a7.271,7.271,0,0,1,3.614-2.409,7.881,7.881,0,0,1,1.636-.3,1.1,1.1,0,0,0,.211-.064l-.072-.142c-.418.017-.816.021-1.212.052a7.591,7.591,0,0,0-1.279.148,6.946,6.946,0,0,0-3.5,2.066c-.361.4-.72.793-1.083,1.187a5.781,5.781,0,0,1-2.839,1.774,13.687,13.687,0,0,1-4.073.518c-.262-.011-.524-.035-.786-.048a1.425,1.425,0,0,0-.2.016l-.016.061a1.44,1.44,0,0,0,.235.109,9.7,9.7,0,0,0,2.113.316,10.32,10.32,0,0,0,3.971-.717c.083-.031.168-.055.28-.091a6.577,6.577,0,0,1-3.4,2.637,12.822,12.822,0,0,1-4.214.64c-.494,0-.987-.012-1.481-.015C-1270.815,46.03-1270.893,46.042-1270.971,46.048Zm19.105-28.179c.075.188.179.166.283.142.235-.054.468-.125.705-.157.852-.114,1.706-.213,2.559-.32a5.578,5.578,0,0,0,1.583-.383,1.779,1.779,0,0,0,1.117-1.347,6.073,6.073,0,0,0,.056-1.126,4.806,4.806,0,0,0-.1-.652c-.015-.1-.048-.206-.157-.2a.536.536,0,0,0-.237.118c-.032.021-.044.071-.07.1-.21.261-.406.535-.636.779a7.341,7.341,0,0,1-1.9,1.432c-.952.508-1.926.972-2.891,1.456Zm-.2-4.127c-.209.158-.418.313-.625.471a12.521,12.521,0,0,0-1.946,1.74,10.328,10.328,0,0,0-.638.895.925.925,0,0,0-.073.214,1.026,1.026,0,0,0,.155-.025,5.751,5.751,0,0,0,2.576-1.742,3.032,3.032,0,0,0,.68-1.462Zm-6.736,2.747c-.053.115-.091.189-.121.267a9,9,0,0,0-.491,1.977,3.767,3.767,0,0,0-.007,1.376.711.711,0,0,0,.253.469,2.32,2.32,0,0,0,.136-.263c.163-.453.339-.9.475-1.362a4.048,4.048,0,0,0,.151-1.556A1.381,1.381,0,0,0-1258.8,16.489Zm4.272,8.58a1.243,1.243,0,0,0-1.391,1.521A1.274,1.274,0,0,0-1254.525,25.069Zm-5.92-2.175a2.04,2.04,0,0,0-.277-1.335.637.637,0,0,0-.505-.268A2.253,2.253,0,0,0-1260.446,22.894Z" transform="translate(1291 1.003)" fill="#FFFFFF"/><g transform="translate(59.6 8.886)"><path d="M195.162,156.706c-.017.7-.034,2.08-.089,3.455a36.953,36.953,0,0,1-.5,5.17,10.938,10.938,0,0,1-.981,3.011,6.334,6.334,0,0,1-4.545,3.459,12.639,12.639,0,0,1-3.635.208,10.8,10.8,0,0,1-2.077-.348,5.819,5.819,0,0,1-3.557-2.727,10.811,10.811,0,0,1-1.282-3.4,28.015,28.015,0,0,1-.455-3.59c-.2-2.7-.221-5.4-.154-8.1.035-1.406.122-2.813.242-4.214a22.325,22.325,0,0,1,.869-4.792,6.856,6.856,0,0,1,1.432-2.634,6.638,6.638,0,0,1,3.568-2,12,12,0,0,1,3.571-.21,9.506,9.506,0,0,1,2.907.641,5.652,5.652,0,0,1,3.145,3.059,14.628,14.628,0,0,1,.947,3.321,36.631,36.631,0,0,1,.457,3.94C195.149,152.651,195.158,154.342,195.162,156.706Zm-4.408-1.1c-.06-1.539-.126-3.386-.208-5.233a23.875,23.875,0,0,0-.387-3.376,5.57,5.57,0,0,0-.842-2.219,3.159,3.159,0,0,0-2.33-1.447,3.288,3.288,0,0,0-3.033,1.107,4.155,4.155,0,0,0-.678,1.165,12.027,12.027,0,0,0-.675,2.841,35.219,35.219,0,0,0-.3,4.43c-.037,2.889-.047,5.778.161,8.663a29.555,29.555,0,0,0,.457,3.654,6.6,6.6,0,0,0,.62,1.842,3.387,3.387,0,0,0,4.676,1.2A4.063,4.063,0,0,0,189.958,166c.08-.26.147-.525.206-.791a25.044,25.044,0,0,0,.492-4.534C190.711,159.088,190.719,157.5,190.754,155.605Z" transform="translate(-144.841 -139.953)" fill="#FFFFFF"/><path d="M1077.156,156.659c-.017.706-.035,2.082-.089,3.457a36.864,36.864,0,0,1-.5,5.2,10.913,10.913,0,0,1-.985,3.01,6.331,6.331,0,0,1-4.519,3.446,12.552,12.552,0,0,1-3.635.214,10.8,10.8,0,0,1-2.108-.352,5.817,5.817,0,0,1-3.536-2.706,10.785,10.785,0,0,1-1.29-3.4,27.713,27.713,0,0,1-.458-3.59c-.2-2.622-.223-5.249-.159-7.875.036-1.5.125-3,.25-4.5a22.276,22.276,0,0,1,.8-4.55,7.391,7.391,0,0,1,1.159-2.43,6.446,6.446,0,0,1,3.607-2.332,11.572,11.572,0,0,1,3.815-.286,10.33,10.33,0,0,1,2.438.454,5.794,5.794,0,0,1,3.795,3.55,15.986,15.986,0,0,1,.821,3.032,36.943,36.943,0,0,1,.456,3.94C1077.142,152.628,1077.151,154.308,1077.156,156.659Zm-4.427-.021c-.028-2.592-.06-4.451-.186-6.307a28.152,28.152,0,0,0-.395-3.376,5.664,5.664,0,0,0-.761-2.085,3.252,3.252,0,0,0-3.086-1.585,3.158,3.158,0,0,0-2.2.955,4.1,4.1,0,0,0-.829,1.327,11.909,11.909,0,0,0-.678,2.84,34.815,34.815,0,0,0-.3,4.4c-.038,2.9-.05,5.8.16,8.695a29.425,29.425,0,0,0,.455,3.654,6.813,6.813,0,0,0,.6,1.815,3.384,3.384,0,0,0,4.766,1.2,3.98,3.98,0,0,0,1.638-2.093c.091-.29.176-.583.242-.879a24.794,24.794,0,0,0,.493-4.5C1072.7,159.1,1072.713,157.5,1072.729,156.638Z" transform="translate(-971.221 -139.93)" fill="#FFFFFF"/><path d="M547.78,149.961h.2c1.7,0,3.4-.01,5.107.006a10.493,10.493,0,0,1,2.858.415,5.745,5.745,0,0,1,4.106,4.063,9.8,9.8,0,0,1,.439,2.537c.025.723.034,1.45,0,2.172a8.593,8.593,0,0,1-.673,2.963,6.084,6.084,0,0,1-3.31,3.29c-.125.054-.251.1-.414.171a1.028,1.028,0,0,0,.17.082,5.448,5.448,0,0,1,3.076,1.9,6.487,6.487,0,0,1,1.151,2.327,13.334,13.334,0,0,1,.415,4.339,9.969,9.969,0,0,1-.532,2.837,6.213,6.213,0,0,1-1.819,2.716,6.124,6.124,0,0,1-3.386,1.388,13.679,13.679,0,0,1-1.447.066c-1.86.007-3.72,0-5.58,0H547.8C547.742,180.993,547.719,150.517,547.78,149.961Zm4.158,28.13c.33-.025.632-.041.932-.073a5.791,5.791,0,0,0,1.7-.427,2.766,2.766,0,0,0,1.567-1.67,7.157,7.157,0,0,0,.381-1.971,15.459,15.459,0,0,0-.06-2.861,6.57,6.57,0,0,0-.509-1.972,2.994,2.994,0,0,0-1.386-1.451,4.857,4.857,0,0,0-1.682-.488c-.308-.036-.619-.05-.945-.075Zm.016-24.912c-.06.487-.041,10.6.019,10.839a6.622,6.622,0,0,0,2.151-.4,3.221,3.221,0,0,0,1.988-2.054,7.43,7.43,0,0,0,.347-1.692,14.393,14.393,0,0,0-.063-3.144,6.687,6.687,0,0,0-.382-1.587,2.633,2.633,0,0,0-1.629-1.6A7.082,7.082,0,0,0,551.954,153.179Z" transform="translate(-491.405 -149.326)" fill="#FFFFFF"/><path d="M-111.9,173.362l4.176-23.395h4.027l-6.569,31.239h-3.348L-119.93,150c.229-.061,3.7-.074,4.072-.014l3.888,23.369Z" transform="translate(134.17 -149.311)" fill="#FFFFFF"/><path d="M-334.689,150.321v3.507H-341.6v9.961c.345.011.7,0,1.05,0s.714,0,1.072,0h4.27v3.521h-6.351c-.074.249-.1,10.031-.037,10.781h7.062a33.248,33.248,0,0,1,.024,3.461h-11.257V150.321Z" transform="translate(345.767 -149.666)" fill="#FFFFFF"/><path d="M1439.616,142.462v3.829c-.1-.032-.186-.057-.27-.087a7.279,7.279,0,0,0-2.115-.457,4.717,4.717,0,0,0-3.823,1.659,7.37,7.37,0,0,0-1.727,3.415,22.856,22.856,0,0,0-.517,3.357,57.578,57.578,0,0,0-.1,6.99,32.151,32.151,0,0,0,.3,3.577,7.967,7.967,0,0,0,1.135,3.241,4.731,4.731,0,0,0,5.29,2.127c.306-.071.608-.162.907-.26s.59-.215.905-.331v3.683c-.081.041-.18.1-.282.141a8.615,8.615,0,0,1-9.527-1.65,8.28,8.28,0,0,1-2.207-3.681,21.232,21.232,0,0,1-.771-3.788,42.244,42.244,0,0,1-.275-5.22c0-1.407.03-2.814.139-4.219a34.949,34.949,0,0,1,.523-4.089,13.983,13.983,0,0,1,1.272-3.939,8.861,8.861,0,0,1,5.125-4.447,7.977,7.977,0,0,1,3.268-.319,21.255,21.255,0,0,1,2.547.407C1439.479,142.416,1439.538,142.438,1439.616,142.462Z" transform="translate(-1314.795 -141.826)" fill="#FFFFFF"/><path d="M1700.3,173.029V169.26l.267.153a10.473,10.473,0,0,0,2.518,1.133,4.484,4.484,0,0,0,2.214.048,3.931,3.931,0,0,0,3.091-3.17,5.141,5.141,0,0,0-.714-3.956,26.464,26.464,0,0,0-1.958-2.663c-1.149-1.421-2.3-2.838-3.441-4.269a16.518,16.518,0,0,1-1.52-2.315,8.393,8.393,0,0,1-1.009-3.253,10.744,10.744,0,0,1,.141-3.416,6.986,6.986,0,0,1,3.315-4.7,6.722,6.722,0,0,1,3.18-.9,9.685,9.685,0,0,1,4.8,1.076.772.772,0,0,1,.091.064v3.38l-.323-.162a8.852,8.852,0,0,0-2.42-.869,3.944,3.944,0,0,0-3.58.918,3.984,3.984,0,0,0-1.187,4.189,7.214,7.214,0,0,0,1.061,2.236c.813,1.215,1.735,2.348,2.661,3.477a44.525,44.525,0,0,1,3.553,4.851,10.032,10.032,0,0,1,.939,8.1,6.931,6.931,0,0,1-5.48,4.75,8.782,8.782,0,0,1-4.265-.268c-.592-.176-1.173-.393-1.758-.592A1.936,1.936,0,0,1,1700.3,173.029Z" transform="translate(-1570.702 -141.823)" fill="#FFFFFF"/><path d="M838.425,181.492V150.249h4.16a.218.218,0,0,1,.027.023.064.064,0,0,1,.014.026c0,.02.006.041.008.062a.271.271,0,0,1,0,.031c0,.032,0,.063,0,.095q0,13.662,0,27.323c0,.021,0,.042,0,.063a.139.139,0,0,0,0,.031c0,.01.009.018.035.072.36,0,.744,0,1.128,0h5.909v3.515Z" transform="translate(-763.758 -149.598)" fill="#FFFFFF"/></g></g></g></svg>