<svg xmlns="http://www.w3.org/2000/svg" width="78.289" height="78.282" viewBox="0 0 78.289 78.282"><path d="M77.847,69.6a3.573,3.573,0,0,0-3.226-2c-4.355-.028-8.71-.011-13.066-.011h-.77a17.883,17.883,0,0,1,.933,2.617c1.162-.067,2.245-.011,3.359-.036.7.761,1.4,1.534,2.117,2.283,1.668,1.744,3.351,3.474,5.024,5.214q1.475,1.537,2.936,3.091c.2.217.382.46.536.647V89.6l-.664.617H72.7c-.209-.242-.454-.525-.7-.806-.1-.115-.2-.227-.308-.338Q69,86.277,66.3,83.48c-1.056-1.1-2.1-2.2-3.153-3.305q-1.5-1.572-2.992-3.143c-.086-.09-.161-.189-.288-.335a8.82,8.82,0,0,1-2.08,1.464c.484.538.984,1.107,1.5,1.66.381.411.788.8,1.177,1.2q2.223,2.305,4.44,4.617c.666.7,1.317,1.406,1.977,2.109.746.8,1.491,1.591,2.245,2.4-.667.133-6.974.176-11.3.078-.789-.849-1.611-1.748-2.447-2.633-.453-.482-.933-.941-1.392-1.418q-2.17-2.248-4.334-4.507c-.737-.77-1.461-1.551-2.19-2.329-.083-.087-.157-.182-.359-.419L28.5,78.9a3.965,3.965,0,0,1,.564.416c.723.748,1.425,1.517,2.141,2.269,1.281,1.343,2.568,2.677,3.849,4.018.947.992,1.894,1.981,2.831,2.984.479.512.935,1.047,1.437,1.613H27.987c-.836-.9-1.719-1.845-2.6-2.793-.052-.055-.107-.109-.161-.163q-2.675-2.771-5.351-5.541c-1.091-1.134-2.176-2.277-3.261-3.417-.929-.974-1.852-1.951-2.78-2.927-1.05-1.1-2.108-2.2-3.152-3.31-.555-.592-1.086-1.2-1.629-1.8A.259.259,0,0,1,9.1,70.2a.139.139,0,0,1,.067-.025c2.419,0,4.839,0,7.295,0,.02.09.076.192.053.272-.033.125-.062.248-.082.372l.2-.618c.247-.986.883-2.614.883-2.614-2.16,0-4.3,0-6.439,0-2.419,0-4.84.036-7.26-.013A3.906,3.906,0,0,0,.149,70.3a3.7,3.7,0,0,0-.138,1.037c0,5.91.011,11.82-.011,17.732a3.862,3.862,0,0,0,2.622,3.585,3.267,3.267,0,0,0,.955.158c1.325.017,2.648.008,4.023.008.021.174.041.34.06.508.047.447.11.895.136,1.344a9.38,9.38,0,0,0,.038,1.372c.15.705.013,1.428.156,2.108.209,1-.033,2.021.259,3a.314.314,0,0,1,0,.076c.056,1.137.11,2.273.17,3.41.051.984.1,1.967.164,2.949.021.323.1.642.13.965.019.194,0,.393,0,.64H5.082v2.56H73.208v-2.543H69.588a4.058,4.058,0,0,1,.087-1.453.747.747,0,0,0,.038-.221q.083-1.514.163-3.027c.057-1.11.055-2.228.195-3.329.073-.58.079-1.154.119-1.73.036-.527.1-1.05.142-1.575a4.918,4.918,0,0,1,.139-1.577,1,1,0,0,0,.011-.3c.054-1.032.111-2.064.169-3.169h.836c.993,0,1.988-.041,2.979.008a3.788,3.788,0,0,0,3.678-2.785c.011-.052.1-.09.144-.134V70.494c-.274-.234-.277-.6-.441-.9m-2.179,8.049c-.89-.96-1.692-1.834-2.508-2.694-.524-.555-1.075-1.085-1.6-1.637-.963-1.009-1.917-2.028-2.949-3.12h6.466l.593.623ZM36.525,83.525q-1.636-1.7-3.257-3.419c-.34-.362-.645-.756-.995-1.171h11.3c.625.668,1.317,1.406,2.01,2.145.122.13.236.264.359.392,1.855,1.92,3.716,3.833,5.563,5.759.926.964,1.827,1.954,2.772,2.97H42.864c-.332-.378-.7-.826-1.1-1.243-1.741-1.816-3.495-3.62-5.239-5.434M3.205,90.2c-.163-.166-.392-.4-.582-.591V82.953c.47.476.876.881,1.273,1.294C5.267,85.67,6.641,87.093,8,88.527c.5.53.976,1.088,1.494,1.668Zm3.02-7.158Q4.779,81.521,3.339,80c-.258-.276-.49-.577-.735-.868V70.9l.662-.692h2.2c.528.579,1.08,1.208,1.657,1.81,1.762,1.836,3.535,3.659,5.3,5.492.951.989,1.89,1.989,2.836,2.982q1.551,1.63,3.1,3.256,1.5,1.572,2.993,3.147c1.026,1.088,2.048,2.182,3.1,3.3H13.041c-.375-.421-.8-.92-1.249-1.395-.615-.647-1.255-1.268-1.874-1.91q-1.853-1.922-3.692-3.854m11.34,10.609a10.316,10.316,0,0,0-.136,1.728c-.117.93-.074,1.871-.182,2.793-.079.68-.035,1.363-.135,2.032-.127.855-.049,1.72-.169,2.563-.1.681-.007,1.374-.144,2.031-.214,1.021,0,2.062-.25,3.077a5.15,5.15,0,0,0-.016,1.209,34.036,34.036,0,0,1-5.214.054c-.052-.789-.06-1.594-.169-2.386-.15-1.1-.036-2.212-.275-3.3a.376.376,0,0,1,0-.076c-.055-.982-.112-1.964-.164-2.946-.057-1.11-.043-2.228-.188-3.325-.1-.759-.035-1.518-.146-2.262a11.836,11.836,0,0,1-.119-2.006h7.321a2.975,2.975,0,0,1-.013.814m41.62,15.516H19.1a8.273,8.273,0,0,1,.153-2.117.581.581,0,0,0,.007-.152q.08-1.63.164-3.256c.052-1.009.047-2.028.187-3.024.095-.681.038-1.366.139-2.034.128-.857.046-1.723.167-2.568.1-.682.078-1.359.13-2.035.027-.37.1-.735.163-1.126H58.034a4.8,4.8,0,0,1,.234,1.849c.044,1.009.039,2.028.182,3.024.1.709.005,1.428.149,2.108.21,1-.032,2.021.262,3a.377.377,0,0,1,0,.076c.057,1.11.108,2.222.169,3.332.044.8.1,1.61.152,2.415.01.15,0,.3,0,.507m8.8-14.7c-.017.122-.074.241-.081.361-.062,1.186-.107,2.372-.174,3.558-.03.55-.1,1.1-.141,1.649a4.941,4.941,0,0,1-.144,1.574.235.235,0,0,0,0,.076q-.081,1.625-.164,3.251c-.052,1.009-.1,2.016-.171,3.024-.027.393-.12.783-.19,1.2H61.8c-.01-.2-.018-.394-.027-.59-.055-1.034-.041-2.076-.187-3.1-.1-.709,0-1.425-.147-2.107-.209-1,.024-2.017-.263-3a.416.416,0,0,1,0-.076c-.055-1.186-.106-2.372-.172-3.557-.031-.552-.1-1.1-.142-1.651a5.794,5.794,0,0,0-.131-1.575,2.388,2.388,0,0,1-.01-.672H68a5.331,5.331,0,0,1-.008,1.624" transform="translate(0 -33.493)" fill="#555"/><path d="M152.678,152.655h-2.506a7.9,7.9,0,0,1,.04-2.556c.8-.077,1.638,0,2.466-.043Z" transform="translate(-74.389 -74.373)" fill="#926cdc"/><path d="M2.6,152.651H.021c-.007-.834,0-1.662,0-2.57.825,0,1.625,0,2.416,0,.314.429.132.873.164,1.287s.007.81.007,1.283" transform="translate(-0.008 -74.384)" fill="#926cdc"/><path d="M74.523,37.658H73.276c-.253-.118-.487-.211-.706-.331a2.444,2.444,0,0,1-1.3-2.062c-.076-.829-.088-1.665-.18-2.487a18.732,18.732,0,0,0-.143-1.953c-.21-.945.028-1.918-.262-2.845a.633.633,0,0,1-.006-.152,31.865,31.865,0,0,0-.2-3.4c-.151-.949-.062-1.9-.229-2.85a17.2,17.2,0,0,1-.176-3.018,3.484,3.484,0,0,1,1.062-2.489,3.2,3.2,0,0,1,2.337-1.051.686.686,0,0,0,.217-.047.738.738,0,0,0,.126-.067,5.38,5.38,0,0,0,.589.117,3.6,3.6,0,0,1,3.123,2.626,3.212,3.212,0,0,1,.043,2.074.764.764,0,0,0-.013.227,32.413,32.413,0,0,1-.2,3.4,22.179,22.179,0,0,1-.256,2.921.346.346,0,0,0,0,.076c-.056,1.084-.106,2.168-.173,3.252-.032.526-.1,1.048-.143,1.573a5.093,5.093,0,0,1-.132,1.5,1.653,1.653,0,0,0-.019.455c-.052.8-.061,1.614-.174,2.41a2.191,2.191,0,0,1-1.119,1.686c-.263.146-.532.282-.82.435m-.573-2.477c.039-.27.072-.406.075-.542a7.453,7.453,0,0,1,.044-1.523c.228-.943.087-1.9.238-2.851a31.764,31.764,0,0,0,.2-3.4.61.61,0,0,1,.005-.152,17.308,17.308,0,0,0,.252-2.77,30.984,30.984,0,0,0,.2-3.4.875.875,0,0,1,.007-.228,6.011,6.011,0,0,0,.133-1.857,1.255,1.255,0,0,0-2.45.06c.053,1.036.111,2.172.17,3.307a.235.235,0,0,0,0,.076,3.967,3.967,0,0,1,.138,1.421c.044.5.112,1,.142,1.5.068,1.161.119,2.322.176,3.483a.454.454,0,0,0,.007.151,4.764,4.764,0,0,1,.137,1.575c.045.525.111,1.048.143,1.574.069,1.11.121,2.22.184,3.33,0,.038.054.074.2.254" transform="translate(-34.733 -7.388)" fill="#91ddea"/><path d="M73.876,72.653a3.762,3.762,0,1,1,3.808-3.734,3.744,3.744,0,0,1-3.808,3.734m-.026-5.031c-.867.313-1.238.7-1.185,1.316a1.7,1.7,0,0,0,.259.684,1.376,1.376,0,0,0,.965.539c.719-.161,1.209-.533,1.207-1.267s-.5-1.1-1.246-1.271" transform="translate(-34.732 -32.28)" fill="#91ddea"/><path d="M77.8,36.713a17.9,17.9,0,0,0-.933-2.617q-2.108-4.212-4.2-8.4Q67.309,15,61.961,4.29a7.28,7.28,0,0,0-1.4-2.04,7.187,7.187,0,0,0-3.9-2.1c-.076-.011-.141-.1-.21-.147H54.008c-.19.3-.538.2-.8.273a7.676,7.676,0,0,0-4.853,4.286Q41.1,19.054,33.855,33.554c-.09.179-.172.359-.259.542,0,0-.636,1.629-.882,2.614l-.2.618a6.12,6.12,0,0,0,.41,3.153A7.47,7.47,0,0,0,35.4,43.91a10.009,10.009,0,0,0,3.095,1.455,1.9,1.9,0,0,0,.6.043c1.808,0,3.615,0,5.484,0l18.606.014h.941c2.24,0,4.483-.008,6.724,0a6.613,6.613,0,0,0,3.017-.753,8.813,8.813,0,0,0,2.08-1.464,8.855,8.855,0,0,0,1.7-3.045,6.068,6.068,0,0,0,.152-3.444m-2.4,1.529a4.838,4.838,0,0,1-4.32,4.6,13.707,13.707,0,0,1-1.808.1q-7.033.009-14.064,0c-4.943,0-9.886.011-14.829-.01a5.545,5.545,0,0,1-2.753-.6,4.946,4.946,0,0,1-2.439-3.176,5.143,5.143,0,0,1,.568-3.689c1.649-3.354,3.327-6.693,5-10.036q4.948-9.893,9.9-19.785A5.261,5.261,0,0,1,53.207,2.99a5.332,5.332,0,0,1,1.967-.413,4.7,4.7,0,0,1,3.019.963,5.488,5.488,0,0,1,1.6,2.081q2.543,5.039,5.052,10.094l9.843,19.727a5.605,5.605,0,0,1,.709,2.8" transform="translate(-16.081)" fill="#926cdc"/></svg>