<svg xmlns="http://www.w3.org/2000/svg" xmlns:xlink="http://www.w3.org/1999/xlink" width="361" height="182" viewBox="0 0 361 182"><defs><clipPath id="a"><rect width="285.588" height="55.204" fill="none"/></clipPath></defs><g transform="translate(613 -6466)"><rect width="361" height="182" transform="translate(-613 6466)" fill="none"/><g transform="translate(-576.136 6529.108)"><path d="M45.939,3.524,27.816,34.08,9.412,3.524H0V52.693H10.677V23.824L25.078,47.5H30.2l14.47-24.3.07,29.5H55.421l-.14-49.169Z" transform="translate(0 1.949)" fill="#e34361"/><g transform="translate(0 0)"><g clip-path="url(#a)"><path d="M77.011,27.278V48.842H66.753V44.136C64.717,47.578,60.784,49.4,55.235,49.4c-8.852,0-14.119-4.917-14.119-11.448,0-6.675,4.705-11.31,16.225-11.31h8.71c0-4.705-2.809-7.445-8.71-7.445a18.176,18.176,0,0,0-10.888,3.511l-3.932-7.656c4.143-2.951,10.254-4.567,16.295-4.567,11.521,0,18.194,5.339,18.194,16.789M66.051,36.9V33.038H58.535c-5.128,0-6.743,1.9-6.743,4.426,0,2.739,2.319,4.566,6.181,4.566,3.653,0,6.814-1.686,8.078-5.128" transform="translate(22.734 5.799)" fill="#e34361"/><rect width="10.959" height="52.12" transform="translate(109.648 2.522)" fill="#e34361"/><path d="M118.535,27.278V48.842H108.277V44.136c-2.036,3.441-5.969,5.268-11.518,5.268-8.852,0-14.119-4.917-14.119-11.448,0-6.675,4.705-11.31,16.225-11.31h8.71c0-4.705-2.809-7.445-8.71-7.445a18.176,18.176,0,0,0-10.888,3.511l-3.932-7.656c4.143-2.951,10.254-4.567,16.295-4.567,11.521,0,18.194,5.339,18.194,16.789M107.575,36.9V33.038h-7.516c-5.128,0-6.743,1.9-6.743,4.426,0,2.739,2.319,4.566,6.181,4.566,3.652,0,6.814-1.686,8.078-5.128" transform="translate(45.694 5.799)" fill="#e34361"/><path d="M151.845,1.625v52.12H141.378V49.389c-2.738,3.3-6.743,4.917-11.8,4.917-10.676,0-18.895-7.586-18.895-19.457s8.218-19.457,18.895-19.457c4.636,0,8.571,1.475,11.308,4.566V1.625ZM141.1,34.848c0-6.532-4.216-10.467-9.624-10.467-5.48,0-9.693,3.935-9.693,10.467s4.213,10.467,9.693,10.467c5.407,0,9.624-3.935,9.624-10.467" transform="translate(61.2 0.898)" fill="#e34361"/><path d="M161.733,31.867l2.188-1.669a2.287,2.287,0,0,0,.429-3.2L147.121,4.425a2.288,2.288,0,0,0-3.2-.429l-2.188,1.669a2.287,2.287,0,0,0-.429,3.2l17.23,22.577a2.286,2.286,0,0,0,3.194.429" transform="translate(77.877 1.952)" fill="#e34361"/><path d="M167.226,28.335l2.188-1.669a2.288,2.288,0,0,0,.429-3.2L152.613.893a2.288,2.288,0,0,0-3.2-.429l-2.188,1.669a2.288,2.288,0,0,0-.429,3.2l17.23,22.577a2.288,2.288,0,0,0,3.2.429" transform="translate(80.914 -0.001)" fill="#e34361"/><path d="M171.548,31.867,169.36,30.2a2.287,2.287,0,0,1-.429-3.2L186.16,4.425a2.288,2.288,0,0,1,3.2-.429l2.188,1.669a2.287,2.287,0,0,1,.429,3.2l-17.23,22.577a2.286,2.286,0,0,1-3.194.429" transform="translate(93.151 1.952)" fill="#e34361"/><path d="M166.055,28.335l-2.188-1.669a2.287,2.287,0,0,1-.429-3.2L180.667.893a2.288,2.288,0,0,1,3.2-.429l2.188,1.669a2.287,2.287,0,0,1,.429,3.2L169.25,27.906a2.286,2.286,0,0,1-3.194.429" transform="translate(90.113 -0.001)" fill="#e34361"/><path d="M168.269,46.922h-2.752a2.286,2.286,0,0,1-2.28-2.28v-28.4a2.286,2.286,0,0,1,2.28-2.28h2.752a2.287,2.287,0,0,1,2.28,2.28v28.4a2.287,2.287,0,0,1-2.28,2.28" transform="translate(90.259 7.72)" fill="#e34361"/><path d="M161.991,46.922h-2.752a2.286,2.286,0,0,1-2.28-2.28v-28.4a2.286,2.286,0,0,1,2.28-2.28h2.752a2.287,2.287,0,0,1,2.28,2.28v28.4a2.287,2.287,0,0,1-2.28,2.28" transform="translate(86.788 7.72)" fill="#e34361"/></g></g></g></g></svg>