<svg xmlns="http://www.w3.org/2000/svg" xmlns:xlink="http://www.w3.org/1999/xlink" width="108" height="108" viewBox="0 0 108 108"><defs><linearGradient id="a" x1="0.5" x2="0.5" y2="1" gradientUnits="objectBoundingBox"><stop offset="0" stop-color="#8eecff"/><stop offset="1" stop-color="#743fdb"/></linearGradient></defs><g transform="translate(0.568)"><rect width="108" height="108" transform="translate(-0.568)" opacity="0" fill="url(#a)"/><g transform="translate(14.209 14.777)"><path d="M-4915.565-77.167a1.369,1.369,0,0,0,.227.168,2.359,2.359,0,0,1,1.477,2.325c-.006,3.538,0,7.075,0,10.613a2.286,2.286,0,0,1-2.431,2.416,2.221,2.221,0,0,1-2.21-2.15c-.047-1.444-.021-2.891-.028-4.337,0-.278,0-.556,0-.763q-12.048,12.055-24.164,24.177a13.158,13.158,0,0,1,.058,14.51l24.08,24.09c.006-.1.025-.294.025-.484,0-1.368-.006-2.737.006-4.105a3.781,3.781,0,0,1,.119-1.068,2.281,2.281,0,0,1,2.618-1.555,2.268,2.268,0,0,1,1.921,2.2c.027,1.213.008,2.427.008,3.64,0,2.427.01,4.855-.005,7.282a2.284,2.284,0,0,1-2.341,2.361q-5.422.028-10.845,0a2.294,2.294,0,0,1-2.318-2.3,2.316,2.316,0,0,1,2.256-2.363c.285,0,.568-.011.853-.011,1.394,0,2.786,0,4.169,0a.448.448,0,0,0,.034-.088.121.121,0,0,0-.011-.073q-12-11.933-24.054-23.92c-4.9,3.2-9.943,3.176-14.918.157q-11.978,11.976-23.932,23.924h.555c1.342,0,2.685-.012,4.028.007a3.96,3.96,0,0,1,1.216.16A2.258,2.258,0,0,1-4977.7.151a2.306,2.306,0,0,1-2.064,1.988c-.256.026-.516.014-.775.014-3.176,0-6.352-.047-9.527.022a2.945,2.945,0,0,1-3.124-1.72V-11.63c.1-.178.193-.356.291-.533a2.34,2.34,0,0,1,2.638-1.148,2.268,2.268,0,0,1,1.721,2.129c.039,1.264.019,2.529.024,3.794,0,.438,0,.876,0,1.295.045.029.06.048.08.051a.115.115,0,0,0,.075-.01,1.186,1.186,0,0,0,.18-.14q11.825-11.827,23.64-23.651a13.36,13.36,0,0,1,1.7-17.085,13.247,13.247,0,0,1,16.6-1.383l24.165-24.163h-.7c-1.292,0-2.583.012-3.872-.007a3.793,3.793,0,0,1-1.214-.161,2.128,2.128,0,0,1-1.483-1.9,2.236,2.236,0,0,1,1.186-2.328c.174-.1.343-.2.516-.3Zm-29.65,39.723a8.517,8.517,0,0,0-8.555-8.459,8.452,8.452,0,0,0-8.4,8.369,8.475,8.475,0,0,0,8.667,8.573A8.483,8.483,0,0,0-4945.215-37.444Z" transform="translate(4993.188 77.167)" fill="#fff"/><path d="M-4843.451,58.788c.126.075.25.156.38.223a2.34,2.34,0,0,1,1.3,2.638,2.294,2.294,0,0,1-2.215,1.819c-1.239.008-2.479.01-3.718.013-.437,0-.874,0-1.478,0,.265.285.438.484.623.67l16.373,16.377c.2.2.409.4.59.613a2.337,2.337,0,0,1-.147,3.222,2.345,2.345,0,0,1-3.169.07c-.215-.184-.411-.392-.611-.593l-16.322-16.317c-.2-.2-.4-.385-.686-.656-.014.333-.034.551-.034.769,0,1.446-.031,2.892,0,4.337a2.322,2.322,0,0,1-2.671,2.317,2.248,2.248,0,0,1-1.679-1.111c-.119-.194-.217-.4-.326-.6V60.492a3.671,3.671,0,0,1,1.7-1.7Z" transform="translate(4857.241 -58.788)" fill="#fff"/></g></g></svg>