<svg xmlns="http://www.w3.org/2000/svg" width="668.878" height="385.246" viewBox="0 0 668.878 385.246"><g transform="translate(-192.109 -43.762)"><g transform="translate(238.247 44.238)"><g transform="translate(63.139 14.017)"><g transform="translate(51.085 33.705)"><path d="M415.971,144.127V133.469a1.887,1.887,0,0,0-1.888-1.887H411.34a1.73,1.73,0,0,1-1.693-1.329,37.752,37.752,0,0,0-4.748-11.522,1.757,1.757,0,0,1,.229-2.181l1.929-1.929a1.887,1.887,0,0,0,0-2.669l-7.535-7.536a1.887,1.887,0,0,0-2.669,0l-1.927,1.927a1.757,1.757,0,0,1-2.181.229,37.734,37.734,0,0,0-11.525-4.753,1.731,1.731,0,0,1-1.328-1.693V97.391A1.888,1.888,0,0,0,378,95.5H367.347a1.887,1.887,0,0,0-1.887,1.888v2.734a1.731,1.731,0,0,1-1.329,1.694A37.718,37.718,0,0,0,352.6,106.57a1.757,1.757,0,0,1-2.181-.23l-1.925-1.925a1.887,1.887,0,0,0-2.669,0l-7.535,7.536a1.887,1.887,0,0,0,0,2.669l1.927,1.927a1.756,1.756,0,0,1,.229,2.18,37.744,37.744,0,0,0-4.748,11.525,1.732,1.732,0,0,1-1.694,1.329h-2.74a1.886,1.886,0,0,0-1.887,1.887v10.658a1.887,1.887,0,0,0,1.887,1.887h2.741a1.731,1.731,0,0,1,1.694,1.328,37.7,37.7,0,0,0,4.75,11.522,1.759,1.759,0,0,1-.23,2.181l-1.929,1.93a1.887,1.887,0,0,0,0,2.669l7.535,7.536a1.887,1.887,0,0,0,2.669,0l1.931-1.932a1.759,1.759,0,0,1,2.181-.229,37.744,37.744,0,0,0,11.521,4.743,1.731,1.731,0,0,1,1.329,1.694v2.749a1.887,1.887,0,0,0,1.887,1.887H378a1.888,1.888,0,0,0,1.887-1.887v-2.75a1.73,1.73,0,0,1,1.329-1.693,37.734,37.734,0,0,0,11.519-4.744,1.759,1.759,0,0,1,2.181.229l1.932,1.933a1.887,1.887,0,0,0,2.669,0l7.535-7.536a1.887,1.887,0,0,0,0-2.669l-1.931-1.931a1.757,1.757,0,0,1-.229-2.181,37.718,37.718,0,0,0,4.748-11.52,1.731,1.731,0,0,1,1.694-1.329h2.744A1.888,1.888,0,0,0,415.971,144.127Zm-43.3,24.719A30.045,30.045,0,1,1,402.7,138.789,30.04,30.04,0,0,1,372.674,168.846Z" transform="translate(-329.381 -95.503)" fill="none" stroke="#dee3fc" stroke-miterlimit="10" stroke-width="0.79"/><path d="M462.057,178.231v-7.263a1.287,1.287,0,0,0-1.286-1.287H458.9a1.18,1.18,0,0,1-1.154-.9,25.7,25.7,0,0,0-3.235-7.852,1.2,1.2,0,0,1,.156-1.487l1.314-1.314a1.287,1.287,0,0,0,0-1.82l-5.134-5.135a1.287,1.287,0,0,0-1.82,0l-1.313,1.313a1.2,1.2,0,0,1-1.487.156,25.669,25.669,0,0,0-7.853-3.239,1.18,1.18,0,0,1-.906-1.154v-1.863a1.286,1.286,0,0,0-1.286-1.286h-7.263a1.286,1.286,0,0,0-1.286,1.286v1.863a1.18,1.18,0,0,1-.906,1.154,25.71,25.71,0,0,0-7.854,3.238,1.2,1.2,0,0,1-1.487-.156l-1.312-1.311a1.285,1.285,0,0,0-1.819,0l-5.135,5.135a1.287,1.287,0,0,0,0,1.82l1.313,1.313a1.2,1.2,0,0,1,.156,1.486,25.754,25.754,0,0,0-3.236,7.854,1.179,1.179,0,0,1-1.154.9h-1.867a1.287,1.287,0,0,0-1.286,1.287v7.263a1.286,1.286,0,0,0,1.286,1.286H406.2a1.179,1.179,0,0,1,1.154.9,25.7,25.7,0,0,0,3.237,7.852,1.2,1.2,0,0,1-.156,1.487l-1.315,1.314a1.287,1.287,0,0,0,0,1.82l5.135,5.135a1.286,1.286,0,0,0,1.819,0l1.316-1.316a1.2,1.2,0,0,1,1.486-.156,25.728,25.728,0,0,0,7.851,3.233,1.18,1.18,0,0,1,.906,1.154v1.874a1.286,1.286,0,0,0,1.286,1.286h7.263a1.286,1.286,0,0,0,1.286-1.286v-1.875a1.178,1.178,0,0,1,.906-1.153,25.729,25.729,0,0,0,7.85-3.234,1.2,1.2,0,0,1,1.486.156l1.317,1.317a1.287,1.287,0,0,0,1.82,0l5.134-5.135a1.287,1.287,0,0,0,0-1.82l-1.315-1.315a1.2,1.2,0,0,1-.157-1.487,25.66,25.66,0,0,0,3.236-7.851,1.18,1.18,0,0,1,1.154-.9h1.871A1.286,1.286,0,0,0,462.057,178.231ZM432.55,193.923a19.32,19.32,0,1,1,19.312-19.328A19.317,19.317,0,0,1,432.55,193.923Z" transform="translate(-326.452 -93.531)" fill="#dee3fc"/></g><g transform="translate(10.448)"><circle cx="3.521" cy="3.521" r="3.521" transform="translate(35.958 303.667)" fill="#a4afff"/><circle cx="3.521" cy="3.521" r="3.521" transform="translate(507.629 207.465)" fill="#a4afff"/><circle cx="3.521" cy="3.521" r="3.521" transform="translate(500.588 81.748)" fill="#a4afff"/><circle cx="2.208" cy="2.208" r="2.208" transform="translate(375.315 40.33)" fill="#a4afff"/><path d="M341.691,75.79a2.208,2.208,0,1,1-2.208-2.208A2.209,2.209,0,0,1,341.691,75.79Z" transform="translate(-288.43 -62.67)" fill="#a4afff"/><path d="M388.7,206.586a2.208,2.208,0,1,1-2.208-2.208A2.209,2.209,0,0,1,388.7,206.586Z" transform="translate(-286.56 -57.469)" fill="#a4afff"/><path d="M310.78,362a2.208,2.208,0,1,1-2.208-2.208A2.209,2.209,0,0,1,310.78,362Z" transform="translate(-289.659 -51.288)" fill="#a4afff"/><circle cx="3.521" cy="3.521" r="3.521" transform="translate(455.983 305.746)" fill="#a4afff"/><circle cx="3.521" cy="3.521" r="3.521" transform="translate(530.846 305.746)" fill="#a4afff"/><circle cx="3.521" cy="3.521" r="3.521" transform="translate(110.441)" fill="#a4afff"/><path d="M633.886,220.712a4.711,4.711,0,1,1-4.71-4.711A4.71,4.71,0,0,1,633.886,220.712Z" transform="translate(-277.009 -57.006)" fill="#a4afff"/><path d="M299.72,164.686a4.711,4.711,0,1,1-4.711-4.71A4.711,4.711,0,0,1,299.72,164.686Z" transform="translate(-290.298 -59.234)" fill="#a4afff"/></g><g transform="translate(0 27.827)"><rect width="7.305" height="7.305" rx="0.664" fill="#fff"/><rect width="7.305" height="7.305" rx="0.664" transform="translate(9.772)" fill="#fff"/><rect width="7.305" height="7.305" rx="0.664" transform="translate(19.543)" fill="#fff"/></g><g transform="translate(497.611 284.372)"><rect width="7.305" height="7.305" rx="0.664" fill="#dee3fc"/><rect width="7.305" height="7.305" rx="0.664" transform="translate(9.772)" fill="#dee3fc"/><rect width="7.305" height="7.305" rx="0.664" transform="translate(19.543)" fill="#dee3fc"/></g><g transform="translate(45.868 280.369)"><rect width="7.305" height="7.305" rx="0.664" fill="#dee3fc"/><rect width="7.305" height="7.305" rx="0.664" transform="translate(9.772)" fill="#dee3fc"/><rect width="7.305" height="7.305" rx="0.664" transform="translate(19.543)" fill="#dee3fc"/></g></g><g transform="translate(217.572 6.945)"><rect width="185.079" height="357.535" rx="21.349" fill="#3945ba"/><rect width="178.148" height="349.323" rx="18.7" transform="translate(3.465 3.13)" fill="#fff"/><path d="M602.16,77.914V387.988a13.168,13.168,0,0,1-13.168,13.168H452.778a13.168,13.168,0,0,1-13.169-13.168V77.914a13.168,13.168,0,0,1,13.169-13.168h22.715a3.329,3.329,0,0,1,2.977,1.838l2.412,4.815a6.507,6.507,0,0,0,5.835,3.614h68.336a6.51,6.51,0,0,0,5.836-3.614l2.411-4.815a3.331,3.331,0,0,1,2.978-1.838h22.715A13.168,13.168,0,0,1,602.16,77.914Z" transform="translate(-428.346 -55.949)" fill="#dee3fc"/><path d="M547.552,69.38H492.513a2.318,2.318,0,0,1-2.318-2.318h0a2.317,2.317,0,0,1,2.318-2.317h55.039a2.316,2.316,0,0,1,2.317,2.317h0A2.317,2.317,0,0,1,547.552,69.38Z" transform="translate(-426.334 -55.949)" fill="#dee3fc"/><rect width="139.901" height="60.671" rx="8.379" transform="translate(21.003 273.773)" fill="none" stroke="#698bd1" stroke-linecap="round" stroke-linejoin="round" stroke-width="1" stroke-dasharray="2.837"/><rect width="73.325" height="42.597" rx="6.044" transform="translate(78.943 142.967)" fill="none" stroke="#698bd1" stroke-linecap="round" stroke-linejoin="round" stroke-width="1" stroke-dasharray="2.837"/><g transform="translate(21.003 190.289)"><rect width="140.456" height="67.9" rx="7.201" transform="translate(5.093 5.493)" fill="#4b5a9b"/><path d="M588.877,246.772v52.955a7.468,7.468,0,0,1-7.476,7.466H456.452a7.468,7.468,0,0,1-7.476-7.466V246.772a7.477,7.477,0,0,1,7.476-7.476H581.4A7.477,7.477,0,0,1,588.877,246.772Z" transform="translate(-448.976 -239.296)" fill="#7f95f4"/><rect width="46.919" height="46.919" rx="4.861" transform="translate(6.464 15.46)" fill="#fff"/><g transform="translate(57.94 18.204)"><path d="M538.716,260H506.3a1.6,1.6,0,0,1-1.6-1.6h0a1.6,1.6,0,0,1,1.6-1.6h32.42a1.6,1.6,0,0,1,1.6,1.6h0A1.6,1.6,0,0,1,538.716,260Z" transform="translate(-504.7 -256.804)" fill="#b2c1f9"/><path d="M523.942,266.126H506.3a1.6,1.6,0,0,1-1.6-1.6h0a1.6,1.6,0,0,1,1.6-1.6h17.646a1.6,1.6,0,0,1,1.6,1.6h0A1.6,1.6,0,0,1,523.942,266.126Z" transform="translate(-504.7 -256.56)" fill="#b2c1f9"/><path d="M577.261,266.126H529.513a1.6,1.6,0,0,1-1.6-1.6h0a1.6,1.6,0,0,1,1.6-1.6h47.748a1.6,1.6,0,0,1,1.6,1.6h0A1.6,1.6,0,0,1,577.261,266.126Z" transform="translate(-503.777 -256.56)" fill="#b2c1f9"/><path d="M533.6,272.255H506.3a1.6,1.6,0,0,1-1.6-1.6h0a1.6,1.6,0,0,1,1.6-1.6h27.3a1.6,1.6,0,0,1,1.6,1.6h0A1.6,1.6,0,0,1,533.6,272.255Z" transform="translate(-504.7 -256.316)" fill="#b2c1f9"/><path d="M555.5,272.255H538.335a1.6,1.6,0,0,1-1.6-1.6h0a1.6,1.6,0,0,1,1.6-1.6H555.5a1.6,1.6,0,0,1,1.6,1.6h0A1.6,1.6,0,0,1,555.5,272.255Z" transform="translate(-503.426 -256.316)" fill="#b2c1f9"/><path d="M576.04,272.255H560.234a1.6,1.6,0,0,1-1.6-1.6h0a1.6,1.6,0,0,1,1.6-1.6H576.04a1.6,1.6,0,0,1,1.6,1.6h0A1.6,1.6,0,0,1,576.04,272.255Z" transform="translate(-502.555 -256.316)" fill="#b2c1f9"/><path d="M578.185,278.384H506.3a1.6,1.6,0,0,1-1.6-1.6h0a1.6,1.6,0,0,1,1.6-1.6h71.889a1.6,1.6,0,0,1,1.6,1.6h0A1.6,1.6,0,0,1,578.185,278.384Z" transform="translate(-504.7 -256.073)" fill="#b2c1f9"/><path d="M545.861,284.513H506.3a1.6,1.6,0,0,1-1.6-1.6h0a1.6,1.6,0,0,1,1.6-1.6h39.565a1.6,1.6,0,0,1,1.6,1.6h0A1.6,1.6,0,0,1,545.861,284.513Z" transform="translate(-504.7 -255.829)" fill="#b2c1f9"/><path d="M576.427,284.513H550.483a1.6,1.6,0,0,1-1.6-1.6h0a1.6,1.6,0,0,1,1.6-1.6h25.944a1.6,1.6,0,0,1,1.6,1.6h0A1.6,1.6,0,0,1,576.427,284.513Z" transform="translate(-502.943 -255.829)" fill="#b2c1f9"/><path d="M529.542,290.642H506.3a1.6,1.6,0,0,1-1.6-1.6h0a1.6,1.6,0,0,1,1.6-1.6h23.246a1.6,1.6,0,0,1,1.6,1.6h0A1.6,1.6,0,0,1,529.542,290.642Z" transform="translate(-504.7 -255.585)" fill="#b2c1f9"/><path d="M557.951,290.642H534.7a1.6,1.6,0,0,1-1.6-1.6h0a1.6,1.6,0,0,1,1.6-1.6h23.247a1.6,1.6,0,0,1,1.6,1.6h0A1.6,1.6,0,0,1,557.951,290.642Z" transform="translate(-503.57 -255.585)" fill="#b2c1f9"/><path d="M575.951,290.642H562.462a1.6,1.6,0,0,1-1.6-1.6h0a1.6,1.6,0,0,1,1.6-1.6h13.489a1.6,1.6,0,0,1,1.6,1.6h0A1.6,1.6,0,0,1,575.951,290.642Z" transform="translate(-502.466 -255.585)" fill="#b2c1f9"/><path d="M538.716,296.772H506.3a1.6,1.6,0,0,1-1.6-1.6h0a1.6,1.6,0,0,1,1.6-1.6h32.42a1.6,1.6,0,0,1,1.6,1.6h0A1.6,1.6,0,0,1,538.716,296.772Z" transform="translate(-504.7 -255.342)" fill="#b2c1f9"/><path d="M576.675,260H544.256a1.6,1.6,0,0,1-1.6-1.6h0a1.6,1.6,0,0,1,1.6-1.6h32.419a1.6,1.6,0,0,1,1.6,1.6h0A1.6,1.6,0,0,1,576.675,260Z" transform="translate(-503.19 -256.804)" fill="#b2c1f9"/></g><path d="M588.877,246.772V249h-139.9v-2.225a7.477,7.477,0,0,1,7.476-7.476H581.4A7.477,7.477,0,0,1,588.877,246.772Z" transform="translate(-448.976 -239.296)" fill="#3052ce"/><g transform="translate(110.066 3.293)"><path d="M558.3,244.2a1.733,1.733,0,1,1-1.733-1.732A1.733,1.733,0,0,1,558.3,244.2Z" transform="translate(-554.832 -242.463)" fill="#dee3fc"/><path d="M566.826,244.2a1.733,1.733,0,1,1-1.733-1.732A1.733,1.733,0,0,1,566.826,244.2Z" transform="translate(-554.493 -242.463)" fill="#dee3fc"/><path d="M575.354,244.2a1.733,1.733,0,1,1-1.733-1.732A1.733,1.733,0,0,1,575.354,244.2Z" transform="translate(-554.154 -242.463)" fill="#dee3fc"/></g></g><g transform="translate(29.193 143.006)"><rect width="42.558" height="42.558" rx="7.151" fill="none" stroke="#495ad6" stroke-miterlimit="10" stroke-width="0.896"/><g transform="translate(8.509 15.123)"><path d="M471.168,208.367l-6.132,6.132,6.18,6.18" transform="translate(-465.037 -208.367)" fill="none" stroke="#495ad6" stroke-linecap="round" stroke-linejoin="round" stroke-width="1.672"/><path d="M483.7,208.367l6.132,6.132-6.18,6.18" transform="translate(-464.296 -208.367)" fill="none" stroke="#495ad6" stroke-linecap="round" stroke-linejoin="round" stroke-width="1.672"/><line x1="5.742" y2="12.311" transform="translate(9.899)" fill="none" stroke="#495ad6" stroke-linecap="round" stroke-linejoin="round" stroke-width="1.672"/></g></g><g transform="translate(21.003 30.622)"><rect width="139.901" height="103.592" rx="8.18" transform="translate(0)" fill="#b2c1f9"/><circle cx="20.275" cy="20.275" r="20.275" transform="translate(91.292 7.081)" fill="#f0f4ff"/><path d="M531.211,188.434h-73.73a8.509,8.509,0,0,1-8.505-8.505V166.3L481.24,110.41a4.382,4.382,0,0,1,7.59,0L513.192,152.6l18.092,31.339A4.3,4.3,0,0,1,531.211,188.434Z" transform="translate(-448.976 -84.842)" fill="#fff"/><path d="M561.343,187.55H490.836l20.691-35.83,11.146-19.309a3.943,3.943,0,0,1,6.831,0Z" transform="translate(-447.311 -83.958)" fill="#f0f4ff"/></g></g><g transform="translate(379.267 146.023)"><g transform="translate(58.832 156.019)"><rect width="54.355" height="81.687" fill="#3b47bc"/><rect width="20.813" height="81.687" transform="translate(75.168 81.687) rotate(180)" fill="#495ad6"/><g transform="translate(57.335 3.137)"><rect width="15.281" height="2.607" fill="#b2c1f9"/><rect width="15.281" height="2.607" transform="translate(0 5.601)" fill="#b2c1f9"/><rect width="15.281" height="2.607" transform="translate(0 11.201)" fill="#b2c1f9"/><rect width="15.281" height="2.607" transform="translate(0 16.801)" fill="#b2c1f9"/><rect width="15.281" height="2.607" transform="translate(0 22.402)" fill="#b2c1f9"/><rect width="15.281" height="2.607" transform="translate(0 28.002)" fill="#b2c1f9"/><rect width="15.281" height="2.607" transform="translate(0 33.603)" fill="#b2c1f9"/><rect width="15.281" height="2.607" transform="translate(0 39.203)" fill="#b2c1f9"/><rect width="15.281" height="2.607" transform="translate(0 44.804)" fill="#b2c1f9"/><rect width="15.281" height="2.607" transform="translate(0 50.404)" fill="#b2c1f9"/><rect width="15.281" height="2.607" transform="translate(0 56.005)" fill="#b2c1f9"/><rect width="15.281" height="2.607" transform="translate(0 61.605)" fill="#b2c1f9"/><rect width="15.281" height="2.607" transform="translate(0 67.206)" fill="#b2c1f9"/><rect width="15.281" height="2.607" transform="translate(0 72.806)" fill="#b2c1f9"/></g></g><path d="M632.377,419.08H660s1.544-4.919-1.8-11.013c0,0-2.224,1.783-8.884.577a29.6,29.6,0,0,1-4.7,3.284C642.688,412.861,631.633,415.032,632.377,419.08Z" transform="translate(-582.375 -181.374)" fill="#281616"/><path d="M634.253,343.959c1.784,10.646,10.017,46.665,13.557,67.943,6.468.551,9.575-.191,11.221-.571-.322-7.42-.961-25.168-.885-32.951.123-13.154.74-30.5-5.05-40.02l-19.472,1.533c.119,1.027.227,1.864.322,2.462C634.039,342.928,634.146,343.457,634.253,343.959Z" transform="translate(-582.324 -184.146)" fill="#002c54"/><path d="M584.322,419.08h27.625s1.544-4.919-1.8-11.013c0,0-2.224,1.783-8.884.577a29.62,29.62,0,0,1-4.7,3.284C594.633,412.861,583.578,415.032,584.322,419.08Z" transform="translate(-584.286 -181.374)" fill="#281616"/><path d="M599.842,411.525a31.712,31.712,0,0,0,10.912.975c1.469-8.553,3.789-27.372,5.878-36.192,3.24-13.711,6.41-32.568,4.208-39.295l-19.154-4.81C601.623,332.809,600.063,390.518,599.842,411.525Z" transform="translate(-583.668 -184.391)" fill="#052635"/><path d="M676,313.572h0c-.385-3.785-.828-6.549-.828-6.549l-21.4,5.237L635.6,316.4c-6.739,1.5-14.879,3.309-22.056,4.931-8.054,1.83-13.4,7.947-11.636,16.011l2.018,9.781c11.264-.154,64.222-5.23,68.752-7.518C677.793,337.021,679.334,327.884,676,313.572Z" transform="translate(-583.599 -185.392)" fill="#052635"/><path d="M706.723,313.621h0a29.564,29.564,0,0,0-2.23-7.846l-20,6.534L666.32,316.45c-6.739,1.5-14.879,3.309-22.057,4.931-8.053,1.83-13.4,7.947-11.635,16.011l2.018,9.781c11.264-.154,58.342-1.795,68.751-7.518C708.421,336.893,710.056,327.934,706.723,313.621Z" transform="translate(-582.377 -185.442)" fill="#002c54"/><g transform="translate(32.996 95.607)"><path d="M647.476,283.9s9.5-4.293,12.121.013c1.432,2.357.441,6.736-2.8,8.574s-21.56,9.586-38.848,13.906a42.175,42.175,0,0,0-1.929-4.933,90.994,90.994,0,0,0,15.466-8.632,98.592,98.592,0,0,1,15.991-8.927Z" transform="translate(-616.02 -281.994)" fill="#e5918f"/></g><path d="M648.87,255.281l-8.146,32.535s.841,8.226,9.149,4.188,13.811-29.958,13.811-29.958Z" transform="translate(-582.042 -187.45)" fill="#e5918f"/><path d="M662.483,274.194c-1.008-.243-1.969-.511-2.9-.788q-1.424-.418-2.711-.869a45.677,45.677,0,0,1-11.923-5.84c2.433-10.579,5.364-17.681,7.972-22.362a3.624,3.624,0,0,0,.2-.348l.209-.347a20.324,20.324,0,0,1,5.666-5.9c.232-.162.452-.313.684-.475l.961,16.987L660.8,256Z" transform="translate(-581.874 -188.167)" fill="#fff"/><path d="M662.026,273.558c-1.008-.243-1.969-.511-2.9-.788q-1.424-.418-2.711-.869c1.625-11.443,3.093-18.632,3.093-18.632l.834,2.1Z" transform="translate(-581.418 -187.53)" fill="#c7e5f2"/><path d="M710.107,245.066c-.2,5.028-1.077,13.105-1.842,21.215-.243,2.572-.475,5.156-.672,7.647-.139,1.553-2.48,9.838-2.572,11.321-.417,7.091-3.894,12.4-.6,23.2a17,17,0,0,1,.985,4.983c0,.741-.961,1.518-1.343,1.727-1.379.8-4.091,1.355-7.381,1.761h-.011a191.473,191.473,0,0,1-20.487.938c-7.08,0-17.705-1.124-19.049-2.908-1.229-1.633-.094-4.009.487-7.289,2.607-14.8,1.68-22.513,1.518-33.2,0-.266-.012-.533-.012-.811-.266-16.477-1.355-30.578-.591-35.665.232-.162.452-.313.684-.475,1.123-.765,2.224-1.448,3.29-2.051.094-.046.209-.115.324-.185.325-.185.661-.359.974-.533a3.738,3.738,0,0,1,.37-.185,80.748,80.748,0,0,1,7.9-3.117c.256-.081.487-.162.684-.219,1.888-.116,3.94-.139,6.152-.081,1.923.057,4.867.312,8.065.73h.011a83.156,83.156,0,0,1,10.707,2,.536.536,0,0,1,.057.023,22.031,22.031,0,0,1,8.424,5.9A28.431,28.431,0,0,1,710.107,245.066Z" transform="translate(-581.411 -188.411)" fill="#fff"/><path d="M702.943,307.5a17,17,0,0,1,.985,4.983c0,.741-.961,1.518-1.343,1.727-1.379.8-4.091,1.355-7.381,1.761,1.356-.162,3.7-2.313,3.7-4.253,0-1.358-1.761-10.533-1.275-16.454s1.448-15.318-.383-22.85-3.569-17.438-3.569-17.438L704,261.207s1.333,1.865,2.793,4.125c-.243,2.572-.475,5.156-.672,7.647C705.979,274.533,699.652,296.7,702.943,307.5Z" transform="translate(-579.936 -187.462)" fill="#c7e5f2"/><g transform="translate(72.738)"><path d="M658.906,202.65s.893,10.8,4.474,11.524,2.7-3.863,2.7-3.863l-.5-5.127Z" transform="translate(-654.057 -189.543)" fill="#002c54"/><path d="M674.964,241.321c-7.01-.835-4.392-7.648-3.43-9.212.256-.081,1.461-.451,1.553-.509a.035.035,0,0,1,.023-.011,1.933,1.933,0,0,0,.545-.811c.683-1.8.37-5.377.347-5.609v-.66c.115-.428.232-.835.324-1.217l3.685-2.9,7.8-6.129s-2.074,10.254-.406,16.719a2.427,2.427,0,0,0,1.031,1.553c0,.011.011,0,.011,0a1.863,1.863,0,0,0,.776.278C689.135,233.719,686.47,242.688,674.964,241.321Z" transform="translate(-653.605 -189.081)" fill="#e5918f"/><path d="M681.013,220.532a11.631,11.631,0,0,1-7.494,9.991c.69-1.786.373-5.369.35-5.6l3.112-2.443Z" transform="translate(-653.475 -188.832)" fill="#cc6362"/><path d="M660.553,204.538s1.62,22.4,7.669,24.308a15.734,15.734,0,0,0,13.241-6.718c1.594-2.144,3.609-2.626,4.267-5.217,1.068-4.206,2.576-11.966.653-16.641C683.644,193.611,660.812,188.323,660.553,204.538Z" transform="translate(-653.991 -189.894)" fill="#e5918f"/><path d="M686.727,196.722c-.1-4.07-4.219-5.59-4.219-5.59-4.1-1.919-12.623-1.092-21.409.868-2.06.46-4.645-.8-6.083.193-1.738,1.206-.007,6.717-.007,6.717,3.389,10.264,15.86,6.926,19.608,5.659.89,2.643.776,6.317,3,8.211,1.266,1.08,3.467,1.11,5.7.738.275.523,1.309.985,1.52,1.7.7,2.4.6,6.15.582,9.046l1.056-.517C686.616,222.968,697.555,197.058,686.727,196.722Z" transform="translate(-654.242 -190.044)" fill="#002c54"/><g transform="translate(7.46 17.871)"><path d="M666.723,211.5c.317,1.86-.6,3.567-2.048,3.814s-2.879-1.062-3.2-2.922.6-3.568,2.048-3.815S666.407,209.637,666.723,211.5Z" transform="translate(-661.417 -207.179)" fill="none" stroke="#fff" stroke-miterlimit="10" stroke-width="0.501"/><path d="M673.754,210.184c.316,1.86-.6,3.569-2.049,3.815s-2.878-1.062-3.2-2.923.6-3.568,2.049-3.815S673.437,208.324,673.754,210.184Z" transform="translate(-661.137 -207.232)" fill="none" stroke="#fff" stroke-miterlimit="10" stroke-width="0.501"/><path d="M666.52,211.4s.32-.521,2-.374" transform="translate(-661.214 -207.082)" fill="none" stroke="#fff" stroke-miterlimit="10" stroke-width="0.501"/><line y1="0.998" x2="6.249" transform="translate(12.679 2.4)" fill="none" stroke="#fff" stroke-miterlimit="10" stroke-width="0.501"/></g><g transform="translate(25.06 18.768)"><path d="M680.131,217.529c4.3,1.648,5.647-8.943,1.561-9.413-3.1-.356-3.226,3.968-3.226,3.968S677.673,216.588,680.131,217.529Z" transform="translate(-678.344 -208.095)" fill="#e5918f"/></g><g transform="translate(26.809 20.386)" opacity="0.5"><path d="M681.483,209.651s-2.542,1.345-.911,5.474" transform="translate(-680.026 -209.651)" fill="none" stroke="#cc6362" stroke-miterlimit="10" stroke-width="0.724"/><path d="M682.153,211.585a2.248,2.248,0,0,0-2.09,1.551" transform="translate(-680.024 -209.574)" fill="none" stroke="#cc6362" stroke-miterlimit="10" stroke-width="0.724"/></g></g><path d="M720.693,289.261v.01c-1.891,2.194-9.068,3.793-12.521.758-1.085-.967-2.31-3.514-3.514-6.675a206.9,206.9,0,0,1-5.959-20.174l16.06-8.207s2.066,9.264,3.846,18.068c0,0,.016.089.048.245.58,2.82,1.119,5.594,1.543,7.974a1.215,1.215,0,0,1,.03.189A33.731,33.731,0,0,1,720.693,289.261Z" transform="translate(-579.737 -187.462)" fill="#e5918f"/><path d="M692.865,252.707c1.551,6.449,6.426,18.67,6.426,18.67a25.443,25.443,0,0,0,11.788-1.426,21.719,21.719,0,0,0,7.507-4.876s-3.233-9.085-6.135-15.614c-2.6-5.86-4.168-8.048-5.3-9.209a25.5,25.5,0,0,0-6.377-4.742Z" transform="translate(-579.968 -188.236)" fill="#fff"/><path d="M713.043,256.987l-9.425-4.067-7.426-19.134s1.361.414,3.154,1.138h.008c.034.017.112.043.241.095a1.061,1.061,0,0,1,.138.06c1.6.75,7.814,4.411,12.112,17.712l.1.336c.458,1.534.793,2.766.974,3.4.017.06.034.121.051.189C713,256.806,713.017,256.9,713.043,256.987Z" transform="translate(-579.836 -188.305)" fill="#fff"/><g transform="translate(80.685 85.342)"><path d="M721.741,288.579v.01c-.138,1.176-.462,2.021-1.044,2.321-.091.059-1.411.844-1.5.9a80.258,80.258,0,0,1-9.956,5.148,360.712,360.712,0,0,1-34.763,12.491,40.889,40.889,0,0,0-2.127-4.853,91.046,91.046,0,0,0,15.092-9.264c7.491-5.718,18.266-12.663,18.266-12.663l2.721-3.2s9.673-8.9,11.226-7.112c0,0,.016.089.048.245.231.929,1,4.344,1.543,7.974a1.237,1.237,0,0,1,.03.189A33.724,33.724,0,0,1,721.741,288.579Z" transform="translate(-661.47 -272.122)" fill="#e5918f"/><path d="M673.877,302.886a5.984,5.984,0,0,1-3.818.734c-1.066-.224-1.5-.66-2.284-.8a17.67,17.67,0,0,1-3.926-.908c-1.04-.509-1.445-.567-1.409.477s2.087,1.945,2.643,2.234a5.316,5.316,0,0,1,1.33,1.331c.075.116-3.418,1.944-4.358,1.574a2.72,2.72,0,0,0-.12,1.31c.159.469.877.634.933.87s-.165.717-.009,1.093.8.375,1.055.984-.026.619.163,1.253,1,.75,1.154,1.076.072.71.412.936,3.482-.783,4.629-1.274,4.211-4.9,7.6-6.406Z" transform="translate(-661.886 -270.952)" fill="#e5918f"/></g><path d="M689.794,321.864H665.361v-2.39h24.432a1.2,1.2,0,0,1,1.195,1.195h0A1.2,1.2,0,0,1,689.794,321.864Z" transform="translate(-581.062 -184.897)" fill="#375f84"/><path d="M679.026,323.618H617.853a1.631,1.631,0,0,1-1.571-1.195l-12.52-45.071a1.566,1.566,0,0,1,1.508-1.985h59.156a3.067,3.067,0,0,1,2.956,2.248l12.475,44.909A.862.862,0,0,1,679.026,323.618Z" transform="translate(-583.514 -186.651)" fill="#375f84"/><path d="M676.9,323.618H615.724a1.63,1.63,0,0,1-1.571-1.195l-12.521-45.071a1.566,1.566,0,0,1,1.509-1.985H662.3a3.069,3.069,0,0,1,2.956,2.248l12.475,44.909A.863.863,0,0,1,676.9,323.618Z" transform="translate(-583.599 -186.651)" fill="#467cdb"/></g><g transform="translate(111.821 204.447)"><path d="M440.84,294.494l7.086-7.265a19.005,19.005,0,0,1,.631-3.923c.387-.683,1.383-3.214,1.88-3.489a2.567,2.567,0,0,1,1.49,0,6.821,6.821,0,0,1,1.426-.331,4.189,4.189,0,0,1,1.266.4s1.059-.072,1.5-.072a.94.94,0,0,1,.582.124,31.163,31.163,0,0,1,2.536-2.626c.828-.662,2.094-1.882,2.468-1.877.354,0,.509.626.253,1.288a7.364,7.364,0,0,1-1.379,1.73l-3.228,4.892a6.925,6.925,0,0,0,.846-.4c.294-.184,2.263-2.023,2.382-2.1s1-.661,1.517-.073-3.38,5.255-4.006,5.88a34.116,34.116,0,0,1-4.206,2.438s-3.781,6.8-4.149,7.242S440.84,294.494,440.84,294.494Z" transform="translate(-322.546 -245.073)" fill="#e49191"/><path d="M448.261,261.972s-3.957,22.929-7.684,23.461c0,0-14.873.6-18.187-17.443-2.874-15.649,8.652-18.985,14.043-17.788S449.419,252.177,448.261,261.972Z" transform="translate(-323.297 -246.085)" fill="#e49191"/><path d="M435.175,281.027s-2.085,2.808-2.815,9.613a22.089,22.089,0,0,1-11.905-2.056,84.268,84.268,0,0,0,3.455-20.016" transform="translate(-323.356 -245.346)" fill="#e49191"/><path d="M431.04,246.512c-8.129,1.8-7.479,6.859-7.479,6.859-3.8.942-4.623,2.513-4.592,9.537s2.573,15.458,3.975,16.144,9.348.72,10.011.479,3.445-6.686,2.8-7.819.033-5.592,1.883-5.76,1.489,2.7,1.489,2.7l1.521-.334,1.174-2.88c10.741.639,13.516-11.6,13.516-11.6C452.753,252.154,439.168,244.716,431.04,246.512Z" transform="translate(-323.415 -246.234)" fill="#002c54"/><path d="M343.978,395.789l8.218,1.188-2.722,9.6-8.9-2.245a5.786,5.786,0,0,1,1.847-8.54A2.99,2.99,0,0,1,343.978,395.789Z" transform="translate(-326.58 -240.291)" fill="#e5918f"/><path d="M405.024,373.5,392.91,336.827s-3.671-1.308-5.552,0c0,0-12.619,6.785-11.272,26.134,1.015,14.586,4.095,30.406,5.342,36.75l-32.318-1.195a11.009,11.009,0,0,0-1.408,10.907s40.609,10.922,46.329,11.931c4.649.82,9.737,1.453,12.194-.653C410.554,416.993,405.024,373.5,405.024,373.5Z" transform="translate(-326.284 -242.655)"/><path d="M380.78,395.789,389,396.978l-2.722,9.6-8.9-2.245a5.786,5.786,0,0,1,1.847-8.54A2.994,2.994,0,0,1,380.78,395.789Z" transform="translate(-325.116 -240.291)" fill="#e5918f"/><path d="M378.287,400.915c-.183,1.889,1.469,3.59,1.167,4.061s-5.827,9.739-5.827,9.739,4.171,1.816,3.5,4.44H366.563a8.768,8.768,0,0,1-2.691-6.055,30.686,30.686,0,0,1,2.6-7.736c1.884-3.633,6.166-11.835,6.166-11.835a5.98,5.98,0,0,1,3.521.068,21.371,21.371,0,0,1,5.11,2.285S378.742,396.246,378.287,400.915Z" transform="translate(-325.606 -240.385)" fill="#467cdb"/><path d="M462.144,412.974c-2.608-9.73-27.143-51.27-35.444-62.486-17.048-7.4-35.218-13.683-35.218-13.683-7.515,1.795-11.217,16.937-6.954,27.031,2.924,6.926,21.473,24.356,32.832,34.617l-31.522-.038s-3.713,5.55-.348,10.822c0,0,52.427,11.921,57.025,12.594s14.917,0,14.917,0S464.339,421.166,462.144,412.974Z" transform="translate(-324.856 -242.632)" fill="#002c54"/><path d="M341.486,400.915c-.183,1.889,1.469,3.59,1.167,4.061s-5.827,9.739-5.827,9.739,4.17,1.816,3.5,4.44H329.762a8.768,8.768,0,0,1-2.691-6.055,30.641,30.641,0,0,1,2.6-7.736c1.884-3.633,6.166-11.835,6.166-11.835a5.98,5.98,0,0,1,3.521.068,21.353,21.353,0,0,1,5.109,2.285S341.941,396.246,341.486,400.915Z" transform="translate(-327.07 -240.385)" fill="#467cdb"/><path d="M498.56,286.975l-16.908,29.741-12.108-12.07-10.023,14.919,2.91,1.4-1.047.871s23.368,11.38,26.168,8.87S503.4,290.356,503.4,290.356Z" transform="translate(-321.803 -244.614)" fill="#e49191"/><path d="M474.763,306.742s-3.192,13.465-9.576,19.849l-16.335-6.218s-7.58,12.748-14.993,22.521c-2.849,3.774-3.8,9.088-7.143,9.784-.208-.073-.405-.135-.613-.187-9.077-2.724-22.469.166-33.522-3.941-12.207-4.544-9.836-7.1-9.836-7.1a157.677,157.677,0,0,0,11.6-27.471,168.408,168.408,0,0,0,4.034-16.563,19.071,19.071,0,0,1,16.054-15.357c.094-.01.177-.031.27-.042,9.254-1.175,33.481,1.684,38.191,3.7S474.763,306.742,474.763,306.742Z" transform="translate(-324.863 -244.822)" fill="#467cdb"/><path d="M447.163,318.979s-7.58,12.748-14.993,22.521c-2.849,3.774-3.8,9.088-7.143,9.784,1.466-.52,3.9-8.235,4.762-9.971s2.256-3.462,5.251-9.524,7.035-14.972,7.035-14.972Z" transform="translate(-323.174 -243.427)" fill="#5996ef"/><path d="M416.036,396.1a52.9,52.9,0,0,1,16.3,2.342" transform="translate(-323.532 -240.275)" fill="none" stroke="#000" stroke-miterlimit="10" stroke-width="1.065"/><path d="M509.741,276.651a15.859,15.859,0,0,0-2.843,2.05l.964-1.846a18.143,18.143,0,0,0,1.734-1.907c.459-.676.217-1.352-.146-1.388a14.2,14.2,0,0,0-2.663,1.9l.194-.371a18.162,18.162,0,0,0,1.733-1.907c.459-.676.217-1.352-.145-1.388s-3.3,2.426-3.3,2.426l-1.429,1.912,1.077-2.091a9.06,9.06,0,0,0,.945-1.449c.377-.756.1-.988-.105-1.239s-2.185,1.219-2.689,1.806a30.494,30.494,0,0,0-2.226,3.308l-1.65,3.414c-.105-.989-.271-2.682-.388-3.76-.167-1.554-1.575-1.922-1.624-1.167s-.833,4.474-.655,6.491.515,3.339.642,4.473-1.051,3.4-1.051,3.4,4.706,2.922,5.484,2.047a36.746,36.746,0,0,0,3.234-4.125,21.968,21.968,0,0,0,1.841-4.159l1.47-3.141a18.175,18.175,0,0,0,1.733-1.907C510.344,277.363,510.1,276.686,509.741,276.651Z" transform="translate(-320.347 -245.236)" fill="#e49191"/></g><g transform="translate(509.716 141.163)"><path d="M771.323,185.37H716.149a6.4,6.4,0,0,0-6.4,6.4v13.035a6.4,6.4,0,0,0,5.594,6.352.922.922,0,0,1,.808.916v7.136a.425.425,0,0,0,.769.246l5.62-7.859a.931.931,0,0,1,.758-.39h48.027a6.4,6.4,0,0,0,6.4-6.4V191.773A6.4,6.4,0,0,0,771.323,185.37Z" transform="translate(-709.747 -185.37)" fill="none" stroke="#fff" stroke-miterlimit="10" stroke-width="0.896"/><g transform="translate(10.65 10.793)"><path d="M724.206,197.858a2.108,2.108,0,1,1-2.109-2.108A2.108,2.108,0,0,1,724.206,197.858Z" transform="translate(-719.99 -195.75)" fill="none" stroke="#fff" stroke-miterlimit="10" stroke-width="0.896"/><path d="M734.415,197.858a2.108,2.108,0,1,1-2.108-2.108A2.107,2.107,0,0,1,734.415,197.858Z" transform="translate(-719.584 -195.75)" fill="none" stroke="#fff" stroke-miterlimit="10" stroke-width="0.896"/><path d="M744.625,197.858a2.108,2.108,0,1,1-2.109-2.108A2.108,2.108,0,0,1,744.625,197.858Z" transform="translate(-719.178 -195.75)" fill="none" stroke="#fff" stroke-miterlimit="10" stroke-width="0.896"/><path d="M754.834,197.858a2.108,2.108,0,1,1-2.108-2.108A2.108,2.108,0,0,1,754.834,197.858Z" transform="translate(-718.772 -195.75)" fill="none" stroke="#fff" stroke-miterlimit="10" stroke-width="0.896"/><path d="M765.044,197.858a2.108,2.108,0,1,1-2.109-2.108A2.108,2.108,0,0,1,765.044,197.858Z" transform="translate(-718.366 -195.75)" fill="none" stroke="#fff" stroke-miterlimit="10" stroke-width="0.896"/></g></g><g transform="translate(128.914 198.305)"><path d="M349.912,240.327h55.174a6.4,6.4,0,0,1,6.4,6.4v13.034a6.4,6.4,0,0,1-5.6,6.352.924.924,0,0,0-.808.917v7.135a.424.424,0,0,1-.768.246l-5.621-7.859a.93.93,0,0,0-.757-.389H349.912a6.4,6.4,0,0,1-6.4-6.4V246.729A6.4,6.4,0,0,1,349.912,240.327Z" transform="translate(-343.51 -240.327)" fill="none" stroke="#fff" stroke-miterlimit="10" stroke-width="0.896"/><g transform="translate(10.65 10.792)"><path d="M394.591,252.815a2.108,2.108,0,1,0,2.108-2.109A2.108,2.108,0,0,0,394.591,252.815Z" transform="translate(-352.129 -250.706)" fill="none" stroke="#fff" stroke-miterlimit="10" stroke-width="0.896"/><path d="M384.381,252.815a2.108,2.108,0,1,0,2.109-2.109A2.108,2.108,0,0,0,384.381,252.815Z" transform="translate(-352.535 -250.706)" fill="none" stroke="#fff" stroke-miterlimit="10" stroke-width="0.896"/><path d="M374.172,252.815a2.108,2.108,0,1,0,2.108-2.109A2.108,2.108,0,0,0,374.172,252.815Z" transform="translate(-352.941 -250.706)" fill="none" stroke="#fff" stroke-miterlimit="10" stroke-width="0.896"/><path d="M363.962,252.815a2.108,2.108,0,1,0,2.109-2.109A2.108,2.108,0,0,0,363.962,252.815Z" transform="translate(-353.347 -250.706)" fill="none" stroke="#fff" stroke-miterlimit="10" stroke-width="0.896"/><path d="M353.753,252.815a2.108,2.108,0,1,0,2.108-2.109A2.108,2.108,0,0,0,353.753,252.815Z" transform="translate(-353.753 -250.706)" fill="none" stroke="#fff" stroke-miterlimit="10" stroke-width="0.896"/></g></g><g transform="translate(357.924 91.008)"><path d="M674.364,157.218H573.8a10.042,10.042,0,0,1-10.042-10.042h0A10.042,10.042,0,0,1,573.8,137.134H674.364a10.042,10.042,0,0,1,10.042,10.042h0A10.042,10.042,0,0,1,674.364,157.218Z" transform="translate(-563.76 -137.134)" fill="#fff" stroke="#495ad6" stroke-miterlimit="10" stroke-width="0.896"/><g transform="translate(98.45 4.01)"><path d="M669.125,146.331a5.34,5.34,0,1,1-5.34-5.34A5.34,5.34,0,0,1,669.125,146.331Z" transform="translate(-658.445 -140.991)" fill="none" stroke="#495ad6" stroke-miterlimit="10" stroke-width="1.672"/><line x2="2.949" y2="2.949" transform="translate(9.116 9.116)" fill="none" stroke="#495ad6" stroke-linecap="round" stroke-miterlimit="10" stroke-width="1.672"/></g></g><g transform="translate(60.717)"><g transform="translate(214.633 342.886)"><rect width="41.328" height="41.328" rx="7.708" transform="translate(7.532)" fill="#193091"/><rect width="41.328" height="41.328" rx="7.708" fill="#495ad6"/><path d="M499.587,391.755,511.45,398.6a1.1,1.1,0,0,1,0,1.9l-11.863,6.849a1.1,1.1,0,0,1-1.648-.951v-13.7A1.1,1.1,0,0,1,499.587,391.755Z" transform="translate(-483.804 -378.891)" fill="#fff"/></g><g transform="translate(463.777 330.188)"><rect width="54.025" height="54.025" rx="10.076" transform="translate(9.846)" fill="#193091"/><rect width="54.025" height="54.025" rx="10.076" fill="#495ad6"/><path d="M756.677,380.162a6.491,6.491,0,1,1-6.49-6.491A6.491,6.491,0,0,1,756.677,380.162Z" transform="translate(-723.174 -366.907)" fill="#fff"/><path d="M763.988,401.569v9.581a1.568,1.568,0,0,1-1.568,1.568H738.492a1.567,1.567,0,0,1-1.567-1.568v-9.581a13.531,13.531,0,0,1,13.532-13.532h0A13.531,13.531,0,0,1,763.988,401.569Z" transform="translate(-723.444 -366.336)" fill="#fff"/></g><g transform="translate(347.135 119.469)"><path d="M634.615,167.7h-21.24a1.6,1.6,0,0,1-1.6-1.6h0a1.6,1.6,0,0,1,1.6-1.6h21.24a1.6,1.6,0,0,1,1.6,1.6h0A1.6,1.6,0,0,1,634.615,167.7Z" transform="translate(-611.778 -164.506)" fill="#f0f4ff"/><path d="M654.828,167.7H639.456a1.6,1.6,0,0,1-1.6-1.6h0a1.6,1.6,0,0,1,1.6-1.6h15.372a1.6,1.6,0,0,1,1.6,1.6h0A1.6,1.6,0,0,1,654.828,167.7Z" transform="translate(-610.741 -164.506)" fill="#f0f4ff"/><path d="M622.4,174.449h-9.024a1.6,1.6,0,0,1-1.6-1.6h0a1.6,1.6,0,0,1,1.6-1.6H622.4a1.6,1.6,0,0,1,1.6,1.6h0A1.6,1.6,0,0,1,622.4,174.449Z" transform="translate(-611.778 -164.238)" fill="#f0f4ff"/><path d="M655.315,174.449H627.206a1.6,1.6,0,0,1-1.6-1.6h0a1.6,1.6,0,0,1,1.6-1.6h28.109a1.6,1.6,0,0,1,1.6,1.6h0A1.6,1.6,0,0,1,655.315,174.449Z" transform="translate(-611.228 -164.238)" fill="#f0f4ff"/><path d="M641.373,181.2h-28a1.6,1.6,0,0,1-1.6-1.6h0a1.6,1.6,0,0,1,1.6-1.6h28a1.6,1.6,0,0,1,1.6,1.6h0A1.6,1.6,0,0,1,641.373,181.2Z" transform="translate(-611.778 -163.969)" fill="#f0f4ff"/><path d="M654.585,181.2H645.56a1.6,1.6,0,0,1-1.6-1.6h0a1.6,1.6,0,0,1,1.6-1.6h9.025a1.6,1.6,0,0,1,1.6,1.6h0A1.6,1.6,0,0,1,654.585,181.2Z" transform="translate(-610.498 -163.969)" fill="#f0f4ff"/></g><g transform="translate(22.872 240.307)"><rect width="82.102" height="45.382" rx="3.823" fill="#193091"/><line x2="75.123" transform="translate(3.489 6.131)" fill="none" stroke="#fff" stroke-linecap="round" stroke-miterlimit="10" stroke-width="0.896"/><circle cx="0.91" cy="0.91" r="0.91" transform="translate(75.72 2.102)" fill="#fff"/><circle cx="0.91" cy="0.91" r="0.91" transform="translate(70.976 2.102)" fill="#fff"/><circle cx="0.91" cy="0.91" r="0.91" transform="translate(66.232 2.102)" fill="#fff"/><g transform="translate(3.489 9.727)"><path d="M317.277,292.59H304.529a1.256,1.256,0,0,1-1.256-1.256h0a1.256,1.256,0,0,1,1.256-1.256h12.748a1.256,1.256,0,0,1,1.256,1.256h0A1.256,1.256,0,0,1,317.277,292.59Z" transform="translate(-303.273 -290.078)" fill="#6589d1"/><path d="M317.277,298.174H304.529a1.256,1.256,0,0,1-1.256-1.257h0a1.256,1.256,0,0,1,1.256-1.256h12.748a1.256,1.256,0,0,1,1.256,1.256h0A1.257,1.257,0,0,1,317.277,298.174Z" transform="translate(-303.273 -289.856)" fill="#6589d1"/><path d="M317.277,303.757H304.529a1.256,1.256,0,0,1-1.256-1.256h0a1.257,1.257,0,0,1,1.256-1.257h12.748a1.257,1.257,0,0,1,1.256,1.257h0A1.256,1.256,0,0,1,317.277,303.757Z" transform="translate(-303.273 -289.634)" fill="#6589d1"/><path d="M317.277,309.34H304.529a1.256,1.256,0,0,1-1.256-1.256h0a1.256,1.256,0,0,1,1.256-1.256h12.748a1.256,1.256,0,0,1,1.256,1.256h0A1.256,1.256,0,0,1,317.277,309.34Z" transform="translate(-303.273 -289.412)" fill="#6589d1"/><path d="M317.277,314.924H304.529a1.257,1.257,0,0,1-1.256-1.257h0a1.256,1.256,0,0,1,1.256-1.256h12.748a1.256,1.256,0,0,1,1.256,1.256h0A1.257,1.257,0,0,1,317.277,314.924Z" transform="translate(-303.273 -289.19)" fill="#6589d1"/><path d="M317.277,320.507H304.529a1.256,1.256,0,0,1-1.256-1.256h0a1.257,1.257,0,0,1,1.256-1.257h12.748a1.257,1.257,0,0,1,1.256,1.257h0A1.256,1.256,0,0,1,317.277,320.507Z" transform="translate(-303.273 -288.968)" fill="#6589d1"/><g transform="translate(17.676)"><path d="M376.464,292.59H321.529a1.256,1.256,0,0,1-1.256-1.256h0a1.256,1.256,0,0,1,1.256-1.256h54.935a1.256,1.256,0,0,1,1.256,1.256h0A1.256,1.256,0,0,1,376.464,292.59Z" transform="translate(-320.273 -290.078)" fill="#3b5fb7"/><path d="M376.464,298.174H321.529a1.256,1.256,0,0,1-1.256-1.257h0a1.256,1.256,0,0,1,1.256-1.256h54.935a1.256,1.256,0,0,1,1.256,1.256h0A1.256,1.256,0,0,1,376.464,298.174Z" transform="translate(-320.273 -289.856)" fill="#3b5fb7"/><path d="M376.464,303.757H321.529a1.256,1.256,0,0,1-1.256-1.256h0a1.256,1.256,0,0,1,1.256-1.257h54.935a1.257,1.257,0,0,1,1.256,1.257h0A1.256,1.256,0,0,1,376.464,303.757Z" transform="translate(-320.273 -289.634)" fill="#3b5fb7"/><path d="M376.464,309.34H321.529a1.256,1.256,0,0,1-1.256-1.256h0a1.256,1.256,0,0,1,1.256-1.256h54.935a1.256,1.256,0,0,1,1.256,1.256h0A1.256,1.256,0,0,1,376.464,309.34Z" transform="translate(-320.273 -289.412)" fill="#3b5fb7"/><path d="M376.464,314.924H321.529a1.256,1.256,0,0,1-1.256-1.257h0a1.256,1.256,0,0,1,1.256-1.256h54.935a1.256,1.256,0,0,1,1.256,1.256h0A1.257,1.257,0,0,1,376.464,314.924Z" transform="translate(-320.273 -289.19)" fill="#3b5fb7"/><path d="M376.464,320.507H321.529a1.256,1.256,0,0,1-1.256-1.256h0a1.256,1.256,0,0,1,1.256-1.257h54.935a1.257,1.257,0,0,1,1.256,1.257h0A1.256,1.256,0,0,1,376.464,320.507Z" transform="translate(-320.273 -288.968)" fill="#3b5fb7"/></g></g></g><g transform="translate(412.307)"><circle cx="33.798" cy="33.798" r="33.798" transform="matrix(0.233, -0.972, 0.972, 0.233, 0, 65.736)" fill="none" stroke="#dee3fc" stroke-miterlimit="10" stroke-width="0.79"/><circle cx="29.384" cy="29.384" r="29.384" transform="translate(1.982 25.761) rotate(-23.868)" fill="#3945ba"/><path d="M716.419,88.893a2.675,2.675,0,1,1-2.675-2.675A2.675,2.675,0,0,1,716.419,88.893Z" transform="translate(-673.001 -48.151)" fill="#fff"/><path d="M713.739,88.941h0a.837.837,0,0,1-1.137-.325L703.96,73.029a.837.837,0,0,1,.327-1.138h0a.835.835,0,0,1,1.136.325L714.065,87.8A.837.837,0,0,1,713.739,88.941Z" transform="translate(-673.288 -48.724)" fill="#fff"/><path d="M714.059,89.208h0a.837.837,0,0,1,1.183,0l7.476,7.477a.836.836,0,0,1,0,1.182h0a.835.835,0,0,1-1.183,0l-7.476-7.476A.837.837,0,0,1,714.059,89.208Z" transform="translate(-672.892 -48.041)" fill="#fff"/><g transform="translate(13.844 13.844)"><line y1="3.379" transform="translate(27.078)" fill="none" stroke="#fff" stroke-linecap="round" stroke-miterlimit="10" stroke-width="2"/><line x2="3.379" transform="translate(50.418 27.078)" fill="none" stroke="#fff" stroke-linecap="round" stroke-miterlimit="10" stroke-width="2"/><line y2="3.379" transform="translate(26.719 50.418)" fill="none" stroke="#fff" stroke-linecap="round" stroke-miterlimit="10" stroke-width="2"/><line x1="3.379" transform="translate(0 26.719)" fill="none" stroke="#fff" stroke-linecap="round" stroke-miterlimit="10" stroke-width="2"/></g><g transform="translate(17.358 17.358)" opacity="0.5"><line x1="1.69" y1="2.927" transform="translate(10.091)" fill="none" stroke="#dee3fc" stroke-linecap="round" stroke-miterlimit="10" stroke-width="1"/><line y1="1.69" x2="2.927" transform="translate(43.843 10.091)" fill="none" stroke="#dee3fc" stroke-linecap="round" stroke-miterlimit="10" stroke-width="1"/><line x2="1.69" y2="2.927" transform="translate(34.988 43.843)" fill="none" stroke="#dee3fc" stroke-linecap="round" stroke-miterlimit="10" stroke-width="1"/><line x1="2.927" y2="1.69" transform="translate(0 34.989)" fill="none" stroke="#dee3fc" stroke-linecap="round" stroke-miterlimit="10" stroke-width="1"/></g><g transform="translate(17.538 17.538)" opacity="0.5"><line x1="2.927" y1="1.69" transform="translate(0 9.6)" fill="none" stroke="#dee3fc" stroke-linecap="round" stroke-miterlimit="10" stroke-width="1"/><line y1="2.927" x2="1.69" transform="translate(35.12)" fill="none" stroke="#dee3fc" stroke-linecap="round" stroke-miterlimit="10" stroke-width="1"/><line x2="2.927" y2="1.69" transform="translate(43.483 35.12)" fill="none" stroke="#dee3fc" stroke-linecap="round" stroke-miterlimit="10" stroke-width="1"/><line x1="1.69" y2="2.927" transform="translate(9.6 43.483)" fill="none" stroke="#dee3fc" stroke-linecap="round" stroke-miterlimit="10" stroke-width="1"/></g></g><g transform="translate(0 148.878)"><rect width="57.014" height="57.014" rx="9.569" transform="translate(4.419 4.939)" fill="#193091"/><rect width="57.014" height="57.014" rx="7.667" fill="#7e89fd" stroke="#dee3fc" stroke-miterlimit="10" stroke-width="1"/><g transform="translate(15.847 8.991)"><path d="M315.694,214.426h-.3V211.16a9.72,9.72,0,1,0-19.441,0v3.266h-.066a2.728,2.728,0,0,0-2.728,2.727v12.308a2.729,2.729,0,0,0,2.728,2.728h19.8a2.728,2.728,0,0,0,2.727-2.728V217.153A2.727,2.727,0,0,0,315.694,214.426Zm-17.278-3.266a7.259,7.259,0,1,1,14.518,0v3.266H298.416Z" transform="translate(-293.161 -201.438)" fill="#dee3fc"/><path d="M308.63,220.134a3.172,3.172,0,1,0-4.77,2.735.569.569,0,0,1,.287.636l-.551,2.038a1.9,1.9,0,1,0,3.677,0l-.545-2.016a.57.57,0,0,1,.3-.642A3.16,3.16,0,0,0,308.63,220.134Z" transform="translate(-292.798 -200.821)" fill="#7e89fd"/><path d="M317.251,235.253H294.331a1.17,1.17,0,0,1-1.17-1.17h0a1.17,1.17,0,0,1,1.17-1.17h22.921a1.17,1.17,0,0,1,1.17,1.17h0A1.169,1.169,0,0,1,317.251,235.253Z" transform="translate(-293.161 -200.186)" fill="#dee3fc"/><path d="M317.251,239.067H294.331a1.17,1.17,0,0,1-1.17-1.17h0a1.17,1.17,0,0,1,1.17-1.17h22.921a1.169,1.169,0,0,1,1.17,1.17h0A1.17,1.17,0,0,1,317.251,239.067Z" transform="translate(-293.161 -200.035)" fill="#dee3fc"/></g></g><g transform="translate(470.266 241.376)"><path d="M5.634,0h22.3a5.634,5.634,0,0,1,5.634,5.634v22.3a5.633,5.633,0,0,1-5.633,5.633H5.634A5.634,5.634,0,0,1,0,27.932V5.634A5.634,5.634,0,0,1,5.634,0Z" transform="translate(2.602 2.908)" fill="#193091"/><rect width="33.565" height="33.565" rx="4.513" fill="#7e89fd" stroke="#dee3fc" stroke-miterlimit="10" stroke-width="1"/><g transform="translate(6.758 6.757)"><g transform="translate(2.202)"><path d="M739.858,308.3a.986.986,0,0,1-.283-.039,1.038,1.038,0,0,1-.719-1.282l5.076-17.968a1.039,1.039,0,1,1,2,.565l-5.076,17.968A1.038,1.038,0,0,1,739.858,308.3Z" transform="translate(-738.817 -288.249)" fill="#fff"/></g><g transform="translate(10.69)"><path d="M748.021,308.3a.991.991,0,0,1-.283-.039,1.038,1.038,0,0,1-.719-1.282l5.077-17.968a1.039,1.039,0,1,1,2,.565l-5.077,17.968A1.038,1.038,0,0,1,748.021,308.3Z" transform="translate(-746.98 -288.249)" fill="#fff"/></g><g transform="translate(0 4.914)"><path d="M755.707,295.055H737.739a1.04,1.04,0,0,1,0-2.079h17.968a1.04,1.04,0,1,1,0,2.079Z" transform="translate(-736.699 -292.975)" fill="#fff"/></g><g transform="translate(0 13.122)"><path d="M755.707,302.949H737.739a1.04,1.04,0,0,1,0-2.079h17.968a1.04,1.04,0,1,1,0,2.079Z" transform="translate(-736.699 -300.869)" fill="#fff"/></g></g></g><g transform="translate(80.956 168.38)"><path d="M370.2,214.4H357.206a1.426,1.426,0,0,1-1.426-1.426h0a1.426,1.426,0,0,1,1.426-1.424H370.2a1.426,1.426,0,0,1,1.426,1.424h0A1.426,1.426,0,0,1,370.2,214.4Z" transform="translate(-355.78 -211.546)" fill="#f0f4ff"/><path d="M383.291,220.479H357.206a1.425,1.425,0,0,1-1.426-1.424h0a1.426,1.426,0,0,1,1.426-1.426h26.086a1.426,1.426,0,0,1,1.426,1.426h0A1.425,1.425,0,0,1,383.291,220.479Z" transform="translate(-355.78 -211.304)" fill="#f0f4ff"/><path d="M360.286,226.563h-3.081a1.426,1.426,0,0,1-1.426-1.426h0a1.425,1.425,0,0,1,1.426-1.424h3.081a1.425,1.425,0,0,1,1.426,1.424h0A1.426,1.426,0,0,1,360.286,226.563Z" transform="translate(-355.78 -211.062)" fill="#f0f4ff"/><path d="M382.988,226.563H364.824a1.426,1.426,0,0,1-1.424-1.426h0a1.425,1.425,0,0,1,1.424-1.424h18.164a1.425,1.425,0,0,1,1.426,1.424h0A1.426,1.426,0,0,1,382.988,226.563Z" transform="translate(-355.477 -211.062)" fill="#f0f4ff"/><path d="M382.595,214.4h-7.876a1.426,1.426,0,0,1-1.426-1.426h0a1.426,1.426,0,0,1,1.426-1.424h7.876a1.426,1.426,0,0,1,1.425,1.424h0A1.426,1.426,0,0,1,382.595,214.4Z" transform="translate(-355.084 -211.546)" fill="#f0f4ff"/></g><path d="M313.012,401.493a9.027,9.027,0,0,0-4.634,1.273,9.718,9.718,0,0,0-19.315,2.159,7.421,7.421,0,1,0-1.375,14.713h25.324a9.072,9.072,0,1,0,0-18.144Z" transform="translate(-277.827 -35.905)" fill="#fff"/></g><g transform="translate(0 271.966)"><path d="M250.771,365.826a9.581,9.581,0,0,1,.129-4.081,40.42,40.42,0,0,0-.456-21.979c-4.857-15.165-24.542-28.6-24.542-28.6s5.343,22.38,9.736,31.908c3.216,6.977,8.842,14.917,11.965,19.1a9.315,9.315,0,0,1,1.717,3.921,163.251,163.251,0,0,1,2.714,31.454l1.478.058A164.843,164.843,0,0,0,250.771,365.826Z" transform="translate(-219.272 -311.17)" fill="#dee3fc"/><path d="M265.438,351.053a177.117,177.117,0,0,0,5.729-26.926s-17.65,14.563-19.1,25.831a37.835,37.835,0,0,0,1.2,15.7,10.74,10.74,0,0,1,.417,4.267,149.353,149.353,0,0,0-.365,29.486l1.329-.153a147.075,147.075,0,0,1,.209-27.681,11.006,11.006,0,0,1,2.432-5.85A46.247,46.247,0,0,0,265.438,351.053Z" transform="translate(-218.245 -310.655)" fill="#b4c1ef"/><path d="M283.277,323.574s-19.019,7.058-23.993,22.587a41.441,41.441,0,0,0-.414,22.713,7.8,7.8,0,0,1,0,3.869,174.26,174.26,0,0,0-4.524,36.614h1.515a173.029,173.029,0,0,1,4.371-35.825,13.431,13.431,0,0,1,2.255-4.816c3.244-4.369,8.764-12.23,11.96-19.164C278.943,339.794,283.277,323.574,283.277,323.574Z" transform="translate(-218.141 -310.677)" fill="#dee3fc"/><path d="M251.1,388.683a52.777,52.777,0,0,0-4.392-17.262,5.884,5.884,0,0,1-.444-3.123,28.539,28.539,0,0,0-.444-9.282c-1.544-7.619-11.656-24.079-26.3-25.044a106.586,106.586,0,0,1,7.651,14.918c3.29,8.6,7.984,17.591,15.769,21.042a5.856,5.856,0,0,1,3.013,3.128,51.03,51.03,0,0,1,3.81,15.721Z" transform="translate(-219.526 -310.263)" fill="#b4c1ef"/><g transform="translate(15.371 70.218)"><path d="M240.615,420.248h24.163l6.269-38.31A2.786,2.786,0,0,0,268.3,378.7H237.1a2.786,2.786,0,0,0-2.749,3.236Z" transform="translate(-234.309 -378.702)" fill="#dee3fc"/></g></g></g><line x2="667.763" transform="translate(192.667 428.452)" fill="none" stroke="#fff" stroke-linecap="round" stroke-miterlimit="10" stroke-width="1.114"/></g></svg>