<svg id="none" xmlns="http://www.w3.org/2000/svg" width="42.599" height="46.944" viewBox="0 0 42.599 46.944">
  <path id="Path_249" data-name="Path 249" d="M19.378.5a3.937,3.937,0,0,1,3.843,0Q32,5.46,40.774,10.416A3.614,3.614,0,0,1,42.6,13.528v19.89a3.653,3.653,0,0,1-1.961,3.18Q31.89,41.53,23.147,46.466a3.825,3.825,0,0,1-3.886-.108q-2.623-1.52-5.248-3.035A3.089,3.089,0,0,1,13,42.594c.223-.3.622-.338.946-.469a12.252,12.252,0,0,0,2.07-.966.483.483,0,0,1,.539.032c1.5.857,2.977,1.739,4.477,2.588.32.185.644-.061.918-.213q8.584-4.851,17.174-9.692a.568.568,0,0,0,.312-.559q.006-9.842,0-19.685a.615.615,0,0,0-.366-.614q-8.717-4.909-17.43-9.824a.605.605,0,0,0-.684,0Q12.242,8.1,3.529,13.019a.608.608,0,0,0-.368.611q0,9.842,0,19.686a.556.556,0,0,0,.316.552Q5.8,35.187,8.131,36.5a3.6,3.6,0,0,0,2.91.39,2.208,2.208,0,0,0,1.429-2.074c.008-6.523,0-13.047.006-19.569a.491.491,0,0,1,.535-.5c.745,0,1.491-.01,2.236,0a.516.516,0,0,1,.487.6c0,6.564.008,13.129-.005,19.693a4.993,4.993,0,0,1-2.335,4.509,7.191,7.191,0,0,1-6.427-.177C5.262,38.515,3.635,37.511,1.96,36.6A3.644,3.644,0,0,1,0,33.418V13.528a3.62,3.62,0,0,1,1.888-3.152Q10.634,5.441,19.378.5Z" transform="translate(0 0)" fill="#fff"/>
  <path id="Path_250" data-name="Path 250" d="M192.559,151.463c2.543-.164,5.265-.1,7.554,1.156a5.713,5.713,0,0,1,2.785,4.943.535.535,0,0,1-.58.394c-.738,0-1.476.01-2.214,0a.57.57,0,0,1-.534-.553,3.37,3.37,0,0,0-1.612-2.329,9.555,9.555,0,0,0-4.422-.633,6,6,0,0,0-3.166.788,2.006,2.006,0,0,0-.667,2.241c.237.563.887.745,1.419.912,3.065.8,6.312.722,9.318,1.777a4.387,4.387,0,0,1,2.888,2.569,5.488,5.488,0,0,1-.93,5.236,7.337,7.337,0,0,1-3.939,2.123,18.924,18.924,0,0,1-5.946.252,9.369,9.369,0,0,1-5.23-1.967,5.489,5.489,0,0,1-1.768-4.329.5.5,0,0,1,.543-.437c.743-.006,1.486-.008,2.229,0a.521.521,0,0,1,.532.515,3.377,3.377,0,0,0,1.257,2.371c1.51.974,3.4.907,5.134.935,1.433-.064,3.041-.083,4.21-1.03a2.325,2.325,0,0,0,.633-2.221c-.181-.656-.867-.962-1.457-1.162-3.025-.957-6.309-.61-9.305-1.692a4.528,4.528,0,0,1-2.86-2.492,5.1,5.1,0,0,1,1.02-5.311,8.229,8.229,0,0,1,5.108-2.052Z" transform="translate(-168.095 -137.184)" fill="#fff"/>
</svg>
