<svg xmlns="http://www.w3.org/2000/svg" width="89.563" height="80.121" viewBox="0 0 89.563 80.121"><g transform="translate(5983.801 938.26)"><g transform="translate(-5983.8 -938.24)"><path d="M-5749.2-884.71a8.763,8.763,0,0,1,8.778-8.741,8.738,8.738,0,0,1,8.7,8.74,8.739,8.739,0,0,1-8.788,8.741A8.763,8.763,0,0,1-5749.2-884.71Zm3.519-.021a5.206,5.206,0,0,0,5.191,5.247,5.136,5.136,0,0,0,5.226-5.205,5.142,5.142,0,0,0-5.185-5.248A5.215,5.215,0,0,0-5745.684-884.732Z" transform="translate(5800.592 903.247)" fill="#91ddea"/><path d="M-5846.87-893.456a5.5,5.5,0,0,1,5.394,3.9,3.119,3.119,0,0,1,.119,1.794,1.728,1.728,0,0,1-1.656,1.293,1.712,1.712,0,0,1-1.671-1.278,4.647,4.647,0,0,1-.144-.592c-.145-1.011-.864-1.383-1.743-1.561a2.194,2.194,0,0,0-2.131.9,1.488,1.488,0,0,0,.639,2.148,5.317,5.317,0,0,0,1.671.4,5.7,5.7,0,0,1,4.2,2.362,5.026,5.026,0,0,1-1.178,6.967,5.86,5.86,0,0,1-7.887-.827,5.22,5.22,0,0,1-1.218-3.109,1.794,1.794,0,0,1,1.479-1.877,1.714,1.714,0,0,1,1.93,1.261c.065.223.111.451.164.677a1.983,1.983,0,0,0,1.9,1.514,2.29,2.29,0,0,0,2.052-1.091,1.5,1.5,0,0,0-.73-2,5.576,5.576,0,0,0-1.672-.4,5.641,5.641,0,0,1-4.334-2.585,5.038,5.038,0,0,1,1.833-7.084A5.624,5.624,0,0,1-5846.87-893.456Z" transform="translate(5881.248 903.252)" fill="#91ddea"/><path d="M-5790.115-882.995v3.453c.254.019.478.048.7.049,1.457,0,2.913.009,4.369,0a1.841,1.841,0,0,1,1.3.4,1.631,1.631,0,0,1,.607,1.706,1.715,1.715,0,0,1-1.425,1.359,3.713,3.713,0,0,1-.7.026c-2.068,0-4.138-.05-6.2.02a1.993,1.993,0,0,1-2.229-2.261c.015-4.136,0-8.273,0-12.409,0-.233-.015-.467,0-.7a4.646,4.646,0,0,1,.116-.771,1.634,1.634,0,0,1,1.687-1.354q3.5-.03,6.991,0a1.788,1.788,0,0,1,1.822,1.74,1.8,1.8,0,0,1-1.825,1.738c-1.426.023-2.854.006-4.282.007h-.972c-.008,1.17-.018,2.289.011,3.5h1.17c.786,0,1.574-.027,2.359.014a1.684,1.684,0,0,1,1.645,1.7,1.688,1.688,0,0,1-1.665,1.767c-.785.039-1.573.011-2.359.012Z" transform="translate(5835.334 903.277)" fill="#91ddea"/><path d="M-5653.942-867.021a5.182,5.182,0,0,1-5.252-5.277,5.2,5.2,0,0,1,5.234-5.215,5.188,5.188,0,0,1,5.252,5.283A5.16,5.16,0,0,1-5653.942-867.021Zm-.02-6.985c-1.266.351-1.712.847-1.678,1.825.031.9.5,1.361,1.707,1.651,1.213-.318,1.651-.76,1.669-1.685C-5652.246-873.194-5652.686-873.666-5653.962-874.005Z" transform="translate(5730.301 890.799)" fill="#91ddea"/><path d="M-5853.476-936.416a1.815,1.815,0,0,1-1.941,1.729,1.726,1.726,0,0,1-1.548-1.782,1.726,1.726,0,0,1,1.555-1.689A1.814,1.814,0,0,1-5853.476-936.416Z" transform="translate(5884.748 938.168)" fill="#91ddea"/><path d="M-5869.786-731.385h22.819c.263,0,.526-.012.787.01a1.7,1.7,0,0,1,1.615,1.73,1.7,1.7,0,0,1-1.6,1.742c-.231.02-.466.01-.7.01h-45.9a6.462,6.462,0,0,1-.873-.023,1.733,1.733,0,0,1-1.5-1.759,1.734,1.734,0,0,1,1.487-1.682,7.067,7.067,0,0,1,.961-.026Z" transform="translate(5914.562 776.684)" fill="#926cdc"/><path d="M-5756.827-689.714a1.972,1.972,0,0,1,.683-1.363,1.9,1.9,0,0,1,1.221-.387c.961.009,1.922,0,2.883,0h13.106c.262,0,.526-.012.786.01a1.7,1.7,0,0,1,1.613,1.733,1.7,1.7,0,0,1-1.608,1.739c-.173.016-.349.009-.523.009q-8,0-15.99,0a2.3,2.3,0,0,1-1.343-.28A1.932,1.932,0,0,1-5756.827-689.714Z" transform="translate(5806.545 745.507)" fill="#91ddea"/><path d="M-5875.047-689.7a2,2,0,0,1-.735,1.387,2.2,2.2,0,0,1-1.41.347q-5.418-.006-10.836,0c-1.719,0-3.437-.007-5.156,0a1.809,1.809,0,0,1-1.538-.676,1.735,1.735,0,0,1,1.139-2.8,5.083,5.083,0,0,1,.7-.02q7.822,0,15.642.009a3.273,3.273,0,0,1,1.265.229A1.722,1.722,0,0,1-5875.047-689.7Z" transform="translate(5914.527 745.502)" fill="#91ddea"/><path d="M-5785.633-691.427a1.763,1.763,0,0,1,1.77,1.753,1.762,1.762,0,0,1-1.708,1.727,1.765,1.765,0,0,1-1.771-1.753A1.764,1.764,0,0,1-5785.633-691.427Z" transform="translate(5830.377 745.477)" fill="#91ddea"/><path d="M-5894.279-824.574a1.672,1.672,0,0,0-1.627-1.542c-.423-.033-.85-.033-1.3-.046v-41.885l-3.558,3.577v38.3h-2.834c-.2-.276-.1-.607-.1-.913q-.01-12.023-.006-24.046a7.784,7.784,0,0,0-.018-.874,1.786,1.786,0,0,0-1.715-1.571,1.792,1.792,0,0,0-1.739,1.544,7.237,7.237,0,0,0-.02.874v24.9c-.687.16-61.952.219-63.639.068v-42.93c.249-.015.473-.039.7-.042.993-.007,1.985.026,2.973-.018a1.757,1.757,0,0,0,1.648-1.726,1.742,1.742,0,0,0-1.641-1.73q-2.8-.056-5.6,0a1.658,1.658,0,0,0-1.59,1.577c-.026.289-.013.583-.013.874v44.006h-2.979v-.892c0-14.865.024-29.73-.022-44.6a3.827,3.827,0,0,1,4.149-4.166c3.03.081,6.061.02,9.093.02h.951l0-3.774a.719.719,0,0,1-.127.281h-1.478c-3,0-6-.033-9.008.011a6.81,6.81,0,0,0-6.284,3.844,7.352,7.352,0,0,0-.769,3.544q.013,22.343.007,44.685v1.086c-.408,0-.723.009-1.036,0a1.81,1.81,0,0,0-1.742.949,2.906,2.906,0,0,1-.2.276v3.323a1.765,1.765,0,0,1,.163.385,9.738,9.738,0,0,0,9.538,8.009q35.067-.01,70.133-.009a9,9,0,0,0,1.645-.156,9.541,9.541,0,0,0,7.419-6.07A11.4,11.4,0,0,0-5894.279-824.574Zm-8.1,7.621a10.06,10.06,0,0,1-2.245.258q-10.182.03-20.366.013-24.209,0-48.424,0a7.077,7.077,0,0,1-3.461-.725,5.964,5.964,0,0,1-3.295-4.644c-.022-.164-.061-.326-.1-.541h82.439A6.072,6.072,0,0,1-5902.381-816.953Zm-60.781-63.743,0,0v.453a.516.516,0,0,0,0,.061Z" transform="translate(5983.799 893.289)" fill="#555"/><path d="M-5803.481-608.315c-.4,1.418-.857,1.779-2.187,1.78q-7.289,0-14.578,0a2.062,2.062,0,0,1-1.326-.329,1.728,1.728,0,0,1-.714-1.746,1.757,1.757,0,0,1,1.487-1.4,3.277,3.277,0,0,1,.436-.017q7.465,0,14.929,0a1.781,1.781,0,0,1,1.669.911A4.441,4.441,0,0,1-5803.481-608.315Z" transform="translate(5857.697 681.91)" fill="#555"/></g><path d="M-5823.033-913.693c-.212.237-.432.469-.642.694l-3.558,3.577c-.262.243-.475.431-.676.633q-3.371,3.368-6.734,6.745a2.751,2.751,0,0,1-2.088.889q-25.356-.026-50.715.006c-1.441,0-2.326-.872-2.186-2.175.017-.173,0-.35,0-.526v-16.906h0l0-3.774a2.337,2.337,0,0,0,0-.607v-.51l0,0q.013-5.152.006-10.3a5.477,5.477,0,0,1,.025-.786,1.742,1.742,0,0,1,1.767-1.494,1.746,1.746,0,0,1,1.676,1.5,7.391,7.391,0,0,1,.024.96v31.071h49.123c.085-.081.195-.177.3-.28q5.349-5.349,10.7-10.7a5.64,5.64,0,0,0,1.707-3.26,5.209,5.209,0,0,0-.907-3.8,6.7,6.7,0,0,0-.786-.935q-5.4-5.425-10.806-10.837c-.062-.061-.131-.116-.256-.228h-35.436c-.2,0-.408,0-.614,0-1.319-.009-1.785-.383-2.143-1.744a3.971,3.971,0,0,1,.164-.635,1.69,1.69,0,0,1,1.453-1.1c.289-.028.583-.015.875-.015q17.884,0,35.767-.02a3.3,3.3,0,0,1,2.543,1.067c3.56,3.612,7.154,7.189,10.735,10.782a10.1,10.1,0,0,1,2.095,2.778A9.019,9.019,0,0,1-5823.033-913.693Z" transform="translate(-73.529 0)" fill="#926cdc"/></g></svg>