<svg xmlns="http://www.w3.org/2000/svg" width="96.017" height="86.822" viewBox="0 0 96.017 86.822"><g transform="translate(4116.91 1988.559)"><path d="M-4023.89-1973.145v2.25h-89.956a5.38,5.38,0,0,1-.06-.556q0-5.531,0-11.063a2.733,2.733,0,0,1,1.32-2.528,4.515,4.515,0,0,1,1.318-.408,4.1,4.1,0,0,1,.842-.012h83.06c.155,0,.313.012.468,0a2.827,2.827,0,0,1,3.021,3.041C-4023.917-1979.33-4023.89-1976.236-4023.89-1973.145Zm2.793-11.166a5.868,5.868,0,0,0-5.654-4.246c-.186-.005-.373,0-.561,0q-41.58,0-83.157.007a8.813,8.813,0,0,0-2.132.223,5.7,5.7,0,0,0-4.3,5.569q0,32.016-.01,64.032a5.767,5.767,0,0,0,5.429,5.717c.148,0,.3,0,.44,0l1.5.02a1,1,0,0,1,.386-1.408l5.529-2.776q-.966.428-1.932.864a3.488,3.488,0,0,1-1.535.326c-1.25-.025-2.5-.05-3.75,0a2.9,2.9,0,0,1-3.082-3.1c.041-5.281.015-10.564.015-15.845v-32.841h90.019v48.393c0,.188,0,.376,0,.563a2.749,2.749,0,0,1-2.883,2.793q-8.628.015-17.251,0c-.751,0-1.5,0-2.25,0-.213,0-.426-.035-.651-.052l-1.644,3.086h.979q10.079,0,20.157-.008a8.8,8.8,0,0,0,2.137-.17,5.621,5.621,0,0,0,4.106-3.743c.08-.22.2-.428.3-.644v-66.382A2.581,2.581,0,0,1-4021.1-1984.31Z" transform="translate(0 0)" fill="#555"/><path d="M-4046.374-1738.218a1.478,1.478,0,0,0-1.784-.819,5.932,5.932,0,0,0-.781.3q-2.481,1.09-4.956,2.187l-2.876,1.29c-1.237.551-2.417,1.08-3.6,1.606,0,0,0-.012-.008-.018l-2.931,1.293c-1.123.5-2.19.979-3.257,1.458a.164.164,0,0,1-.012-.03l-2.8,1.225,0,0c-1.323-.759-3.314-1.724-4.748-2.382-2.057-.949-1.6-.854-3.477-.04-1.46.631-2.914,1.278-4.367,1.926l-.012.008-.005,0a.019.019,0,0,0-.01.005l-5.529,2.776a1,1,0,0,0-.386,1.408,1.072,1.072,0,0,0,.113.173,3.107,3.107,0,0,0,1.633.919c.927.268,1.833.6,2.748.915a4.476,4.476,0,0,1,.508.245c-.875.682-1.165,1.3-.882,2,.383.949,1.183,1.1,2.22.882-.451,1.03-.844,1.932-1.238,2.833-.173.4-.335.807-.508,1.207a1.333,1.333,0,0,0,.341,1.543,1.417,1.417,0,0,0,1.545.391,8.03,8.03,0,0,0,.777-.323c3.136-1.385,6.265-2.788,9.412-4.151a2.485,2.485,0,0,0,1.538-1.726c.513-1.794,1.117-3.56,1.734-5.491l2.8-1.415c-.025-.048-.052-.1-.08-.143,1.077-.486,2.149-.967,3.307-1.485l6.589-2.9,2.979-1.353c1.606-.716,3.142-1.4,4.677-2.089a6.129,6.129,0,0,0,.757-.363A1.428,1.428,0,0,0-4046.374-1738.218Zm-35.566,11.521-.03-.2c2-.892,4.008-1.786,6.055-2.7l3.039,1.4c-.283.163-.453.281-.639.366-1.448.646-2.906,1.27-4.344,1.934a1.823,1.823,0,0,1-1.521.053C-4080.219-1726.165-4081.086-1726.416-4081.94-1726.7Zm9.37,4.569c-2.05.912-4.082,1.816-6.323,2.816l1.528-3.495c1.842-.819,3.733-1.661,5.835-2.6C-4071.927-1724.161-4072.242-1723.162-4072.57-1722.127Z" transform="translate(-21.627 -186.965)" fill="#91ddea"/><path d="M-3824.944-1865.509c.562.026,1.056.024,1.544.077a1.411,1.411,0,0,1,1.322,1.692,1.46,1.46,0,0,1-1.29,1.288,5.333,5.333,0,0,1-.841.025q-10.4,0-20.8,0a4.819,4.819,0,0,1-.841-.03,1.59,1.59,0,0,1-1.309-1.505,1.5,1.5,0,0,1,1.418-1.47c.46-.042.929-.007,1.457-.007.034-.312.079-.547.08-.782.006-1.343-.015-2.687.014-4.029a2.953,2.953,0,0,1,.25-1.167,1.44,1.44,0,0,1,1.6-.71,1.485,1.485,0,0,1,1.137,1.221,6.035,6.035,0,0,1,.039.841c0,1.187,0,2.374,0,3.561v.976h2.387v-.937c0-2.312-.009-4.624,0-6.935a1.452,1.452,0,0,1,1.542-1.6,1.447,1.447,0,0,1,1.438,1.329,6.244,6.244,0,0,1,.009.656q0,3.28,0,6.56v.936h2.41v-1.057q0-4.873,0-9.746c0-.281-.008-.563.014-.843a1.5,1.5,0,0,1,1.437-1.445,1.542,1.542,0,0,1,1.551,1.35,5.459,5.459,0,0,1,.016.749q0,5.014,0,10.027v.971h2.292c.014-.356.038-.687.038-1.017q0-7.778.006-15.556a5.658,5.658,0,0,1,.106-1.207,1.5,1.5,0,0,1,1.4-1.168,1.5,1.5,0,0,1,1.453,1.111,4.28,4.28,0,0,1,.115,1.107q.01,7.825,0,15.65Z" transform="translate(-202.171 -78.017)" fill="#91ddea"/><path d="M-4089.251-1880.44q0-4.029,0-8.057c0-.281-.011-.564.015-.843a1.428,1.428,0,0,1,1.406-1.357c.155-.012.312,0,.468,0h10.868a5.311,5.311,0,0,1,.562.008,1.432,1.432,0,0,1,1.317,1.247,6.7,6.7,0,0,1,.034.935q0,8.057,0,16.115c0,.281.007.563-.02.842a1.4,1.4,0,0,1-1.137,1.308,4.054,4.054,0,0,1-.926.1q-5.2.01-10.4,0c-.187,0-.376,0-.562-.015a1.539,1.539,0,0,1-1.622-1.754C-4089.258-1874.756-4089.251-1877.6-4089.251-1880.44Zm11.592,7.167c.156-1.84.094-13.694-.066-14.383a77.343,77.343,0,0,0-8.474.075c-.146,1.909-.083,13.588.082,14.308Z" transform="translate(-20.728 -73.34)" fill="#926cdc"/><path d="M-3844.829-1894.171c-.562-.081-.933-.118-1.3-.189a1.443,1.443,0,0,1-1.236-1.517,1.478,1.478,0,0,1,1.324-1.46,6.248,6.248,0,0,1,1.029,0q1.919.08,3.837.173a3.749,3.749,0,0,1,.738.1,1.42,1.42,0,0,1,1.178,1.472,8.378,8.378,0,0,1-.019.843c-.107,1.463-.193,2.928-.34,4.387a1.444,1.444,0,0,1-1.636,1.411,1.5,1.5,0,0,1-1.361-1.7c.014-.433.082-.863.137-1.4-.261.166-.459.278-.644.411q-5.213,3.738-10.425,7.48a6.968,6.968,0,0,1-.774.526,1.536,1.536,0,0,1-1.989-.5,1.522,1.522,0,0,1,.264-1.956,8.024,8.024,0,0,1,.749-.561l9.591-6.876C-3845.451-1893.7-3845.206-1893.89-3844.829-1894.171Z" transform="translate(-195.134 -68.354)" fill="#91ddea"/><path d="M-4005.3-1883.9h-10.684c-.281,0-.563.008-.842-.02a1.419,1.419,0,0,1-1.34-1.416,1.475,1.475,0,0,1,1.214-1.549,3.92,3.92,0,0,1,.747-.032q10.917,0,21.835,0a5.132,5.132,0,0,1,.562.009,1.492,1.492,0,0,1,1.391,1.585,1.441,1.441,0,0,1-1.45,1.413c-.28.02-.562.011-.843.011Z" transform="translate(-74.007 -76.175)" fill="#926cdc"/><path d="M-4005.316-1856.526q5.342,0,10.683,0a7.093,7.093,0,0,1,.935.038,1.414,1.414,0,0,1,1.276,1.28,1.408,1.408,0,0,1-1,1.6,2.676,2.676,0,0,1-.824.117q-11.057.009-22.116,0c-1.208,0-1.858-.624-1.792-1.657a1.391,1.391,0,0,1,1.13-1.311,6.45,6.45,0,0,1,1.119-.065Q-4010.611-1856.53-4005.316-1856.526Z" transform="translate(-74.012 -98.956)" fill="#926cdc"/><path d="M-4086.6-1955.448c-.841,0-1.684.021-2.525-.005a1.441,1.441,0,0,1-1.571-1.573q-.027-2.619,0-5.237a1.489,1.489,0,0,1,1.315-1.558,2.994,2.994,0,0,1,.558-.039c1.465,0,2.93-.012,4.4,0,1.36.012,1.93.584,1.94,1.943.012,1.528,0,3.055,0,4.582a3.534,3.534,0,0,1-.006.374,1.532,1.532,0,0,1-1.582,1.511c-.062,0-.125,0-.187,0h-2.338Zm-1.037-5.272v2.192h2v-2.192Z" transform="translate(-19.639 -18.507)" fill="#555"/><path d="M-4043.29-1959.59c0,.844-.028,1.688.008,2.531a1.545,1.545,0,0,1-1.569,1.607c-1.687-.034-3.375.006-5.062-.018a1.423,1.423,0,0,1-1.525-1.338,5.067,5.067,0,0,1-.061-.839c-.006-1.375,0-2.75,0-4.125a4.217,4.217,0,0,1,.024-.561,1.57,1.57,0,0,1,1.68-1.535c.812-.031,1.625-.007,2.438-.007.781,0,1.563-.009,2.344,0a1.581,1.581,0,0,1,1.734,1.75c-.029.843-.006,1.688-.006,2.531Zm-5.053-1.144v2.194h1.986v-2.194Z" transform="translate(-49.021 -18.493)" fill="#555"/><path d="M-4003.832-1959.6c0,.842.015,1.684,0,2.526a1.452,1.452,0,0,1-1.552,1.6q-2.572.042-5.145,0a1.406,1.406,0,0,1-1.5-1.461q-.068-2.711,0-5.425a1.538,1.538,0,0,1,1.694-1.505c1.277-.032,2.557-.009,3.835-.009.375,0,.751-.022,1.122.012a1.55,1.55,0,0,1,1.548,1.646C-4003.817-1961.343-4003.832-1960.469-4003.832-1959.6Zm-3.036-1.113h-2.091v2.164h2.091Z" transform="translate(-78.577 -18.495)" fill="#555"/><line x1="0.013" y2="0.008" transform="translate(-4103.61 -1917.184)" fill="none" stroke="#1a1818" stroke-miterlimit="10" stroke-width="1"/><path d="M-3946.658-1772.16a10.018,10.018,0,0,0-12.193-4.479,9.768,9.768,0,0,0-5.657,5.163,9.871,9.871,0,0,0-.4,7.618l2.876-1.29a6.814,6.814,0,0,1,3.242-8.247,7.061,7.061,0,0,1,9.3,2.415,7.06,7.06,0,0,1-1.8,9.445,6.93,6.93,0,0,1-9.224-.957l-2.979,1.353a10.176,10.176,0,0,0,8.122,4,9.726,9.726,0,0,0,6.371-2.327A9.994,9.994,0,0,0-3946.658-1772.16Z" transform="translate(-113.492 -158.367)" fill="#926cdc"/><path d="M-3974.751-1799.056l-1.644,3.086c-5,7.34-11.817,11.364-20.678,11.236-8.841-.128-15.529-4.362-20.35-11.825l2.8-1.415a20.777,20.777,0,0,0,27.617,7.849,20.825,20.825,0,0,0,8.583-28.4,20.754,20.754,0,0,0-28.424-8.242,20.62,20.62,0,0,0-9.184,25.861l-2.8,1.225c-.01-.032-.258-.343-.226-.328a24.019,24.019,0,0,1-.363-15.961,23.382,23.382,0,0,1,9.68-12.6,23.872,23.872,0,0,1,27.307.869A24.041,24.041,0,0,1-3974.751-1799.056Z" transform="translate(-72.176 -117.006)" fill="#926cdc"/><path d="M-3966.246-1774.783a16.421,16.421,0,0,1-10.915,3.495,17.105,17.105,0,0,1-14.122-8.187l6.589-2.9c-.646.288-1.24.551-1.834.814-.619.278-1.237.554-1.864.834a14.046,14.046,0,0,0,18.912,4.487,14.108,14.108,0,0,0,4.95-19.47,14.1,14.1,0,0,0-19.29-4.843c-7.042,4.2-8.059,12.516-5.9,17.048l-2.931,1.293a17.219,17.219,0,0,1,.521-13.518,16.649,16.649,0,0,1,10.156-8.986,17.064,17.064,0,0,1,20.47,8.187A17.1,17.1,0,0,1-3966.246-1774.783Z" transform="translate(-92.285 -137.132)" fill="#926cdc"/></g></svg>