<svg xmlns="http://www.w3.org/2000/svg" width="723" height="638.416" viewBox="0 0 723 638.416"><g transform="translate(-157.965 -117.591)"><ellipse cx="54.926" cy="6.399" rx="54.926" ry="6.399" transform="translate(747.116 722.944)" fill="#232323" opacity="0.17"/><ellipse cx="31.463" cy="4.266" rx="31.463" ry="4.266" transform="translate(430.356 700.547)" fill="#232323" opacity="0.17"/><ellipse cx="46.394" cy="10.665" rx="46.394" ry="10.665" transform="translate(182.92 734.676)" fill="#fff" opacity="0.17"/><ellipse cx="54.926" cy="6.399" rx="54.926" ry="6.399" transform="translate(515.678 700.547)" fill="#232323" opacity="0.17"/><g transform="translate(236.014 248.109)"><g style="mix-blend-mode:multiply;isolation:isolate"><rect width="560.811" height="339.7" rx="12.124" transform="translate(26.063)" fill="#d1d3d4"/></g><rect width="560.811" height="339.7" rx="12.124" transform="translate(26.063)" fill="#6136c9"/><rect width="485.919" height="303.466" rx="6.04" transform="translate(71.001 18.117)" fill="#b38ff7"/><path d="M221.9,231.792a11.415,11.415,0,1,1-11.414-11.417A11.415,11.415,0,0,1,221.9,231.792Z" transform="translate(-161.561 -61.941)" fill="#b38ff7"/><path d="M5.3,0H438.485a5.3,5.3,0,0,1,5.3,5.3V258.426a5.3,5.3,0,0,1-5.3,5.3H5.3a5.3,5.3,0,0,1-5.3-5.3V5.3A5.3,5.3,0,0,1,5.3,0Z" transform="translate(93.447 37.072)" fill="#fff"/><path d="M647.859,177.205H233.865a14.9,14.9,0,0,0-14.9,14.894v25.1H662.753V192.1A14.894,14.894,0,0,0,647.859,177.205Z" transform="translate(-125.522 -140.133)" fill="#ffce55"/><path d="M558.672,236.319c-17.208.439-29.965-15.47-45.832-22.147-20.241-8.515-44.932-.484-59.8,15.676-7,7.607-13.286,17.483-23.471,19.249-14.514,2.519-26.246-13.027-40.884-14.663-21.655-2.421-35.672,25.1-57.178,28.6-19.5,3.174-39.656-14.416-57.839-6.68-7.908,3.365-13.171,10.8-19.6,16.5s-16.212,9.766-23.407,5.066v28.495H610.756V208.994C593.129,216.885,577.98,235.83,558.672,236.319Z" transform="translate(-104.34 -82.555)" fill="#db3931"/><path d="M258.275,264.69a13.614,13.614,0,1,1-13.612-13.615A13.613,13.613,0,0,1,258.275,264.69Z" transform="translate(-103.642 -6.335)" fill="#ffce55"/><rect width="131.783" height="14.536" transform="translate(166.65 251.086)" fill="#ffce55"/><rect width="131.783" height="7.268" transform="translate(374.633 238.277)" fill="#00a79d"/><rect width="131.783" height="7.268" transform="translate(374.633 254.72)" fill="#00a79d"/><rect width="131.783" height="7.268" transform="translate(374.633 271.163)" fill="#00a79d"/><rect width="66.463" height="23.617" transform="translate(126.323 93.592)" fill="#00a79d"/><path d="M380.085,189.3a7.725,7.725,0,1,1-7.725-7.725A7.726,7.726,0,0,1,380.085,189.3Z" transform="translate(138.316 -132.227)" fill="#5fc8d7"/><path d="M357.879,189.3a7.725,7.725,0,1,1-7.725-7.725A7.724,7.724,0,0,1,357.879,189.3Z" transform="translate(98.095 -132.227)" fill="#f7941d"/><path d="M369.139,189.3a7.725,7.725,0,1,1-7.725-7.725A7.726,7.726,0,0,1,369.139,189.3Z" transform="translate(118.49 -132.227)" fill="#ef4065"/></g><path d="M390.512,313.1h-5.136a20.367,20.367,0,0,0-1.543-3.736l3.629-3.632a3.449,3.449,0,0,0,0-4.877l-3.584-3.584a3.453,3.453,0,0,0-4.88,0l-3.629,3.629a20.6,20.6,0,0,0-3.739-1.546V294.22a3.448,3.448,0,0,0-3.449-3.449h-5.069a3.448,3.448,0,0,0-3.449,3.449v5.136a20.516,20.516,0,0,0-3.739,1.546l-3.629-3.629a3.453,3.453,0,0,0-4.88,0l-3.584,3.584a3.449,3.449,0,0,0,0,4.877l3.629,3.632a20.583,20.583,0,0,0-1.546,3.736h-5.133a3.453,3.453,0,0,0-3.452,3.452v5.069a3.452,3.452,0,0,0,3.452,3.449h5.136a20.182,20.182,0,0,0,1.546,3.736l-3.632,3.632a3.453,3.453,0,0,0,0,4.88l3.584,3.582a3.448,3.448,0,0,0,4.88,0l3.629-3.629a20.317,20.317,0,0,0,3.739,1.546v5.136a3.448,3.448,0,0,0,3.449,3.449h5.069a3.448,3.448,0,0,0,3.449-3.449v-5.136a20.4,20.4,0,0,0,3.739-1.546L379,340.9a3.448,3.448,0,0,0,4.88,0l3.584-3.582a3.453,3.453,0,0,0,0-4.88l-3.632-3.632a20.385,20.385,0,0,0,1.546-3.736h5.136a3.452,3.452,0,0,0,3.452-3.449v-5.069A3.453,3.453,0,0,0,390.512,313.1ZM365.644,328.88a9.792,9.792,0,1,1,9.792-9.792A9.79,9.79,0,0,1,365.644,328.88Z" transform="translate(324.868 313.673)" fill="#f16680"/><g transform="translate(362.706 613.924)"><rect width="52.439" height="52.439" rx="2.781" fill="#b38ff7"/><g transform="translate(12.281 14.907)"><path d="M245.863,322.071l-9.834-9.831a2.962,2.962,0,0,1,4.189-4.189l5.645,5.645,13.382-13.382a2.96,2.96,0,0,1,4.186,4.186Z" transform="translate(-235.163 -299.446)" fill="#fff"/></g></g><g transform="translate(765.777 117.591)"><path d="M399.616,133.631,384.5,172.322a43.076,43.076,0,0,0,55.7-29.782Z" transform="translate(-355.465 -88.539)" fill="#ffce55"/><path d="M411.748,159.034l41.657,9.148a43.061,43.061,0,0,0-75.791-34.716Z" transform="translate(-367.938 -117.591)" fill="#f16680"/><path d="M415.132,149.231l-33.378-25a43.063,43.063,0,0,0,18.2,63.846Z" transform="translate(-374.172 -105.564)" fill="#00a79d"/></g><g transform="translate(803.206 275.049)"><rect width="77.759" height="48.906" fill="#5fc8d7"/><path d="M387.486,173.6l38.879,26.749,38.88-26.749Z" transform="translate(-387.486 -173.601)" fill="#8cecf4"/></g><g transform="translate(557.417 355.246)"><g style="mix-blend-mode:multiply;isolation:isolate"><rect width="282.01" height="203.591" rx="4.793" transform="translate(0 19.538)" fill="#fff"/><rect width="282.01" height="203.591" rx="4.793" transform="translate(0.416 19.123)" fill="#fefefe"/><rect width="282.01" height="203.591" rx="4.793" transform="translate(0.831 18.707)" fill="#fdfdfd"/><rect width="282.01" height="203.591" rx="4.793" transform="translate(1.247 18.291)" fill="#fcfcfc"/><rect width="282.01" height="203.591" rx="4.793" transform="translate(1.663 17.875)" fill="#fbfbfb"/><rect width="282.01" height="203.591" rx="4.793" transform="translate(2.079 17.46)" fill="#fafafa"/><rect width="282.01" height="203.591" rx="4.793" transform="translate(2.494 17.044)" fill="#f9f9fa"/><rect width="282.01" height="203.591" rx="4.793" transform="translate(2.91 16.628)" fill="#f8f8f9"/><rect width="282.01" height="203.591" rx="4.793" transform="translate(3.326 16.213)" fill="#f7f8f8"/><rect width="282.01" height="203.591" rx="4.793" transform="translate(3.741 15.797)" fill="#f6f7f7"/><rect width="282.01" height="203.591" rx="4.793" transform="translate(4.157 15.381)" fill="#f5f6f6"/><rect width="282.01" height="203.591" rx="4.793" transform="translate(4.573 14.965)" fill="#f4f5f5"/><rect width="282.01" height="203.591" rx="4.793" transform="translate(4.989 14.55)" fill="#f3f4f4"/><rect width="282.01" height="203.591" rx="4.793" transform="translate(5.404 14.134)" fill="#f2f3f3"/><rect width="282.01" height="203.591" rx="4.793" transform="translate(5.82 13.718)" fill="#f1f2f2"/><rect width="282.01" height="203.591" rx="4.793" transform="translate(6.236 13.303)" fill="#f0f1f1"/><rect width="282.01" height="203.591" rx="4.793" transform="translate(6.651 12.887)" fill="#eff0f0"/><rect width="282.01" height="203.591" rx="4.793" transform="translate(7.067 12.471)" fill="#eeefef"/><rect width="282.01" height="203.591" rx="4.793" transform="translate(7.483 12.056)" fill="#edeeef"/><rect width="282.01" height="203.591" rx="4.793" transform="translate(7.898 11.64)" fill="#ecedee"/><rect width="282.01" height="203.591" rx="4.793" transform="translate(8.314 11.224)" fill="#ebeced"/><rect width="282.01" height="203.591" rx="4.793" transform="translate(8.73 10.808)" fill="#eaebec"/><rect width="282.01" height="203.591" rx="4.793" transform="translate(9.146 10.393)" fill="#e9eaeb"/><rect width="282.01" height="203.591" rx="4.793" transform="translate(9.561 9.977)" fill="#e8e9ea"/><rect width="282.01" height="203.591" rx="4.793" transform="translate(9.977 9.561)" fill="#e8e9e9"/><rect width="282.01" height="203.591" rx="4.793" transform="translate(10.393 9.146)" fill="#e7e8e8"/><rect width="282.01" height="203.591" rx="4.793" transform="translate(10.808 8.73)" fill="#e6e7e7"/><rect width="282.01" height="203.591" rx="4.793" transform="translate(11.224 8.314)" fill="#e5e6e6"/><rect width="282.01" height="203.591" rx="4.793" transform="translate(11.64 7.898)" fill="#e4e5e5"/><rect width="282.01" height="203.591" rx="4.793" transform="translate(12.056 7.483)" fill="#e3e4e4"/><rect width="282.01" height="203.591" rx="4.793" transform="translate(12.471 7.067)" fill="#e2e3e4"/><rect width="282.01" height="203.591" rx="4.793" transform="translate(12.887 6.651)" fill="#e1e2e3"/><rect width="282.01" height="203.591" rx="4.793" transform="translate(13.303 6.236)" fill="#e0e1e2"/><rect width="282.01" height="203.591" rx="4.793" transform="translate(13.718 5.82)" fill="#dfe0e1"/><rect width="282.01" height="203.591" rx="4.793" transform="translate(14.134 5.404)" fill="#dedfe0"/><rect width="282.01" height="203.591" rx="4.793" transform="translate(14.55 4.988)" fill="#dddedf"/><rect width="282.01" height="203.591" rx="4.793" transform="translate(14.966 4.573)" fill="#dcddde"/><rect width="282.01" height="203.591" rx="4.793" transform="translate(15.381 4.157)" fill="#dbdcdd"/><rect width="282.01" height="203.591" rx="4.793" transform="translate(15.797 3.741)" fill="#dadbdc"/><rect width="282.01" height="203.591" rx="4.793" transform="translate(16.213 3.326)" fill="#d9dadb"/><rect width="282.01" height="203.591" rx="4.793" transform="translate(16.628 2.91)" fill="#d8dada"/><rect width="282.01" height="203.591" rx="4.793" transform="translate(17.044 2.494)" fill="#d7d9d9"/><rect width="282.01" height="203.591" rx="4.793" transform="translate(17.46 2.078)" fill="#d6d8d9"/><rect width="282.01" height="203.591" rx="4.793" transform="translate(17.875 1.663)" fill="#d5d7d8"/><rect width="282.01" height="203.591" rx="4.793" transform="translate(18.291 1.247)" fill="#d4d6d7"/><rect width="282.01" height="203.591" rx="4.793" transform="translate(18.707 0.831)" fill="#d3d5d6"/><rect width="282.01" height="203.591" rx="4.793" transform="translate(19.123 0.416)" fill="#d2d4d5"/><rect width="282.01" height="203.591" rx="4.793" transform="translate(19.538)" fill="#d1d3d4"/></g><rect width="282.01" height="203.591" rx="4.793" transform="translate(19.538)" fill="#fff"/><rect width="235.377" height="119.432" transform="translate(42.855 60.884)" fill="#f16680"/><path d="M343.459,221.19a14.08,14.08,0,1,1-14.079-14.079A14.078,14.078,0,0,1,343.459,221.19Z" transform="translate(-272.446 -193.102)" fill="#ffce55"/><rect width="98.893" height="9.604" transform="translate(86.711 15.182)" fill="#00a79d"/><rect width="163.6" height="4.175" transform="translate(86.711 36.818)" fill="#ffce55"/><path d="M389.06,256.863l-37.351-18.37v36.741Z" transform="translate(-206.497 -136.263)" fill="#fff"/></g><g transform="translate(187.308 159.121)"><rect width="9.355" height="8.699" transform="translate(88.28 6.889)" fill="#5fc8d7"/><rect width="19.553" height="6.889" transform="translate(83.181)" fill="#5fc8d7"/><circle cx="31.356" cy="31.356" r="31.356" transform="translate(61.601 13.114)" fill="#00a79d"/><circle cx="26.677" cy="26.677" r="26.677" transform="translate(66.28 17.793)" fill="#8cecf4"/><g transform="translate(96.727 21.418)"><path d="M221.179,168.908a.783.783,0,0,1-.18-.02.8.8,0,0,1-.607-.964,21.926,21.926,0,0,0-16.938-26.344.806.806,0,0,1,.323-1.58,23.542,23.542,0,0,1,18.189,28.281A.809.809,0,0,1,221.179,168.908Z" transform="translate(-202.81 -139.983)" fill="#db3931"/></g><circle cx="3.189" cy="3.189" r="3.189" transform="translate(89.768 41.281)" fill="#db3931"/><g transform="translate(92.15 19.24)"><path d="M201.989,165.246a.807.807,0,0,1-.807-.807V140.015a.807.807,0,1,1,1.614,0v24.424A.807.807,0,0,1,201.989,165.246Z" transform="translate(-201.182 -139.208)" fill="#db3931"/></g><g transform="translate(92.149 43.662)"><path d="M219.02,157.228a.832.832,0,0,1-.332-.073l-17.033-7.717a.808.808,0,1,1,.669-1.47l17.031,7.717a.808.808,0,0,1-.335,1.543Z" transform="translate(-201.182 -147.895)" fill="#db3931"/></g><path d="M203.3,157.175a1.112,1.112,0,1,1-1.113-1.113A1.112,1.112,0,0,1,203.3,157.175Z" transform="translate(-109.228 -89.441)" fill="#006838"/><circle cx="1.112" cy="1.112" r="1.112" transform="translate(75.395 59.808)" fill="#006838"/><circle cx="1.112" cy="1.112" r="1.112" transform="translate(68.582 43.359)" fill="#006838"/><circle cx="1.112" cy="1.112" r="1.112" transform="translate(75.396 26.909)" fill="#006838"/><circle cx="1.112" cy="1.112" r="1.112" transform="translate(108.295 59.808)" fill="#006838"/><path d="M246.022,135.29H168.4l65.542,7.967a32.006,32.006,0,0,1,12.077-6.688Z" transform="translate(-168.403 -127.064)" fill="#f16680"/><path d="M174.765,141.135l37.075,7.8a37.965,37.965,0,0,1,3.525-7.8Z" transform="translate(-156.88 -116.477)" fill="#f16680"/><path d="M201.489,146.979H179.477l22.021,7.557c-.118-1.251-.183-2.522-.183-3.809Q201.315,148.829,201.489,146.979Z" transform="translate(-148.345 -105.892)" fill="#f16680"/><path d="M183.365,152.824l16.429,7.5a37.926,37.926,0,0,1-3.43-7.5Z" transform="translate(-141.303 -95.306)" fill="#f16680"/></g><g transform="translate(157.965 447.652)"><rect width="9.68" height="25.51" transform="translate(0 15.831)" fill="#f16680"/><path d="M197.455,254.089a4.335,4.335,0,0,0-4.068-2.823l-18.641-.714c2.6-2.794,2.822-10.126,2.772-13.632A1.944,1.944,0,0,0,175.575,235h0a1.93,1.93,0,0,0-1.774,1.147A21.348,21.348,0,0,1,168.918,243a42.7,42.7,0,0,0-6.075,7.829V276.34h23.381a5.026,5.026,0,0,0,5.018-5.15c-.017-.661-.025-1.352-.025-2.052,0-3.733,7.467-6.935,7.467-9.868A17.016,17.016,0,0,0,197.455,254.089Z" transform="translate(-149.131 -234.998)" fill="#f16680"/></g><g transform="translate(202.872 296.71)"><path d="M234.74,181.306h-60.8V300.571h92.075V212.58Z" transform="translate(-173.939 -181.306)" fill="#ffce55"/><path d="M195.567,181.306l31.274,31.274H195.567Z" transform="translate(-134.766 -181.306)" fill="#f7941d"/><rect width="32.942" height="5.984" transform="translate(13.095 17.526)" fill="#fff"/><rect width="65.547" height="5.984" transform="translate(13.095 44.695)" fill="#fff"/><rect width="65.547" height="5.984" transform="translate(13.095 60.632)" fill="#fff"/><rect width="65.547" height="5.984" transform="translate(13.095 76.57)" fill="#fff"/><rect width="65.547" height="5.984" transform="translate(13.095 92.507)" fill="#fff"/></g><g transform="translate(435.788 517.041)"><path d="M285.126,321.8s-4.335,4.594-5.313,8.226c-.9,3.5-1.386,4.892-2.887,4.506s-15.431-6.556-19.409-9.044,9.432-2.032,14.962-1.434,9.12-5.083,9.12-5.083Z" transform="translate(-256.79 -152.283)" fill="#f8e4d2"/><path d="M279.813,327.056a10.26,10.26,0,0,1,.762-1.917c-1-.349-2.106-1.125-3.652-.47-3.031,1.3-9.55-2.384-11.745-4.031-5.288-.121-10.3.231-7.661,1.881,3.978,2.488,17.908,8.659,19.409,9.044S278.916,330.553,279.813,327.056Z" transform="translate(-256.791 -149.311)" fill="#006838"/><path d="M382.4,303.48s-.374,22.229-39.11,20.466c-23.9-.5-35.846-5.083-35.846-5.083s-22.012,30.643-37.9,42.782l-4.959-2.8s27.325-51.721,34.871-56.082c5.786-3.1,57.583-4.5,57.583-4.5Z" transform="translate(-242.686 -189.8)" fill="#bb4738"/><path d="M274,311.686c1.29,6.955,2.848,16.606,2.367,23.946,8-9.707,14-18.062,14-18.062a53.321,53.321,0,0,0,5.949,1.69c.616-4.551,1.864-13.561,2.285-14.827a19.357,19.357,0,0,0,.678-5.457c-8.257.658-15.02,1.487-16.9,2.5C280.535,302.535,277.515,306.426,274,311.686Z" transform="translate(-225.613 -188.507)" fill="#bb4738" opacity="0.5" style="mix-blend-mode:multiply;isolation:isolate"/><path d="M291,321.966s-1.723,6.075-.919,9.749c.821,3.517,1.029,4.982-.481,5.33s-16.716,1.3-21.394.933,7.433-6.157,12.614-8.178,5.746-8.715,5.746-8.715Z" transform="translate(-238.024 -148.46)" fill="#f8e4d2"/><path d="M370.327,304.307s6.044,14.557-4.394,21.97-65.648-6.764-65.648-6.764-.427,23.862-21.025,47.207l-5.8-1.782s11.939-51.46,19.355-62.171c12.909-4.67,48.123-4.5,48.123-4.5Z" transform="translate(-226.594 -189.8)" fill="#bb4738"/><path d="M290.079,326.189a10.457,10.457,0,0,1-.208-2.052c-1.043.149-2.387-.025-3.455,1.268-2.089,2.553-9.572,2.294-12.282,1.844-4.745,2.331-9.03,4.956-5.929,5.2,4.678.371,19.884-.582,21.394-.933S290.9,329.706,290.079,326.189Z" transform="translate(-238.024 -142.934)" fill="#006838"/><path d="M348.651,326.276c10.438-7.413,4.394-21.97,4.394-21.97l-29.386-6.044s-3.129-.011-7.843.09c.267,1.3,15.749,11.234,17.036,17.244,1.313,6.131-45.41.607-49.849,3.916C283,319.513,338.216,333.692,348.651,326.276Z" transform="translate(-209.313 -189.8)" fill="#bb4738" opacity="0.5" style="mix-blend-mode:multiply;isolation:isolate"/><path d="M291.943,291.049a7.391,7.391,0,0,1-3.48.177c-1.287-.453-3.607-2.064-5.735-1.546s-4.574,4.639-5.541,5.929,3.028,0,5.027-1.355,3.416,1.934,5.67,1.611,5.223-1,5.223-1Z" transform="translate(-220.117 -205.527)" fill="#ffbba6"/><path d="M335.621,273.371a10.485,10.485,0,0,0-12.769,8.389c-.478,2.769-1,5.521-1.571,8.2-.663,3.151-1.411,6.272-2.283,9.123-.419,1.459-.905,2.8-1.358,3.961l-.337.81c-.686,1.656-1.6,2.1-3.182,2.943-1.389.737-2.828,1.473-4.315,2.168-2.957,1.414-6.025,2.758-9.12,4.057-6.188,2.6-12.533,5.06-18.869,7.385l1.361,5.614c6.829-.933,13.592-1.979,20.407-3.233,3.407-.627,6.817-1.3,10.27-2.111,1.723-.391,3.463-.841,5.232-1.333.9-.275,1.768-.5,2.7-.821l1.4-.486.7-.247c.332-.155.86-.467,1.273-.722a16.081,16.081,0,0,0,2.367-1.751l1.437-1.5.7-.773.5-.666,1-1.352a56.946,56.946,0,0,0,3.194-5.128c1.892-3.343,3.458-6.606,4.945-9.884,1.273-2.82,2.468-5.606,3.613-8.406A10.525,10.525,0,0,0,335.621,273.371Z" transform="translate(-211.463 -235.407)" fill="#ffce55"/><path d="M308.16,313.431l.7-.888.5-.767,1-1.552a66.438,66.438,0,0,0,3.194-5.887c1.892-3.837,3.458-7.588,4.945-11.352,1.274-3.236,2.468-6.432,3.613-9.648a13.477,13.477,0,0,0,.534-1.971,10.494,10.494,0,0,0-20.593.394c-.478,2.769-1,5.521-1.571,8.2-.663,3.151-1.411,6.272-2.283,9.123-.419,1.459-.905,2.8-1.358,3.961l-.337.81c-.686,1.656-1.6,2.1-3.182,2.943l-.028.011a72.187,72.187,0,0,1,2.176,13.252c.939-.239,1.864-.453,2.817-.717.9-.275,1.768-.5,2.7-.821l1.4-.486.7-.247c.332-.155.86-.467,1.273-.722.292-.183.613-.4.928-.618a12.1,12.1,0,0,0,1.439-1.3Z" transform="translate(-190.668 -235.407)" fill="#ffce55" opacity="0.5" style="mix-blend-mode:multiply;isolation:isolate"/><path d="M296.548,295.954a7.4,7.4,0,0,1-3.48.177c-1.29-.45-3.61-2.064-5.735-1.546s-4.577,4.639-5.541,5.929,3.028,0,5.024-1.355,3.416,1.934,5.673,1.614,5.223-1,5.223-1Z" transform="translate(-211.776 -196.643)" fill="#ffbba6"/><path d="M373.04,334.31V311.7H376.8v-3.438H296.836a11.773,11.773,0,0,0-11.774,11.771v5.946a11.773,11.773,0,0,0,11.774,11.771H376.8V334.31Z" transform="translate(-205.584 -171.689)" fill="#00a79d"/><path d="M333.124,319.46c.68-9.676,1.768-19.575.562-29.254-.928-7.427-5.187-15.358-12.991-17.208a13.735,13.735,0,0,0-10.708,1.912,55.544,55.544,0,0,0-4.866,3.357c-5.876,4.363-13.7,13.37-11.819,21.964,1,4.574,2.567,7.011,5.3,10.455a21.421,21.421,0,0,1,4.408,13.1c.048,1.439-2.508,16.8-4.565,19.586a.8.8,0,0,0,.2,1.108c6.969,5.066,23.083,16.454,39.529,10.081C338.82,348.928,332.042,334.841,333.124,319.46Z" transform="translate(-191.174 -236.252)" fill="#ffce55"/><path d="M295.8,309.484a9.264,9.264,0,0,0-9.263,9.263v4.085a9.264,9.264,0,0,0,9.263,9.263h76.559V309.484Z" transform="translate(-202.919 -169.474)" fill="#fffdeb"/><path d="M293.915,341.173V322.188h-3.759V318.75h79.966a11.772,11.772,0,0,1,11.771,11.771v2.316a11.773,11.773,0,0,1-11.771,11.774H290.156v-3.438Z" transform="translate(-196.357 -152.691)" fill="#bb4738"/><path d="M367.346,319.973a9.267,9.267,0,0,1,9.266,9.263v.455a9.267,9.267,0,0,1-9.266,9.266H290.79V319.973Z" transform="translate(-195.209 -150.476)" fill="#fee0cf"/><path d="M305.122,261.268c-5.732.186-11.838,2.679-11.993,7.928-.208,6.944,2.066,8.9,2.061,11.2s-1.094,4.509-.984,5.176,3.4-.309,3.823.363,3.922,5.341,6.972,5.074c3.972-.349,7.866-4.355,9.82-7.306,3.714-5.608,4.922-17.121-2.072-20.98A15.5,15.5,0,0,0,305.122,261.268Z" transform="translate(-190.997 -256.826)" fill="#ffbba6"/><path d="M311.66,282.053a20.838,20.838,0,0,1-5.066-13.933s-6.443.2-5.063,3.742.222,11.892.222,11.892-8.336,6.817-3.525,8.127c4.228,1.153,10.8-4.054,13.522-7.495A1.806,1.806,0,0,0,311.66,282.053Z" transform="translate(-184.444 -244.395)" fill="#ffbba6"/><path d="M292.222,275.549s.312,1.928,10.531,1.487c3.416-.618,3.039,4.473,4.068,8.026.776,2.682,2.024-1.507,4.481-4.956s4.819,3.129,1.726,5.091,2.406,10.281-6.859,13.944c4,1.816,12.974-.8,19.516-5.811s-2-25.6-6.792-30.4S290.356,256.075,292.222,275.549Z" transform="translate(-192.804 -259.681)" fill="#0b5f99"/><g transform="translate(25.963 81.594)"><rect width="46.722" height="4.637" transform="translate(25.699 25.965)" fill="#647fa0"/><path d="M266.026,288.7h29.661l16.661,30.6H282.687Z" transform="translate(-266.026 -288.705)" fill="#7991b4"/><path d="M278.168,296.617c.81,2.069.326,3.745-1.074,3.745s-3.194-1.676-4-3.745-.326-3.745,1.077-3.745S277.361,294.548,278.168,296.617Z" transform="translate(-253.938 -281.157)" fill="#a2c4ed"/><path d="M277.735,310.213H307.4l-4.074-7.484c-15.018,2.35-27.193-3.767-34.564-9Z" transform="translate(-261.076 -279.612)" fill="#7991b4" opacity="0.5" style="mix-blend-mode:multiply;isolation:isolate"/></g><path d="M297.01,313.4h6.735l-3.158,2.849Z" transform="translate(-183.943 -162.379)" fill="#ffe7c4"/><path d="M306.472,321.6h6.735l-3.158,2.849Z" transform="translate(-166.804 -147.53)" fill="#ffc9ae"/><path d="M309.052,314.415h10.578l-4.959,4.475Z" transform="translate(-162.132 -160.543)" fill="#ffe7c4"/><path d="M294.765,322.553h10.578l-4.959,4.475Z" transform="translate(-188.009 -145.802)" fill="#ffc9ae"/><path d="M289.782,310.888h8.742l-4.1,3.7Z" transform="translate(-197.035 -166.932)" fill="#ffe7c4"/><path d="M314.309,324.575h8.742l-4.1,3.7Z" transform="translate(-152.61 -142.141)" fill="#ffc9ae"/><path d="M304.588,278.267s1.035,15.774,2.449,23.457c1.108,6.008-3.972,10.461-9.429,13.112-.25,1.974-.883,5.752-1.673,9.409,8.712-1.74,25.178-5.2,25.211-6.457.042-1.709,2.671-18.692,1.459-22.333S306.384,278.059,304.588,278.267Z" transform="translate(-185.89 -226.019)" fill="#ffce55" opacity="0.5" style="mix-blend-mode:multiply;isolation:isolate"/><path d="M324.9,290.319c.025-.343.051-.689.076-1.035-2.319-.427-4.658-.767-4.993-.464-.683.621-17.163,19.254-22.428,21.725,0,0,19.884-3.826,22.428-2.314,2.356,1.4,6.64,11.408,5.443,18.47a27.933,27.933,0,0,0,4.52-1.282C330.6,319.787,323.82,305.7,324.9,290.319Z" transform="translate(-182.952 -207.111)" fill="#ffce55" opacity="0.5" style="mix-blend-mode:multiply;isolation:isolate"/><path d="M344.126,297.731c-.6-4.768-1.3-9.406-2.122-14.039a10.27,10.27,0,1,0-19.8,5.22c1.411,4.127,2.733,8.3,3.908,12.392a110.237,110.237,0,0,1,2.654,11.068c.188.916.287,1.732.382,2.544a19.187,19.187,0,0,1,.194,2.19l.042.506a1,1,0,0,0-.014.208l.025.208a17.3,17.3,0,0,1-2.7,1.577,52.049,52.049,0,0,1-5.086,2.044c-3.61,1.248-7.447,2.294-11.338,3.227-7.784,1.853-15.853,3.326-23.842,4.484l.391,6.865c8.392.093,16.671-.112,25.11-.773,4.22-.337,8.456-.8,12.808-1.574a65.812,65.812,0,0,0,6.685-1.543,26.831,26.831,0,0,0,7.534-3.4,12.654,12.654,0,0,0,4.478-5.316,8.194,8.194,0,0,0,.52-1.459l.354-1.282.318-1.3.138-1.032a32.937,32.937,0,0,0,.351-3.958c.051-1.24.087-2.474.039-3.6A125.322,125.322,0,0,0,344.126,297.731Z" transform="translate(-203.104 -231.46)" fill="#ffce55"/><path d="M316.333,266.9c-.981-3.927-3.868-3.927-9.985-.579-4.619,2.527-11.141.253-14.211-1.113a21.092,21.092,0,0,0,.076,2.73s.312,1.928,10.531,1.487c3.416-.618,3.039,4.473,4.068,8.026.776,2.682,2.024-1.507,4.481-4.956s4.819,3.129,1.726,5.091,2.406,10.281-6.859,13.944c4,1.816,12.974-.8,19.516-5.811,2.9-2.224,2.828-7.517,1.436-13.134C322.49,277.358,317.281,270.7,316.333,266.9Z" transform="translate(-192.794 -252.073)" fill="#0b5f99" opacity="0.5" style="mix-blend-mode:multiply;isolation:isolate"/><path d="M286.533,318.747v4.085a9.236,9.236,0,0,0,3.936,7.557c-3.275-9.629.548-13.789,5.2-13.789h76.691v-7.115H295.8A9.264,9.264,0,0,0,286.533,318.747Z" transform="translate(-202.919 -169.474)" fill="#f4e0cb" opacity="0.5" style="mix-blend-mode:multiply;isolation:isolate"/><path d="M367.346,319.973H290.79v4.571h74.861c3.955,0,9.288,4.374,9.7,9.744a9.19,9.19,0,0,0,1.265-4.6v-.455A9.267,9.267,0,0,0,367.346,319.973Z" transform="translate(-195.209 -150.476)" fill="#fee0cf" opacity="0.5" style="mix-blend-mode:multiply;isolation:isolate"/></g><g transform="translate(531.082 187.33)"><path d="M362.3,157.514v-.874a3.879,3.879,0,0,0-6.772-2.583l-15.468,17.314a6.418,6.418,0,0,1-1.743,1.124,10.1,10.1,0,0,1-1.372.436l-1.628.464-16.972,5.384a9.8,9.8,0,0,1-4.742.32,12.367,12.367,0,0,1-2.525-.706c-2.153-.925-3.076-1.847-4.613-1.437s-7.582,3.177-8.1,5.842,5.946-1.51,7.484-1.369,2.255,2.536,4.3,2.26,19.892-2.263,19.892-2.263l6.755-.742,1.69-.186a18.454,18.454,0,0,0,1.934-.27,14.778,14.778,0,0,0,4.388-1.647,15.494,15.494,0,0,0,1.976-1.344l1.372-1.068,2.682-2.078,5.367-4.158h0A17.8,17.8,0,0,0,362.3,157.514Z" transform="translate(-276.821 -123.645)" fill="#ffbba6"/><path d="M334.758,154.356c-.618-.455-1.3-.925-1.979-1.372a3.878,3.878,0,0,0-.793.652l-10.112,11.318c.219,3.309.607,8.172-.076,9.345-.967,1.659-6.48,4.051-10.455,6.176l1.92-.211,1.69-.186a18.458,18.458,0,0,0,1.934-.27,14.777,14.777,0,0,0,4.388-1.647,15.493,15.493,0,0,0,1.976-1.344l1.372-1.068,2.682-2.078,5.367-4.158a16.8,16.8,0,0,0,4.684-6.48C336.895,159.394,336.1,155.343,334.758,154.356Z" transform="translate(-253.276 -123.225)" fill="#ffbba6" opacity="0.5" style="mix-blend-mode:multiply;isolation:isolate"/><path d="M310.816,146.376s12.212-8.288,22.577-.936c9.156,6.494,15.2-3.084,21.644-1.237s5.122,11.594,11.729,15.231c4.133,2.272,8.507,3.759,13.275,3.374,4.63-.371,9.016-1.617,12.215,2.682,2.716,3.652,3.843,8.692,3.832,13.182-.017,6.067-4.177,9.912-9.589,11.878-6.792,2.468-14.225,3.2-19.729-2.257-5.949-5.892-4.563-9.01-12.788-11.18s-21.374,9.108-30.952-1.816c-5.994-5.288-2.1-18.045-5.038-21.416S308.615,150.722,310.816,146.376Z" transform="translate(-255.046 -142.398)" fill="#be1e2d"/><path d="M385.374,156.456c-3.2-4.3-7.585-3.056-12.215-2.682a18.666,18.666,0,0,1-3.725-.079c.363,2.856-.143,5.786-2.845,7.768-6.047,4.439-15.676-8.021-19.057-11.639s-9.381-3.773-15.914,3.393c-4.827,5.3-13.334,8.872-17.452,10.382a8.6,8.6,0,0,0,1.982,2.662c9.578,10.924,22.723-.351,30.952,1.816s6.84,5.288,12.788,11.18c5.5,5.454,12.937,4.726,19.729,2.257,5.412-1.965,9.572-5.811,9.589-11.878C389.217,165.149,388.09,160.108,385.374,156.456Z" transform="translate(-248.165 -133.365)" fill="#be1e2d" opacity="0.5" style="mix-blend-mode:multiply;isolation:isolate"/><path d="M367.577,166.095s4.164-1.1,5.586-2.738,2.848-2.957,3.835-1.645,6.9,9.53,8.543,10.407,3.725,3.567,2.738,4.633-6.244-1.237-9.421-3.975-10.514-2.629-10.514-2.629Z" transform="translate(-151.422 -108.386)" fill="#ffbba6"/><path d="M359.9,155.483s2.111-3.753,1.923-5.921-.14-4.107,1.49-3.9,11.653,1.678,13.424,1.108,5.159-.191,5.237,1.257-5.237,3.626-9.415,4-9.212,5.726-9.212,5.726Z" transform="translate(-165.325 -136.513)" fill="#ffbba6"/><path d="M333.838,184.489s11.49-12.974,55.382-2.491c.557-11.512,19.319-33.381,19.319-33.381l6.055,2.007s-17.4,39.152-21.188,45.483c-5.8,1.057-35.9,5.327-58.525,2.111C331.35,193.732,333.838,184.489,333.838,184.489Z" transform="translate(-214.073 -131.135)" fill="#00998a"/><path d="M431.289,170.537l-7.967.309h0s-12.755-1.751-18.284-1.327a115.335,115.335,0,0,0-14.363,2.6S367.08,160.7,355.475,158.6a32.3,32.3,0,0,0-20.286,2.87c-2.271,6.07-3.039,14.613-.514,19.625,8.324,3.165,46.92,1.054,55.244,1.054s42.633-4.748,42.633-4.748Z" transform="translate(-213.866 -114.006)" fill="#00a79d"/><path d="M415.663,178.31c-.053,0-33.609.678-42.079,0s-31.8-2.7-32.079-7.489c-.211-3.568-2.2-9.325-3.2-12.029a23.02,23.02,0,0,0-3.118,1.375c-2.271,6.07-3.036,14.613-.514,19.625,8.324,3.165,46.92,1.054,55.244,1.054C394.269,180.845,405.723,179.549,415.663,178.31Z" transform="translate(-213.865 -112.707)" fill="#00a79d" opacity="0.5" style="mix-blend-mode:multiply;isolation:isolate"/><path d="M325.68,150.934s-6.345,3.66-6.831,8.543-6.1,20.255,0,22.206,9.761-2.682,14.641,2.443,14.644,10.005,33.434,12.935c1.954-6.348,2.671-11.715,0-22.209-3.9-1.709-9.03-1.22-18.3-9.764S332.514,146.543,325.68,150.934Z" transform="translate(-244.797 -128.875)" fill="#f16680"/><path d="M315.309,145.726c-3.877,2.193-7.115,6.2-5.181,10.061,2.558,5.114,4.886,5.721,5.774,7.388s1,3.666,1.333,4.11,2.221-1.445,2.778-1.11,4.776,2.468,6.775,1.178c2.6-1.678,3.728-5.985,3.927-8.827.379-5.406-3.264-14.2-9.586-14.486A11.516,11.516,0,0,0,315.309,145.726Z" transform="translate(-256.522 -139.438)" fill="#ffbba6"/><path d="M326.852,155.214a18.325,18.325,0,0,1-9.342-6.533s-3.762,2.648-1.552,4.217,4.793,7,4.793,7-2.606,10.241.77,9.137c2.994-.978,6-9.44,6.258-12.544A1.221,1.221,0,0,0,326.852,155.214Z" transform="translate(-246.177 -131.019)" fill="#ffbba6"/><path d="M309.764,159.837s3.989,2.969,9.713-1.552c1.386-1.569,4.161,1.625,5.2,4.8s.866-2.837,1.04-5.209,5.715,1.993,3.031,5.881c1.29,1.192,3.213,2.227,5.988-.672s.821-8.968-1.586-13.3-6.913-9.193-14.371-6.072S305.255,152.727,309.764,159.837Z" transform="translate(-258.936 -141.826)" fill="#be1e2d"/><g transform="translate(0 30.898)"><rect width="36.903" height="3.564" transform="translate(12.845 32.907)" fill="#5fc8d7"/><path d="M290.688,153.389h4.225l12.713,36.471H303.4Z" transform="translate(-290.688 -153.389)" fill="#5fc8d7"/></g><path d="M356.544,191.824a44.8,44.8,0,0,0,1.141-4.394c-6.767-.68-24.714-6.221-25.717-14.658-.486-14.588-7.5-20.016-7.5-20.016l-2.713,21.068s1.431,3.185,3.061,6.66C330.141,185.01,339.716,189.2,356.544,191.824Z" transform="translate(-234.417 -123.638)" fill="#f16680" opacity="0.5" style="mix-blend-mode:multiply;isolation:isolate"/><path d="M357.816,156.089a15.229,15.229,0,0,0-1.355-2.1c-1.959-2.539-6.328-2.584-7.782.093-1.909,3.511-1.605,8.518-1.428,12.361.239,5.218,1.948,10.407,1.884,15.591-1.51.2-7.349,1.209-8.785,1.327-3.011.245-6.013.562-9.01.922-3.216.388-6.587,1.243-9.822,1.335a16.82,16.82,0,0,1-5.564-.756c-2-.86-2.865-1.718-4.3-1.335s-7.062,2.957-7.54,5.44,5.535-1.406,6.966-1.276,2.1,2.361,4.009,2.106,5.381-1.08,6.525-1.08c11.256,2.072,25.324,1.85,31.826,1.6a4.747,4.747,0,0,0,4.467-3.717C359.8,178.034,362.384,164.621,357.816,156.089Z" transform="translate(-266.41 -124.868)" fill="#ffbba6"/><path d="M334.129,184.981c-3.531,3.1-18.582,4.009-18.807,4.02,7.163.371,13.854.233,17.781.079a4.747,4.747,0,0,0,4.467-3.717c1.884-8.56,4.473-21.973-.1-30.5a15.227,15.227,0,0,0-1.355-2.1S341.394,176.005,334.129,184.981Z" transform="translate(-246.069 -123.638)" fill="#ffbba6" opacity="0.5" style="mix-blend-mode:multiply;isolation:isolate"/></g><g transform="translate(317.413 139.556)"><path d="M280.7,147.926c-5.375-9.718-28.391-8.833-28.391-8.833s-23.018-.886-28.391,8.833c-3.851,6.966,3.635,30.98,5.561,45.871a170.769,170.769,0,0,0,22.83,2.4,170.775,170.775,0,0,0,22.827-2.4C277.06,178.906,284.547,154.892,280.7,147.926Z" transform="translate(-199.925 -100.649)" fill="#f16680"/><path d="M229.218,146.015c-2.193.838-4.141,4.726-5.766,9.536,1.628,8.676,3.944,18.29,4.9,25.67a170.771,170.771,0,0,0,22.83,2.4,170.776,170.776,0,0,0,22.827-2.4c.557-4.31,1.583-9.39,2.662-14.593-2.316-1.751-7.812-3.936-20.716-6.5C232.546,155.481,229.218,146.015,229.218,146.015Z" transform="translate(-198.8 -88.073)" fill="#f16680" opacity="0.5" style="mix-blend-mode:multiply;isolation:isolate"/><g transform="translate(73.311 44.33)"><path d="M245.707,141.173s9.114,7.827,13.137,28.439c3.48,17.84-10.652,19.51-16.184,21.413-3.8.689-.717-8.92-.717-8.92l7.363-4.917s-5.859-16.353-7.588-22.4S245.707,141.173,245.707,141.173Z" transform="translate(-240.761 -141.173)" fill="#f16680"/><path d="M251.062,157.526c-1.726-.239-4.267-5.9-4.273-5.909,1.321,3.776,2.35,6.654,2.35,6.654l-7.363,4.917a31.939,31.939,0,0,0-.925,3.787c8.032-1.934,10.376-6.854,11.155-7.11S252.794,157.762,251.062,157.526Z" transform="translate(-240.595 -122.256)" fill="#f16680" opacity="0.5" style="mix-blend-mode:multiply;isolation:isolate"/></g><g transform="translate(12.798 44.33)"><path d="M232.917,141.173S223.8,149,219.78,169.612c-3.48,17.84,10.652,19.51,16.184,21.413,3.8.689.717-8.92.717-8.92l-7.366-4.917s5.862-16.353,7.59-22.4S232.917,141.173,232.917,141.173Z" transform="translate(-219.235 -141.173)" fill="#f16680"/><path d="M223.07,157.526c1.729-.239,4.27-5.9,4.276-5.909-1.321,3.776-2.353,6.654-2.353,6.654l7.365,4.917a32.6,32.6,0,0,1,.925,3.787c-8.032-1.934-10.379-6.854-11.155-7.11S221.341,157.762,223.07,157.526Z" transform="translate(-214.913 -122.256)" fill="#f16680" opacity="0.5" style="mix-blend-mode:multiply;isolation:isolate"/></g><path d="M250.109,181.5a9.531,9.531,0,0,0,6.407,7.439c5.861,2.151,8.971,1.467,9.5,3.812s0,2.494,0,2.494-15.366.686-19.364,0-1.51-13.05-1.51-13.05Z" transform="translate(-160.888 -23.804)" fill="#594a42"/><path d="M230.831,181.5a9.531,9.531,0,0,1-6.407,7.439c-5.861,2.151-8.971,1.467-9.5,3.812s0,2.494,0,2.494,15.366.686,19.364,0,1.51-13.05,1.51-13.05Z" transform="translate(-214.683 -23.804)" fill="#594a42"/><path d="M299.46,175.95a14.434,14.434,0,0,0-9.333-12.805,88.721,88.721,0,0,0-10.866-3.261L259.3,157.8l-19.963,2.089a88.761,88.761,0,0,0-10.863,3.261,14.427,14.427,0,0,0-9.331,12.805c-.686,14.166.841,40.094,1.341,50.414,3.056,2.246,8.67,1.5,8.67,1.5s5.083-19.389,5.3-36.864c1.529-10.984,8.217-15.226,24.846-15.226s23.316,4.242,24.846,15.226c.219,17.475,5.3,36.864,5.3,36.864s5.611.751,8.667-1.5C298.619,216.044,300.143,190.116,299.46,175.95Z" transform="translate(-206.916 -66.736)" fill="#877f7d"/><path d="M241.82,143.1c-1.647-1.037-2.055-6.075-2.055-6.075s-4.186-.869-5.291,0a9.862,9.862,0,0,1-1.929,6.075c-3.635,4.121,1.982,6.28,4.636,6.28s5.665-1.4,6.28-3.255S241.82,143.1,241.82,143.1Z" transform="translate(-184.482 -105.052)" fill="#ffbba6"/><path d="M232.73,137.027a8.1,8.1,0,0,1-.41,3.05,22.032,22.032,0,0,0,7.177,2.44c-1.167-1.673-1.476-5.49-1.476-5.49S233.835,136.158,232.73,137.027Z" transform="translate(-182.738 -105.052)" fill="#ffbba6" opacity="0.5" style="mix-blend-mode:multiply;isolation:isolate"/><path d="M251.624,132.861c-4.169-7.4-17.109-7.441-21.3,0-1.833,3.255-1.192,7.905-.216,11.321,1.347,4.72,4.214,9.142,8.532,11.442a6.447,6.447,0,0,0,4.332.261c4.49-1.524,6.98-6.109,8.5-10.506,1.254-3.638,2.089-8.583.32-12.209C251.734,133.067,251.68,132.965,251.624,132.861Z" transform="translate(-188.469 -121.977)" fill="#ffbba6"/><path d="M237.595,134.246s2.381-2.845,3.86-1.133-1.7,6.407-3.368,6.511S236.119,137.122,237.595,134.246Z" transform="translate(-174.909 -112.434)" fill="#ffbba6"/><path d="M232.471,134.246s-2.381-2.845-3.857-1.133,1.692,6.407,3.365,6.511S233.95,137.122,232.471,134.246Z" transform="translate(-190.142 -112.434)" fill="#ffbba6"/><path d="M233.9,139.618s14.905,7.045,21.672,3.922c4.3-2.212,6.117-11.186,4.425-12.817s-2.991-1.24-5.074-.978-3.776-2.212-4.945-3.646-.911-.388-3.255.782c-2.561,1.282-5.538.16-8.231.593-5.108.821-8.136,4.762-9.4,9.471a15.578,15.578,0,0,0-.306,7.107c.171.846,3.728,8.189,4.13,7.683C234.976,149.131,235,145.721,233.9,139.618Z" transform="translate(-189.65 -125.404)" fill="#594a42"/><path d="M236.7,131.681s-1.72,8.119.849,10.2c1.929-3.32,3.213-6.536,3.213-9.491S236.7,131.681,236.7,131.681Z" transform="translate(-175.82 -115.522)" fill="#594a42"/><path d="M236.864,137.087c-.458-.956-1.569-2.851-2.227-3.953a.445.445,0,0,0-.81.1c-.486,1.619-1.33,4.757-.61,4.917C234.191,138.367,237.533,138.485,236.864,137.087Z" transform="translate(-181.617 -111.798)" fill="#fc957a" opacity="0.5"/><path d="M255.519,138.075c2.98-1.535,4.765-6.32,5.018-9.654-1.29,2.831-4.214,7.3-9.2,6.857-7.067-.618-10.846-3.573-14.127-4.523s-5.628.973-5.94,4.554c-.18,2.038-1.524,2.153-2.735,1.788a14.03,14.03,0,0,0,.2,1.49c.171.846,3.728,8.189,4.13,7.683,2.066-2.6,2.089-6.013.987-12.116C233.847,134.153,248.752,141.2,255.519,138.075Z" transform="translate(-189.601 -119.94)" fill="#594a42" opacity="0.5" style="mix-blend-mode:multiply;isolation:isolate"/><path d="M288.91,221.917c-1.886-2.513-1.886-24.05-2.471-30.51s-1.389-7.36,1.437-9.333-2.825-1.614-5.159-1.973-5.923-4.487-9.153-5.923-8.794-1.437-7.5-2.87,4.987-1.976,3.014-2.513-4.307-1.973-2.153-2.873,15.794-3.635,15.794-3.635c.36-.29,1.968-.256,2.246-.6-3.725-1.167-6.6-1.8-6.6-1.8L258.4,157.8l-19.963,2.089s-2.876.633-6.6,1.8c.284.346,1.886.312,2.246.6,0,0,13.64,2.738,15.794,3.635s-.18,2.333-2.153,2.873,1.721,1.077,3.014,2.513-4.27,1.434-7.5,2.87-6.82,5.564-9.153,5.923-7.987,0-5.159,1.973,2.024,2.873,1.439,9.333-.588,28-2.471,30.51c-1.251,1.667-5.06,1.757-8.428,1.94.045.905.087,1.757.124,2.508,3.056,2.246,8.67,1.5,8.67,1.5s5.083-19.389,5.3-36.864c1.529-10.984,8.217-15.226,24.846-15.226s23.316,4.242,24.846,15.226c.219,17.475,5.3,36.864,5.3,36.864s5.611.751,8.667-1.5c.037-.751.079-1.6.127-2.508C293.973,223.674,290.158,223.584,288.91,221.917Z" transform="translate(-206.02 -66.736)" fill="#877f7d" opacity="0.5" style="mix-blend-mode:multiply;isolation:isolate"/><g transform="translate(24.344 68.328)"><path d="M274.774,176.93H227.985l-4.643-27.221h56.073Z" transform="translate(-223.343 -149.709)" fill="#ddc2bf"/><path d="M241.017,157.621c-.548,1.437-2.572,2.37-4.625,2.37s-4.079-.933-4.627-2.37c-.72-1.884,1.245-3.9,4.627-3.9S241.737,155.737,241.017,157.621Z" transform="translate(-208.355 -142.447)" fill="#fce2e0"/><path d="M227.552,174.391h46.788l.478-2.794c-24.326.278-42.6-12.861-51.235-20.486Z" transform="translate(-222.909 -147.171)" fill="#ddc2bf" opacity="0.5" style="mix-blend-mode:multiply;isolation:isolate"/></g></g><g transform="translate(218.152 454.618)"><g transform="translate(11.389)"><path d="M14,0H200.223a15,15,0,0,1,15,15V141.958a5,5,0,0,1-5,5H5a5,5,0,0,1-5-5V14A14,14,0,0,1,14,0Z" fill="#fff"/><path d="M384.327,237.476H197.749A14.323,14.323,0,0,0,183.426,251.8V271.79H398.65V251.8A14.325,14.325,0,0,0,384.327,237.476Z" transform="translate(-183.425 -237.476)" fill="#00a79d"/><circle cx="4.964" cy="4.964" r="4.964" transform="translate(35.542 12.192)" fill="#ef4065"/><path d="M198.389,246.778a4.963,4.963,0,1,1-4.965-4.965A4.962,4.962,0,0,1,198.389,246.778Z" transform="translate(-174.304 -229.62)" fill="#f7941d"/><path d="M203.675,246.778a4.965,4.965,0,1,0,4.965-4.965A4.963,4.963,0,0,0,203.675,246.778Z" transform="translate(-146.749 -229.62)" fill="#5fc8d7"/><rect width="12.741" height="58.912" transform="translate(15.969 55.072)" fill="#db3931"/><rect width="12.741" height="45.27" transform="translate(36.448 68.714)" fill="#ffce55"/><rect width="12.741" height="52.345" transform="translate(56.927 61.639)" fill="#5fc8d7"/><rect width="12.741" height="34.932" transform="translate(77.406 79.803)" fill="#006838"/><path d="M254.242,269.906a15.829,15.829,0,1,1-15.827-15.827A15.829,15.829,0,0,1,254.242,269.906Z" transform="translate(-112.499 -207.404)" fill="#5fc8d7"/><rect width="41.882" height="5.443" transform="translate(155.496 59.781)" fill="#ffce55"/><rect width="83.764" height="5.443" transform="translate(113.614 83.948)" fill="#877f7d"/><rect width="83.764" height="5.443" transform="translate(113.614 96.245)" fill="#877f7d"/><rect width="83.764" height="5.443" transform="translate(113.614 108.541)" fill="#877f7d"/><rect width="29.248" height="5.443" transform="translate(29.85 127.406)" fill="#ffce55"/><rect width="10.838" height="10.838" transform="translate(15.969 124.708)" fill="#db3931"/><rect width="29.248" height="5.443" transform="translate(83.549 127.406)" fill="#ffce55"/><rect width="10.838" height="10.838" transform="translate(69.668 124.708)" fill="#5fc8d7"/></g></g><g transform="translate(753.009 489.758)"><path d="M392.537,331.265a6.962,6.962,0,0,1-5.33,6.834c-5.493,1.473-9.381,1.875-10.05,3.753s0,1.875,0,1.875,16.887,0,20.238-1.071c1.071-1.743.669-11.391.669-11.391Z" transform="translate(-356.536 -102.74)" fill="#594a42"/><path d="M403.341,331.316c-.048.4,1.321,5.336-3.857,6.913s-8.976,2.058-9.241,3.939.4,1.869.4,1.869,16.884-.34,20-1.473c.7-1.757-1.779-11.36-1.779-11.36Z" transform="translate(-332.408 -102.852)" fill="#594a42"/><path d="M382.35,289.135s-3.545,62.86-2.389,75.2,6.553,45.115,6.553,45.115h7.329l-1.929-47.043s5.783-31.621,8.291-37.019c4.821,9.64,7.942,39.18,7.942,39.18l13.075,44.882H429.7s-9.255-45.5-8.867-46.658,4.5-48.427-5.659-70.872C404.64,287.6,382.35,289.135,382.35,289.135Z" transform="translate(-351.339 -179.529)" fill="#9d2e24"/><path d="M380.423,300.07c4.911,2.148,18.006,7.571,25.563,7.827,7.731.261,12.774,14.711,14.689,24.393-.25-13.542-1.636-29.043-5.85-39.9-7.925.68-21.6,1.937-24.177,2.721-3.674,1.119-7.829-5.909-8.788-5.271-.2.135-.54.3-.928.528C380.811,292.592,380.631,295.96,380.423,300.07Z" transform="translate(-350.082 -177.841)" fill="#9d2e24" opacity="0.5" style="mix-blend-mode:multiply;isolation:isolate"/><path d="M406.063,293.309s-2.471,4.678-5.01,6.924,1.271,1.271,3.419-1.172c.88-.877,1.172,2.834.194,4.006A27.4,27.4,0,0,1,400.955,306c-.292.292,2.932-.329,4.886-1.6-.88,1.661-4.4,3.357-4.1,3.941s4.2.588,7.228-1.951,1.563-11.529,1.369-12.6S406.063,293.309,406.063,293.309Z" transform="translate(-314.242 -171.786)" fill="#ffbba6"/><path d="M380.248,266.341s6.365-1.335,9.356-1.864-1.692-1.175-4.546-1.757c.2-1.721,4.97-6.553,6.64-8.17s-1.853-.312-3.981,1.594a17.456,17.456,0,0,1-2.021,1.774s3.272-6.514,2.915-7.7-6.6,2.21-8.271,3.829-3.272,9.066-3.272,9.066Z" transform="translate(-356.158 -249.976)" fill="#ffbba6"/><path d="M465.775,323.793a28.46,28.46,0,0,0-1.1-3.261,23.831,23.831,0,0,0-1.906-3.427,49.845,49.845,0,0,0-3.632-4.751c-2.412-2.848-4.852-5.406-7.323-7.905-2.319-2.319-4.636-4.56-6.989-6.761-.048-.045-.1-.079-.149-.124-4.144-6.348-24.843-5.637-24.843-5.637s-17.438,1.74-18.248,1.631c-2.918-.4-5.819-.9-8.574-1.5-.017-.174-7.936-2.288-8.507-2.474a4.071,4.071,0,0,1-1.853-.987c-1.133-1.262.365-4.667.821-5.971a72.567,72.567,0,0,1,3.345-8.144,164.615,164.615,0,0,1,8.878-16.049l-5.639-4.245a172.922,172.922,0,0,0-11.819,15.369,83.412,83.412,0,0,0-5.173,8.633c-1.5,3.208-3.211,6.247-3.427,11.577a10.849,10.849,0,0,0,2.494,7.256l1.33,1.482a27.714,27.714,0,0,0,5.142,3.947,67.106,67.106,0,0,0,9.671,4.678c2.463.976,4.886,1.827,7.312,2.629.377,8.037,2.51,18.149,3.019,26.791.866,14.731.947,26.01.947,26.01s21.689,6.947,38.152.45c.8-9.052,2.713-29.557,5.069-43.51,1.864,1.3,7.663,5.794,8.459,6.57.579.5.469.565.762.787a12.924,12.924,0,0,1,.77,1.372c2.12,4.841,3.427,11.557,4.464,17.891,1.043,6.432,1.8,13.055,2.364,19.583l7.056.053c.551-6.812.908-13.536.956-20.41C467.56,338.406,467.633,331.718,465.775,323.793Zm-83.424-34.635a2.743,2.743,0,0,1-.036-.433c.028.065.084.138.073.177C382.531,289.231,382.387,289.414,382.351,289.158Z" transform="translate(-369.63 -242.35)" fill="#b38ff7"/><path d="M395.093,271.694a43.459,43.459,0,0,1-.4-6.64l-5.732.849s.107,5.2-2.971,7.427c-.925,4.133,3.632,5.235,8.057,1.473A3.3,3.3,0,0,0,395.093,271.694Z" transform="translate(-340.217 -222.665)" fill="#ffbba6"/><path d="M387.638,273.413s-.725-2.182.706-3.2,3.469-1.943,3.933-3.272a4.233,4.233,0,0,1,1.586,3.239c-.1,1.054-4.6,5.451-4.6,5.451Z" transform="translate(-337.345 -219.251)" fill="#8c67e8"/><path d="M388.556,267.325s-.925,2,.444,2.994c.374.559.8,3.421-.748,4.358,0,0-2.55-2.367-2.862-4.669C385.2,268.326,387.3,267.072,388.556,267.325Z" transform="translate(-341.105 -218.611)" fill="#8c67e8"/><circle cx="1.337" cy="1.337" r="1.337" transform="translate(47.648 60.426)" fill="#8c67e8"/><circle cx="1.337" cy="1.337" r="1.337" transform="translate(46.912 68.971)" fill="#8c67e8"/><path d="M396.75,284.723c-.27-1.605-15.926.737-23.421-8.931-1.729-2.7-2.53-7.731-2.409-11.341a21.955,21.955,0,0,0-1.288,6.722,10.849,10.849,0,0,0,2.494,7.256l1.33,1.482a27.714,27.714,0,0,0,5.142,3.947,67.109,67.109,0,0,0,9.671,4.678c2.463.976,4.886,1.827,7.312,2.629C395.581,291.164,397.017,286.328,396.75,284.723Z" transform="translate(-369.63 -223.757)" fill="#b38ff7" opacity="0.5" style="mix-blend-mode:multiply;isolation:isolate"/><path d="M387.261,265.9a13.508,13.508,0,0,1-.453,3.359,11.052,11.052,0,0,0,6.37.748c-.228-2.392-.186-4.956-.186-4.956Z" transform="translate(-338.517 -222.665)" fill="#ffbba6" opacity="0.5" style="mix-blend-mode:multiply;isolation:isolate"/><path d="M408.662,264.51a9.92,9.92,0,0,0-2.035-3.66,10.412,10.412,0,0,0-8.667-3.514c-6.182.737-9.272,5.738-11.332,10.891s-3.522,8.425-.883,10.891c2.738,2.555,9.381,2.024,14.827.4A12.477,12.477,0,0,0,408.662,264.51Z" transform="translate(-343.023 -236.711)" fill="#ffbba6"/><path d="M386.359,261.59s.124,6.415,11.1,10.328c.883,1.639-1.057,5.3-4.251,6.432s2.027,1.515,4.464,0,2.106,2.671,0,2.974-4.692,2.083-4.172,3.345,4.967,1.63,10.14-2.659,7.444-11.355,6.435-15.015c-.784-2.834-3.64-5.038-5.96-6.6-2.78-1.875-6.044-2.831-8.774-4.807-.548-.4-1.869-1.271-1.754.025.214,2.4-.8.911-2.058.155s-2.525-.883-2.145.883-.242.885-1.763.253S386.162,259.4,386.359,261.59Z" transform="translate(-339.513 -241.003)" fill="#9d2e24"/><path d="M407.293,275.949c-3.084-.444-5.178-3.2-4.225-5.665,1.15-2.969-.191-2.777-7.031-4.023-5.915-1.077-8.909-8.338-9.614-10.289a13.4,13.4,0,0,0-.068,3.731s.124,6.415,11.1,10.328c.883,1.639-1.057,5.3-4.251,6.432s2.027,1.515,4.464,0,2.106,2.671,0,2.974-4.692,2.083-4.172,3.345,4.967,1.63,10.14-2.659A18.571,18.571,0,0,0,407.293,275.949Z" transform="translate(-339.509 -239.115)" fill="#9d2e24" opacity="0.5" style="mix-blend-mode:multiply;isolation:isolate"/><path d="M437.22,293.044c-.506-2.021,1.639-4.293,1.515-5.3s-2.9.379-4.166-1.136-9.589-13.123-9.969-12.052c0,0-3.742,2.977-4.627,9.435s-2.786,22.023-5.572,24.556-16.707,5.42-10,6.381,10.761,2.606,9.747,4.63c-.981,1.965-4.819,9.291-33.951,4.984.011.807.014,1.251.014,1.251s21.689,6.947,38.152.45c.8-9.052,2.716-29.557,5.069-43.51.138.1.3.214.478.34l.143.107c.138.1.284.205.441.32l.186.138c.183.138.374.281.576.43l.084.065c.25.188.512.385.781.59h0c2.359,1.794,5.226,4.051,5.769,4.58.579.5.472.565.764.787a13.477,13.477,0,0,1,.768,1.372c2.123,4.841,3.43,11.557,4.464,17.891.9,5.549,1.555,11.234,2.089,16.884.006-.048.017-.081.02-.132C440.781,318.156,437.723,295.062,437.22,293.044Z" transform="translate(-350.493 -205.584)" fill="#b38ff7" opacity="0.5" style="mix-blend-mode:multiply;isolation:isolate"/><path d="M386.309,333.611c-.63,6.491-3.978,8.167-4.4,8.794s3.559,1.676,4.4,4.608,2.983,26.786,2.986,26.814l-1.279-31.163s5.783-31.621,8.29-37.019a58.746,58.746,0,0,1-4.554-5.746C390.287,297.6,386.936,327.12,386.309,333.611Z" transform="translate(-347.441 -159.784)" fill="#9d2e24" opacity="0.5" style="mix-blend-mode:multiply;isolation:isolate"/></g><g transform="translate(185.9 511.839)"><path d="M208.44,347.921c-1.487-2.322-8.881-.669-12.794-2.893-3.075-1.749-2.9-6.525-2.9-6.525l-6.151-.933a68.065,68.065,0,0,0-1.791,11.695,2.632,2.632,0,0,0,2.232,2.626,85.265,85.265,0,0,0,22.082.635A5.625,5.625,0,0,0,208.44,347.921Z" transform="translate(-137.286 -113.401)" fill="#594a42"/><path d="M193.831,347.45c-1.442-2.252-7.8-2.156-11.591-4.312-2.983-1.7-2.108-6.219-2.108-6.219l-5.9-.9s-2.418,6.64-2.5,11.223a2.549,2.549,0,0,0,2.162,2.544,184.333,184.333,0,0,0,20.6,2.125A5.447,5.447,0,0,0,193.831,347.45Z" transform="translate(-160.967 -116.205)" fill="#594a42"/><path d="M223.819,360.35l-4.026-62.309-34.854-.54a48.884,48.884,0,0,0-4.071,15.5c-.467,7.824.852,33.378.852,33.384l-.562,8.549.146-.815-9.21,53.3,7.52,1.8,15.9-51.7.146-.815,5.145-34.5,8.459,39.546-.585,50.769,7.655.686,7.492-51.542.042-.287Z" transform="translate(-160.307 -185.974)" fill="#00a79d"/><path d="M213.746,298.04l-34.632-.537h-.222a52.172,52.172,0,0,0-3.458,10.846c6.266.365,17.874.59,23.567,4.273,6.812,4.408,13.441,15.071,17.118,22.127Z" transform="translate(-154.259 -185.973)" fill="#00a79d" opacity="0.5" style="mix-blend-mode:multiply;isolation:isolate"/><path d="M185.751,313.039c-2.508,4.982-.455,21.1-2.215,23.738s-5.274.633-2.929,2.659-3.933,36.476-3.933,36.476h0L187.226,341.6l.146-.815,5.145-34.5A14.781,14.781,0,0,0,185.751,313.039Z" transform="translate(-152.015 -170.059)" fill="#00a79d" opacity="0.5" style="mix-blend-mode:multiply;isolation:isolate"/><path d="M200.21,263.413c-2.859-4.467-11.135-5.288-17.233-.852s-1.234,16.156-1.234,16.156c4.757,10.385,16.513,11,19.4,6.508S203.069,267.878,200.21,263.413Z" transform="translate(-146.163 -254.589)" fill="#ffbba6"/><path d="M190.33,270.394s-1,8.574,2.033,13.519a36.925,36.925,0,0,1-8.636-.16c-3.691-.672,1.22-16.049,1.22-16.049S188.829,267.71,190.33,270.394Z" transform="translate(-141.729 -239.946)" fill="#ffbba6"/><path d="M199.4,257.852a36.132,36.132,0,0,0-14.973,2.851,9.715,9.715,0,0,0-5.667,10.07c.773,6.457,3.3,13.241,5.881,16.949,3.39,4.863,12.968,6.2,14.149,3.43s-.588-5.831-2.463-7.388.349-5.592,1.819-4.405,2.21,5.836,3.559,4.506-4.788-9.828-.973-10.255c2.783-.312,4.948-2.516,6.37-5.15a16.775,16.775,0,0,0,1.9-6.019C209.535,257.239,202.78,257.99,199.4,257.852Z" transform="translate(-148.362 -257.83)" fill="#0b5f99"/><path d="M181.915,271.685a8,8,0,0,1,5.552-.781,52.4,52.4,0,0,1,6.739,2.226l1.555,4.571s-5.845-1.437-9.061-1.276S180.052,276.636,181.915,271.685Z" transform="translate(-143.474 -234.507)" fill="#a59c9a"/><path d="M175.046,295.549s2.094,7.8,3.146,9.46-1.155,1.054-2.392-1.063-1.5-.79-1.392-.056a45.506,45.506,0,0,1,.663,6.407c-.16,1.054-.782-.112-1.251-1.83S173,305.7,173,305.7s-.014,4.588-1.009,5.018-3.188-2.755-3.981-4.734,3.047-10.677,3.047-10.677Z" transform="translate(-167.902 -189.959)" fill="#ffbba6"/><path d="M208.88,276.467s5.164-6.837,7.427-9.162,6.528-4.914,7.107-4.31-2.943,3.126-3.553,4.152,1.743,1.735,2.741,3.9a4.562,4.562,0,0,1-2.252,5.656c-1.788.782-4.225.517-5.2,1.386s-2.851,2.283-2.851,2.283Z" transform="translate(-93.68 -248.636)" fill="#ffbba6"/><path d="M282.554,267.16c-5,4.377-9.421,9.246-14.543,13.438-2.564,2.091-5.145,4.163-7.728,6.1-1.288.978-2.595,1.92-3.846,2.755a19.367,19.367,0,0,1-1.794,1.119,4.447,4.447,0,0,1-.728.377.826.826,0,0,0-.242.031c-.281-.155-1.588.006-3.031-.138-1.358-.051-2.941-.228-4.456-.4-3.078-.349-6.286-.877-9.465-1.423-2.033-.36-21.141-7.666-24.93-8.321a12.313,12.313,0,0,0-2.747-.157c-8.006.447-13.365,2.089-16.547,5.046a9.165,9.165,0,0,0-1.771,1.7q-2.534,3.276-5.024,6.621a175.3,175.3,0,0,0-10.686,15.74,33.226,33.226,0,0,0-3.961,10,80.848,80.848,0,0,0-1.512,9.539,184.058,184.058,0,0,0-.871,18.532l5.653.489a177.016,177.016,0,0,1,4.265-17.2,71.156,71.156,0,0,1,2.929-7.953,20.867,20.867,0,0,1,3.995-6.112c1.071-1.206,2.229-2.418,3.419-3.627-.382,15.209-1.49,34.03-1.872,45.922,16.674,6.286,40.291,1.636,40.291,1.636s.259-27.862,2.977-38.163a113.8,113.8,0,0,0,3.042-16.319c.787-.031,1.56-.045,2.35-.081,3.48-.188,6.938-.391,10.531-.79,1.816-.214,3.573-.4,5.535-.773a28.3,28.3,0,0,0,6.781-1.909,21.534,21.534,0,0,0,1.954-1.161,14.369,14.369,0,0,0,1.327-1.043c.852-.683,1.479-1.316,2.151-1.957,1.321-1.282,2.525-2.539,3.694-3.815,2.356-2.539,4.577-5.1,6.778-7.675,4.391-5.156,8.636-10.351,12.839-15.625Z" transform="translate(-166.505 -240.931)" fill="#877f7d"/><path d="M192.331,267.811c-3.9.981-1.636,9.35-6.623,9.4-2.8.025-4.731.07-6.261-.534a33.41,33.41,0,0,0,3.823,8.077c3.39,4.863,12.968,6.2,14.149,3.43s-.588-5.831-2.463-7.388.349-5.592,1.819-4.405,2.21,5.836,3.559,4.506-4.788-9.828-.973-10.255c2.783-.312,4.948-2.516,6.37-5.15a16.775,16.775,0,0,0,1.9-6.019S205,267.516,192.331,267.811Z" transform="translate(-146.991 -254.86)" fill="#0b5f99" opacity="0.5" style="mix-blend-mode:multiply;isolation:isolate"/><path d="M245.748,288.639c-4.532,1.259-16.272,2.772-27.525,1.763-6.218,1.512-5.943,13.348-6.834,28.959s-1.729,15.735-6.1,17.185-3.941,3.969,0,4.473c3.806.486-4.093,10.778-30,6.292-.028.753-.053,1.49-.076,2.2,16.674,6.286,40.291,1.636,40.291,1.636s.259-27.862,2.977-38.163a113.8,113.8,0,0,0,3.042-16.319c.787-.031,1.56-.045,2.35-.081,3.48-.188,6.938-.391,10.531-.79,1.816-.214,3.573-.4,5.535-.773a28.3,28.3,0,0,0,6.781-1.909,21.522,21.522,0,0,0,1.954-1.161A14.374,14.374,0,0,0,250,290.905c.852-.683,1.479-1.316,2.151-1.957,1.321-1.282,2.525-2.539,3.694-3.815,2.356-2.539,4.577-5.1,6.778-7.675,1.392-1.636,2.749-3.284,4.118-4.928C265.652,273.509,250.123,287.425,245.748,288.639Z" transform="translate(-154.658 -231.203)" fill="#877f7d" opacity="0.5" style="mix-blend-mode:multiply;isolation:isolate"/><path d="M173.763,297.342c-1.032,3.573-2.589,24.52-2.589,24.52l.065-.121c.846-3.618,1.757-7.214,2.822-10.691a71.154,71.154,0,0,1,2.929-7.953,20.867,20.867,0,0,1,3.995-6.112c1.071-1.206,2.229-2.418,3.419-3.627,0,0,2.027-13.488,2.226-15.077S174.792,293.769,173.763,297.342Z" transform="translate(-161.975 -220.975)" fill="#877f7d" opacity="0.5" style="mix-blend-mode:multiply;isolation:isolate"/></g></g></svg>