<svg xmlns="http://www.w3.org/2000/svg" width="692.48" height="419.323" viewBox="0 0 692.48 419.323">
  <g id="paid-ads-illustration1" transform="translate(-147.332 -123.137)">
    <path id="Path_8925" data-name="Path 8925" d="M390.109,123.893c106.058-6.154,217.256,25.9,200.911,72.372s87.386-16.506,128.781.249c29.471,11.928,17.69,48.239,31.948,62.87,32.691,33.547,66.125-8.7,107.73,16.65S815.9,537.948,772.437,539.27l-495.753-3.012-35.576-3.2S142.7,479.249,213.1,429.606c47.6-33.566,13.35-57.94,8.173-73.307-5.944-17.643-19.812-48.457,40.616-71.071s44.826-71.816,43.34-82-21.173-73.176,84.885-79.33Z" transform="translate(-30.809)" fill="#9bc1f9" opacity="0.1"/>
    <g id="Group_2389" data-name="Group 2389" transform="translate(209.434 338.899)">
      <g id="Group_2382" data-name="Group 2382" transform="translate(14.052 12.106)">
        <path id="Path_8926" data-name="Path 8926" d="M483.733,1164.479c-11.4-17-14.164-37.924-14.473-52.483a140.239,140.239,0,0,1,2.093-27.854l-.79-.255a141.165,141.165,0,0,0-2.113,28.047c.309,14.7,3.1,35.841,14.645,53.052Z" transform="translate(-468.418 -1083.887)" fill="#3c8f7c"/>
      </g>
      <g id="Group_2383" data-name="Group 2383" transform="translate(12.803 0)">
        <path id="Path_8927" data-name="Path 8927" d="M469.888,1042.222a12.021,12.021,0,0,1-3.706,8.557,14.089,14.089,0,0,1-3.019-9.377,12.021,12.021,0,0,1,3.706-8.557A14.087,14.087,0,0,1,469.888,1042.222Z" transform="translate(-463.152 -1032.846)" fill="#3c8f7c"/>
      </g>
      <g id="Group_2384" data-name="Group 2384" transform="translate(4.851 12.348)">
        <path id="Path_8928" data-name="Path 8928" d="M437.318,1090.45a14.069,14.069,0,0,1,2.155,9.608,12.166,12.166,0,0,1-7.549-5.542,14.071,14.071,0,0,1-2.156-9.608A12.166,12.166,0,0,1,437.318,1090.45Z" transform="translate(-429.624 -1084.908)" fill="#3c8f7c"/>
      </g>
      <g id="Group_2385" data-name="Group 2385" transform="translate(0 26.004)">
        <path id="Path_8929" data-name="Path 8929" d="M417.933,1144.229a13.415,13.415,0,0,1,5.79,7.758,10.393,10.393,0,0,1-8.763-1.279,13.415,13.415,0,0,1-5.79-7.759A10.394,10.394,0,0,1,417.933,1144.229Z" transform="translate(-409.17 -1142.484)" fill="#3c8f7c"/>
      </g>
      <g id="Group_2386" data-name="Group 2386" transform="translate(1.423 37.696)">
        <ellipse id="Ellipse_179" data-name="Ellipse 179" cx="3.525" cy="6.808" rx="3.525" ry="6.808" transform="matrix(0.568, -0.823, 0.823, 0.568, 0, 5.803)" fill="#3c8f7c"/>
      </g>
      <g id="Group_2387" data-name="Group 2387" transform="translate(14.603 23.562)">
        <path id="Path_8930" data-name="Path 8930" d="M475.377,1133.5a8.918,8.918,0,0,1,7.763-.745,10.061,10.061,0,0,1-4.637,6.689,8.917,8.917,0,0,1-7.763.745A10.06,10.06,0,0,1,475.377,1133.5Z" transform="translate(-470.74 -1132.188)" fill="#3c8f7c"/>
      </g>
      <g id="Group_2388" data-name="Group 2388" transform="translate(14.656 32.911)">
        <path id="Path_8931" data-name="Path 8931" d="M475.6,1172.915a8.916,8.916,0,0,1,7.763-.745,10.059,10.059,0,0,1-4.637,6.689,8.917,8.917,0,0,1-7.763.745A10.059,10.059,0,0,1,475.6,1172.915Z" transform="translate(-470.965 -1171.607)" fill="#3c8f7c"/>
      </g>
    </g>
    <g id="Group_2398" data-name="Group 2398" transform="translate(147.332 423.659)">
      <g id="Group_2390" data-name="Group 2390" transform="translate(12.461 13.303)">
        <path id="Path_8932" data-name="Path 8932" d="M267.128,1524.424c-23.9-8.7-40.625-29.464-50.443-45.347a170.375,170.375,0,0,1-15.76-32.776l-1.056.421a171.566,171.566,0,0,0,15.863,33.008c9.911,16.041,26.806,37.013,51.007,45.825Z" transform="translate(-199.869 -1446.301)" fill="#96d9c9"/>
      </g>
      <g id="Group_2391" data-name="Group 2391" transform="translate(4.305)">
        <path id="Path_8933" data-name="Path 8933" d="M175.627,1397.929a17.28,17.28,0,0,1,1.391,12.8,14.942,14.942,0,0,1-9.5-7.716,17.278,17.278,0,0,1-1.391-12.8A14.943,14.943,0,0,1,175.627,1397.929Z" transform="translate(-165.482 -1390.213)" fill="#96d9c9"/>
      </g>
      <g id="Group_2392" data-name="Group 2392" transform="translate(0 22.351)">
        <path id="Path_8934" data-name="Path 8934" d="M159.441,1485.5a15.24,15.24,0,0,1,8.678,8.742,14.564,14.564,0,0,1-12.109.577,15.24,15.24,0,0,1-8.678-8.741A14.566,14.566,0,0,1,159.441,1485.5Z" transform="translate(-147.332 -1484.451)" fill="#96d9c9"/>
      </g>
      <g id="Group_2393" data-name="Group 2393" transform="translate(2.874 36.159)">
        <ellipse id="Ellipse_180" data-name="Ellipse 180" cx="11.236" cy="4.933" rx="11.236" ry="4.933" transform="matrix(0.99, -0.141, 0.141, 0.99, 0, 3.171)" fill="#96d9c9"/>
      </g>
      <g id="Group_2394" data-name="Group 2394" transform="translate(11.302 49.871)">
        <ellipse id="Ellipse_181" data-name="Ellipse 181" cx="11.236" cy="4.933" rx="11.236" ry="4.933" transform="translate(0 3.171) rotate(-8.113)" fill="#96d9c9"/>
      </g>
      <g id="Group_2395" data-name="Group 2395" transform="translate(21.987 19.16)">
        <path id="Path_8935" data-name="Path 8935" d="M240.063,1481.9a16.867,16.867,0,0,1,4.7-10.9,14.649,14.649,0,0,1,3.493,10.759,16.867,16.867,0,0,1-4.7,10.9A14.649,14.649,0,0,1,240.063,1481.9Z" transform="translate(-240.035 -1470.995)" fill="#96d9c9"/>
      </g>
      <g id="Group_2396" data-name="Group 2396" transform="translate(30.8 33.269)">
        <path id="Path_8936" data-name="Path 8936" d="M277.208,1541.471a16.928,16.928,0,0,1,4.546-10.987,14.578,14.578,0,0,1,3.653,10.686,16.927,16.927,0,0,1-4.546,10.988A14.58,14.58,0,0,1,277.208,1541.471Z" transform="translate(-277.193 -1530.484)" fill="#96d9c9"/>
      </g>
      <g id="Group_2397" data-name="Group 2397" transform="translate(33.707 64.882)">
        <path id="Path_8937" data-name="Path 8937" d="M292.8,1664.491a5.906,5.906,0,0,1,5.139-.242,6.807,6.807,0,0,1-3.354,4.245,5.9,5.9,0,0,1-5.139.242A6.808,6.808,0,0,1,292.8,1664.491Z" transform="translate(-289.447 -1663.773)" fill="#96d9c9"/>
      </g>
    </g>
    <path id="Path_8938" data-name="Path 8938" d="M394.086,1309.351s18.584-41.031,12.372-50.186c-8.586-12.653-19.262,26.173-19.783,22.761-4.917-32.227-3.888-72.873-26.886-79.032-13.073-3.5.864,30.356-.759,39.08s-23.371-22.421-36.765-38.9-21.6-7.386-13.831,12.6c7.508,19.33,34.705,41.98,28.617,43.918s-40.227-24.989-45.372-15.065c-6.309,12.168,46.281,33.646,41,36.069s-30.329-8.968-30.329.724,34.618,12.115,33.717,16.306c-1.458,6.786-23.2-10.588-24.9-1.172-1.737,9.63,29.52,10.361,28.428,17.893-.627,4.329-8.5-.2-9.924,5.749-3.247,13.57,46.008,32.585,46.008,32.585Z" transform="translate(-109.71 -817.286)" fill="#3c8f7c"/>
    <path id="Path_8939" data-name="Path 8939" d="M679.635,1716.16c7.478,3.5,5.461,12.2,5.461,12.2s20.275-15.831,27.854-6.591,3.6,27.352-5.294,30.3-86.211.881-86.211.881S672.909,1713.009,679.635,1716.16Z" transform="translate(-361.664 -1215.059)" fill="#96d9c9"/>
    <g id="Group_2409" data-name="Group 2409" transform="translate(219.87 413.47)">
      <g id="Group_2408" data-name="Group 2408" transform="translate(0)">
        <g id="Group_2399" data-name="Group 2399" transform="translate(16.101 14.002)">
          <path id="Path_8940" data-name="Path 8940" d="M550.075,1502.239l.716-.611c-16.244-19.79-23.181-44.6-26.14-61.92a171.3,171.3,0,0,1-2.555-33.24l-.985-.177a172.369,172.369,0,0,0,2.565,33.448C526.657,1457.213,533.658,1482.238,550.075,1502.239Z" transform="translate(-521.052 -1406.292)" fill="#50bfa5"/>
        </g>
        <g id="Group_2400" data-name="Group 2400" transform="translate(11.281)">
          <path id="Path_8941" data-name="Path 8941" d="M508.768,1358.292c.481,4.271-.624,7.961-2.76,10.331a19.175,19.175,0,0,1-5.167-11.037c-.481-4.271.624-7.961,2.759-10.332A19.175,19.175,0,0,1,508.768,1358.292Z" transform="translate(-500.73 -1347.255)" fill="#50bfa5"/>
        </g>
        <g id="Group_2401" data-name="Group 2401" transform="translate(3.258 14.692)">
          <path id="Path_8942" data-name="Path 8942" d="M476.628,1415.493a18.759,18.759,0,0,1,4.21,11.347,16.487,16.487,0,0,1-9.723-6.292,18.76,18.76,0,0,1-4.21-11.347A16.49,16.49,0,0,1,476.628,1415.493Z" transform="translate(-466.905 -1409.201)" fill="#50bfa5"/>
        </g>
        <g id="Group_2402" data-name="Group 2402" transform="translate(0 31.019)">
          <path id="Path_8943" data-name="Path 8943" d="M463.534,1479.888a18.783,18.783,0,0,1,8.085,9c-2.932,1.167-6.679.862-10.366-1.17a18.782,18.782,0,0,1-8.085-9C456.1,1477.551,459.847,1477.855,463.534,1479.888Z" transform="translate(-453.168 -1478.039)" fill="#50bfa5"/>
        </g>
        <g id="Group_2403" data-name="Group 2403" transform="translate(12.62 51.854)">
          <path id="Path_8944" data-name="Path 8944" d="M510.716,1566.461a7.83,7.83,0,0,1,3.63,3.539,5,5,0,0,1-4.338-.153,7.83,7.83,0,0,1-3.63-3.539A5.006,5.006,0,0,1,510.716,1566.461Z" transform="translate(-506.378 -1565.885)" fill="#50bfa5"/>
        </g>
        <g id="Group_2404" data-name="Group 2404" transform="translate(14.621 59.148)">
          <path id="Path_8945" data-name="Path 8945" d="M519.151,1597.213a7.832,7.832,0,0,1,3.63,3.539,5.006,5.006,0,0,1-4.339-.153,7.83,7.83,0,0,1-3.63-3.539A5.006,5.006,0,0,1,519.151,1597.213Z" transform="translate(-514.812 -1596.637)" fill="#50bfa5"/>
        </g>
        <g id="Group_2405" data-name="Group 2405" transform="translate(17.804 27.272)">
          <path id="Path_8946" data-name="Path 8946" d="M532.4,1463.99a9.73,9.73,0,0,1,8.849-1.2,10.418,10.418,0,0,1-4.17,8.146,9.731,9.731,0,0,1-8.849,1.2A10.42,10.42,0,0,1,532.4,1463.99Z" transform="translate(-528.233 -1462.24)" fill="#50bfa5"/>
        </g>
        <g id="Group_2406" data-name="Group 2406" transform="translate(19.535 38.396)">
          <path id="Path_8947" data-name="Path 8947" d="M539.7,1510.891a9.73,9.73,0,0,1,8.849-1.2,10.419,10.419,0,0,1-4.17,8.146,9.729,9.729,0,0,1-8.849,1.2A10.417,10.417,0,0,1,539.7,1510.891Z" transform="translate(-535.534 -1509.141)" fill="#50bfa5"/>
        </g>
        <g id="Group_2407" data-name="Group 2407" transform="translate(22.13 55.069)">
          <path id="Path_8948" data-name="Path 8948" d="M549.186,1580.578a6.334,6.334,0,0,1,5.759-.78,6.782,6.782,0,0,1-2.714,5.3,6.334,6.334,0,0,1-5.759.78A6.782,6.782,0,0,1,549.186,1580.578Z" transform="translate(-546.472 -1579.439)" fill="#50bfa5"/>
        </g>
      </g>
    </g>
    <path id="Path_8949" data-name="Path 8949" d="M422.493,1743.342s-23.748-30.49-33.675-35.161c-10.578-4.978-1.406,12.271-1.406,12.271s-22.618-22.219-27.931-16.671.36,10.74.36,10.74-18.94-3.519-21.7,3.576c-4.243,10.9,26.908,16.325,26.908,16.325s-14.923-3.275-11.937,3.475C357.614,1748.075,422.493,1743.342,422.493,1743.342Z" transform="translate(-145.25 -1205.072)" fill="#50bfa5"/>
    <path id="Path_8950" data-name="Path 8950" d="M339.418,1716.553c2.761-7.094,21.7-3.576,21.7-3.576s-5.672-5.192-.36-10.739,23.017,7.553,23.017,7.553-2.743-12.041,10.557-2.569c9.5,6.766,27.835,32,27.835,32Z" transform="translate(-146.527 -1203.529)" fill="#96d9c9"/>
    <g id="Group_2411" data-name="Group 2411" transform="translate(259.781 471.059)">
      <g id="Group_2410" data-name="Group 2410" transform="translate(0 0)">
        <path id="Path_8951" data-name="Path 8951" d="M621.445,1656.818s37.841,2.676,45.211-4.1.058-19.052.058-19.052S679.7,1623.4,679.5,1616.7s-8.663-3.3-8.663-3.3,14.338-18.462,10.938-21.974c-6.335-6.54-22.913,12.651-22.913,12.651s4.92-9.129-.271-10.578c-7.827-2.186-13.584,20.329-13.584,20.329s1.46-8.892-3.935-7.712C631.389,1608.23,621.445,1656.818,621.445,1656.818Z" transform="translate(-621.445 -1590.065)" fill="#50bfa5"/>
      </g>
    </g>
    <path id="Path_8952" data-name="Path 8952" d="M743.754,1676.012h-3.167l11.8-61.331,2.633.5Z" transform="translate(-452.548 -1137.784)" fill="#0e2e35"/>
    <path id="Path_8953" data-name="Path 8953" d="M2139.49,1386.552l3.055-7.408c2.37-5.448,8.435-8.05,13.547-5.811h0c12.881,5.642,18.481,21.346,12.508,35.076l-4.366,10.038a12.638,12.638,0,0,0,1.333,12.646,11.165,11.165,0,0,1,1.1,11.14l-2.3,5.292a21,21,0,0,1-13.094,11.722,12.738,12.738,0,0,0-7.906,7.168l-3.26,7.493c-3.6,8.284-12.825,12.24-20.6,8.836l-4.434-1.942c-7.771-3.4-11.15-12.879-7.546-21.163h0c5.827-9.9,5.363-17.3,3.3-22.312a30.089,30.089,0,0,1,.284-23.406l.46-1.059a29.72,29.72,0,0,1,18.135-16.468C2133.224,1395.269,2136.892,1392.523,2139.49,1386.552Z" transform="translate(-1494.179 -953.065)" fill="#50bfa5"/>
    <path id="Path_8954" data-name="Path 8954" d="M2012.856,1617.16c6.251-8.132,40.985-51.322,63.335-58.582,24.671-8.014,1.419,23.815,1.419,23.815s43.765-48.019,59.825-43.69c14.722,3.968,0,33.732,0,33.732s16.581-16.482,36.69-16.482c19.57,0-13.587,59.928-15.38,63.057Z" transform="translate(-1423.063 -1079.615)" fill="#96d9c9"/>
    <g id="Group_2414" data-name="Group 2414" transform="translate(681.511 421.237)">
      <g id="Group_2412" data-name="Group 2412" transform="translate(0 7.56)">
        <path id="Path_8955" data-name="Path 8955" d="M2439.7,1428.194c-17.881,28.022-30.909,60.538-38.371,93.608l-1.77-.02a302.183,302.183,0,0,1,38.766-93.141c4.149-6.506,8.629-14.223,16.4-16.761.15-.049.207.18.063.234C2447.7,1414.8,2443.586,1422.111,2439.7,1428.194Z" transform="translate(-2399.563 -1411.874)" fill="#3c8f7c"/>
      </g>
      <g id="Group_2413" data-name="Group 2413" transform="translate(5.836 42.827)">
        <path id="Path_8956" data-name="Path 8956" d="M2424.169,1635.289a363.472,363.472,0,0,1,73.382-74.667c.289-.219.678.286.387.51A359.71,359.71,0,0,0,2426,1635.3Z" transform="translate(-2424.169 -1560.568)" fill="#3c8f7c"/>
      </g>
      <path id="Path_8957" data-name="Path 8957" d="M2571.349,1389.119c.46.679,2.222,2.451,2.74,4.779a9.87,9.87,0,0,1,.087,4.875,10.624,10.624,0,0,0,2.717-4.718c.878-2.811.263-6.709-.829-8-1.887-2.92-5.183-3.215-5.824-1.8C2569.562,1385.661,2570.423,1387.574,2571.349,1389.119Z" transform="translate(-2529.574 -1382.618)" fill="#3c8f7c"/>
      <path id="Path_8958" data-name="Path 8958" d="M2562.967,1493.5c-.667-.475-2.4-2.278-4.707-2.843a9.781,9.781,0,0,0-4.856-.184,10.582,10.582,0,0,1,4.755-2.633c2.817-.826,6.69-.132,7.956.989,2.872,1.951,3.1,5.264,1.678,5.878C2566.378,1495.364,2564.489,1494.462,2562.967,1493.5Z" transform="translate(-2516.915 -1461.989)" fill="#3c8f7c"/>
      <path id="Path_8959" data-name="Path 8959" d="M2535.749,1539.724c-.667-.475-2.4-2.278-4.707-2.844a9.774,9.774,0,0,0-4.856-.183,10.579,10.579,0,0,1,4.754-2.633c2.818-.826,6.69-.132,7.956.99,2.872,1.951,3.1,5.264,1.678,5.878C2539.16,1541.585,2537.27,1540.683,2535.749,1539.724Z" transform="translate(-2496.152 -1497.247)" fill="#3c8f7c"/>
      <path id="Path_8960" data-name="Path 8960" d="M2632.837,1646.933c-.668-.475-2.4-2.278-4.708-2.843a9.772,9.772,0,0,0-4.856-.184,10.576,10.576,0,0,1,4.754-2.633c2.818-.826,6.69-.132,7.956.989,2.872,1.951,3.1,5.264,1.678,5.878C2636.247,1648.795,2634.358,1647.892,2632.837,1646.933Z" transform="translate(-2570.212 -1579.029)" fill="#3c8f7c"/>
      <path id="Path_8961" data-name="Path 8961" d="M2682.439,1603.086c-.668-.475-2.4-2.278-4.708-2.843a9.776,9.776,0,0,0-4.856-.184,10.585,10.585,0,0,1,4.754-2.633c2.818-.826,6.69-.132,7.956.99,2.872,1.95,3.1,5.263,1.679,5.878C2685.85,1604.947,2683.96,1604.045,2682.439,1603.086Z" transform="translate(-2608.05 -1545.581)" fill="#3c8f7c"/>
      <path id="Path_8962" data-name="Path 8962" d="M2531.313,1441.247c.562.6,2.58,2.069,3.457,4.285a9.877,9.877,0,0,1,.853,4.8,10.645,10.645,0,0,0,1.942-5.089c.426-2.914-.794-6.667-2.076-7.77-2.322-2.585-5.624-2.356-6.034-.856C2529.005,1438.115,2530.157,1439.868,2531.313,1441.247Z" transform="translate(-2498.572 -1422.341)" fill="#3c8f7c"/>
      <path id="Path_8963" data-name="Path 8963" d="M2487.854,1490.143c.8.425,3.59,1.2,4.994,3.292a8.522,8.522,0,0,1,1.685,4.99,14.12,14.12,0,0,0,1.9-6.517c.2-3.436-1.836-7.1-3.629-7.776-3.319-1.884-7.565-.2-7.914,1.646C2484.486,1487.642,2486.189,1489.1,2487.854,1490.143Z" transform="translate(-2464.605 -1458.804)" fill="#3c8f7c"/>
      <path id="Path_8964" data-name="Path 8964" d="M2443.693,1568.587c.859.284,3.74.573,5.474,2.4a8.514,8.514,0,0,1,2.5,4.635c-.124.16,1.446-3.369.778-6.744-.381-3.421-3-6.688-4.881-7.053-3.587-1.3-7.491,1.076-7.525,2.959C2439.954,1566.69,2441.877,1567.842,2443.693,1568.587Z" transform="translate(-2430.435 -1518.419)" fill="#3c8f7c"/>
      <path id="Path_8965" data-name="Path 8965" d="M2572.878,1629.214c.626.392,2.853,1.178,3.875,2.963a6.951,6.951,0,0,1,1.087,4.155,11.507,11.507,0,0,0,1.913-5.193c.356-2.784-1.09-5.879-2.51-6.533-2.593-1.721-6.142-.6-6.531.888C2570.281,1626.988,2571.583,1628.272,2572.878,1629.214Z" transform="translate(-2530.055 -1565.929)" fill="#3c8f7c"/>
      <path id="Path_8966" data-name="Path 8966" d="M2627.239,1414.192a7.547,7.547,0,0,0-2.661-1.889,5.8,5.8,0,0,0-2.864-.322,6.27,6.27,0,0,1,2.927-1.349,6.141,6.141,0,0,1,4.664.935c1.614,1.28,1.605,3.25.737,3.551C2629.176,1415.442,2628.1,1414.826,2627.239,1414.192Z" transform="translate(-2569.024 -1403.281)" fill="#3c8f7c"/>
      <path id="Path_8967" data-name="Path 8967" d="M2624.652,1382.909a7.6,7.6,0,0,1-.134,3.267,5.837,5.837,0,0,1-1.495,2.473,6.274,6.274,0,0,0,2.852-1.5,6.187,6.187,0,0,0,2.109-4.277c-.024-2.064-1.585-3.26-2.353-2.753C2624.847,1380.606,2624.675,1381.84,2624.652,1382.909Z" transform="translate(-2570.021 -1380.001)" fill="#3c8f7c"/>
      <path id="Path_8968" data-name="Path 8968" d="M2731.151,1565.983a7.541,7.541,0,0,0-2.661-1.888,5.8,5.8,0,0,0-2.864-.322,6.268,6.268,0,0,1,2.927-1.349,6.137,6.137,0,0,1,4.663.935c1.614,1.28,1.605,3.25.737,3.551C2733.087,1567.234,2732.009,1566.617,2731.151,1565.983Z" transform="translate(-2648.29 -1519.072)" fill="#3c8f7c"/>
      <path id="Path_8969" data-name="Path 8969" d="M2726.968,1534.066a7.6,7.6,0,0,1,.134,3.267,5.844,5.844,0,0,1-1.288,2.588,6.276,6.276,0,0,0,2.72-1.732,6.188,6.188,0,0,0,1.753-4.436c-.193-2.055-1.846-3.119-2.57-2.55C2726.975,1531.755,2726.9,1533,2726.968,1534.066Z" transform="translate(-2648.432 -1495.225)" fill="#3c8f7c"/>
    </g>
    <path id="Path_8970" data-name="Path 8970" d="M2644.015,1724.318a11.857,11.857,0,0,1,.418,5.09,9.142,9.142,0,0,1-1.844,4.121,9.8,9.8,0,0,0,4.133-2.879c1.841-2.008,2.859-5.519,2.451-7.034-.434-3.194-3.08-4.747-4.174-3.814C2643.876,1720.712,2643.846,1722.657,2644.015,1724.318Z" transform="translate(-1903.434 -1217.767)" fill="#3c8f7c"/>
    <path id="Path_8971" data-name="Path 8971" d="M2576.194,1748.684a11.851,11.851,0,0,1,.418,5.09,9.133,9.133,0,0,1-1.844,4.121,9.8,9.8,0,0,0,4.133-2.878c1.841-2.008,2.858-5.519,2.451-7.034-.434-3.194-3.08-4.747-4.173-3.814C2576.056,1745.078,2576.025,1747.023,2576.194,1748.684Z" transform="translate(-1851.698 -1236.354)" fill="#3c8f7c"/>
    <path id="Path_8972" data-name="Path 8972" d="M2507.283,1779.505a11.858,11.858,0,0,1,.418,5.09,9.133,9.133,0,0,1-1.844,4.121,9.8,9.8,0,0,0,4.133-2.879c1.841-2.008,2.859-5.519,2.451-7.034-.433-3.194-3.08-4.748-4.174-3.814C2507.145,1775.9,2507.115,1777.844,2507.283,1779.505Z" transform="translate(-1799.131 -1259.865)" fill="#3c8f7c"/>
    <path id="Path_8973" data-name="Path 8973" d="M2649,1782.657a10.937,10.937,0,0,0-2.523-3.985,8.39,8.39,0,0,0-3.651-2,9.033,9.033,0,0,1,4.646-.193c2.474.448,5.177,2.466,5.719,3.811,1.458,2.6.371,5.223-.954,5.148C2650.9,1785.392,2649.8,1783.976,2649,1782.657Z" transform="translate(-1903.614 -1261.026)" fill="#3c8f7c"/>
    <path id="Path_8974" data-name="Path 8974" d="M2578.454,1807.712a10.93,10.93,0,0,0-2.523-3.985,8.392,8.392,0,0,0-3.651-2,9.043,9.043,0,0,1,4.646-.193c2.474.449,5.177,2.467,5.719,3.812,1.457,2.6.371,5.223-.954,5.147C2580.358,1810.447,2579.254,1809.03,2578.454,1807.712Z" transform="translate(-1849.802 -1280.138)" fill="#3c8f7c"/>
    <path id="Path_8975" data-name="Path 8975" d="M2707.579,1765.648a7,7,0,0,0-2.109-2.168,5.376,5.376,0,0,0-2.556-.774,5.8,5.8,0,0,1,2.893-.737,5.692,5.692,0,0,1,4.093,1.635c1.257,1.438.921,3.231.079,3.359C2709.135,1767.113,2708.255,1766.37,2707.579,1765.648Z" transform="translate(-1949.453 -1250.134)" fill="#3c8f7c"/>
    <path id="Path_8976" data-name="Path 8976" d="M2706.586,1736.4a7.027,7.027,0,0,1-.667,2.955,5.4,5.4,0,0,1-1.775,2,5.8,5.8,0,0,0,2.849-.89,5.722,5.722,0,0,0,2.635-3.542c.322-1.885-.9-3.237-1.684-2.9C2707.147,1734.338,2706.785,1735.433,2706.586,1736.4Z" transform="translate(-1950.391 -1228.782)" fill="#3c8f7c"/>
    <path id="Path_8977" data-name="Path 8977" d="M2315.107,746.278a1.555,1.555,0,0,0,1.571-1.89c-.394-1.476-.764-2.959-1.143-4.439-.835-3.269-.969-3.372-.74-3.648.547-.659,1.867.109,2.326.436a18.352,18.352,0,0,0,3.024,2.232c2.267,1,4.515-.29,4.147-2.883-.337-2.374-.812-4.746-1.3-7.1,2.37,1.268,4.708,2.6,7.094,3.838a1.063,1.063,0,0,0,1.587-1.116l-1.252-10.3c-.064-.526-.652-2.946-.119-3.217.478-.243,2.067.753,2.447.929,2.1.973,2.855,1.287,9.76,4.3a1.244,1.244,0,0,0,1.587-1.457c-2.924-8.482-1.861-8.859-3.353-10.369a.589.589,0,0,0-.98.214c-.473,1-.514,1.277.378,5.174q.346,1.511.767,3c-8.316-3.813-10.321-4.972-12.076-3.374-1.218,1.11-.933,1.595.518,13.283-2.417-1.459-4.908-2.763-7.392-4.122a1.21,1.21,0,0,0-1.81,1.272c1.25,8.5,1.628,8.666,1.537,9.445,0,.021.421.261-.24,0-1.124-.447-2.748-2.756-5.032-3.158-2.01-.353-4.333.684-4.523,2.932-.111,1.306.218,1.878,1.305,6.676a31.35,31.35,0,0,0-7.425.2,4.876,4.876,0,0,0-2.718,1.123,1.3,1.3,0,0,0,.471,2.178C2306.141,747.047,2307.851,745.387,2315.107,746.278Z" transform="translate(-1644.119 -448.739)" fill="#f7cc7f"/>
    <path id="Path_8978" data-name="Path 8978" d="M2441,959.347a38.835,38.835,0,0,1,1.538-6.706c.14-.429.3-1.259.824-1.4,1.248-.34,2.286,1.941,6.073,4.032,1.643.907,4.961,2.927,6.436.8a13.917,13.917,0,0,0,1.323-3.954c.28-.954.6-1.9.9-2.844,6.025,3.813,5.535,4.087,7.219,3.88a.875.875,0,0,0,.693-1.018c-.452-1.607-.394-1.169-7.942-6.054a1.354,1.354,0,0,0-2.022.66c-.378,1.291-1.777,7.235-2.066,7.936-.053-.066-.386-.1-.454-.124-2.717-.913-4.73-2.594-6.916-4.363-1.791-1.45-4.559-2.291-5.976.131a27.058,27.058,0,0,0-1.956,6.6c-3.623-2.473-7.23-4.973-10.867-7.422a1.489,1.489,0,0,0-2.229.726c-.6,2.665-1.289,5.3-2,7.937a25.217,25.217,0,0,1-5.593-5.334c-1.168-1.516-3.679,0-.473,3.626a24.382,24.382,0,0,0,6.13,5.269,1.5,1.5,0,0,0,2.235-.729c.779-2.587,1.441-5.214,2.051-7.848,3.638,2.418,7.3,4.8,10.942,7.221A1.382,1.382,0,0,0,2441,959.347Z" transform="translate(-1730.545 -627.593)" fill="#f47458"/>
    <path id="Path_8979" data-name="Path 8979" d="M2428.131,1129.465a1.494,1.494,0,0,0,.847,1.82,32.909,32.909,0,0,0,10.9,3.653c2.019.244,2.184-2.82.244-3.176a39.951,39.951,0,0,1-8.99-2.561,31.887,31.887,0,0,1,2.843-6.266,1.538,1.538,0,0,0-.724-2.26c-2.394-.641-11.53-2.793-11.638-2.72a.488.488,0,0,0,.065-.241c.109-1.009,1.777-4.044,2.146-5.549.413-1.689-1.618-2.952-2.921-3.48-2.641-1.071-6.239-.006-8.573-1.85-2.245-1.773,1.809-4.915.685-8.648-.866-2.877-3.8-2.964-8.345-3.415-1.115-.111-2.2-.206-3.045.673a.764.764,0,0,0-.171.879c.934,1.586,2.647,1.506,6.766,2.026.525.066,1.457.021,1.792.522,1.115,1.672-2.061,4.407-1.155,7.781.706,2.628,3.32,3.851,5.726,4.262,1.885.322,4.447-.069,6.1,1.138-.573,1.55-1.191,3.1-1.641,4.684a2.9,2.9,0,0,0,1.725,3.852,48.171,48.171,0,0,0,5.887,1.542c1.306.325,2.611.654,3.92.968A36.04,36.04,0,0,0,2428.131,1129.465Z" transform="translate(-1719.436 -741.131)" fill="#3cb4c5"/>
    <path id="Path_8980" data-name="Path 8980" d="M2126.077,638.72c-7.764-11.481-15.254-5.459-13.339-1.082a2.98,2.98,0,0,0,4.674,1.309,1.223,1.223,0,0,0-.69-2.118c-.875.012-.793-.953.16-1.052,1.285-.133,2.427,1.12,3.257,1.936,1.938,1.9,4.479,4.345,4.011,7.347-.7,4.479-6.432,7.731-12.173,3.289-8.28-6.407-3.277-21.585,7.4-21.173a14.663,14.663,0,0,1,12.922,9.672c.389,1.061,1.848.388,1.758-.586-.685-7.382-8.354-12.4-15.4-12.066-7.229.343-12.545,6.274-13.553,13.236-1.057,7.3,3.192,14.9,10.712,16.326C2124.067,655.322,2131.506,646.747,2126.077,638.72Z" transform="translate(-1493.312 -382.207)" fill="#3cb4c5"/>
    <path id="Path_8981" data-name="Path 8981" d="M2400.221,1297.855c-1.327-1.67-4.57-3.42-6.375-1.474a1.98,1.98,0,0,0,.177,3.072c1.089.755,2.406.442,3.005,1.835.514,1.195-.376,2.425-1.36,3.066-3,1.954-7.5-.258-9.722-2.5a6.716,6.716,0,0,1,2.938-11.347,15.086,15.086,0,0,1,5.123-.081c.95.057,1.8-1.222,1-1.976-3.069-2.9-8.22-1.884-11.274.55a10.749,10.749,0,0,0-3.378,11.078c1.234,4.362,5.381,7.585,9.616,8.8C2398.77,1311.385,2404.521,1303.266,2400.221,1297.855Z" transform="translate(-1703.101 -887.578)" fill="#3c8f7c"/>
    <g id="Group_2415" data-name="Group 2415" transform="translate(222.419 273.554)">
      <path id="Path_8982" data-name="Path 8982" d="M577.131,939.224a34.444,34.444,0,0,0-3.1-16.487c-2.158-4.525-7.5-7.093-12.367-7.1-15.462-.02-17.428,20.567-27.271,28.507-3.007,2.426-6.369,4.4-9.215,7.02-10.508,9.662-5.775,27.548,3.874,36.019,6.7,5.878,17.219,9.218,25.472,4.623a26.076,26.076,0,0,0,9.908-10.755c3.307-6.2,5.438-13.354,7.79-19.963C574.724,954.055,576.822,946.733,577.131,939.224Z" transform="translate(-506.105 -878.091)" fill="#0e2e35"/>
      <path id="Path_8983" data-name="Path 8983" d="M501.784,820.8s-11.356-20.425-14.119-24.766-9.96-21.595-10.218-22.275,4.957-8.845,3.793-9.124-2.451,4.3-3.693,3.757-4.869-11.583-5.576-11.036c-1.324,1.024,1.955,6.846,1.249,7.213s-2.844-6.4-4.23-6.206,2.636,6.207,2.248,6.737-4.563-5.13-5.318-3.923c-.41.655,3.839,4.941,3.023,5.342s-4.6-2.365-5-1.567,3.5,1.89,4.661,4.041,3.149,3.08,3.973,7.063,2.055,18.395,6.276,25.585,13.5,23.1,13.5,23.1Z" transform="translate(-463.918 -757.333)" fill="#f79c8d"/>
      <path id="Path_8984" data-name="Path 8984" d="M778.965,1221.806l-17.657-13.515s-1.776-12.608-4.154-23.8c-2.979.845-5.668,3.189-8.651,4.007l4.49,25.056,23.142,11.979,6.537,8.429,1.487-8.653Z" transform="translate(-681.006 -1083.18)" fill="#f48c7f"/>
      <path id="Path_8985" data-name="Path 8985" d="M741.124,1085.145c-4.83-14.7-10.23-14.074-10.23-14.074l4.176,30.906c2.983-.818,6.866-2.64,9.845-3.484A135.068,135.068,0,0,0,741.124,1085.145Z" transform="translate(-667.573 -996.656)" fill="#f7cc7f"/>
      <path id="Path_8986" data-name="Path 8986" d="M539.87,1781.905s-1.089,7.6-2.964,10.051a19.4,19.4,0,0,0-2.532,3.352c-1.174,2.316-.525,5.763.341,7.661.444.974-.031.971.981,1.286a6.207,6.207,0,0,0,7.463-3.524,17.979,17.979,0,0,0,1.464-6.475c.32-6.9,2.454-10.407,2.454-10.407Z" transform="translate(-517.178 -1538.899)" fill="#f7a491"/>
      <path id="Path_8987" data-name="Path 8987" d="M693.84,1796.559s.673,8.569.127,11.354c-.292,1.491-1.92,4.561-1.174,5.964a3.759,3.759,0,0,0,1.6,1.754l19.354.314c1.054.017.357-.665-.493-1.294-1.391-1.029-2.514-1.709-6.959-3.871-.29-.141-1.345-.816-1.726-1.05a13.408,13.408,0,0,1-2.768-2.459c-1.39-1.556-1.511-9.1-1.511-9.1Z" transform="translate(-638.361 -1550.078)" fill="#f7a491"/>
      <path id="Path_8988" data-name="Path 8988" d="M702.153,1309.431s2.437,13.912.837,23.033-9.281,93.663-9.281,93.663l-8.535.484s-1.789-35.315-1.469-40.226,2.853-13.13,2.853-13.13l-.849-28.513,10.771-37.458Z" transform="translate(-631.547 -1176.848)" fill="#13375b"/>
      <path id="Path_8989" data-name="Path 8989" d="M579,1293.846s-6.72,10.173-8.321,18.593,1.174,34.293-1.9,45.326c-1.666,5.973-7.982,15.2-8.942,22.913s-4.726,27.933-4.726,27.933l8.531,1.7,19.827-50.487,15.552-45.633,3.984-23.5Z" transform="translate(-533.478 -1164.189)" fill="#355389"/>
      <path id="Path_8990" data-name="Path 8990" d="M636.664,1059.861s-8.9-.57-12.419,3.289,7.809,34.384,8.449,39.3-3.263,17.97-3.263,17.97,20.9,4.23,26.877.254c0,0,.64-35.315,0-38.824s-5.974-17.775-7.254-19.178S636.664,1059.861,636.664,1059.861Z" transform="translate(-585.703 -988.085)" fill="#fae0b2"/>
      <path id="Path_8991" data-name="Path 8991" d="M680.775,1008.9s-.046.264-.129.712c-.4,2.151-1.924,9.289-2.956,11.251-1.247,2.371,4.27,9.934,9.58,9.011,1.581-.275-1.336-6.949-1.2-7.656.268-1.353.632-3.2,1-5.092l.623-3.168c.568-2.892,1.031-5.257,1.031-5.257Z" transform="translate(-626.851 -949.081)" fill="#f7a491"/>
      <path id="Path_8992" data-name="Path 8992" d="M689.951,1009.61c.083-.448.129-.712.129-.712l7.958-.2s-.463,2.365-1.031,5.257l-.619,3.151a7.439,7.439,0,0,1-3.8-1.916,10.1,10.1,0,0,1-2.878-4.3C689.808,1010.38,689.89,1009.944,689.951,1009.61Z" transform="translate(-636.157 -949.081)" fill="#f47458"/>
      <path id="Path_8993" data-name="Path 8993" d="M685.8,932.775a7.149,7.149,0,0,0-6.1,2.622c-2.351,3.058-4.885,12.515.955,17.656s11.611-.678,12.466-6.849S694.3,932.552,685.8,932.775Z" transform="translate(-626.517 -891.148)" fill="#f7a491"/>
      <path id="Path_8994" data-name="Path 8994" d="M741.707,978.239c-.7,1.363-1.867,2.117-2.614,1.685s-.786-1.887-.089-3.25,1.867-2.118,2.614-1.686S742.4,976.876,741.707,978.239Z" transform="translate(-673.38 -923.273)" fill="#f7a491"/>
      <path id="Path_8995" data-name="Path 8995" d="M674.933,928.274s-5.011,8.993-8.6,9.409-4.056,5.194-4.056,5.194,1.282-11.011,4.83-13.135A13.118,13.118,0,0,1,674.933,928.274Z" transform="translate(-615.234 -887.658)" fill="#0e2e35"/>
      <path id="Path_8996" data-name="Path 8996" d="M541.626,1842.236c-4.65.853-7.743-1.882-9.353-3.93-1.182,2.32-1.758,5.781-.889,7.687.765,1.678,3,1.63,4.764,1.7a4.6,4.6,0,0,0,4.228-2.6A15.623,15.623,0,0,0,541.626,1842.236Z" transform="translate(-515.063 -1581.923)" fill="#b75742"/>
      <path id="Path_8997" data-name="Path 8997" d="M704.429,1850.681a17.428,17.428,0,0,1-11.019-.436c-.546,1.556-1.269,3.508-.886,4.633.47,1.378,1.139,1.689,1.73,1.705,4.675.124,17.125.292,20.69.338a.586.586,0,0,0,.453-.963C714.513,1854.9,704.81,1850.916,704.429,1850.681Z" transform="translate(-638.222 -1591.031)" fill="#b75742"/>
      <path id="Path_8998" data-name="Path 8998" d="M671.284,969.617c.291,1.6-.295,3.061-1.31,3.271s-2.074-.915-2.365-2.512.295-3.062,1.31-3.271S670.993,968.02,671.284,969.617Z" transform="translate(-619.241 -917.333)" fill="#f7a491"/>
      <path id="Path_8999" data-name="Path 8999" d="M581.651,997.005s12.562,13.584,14.429,19.059-1.821,13.306-6.914,13.648-16.428-24.111-16.428-24.111Z" transform="translate(-546.928 -940.16)" fill="#f7cc7f"/>
    </g>
    <g id="Group_2432" data-name="Group 2432" transform="translate(468.992 293.304)">
      <rect id="Rectangle_690" data-name="Rectangle 690" width="174.143" height="244.446" rx="37.794" transform="translate(0 0)" fill="#f7cc7f"/>
      <rect id="Rectangle_691" data-name="Rectangle 691" width="144.425" height="37.29" transform="translate(15.68 20.106)" fill="#3cb4c5"/>
      <path id="Path_9000" data-name="Path 9000" d="M1573.474,930.742h140.593v-5.368H1569.643v37.29h3.832Z" transform="translate(-1553.962 -905.268)" fill="#3cb4c5" opacity="0.5" style="mix-blend-mode: multiply;isolation: isolate"/>
      <path id="Rectangle_692" data-name="Rectangle 692" d="M2.905,0h35.63a2.906,2.906,0,0,1,2.906,2.906v7.623a2.905,2.905,0,0,1-2.905,2.905H2.906A2.906,2.906,0,0,1,0,10.528V2.905A2.905,2.905,0,0,1,2.905,0Z" transform="translate(15.68 68.034)" fill="#f47458"/>
      <rect id="Rectangle_693" data-name="Rectangle 693" width="41.44" height="13.434" rx="2.905" transform="translate(67.173 68.034)" fill="#f47458"/>
      <rect id="Rectangle_694" data-name="Rectangle 694" width="41.44" height="13.434" rx="2.905" transform="translate(118.665 68.034)" fill="#f47458"/>
      <rect id="Rectangle_695" data-name="Rectangle 695" width="32.07" height="30.117" rx="6.514" transform="translate(15.68 92.106)" fill="#f47458"/>
      <path id="Rectangle_696" data-name="Rectangle 696" d="M6.514,0H25.557A6.514,6.514,0,0,1,32.07,6.514V23.6a6.515,6.515,0,0,1-6.515,6.515H6.514A6.514,6.514,0,0,1,0,23.6V6.514A6.514,6.514,0,0,1,6.514,0Z" transform="translate(53.132 92.106)" fill="#fae0b2"/>
      <path id="Rectangle_697" data-name="Rectangle 697" d="M6.514,0H25.557A6.514,6.514,0,0,1,32.07,6.514V23.6a6.515,6.515,0,0,1-6.515,6.515H6.514A6.514,6.514,0,0,1,0,23.6V6.514A6.514,6.514,0,0,1,6.514,0Z" transform="translate(90.583 92.106)" fill="#fae0b2"/>
      <path id="Rectangle_698" data-name="Rectangle 698" d="M6.515,0H25.556A6.515,6.515,0,0,1,32.07,6.515V23.6a6.514,6.514,0,0,1-6.514,6.514H6.514A6.514,6.514,0,0,1,0,23.6V6.515A6.515,6.515,0,0,1,6.515,0Z" transform="translate(15.68 129.235)" fill="#f47458"/>
      <path id="Rectangle_699" data-name="Rectangle 699" d="M6.515,0H25.556A6.515,6.515,0,0,1,32.07,6.515V23.6a6.515,6.515,0,0,1-6.515,6.515H6.514A6.514,6.514,0,0,1,0,23.6V6.515A6.515,6.515,0,0,1,6.515,0Z" transform="translate(53.132 129.235)" fill="#fae0b2"/>
      <path id="Rectangle_700" data-name="Rectangle 700" d="M6.515,0H25.557A6.514,6.514,0,0,1,32.07,6.514V23.6a6.514,6.514,0,0,1-6.514,6.514H6.514A6.514,6.514,0,0,1,0,23.6V6.515A6.515,6.515,0,0,1,6.515,0Z" transform="translate(90.583 129.235)" fill="#fae0b2"/>
      <path id="Path_9001" data-name="Path 9001" d="M2068.892,1228.943h-19a6.545,6.545,0,0,0-6.533,6.556v54.135a6.545,6.545,0,0,0,6.533,6.556h19a6.545,6.545,0,0,0,6.533-6.556V1235.5A6.545,6.545,0,0,0,2068.892,1228.943Z" transform="translate(-1915.321 -1136.837)" fill="#fae0b2"/>
      <rect id="Rectangle_701" data-name="Rectangle 701" width="32.07" height="30.117" rx="6.514" transform="translate(15.68 166.364)" fill="#f47458"/>
      <rect id="Rectangle_702" data-name="Rectangle 702" width="32.07" height="30.117" rx="6.514" transform="translate(53.132 166.364)" fill="#fae0b2"/>
      <rect id="Rectangle_703" data-name="Rectangle 703" width="32.07" height="30.117" rx="6.514" transform="translate(90.583 166.364)" fill="#fae0b2"/>
      <path id="Rectangle_704" data-name="Rectangle 704" d="M6.514,0H25.556A6.515,6.515,0,0,1,32.07,6.515V23.6a6.514,6.514,0,0,1-6.514,6.514H6.514A6.514,6.514,0,0,1,0,23.6V6.514A6.514,6.514,0,0,1,6.514,0Z" transform="translate(128.035 166.364)" fill="#fae0b2"/>
      <rect id="Rectangle_705" data-name="Rectangle 705" width="32.07" height="30.117" rx="6.514" transform="translate(15.68 203.493)" fill="#f47458"/>
      <rect id="Rectangle_706" data-name="Rectangle 706" width="32.07" height="30.117" rx="6.514" transform="translate(53.132 203.493)" fill="#fae0b2"/>
      <rect id="Rectangle_707" data-name="Rectangle 707" width="32.07" height="30.117" rx="6.514" transform="translate(90.583 203.493)" fill="#fae0b2"/>
      <rect id="Rectangle_708" data-name="Rectangle 708" width="32.07" height="30.117" rx="6.514" transform="translate(128.035 203.493)" fill="#e87b50"/>
      <g id="Group_2416" data-name="Group 2416" transform="translate(26.48 173.509)">
        <path id="Path_9002" data-name="Path 9002" d="M1625.9,1572.16v1.522l-7.4,15.541h-2.381l7.377-15.094v-.052h-8.319v-1.916Z" transform="translate(-1615.174 -1572.16)" fill="#fff"/>
      </g>
      <g id="Group_2417" data-name="Group 2417" transform="translate(63.552 173.22)">
        <path id="Path_9003" data-name="Path 9003" d="M1771.482,1583.963c0-2.152,1.282-3.675,3.375-4.568l-.026-.078a4.226,4.226,0,0,1-2.695-3.833c0-2.7,2.276-4.541,5.259-4.541,3.3,0,4.945,2.074,4.945,4.2a4.335,4.335,0,0,1-2.8,3.99v.079c2.119.84,3.427,2.336,3.427,4.41,0,2.966-2.538,4.961-5.782,4.961C1773.627,1588.583,1771.482,1586.457,1771.482,1583.963Zm9.157-.105c0-2.074-1.439-3.071-3.741-3.728-1.988.578-3.061,1.89-3.061,3.518a3.15,3.15,0,0,0,3.4,3.255A3.081,3.081,0,0,0,1780.639,1583.858Zm-6.331-8.531c0,1.707,1.282,2.625,3.244,3.15a3.359,3.359,0,0,0,2.59-3.1,2.648,2.648,0,0,0-2.878-2.782A2.708,2.708,0,0,0,1774.308,1575.327Z" transform="translate(-1771.482 -1570.943)" fill="#fff"/>
      </g>
      <g id="Group_2418" data-name="Group 2418" transform="translate(63.526 209.893)">
        <path id="Path_9004" data-name="Path 9004" d="M1782.91,1734.2c0,5.8-2.145,9-5.912,9-3.323,0-5.573-3.124-5.625-8.768,0-5.722,2.459-8.873,5.912-8.873C1780.87,1725.564,1782.91,1728.766,1782.91,1734.2Zm-9.235.262c0,4.436,1.36,6.956,3.453,6.956,2.354,0,3.479-2.756,3.479-7.114,0-4.2-1.073-6.956-3.453-6.956C1775.14,1727.349,1773.675,1729.816,1773.675,1734.463Z" transform="translate(-1771.373 -1725.564)" fill="#fff"/>
      </g>
      <g id="Group_2419" data-name="Group 2419" transform="translate(101.646 173.22)">
        <path id="Path_9005" data-name="Path 9005" d="M1933.535,1586.667a9.565,9.565,0,0,0,1.858-.079,6.406,6.406,0,0,0,3.558-1.654,7.5,7.5,0,0,0,2.25-4.541h-.079a5.1,5.1,0,0,1-9.026-3.386,5.841,5.841,0,0,1,5.808-6.064c3.48,0,5.625,2.835,5.625,7.193,0,3.754-1.256,6.379-2.93,8.006a8.489,8.489,0,0,1-4.944,2.284,10.705,10.705,0,0,1-2.12.131Zm.837-9.818c0,2.126,1.282,3.622,3.27,3.622a3.8,3.8,0,0,0,3.349-1.785,1.53,1.53,0,0,0,.209-.84c0-2.913-1.073-5.145-3.479-5.145C1935.758,1572.7,1934.372,1574.434,1934.372,1576.849Z" transform="translate(-1932.096 -1570.943)" fill="#fff"/>
      </g>
      <g id="Group_2420" data-name="Group 2420" transform="translate(25.381 135.653)">
        <path id="Path_9006" data-name="Path 9006" d="M1618.442,1429.614v-4.646h-7.9v-1.522l7.587-10.894h2.485v10.605h2.381v1.811h-2.381v4.646Zm0-6.458v-5.7q0-1.339.078-2.677h-.078c-.523,1-.942,1.733-1.413,2.52l-4.16,5.8v.053Z" transform="translate(-1610.541 -1412.551)" fill="#fff"/>
      </g>
      <g id="Group_2421" data-name="Group 2421" transform="translate(63.683 135.653)">
        <path id="Path_9007" data-name="Path 9007" d="M1782.263,1414.493h-6.488l-.654,4.384a9.064,9.064,0,0,1,1.387-.1,7.167,7.167,0,0,1,3.662.919,4.866,4.866,0,0,1,2.433,4.384c0,3.334-2.642,5.828-6.331,5.828a8.3,8.3,0,0,1-4.238-1.05l.576-1.759a7.59,7.59,0,0,0,3.636.946,3.757,3.757,0,0,0,4.029-3.7c-.026-2.205-1.491-3.78-4.892-3.78a17.469,17.469,0,0,0-2.354.184l1.1-8.19h8.136Z" transform="translate(-1772.034 -1412.551)" fill="#fff"/>
      </g>
      <g id="Group_2422" data-name="Group 2422" transform="translate(101.463 135.391)">
        <path id="Path_9008" data-name="Path 9008" d="M1941.317,1413.334a8.286,8.286,0,0,0-1.727.1,6.924,6.924,0,0,0-5.913,6.064h.079a5.061,5.061,0,0,1,4.107-1.969c3.009,0,5.128,2.179,5.128,5.513,0,3.124-2.119,6.011-5.651,6.011-3.637,0-6.017-2.835-6.017-7.271a10.747,10.747,0,0,1,2.878-7.691,9.242,9.242,0,0,1,5.442-2.52,11.007,11.007,0,0,1,1.674-.131Zm-.654,9.844c0-2.441-1.387-3.911-3.506-3.911a3.787,3.787,0,0,0-3.3,2.1,1.968,1.968,0,0,0-.262,1.024c.052,2.809,1.334,4.883,3.741,4.883C1939.329,1427.273,1940.663,1425.619,1940.663,1423.178Z" transform="translate(-1931.323 -1411.444)" fill="#fff"/>
      </g>
      <g id="Group_2423" data-name="Group 2423" transform="translate(27.709 99.375)">
        <path id="Path_9009" data-name="Path 9009" d="M1623.811,1261.745h-.052l-2.956,1.6-.445-1.759,3.715-1.995h1.962v17.063h-2.224Z" transform="translate(-1620.358 -1259.593)" fill="#fff"/>
      </g>
      <g id="Group_2424" data-name="Group 2424" transform="translate(63.762 99.086)">
        <path id="Path_9010" data-name="Path 9010" d="M1772.365,1275.727v-1.417l1.805-1.759c4.343-4.148,6.305-6.353,6.331-8.925a3.039,3.039,0,0,0-3.375-3.334,5.779,5.779,0,0,0-3.61,1.444l-.733-1.628a7.447,7.447,0,0,1,4.814-1.733c3.663,0,5.206,2.52,5.206,4.961,0,3.15-2.276,5.7-5.86,9.162l-1.36,1.26v.052h7.639v1.916Z" transform="translate(-1772.365 -1258.375)" fill="#fff"/>
      </g>
      <g id="Group_2425" data-name="Group 2425" transform="translate(101.673 99.086)">
        <path id="Path_9011" data-name="Path 9011" d="M1932.834,1273.075a7.669,7.669,0,0,0,3.767,1.077c2.957,0,3.872-1.89,3.846-3.308-.026-2.389-2.171-3.412-4.4-3.412h-1.282V1265.7h1.282c1.674,0,3.793-.866,3.793-2.887,0-1.365-.863-2.573-2.982-2.573a6.232,6.232,0,0,0-3.4,1.129l-.6-1.68a8.067,8.067,0,0,1,4.448-1.312c3.349,0,4.866,1.995,4.866,4.069a4.235,4.235,0,0,1-3.139,4.016v.052a4.44,4.44,0,0,1,3.793,4.384c0,2.73-2.119,5.119-6.2,5.119a8.622,8.622,0,0,1-4.421-1.155Z" transform="translate(-1932.206 -1258.375)" fill="#fff"/>
      </g>
      <g id="Group_2426" data-name="Group 2426" transform="translate(29.665 222.937)">
        <ellipse id="Ellipse_182" data-name="Ellipse 182" cx="2.051" cy="2.058" rx="2.051" ry="2.058" fill="#fff"/>
      </g>
      <g id="Group_2427" data-name="Group 2427" transform="translate(131.887 115.983)">
        <path id="Path_9012" data-name="Path 9012" d="M2083.964,1340.449h-10.795v-10.832h-2.776v10.832H2059.6v2.785h10.795v10.832h2.776v-10.832h10.795Z" transform="translate(-2059.599 -1329.617)" fill="#fff"/>
      </g>
      <g id="Group_2428" data-name="Group 2428" transform="translate(99.434 212.019)">
        <path id="Path_9013" data-name="Path 9013" d="M1937.136,1747.469l-5.715-5.735,5.715-5.735-1.47-1.475-5.715,5.735-5.715-5.735-1.469,1.475,5.715,5.735-5.715,5.735,1.469,1.475,5.715-5.735,5.715,5.735Z" transform="translate(-1922.767 -1734.525)" fill="#fff"/>
      </g>
      <g id="Group_2429" data-name="Group 2429" transform="translate(134.364 180.831)">
        <rect id="Rectangle_709" data-name="Rectangle 709" width="18.078" height="2.778" fill="#fff"/>
      </g>
      <g id="Group_2430" data-name="Group 2430" transform="translate(135.031 212.935)">
        <rect id="Rectangle_710" data-name="Rectangle 710" width="18.078" height="2.778" fill="#fff"/>
      </g>
      <g id="Group_2431" data-name="Group 2431" transform="translate(135.031 219.928)">
        <rect id="Rectangle_711" data-name="Rectangle 711" width="18.078" height="2.778" fill="#fff"/>
      </g>
    </g>
    <path id="Path_9014" data-name="Path 9014" d="M1046.444,267.26h0l-.047-.016c-.444-.16-.9-.3-1.352-.435-.156-.045-.311-.092-.468-.133s-.332-.083-.5-.123-.338-.081-.509-.118-.323-.066-.485-.1q-.272-.052-.547-.1-.234-.038-.469-.073c-.2-.028-.4-.053-.6-.076-.145-.017-.29-.034-.436-.048-.228-.022-.458-.038-.688-.053-.121-.008-.241-.018-.363-.024-.354-.017-.709-.027-1.067-.027H874.873q-.573,0-1.138.029a22.191,22.191,0,0,0-2.23.227q-.549.084-1.089.2a22.183,22.183,0,0,0-17.548,19.475,22.483,22.483,0,0,0-.114,2.269v336.4a22.2,22.2,0,0,0,14.593,20.875h0c.037.014.076.025.114.039.422.151.851.286,1.284.411.156.046.312.092.469.134s.332.083.5.122.338.081.509.118.323.066.485.1q.273.052.548.1c.156.026.312.05.468.073.2.028.4.053.6.076.145.017.29.034.436.048.228.022.458.038.688.052.121.008.241.018.363.024.354.017.709.027,1.067.027h164.043a22.172,22.172,0,0,0,22.12-22.2v-336.4A22.2,22.2,0,0,0,1046.444,267.26Z" transform="translate(-538.111 -108.934)" fill="#f47458"/>
    <rect id="Rectangle_712" data-name="Rectangle 712" width="186.837" height="320.289" transform="translate(325.365 187.257)" fill="#f3fcff"/>
    <rect id="Rectangle_713" data-name="Rectangle 713" width="79.949" height="4.013" rx="0.868" transform="translate(378.961 173.178)" fill="#fff"/>
    <ellipse id="Ellipse_183" data-name="Ellipse 183" cx="9.176" cy="9.207" rx="9.176" ry="9.207" transform="translate(409.5 513.77)" fill="#daeef7" opacity="0.3"/>
    <rect id="Rectangle_714" data-name="Rectangle 714" width="186.837" height="13.438" transform="translate(325.365 494.108)" fill="#3cb4c5" opacity="0.2"/>
    <rect id="Rectangle_715" data-name="Rectangle 715" width="186.837" height="16.997" transform="translate(325.365 187.257)" fill="#3cb4c5" opacity="0.2"/>
    <g id="Group_2433" data-name="Group 2433" transform="translate(183.922 177.662)">
      <path id="Path_9015" data-name="Path 9015" d="M502.263,426.513H340A10.166,10.166,0,0,0,329.852,436.7v67.19A10.166,10.166,0,0,0,340,514.069H467.75c5.17,7.239,14.544,20.2,15.372,20.2.775,0-.717-12.245-1.768-20.2h20.91a10.166,10.166,0,0,0,10.149-10.183V436.7A10.166,10.166,0,0,0,502.263,426.513Z" transform="translate(-323.152 -409.084)" fill="#daeef7" opacity="0.3" style="mix-blend-mode: multiply;isolation: isolate"/>
      <path id="Path_9016" data-name="Path 9016" d="M474.017,353.029H311.754A10.166,10.166,0,0,0,301.6,363.212V430.4a10.166,10.166,0,0,0,10.149,10.183H439.5c5.17,7.239,14.544,20.2,15.372,20.2.775,0-.717-12.245-1.768-20.2h20.91A10.166,10.166,0,0,0,484.165,430.4v-67.19A10.166,10.166,0,0,0,474.017,353.029Z" transform="translate(-301.605 -353.029)" fill="#9bc1f9"/>
      <rect id="Rectangle_716" data-name="Rectangle 716" width="80.002" height="4.436" rx="0.959" transform="translate(16.78 21.785)" fill="#fff"/>
      <path id="Rectangle_717" data-name="Rectangle 717" d="M.959,0H33.5a.959.959,0,0,1,.959.959V3.476a.96.96,0,0,1-.96.96H.959A.959.959,0,0,1,0,3.476V.959A.959.959,0,0,1,.959,0Z" transform="translate(16.78 33.491)" fill="#fff"/>
      <path id="Rectangle_718" data-name="Rectangle 718" d="M.959,0H106.3a.96.96,0,0,1,.96.96V3.476a.96.96,0,0,1-.96.96H.959A.959.959,0,0,1,0,3.476V.959A.959.959,0,0,1,.959,0Z" transform="translate(55.129 33.491)" fill="#fff"/>
      <rect id="Rectangle_719" data-name="Rectangle 719" width="57.754" height="4.436" rx="0.959" transform="translate(104.959 21.785)" fill="#fff"/>
      <path id="Rectangle_720" data-name="Rectangle 720" d="M.959,0H144.973a.959.959,0,0,1,.959.959V3.476a.96.96,0,0,1-.96.96H.959A.959.959,0,0,1,0,3.477V.959A.959.959,0,0,1,.959,0Z" transform="translate(16.78 56.435)" fill="#fff"/>
      <path id="Rectangle_721" data-name="Rectangle 721" d="M.959,0h73.47a.959.959,0,0,1,.959.959V3.476a.96.96,0,0,1-.96.96H.96A.96.96,0,0,1,0,3.476V.959A.959.959,0,0,1,.959,0Z" transform="translate(16.78 45.196)" fill="#fff"/>
      <path id="Rectangle_722" data-name="Rectangle 722" d="M.959,0H65.207a.959.959,0,0,1,.959.959V3.476a.96.96,0,0,1-.96.96H.959A.959.959,0,0,1,0,3.476V.959A.959.959,0,0,1,.959,0Z" transform="translate(96.546 45.196)" fill="#fff"/>
    </g>
    <path id="Rectangle_723" data-name="Rectangle 723" d="M.858,0h48.16a.858.858,0,0,1,.858.858V3.106a.857.857,0,0,1-.857.857H.857A.857.857,0,0,1,0,3.106V.858A.858.858,0,0,1,.858,0Z" transform="translate(539.127 158.506) rotate(180)" fill="#fff"/>
    <path id="Path_9017" data-name="Path 9017" d="M1498.021,208.532h144.964a9.082,9.082,0,0,1,9.066,9.1v60.027a9.082,9.082,0,0,1-9.066,9.1h-114.13c-4.619,6.468-12.994,18.049-13.733,18.049-.692,0,.64-10.939,1.579-18.049h-18.681a9.082,9.082,0,0,1-9.067-9.1V217.629A9.082,9.082,0,0,1,1498.021,208.532Z" transform="translate(-1023.419 -65.142)" fill="#daeef7" opacity="0.3" style="mix-blend-mode: multiply;isolation: isolate"/>
    <path id="Path_9018" data-name="Path 9018" d="M1523.256,142.882h144.964a9.082,9.082,0,0,1,9.067,9.1v60.027a9.082,9.082,0,0,1-9.067,9.1H1554.09c-4.619,6.467-12.994,18.049-13.733,18.049-.692,0,.64-10.939,1.579-18.049h-18.681a9.082,9.082,0,0,1-9.067-9.1V151.979A9.082,9.082,0,0,1,1523.256,142.882Z" transform="translate(-1042.669 -15.062)" fill="#9bc1f9"/>
    <path id="Rectangle_724" data-name="Rectangle 724" d="M.858,0h42.6a.857.857,0,0,1,.857.857V3.106a.857.857,0,0,1-.857.857H.857A.857.857,0,0,1,0,3.106V.858A.858.858,0,0,1,.858,0Z" transform="translate(616.011 151.245) rotate(180)" fill="#fff"/>
    <path id="Rectangle_725" data-name="Rectangle 725" d="M.857,0H29.078a.857.857,0,0,1,.857.857V3.106a.857.857,0,0,1-.857.857H.856A.856.856,0,0,1,0,3.107V.857A.857.857,0,0,1,.857,0Z" transform="translate(616.011 164.189) rotate(180)" fill="#fff"/>
    <path id="Rectangle_726" data-name="Rectangle 726" d="M.857,0H35.982a.857.857,0,0,1,.857.857v2.25a.856.856,0,0,1-.856.856H.857A.857.857,0,0,1,0,3.106V.857A.857.857,0,0,1,.857,0Z" transform="translate(582.459 164.189) rotate(180)" fill="#fff"/>
    <path id="Rectangle_727" data-name="Rectangle 727" d="M.857,0H50.629a.858.858,0,0,1,.858.858V3.106a.857.857,0,0,1-.857.857H.857A.857.857,0,0,1,0,3.106V.857A.857.857,0,0,1,.857,0Z" transform="translate(540.954 164.189) rotate(180)" fill="#fff"/>
    <path id="Rectangle_728" data-name="Rectangle 728" d="M.857,0H73.475a.858.858,0,0,1,.858.858V3.106a.857.857,0,0,1-.857.857H.858A.858.858,0,0,1,0,3.106V.857A.857.857,0,0,1,.857,0Z" transform="translate(563.584 151.245) rotate(180)" fill="#fff"/>
    <path id="Rectangle_729" data-name="Rectangle 729" d="M.857,0H125.9a.857.857,0,0,1,.857.857V3.106a.857.857,0,0,1-.857.857H.858A.858.858,0,0,1,0,3.106V.857A.857.857,0,0,1,.857,0Z" transform="translate(616.011 189.542) rotate(180)" fill="#fff"/>
    <path id="Rectangle_730" data-name="Rectangle 730" d="M.858,0H64.627a.857.857,0,0,1,.857.857V3.106a.857.857,0,0,1-.857.857H.857A.857.857,0,0,1,0,3.106V.858A.858.858,0,0,1,.858,0Z" transform="translate(616.011 177.015) rotate(180)" fill="#fff"/>
    <path id="Rectangle_731" data-name="Rectangle 731" d="M.857,0H57.17a.857.857,0,0,1,.857.857V3.106a.857.857,0,0,1-.857.857H.858A.858.858,0,0,1,0,3.106V.857A.857.857,0,0,1,.857,0Z" transform="translate(547.279 177.015) rotate(180)" fill="#fff"/>
    <g id="Group_2434" data-name="Group 2434" transform="translate(340.85 228.572)">
      <path id="Path_9019" data-name="Path 9019" d="M994.508,905.444s-36.215,5.226-30.681,40.176c5.159,32.585,36.214,25.967,44.19,24.334S994.508,905.444,994.508,905.444Z" transform="translate(-963.252 -825.334)" fill="#f7cc7f"/>
      <path id="Path_9020" data-name="Path 9020" d="M1011.542,1082.279c3.714-.76,1.04-14.8-2.878-29.586-13.332,2.613-28.183,5.53-40.791,8.019C974.315,1090.144,1003.8,1083.864,1011.542,1082.279Z" transform="translate(-966.777 -937.659)" fill="#e8ba70"/>
      <path id="Path_9021" data-name="Path 9021" d="M1182.874,1163.883s7.954,28.4,5.859,50.465c-1.953,20.578.976,24.007,8.626,23.354s26.2-5.226,26.53-12.575-3.093-45.075-15.951-65.327S1182.874,1163.883,1182.874,1163.883Z" transform="translate(-1130.785 -1013.221)" fill="#96d9c9"/>
      <path id="Path_9022" data-name="Path 9022" d="M1195.235,1152.975c-5.1,3.425-12.361,11.844-12.361,11.844s7.954,28.4,5.859,50.465c-1.953,20.578.976,24.007,8.626,23.354a64.424,64.424,0,0,0,11.38-2.245C1211.791,1185.818,1198.745,1158.7,1195.235,1152.975Z" transform="translate(-1130.785 -1014.156)" fill="#50bfa5"/>
      <path id="Path_9023" data-name="Path 9023" d="M1265.46,615.208s-60.059,43.728-79.469,56.956l-11.352,16.9,8.057,49.24,19.409,9.554,94.85,18.741-2.2-10.656-17.212-47.77-8.789-54.384-2.564-33.439Z" transform="translate(-1124.503 -603.935)" fill="#96d9c9"/>
      <path id="Path_9024" data-name="Path 9024" d="M1292.4,961.325l-2.3-14.258-95.984,23.375,3.438,21.015,19.409,9.554,94.85,18.741-2.2-10.656Z" transform="translate(-1139.356 -857.085)" fill="#50bfa5"/>
      <path id="Path_9025" data-name="Path 9025" d="M1116.486,842.917s-7.935,41.768,16.113,75.7a4.2,4.2,0,0,1-1.587,5.1l-17.9,4.573s-8.3,2.94-15.3-8.982-19.369-38.706-12.044-68.266c0,0,1.79-8,11.556-9.472l13.021-2.449S1116.12,838.222,1116.486,842.917Z" transform="translate(-1054.997 -774.688)" fill="#3c8f7c"/>
      <path id="Path_9026" data-name="Path 9026" d="M1538.1,578.952s15.625-11.514,24.658-11.269,18.067,12.249,23.926,22.048,21.241,48.26,22.706,74.227,1.22,62.958-11.475,67.368-28.321-.98-28.321-.98-20.508-17.638-32.471-72.512S1538.1,578.952,1538.1,578.952Z" transform="translate(-1397.143 -567.68)" fill="#256653"/>
      <path id="Path_9027" data-name="Path 9027" d="M1629.967,739.112s14.6-18.984,7.161-70.243c-11.719-80.7-41.26-92.91-41.26-92.91s-21.865,16.662-.977,94.653C1612.1,734.877,1629.967,739.112,1629.967,739.112Z" transform="translate(-1438.187 -573.995)" fill="#3c8f7c"/>
      <path id="Path_9028" data-name="Path 9028" d="M1594.48,835.866a296.7,296.7,0,0,0,6.991,32.819c1.668,6.227,3.342,11.884,5,17.034,9.083-3.156,23.771-11.063,17.5-31.121C1618.163,836.013,1603.031,834.877,1594.48,835.866Z" transform="translate(-1444.767 -772.068)" fill="#f7cc7f"/>
      <path id="Path_9029" data-name="Path 9029" d="M1617.729,932.385c1.668,6.227,3.342,11.884,5,17.034,8.957-3.113,23.365-10.846,17.745-30.3l-24.686,5.708Q1616.694,928.51,1617.729,932.385Z" transform="translate(-1461.025 -835.768)" fill="#e8ba70"/>
      <path id="Path_9030" data-name="Path 9030" d="M1142.033,1069.395a92.574,92.574,0,0,1-14.414-32.682l-31.73,6.009a109,109,0,0,0,11.354,27.367c7,11.922,15.3,8.982,15.3,8.982l17.9-4.573A4.2,4.2,0,0,0,1142.033,1069.395Z" transform="translate(-1064.431 -925.469)" fill="#3c8f7c" opacity="0.3" style="mix-blend-mode: multiply;isolation: isolate"/>
    </g>
    <g id="Group_2439" data-name="Group 2439" transform="translate(656.2 189.759)">
      <g id="Group_2435" data-name="Group 2435" transform="translate(55.694 0)">
        <path id="Path_9031" data-name="Path 9031" d="M2580.47,419.028l-.145,15.731,9.969-9.384,31.422-21.34-25.646,5.593s-12.818,4.856-13.453,5.595A32.5,32.5,0,0,0,2580.47,419.028Z" transform="translate(-2567.836 -404.034)" fill="#dd513a"/>
        <path id="Path_9032" data-name="Path 9032" d="M2527.664,411.1l53.881-7.069L2540.3,419.028Z" transform="translate(-2527.664 -404.034)" fill="#f47458"/>
        <path id="Path_9033" data-name="Path 9033" d="M2612.149,432.453l-15.531-9.64,37.527-18.779Z" transform="translate(-2580.264 -404.034)" fill="#f47458"/>
      </g>
      <g id="Group_2438" data-name="Group 2438" transform="translate(0 22.222)">
        <g id="Group_2436" data-name="Group 2436" transform="translate(0 5.684)">
          <path id="Path_9034" data-name="Path 9034" d="M2292.845,573.715a34.729,34.729,0,0,1,.244-3.785c.138-1.16.338-2.335.593-3.492l1.25.277c-.247,1.117-.438,2.25-.572,3.368a33.442,33.442,0,0,0-.235,3.644q-.005.532.006,1.063l-1.279.028C2292.844,574.444,2292.842,574.073,2292.845,573.715Zm3.511-15.242a48.826,48.826,0,0,1,4.123-7.3l1.056.724a47.631,47.631,0,0,0-4.014,7.1Zm39.961-7.527c-.08-.038-.158-.076-.237-.116l.575-1.147.2.1a.739.739,0,0,0,.133.025,5.885,5.885,0,0,0,3.473-.877,5.442,5.442,0,0,0,1.767-2.592l1.21.419a6.794,6.794,0,0,1-2.192,3.187,7.1,7.1,0,0,1-4.41,1.138A1.668,1.668,0,0,1,2336.318,550.946Zm-30.635-6.318a66.788,66.788,0,0,1,6.021-5.788l.827.98a65.426,65.426,0,0,0-5.905,5.676Zm24.342-3a15.647,15.647,0,0,1,0-3.8,18.658,18.658,0,0,1,.385-2.13l1.244.3a17.267,17.267,0,0,0-.358,1.981,14.381,14.381,0,0,0,0,3.486,11.923,11.923,0,0,0,.542,2.349l-1.211.416A13.184,13.184,0,0,1,2330.024,541.632Zm5.3-7.245-.171-.057.4-1.221.185.062a12.878,12.878,0,0,1,6.647,5.069l-1.078.692A11.581,11.581,0,0,0,2335.326,534.386Zm-16.312.266a29.214,29.214,0,0,1,5.176-1.89c1.042-.18,2-.31,2.934-.4l.118,1.278c-.9.084-1.825.209-2.834.383a26.386,26.386,0,0,0-4.872,1.8Zm14.852-6.677a28.672,28.672,0,0,1,5.627-6.283l.817.989a27.408,27.408,0,0,0-5.376,6Z" transform="translate(-2292.844 -521.692)" fill="#6db1b5"/>
        </g>
        <g id="Group_2437" data-name="Group 2437" transform="translate(53.862)">
          <path id="Path_9035" data-name="Path 9035" d="M2520.427,500.234a24.633,24.633,0,0,1,3.917-1.255l-.284-1.252a25.909,25.909,0,0,0-4.12,1.32Z" transform="translate(-2519.94 -497.727)" fill="#6db1b5"/>
        </g>
      </g>
    </g>
    <g id="Group_2443" data-name="Group 2443" transform="translate(563.762 302.769)">
      <path id="Path_9036" data-name="Path 9036" d="M1916.709,1116.077l-.655.589a.805.805,0,0,1-1.133-.028l-11.626-12.825a.8.8,0,0,1,.088-1.124l.655-.588a.8.8,0,0,1,1.133.028l11.627,12.824A.8.8,0,0,1,1916.709,1116.077Z" transform="translate(-1903.101 -1049.377)" fill="#13375b"/>
      <path id="Path_9037" data-name="Path 9037" d="M1964.585,1117.185c-1.554-1.268-13.572,4.023-13.419,5.865s-8.386,19.7-8.386,19.7l-14.754-11.805-.006,0c-.131-.427-1.529-5.018-1.6-5.84-.071-.861-2.564-2.369-3.723-2.147s.99,1.68,1.131,1.947c.384.728-1.1,1-1.1,1s-4.263-2.348-4.354-3.729-.97-4.274-1.892-3.669c-.475.313-.471,2.365-.322,3.34-.274-1.106-.662-2.354-1.039-2.478-.69-.226-1.032.654-.907,1.087s1.239,5.127,1.577,5.656,7.216,6.082,8.208,7.29c0,0,19.085,21.891,20.444,22.464,1.192.5,5.443-7.042,9.46-12.05S1969.441,1121.146,1964.585,1117.185Z" transform="translate(-1911.561 -1060.903)" fill="#f7a491"/>
      <path id="Path_9038" data-name="Path 9038" d="M2284.016,1773.378s2.623,2.568,2.682,3.51.232,11.037-.838,11.98-4.216,1.61-3.2,2.671c.764.8,6.643.63,10.539.414,1.137-.062,2.563-9.168,3.014-10.506.654-1.944,2.245-6.322,1.65-7.677a11.371,11.371,0,0,0-3.63-3.282,17.887,17.887,0,0,1-4.021-4.3Z" transform="translate(-2192.483 -1556.127)" fill="#f48c7f"/>
      <path id="Path_9039" data-name="Path 9039" d="M2142.74,1821.246s2.347,6.652,2.35,6.669c.174,1.054.861,3.658.861,4.616,0,3.6-16.178-3.055-12.552-4.65a3.849,3.849,0,0,0,1.466-2.523c.166-1.887-1.363-4.255-1.363-4.255Z" transform="translate(-2078.374 -1598.015)" fill="#f7a491"/>
      <g id="Group_2440" data-name="Group 2440" transform="translate(34.63 99.352)">
        <path id="Path_9040" data-name="Path 9040" d="M2053.467,1299.405s-1.179,11.926-1.179,12.1c0,19.292-3.811,56.975-3.086,60.6,1.769,8.847,20.8,53.976,20.8,53.976l10.286-1.234-13.4-54.032,4.932-21.748,6.979-42.99Z" transform="translate(-2049.11 -1299.405)" fill="#355389"/>
        <path id="Path_9041" data-name="Path 9041" d="M2111.563,1315.427l1.952,11.3,5.281,46.52,20.109,45.466s-2.829,6.616-7,7.545l-32.005-46.68-19.881-59.73.7-13.27Z" transform="translate(-2072.686 -1304.878)" fill="#13375b"/>
      </g>
      <path id="Path_9042" data-name="Path 9042" d="M2050.186,1079.281l14.262,1.461s.655-11.732.655-17.329c0-6.79-.576-15.535-1.394-15.347a12.425,12.425,0,0,0-7.221,4.334C2050.125,1061.173,2050.186,1079.281,2050.186,1079.281Z" transform="translate(-2015.301 -1008.324)" fill="#86b1f2"/>
      <path id="Path_9043" data-name="Path 9043" d="M2061.134,1060.764c-.3,2.07-5.782,58.349-5.782,58.349,25.969,12.585,40.3,2.242,40.3,2.242s-.85-39.52.169-44.9c.674-3.559,1.514-27.207-.784-27.87a57.38,57.38,0,0,0-10.017-2.136c-3.146-.328-15.369-.518-17.556.219A27.973,27.973,0,0,0,2061.134,1060.764Z" transform="translate(-2019.241 -1006.872)" fill="#9bc1f9"/>
      <path id="Path_9044" data-name="Path 9044" d="M2290.712,1784.038s-6.044,17.076-8.41,17.9c-.628.219-3.643.774-4.212,2.112a5.811,5.811,0,0,0,0,1.749h12.6s1.594-7.524,2.224-10.83c0,0,3.335-8.077,2.964-8.811S2290.712,1784.038,2290.712,1784.038Z" transform="translate(-2189.093 -1569.741)" fill="#184655"/>
      <path id="Path_9045" data-name="Path 9045" d="M2106.552,1855.407l-1.853-5.872s-3.891,1.651-5.836,1.376a58.82,58.82,0,0,1-5.743-1.376c-7.765,2.564-14.126,3.809-12.969,5.872h26.4Z" transform="translate(-2038.055 -1619.704)" fill="#184655"/>
      <g id="Group_2441" data-name="Group 2441" transform="translate(31.146 80.287)">
        <path id="Path_9046" data-name="Path 9046" d="M2036.158,1233.7a3.36,3.36,0,0,1-.392-.292c.462-5.514.378-10.856-1.346-12.663.042-.087.419-.891.812-1.724,2,1.551,2.948,5.672,2.575,12.361a11.4,11.4,0,0,1-.263,1.385C2036.965,1233.407,2036.439,1233.82,2036.158,1233.7Z" transform="translate(-2034.42 -1219.022)" fill="#f7a491"/>
      </g>
      <path id="Path_9047" data-name="Path 9047" d="M2249.412,1162.024a1.552,1.552,0,0,0,.007-.362c-.383-3.9-3.607-36.625-4.151-38.016-.49-1.256-14.954-22.013-14.954-22.013l-7.109,9.718,13.911,18.618c.312,1.183,5.33,23.276,5.33,23.276s1.029,4.027,1.49,6.439c-.21.581-.416,1.13-.6,1.581a14.577,14.577,0,0,1-1.5,2.417,16.587,16.587,0,0,0-1.777,3.152c-.147.568-.413,1.75-.563,2.463s-.356,1.543-.391,1.93a3.744,3.744,0,0,1-.449,1.037.622.622,0,0,0,.733.9c.505-.169.9-.825,1.141-1.234.684-1.154,1.049-3.263,1.219-3.151s.77,3.688.865,4.092a44.22,44.22,0,0,0,1.22,5.317c.406.759.943.632,1.086.157.123-.409-.448-6.22-.448-6.22s-.071-.741.252-.509.853,5.506,1.077,6.278.738,1.181,1.173.561c.53-.755-.381-6.35-.381-6.35s-.1-.7.2-.638.675,4.561.908,4.95a.59.59,0,0,0,1.1-.12c.33-.763-.525-5.751-.525-5.751s.042-.4.229-.265.779,3.941,1.166,4.294a.409.409,0,0,0,.594.009c.709-.486-.378-4.109-.367-5.911s-.822-3.826-.574-5.971C2249.341,1162.562,2249.384,1162.232,2249.412,1162.024Z" transform="translate(-2147.283 -1049.187)" fill="#f8a492"/>
      <path id="Path_9048" data-name="Path 9048" d="M2221.319,1080.361l-12.355,8.324s-6.964-10.4-10.7-14.1c-4.682-4.637,1.706-18.843,4.723-18.039C2209.733,1058.344,2221.319,1080.361,2221.319,1080.361Z" transform="translate(-2126.988 -1014.77)" fill="#9bc1f9"/>
      <path id="Path_9049" data-name="Path 9049" d="M2141.661,993.754l1.848,12.222s-6.749,14.552-10.778,13.29c-3.38-1.059-1.3-13.935-1.3-13.935s1.842-6.915,1.29-10.376S2141.661,993.754,2141.661,993.754Z" transform="translate(-2076.793 -966.343)" fill="#f7a491"/>
      <path id="Path_9050" data-name="Path 9050" d="M2138.144,994.955c-.552-3.46,8.941-1.2,8.941-1.2l.153,1.014a5.624,5.624,0,0,1-1.029,1.7,12.482,12.482,0,0,1-8.3,3.77A18.924,18.924,0,0,0,2138.144,994.955Z" transform="translate(-2082.217 -966.343)" fill="#f47458"/>
      <g id="Group_2442" data-name="Group 2442" transform="translate(50.215)">
        <path id="Path_9051" data-name="Path 9051" d="M2131.031,910.9c.268-.1,2.151,13.92-1.421,17.777s-10.532,5.12-13.029,2.082c-2.761-3.36-2.622-18.426,2.931-22.394S2131.031,910.9,2131.031,910.9Z" transform="translate(-2114.82 -900.781)" fill="#f7a491"/>
        <path id="Path_9052" data-name="Path 9052" d="M2128.005,880.6a15.416,15.416,0,0,1,8.094,4.632c1.949.231,4.6,1.312,7.334,5.857,3.364,5.588.879,11.78-3.036,14.818s-3.862,6.547-3.862,6.547l-.619-1.815a10.18,10.18,0,0,1-.49-4.275,8.39,8.39,0,0,1,.633-2.57c.942-2.029-2.023-3.377-2.854-5.064-.64-1.3-.671-4.273-1.68-6.421l-1.2-1.64s-2.779-2.17-5.5-1.557S2122.5,879.47,2128.005,880.6Z" transform="translate(-2121.199 -880.511)" fill="#184655"/>
        <path id="Path_9053" data-name="Path 9053" d="M2166.215,957.969c-.028,1.71.746,3.11,1.73,3.127s1.8-1.356,1.833-3.066-.746-3.11-1.73-3.127S2166.243,956.258,2166.215,957.969Z" transform="translate(-2154.025 -937.258)" fill="#f7a491"/>
      </g>
      <path id="Path_9054" data-name="Path 9054" d="M2124.441,983.593l-5.384-.28a2.362,2.362,0,0,0,2.382,2.25C2124.322,985.8,2124.441,983.593,2124.441,983.593Z" transform="translate(-2067.837 -958.931)" fill="#fff"/>
    </g>
    <path id="Path_9055" data-name="Path 9055" d="M1085.558,1675.737l2.633-.5-11.378-60.555-2.633.5Z" transform="translate(-707.021 -1137.784)" fill="#0e2e35"/>
    <path id="Path_9056" data-name="Path 9056" d="M988.238,1676.012h-3.167l11.8-61.331,2.633.5Z" transform="translate(-639.046 -1137.784)" fill="#0e2e35"/>
    <path id="Path_9057" data-name="Path 9057" d="M839.02,1676.9l2.572.031-11.316-61.086-2.633.5Z" transform="translate(-518.956 -1138.669)" fill="#0e2e35"/>
    <path id="Path_9058" data-name="Path 9058" d="M777.431,1265.586c-10.427,1.12-23.921,2.3-37.467,25.369-14.806,25.211-7.012,62.868,4.674,73.333s49.851,23.386,81.934,4.042c0,0,19.372-11.723,9.43-31.178-15.3-29.94-13.138-36.183-19.978-47.916S799.564,1263.207,777.431,1265.586Z" transform="translate(-445.878 -871.286)" fill="#fae0b2"/>
    <path id="Path_9059" data-name="Path 9059" d="M739.963,1297.538c9.246-15.744,18.467-21.292,26.706-23.584a69.206,69.206,0,0,0-9.651,13.072c-14.805,25.21-7.012,62.869,4.674,73.333,10.363,9.28,41.551,20.489,70.854,9.417a29.8,29.8,0,0,1-5.974,5.137c-32.083,19.344-70.249,6.422-81.934-4.042S725.158,1322.748,739.963,1297.538Z" transform="translate(-445.878 -877.869)" fill="#f7cc7f"/>
    <path id="Path_9060" data-name="Path 9060" d="M1047.546,1427.988l2.68,8.068-8.167-3.224Z" transform="translate(-682.517 -995.37)" fill="#f79c8d"/>
    <path id="Path_9061" data-name="Path 9061" d="M1012.93,1326.767c.545.022,2.036.522,4.218,4.645,2.787,5.266,6.859,21.173,6.859,21.173l-12.156,4.527-1.561-3.32-2.572-25.561S1012.78,1326.76,1012.93,1326.767Z" transform="translate(-656.322 -918.156)" fill="#dd513a"/>
    <path id="Path_9062" data-name="Path 9062" d="M892.606,1317.1c3.476,0,12.077,1.019,16.069,2.294,0,0,2.933,25.2-2.64,44.357-1.248,4.287,1.032,17.772,1.032,17.772l-36.019-.475s4.267-32.6,2.66-37.867-1.646-23.618-1.646-23.618.247-.039,8.092-1.395A81.51,81.51,0,0,1,892.606,1317.1Z" transform="translate(-552.066 -910.782)" fill="#f47458"/>
    <path id="Path_9063" data-name="Path 9063" d="M911.322,1785.968s.8,9.2,2.262,11.744-.077,6.877-.154,7.471-3.084,1.443-7.865.934-4.7-1.613-4.318-3.4,2.93-4.075,3.084-5.773-1.465-7.81-1.465-7.81Z" transform="translate(-574.979 -1268.445)" fill="#f7a491"/>
    <path id="Path_9064" data-name="Path 9064" d="M901.026,1554.9s24.864-1.381,30.416,1.982-1,10.268-1,10.268-20.242,8.8-54.131,10.757c-8.025.463-8.716-20.924-7.216-22.694S901.026,1554.9,901.026,1554.9Z" transform="translate(-550.09 -1091.754)" fill="#256653"/>
    <path id="Path_9065" data-name="Path 9065" d="M904.026,1846.381c-4.923-.525-4.314-2.943-3.917-4.779.249-1.149,1.661-2.5,2.5-3.787a8.2,8.2,0,0,0,3.294,1.6c2.22.656,5.263-.642,7.2-1.455a23.783,23.783,0,0,1,.658,6.35C913.687,1844.923,908.949,1846.905,904.026,1846.381Z" transform="translate(-574.037 -1307.995)" fill="#184655"/>
    <path id="Path_9066" data-name="Path 9066" d="M868.316,1573.487c.993,7.517,5.912,44.938,5.912,44.938l-11.412,1.415S848.781,1571,849.5,1563.526s5.973-8.1,5.973-8.1S865.687,1553.588,868.316,1573.487Z" transform="translate(-535.61 -1092.548)" fill="#3c8f7c"/>
    <path id="Path_9067" data-name="Path 9067" d="M855.6,1339.176c3.368-1.263,5.015,29.081,5.469,41.57,5.964.574,16.359,0,18.947-.19,1.217-.092,4.024-1.12,5.235-1.278a12.121,12.121,0,0,1,2.975-.141c.224.039,6.44,2.581,6.972,3.139.66.691,2.443,2.435,2.141,3.189s-3.429-2.1-3.429-2.1l-1.529-.858c1.9,1.859,5.533,4.308,5.01,5.2-.51.869-3.784-1.615-6.118-3.309,2,1.808,4.488,5.043,3.915,5.547-.515.453-3.343-3.292-6.366-4.371-1.12-.4-2.237.707-3.118.841a6.333,6.333,0,0,1-2.283.127l-3.273-.928c-1.115.1-1.143.76-2.269,1-1.307.278-3.452.571-5.116.978-9.586,2.342-12.783,3.43-15.718,3.428C848.16,1391.014,847.644,1342.162,855.6,1339.176Z" transform="translate(-536 -927.593)" fill="#f7a491"/>
    <path id="Path_9068" data-name="Path 9068" d="M845.937,1358.544c-.631-12.793-.538-28.562,6.633-31.252,2.829-1.062,7.818,5.321,6.921,31.512C855.663,1359.12,850.042,1359.375,845.937,1358.544Z" transform="translate(-532.726 -918.473)" fill="#dd513a"/>
    <path id="Path_9069" data-name="Path 9069" d="M978.192,1436.234h-.731l-10.99,27.007.757-.115Z" transform="translate(-624.858 -1001.66)" fill="#f79c8d"/>
    <path id="Path_9070" data-name="Path 9070" d="M1056.187,1819.137s-1,3.193.787,5.3,9.192,4.183,10.165,5.326a3.206,3.206,0,0,1,.9,2.117l-20.8-.572.227-6.281.958-4.513Z" transform="translate(-686.472 -1293.747)" fill="#f7a491"/>
    <path id="Path_9071" data-name="Path 9071" d="M1054.525,1844.4s-5.344,2.161-7.925.882-2.5-1.634-3.25-1.157-1.015,6.365-1.015,6.365l23.384.687c1.627-.037,2.45-1.236,1.128-2.262a19.137,19.137,0,0,0-2.55-1.516C1062.469,1846.349,1054.525,1844.4,1054.525,1844.4Z" transform="translate(-682.729 -1312.652)" fill="#184655"/>
    <path id="Path_9072" data-name="Path 9072" d="M1056.69,1562.443c1.607-3.382,5.263-7.786,11.695-5.134,6.135,2.53,7.781,8.747,5.845,15.114s-14.677,43.791-15.122,48.937l-10.173.067s1.849-29.634,2.3-36.8C1051.674,1577.739,1053.908,1568.3,1056.69,1562.443Z" transform="translate(-687.763 -1093.399)" fill="#3c8f7c"/>
    <path id="Path_9073" data-name="Path 9073" d="M938.259,1436.234H904.251a2.217,2.217,0,0,0-2.052,1.381l-10.471,25.626H872.979a.95.95,0,0,0-.949.952h0a.951.951,0,0,0,.949.952h53.36a3.724,3.724,0,0,0,3.4-2.207l10.544-23.567A2.225,2.225,0,0,0,938.259,1436.234Z" transform="translate(-552.816 -1001.66)"/>
    <path id="Path_9074" data-name="Path 9074" d="M1062.214,1491.169a1.872,1.872,0,1,1-1.4-2.449A2,2,0,0,1,1062.214,1491.169Z" transform="translate(-695.081 -1041.673)" fill="#fff"/>
    <g id="Group_2444" data-name="Group 2444" transform="translate(329.693 372.927)">
      <path id="Path_9075" data-name="Path 9075" d="M935.14,1178.922a26.011,26.011,0,0,1-3.008-1.2,15.093,15.093,0,0,0-3.43-1.292c-1.9-.293-5.159-.1-6.959,1.856-2.243,2.433-6.229.44-5.426,13.184.909,14.425,8.93,12.842,9.125,12.6s7.154-9.229,7.154-9.229,2.433,5.323,2.433,5.127S947.451,1183.068,935.14,1178.922Z" transform="translate(-916.211 -1176.316)" fill="#0e2e35"/>
      <path id="Path_9076" data-name="Path 9076" d="M943.85,1271.685l.693,5.154s1.551,7.426-.444,8.858-8.486-9.07-8.486-9.07l.685-13.061Z" transform="translate(-931.01 -1242.873)" fill="#f7a491"/>
      <path id="Path_9077" data-name="Path 9077" d="M937.569,1267.8a14.79,14.79,0,0,0,8.361,8.256l-.587-4.37-7.553-8.119Z" transform="translate(-932.503 -1242.872)" fill="#f47458"/>
      <path id="Path_9078" data-name="Path 9078" d="M940.588,1203.359a6.873,6.873,0,0,1,7.916,6.951,52.247,52.247,0,0,1-.579,6.611c-.919,5.95-4.979,11.19-7.663,10.722s-9.438-5.6-8.249-14.068C932.746,1208.347,936.151,1204.075,940.588,1203.359Z" transform="translate(-928.158 -1196.878)" fill="#f7a491"/>
      <path id="Path_9079" data-name="Path 9079" d="M927.753,1242.195a2,2,0,1,1-1.521-2.706A2.214,2.214,0,0,1,927.753,1242.195Z" transform="translate(-922.036 -1224.487)" fill="#f7a491"/>
      <path id="Path_9080" data-name="Path 9080" d="M930.606,1205.528s3.246.807,4.45-1.281,5.511-6.592,10.986-4.724-4.818-4.541-5.256-4.541-5.694-.037-5.694-.037-4.051,3.333-4.2,3.7-1.314,4.358-1.314,4.358Z" transform="translate(-926.41 -1190.526)" fill="#0e2e35"/>
    </g>
    <path id="Path_9081" data-name="Path 9081" d="M958.864,1276.287l5.906,1.129a2.629,2.629,0,0,1-3.175,1.8C958.411,1278.706,958.864,1276.287,958.864,1276.287Z" transform="translate(-619.038 -879.649)" fill="#fff"/>
    <path id="Path_9082" data-name="Path 9082" d="M701.572,998.917l5.905,1.129a2.628,2.628,0,0,1-3.175,1.8C701.119,1001.336,701.572,998.917,701.572,998.917Z" transform="translate(-422.77 -668.065)" fill="#fff"/>
    <path id="Path_9083" data-name="Path 9083" d="M2502.954,1763.026a93.009,93.009,0,0,0-15.25,2.729,183.628,183.628,0,0,0-26.55,9.709c-4.248,1.852-8.523,3.678-12.69,5.708a45.833,45.833,0,0,0-5.7,3.117,63.348,63.348,0,0,0-6.652,5.443l1.984.059a65.9,65.9,0,0,1,13.24-8.635c16.37-7.886,33.376-15.973,51.634-17.981A.075.075,0,0,0,2502.954,1763.026Z" transform="translate(-1745.929 -1250.943)" fill="#3c8f7c"/>
    <rect id="Rectangle_732" data-name="Rectangle 732" width="662" height="3" transform="translate(147.832 539.46)" fill="#9678d0"/>
  </g>
</svg>
