<svg xmlns="http://www.w3.org/2000/svg" xmlns:xlink="http://www.w3.org/1999/xlink" width="700" height="652" viewBox="0 0 700 652"><defs><clipPath id="a"><rect width="700" height="652" transform="translate(983 1327)" fill="#fff" stroke="#707070" stroke-width="1"/></clipPath><linearGradient id="b" x1="0.44" y1="1.091" x2="1.103" y2="0.092" gradientUnits="objectBoundingBox"><stop offset="0" stop-color="#d5005b" stop-opacity="0.969"/><stop offset="0.024" stop-color="#c8005d" stop-opacity="0.969"/><stop offset="0.116" stop-color="#9d0068" stop-opacity="0.969"/><stop offset="0.21" stop-color="#790070" stop-opacity="0.969"/><stop offset="0.305" stop-color="#5e0076" stop-opacity="0.969"/><stop offset="0.401" stop-color="#4a007b" stop-opacity="0.969"/><stop offset="0.5" stop-color="#3e007e" stop-opacity="0.969"/><stop offset="0.604" stop-color="#3b007f" stop-opacity="0.969"/></linearGradient><linearGradient id="c" x1="0.431" y1="0.067" x2="0.615" y2="0.977" xlink:href="#b"/><linearGradient id="d" x1="0.364" y1="0.065" x2="0.742" y2="0.987" xlink:href="#b"/><linearGradient id="e" x1="0.461" y1="0.204" x2="0.624" y2="1.401" gradientUnits="objectBoundingBox"><stop offset="0" stop-color="#d5005b" stop-opacity="0.969"/><stop offset="0.099" stop-color="#d0005c" stop-opacity="0.941"/><stop offset="0.238" stop-color="#c2005f" stop-opacity="0.855"/><stop offset="0.399" stop-color="#ac0064" stop-opacity="0.714"/><stop offset="0.579" stop-color="#8d006b" stop-opacity="0.522"/><stop offset="0.77" stop-color="#660074" stop-opacity="0.275"/><stop offset="0.956" stop-color="#3b007f" stop-opacity="0"/></linearGradient><linearGradient id="f" x1="0.374" y1="0.526" x2="1.111" y2="0.751" gradientUnits="objectBoundingBox"><stop offset="0" stop-color="#ff9100" stop-opacity="0.969"/><stop offset="0.215" stop-color="#c1730e" stop-opacity="0.969"/><stop offset="0.53" stop-color="#6e4b23" stop-opacity="0.969"/><stop offset="0.754" stop-color="#393230" stop-opacity="0.969"/><stop offset="0.864" stop-color="#252935" stop-opacity="0.969"/></linearGradient><linearGradient id="g" x1="-0.107" y1="-1.127" x2="0.146" y2="0.093" xlink:href="#b"/><linearGradient id="h" x1="-0.168" y1="-0.783" x2="0.085" y2="0.437" xlink:href="#b"/><linearGradient id="i" x1="0.404" y1="0.039" x2="0.66" y2="1.273" xlink:href="#b"/></defs><g transform="translate(-983 -1327)" clip-path="url(#a)"><g transform="translate(806.719 1291.511)"><path d="M1009.282,81.28V740.614h-777c4.486-3.138,48.815-56.333,186.75-108.021,143.626-53.815,187.814-80.8,232.6-168.646C683.179,402.1,691.087,331.367,708.677,264.2c10.9-41.687,44.78-96.407,80.1-138.912,45.4-56.448,96.967-95.981,141.735-129.463s78.775-48.472,78.775-48.472Z" transform="matrix(0.998, 0.07, -0.07, 0.998, -17.301, -42.53)" fill="url(#b)"/><path d="M725.454,192.862c-5.048-22.89-31.46-37.575-54.329-32.427s-39.9,27.2-42.151,50.534c-3.449-14.6-19.868-22.224-34.787-23.777-18.657-1.944-38.326,2.647-52.9,14.456-16.814,13.627-25.3,35.2-28.982,56.523-3.375,19.545-3.251,39.952,2.637,58.894S532.8,353.4,549.68,363.813c13.737,8.479,30.018,12.038,46.13,13.034,26.017,1.61,52.68-3.306,75.506-15.894s41.562-33.1,50.21-57.689c5.5-15.629,6.881-32.382,7.534-48.938q1.127-28.571-.46-57.16c-.19-3.41-1.434-7.855-4.847-7.865" transform="translate(181.791 66.933)" opacity="0.31" fill="url(#c)"/><path d="M745.235,102.37v73.82c0,9.43-.248,18.976-.513,28.539-.38,15.072-.761,30.177-.1,44.95.017.562.05,1.108.1,1.671v189.7A108.463,108.463,0,0,1,704.5,470.229c-32.046,13.252-70.065,10.324-100.324-6.6-15.8-8.818-29.73-21.474-38.349-37.373-13.715-25.246-7.974-49.616,1.307-74.995,11.234-30.689,35.967-57.144,67.335-66.326-9-5.559-13.169-17.123-11.78-27.612s7.561-19.87,15.254-27.132c4.417-4.2,9.662-7.925,15.684-8.851s12.921,1.687,15.4,7.246A124.208,124.208,0,0,1,689.911,142.7c14.162-20.432,32.757-31.037,54.811-40.12C744.888,102.5,745.07,102.436,745.235,102.37Z" transform="translate(212.936 29.608)" opacity="0.31" fill="url(#d)"/><path d="M870.188,236.14V567.652H367.742c-3.9-21.044,3.838-43.015,16.346-60.469,23.542-32.906,66.342-52.544,105.883-43.974,28.754,6.237,52.61,25.561,75.293,44.305a55.186,55.186,0,0,1,86.757-43.362c3.491-41.509,8.322-86.2,36-117.281a2.737,2.737,0,0,0,.215-.232c27.695-30.9,76.384-40.666,113.857-22.814-8.686-15.849-4.8-37.522,8.868-49.351s35.669-12.59,50.112-1.737A94.281,94.281,0,0,1,870.188,236.14Z" transform="translate(87.983 117.149)" opacity="0.31" fill="url(#e)"/><g transform="translate(409.403 190.587)"><path d="M339.493,456.894c6.841.056,13.841,1.568,20.642,2.316,2.118.233,4.258.263,6.363.6,2.324.374,4.57,1.118,6.854,1.674a46.447,46.447,0,0,0,8.426,1.231c2.334.127,4.591-.8,6.843-1.5q7.606-2.367,15.011-5.326a233.981,233.981,0,0,0,28.56-13.775c18.5-10.468,35.671-23.155,51.859-36.9q9.229-7.834,18.081-16.1c46.957-43.655,100.569-160.086,102.7-164.735.021-.046-.961-5.059-1.006-5.031-2.05,1.289-48.284,26.481-59.03,32.334a2.477,2.477,0,0,1-3.4-1.049c-1.469-2.865-4.512-8.639-4.955-10.724-.089-.422.5.083.639-.324a2.462,2.462,0,0,1,.706-.94,84.8,84.8,0,0,1,15.661-11.187q6.663-3.923,13.548-7.448a22.892,22.892,0,0,0,5.666-3.787q2.874-2.643,5.759-5.273c7.671-7,15.384-13.953,23.069-20.937,14.159-12.868,28.218-25.855,41.764-39.37,2.472-2.467,5.256-5.111,9.809-2.861a10.72,10.72,0,0,1,5.112,5.754c0,1.206,1.226,3.109,1.673,4.242l1.846,4.68q7.892,20.012,15.785,40.024l8.148,20.655q1.916,4.859,3.832,9.715a57.858,57.858,0,0,0,4.062,9.285,4.736,4.736,0,0,1,.544,1.087,4.654,4.654,0,0,1,.142,1.175q.117,3.784-.144,7.567a8.054,8.054,0,0,1-.554,2.811,2.937,2.937,0,0,1-2.114,1.775c-2.222.326-4.589-1.466-6.187-2.779l-4.847-3.985-10.739-8.826-17.523-14.4c-.035-.028-.086-.017-.086.028-.063,3.645-2.061,107.5-28.587,170.9a364.754,364.754,0,0,1-17.768,36.624c-21.833,39.234-51.15,74.488-86.5,102.254a273.117,273.117,0,0,1-43.068,27.994c-6.191,3.2-12.61,5.726-18.935,8.611-2.75,1.254-6.555,3.557-8.256-.351a74.334,74.334,0,0,1-4.445-14.473c-.088-.442.337-.574.458-1.008a2.978,2.978,0,0,1,.658-1.06c1.282-1.524,2.677-2.97,3.81-4.6a19.777,19.777,0,0,0,3.094-6.358c.673-2.589.5-5.579.627-8.251q.407-8.867.379-17.75-.035-10.376-.663-20.735c-.341-5.666.05-7.3-5.5-6.368a161.808,161.808,0,0,1-58.393-.342c-10.767-2.106-21.764-6.375-31.723-10.861a48.3,48.3,0,0,1-9.877-5.478C345.553,473.968,339.925,460.4,339.493,456.894Z" transform="translate(-339.242 -131.818)" fill="#ff9100"/><path d="M688.884,251.726l-41.724-34.3c-.033-.033-.083-.017-.083.017-.066,3.656-2.068,107.5-28.588,170.918a364.168,364.168,0,0,1-17.768,36.612c-21.838,39.226-51.138,74.5-86.493,102.259a275.3,275.3,0,0,1-43.081,27.993c-6.188,3.21-12.623,5.724-18.943,8.62-2.6,1.175-6.121,3.739-7.561.463-1.092-2.465,1.324-10.075,1.654-12.9q1.216-10.8,1.77-21.64.521-9.877.48-19.77-.05-10.4-.662-20.746c-.05-.778-.083-1.489-.116-2.118-.232-3.937-.6-5.062-5.393-4.252-.033,0-.083.017-.116.017-53.917,9.066-104.344-13.649-102.888-21.276a1.984,1.984,0,0,1,.331-.827c1.34-2.134,11.614-1.588,14.327-1.985,5.245-.761,10.489-1.754,15.667-2.945,49.417-11.4,90.976-41.923,127.489-75.888,46.969-43.66,100.572-160.081,102.706-164.747.017-.017-.016-.066-.066-.033-2.333,1.456-33.6,21.028-58.963,32.559a3.3,3.3,0,0,1-3.689-5.344l101.151-100.9c2.167-2.167,4.566-4.467,8.189-3.474a8.511,8.511,0,0,1,1.6.612,10.661,10.661,0,0,1,5.129,5.774c11.5,29.151,31.715,80.4,40.831,103.533A3.317,3.317,0,0,1,688.884,251.726Z" transform="translate(-339.341 -137.796)" fill="#ffb200"/><path d="M647.343,251.632l-41.724-34.3c-.033-.033-.083-.017-.083.017-.066,3.656-2.068,107.5-28.588,170.918a364.184,364.184,0,0,1-17.768,36.612c-21.838,39.226-51.138,74.5-86.493,102.259a275.317,275.317,0,0,1-43.081,27.993c-6.188,3.21-12.623,5.724-18.943,8.62-2.6,1.175-6.121,3.739-7.561.463-1.092-2.465,1.324-10.075,1.654-12.9q1.216-10.8,1.77-21.64.521-9.877.48-19.77-.05-10.4-.662-20.746c-.05-.777-.083-1.489-.116-2.118,65.085-33.022,111.127-99.811,142.445-166.8,36.6-78.337,53.057-156.971,56.3-182.3a8.509,8.509,0,0,1,1.6.612,10.661,10.661,0,0,1,5.129,5.774c11.5,29.151,31.715,80.4,40.831,103.533A3.317,3.317,0,0,1,647.343,251.632Z" transform="translate(-297.8 -137.702)" fill="#ffb200" opacity="0.283" style="mix-blend-mode:multiply;isolation:isolate"/></g><g transform="translate(550.898 211.195)"><rect width="58.12" height="47.357" rx="6.285" transform="translate(0 0)" fill="#0090c6"/><path d="M445.128,177.96l6.389,9.663a1.2,1.2,0,0,0,2.071-.119,66.18,66.18,0,0,0,3.931-10.133" transform="translate(-411.607 -132.505)" fill="#0090c6"/></g><path d="M538.883,280.738c-3.507,9.3,2.052,19.439,2.1,29.366.05,9.612-5.244,20.862-10.82,28.489-20.44,28-51.977,50.026-84.64,61.263-3.683,1.267-7.466,2.369-10.822,4.348-9.3,5.486-13.571,16.458-17.2,26.626q-3.884,10.879-7.768,21.76c-.379,1.057-.786,1.8-1.869,1.669a91.447,91.447,0,0,1-.026-9.189q-.05-10.4-.662-20.746c-.05-.778-.083-1.489-.116-2.118-.232-3.937-.6-5.062-5.393-4.252-.033,0-.083.017-.116.017a277.182,277.182,0,0,1,56.25-82.489l2.994-2.647q14.418-26.628,28.8-53.239c4.864-9,9.745-18.033,15.949-26.173,6.485-8.537,13.632-15.833,24.849-16.379,5.509-.265,11.614.86,15.088,5.129a15.708,15.708,0,0,1,2.581,4.914,27.359,27.359,0,0,1-2.233,22.467C543.6,273.342,540.438,276.635,538.883,280.738Z" transform="translate(110.772 117.717)" fill="#494949" opacity="0.283" style="mix-blend-mode:multiply;isolation:isolate"/><g transform="translate(563.904 231.904)"><path d="M441.247,167.03a4.259,4.259,0,1,1-4.258-4.26A4.26,4.26,0,0,1,441.247,167.03Z" transform="translate(-432.728 -162.77)" fill="#fefefe"/><circle cx="4.259" cy="4.259" r="4.259" transform="translate(11.795 0)" fill="#fefefe"/><path d="M455.5,167.03a4.259,4.259,0,1,1-4.259-4.26A4.259,4.259,0,0,1,455.5,167.03Z" transform="translate(-423.397 -162.77)" fill="#fefefe"/></g><g transform="translate(680.367 358.006)"><ellipse cx="48.609" cy="46.473" rx="48.609" ry="46.473" fill="#f24b57"/><ellipse cx="37.6" cy="35.948" rx="37.6" ry="35.948" transform="translate(11.008 10.524)" fill="#fefefe"/><ellipse cx="26.432" cy="25.27" rx="26.432" ry="25.27" transform="translate(22.177 21.202)" fill="#f24b57"/><ellipse cx="15.294" cy="14.622" rx="15.294" ry="14.622" transform="translate(33.315 31.851)" fill="#fefefe"/><ellipse cx="7.681" cy="7.343" rx="7.681" ry="7.343" transform="translate(40.928 39.129)" fill="#f24b57"/></g><path d="M597.6,253.442c-2.093-1.957-5.539-1.787-8.323.194-1.075-3.244-3.754-5.418-6.6-5.076-3.37.4-5.686,4.181-5.175,8.434a21.024,21.024,0,0,0,6.472,12.363c1.027-.066,7.663-1.4,11.877-5.183a9.76,9.76,0,0,0,.935-.868C599.715,260.177,600.079,255.762,597.6,253.442Z" transform="translate(225.872 125.253)" fill="#f24b57"/><path d="M547.043,324.857c-.493-2.217-2.822-3.65-5.532-3.6.749-2.6-.028-5.226-2.042-6.277-2.386-1.244-5.594.189-7.165,3.2a16.669,16.669,0,0,0-1.3,10.987c.7.415,5.638,2.516,10.09,1.929a7.908,7.908,0,0,0,1-.149C545.408,330.209,547.625,327.484,547.043,324.857Z" transform="translate(195.23 168.448)" fill="#f24b57"/><path d="M408.02,171.48c-2.862-.132-5.375,2.233-6.211,5.547-2.922-1.772-6.371-1.689-8.315.417-2.3,2.493-1.615,6.871,1.534,9.778a21.028,21.028,0,0,0,12.946,5.21c.738-.718,4.925-6.035,5.676-11.649a9.579,9.579,0,0,0,.149-1.269C414,175.236,411.41,171.637,408.02,171.48Z" transform="translate(104.61 74.831)" fill="#f24b57"/><path d="M378.3,235.459c-2.664,1.056-3.981,4.245-3.378,7.61-3.393-.414-6.5,1.08-7.408,3.8-1.072,3.221,1.353,6.929,5.418,8.282a21.032,21.032,0,0,0,13.943-.576c.379-.958,2.007-7.528.382-12.952a9.771,9.771,0,0,0-.385-1.218C385.294,236.422,381.457,234.208,378.3,235.459Z" transform="translate(88.333 116.475)" fill="#f24b57"/><path d="M391.539,255.4c-2.05.119-3.663,1.992-4.012,4.416-2.215-1.046-4.667-.73-5.895.917-1.454,1.949-.639,5.016,1.822,6.853a15.063,15.063,0,0,0,9.614,2.75,17.921,17.921,0,0,0,3.176-8.724,7,7,0,0,0,.012-.915C396.079,257.632,393.968,255.261,391.539,255.4Z" transform="translate(97.266 129.75)" fill="#f24b57"/><g transform="translate(451.437 324.848)"><path d="M441.98,251.805a13.654,13.654,0,0,0,1.333-1.29c1.077-1.2,2.515-1.964,3.6-3.208,1.272-1.458,2.832-2.611,3.58-4.467a8.83,8.83,0,0,0,.071-5.64,8.279,8.279,0,0,0-2.1-3.815,4.578,4.578,0,0,0-4.035-1.289,4.706,4.706,0,0,0-1.778.862,8.886,8.886,0,0,0-3.127,5.377c-.405,1.944.119,4.083-.3,5.953-.331,1.486-1.727,3.089-2.495,4.429" transform="translate(-317.641 -210.403)" fill="#f4be90"/><path d="M481.756,319.016l2.31,2.361c-8.924,8.419-26.924,8.09-38.005,4.7-.43-.126-1.414-.491-2.816-1.036-9.252-3.521-36.44-14.552-36.44-15.94.1,20.133-5.592,39.785-11.222,59.109-1.287,4.431-3.041,16.422-9.162,13.179a8.408,8.408,0,0,1-1.641-1.15c-2.538-2.209-2.917-5.958-3.105-9.314q-1.988-37.053-.682-74.182c.126-3.684.379-7.637,2.625-10.565,4.455-5.767,13.393-4.164,20.435-2.271,18.606,4.973,37.539,6.3,56.346,9.745,5.819,1.061,11.852.984,17.557,2.538s11.386,5.288,12.913,11.007S487.588,320.039,481.756,319.016Z" transform="translate(-354.457 -177.584)" fill="#43496d"/><path d="M448.576,313.559q-3.313,2.558-6.848,4.816a3.387,3.387,0,0,1-3.044.293c-7.572-2.932-22.513-8.992-30.134-12.6a3.4,3.4,0,0,0-4.832,2.956c-.852,18.151-6,35.921-11.1,53.421-.268.923-.556,2.176-.9,3.549-1.07,4.272-7.48,2.832-6.634-1.489q.238-1.214.48-2.425,6.74-33.81,10.7-68.106a3.366,3.366,0,0,1,3.885-2.97,49.7,49.7,0,0,1,10.486,3.66A374.5,374.5,0,0,0,447.505,307.6,3.407,3.407,0,0,1,448.576,313.559Z" transform="translate(-351.491 -171.827)" fill="#15233a" opacity="0.356" style="mix-blend-mode:multiply;isolation:isolate"/><g transform="translate(40.578 113.166)"><path d="M499.444,325.251a60.465,60.465,0,0,1-15.566,12.64A190.145,190.145,0,0,1,446.956,354.5c-11.066,3.588-15.27,11.392-19.335,21.66-5.756,14.541-12.5,28.769-18.733,43.112-3.878,8.924-9.883,19.31-19.613,19.2,3.344-19.036,7.531-37.913,11.973-56.718,3.752-15.892,5.208-37.841,16.109-50.728,7.135-8.434,17.145-13.958,26.735-19.118,9.64-5.187,18.8-11.086,28.165-16.5,6.793-3.924,13.978-7.959,21.822-8.057,13.882-.172,15.983,13.326,12.9,24.2A36.626,36.626,0,0,1,499.444,325.251Z" transform="translate(-389.275 -287.352)" fill="#43496d"/></g><path d="M503.105,282.26c-.232,1.092-.48,2.2-.761,3.325a264.747,264.747,0,0,1-13.616,39.325,42.732,42.732,0,0,1-3.822,7.064,2.828,2.828,0,0,1-1.158,1.092c-.645.265-1.357-.083-2.052-.149q-6.13-.62-11.382-1.34c-3.954-.546-7.544-1.125-10.836-1.737-1.34-.248-2.614-.5-3.855-.761-17.917-3.739-25.428-8.322-28.522-11.118-.1-.1-.2-.182-.3-.281a6.971,6.971,0,0,1-1.754-2.283s3.673-6.237,5.443-9.149c4.831-7.875,8.95-16.048,13.136-24.3,2.631-5.162,5.029-10.439,7.66-15.585,2.5-4.9,7.528-9.381,11.449-13.219a18.478,18.478,0,0,1,3.9-3.094,18.92,18.92,0,0,1,7.428-1.638,26.717,26.717,0,0,1,8.041.149,22.521,22.521,0,0,1,2.68.794,45.293,45.293,0,0,1,9.563,4.1,24,24,0,0,1,9.529,11.267C505.322,268.264,504.727,274.766,503.105,282.26Z" transform="translate(-325.286 -199.82)" fill="#0090c6"/><path d="M485.2,268.78c-.232,1.092-.48,2.2-.761,3.325a264.747,264.747,0,0,1-13.616,39.325A42.732,42.732,0,0,1,467,318.5a2.828,2.828,0,0,1-1.158,1.092c-.645.265-1.357-.083-2.051-.149q-6.13-.62-11.382-1.34C476.6,294.7,471.535,283.686,485.2,268.78Z" transform="translate(-307.381 -186.34)" fill="#0090c6" opacity="0.277" style="mix-blend-mode:multiply;isolation:isolate"/><path d="M472.213,270.838a1.924,1.924,0,0,0,.738-2.791c-1.229-3.339,6.161-14.541,2.614-14.274-13,.979-24.932,8.81-34.457,17.1,4.308-4.948,7.066-10.994,9.242-17.126,1-2.822,1.683-5.736,3.183-8.289,1.474-2.506-.63-3.532-2.664-4.889a4.259,4.259,0,0,0-1.238-.634c-2.445-.649-6.525,3.358-8.287,4.793a52.717,52.717,0,0,0-7.078,6.977,52.154,52.154,0,0,0-9.546,16.983c-1.78,5.344-4.457,14.2,2.043,17.2a15.341,15.341,0,0,0,6.432,1.142,36.963,36.963,0,0,0,7.945-.85c1.954-.428,3.87-1.016,5.784-1.6l4.669-1.429a44.984,44.984,0,0,0,5.981-2.144,40.206,40.206,0,0,0,7.615-5.031C467.446,274.2,469.906,272.6,472.213,270.838Z" transform="translate(-326.868 -205.262)" fill="#0090c6"/><path d="M477.258,253.252a67.35,67.35,0,0,1-1.471,6.939c-1.046,2.758-2.508,5.428-3.746,8.107a20.719,20.719,0,0,0-1.909,9.25c.108,1.982,1.252,4.217,1.828,6.113q1,3.278,1.919,6.578a34.516,34.516,0,0,1-1.41,19.239,181.052,181.052,0,0,1-12.858,26.56,14.78,14.78,0,0,0-1.929,4.257c-1.009,4.766,3.081,4.569,6.075,2.616A79.39,79.39,0,0,0,478.012,330.3a74.411,74.411,0,0,0,14-20.677,36.843,36.843,0,0,0,3.246-10.666C498.534,267.205,480.051,255.912,477.258,253.252Z" transform="translate(-304.033 -196.501)" fill="#0090c6"/><g transform="translate(155.634 31.168)"><path d="M476.407,245.8a160.726,160.726,0,0,0-5.145,15.353c-2.2,7.825-14.377,4.483-12.177-3.358.314-1.142.645-2.25.993-3.392.033-.149.083-.314.132-.463.662-2.1,1.34-4.169,2.085-6.237.05-.149.116-.314.165-.463.563-1.6,1.158-3.21,1.787-4.8,1.241-3.193,4.186-5.393,7.759-4.417C475.05,238.866,477.647,242.622,476.407,245.8Z" transform="translate(-458.82 -237.789)" fill="#f4be90"/></g><path d="M472,243.6a12.866,12.866,0,0,1-7.544,6.171,18.532,18.532,0,0,1-4.881.86c.033-.149.083-.314.132-.463.662-2.1,1.34-4.169,2.085-6.237a17.113,17.113,0,0,0,6.551.017A13.063,13.063,0,0,1,472,243.6Z" transform="translate(-302.689 -202.847)" fill="#f4be90" style="mix-blend-mode:multiply;isolation:isolate"/><path d="M403.038,351.526a3.072,3.072,0,0,0,.486-.465c1-1.193.96-2.907.93-4.462a60.775,60.775,0,0,1,.3-7.258c.124-1.238,1.353-4.493-.706-4.483l-11.149.05a.742.742,0,0,0-.351.058c-.21.111-.263.384-.3.62a8.911,8.911,0,0,1-.85,3.372c-.718,1.027-2.561,1.492-3.709,1.719a26.458,26.458,0,0,1-4.679.328c-3.939.069-7.872.331-11.8.594a9.2,9.2,0,0,0-4.773,1.208c-2.123,1.494-2.268,3.774-.28,5.281,2.9,2.2,7.322,2.566,10.808,2.913,3.947.394,7.921.587,11.879.834q3.938.246,7.878.455C398.592,352.387,401.4,352.78,403.038,351.526Z" transform="translate(-364.748 -143.097)" fill="#252935"/><path d="M412.625,385.886a2.991,2.991,0,0,0,.485-.465c1.51-1.808,1.352-4.935,1.656-7.131q.588-4.234,1.459-8.421c-4.667.69-9.415-1.328-14.086-.66a8.854,8.854,0,0,1-1.613,4.209c-.847,1.161-1.863,1.345-3.251,1.618a26.474,26.474,0,0,1-4.679.328c-3.939.069-7.873.331-11.8.594a9.177,9.177,0,0,0-4.771,1.209c-2.123,1.492-2.268,3.774-.28,5.279,2.9,2.2,7.322,2.566,10.808,2.913,3.946.4,7.921.587,11.879.836q3.938.243,7.878.455C408.178,386.746,410.985,387.14,412.625,385.886Z" transform="translate(-358.474 -120.707)" fill="#252935"/><path d="M466.287,305.661a3.572,3.572,0,0,0-2.354-1.3c-2.334-.207-5.048,2.2-6.609,3.711a16.248,16.248,0,0,0-4.268,6.565c-.72,2.232-1.537,6.725.624,8.441,2.649,2.1,7.263-.849,9.232-2.707,3.377-3.185,6.022-8.547,4.27-13.2A5.033,5.033,0,0,0,466.287,305.661Z" transform="translate(-307.462 -163.063)" fill="#f4be90"/><path d="M465.716,227.581c.925,1.262.563,2.844.422,4.268a33.788,33.788,0,0,1-.447,4.339,15.407,15.407,0,0,1-4.449,7.782c-1.13,1.056-2.786,1.972-4.156,1.256-1.234-.647-1.537-2.263-1.565-3.656a22.524,22.524,0,0,1,3.224-12.031c.97-1.6,2.392-3.218,4.263-3.277A3.286,3.286,0,0,1,465.716,227.581Z" transform="translate(-305.347 -214.165)" fill="#563624"/><path d="M469.527,227.81c-5.15-.344-9.586,3.815-11.865,8.52a19,19,0,0,0-2,10.347,12.882,12.882,0,0,0,5.1,9.083c3.176,2.212,7.316,2.465,11.012,1.6a17.24,17.24,0,0,0,6.158-2.756q1.042-.749,2.113-1.459c.48-.316.892-.938,1.415-1.12a4.855,4.855,0,0,1,1.041-.162,5.721,5.721,0,0,0,2.526-.923,3.534,3.534,0,0,0,1.343-1.514,4.576,4.576,0,0,0,.281-1.31,36.008,36.008,0,0,1,.45-4.488c.422-1.833.668-3.959-.48-5.458-.9-1.175-2.344-1.59-3.461-2.473-1.231-.973-1.436-2.616-2.379-3.888-2.111-2.852-6.05-4.522-9.17-3.051" transform="translate(-305.318 -213.164)" fill="#f4be90"/><path d="M475.168,227.085a9.12,9.12,0,0,0-3.972-6.8,8.415,8.415,0,0,0-8.945-.086c-5.718,3.7-3.559,11.976,1.34,15.33,4.464,3.056,13.75.892,16.046,7.079,1.216,3.279-1.56,6.753-1.357,10.244.983-.083,1.626-1.024,2.219-1.815s1.54-1.582,2.463-1.229a2.268,2.268,0,0,1,1.147,1.9,5.534,5.534,0,0,1-.281,3.034,3.1,3.1,0,0,1-2.28,1.881c-.524.074-1.059-.018-1.588.007a4.859,4.859,0,0,0-3.741,2.528c-.824,1.375-2.1,4.113.328,2.877a22.638,22.638,0,0,0,3.7-2.538,24.028,24.028,0,0,0,7.617-10.191,14.749,14.749,0,0,0,.338-9.334,5.746,5.746,0,0,0-1.342-2.51,2.667,2.667,0,0,0-2.629-.746,19.924,19.924,0,0,0-.52-4.768,6.72,6.72,0,0,0-2.619-3.908,5.126,5.126,0,0,0-5.906.339A8.651,8.651,0,0,0,475.168,227.085Z" transform="translate(-303.177 -218.949)" fill="#563624"/></g><g transform="translate(536.706 297.204)"><path d="M444.82,230.484a2.436,2.436,0,0,0-.552.931,91.239,91.239,0,0,0-4.285,13.517c-.283,1.213-.485,2.654.372,3.557a2.587,2.587,0,0,0,2.9.377,6.481,6.481,0,0,0,2.3-2.056c3.534-4.536,5.637-10.039,7.013-15.623" transform="translate(-400.943 -183.757)" fill="#f24b57"/><path d="M476.557,246.6c-.811,3.21-2.813,6.171-6.055,6.7a9.533,9.533,0,0,1-4.1-.38c-2.8-.794-5.675-2.366-8.057-3.077a46.474,46.474,0,0,0-5.774-1.373,55.1,55.1,0,0,0-6.006-.695c-7.974-.5-15.949.381-23.923.48l18.265-43a109.828,109.828,0,0,0,13.55,19.654,50.669,50.669,0,0,0,4.7,4.533c1.042.893,2.134,1.754,3.226,2.6a48.321,48.321,0,0,0,8.6,5.84c.529.248,1.075.5,1.6.761a8.78,8.78,0,0,1,2.746,1.936A6.653,6.653,0,0,1,476.557,246.6Z" transform="translate(-412.132 -200.264)" fill="#f54b56"/><path d="M447.252,223.228a41.028,41.028,0,0,1-7.456,18.614c-4.685,6.293-10.653,9.594-15.684,7.923-7.5-2.5-10.052-15.057-5.7-28.072,4.333-13,13.92-21.507,21.395-19.021C445.814,204.693,448.637,213.2,447.252,223.228Z" transform="translate(-416.289 -202.24)" fill="#505982"/><path d="M444.136,222.295c-.05.347-.1.711-.165,1.059a4.858,4.858,0,0,1-.083.48,32.71,32.71,0,0,1-1.241,4.9A35.034,35.034,0,0,1,440,234.753c-.2.347-.4.695-.6,1.026a26.279,26.279,0,0,1-1.638,2.449c-4.02,5.393-9.116,8.222-13.434,6.783-6.4-2.134-8.586-12.888-4.864-24.039,3.706-11.118,11.912-18.4,18.3-16.279C442.912,206.429,445.327,213.708,444.136,222.295Z" transform="translate(-415.396 -200.875)" fill="#252935"/><path d="M438.107,219.295c-.015.132-.041.253-.068.385a26.024,26.024,0,0,1-1,3.937,28.183,28.183,0,0,1-2.128,4.842c-.16.28-.319.559-.48.824-1.037-.026-3.059-.185-4.057-.212-.213-.013-.438-.026-.652-.026-.865-.055-3.431-.266-3.671-.293.04,0,.24-.026.346-.519.079-.333.185-.652.293-.971.438-1.463.931-2.913,1.436-4.349,1.011-2.874,2.116-5.734,2.887-8.687.227-.3.478-.6.692-.917C432.094,213.534,436.83,218.07,438.107,219.295Z" transform="translate(-409.897 -194.997)" fill="url(#f)"/><path d="M434.392,219.874a13.993,13.993,0,0,1-2.545,6.356c-1.6,2.149-3.635,3.276-5.35,2.7-2.558-.855-3.43-5.142-1.946-9.586s4.75-7.344,7.3-6.494C433.9,213.545,434.865,216.449,434.392,219.874Z" transform="translate(-411.355 -195.39)" fill="#ffb200"/><path d="M459.248,233.395c-.811,3.21-2.812,6.171-6.055,6.7a9.532,9.532,0,0,1-4.1-.381c3.276-2.73,6.005-8.024,6.187-14.278a8.78,8.78,0,0,1,2.746,1.936A6.653,6.653,0,0,1,459.248,233.395Z" transform="translate(-394.823 -187.06)" fill="#252935"/></g><g transform="translate(650.413 288.199)"><path d="M512.959,196.8a274.316,274.316,0,0,1-23.235,63.765" transform="translate(-481.938 -196.797)" fill="none" stroke="#ff7900" stroke-miterlimit="10" stroke-width="4" opacity="0.283" style="mix-blend-mode:multiply;isolation:isolate"/><path d="M511.358,222.284a274.363,274.363,0,0,1-26.34,62.545" transform="translate(-485.018 -180.118)" fill="none" stroke="#ff7900" stroke-miterlimit="10" stroke-width="4" opacity="0.283" style="mix-blend-mode:multiply;isolation:isolate"/><path d="M497.911,208.454A152.028,152.028,0,0,1,488.9,234.8" transform="translate(-482.477 -189.169)" fill="none" stroke="#ff7900" stroke-miterlimit="10" stroke-width="4" opacity="0.283" style="mix-blend-mode:multiply;isolation:isolate"/></g><g transform="translate(536.255 504.59)"><path d="M416.016,387.874a294.524,294.524,0,0,0,71.936-60.1" transform="translate(-416.016 -327.473)" fill="none" stroke="#ff7900" stroke-miterlimit="10" stroke-width="6" opacity="0.283" style="mix-blend-mode:multiply;isolation:isolate"/><path d="M461.585,345.522a58.934,58.934,0,0,1-16.834,18.03" transform="translate(-397.211 -315.86)" fill="none" stroke="#ff7900" stroke-miterlimit="10" stroke-width="6" opacity="0.283" style="mix-blend-mode:multiply;isolation:isolate"/><path d="M464.4,327.593a156.364,156.364,0,0,1-36.478,32.238" transform="translate(-408.223 -327.593)" fill="none" stroke="#ff7900" stroke-miterlimit="10" stroke-width="3"/></g><path d="M489.124,215.422c-2.907.926-6.236,2.713-9.137,3.253-2.7.5-2.842-1.611-1.16-3.261,2.338-2.291,4.92-4.437,7.3-6.715q33.035-31.589,63.028-66.168c.675,3.484-6.292,36.9-10.282,49.762C538.391,193.852,494.757,213.629,489.124,215.422Z" transform="translate(160.624 55.889)" fill="#ffb200" opacity="0.302" style="mix-blend-mode:screen;isolation:isolate"/><path d="M482.209,276.873c-3.342,17.338-15.254,31.616-27.4,44.52-17.917-3.739-25.428-8.322-28.522-11.118l.017-.05c8.5-10.721,17.024-21.474,24.37-33.022,3.474-5.46,6.866-11.283,12.309-14.774s13.682-3.64,17.553,1.539C483.219,267.542,483.07,272.489,482.209,276.873Z" transform="translate(126.963 132.716)" fill="#ffb200" opacity="0.134" style="mix-blend-mode:screen;isolation:isolate"/><g transform="translate(668.676 404.931)"><path d="M498.814,319.242Q526.355,293.3,553.9,267.355" transform="translate(-494.253 -267.355)" fill="none" stroke="#2c2c2d" stroke-miterlimit="10" stroke-width="2"/><path d="M496.057,299.723q2.3-.561,4.616-1.014l-.526,4.568" transform="translate(-496.057 -246.836)" fill="none" stroke="#2c2c2d" stroke-miterlimit="10" stroke-width="2"/></g><path d="M686.349,172.493l-5.557-.781a18.909,18.909,0,0,0-1.142-4.212l4.589-3.456a1.566,1.566,0,0,0,.308-2.192l-4.386-5.822a1.566,1.566,0,0,0-2.192-.308l-4.659,3.509a18.974,18.974,0,0,0-3.636-2.1l.829-5.891a1.563,1.563,0,0,0-1.332-1.767l-7.217-1.016a1.566,1.566,0,0,0-1.769,1.332l-.829,5.891a18.9,18.9,0,0,0-4.022.994l-3.6-4.776a1.565,1.565,0,0,0-2.192-.308l-5.822,4.386a1.564,1.564,0,0,0-.308,2.19l3.527,4.684a18.921,18.921,0,0,0-2.219,3.6l-5.792-.814a1.564,1.564,0,0,0-1.767,1.33l-1.016,7.218a1.568,1.568,0,0,0,1.332,1.769l5.6.786a18.812,18.812,0,0,0,1,4.285L639.59,184.4a1.566,1.566,0,0,0-.308,2.192l4.386,5.82a1.565,1.565,0,0,0,2.192.309l4.33-3.263a18.964,18.964,0,0,0,3.891,2.381l-.754,5.364a1.566,1.566,0,0,0,1.332,1.769l7.217,1.014a1.564,1.564,0,0,0,1.769-1.332l.741-5.269a18.824,18.824,0,0,0,4.477-1.128l3.231,4.288a1.565,1.565,0,0,0,2.192.309l5.822-4.386a1.566,1.566,0,0,0,.308-2.192l-3.241-4.3a18.94,18.94,0,0,0,2.268-3.931l5.456.768a1.565,1.565,0,0,0,1.767-1.332l1.016-7.218A1.565,1.565,0,0,0,686.349,172.493Zm-25.834,12.36a10.434,10.434,0,1,1,11.789-8.873A10.432,10.432,0,0,1,660.515,184.853Z" transform="translate(264.288 59.757)" opacity="0.174" fill="url(#g)"/><path d="M610.667,153.439l-5.557-.783a18.888,18.888,0,0,0-1.14-4.21l4.588-3.458a1.563,1.563,0,0,0,.309-2.19l-4.386-5.822a1.565,1.565,0,0,0-2.192-.308l-4.659,3.509a18.972,18.972,0,0,0-3.637-2.1l.829-5.891a1.566,1.566,0,0,0-1.332-1.769l-7.218-1.014a1.564,1.564,0,0,0-1.767,1.332l-.829,5.89a19,19,0,0,0-4.022,1l-3.6-4.776a1.565,1.565,0,0,0-2.19-.309l-5.822,4.386a1.565,1.565,0,0,0-.308,2.192l3.527,4.684a18.834,18.834,0,0,0-2.219,3.6l-5.792-.816a1.568,1.568,0,0,0-1.769,1.332l-1.014,7.218A1.563,1.563,0,0,0,561.8,156.9l5.6.788a18.918,18.918,0,0,0,1,4.285l-4.483,3.378a1.563,1.563,0,0,0-.308,2.19l4.386,5.822a1.563,1.563,0,0,0,2.19.308l4.331-3.261a18.792,18.792,0,0,0,3.891,2.379l-.756,5.365a1.568,1.568,0,0,0,1.332,1.769l7.218,1.014a1.563,1.563,0,0,0,1.767-1.332l.741-5.269a18.819,18.819,0,0,0,4.479-1.128l3.231,4.288a1.563,1.563,0,0,0,2.19.308l5.822-4.386a1.565,1.565,0,0,0,.309-2.19l-3.243-4.3a18.8,18.8,0,0,0,2.268-3.931l5.456.768a1.567,1.567,0,0,0,1.769-1.332L612,155.206A1.563,1.563,0,0,0,610.667,153.439ZM584.834,165.8a10.434,10.434,0,1,1,11.789-8.873A10.433,10.433,0,0,1,584.834,165.8Z" transform="translate(214.761 47.288)" opacity="0.174" fill="url(#h)"/><path d="M686.554,251.468h-10.99a37.085,37.085,0,0,0-3.362-7.857l7.956-7.954a3.063,3.063,0,0,0,0-4.335l-10.094-10.1a3.066,3.066,0,0,0-4.335,0l-8.079,8.079a37.111,37.111,0,0,0-7.625-3.084V214.57a3.065,3.065,0,0,0-3.065-3.064H632.686a3.065,3.065,0,0,0-3.066,3.064v11.65a37.169,37.169,0,0,0-7.529,3.029l-8.282-8.282a3.063,3.063,0,0,0-4.335,0l-10.094,10.094a3.063,3.063,0,0,0,0,4.335l8.118,8.118a37.081,37.081,0,0,0-3.322,7.585H592.724a3.065,3.065,0,0,0-3.066,3.064v14.274a3.065,3.065,0,0,0,3.066,3.066h11.065a36.985,36.985,0,0,0,3.105,8.037l-7.774,7.774a3.065,3.065,0,0,0,0,4.336l10.094,10.094a3.066,3.066,0,0,0,4.335,0l7.508-7.509a36.932,36.932,0,0,0,8.2,3.555V308.4a3.064,3.064,0,0,0,3.066,3.064h14.274a3.065,3.065,0,0,0,3.066-3.064V297.979a37.014,37.014,0,0,0,8.376-3.41l7.435,7.437a3.067,3.067,0,0,0,4.335,0l10.094-10.1a3.062,3.062,0,0,0,0-4.333l-7.46-7.461a36.949,36.949,0,0,0,3.325-8.244h10.792a3.065,3.065,0,0,0,3.066-3.064V254.534A3.065,3.065,0,0,0,686.554,251.468Zm-46.731,31.02a20.435,20.435,0,1,1,20.445-20.425A20.435,20.435,0,0,1,639.823,282.489Z" transform="translate(233.873 101.028)" opacity="0.174" fill="url(#i)"/><path d="M551.293,329.2A341.21,341.21,0,0,1,442.98,451.8" transform="translate(137.885 178.049)" fill="none" stroke="#ff7900" stroke-miterlimit="10" stroke-width="1"/><path d="M513.2,353.425a208.76,208.76,0,0,1-28.428,36.467" transform="translate(165.235 193.902)" fill="none" stroke="#ff7900" stroke-miterlimit="10" stroke-width="1"/><g transform="translate(382.214 602.628)"><path d="M414.207,389.143q-33.666,22.615-65.05,48.4" transform="translate(-305.729 -385.351)" fill="none" stroke="#ff7900" stroke-miterlimit="10" stroke-width="1"/><path d="M383.9,393.55a264.458,264.458,0,0,0-30.976,24.1" transform="translate(-303.263 -382.467)" fill="none" stroke="#ff7900" stroke-miterlimit="10" stroke-width="1"/><path d="M401.2,386.851q-40.52,26.372-78.29,56.677" transform="translate(-322.907 -386.851)" fill="none" stroke="#ff7900" stroke-miterlimit="10" stroke-width="1"/></g><path d="M443.575,242.8a6.745,6.745,0,0,0,3.943-4.275c.748-2.065.68-4.171-1.305-5.408a4.236,4.236,0,0,0-2.182-.771c-1.375,0-2.493,1.085-3.327,2.18a12.763,12.763,0,0,0-1.759,3.018c-.346.869-.879,2.311-.486,3.234C439.232,242.6,441.833,243.37,443.575,242.8Z" transform="translate(134.835 114.667)" fill="#f4be90"/><path d="M412.65,182.009a326.3,326.3,0,0,0,17.631,38.905" transform="translate(118.036 81.725)" fill="none" stroke="#43496d" stroke-linecap="round" stroke-linejoin="round" stroke-width="1" stroke-dasharray="1 5"/><path d="M377.637,190.138a244.5,244.5,0,0,0,63.225,41.6" transform="translate(95.123 87.044)" fill="none" stroke="#43496d" stroke-linecap="round" stroke-linejoin="round" stroke-width="1" stroke-dasharray="1 5"/><path d="M362.056,205.425c22.814,11.007,64.928,19.856,90.017,23.342" transform="translate(84.927 97.048)" fill="none" stroke="#43496d" stroke-linecap="round" stroke-linejoin="round" stroke-width="1" stroke-dasharray="1 5"/><path d="M384.672,224.959c16.2.872,32.539,1.739,48.569-.758" transform="translate(99.727 109.336)" fill="none" stroke="#43496d" stroke-linecap="round" stroke-linejoin="round" stroke-width="1" stroke-dasharray="1 5"/><g transform="translate(504.108 360.173)"><path d="M411.524,269.237c-8.472-5.8-10.7-15.674-5.848-24.666,1.99-3.693-4.065-6.116-6.039-2.457a24.551,24.551,0,0,0,7.979,32.341c3.451,2.363,7.384-2.839,3.908-5.218Z" transform="translate(-396.585 -240.301)" fill="#ffb200"/><g transform="translate(11.705 4.412)"><path d="M414.207,258.96c-2.943-1.946-5.516-7.3-3.527-10.653,2.116-3.57-3.076-7.524-5.22-3.908-3.77,6.361-1.362,15.679,4.839,19.779,3.483,2.3,7.422-2.9,3.908-5.218Z" transform="translate(-403.66 -242.968)" fill="#ffb200"/></g><g transform="translate(22.568 9.695)"><path d="M414.685,252.446c3.865-1.63,1.338-7.638-2.533-6.007s-1.338,7.64,2.533,6.007Z" transform="translate(-410.226 -246.161)" fill="#ffb200"/></g></g></g></g></svg>