<svg xmlns="http://www.w3.org/2000/svg" width="108" height="108" viewBox="0 0 108 108"><g transform="translate(-387 -2447)"><rect width="108" height="108" transform="translate(387 2447)" opacity="0"/><g transform="translate(2278.157 3704.84)"><path d="M-1837.213-1181.887s0,0,0,0a2.767,2.767,0,0,1-.292-1.171c0,.029-.009.057-.011.085h-8.906c-.248,0-.5,0-.739.015a1.574,1.574,0,0,0-1.5,1.631,1.607,1.607,0,0,0,1.493,1.651c.243.024.491.009.736.009q6.139,0,12.279,0A3.647,3.647,0,0,1-1837.213-1181.887Zm13.377-15.129a2.07,2.07,0,0,1-1.3.291,1.861,1.861,0,0,0,1.392-.322c.079-.048.16-.094.241-.14Zm4.373-1.791a13.154,13.154,0,0,0-1.644.489c-.1.044-.2.088-.307.134a14.034,14.034,0,0,1,1.734-.552,2.573,2.573,0,0,0,.366-.116Zm19.173,0a3.3,3.3,0,0,0-.684-.723c-.061-.053-.105-.068-.112-.127v-1.063q0-16.821,0-33.644a10.313,10.313,0,0,0-1.269-5.355c-1.479-2.521-3.575-4.108-6.615-4.11q-31.176-.01-62.354-.009a6.87,6.87,0,0,0-4.461,1.576,8.673,8.673,0,0,0-3.345,6.929q-.063,23.591-.015,47.182a8.333,8.333,0,0,0,.853,3.641c1.49,3.086,3.832,4.892,7.4,4.851,2.9-.035,5.8-.007,8.7-.009.219,0,.441.013.658-.007a1.715,1.715,0,0,0,1.534-1.646,1.679,1.679,0,0,0-1.532-1.635c-.272-.024-.546-.015-.82-.018-2.872,0-5.743-.011-8.615,0a4.314,4.314,0,0,1-3.838-2.109,6.671,6.671,0,0,1-1.041-3.735q-.01-14.565,0-29.129a5.734,5.734,0,0,1,.064-.616h71.269a2.606,2.606,0,0,1,.046.357q-.007,8.039-.024,16.08a.008.008,0,0,1,0,.007c-.425.094-.822.153-1.192.232a3.692,3.692,0,0,1,3.235,1.046c.715.68,1.385,1.4,2.1,2.082a3.767,3.767,0,0,1,.511,4.724A3.691,3.691,0,0,0-1800.29-1198.809Zm-4.182-23.578a2.891,2.891,0,0,1-.046.351h-71.3c-.013-.224-.033-.408-.033-.592,0-4.02-.011-8.04,0-12.06a6.6,6.6,0,0,1,1.226-4,4.2,4.2,0,0,1,3.56-1.848h61.35c.246,0,.491,0,.737.007a4.06,4.06,0,0,1,3.007,1.456,5.693,5.693,0,0,1,1.48,3.728C-1804.454-1231.028-1804.474-1226.708-1804.472-1222.387Z" transform="translate(0)" fill="#555"/><path d="M-1726.236-1073.523c-1.351-1.523-2.638-2.973-3.923-4.423a1.62,1.62,0,0,1-.42-1.729,1.654,1.654,0,0,1,2.61-.765,2.747,2.747,0,0,1,.352.342c1.436,1.612,2.85,3.245,4.313,4.832a2.406,2.406,0,0,1,.029,3.45c-1.467,1.62-2.907,3.266-4.36,4.9a1.716,1.716,0,0,1-1.587.67,1.646,1.646,0,0,1-1.078-2.68c.431-.563.933-1.071,1.4-1.6C-1728.026-1071.509-1727.156-1072.487-1726.236-1073.523Z" transform="translate(-115.932 -127.296)" fill="#91ddea"/><path d="M-1832.79-1073.521c1.3,1.461,2.547,2.871,3.8,4.273a1.8,1.8,0,0,1,.564,1.7,1.642,1.642,0,0,1-2.572.988,2.9,2.9,0,0,1-.472-.451q-2.129-2.382-4.252-4.77a2.625,2.625,0,0,1-.76-1.506,2.37,2.37,0,0,1,.65-1.873q1.8-2.015,3.594-4.04c.345-.387.678-.787,1.045-1.153a1.588,1.588,0,0,1,1.747-.357,1.56,1.56,0,0,1,1.055,1.346,1.8,1.8,0,0,1-.55,1.479q-1.72,1.923-3.427,3.859C-1832.49-1073.883-1832.609-1073.736-1832.79-1073.521Z" transform="translate(-33.315 -127.284)" fill="#91ddea"/><path d="M-1778.413-1069.44a1.632,1.632,0,0,1-1.615-2.052c.575-2.5,1.174-4.988,1.767-7.48q.7-2.943,1.415-5.882a3.578,3.578,0,0,1,.215-.7,1.645,1.645,0,0,1,2-.844,1.6,1.6,0,0,1,1.12,1.855c-.391,1.784-.82,3.559-1.242,5.336q-.974,4.1-1.96,8.191a3.664,3.664,0,0,1-.168.548A1.627,1.627,0,0,1-1778.413-1069.44Z" transform="translate(-77.363 -122.863)" fill="#926cdc"/><path d="M-1771.885-966.138a1.683,1.683,0,0,1,1.727,1.594,1.7,1.7,0,0,1-1.71,1.7,1.684,1.684,0,0,1-1.672-1.648A1.633,1.633,0,0,1-1771.885-966.138Z" transform="translate(-82.468 -216.831)" fill="#91ddea"/><path d="M-1667.136-1200.434c-2.4,0-4.809-.019-7.213,0a5.65,5.65,0,0,1-5.522-4.462,5.6,5.6,0,0,1,4.13-6.505,6.858,6.858,0,0,1,1.459-.168q7.212-.018,14.425,0a5.532,5.532,0,0,1,5.507,4.269,5.53,5.53,0,0,1-4.036,6.686,6.963,6.963,0,0,1-1.538.172C-1662.328-1200.424-1664.732-1200.434-1667.136-1200.434Zm0-3.319c2.241,0,4.482.005,6.723,0a5.727,5.727,0,0,0,1.219-.11,2.18,2.18,0,0,0,1.674-2.235,2.174,2.174,0,0,0-1.968-2.066c-.271-.024-.546-.021-.819-.021q-6.763,0-13.527,0c-.245,0-.492,0-.737.012a2.157,2.157,0,0,0-2.061,2.052,2.157,2.157,0,0,0,1.8,2.285,6.048,6.048,0,0,0,1.058.085C-1671.559-1203.75-1669.346-1203.754-1667.132-1203.754Z" transform="translate(-155.521 -25.191)" fill="#91ddea"/><path d="M-1757.753-1205.907a5.552,5.552,0,0,1-5.581,5.549,5.541,5.541,0,0,1-5.526-5.541,5.5,5.5,0,0,1,5.56-5.585A5.5,5.5,0,0,1-1757.753-1205.907Zm-7.742-.039a2.2,2.2,0,0,0,2.219,2.244,2.239,2.239,0,0,0,2.211-2.195,2.195,2.195,0,0,0-2.245-2.22A2.15,2.15,0,0,0-1765.495-1205.946Z" transform="translate(-86.121 -25.264)" fill="#555"/><path d="M-1834.412-1205.928a5.516,5.516,0,0,1,5.563-5.565,5.486,5.486,0,0,1,5.537,5.519,5.532,5.532,0,0,1-5.531,5.61A5.564,5.564,0,0,1-1834.412-1205.928Zm5.573-2.191a2.187,2.187,0,0,0-2.258,2.2,2.243,2.243,0,0,0,2.2,2.206,2.226,2.226,0,0,0,2.245-2.228A2.164,2.164,0,0,0-1828.84-1208.119Z" transform="translate(-34.936 -25.257)" fill="#555"/><g transform="translate(-1823.481 -1198.184)"><path d="M-1623.467-1009.12c.285.121.572.232.864.331C-1622.892-1008.9-1623.179-1009.006-1623.467-1009.12Zm-1.683-25.446c.682-.346,1.37-.68,2.067-.984A16.021,16.021,0,0,0-1625.15-1034.566Z" transform="translate(1625.15 1035.55)"/></g><g transform="translate(-1837.509 -1206.062)"><path d="M-1628.39-1020.96a10.127,10.127,0,0,1,10.154,10.061,10.168,10.168,0,0,1-10.058,10.174,10.113,10.113,0,0,1-10.192-10.12A10.077,10.077,0,0,1-1628.39-1020.96Zm6.785,10.122a6.743,6.743,0,0,0-6.742-6.79,6.768,6.768,0,0,0-6.786,6.761,6.74,6.74,0,0,0,6.754,6.782A6.724,6.724,0,0,0-1621.6-1010.838Z" transform="translate(1649.59 1032.037)" fill="#926cdc"/><path d="M-1646.944-1052.91a3.653,3.653,0,0,0-3.176-2.586c-.32-.044-.642-.07-.947-.1-.412-.988-.811-1.94-1.221-2.922.132-.147.276-.307.421-.465,0,0,0,0,0,0,.066-.07.127-.145.184-.217s.114-.147.166-.223a.338.338,0,0,0,.02-.031,3.767,3.767,0,0,0-.51-4.724c-.71-.682-1.381-1.4-2.1-2.082a3.691,3.691,0,0,0-3.235-1.046.019.019,0,0,0-.011,0c-.037.007-.075.015-.112.024s-.081.017-.12.028a2.958,2.958,0,0,0-.3.088,3.723,3.723,0,0,0-.484.208q-.079.039-.158.085c-.2.12-.388.256-.579.4a.262.262,0,0,0-.029.022c-.215.158-.425.324-.649.478l-2.926-1.219c-.009-.138-.015-.285-.026-.434a.171.171,0,0,0,0-.035c0-.053-.006-.107-.011-.16-.007-.081-.015-.16-.026-.237,0-.033-.009-.063-.013-.094-.011-.074-.024-.149-.039-.221a.28.28,0,0,0-.009-.042c-.013-.07-.031-.14-.048-.21a.511.511,0,0,0-.017-.061c-.018-.068-.037-.136-.059-.2a4.116,4.116,0,0,0-.226-.548c-.011-.024-.024-.048-.035-.07s-.024-.044-.037-.068c0,0,0-.007,0-.009l-.02-.033a.66.66,0,0,0-.037-.066.551.551,0,0,0-.037-.061c-.02-.033-.039-.064-.062-.094a.723.723,0,0,0-.046-.07c-.017-.026-.037-.053-.055-.077,0,0,0,0,0,0-.031-.039-.059-.079-.09-.116s-.068-.083-.105-.125-.077-.083-.116-.123-.083-.083-.127-.123-.094-.086-.142-.125a.689.689,0,0,0-.064-.05,1.409,1.409,0,0,0-.114-.086,3.783,3.783,0,0,0-1.834-.655,18.63,18.63,0,0,0-3.685-.007,3.7,3.7,0,0,0-3.4,3.6c-.009.105-.016.21-.022.313s-.011.215-.018.316l-2.926,1.219c-.1-.068-.2-.14-.294-.213-.07-.062-.14-.125-.211-.189a3.821,3.821,0,0,0-2.468-1.039,3.755,3.755,0,0,0-2.7,1.1c-.714.679-1.385,1.4-2.1,2.082a3.752,3.752,0,0,0-.033,5.3c.151.147.283.316.392.441-.419,1.006-.816,1.955-1.208,2.893l-.245.013h-.018c-.252.026-.513.05-.772.086a4.7,4.7,0,0,0-.807.182.543.543,0,0,0-.061.022,3.829,3.829,0,0,0-2.415,3.818c.026.791.009,1.585,0,2.378,0,.182-.031.366-.055.581a2.766,2.766,0,0,0,.292,1.171s0,0,0,0a3.648,3.648,0,0,0,3.058,2.218c.094.011.191.017.289.022.213.011.427.026.636.039l1.221,2.931c-.149.167-.309.346-.467.528a3.71,3.71,0,0,0,.109,5.186c.645.671,1.335,1.3,1.964,1.981a3.748,3.748,0,0,0,2.858,1.192c.033,0,.066,0,.1,0a3.906,3.906,0,0,0,2.525-1.076c.136-.123.272-.243.386-.349.962.4,1.913.787,2.911,1.2.011.219.029.46.04.7a3.7,3.7,0,0,0,3.641,3.59c.984.013,1.969.007,2.953,0a4.214,4.214,0,0,0,.629-.046,3.7,3.7,0,0,0,3.294-3.571c.011-.241.029-.482.039-.7.984-.4,1.924-.791,2.873-1.182.121.109.274.245.423.381a3.719,3.719,0,0,0,3.814.872s0,0,.009,0a3.68,3.68,0,0,0,1.659-1.032c.629-.684,1.319-1.311,1.964-1.981a3.709,3.709,0,0,0,.109-5.186c-.158-.182-.318-.362-.467-.528l1.221-2.931.211-.013c.14-.009.283-.02.425-.026a3.669,3.669,0,0,0,3.347-2.24c.09-.186.2-.362.3-.544v-4.759A1.607,1.607,0,0,1-1646.944-1052.91Zm-3.325,4.388a3.424,3.424,0,0,1-.6.109c-.491.022-.984,0-1.475.013a2.315,2.315,0,0,0-.535.075.341.341,0,0,0-.066.018,1.527,1.527,0,0,0-1.177,1.263,15.945,15.945,0,0,1-1.78,4.292,1.661,1.661,0,0,0,.259,2.175c.239.263.506.5.752.756.226.232.439.471.71.765v0l-2.5,2.49c-.392-.134-.66-.535-.982-.852-.885-.875-1.284-1.186-1.916-1.059a2.837,2.837,0,0,0-1.133.434c-.221.127-.443.248-.669.362,0,0-.007.007-.011,0-.857.406-1.764.717-2.65,1.065-.145.042-.292.081-.438.118a1.846,1.846,0,0,0-1.668,2.155c0,.568,0,1.138,0,1.668-.046.017-.1.035-.156.052l-.039.011a8.311,8.311,0,0,1-3.435-.088c0-.53,0-1.1,0-1.668a1.846,1.846,0,0,0-1.668-2.155q-.569-.142-1.116-.331a.016.016,0,0,1-.009,0c-.292-.1-.579-.21-.864-.331a16.145,16.145,0,0,1-1.78-.884,2.051,2.051,0,0,0-1.546-.4c-.43.064-.824.4-1.5,1.074-.322.318-.589.719-.982.853l-2.291-2.28c-.072-.085-.142-.171-.213-.259.269-.294.484-.535.71-.767.245-.257.513-.493.752-.756a1.661,1.661,0,0,0,.259-2.174,15.946,15.946,0,0,1-1.78-4.292,1.6,1.6,0,0,0-1.721-1.333c-.438-.013-.877.009-1.313-.009-.263-.009-.522-.064-.82-.1v-3.58c.153-.015.3-.037.443-.053.092-.009.184-.017.274-.02.41-.011.82,0,1.229,0a2.5,2.5,0,0,0,.835-.136,1.84,1.84,0,0,0,1.12-1.37c.25-.835.524-1.664.842-2.472a12.538,12.538,0,0,1,.754-1.453,1.781,1.781,0,0,0-.331-2.562c-.4-.408-.8-.809-1.182-1.2-.02-.022-.04-.042-.059-.061,0,0,0-.007,0-.011a8.017,8.017,0,0,1,2.61-2.558.137.137,0,0,1,.037.026c.436.414.861.837,1.3,1.247a2.017,2.017,0,0,0,.964.554c.013,0,.031,0,.046.009a2.07,2.07,0,0,0,1.3-.292l.333-.171.022-.013a16.035,16.035,0,0,1,2.067-.984c.1-.046.2-.09.307-.134a13.141,13.141,0,0,1,1.644-.489l.149-.046c.048-.018.094-.035.138-.055a1.687,1.687,0,0,0,.993-1.512c.031-.327,0-.658.009-.984.009-.375.028-.75.042-1.1a13.09,13.09,0,0,1,3.58-.033.187.187,0,0,0,.033.009c.013.348.033.723.042,1.1.006.327-.022.657.009.984a2.125,2.125,0,0,0,.244.842,1.692,1.692,0,0,0,1.254.89,15.191,15.191,0,0,1,4.064,1.69,1.74,1.74,0,0,0,2.433-.313c.063-.061.125-.123.188-.182.359-.344.712-.693,1.074-1.034a7.875,7.875,0,0,1,2.639,2.545l.02.039-.289.294a.1.1,0,0,0-.015.015.245.245,0,0,1-.022.026c-.158.167-.322.327-.487.487-.037.037-.077.077-.114.116-.105.105-.208.213-.313.32-.031.031-.062.064-.09.094l-.079.086s-.006.009-.011.013c-.042.048-.081.092-.116.138-.024.031-.048.059-.068.09-.5.671-.467,1.225.033,2.141a12.518,12.518,0,0,1,.754,1.453c.318.809.592,1.637.841,2.473a1.823,1.823,0,0,0,1.955,1.506c.41.007.82-.007,1.229,0,.233.007.465.046.717.072Z" transform="translate(1689.15 1071.492)" fill="#926cdc"/></g></g></g></svg>