<svg xmlns="http://www.w3.org/2000/svg" width="40.574" height="40.575" viewBox="0 0 40.574 40.575">
  <g id="python" transform="translate(0 -0.001)">
    <path id="Path_255" data-name="Path 255" d="M18.231,7.36h0V7.353Z" transform="translate(12.59 5.077)" fill="#fff"/>
    <path id="Path_256" data-name="Path 256" d="M30.58,25.777c2.817,0,3.858-1.964,4.837-4.909,1.014-3.033.97-5.951,0-9.836-.7-2.8-2.019-4.909-4.837-4.909H26.95v4.3a6.213,6.213,0,0,1-6.049,6.14H11.228a4.935,4.935,0,0,0-4.837,4.918V30.7c0,2.625,2.282,4.166,4.837,4.918a16.288,16.288,0,0,0,9.672,0c2.436-.707,4.837-2.13,4.837-4.918V27.009H16.071V25.778H30.58Zm-9.073,3.687A1.844,1.844,0,1,1,19.686,31.3,1.832,1.832,0,0,1,21.507,29.464Z" transform="translate(4.413 4.227)" fill="#fff"/>
    <path id="Path_257" data-name="Path 257" d="M5.822,30.006H9.146V25.585a6.151,6.151,0,0,1,6.049-6.015h9.672A4.876,4.876,0,0,0,29.7,14.652V5.425C29.7,2.8,27.494.831,24.867.39A29.821,29.821,0,0,0,15.195.4l0,0c-4.095.724-4.835,2.235-4.835,5.033V9.119h9.682v1.232H6.728A6.044,6.044,0,0,0,.679,15.26a18.147,18.147,0,0,0,0,9.836C1.366,27.958,3.007,30.006,5.822,30.006ZM14.59,6.655A1.844,1.844,0,1,1,16.41,4.816,1.832,1.832,0,0,1,14.59,6.655Z" transform="translate(0 0)" fill="#fff"/>
  </g>
</svg>
