<svg xmlns="http://www.w3.org/2000/svg" width="140" height="140" viewBox="0 0 140 140"><g transform="translate(-4712 -2447)"><rect width="140" height="140" transform="translate(4712 2447)" opacity="0"/><g transform="translate(5904.847 2638.091)"><path d="M-1082.643-129.716a8.423,8.423,0,0,1-.018-6.12,10.92,10.92,0,0,0,.672-3.283,10.442,10.442,0,0,0-3.918-8.837,8.273,8.273,0,0,1-3.033-5.308,10.7,10.7,0,0,0-8.739-8.807,8.656,8.656,0,0,1-5.463-3.123,10.626,10.626,0,0,0-12.058-3.188,8.422,8.422,0,0,1-6.12.008,10.767,10.767,0,0,0-3.286-.67,10.487,10.487,0,0,0-8.892,4,7.464,7.464,0,0,1-4.879,2.88,10.914,10.914,0,0,0-9.268,9.283,7.415,7.415,0,0,1-2.677,4.691,12.136,12.136,0,0,0-1.969,1.994,10.587,10.587,0,0,0-1.593,10.292,7.981,7.981,0,0,1,.587,3.941,14.181,14.181,0,0,1-.62,2.345,10.769,10.769,0,0,0-.381,5.907,10.513,10.513,0,0,0,3.722,6.128,7.749,7.749,0,0,1,2.962,5.039,10.608,10.608,0,0,0,3.434,6.4,3.408,3.408,0,0,1,.346.434,6.652,6.652,0,0,0,3.279,1.856c.993.2,1.909.376,2.817.577a7,7,0,0,1,3.677,2.125c2.6,2.789,2.6,2.787,6,4.324a6.074,6.074,0,0,0,4.116.421c1.207-.359,2.29-.655,3.351-1.006a7.3,7.3,0,0,1,4.605-.025c1.126.356,2.262.68,3.562,1.066a6.112,6.112,0,0,0,4.126-.542c.248-.1.446-.183.65-.258.045-.018.093-.035.138-.055h.005a10.382,10.382,0,0,0,4.455-3.226,7.543,7.543,0,0,1,5.122-2.977,21.187,21.187,0,0,0,2.064-.482,6.757,6.757,0,0,0,3.223-1.972c.208-.178.381-.311.537-.464a10.5,10.5,0,0,0,3.176-6.033,8.1,8.1,0,0,1,3.013-5.217A10.678,10.678,0,0,0-1082.643-129.716Zm-5.709,9.271a11.235,11.235,0,0,0-3.991,6.078c-.118.487-.206.978-.3,1.47a7.027,7.027,0,0,1-5.824,5.742,11.581,11.581,0,0,0-7.452,4.277,6.932,6.932,0,0,1-8.037,2.162,11.617,11.617,0,0,0-6.717-.567,18.479,18.479,0,0,0-1.879.584,7,7,0,0,1-7.974-2.12,11.547,11.547,0,0,0-4.894-3.662,15.405,15.405,0,0,0-2.446-.627,7.135,7.135,0,0,1-6.048-6.075,10.879,10.879,0,0,0-3.968-7.011,7.354,7.354,0,0,1-2.887-5.172,7.69,7.69,0,0,1,.562-3.482,10.956,10.956,0,0,0,0-7.884,9.065,9.065,0,0,1-.5-1.9,6.956,6.956,0,0,1,2.406-6.384,23.139,23.139,0,0,0,1.959-1.884,10.745,10.745,0,0,0,2.416-5.406,6.976,6.976,0,0,1,5.99-6.105,11.577,11.577,0,0,0,7.354-4.282,7.348,7.348,0,0,1,5.985-2.659,18.275,18.275,0,0,1,2.23.574,11.069,11.069,0,0,0,8.238-.03,7.2,7.2,0,0,1,8.348,2.263,10.685,10.685,0,0,0,5.947,3.853c.484.123.976.208,1.467.3a7.008,7.008,0,0,1,5.709,5.737,11.437,11.437,0,0,0,2.5,5.769,22.038,22.038,0,0,0,1.959,1.881,6.978,6.978,0,0,1,2.461,5.739,6.966,6.966,0,0,1-.454,2.19,11.579,11.579,0,0,0,.005,8.594A6.916,6.916,0,0,1-1088.352-120.446Z" transform="translate(-4.71)" fill="#555"/><path d="M-954.789,106.085a1.807,1.807,0,0,1-2.012.65q-2.491-.666-4.979-1.337t-4.974-1.339a4.749,4.749,0,0,0-.529-.073c-.093.3-.2.584-.273.878-.8,2.955-1.625,5.9-2.37,8.87a3.317,3.317,0,0,1-1.382,2.1h-1.126a3.371,3.371,0,0,1-1.472-1.508q-6.1-10.61-12.228-21.2c-.171-.293-.351-.582-.434-.715a6.112,6.112,0,0,0,4.126-.542c.863,1.891,9.369,16.455,9.916,16.967.156-.557.311-1.089.454-1.625.517-1.929,1.048-3.855,1.535-5.792a1.977,1.977,0,0,1,2.616-1.555c.62.206,1.264.346,1.9.514l5.867,1.555c-3.346-5.8-6.6-11.433-9.85-17.062a6.757,6.757,0,0,0,3.223-1.972c.191.341.351.637.519.931l11.152,19.33c.156.271.326.534.469.813A1.835,1.835,0,0,1-954.789,106.085Z" transform="translate(-130.562 -188.782)" fill="#555"/><path d="M-1128.65,92.894c-.1.166-.281.454-.451.75q-6.122,10.6-12.228,21.2a3.409,3.409,0,0,1-1.472,1.508h-1.126a3.3,3.3,0,0,1-1.385-2.1c-.745-2.967-1.57-5.915-2.368-8.87-.073-.268-.155-.534-.248-.863-.233.038-.442.05-.64.1q-4.617,1.23-9.231,2.471a7.89,7.89,0,0,1-.911.221,1.867,1.867,0,0,1-1.994-2.564,7.36,7.36,0,0,1,.484-.908q5.576-9.662,11.157-19.325c.173-.3.336-.6.522-.926a6.652,6.652,0,0,0,3.279,1.856c-3.236,5.6-6.484,11.233-9.828,17.027,2.689-.725,5.155-1.4,7.625-2.052,1.53-.4,2.37.1,2.784,1.645.512,1.9,1.013,3.8,1.523,5.7.143.529.3,1.051.519,1.8,3.364-5.822,6.615-11.456,9.873-17.1A6.074,6.074,0,0,0-1128.65,92.894Z" transform="translate(0 -189.299)" fill="#555"/><path d="M-1107.264-89.924c.6-10.451,5.359-18,14.814-22.453a5.971,5.971,0,0,1,.875-.333,1.87,1.87,0,0,1,2.2.984A1.827,1.827,0,0,1-1090-109.4a6.015,6.015,0,0,1-.918.463c-6.834,3.1-11.025,8.343-12.226,15.736a20.55,20.55,0,0,0,15.78,23.36,20.609,20.609,0,0,0,24.82-15.894A20.541,20.541,0,0,0-1074.5-108.9c-.258-.112-.523-.211-.77-.344a1.838,1.838,0,0,1-.909-2.382,1.831,1.831,0,0,1,2.4-1.02,22.293,22.293,0,0,1,6.521,3.827,24.133,24.133,0,0,1,8.669,15.418,24.464,24.464,0,0,1-18.362,27.149,24.437,24.437,0,0,1-29.779-19.11C-1107.019-86.894-1107.1-88.464-1107.264-89.924Z" transform="translate(-40.142 -42.183)" fill="#91ddea"/><path d="M-1056.54-62.74c.321-.307.549-.517.769-.737q3.487-3.483,6.971-6.968c1.256-1.253,2.169-1.246,3.441.023q2.592,2.585,5.173,5.181a1.941,1.941,0,0,1,0,3.164q-7.36,7.375-14.735,14.735c-1.107,1.1-2.069,1.117-3.161.029q-5.254-5.233-10.487-10.487a1.914,1.914,0,0,1-.016-3.094q2.707-2.736,5.443-5.442a1.917,1.917,0,0,1,3.033.01C-1058.923-65.168-1057.769-63.98-1056.54-62.74Zm9.316-4.094c-.215.259-.4.518-.617.738q-3.478,3.49-6.968,6.968c-1.248,1.244-2.172,1.233-3.437-.026-.953-.949-1.9-1.9-2.854-2.853-.168-.167-.357-.313-.476-.416l-3.034,3.04,8.056,8.068,12.416-12.418Z" transform="translate(-68.537 -73.202)" fill="#926cdc"/><path d="M-1015.123-119.028a1.843,1.843,0,0,1,1.836,1.862,1.908,1.908,0,0,1-1.859,1.865,1.91,1.91,0,0,1-1.882-1.936A1.844,1.844,0,0,1-1015.123-119.028Z" transform="translate(-107.743 -37.505)" fill="#91ddea"/></g></g></svg>