<svg xmlns="http://www.w3.org/2000/svg" width="77.914" height="77.909" viewBox="0 0 77.914 77.909"><path d="M20.248,9.824a13.343,13.343,0,0,0-1.889.078c-.836.08-1.67.2-2.536.311-.947.224-1.6.406-2.06.547a4.426,4.426,0,0,0-.971.375l-.007,0,0,0c-.166.073-.322.139-.475.212a22.05,22.05,0,0,0-5.061,3.114,20.23,20.23,0,0,0-5.9,8.189A24.706,24.706,0,0,0,.181,26.914c-.053.271-.017.557-.046.833A1.11,1.11,0,0,1,0,28.061v2.283a2.169,2.169,0,0,0,1.172,1.048h19.5l.918-.926V10.9a1.576,1.576,0,0,0-1.341-1.075m-1.7,18.451c-.577.12-14.523.139-15.323.025.327-7.737,7.413-14.893,15.323-15.28Z" transform="translate(0 -3.717)" fill="#91ddea"/><path d="M85.7,15.857a2.633,2.633,0,0,0-.851-2.009Q78.565,7.6,72.306,1.322A7.237,7.237,0,0,0,70.776,0H24.218a3.993,3.993,0,0,1-.578.276A4.516,4.516,0,0,0,20.566,4.5c.01.959,0,1.919,0,2.918v0a.038.038,0,0,1,.009,0,4.352,4.352,0,0,1,.969-.375C22,6.9,22.661,6.721,23.607,6.5c0-.084,0-.165,0-.247,0-.534-.016-1.039,0-1.542A1.619,1.619,0,0,1,25.3,3.041c.1,0,.2,0,.3,0q21.261,0,42.524,0c.219,0,.437.023.675.036v.812c0,2.815.009,5.629-.006,8.444a4.279,4.279,0,0,0,.467,1.963,4.38,4.38,0,0,0,4.122,2.582c2.864.027,5.731.006,8.595.009.219,0,.436.023.669.036v55.9a3.978,3.978,0,0,1,0,.455,1.615,1.615,0,0,1-1.614,1.581c-.175.017-.354,0-.532,0H25.8c-.178,0-.354.01-.532,0a1.628,1.628,0,0,1-1.66-1.692c-.007-.153,0-.305,0-.455v-8.6c0-1.242-.015-2.487.006-3.727A1.533,1.533,0,0,0,22.843,59a3.078,3.078,0,0,0-.752-.247c-.078.025-.126.042-.173.055a1.52,1.52,0,0,0-1.348,1.709c0,4.286-.026,8.571.01,12.857A4.366,4.366,0,0,0,23.271,77.5a5.03,5.03,0,0,0,2.207.408Q52.14,77.894,78.8,77.9c.787,0,1.574.016,2.359,0a4.44,4.44,0,0,0,3.845-2.167,4.956,4.956,0,0,0,.688-2.742q-.02-28.565,0-57.132M79.83,13.846c-2.027,0-4.057,0-6.085.006a2.11,2.11,0,0,1-1.159-.27,1.588,1.588,0,0,1-.743-1.334c-.017-.328,0-.657,0-.987V5.345C74.687,8.19,77.5,11,80.316,13.82c-.147.009-.316.027-.486.027" transform="translate(-7.785)" fill="#555"/><path d="M9.879,37.175H27.222c.046-.043.066-.06.082-.079s.037-.041.037-.061c0-5.778,0-11.556,0-17.3a5.594,5.594,0,0,1,.383-.619,1.249,1.249,0,0,1,.974-.506,19.091,19.091,0,0,1,3.462.25,20.092,20.092,0,0,1,3.907,1.066,20.369,20.369,0,0,1,4.63,2.511,20.9,20.9,0,0,1,3.4,3.131,19.281,19.281,0,0,1,2.444,3.542,20.119,20.119,0,0,1,2.073,5.714,18.778,18.778,0,0,1,.318,5.429A20.141,20.141,0,0,1,41.1,54.609a19.643,19.643,0,0,1-8.886,3.885,21.552,21.552,0,0,1-4.07.273,19.212,19.212,0,0,1-4.39-.652,20.133,20.133,0,0,1-12.6-9.921,19.511,19.511,0,0,1-2-5.5,18.315,18.315,0,0,1-.375-3.83,1.579,1.579,0,0,1,.864-1.55c.068-.034.13-.076.236-.14m2.034,3.037A16.852,16.852,0,0,0,17.039,50.92a16.657,16.657,0,0,0,10.817,4.769,16.419,16.419,0,0,0,9.221-2.09,16.958,16.958,0,0,0,7.381-8.059A16.727,16.727,0,0,0,41.91,27.864c-.2.19-.4.378-.593.571Q35.858,33.893,30.4,39.353a2.712,2.712,0,0,1-2.077.876c-5.171-.035-10.341-.017-15.512-.017Zm18.52-5.348c.808-.644,8.948-8.835,9.244-9.3a15.013,15.013,0,0,0-4.011-2.5,15.974,15.974,0,0,0-5.233-1.33Z" transform="translate(-3.323 -7.046)" fill="#926cdc"/><path d="M78.879,85.947l-8.734,8.734A4.571,4.571,0,1,1,61.6,97.916a4.971,4.971,0,0,1,.16-3.319l-5.678-5.686a4.359,4.359,0,0,1-4.01.152.976.976,0,0,0-.142.01.16.16,0,0,0-.067.034l-5.451,5.529a4.531,4.531,0,0,1-.019,3.769,4.568,4.568,0,1,1-7.9-4.508,4.518,4.518,0,0,1,5.626-1.541l5.58-5.6c-.726-2.265-.323-4.3,1.839-5.726a4.569,4.569,0,0,1,6.72,5.38l5.87,5.878a8.529,8.529,0,0,1,1.8-.34,5.817,5.817,0,0,1,1.932.415l8.793-8.793a4.486,4.486,0,0,1,.383-4.1,4.2,4.2,0,0,1,2.156-1.831,4.563,4.563,0,1,1-.311,8.313m3.089-5.154-.6-.386h-.857A1.647,1.647,0,0,0,79.4,81.872c.149.69.4,1.294,1.173,1.415a1.418,1.418,0,0,0,1.538-.56,1.5,1.5,0,0,0-.14-1.933M65.928,98.041c1.136-.355,1.6-.89,1.483-1.694a1.464,1.464,0,0,0-1.487-1.335,1.563,1.563,0,0,0-1.455,1.3c-.118.806.362,1.386,1.46,1.731M54.463,86.312c.866-.593,1.164-1.352.811-2.065a1.565,1.565,0,0,0-1.863-.749,1.518,1.518,0,0,0-.951,1.7c.147.828.835,1.2,2,1.112M42.221,95a1.517,1.517,0,0,0-.04,3.031A1.516,1.516,0,1,0,42.221,95" transform="translate(-14.255 -29.273)" fill="#91ddea"/><path d="M79.477,35.5a8.044,8.044,0,0,1,.579-.989,1.234,1.234,0,0,1,1.069-.471c.126.006.253,0,.38,0q8.926,0,17.851,0a2.511,2.511,0,0,1,.754.039,1.526,1.526,0,0,1,1.031,1.027c.045.143.073.291.114.459-.032.119-.064.266-.109.408a1.471,1.471,0,0,1-1.45,1.1c-.1,0-.2,0-.3,0q-9,0-18,.009a1.644,1.644,0,0,1-1.51-.678,6.045,6.045,0,0,1-.4-.909" transform="translate(-30.095 -12.886)" fill="#555"/><path d="M101.268,47.265a3.214,3.214,0,0,1-.133.564,1.478,1.478,0,0,1-1.381,1c-.127,0-.253,0-.38,0q-8.964,0-17.927.009a1.672,1.672,0,0,1-1.528-.642,5.7,5.7,0,0,1-.419-.9,6.522,6.522,0,0,1,.481-.939,1.354,1.354,0,0,1,1.18-.567c.709.014,1.418,0,2.127,0h15.8c.177,0,.354,0,.532,0a1.454,1.454,0,0,1,1.555,1.244,2.32,2.32,0,0,0,.093.226" transform="translate(-30.104 -17.339)" fill="#555"/><path d="M90.683,58.641V59.5a1.826,1.826,0,0,1-1.9,1.1c-2.4-.031-4.811-.052-7.215.009a1.766,1.766,0,0,1-1.971-1.687,5.879,5.879,0,0,1,.47-.861,1.331,1.331,0,0,1,1.126-.515q3.95.012,7.9,0a1.69,1.69,0,0,1,1.594,1.094" transform="translate(-30.139 -21.791)" fill="#555"/><path d="M23.611,87.25a1.517,1.517,0,1,1-1.52-1.533,1.527,1.527,0,0,1,1.52,1.533" transform="translate(-7.792 -32.458)" fill="#926cdc"/><path d="M106.842,59.087c-.334,1.107-.909,1.6-1.722,1.491a1.527,1.527,0,0,1-.03-3.022c.834-.127,1.417.374,1.753,1.532" transform="translate(-39.305 -21.787)" fill="#555"/><path d="M21.559,11.336l-.97.375a4.39,4.39,0,0,1,.97-.375" transform="translate(-7.796 -4.293)" fill="#555"/></svg>