<svg xmlns="http://www.w3.org/2000/svg" width="56.027" height="42.612" viewBox="0 0 56.027 42.612"><g transform="translate(-1.8 55.2)" fill="#926cdc" stroke-linejoin="round"><path d="M 15.67063140869141 -13.58776760101318 L 15.67063140869141 -14.11848068237305 C 11.99581432342529 -14.31214237213135 8.95649528503418 -15.5880651473999 6.626001834869385 -17.91855812072754 C 5.341311454772949 -19.20328712463379 4.367761611938477 -20.84416770935059 3.732411623001099 -22.79561805725098 C 3.113711595535278 -24.6959285736084 2.80001163482666 -26.94401741027832 2.800001621246338 -29.47746849060059 C 2.800001621246338 -33.59831619262695 3.282471656799316 -37.22290802001953 4.234021663665771 -40.25055694580078 C 5.18026876449585 -43.26142883300781 6.277330875396729 -45.75885391235352 7.49500560760498 -47.67392730712891 C 8.883818626403809 -49.92953491210938 10.47220611572266 -51.86899185180664 12.21618175506592 -53.43856811523438 L 12.8383617401123 -53.99852752685547 L 13.49909210205078 -53.48462677001953 L 15.77038192749023 -51.71805953979492 L 16.44669151306152 -51.19203948974609 L 16.03060150146484 -50.44306945800781 C 14.4343318939209 -47.56976699829102 13.58498191833496 -44.79361724853516 13.50614166259766 -42.19172668457031 C 13.44158363342285 -40.0609245300293 13.51365375518799 -38.79563522338867 13.61578369140625 -38.04627227783203 C 14.4413366317749 -38.21706008911133 15.45196914672852 -38.30086898803711 16.67063140869141 -38.30086898803711 C 20.12718200683594 -38.30086898803711 23.08215141296387 -37.09850692749023 25.45343208312988 -34.72718811035156 C 27.82472229003906 -32.35587692260742 29.02707099914551 -29.40089797973633 29.02707099914551 -25.94432830810547 C 29.02707099914551 -22.48777770996094 27.82472229003906 -19.53278732299805 25.45343208312988 -17.16145706176758 C 23.0821418762207 -14.79015827178955 20.1271915435791 -13.58779811859131 16.67064094543457 -13.58777809143066 L 15.67063140869141 -13.58776760101318 Z M 44.47105026245117 -14.09252834320068 L 43.47105026245117 -14.09252834320068 L 43.47105026245117 -14.62321090698242 C 39.79621887207031 -14.81687355041504 36.75689697265625 -16.09280395507813 34.42642211914063 -18.42329788208008 C 33.14171981811523 -19.70801734924316 32.16817092895508 -21.34889793395996 31.53282165527344 -23.30034828186035 C 30.91412162780762 -25.20065879821777 30.60041236877441 -27.44875717163086 30.60041236877441 -29.98220825195313 C 30.60041236877441 -34.10302734375 31.08288192749023 -37.72761917114258 32.03443145751953 -40.75527954101563 C 32.98063278198242 -43.76596832275391 34.07776641845703 -46.26350784301758 35.29533386230469 -48.17855453491211 C 36.68418502807617 -50.43416976928711 38.27265548706055 -52.37375259399414 40.0165901184082 -53.94330978393555 L 40.63877105712891 -54.50327682495117 L 41.29950332641602 -53.9893684387207 L 43.57079315185547 -52.22280883789063 L 44.24710083007813 -51.6967887878418 L 43.83101272583008 -50.94781875610352 C 42.2347526550293 -48.07452774047852 41.38540267944336 -45.29836654663086 41.30655288696289 -42.69647979736328 C 41.24199295043945 -40.56565475463867 41.31406402587891 -39.30036544799805 41.41619491577148 -38.55101013183594 C 42.24172210693359 -38.7217903137207 43.25230026245117 -38.80558776855469 44.47090148925781 -38.80558776855469 C 47.92758178710938 -38.80558776855469 50.88254165649414 -37.60323715209961 53.25384140014648 -35.23192977905273 C 55.6251335144043 -32.86062622070313 56.82748031616211 -29.90564727783203 56.82748031616211 -26.44905853271484 C 56.82748031616211 -22.99249839782715 55.6251335144043 -20.03750801086426 53.25384140014648 -17.66618728637695 C 50.88253021240234 -15.29487800598145 47.92758178710938 -14.09252834320068 44.47105026245117 -14.09252834320068 Z" stroke="none"/><path d="M 16.67063140869141 -14.58777809143066 C 19.86726188659668 -14.58779811859131 22.55916213989258 -15.68138790130615 24.74632263183594 -17.86855888366699 C 26.93348121643066 -20.05575752258301 28.02707099914551 -22.74767875671387 28.02707099914551 -25.94432830810547 C 28.02707099914551 -29.14098739624023 26.93348121643066 -31.83290863037109 24.74632263183594 -34.02008819580078 C 22.55916213989258 -36.20727920532227 19.86726188659668 -37.30086898803711 16.67063140869141 -37.30086898803711 C 14.98820209503174 -37.30086898803711 13.72637176513672 -37.13262939453125 12.88515186309814 -36.79612731933594 C 12.54867172241211 -37.63735961914063 12.42249202728271 -39.44599914550781 12.50660133361816 -42.22201919555664 C 12.59072208404541 -44.99806976318359 13.47401142120361 -47.90030670166016 15.1564416885376 -50.92870712280273 L 12.88515186309814 -52.69527816772461 C 11.20272159576416 -51.18108749389648 9.688531875610352 -49.33040618896484 8.342571258544922 -47.1431884765625 C 7.164871692657471 -45.29253768920898 6.113341808319092 -42.89504623413086 5.188011646270752 -39.95072937011719 C 4.26267147064209 -37.0064582824707 3.800001621246338 -33.51535797119141 3.800001621246338 -29.47746849060059 C 3.80001163482666 -24.5983772277832 4.97771167755127 -20.98111724853516 7.333111763000488 -18.62566757202148 C 9.688521385192871 -16.2702579498291 12.80103206634521 -15.09254837036133 16.67063140869141 -15.09252834320068 L 16.67063140869141 -14.58777809143066 M 44.47105026245117 -15.09252834320068 C 47.66767120361328 -15.09252834320068 50.35956192016602 -16.18611717224121 52.54673004150391 -18.37328720092773 C 54.73390197753906 -20.56048774719238 55.82748031616211 -23.25240707397461 55.82748031616211 -26.44905853271484 C 55.82748031616211 -29.64570808410645 54.73390197753906 -32.337646484375 52.54673004150391 -34.52481842041016 C 50.35956192016602 -36.71199798583984 47.66767120361328 -37.80558776855469 44.47105026245117 -37.80558776855469 C 44.470947265625 -37.80558776855469 44.47100448608398 -37.80558776855469 44.47090148925781 -37.80558776855469 C 42.78861618041992 -37.80558776855469 41.52672958374023 -37.63733673095703 40.68556213378906 -37.30086898803711 C 40.34908294677734 -38.1420783996582 40.222900390625 -39.95071792602539 40.30701065063477 -42.72676849365234 C 40.39113998413086 -45.5028190612793 41.27442169189453 -48.40504837036133 42.95685195922852 -51.43345642089844 L 40.68556213378906 -53.20001983642578 C 39.00313186645508 -51.68581771850586 37.48894119262695 -49.83511734008789 36.14298248291016 -47.6479377746582 C 34.96528244018555 -45.79723739624023 33.91376113891602 -43.39974975585938 32.98842239379883 -40.45545959472656 C 32.06307983398438 -37.51116943359375 31.60041236877441 -34.02008819580078 31.60041236877441 -29.98220825195313 C 31.60041236877441 -25.10310745239258 32.77812194824219 -21.48584747314453 35.1335334777832 -19.13039779663086 C 37.48894119262695 -16.77496719360352 40.6014404296875 -15.59727764129639 44.47105026245117 -15.59725761413574 L 44.47105026245117 -15.09252834320068 M 16.67064094543457 -12.58777809143066 C 16.15643119812012 -12.58777809143066 15.66259956359863 -12.78583145141602 15.29116821289063 -13.13964557647705 C 11.50890350341797 -13.40302467346191 8.360899925231934 -14.76945018768311 5.918901920318604 -17.21145820617676 C 4.521701812744141 -18.60868835449219 3.466141700744629 -20.38330841064453 2.781541585922241 -22.48603820800781 C 2.130241632461548 -24.4864673614502 1.80001163482666 -26.83871841430664 1.800001740455627 -29.47746849060059 C 1.800001740455627 -33.70013809204102 2.297951698303223 -37.42559814453125 3.280021667480469 -40.55037689208984 C 4.251471519470215 -43.64142990112305 5.384345054626465 -46.21652221679688 6.647346496582031 -48.20451354980469 C 8.085330009460449 -50.53876113891602 9.733879089355469 -52.54985046386719 11.54722213745117 -54.18186950683594 C 12.26730251312256 -54.82993698120117 13.34832954406738 -54.86874389648438 14.11304187774658 -54.27397918701172 L 16.38433074951172 -52.50740814208984 C 17.16275215148926 -51.90196990966797 17.38367080688477 -50.81948852539063 16.90476226806641 -49.95742797851563 C 15.38681125640869 -47.2250862121582 14.57964134216309 -44.60214614868164 14.50568199157715 -42.16143798828125 C 14.46565055847168 -40.84017944335938 14.47969913482666 -39.88352966308594 14.51622486114502 -39.19525527954102 C 15.15961265563965 -39.26592636108398 15.87593173980713 -39.30086898803711 16.67063140869141 -39.30086898803711 C 20.40204238891602 -39.30086898803711 23.59491157531738 -37.99996948242188 26.16054153442383 -35.43428802490234 C 27.88104248046875 -33.71377182006836 29.03280067443848 -31.71116256713867 29.60489845275879 -29.45327568054199 C 29.60190773010254 -29.62830352783203 29.60041236877441 -29.80456352233887 29.60041236877441 -29.98220825195313 C 29.60041236877441 -34.20484924316406 30.09836196899414 -37.9303092956543 31.08043098449707 -41.05510711669922 C 32.05177307128906 -44.14577102661133 33.18447494506836 -46.7205924987793 34.44726943969727 -48.70849609375 C 35.88541793823242 -51.04310607910156 37.53409576416016 -53.05441284179688 39.34762191772461 -54.68659973144531 C 40.06771469116211 -55.33468246459961 41.14875030517578 -55.37348556518555 41.9134407043457 -54.77871704101563 L 44.18473052978516 -53.01215744018555 C 44.96316146850586 -52.40671920776367 45.18408203125 -51.32423782348633 44.70517349243164 -50.46217727661133 C 43.18723297119141 -47.7298469543457 42.38006210327148 -45.10689926147461 42.30609130859375 -42.66618728637695 C 42.26605987548828 -41.34491729736328 42.28010940551758 -40.38825988769531 42.31663513183594 -39.69998550415039 C 42.95999908447266 -39.77065277099609 43.67623901367188 -39.80558776855469 44.47090148925781 -39.80558776855469 C 48.20243072509766 -39.80558776855469 51.39530181884766 -38.50468826293945 53.96095275878906 -35.93902969360352 C 56.52659225463867 -33.37338638305664 57.82748031616211 -30.18049812316895 57.82748031616211 -26.44905853271484 C 57.82748031616211 -22.71764755249023 56.52659225463867 -19.52475738525391 53.96095275878906 -16.95908737182617 C 51.39529037475586 -14.39341831207275 48.20243072509766 -13.09252834320068 44.47105026245117 -13.09252834320068 C 43.93622970581055 -13.09252834320068 43.45046615600586 -13.30242538452148 43.09160995483398 -13.64437389373779 C 39.30932235717773 -13.90775299072266 36.16130065917969 -15.27418041229248 33.71931076049805 -17.71618843078613 C 32.32211303710938 -19.11340713500977 31.26655197143555 -20.88803863525391 30.58195114135742 -22.99076843261719 C 30.35146903991699 -23.69868469238281 30.16117858886719 -24.45073699951172 30.01151657104492 -25.24387741088867 C 29.85767555236816 -21.81226539611816 28.56410789489746 -18.85795974731445 26.16055107116699 -16.4543571472168 C 23.59490203857422 -13.88870811462402 20.40204238891602 -12.58779811859131 16.67064094543457 -12.58777809143066 Z" stroke="none" fill="#232323"/></g></svg>