<svg xmlns="http://www.w3.org/2000/svg" width="52.027" height="38.612" viewBox="0 0 52.027 38.612"><path d="M16.671-15.093a12.623,12.623,0,0,1-9.338-3.533Q3.8-22.159,3.8-29.477A35.1,35.1,0,0,1,5.188-39.951a30.571,30.571,0,0,1,3.155-7.192A25.086,25.086,0,0,1,12.885-52.7l2.271,1.767a19.178,19.178,0,0,0-2.65,8.707,16.689,16.689,0,0,0,.379,5.426,10.756,10.756,0,0,1,3.785-.5,10.975,10.975,0,0,1,8.076,3.281,10.976,10.976,0,0,1,3.281,8.076,10.976,10.976,0,0,1-3.281,8.076,10.976,10.976,0,0,1-8.076,3.281Zm27.8-.5a12.623,12.623,0,0,1-9.338-3.533Q31.6-22.664,31.6-29.982a35.1,35.1,0,0,1,1.388-10.473,30.572,30.572,0,0,1,3.155-7.192A25.087,25.087,0,0,1,40.686-53.2l2.271,1.767a19.178,19.178,0,0,0-2.65,8.707,16.689,16.689,0,0,0,.379,5.426,10.756,10.756,0,0,1,3.785-.5,10.976,10.976,0,0,1,8.076,3.281,10.976,10.976,0,0,1,3.281,8.076,10.976,10.976,0,0,1-3.281,8.076,10.976,10.976,0,0,1-8.076,3.281Z" transform="translate(-3.8 53.2)" fill="#926cdc"/></svg>