<svg xmlns="http://www.w3.org/2000/svg" width="46.218" height="41.266" viewBox="0 0 46.218 41.266">
  <g id="react" transform="translate(-6 -11)">
    <path id="Path_251" data-name="Path 251" d="M6,31.638c0-3.07,3.834-5.979,9.713-7.783-1.357-6.007-.754-10.786,1.9-12.316a4.122,4.122,0,0,1,2.11-.529v2.106a2.176,2.176,0,0,0-1.074.246c-1.281.737-1.837,3.542-1.4,7.15.1.888.273,1.823.48,2.777a45.548,45.548,0,0,1,5.982-1.029,46.051,46.051,0,0,1,3.919-4.723c-3.071-2.862-5.954-4.43-7.913-4.43V11c2.591,0,5.982,1.851,9.411,5.063,3.429-3.192,6.821-5.025,9.411-5.025v2.106c-1.95,0-4.842,1.559-7.913,4.4a44.583,44.583,0,0,1,3.891,4.713A43.878,43.878,0,0,1,40.508,23.3c.217-.944.377-1.861.49-2.739.443-3.608-.1-6.413-1.375-7.159a2.092,2.092,0,0,0-1.083-.246V11.047a4.191,4.191,0,0,1,2.129.529c2.647,1.53,3.241,6.3,1.875,12.288,5.86,1.813,9.675,4.713,9.675,7.773s-3.834,5.979-9.713,7.783c1.357,6.007.754,10.786-1.9,12.316a4.133,4.133,0,0,1-2.12.529c-2.591,0-5.982-1.851-9.411-5.063-3.429,3.192-6.821,5.025-9.411,5.025a4.191,4.191,0,0,1-2.129-.529c-2.647-1.53-3.241-6.3-1.875-12.288C9.815,37.607,6,34.7,6,31.638Zm12.266-6.3c.349,1.218.782,2.475,1.272,3.731.386-.756.791-1.511,1.234-2.267s.895-1.492,1.357-2.21C20.79,24.79,19.5,25.035,18.266,25.338ZM22.58,35.4c.735,1.275,1.488,2.484,2.27,3.608,1.4.123,2.826.189,4.258.189s2.845-.066,4.239-.18q1.173-1.686,2.28-3.589c.716-1.237,1.366-2.493,1.96-3.759C37,30.4,36.344,29.135,35.637,27.9c-.735-1.275-1.488-2.484-2.27-3.608-1.4-.123-2.826-.189-4.258-.189s-2.845.066-4.239.18q-1.173,1.686-2.28,3.589-1.074,1.856-1.96,3.759C21.224,32.894,21.874,34.159,22.58,35.4Zm-3.043-1.228c-.509,1.266-.942,2.531-1.3,3.759,1.234.3,2.534.557,3.881.756-.462-.727-.923-1.474-1.357-2.239S19.924,34.924,19.537,34.169ZM29.09,44.247a38.912,38.912,0,0,0,2.619-3.022c-.848.038-1.715.066-2.591.066s-1.762-.019-2.619-.066A36.848,36.848,0,0,0,29.09,44.247ZM36.1,38.684c1.338-.2,2.628-.444,3.862-.746-.348-1.219-.782-2.475-1.272-3.731-.386.756-.791,1.511-1.234,2.267S36.561,37.966,36.1,38.684ZM29.137,19.028a38.883,38.883,0,0,0-2.619,3.022c.848-.038,1.714-.066,2.591-.066s1.762.019,2.619.066A36.834,36.834,0,0,0,29.137,19.028Zm6.971,5.563c.461.727.923,1.473,1.356,2.239S38.3,28.341,38.69,29.1c.509-1.266.942-2.531,1.3-3.759C38.756,25.045,37.456,24.79,36.108,24.592Zm8.526,11.825c3.335-1.426,5.492-3.3,5.492-4.779s-2.157-3.362-5.492-4.779c-.81-.349-1.7-.661-2.609-.954a45.431,45.431,0,0,1-2.12,5.752A44.791,44.791,0,0,1,42,37.38C42.929,37.088,43.814,36.766,44.634,36.417Zm-5.068,13.5c1.281-.737,1.837-3.542,1.4-7.15-.1-.888-.273-1.823-.48-2.777a45.548,45.548,0,0,1-5.982,1.03,46.042,46.042,0,0,1-3.919,4.723c3.071,2.862,5.954,4.43,7.913,4.43A2.242,2.242,0,0,0,39.566,49.914Zm-22.346-7.2c-.443,3.608.1,6.413,1.375,7.159a2.092,2.092,0,0,0,1.083.246c1.95,0,4.842-1.558,7.913-4.4A44.584,44.584,0,0,1,23.7,41.007a43.9,43.9,0,0,1-5.992-1.039A26.481,26.481,0,0,0,17.22,42.717Zm-3.627-6.3c.81.349,1.7.661,2.61.954a45.442,45.442,0,0,1,2.12-5.752,44.8,44.8,0,0,1-2.091-5.724c-.933.293-1.818.614-2.647.963-3.335,1.426-5.492,3.3-5.492,4.779S10.258,35,13.593,36.417Z" fill="#fff"/>
    <path id="Path_252" data-name="Path 252" d="M36.751,42.572a4.316,4.316,0,1,1,4.305-4.316A4.311,4.311,0,0,1,36.751,42.572Z" transform="translate(-7.63 -6.619)" fill="#fff"/>
  </g>
</svg>
