<svg xmlns="http://www.w3.org/2000/svg" width="108" height="108" viewBox="0 0 108 108"><g transform="translate(-4241 -2447)"><rect width="108" height="108" transform="translate(4241 2447)" opacity="0"/><g transform="translate(4255.689 2461.689)"><path d="M-1510.416,379.462c.518.51.933.939,1.371,1.343a1.389,1.389,0,0,0,1.6.162q3.144-1.28,6.294-2.541c.759-.306,1.516-.615,2.279-.908a13.96,13.96,0,0,0,4.355-2.7q5.82-5.227,11.678-10.413a4.146,4.146,0,0,1,6.872,2.221,3.861,3.861,0,0,1-.862,3.442q-2.588,3.227-5.171,6.457c-1.707,2.13-3.445,4.238-5.117,6.395a16.268,16.268,0,0,1-6.389,4.969c-4.011,1.782-7.991,3.634-11.98,5.465a14.924,14.924,0,0,1-6.505,1.388c-1.611-.021-3.224-.055-4.833.007a21.219,21.219,0,0,1-7.575-1.06c-.7-.231-1.426-.374-2.119-.619a14.955,14.955,0,0,0-6.944-.6c-2.491.31-4.993.528-7.491.787-.13.014-.261.032-.472.058,0,.377,0,.725,0,1.074-.011,1.188-.457,1.655-1.619,1.657q-4.956.01-9.913,0c-1.112,0-1.573-.479-1.577-1.614-.007-2.376,0-4.752,0-7.127q0-5.816,0-11.633c0-.219-.012-.438.009-.655a1.3,1.3,0,0,1,1.274-1.248c.326-.025.655-.008.983-.008,3.031,0,6.063.033,9.093-.016,1.206-.02,1.872.615,1.755,1.789-.024.24,0,.484,0,.777.255.023.463.058.672.058q3.6.006,7.209,0a11.906,11.906,0,0,0,6.436-1.863c1.455-.916,2.933-1.8,4.361-2.752a16.952,16.952,0,0,1,6.745-2.572c4.249-.717,8.487-1.493,12.73-2.246a3.887,3.887,0,0,1,4.1,1.41,3.685,3.685,0,0,1,.374,4.225,7.642,7.642,0,0,1-3.81,3.564q-3.428,1.448-6.855,2.9C-1509.739,379.151-1510.01,379.279-1510.416,379.462Zm-30.972,11.168c.188,0,.32.011.451,0,2.362-.24,4.729-.439,7.084-.735a17.27,17.27,0,0,1,7.452.479c1.144.359,2.309.65,3.452,1.01a15.864,15.864,0,0,0,5.158.749c1.938-.043,3.877-.03,5.816,0a12.551,12.551,0,0,0,5.471-1.178q6.207-2.847,12.418-5.685a12.413,12.413,0,0,0,4.653-3.655c1.221-1.54,2.458-3.068,3.687-4.6q3.407-4.249,6.811-8.5a1.351,1.351,0,0,0-.092-2.092,1.352,1.352,0,0,0-2.093-.035c-.21.175-.408.363-.612.544q-5.592,4.99-11.182,9.982a15.684,15.684,0,0,1-4.845,2.994c-1.246.482-2.477,1-3.716,1.5-1.746.7-3.487,1.411-5.241,2.089a3.7,3.7,0,0,1-4.045-.708c-.993-.894-1.927-1.857-2.841-2.833a1.292,1.292,0,0,1,.465-2.2c.171-.083.353-.144.529-.218q4.484-1.89,8.967-3.782a5.426,5.426,0,0,0,2.488-2.29,1.236,1.236,0,0,0-.012-1.393,1.229,1.229,0,0,0-1.264-.579c-.163.018-.327.03-.488.059-4.3.763-8.588,1.551-12.89,2.281a14.2,14.2,0,0,0-5.59,2.185c-1.339.892-2.728,1.709-4.081,2.582a14.96,14.96,0,0,1-8.448,2.414c-2.239-.022-4.478-.005-6.717,0-.238,0-.475.019-.745.031Zm-10.467-14.206v16.944h7.77V376.424Z" transform="translate(1554.536 -317.421)" fill="#555"/><path d="M-1454.4,195.482h20.322a7.315,7.315,0,0,1,.737.011,1.3,1.3,0,0,1,1.22,1.217,6.165,6.165,0,0,1,.011.655q0,16.47,0,32.941a5.287,5.287,0,0,1-.019.737,1.3,1.3,0,0,1-1.13,1.132,5.286,5.286,0,0,1-.736.018H-1474.8a6.269,6.269,0,0,1-.655-.011,1.3,1.3,0,0,1-1.219-1.219,6.294,6.294,0,0,1-.011-.655q0-16.471,0-32.941a5.383,5.383,0,0,1,.018-.737,1.285,1.285,0,0,1,1.129-1.13,6.137,6.137,0,0,1,.818-.018Zm19.612,34.053V198.167h-39.235v31.368Z" transform="translate(1493.734 -186.338)" fill="#91ddea"/><path d="M-1509.413,171l-3.547-3.556,1.894-1.634,3.484,3.494Z" transform="translate(1522.063 -163.164)" fill="#926cdc"/><path d="M-1261.341,169.029l3.613-3.614,1.712,1.707-3.613,3.613Z" transform="translate(1325.536 -162.858)" fill="#926cdc"/><path d="M-1380.6,153.736h2.521v5.144h-2.521Z" transform="translate(1418.682 -153.736)" fill="#926cdc"/><path d="M-1519.239,275.929h-5.142v-2.576c.837,0,1.7-.009,2.556-.011.843,0,1.686,0,2.587,0Z" transform="translate(1530.983 -247.153)" fill="#926cdc"/><path d="M-1243.68,273.6v2.524h-5.144V273.6Z" transform="translate(1315.759 -247.357)" fill="#926cdc"/><path d="M-1527.814,477.123v2.53h-2.545v-2.53Z" transform="translate(1535.653 -406.318)" fill="#91ddea"/><path d="M-1408.519,226.663a24.811,24.811,0,0,1-1.213,5.164,24.69,24.69,0,0,1-8.286,11.436c-.884.686-1.762,1.379-2.656,2.052a1.26,1.26,0,0,1-1.727.116,33.483,33.483,0,0,1-6.791-5.87A24.941,24.941,0,0,1-1434.7,226.9a1.339,1.339,0,0,1,1.294-1.707,20.985,20.985,0,0,0,5.557-1.613,18.522,18.522,0,0,0,4.974-3.406c.969-.929,1.546-.924,2.511,0a18.2,18.2,0,0,0,9.8,4.883c.323.053.649.1.966.172A1.325,1.325,0,0,1-1408.519,226.663Zm-23.427.946a22.568,22.568,0,0,0,10.29,15.086,22.894,22.894,0,0,0,10.342-15.1,21.255,21.255,0,0,1-10.315-4.99A21.227,21.227,0,0,1-1431.946,227.609Z" transform="translate(1460.958 -205.088)" fill="#926cdc"/><path d="M-1396.431,264.008l1.578-2.077,2.236,1.636,4.328-6.991,2.2,1.358c-.15.266-.259.478-.384.68q-2.164,3.511-4.332,7.02a6.1,6.1,0,0,1-.4.614,1.217,1.217,0,0,1-1.735.335C-1394.1,265.776-1395.217,264.909-1396.431,264.008Z" transform="translate(1431.048 -234.059)" fill="#926cdc"/></g></g></svg>