<svg xmlns="http://www.w3.org/2000/svg" width="140" height="140" viewBox="0 0 140 140"><g transform="translate(-4241 -2447)"><rect width="140" height="140" transform="translate(4241 2447)" opacity="0"/><g transform="translate(5814.536 2312.264)"><path d="M-1497.467,384.2c.67.66,1.207,1.214,1.773,1.738a1.8,1.8,0,0,0,2.074.21q4.066-1.655,8.142-3.287c.981-.4,1.961-.8,2.948-1.175a18.057,18.057,0,0,0,5.633-3.493q7.529-6.761,15.105-13.469a5.363,5.363,0,0,1,8.889,2.873,4.994,4.994,0,0,1-1.115,4.452q-3.347,4.174-6.688,8.352c-2.209,2.756-4.456,5.481-6.619,8.272a21.042,21.042,0,0,1-8.264,6.427c-5.188,2.305-10.336,4.7-15.5,7.069a19.3,19.3,0,0,1-8.415,1.795c-2.084-.028-4.171-.072-6.251.01a27.447,27.447,0,0,1-9.8-1.371c-.9-.3-1.845-.484-2.741-.8a19.344,19.344,0,0,0-8.983-.77c-3.222.4-6.459.683-9.689,1.018-.169.018-.337.041-.61.076,0,.488,0,.938,0,1.389-.015,1.536-.591,2.141-2.095,2.144q-6.411.012-12.822,0c-1.439,0-2.035-.62-2.039-2.088-.009-3.073,0-6.146,0-9.219q0-7.523,0-15.047c0-.283-.015-.567.011-.847a1.675,1.675,0,0,1,1.648-1.615c.422-.032.847-.01,1.271-.01,3.921,0,7.842.043,11.762-.021,1.56-.026,2.422.8,2.271,2.314-.031.31,0,.626,0,1,.329.03.6.075.869.075q4.663.007,9.325,0a15.4,15.4,0,0,0,8.325-2.41c1.882-1.184,3.794-2.323,5.641-3.56a21.928,21.928,0,0,1,8.725-3.327c5.5-.927,10.979-1.932,16.466-2.905a5.027,5.027,0,0,1,5.3,1.823,4.766,4.766,0,0,1,.483,5.465,9.885,9.885,0,0,1-4.928,4.61q-4.434,1.873-8.868,3.747C-1496.591,383.8-1496.941,383.967-1497.467,384.2Zm-40.062,14.446c.242,0,.414.015.583,0,3.055-.31,6.117-.568,9.163-.951a22.34,22.34,0,0,1,9.639.619c1.479.464,2.987.841,4.466,1.306a20.519,20.519,0,0,0,6.672.969c2.506-.055,5.015-.039,7.523-.005a16.234,16.234,0,0,0,7.077-1.524q8.029-3.683,16.063-7.354a16.057,16.057,0,0,0,6.019-4.728c1.579-1.992,3.179-3.969,4.77-5.952q4.407-5.5,8.81-11a1.747,1.747,0,0,0-.119-2.706,1.749,1.749,0,0,0-2.707-.046c-.271.226-.528.469-.792.7q-7.234,6.454-14.464,12.912a20.286,20.286,0,0,1-6.267,3.872c-1.611.623-3.2,1.295-4.807,1.938-2.258.906-4.511,1.825-6.78,2.7a4.787,4.787,0,0,1-5.233-.916c-1.284-1.156-2.493-2.4-3.675-3.664a1.672,1.672,0,0,1,.6-2.849c.221-.108.457-.187.684-.282q5.8-2.445,11.6-4.892a7.02,7.02,0,0,0,3.218-2.962,1.6,1.6,0,0,0-.016-1.8,1.59,1.59,0,0,0-1.634-.749c-.211.023-.423.039-.631.076-5.557.987-11.109,2.006-16.673,2.951a18.366,18.366,0,0,0-7.231,2.826c-1.732,1.154-3.529,2.211-5.278,3.34a19.352,19.352,0,0,1-10.928,3.122c-2.9-.028-5.793-.007-8.689,0-.308,0-.615.025-.963.041Zm-13.54-18.376v21.917h10.051V380.274Z" transform="translate(0 -150.217)" fill="#555"/><path d="M-1447.856,195.483h26.287a9.462,9.462,0,0,1,.953.014,1.676,1.676,0,0,1,1.578,1.574,7.967,7.967,0,0,1,.015.847q0,21.3,0,42.61a6.842,6.842,0,0,1-.024.953,1.677,1.677,0,0,1-1.461,1.464,6.838,6.838,0,0,1-.952.023h-52.786a8.117,8.117,0,0,1-.847-.014,1.679,1.679,0,0,1-1.577-1.576,8.127,8.127,0,0,1-.014-.847q0-21.305,0-42.61a6.957,6.957,0,0,1,.023-.953,1.662,1.662,0,0,1,1.46-1.461,7.939,7.939,0,0,1,1.059-.024Zm25.368,44.048V198.957h-50.751v40.574Z" transform="translate(-55.8 -29.92)" fill="#91ddea"/><path d="M-1508.372,172.521l-4.588-4.6,2.45-2.114,4.507,4.519Z" transform="translate(-29.801 -8.652)" fill="#926cdc"/><path d="M-1261.341,170.09l4.674-4.675,2.214,2.208-4.674,4.674Z" transform="translate(-210.159 -8.371)" fill="#926cdc"/><path d="M-1380.6,153.736h3.261v6.654h-3.261Z" transform="translate(-124.677)" fill="#926cdc"/><path d="M-1517.729,276.689h-6.652v-3.333c1.082,0,2.194-.012,3.306-.015,1.09,0,2.18,0,3.346,0Z" transform="translate(-21.615 -85.731)" fill="#926cdc"/><path d="M-1242.17,273.6v3.264h-6.654V273.6Z" transform="translate(-219.131 -85.919)" fill="#926cdc"/><path d="M-1527.068,477.123V480.4h-3.291v-3.273Z" transform="translate(-17.33 -231.8)" fill="#91ddea"/><path d="M-1400.827,228.77a32.093,32.093,0,0,1-1.57,6.68,31.935,31.935,0,0,1-10.718,14.793c-1.143.888-2.28,1.784-3.435,2.654a1.629,1.629,0,0,1-2.233.15,43.31,43.31,0,0,1-8.784-7.593,32.26,32.26,0,0,1-7.124-16.371,1.732,1.732,0,0,1,1.673-2.208,27.143,27.143,0,0,0,7.188-2.086,23.956,23.956,0,0,0,6.434-4.406c1.253-1.2,2-1.2,3.248-.005a23.549,23.549,0,0,0,12.682,6.316c.418.069.839.124,1.25.222A1.714,1.714,0,0,1-1400.827,228.77Zm-30.3,1.224a29.192,29.192,0,0,0,13.31,19.514c7.072-4.744,11.725-11.054,13.377-19.534a27.494,27.494,0,0,1-13.342-6.454A27.457,27.457,0,0,1-1431.13,229.994Z" transform="translate(-85.879 -47.127)" fill="#926cdc"/><path d="M-1396.431,266.189l2.042-2.686,2.892,2.116,5.6-9.043,2.844,1.757c-.193.344-.335.618-.5.879q-2.8,4.542-5.6,9.08a7.853,7.853,0,0,1-.521.794,1.574,1.574,0,0,1-2.244.433C-1393.418,268.477-1394.861,267.355-1396.431,266.189Z" transform="translate(-113.328 -73.715)" fill="#926cdc"/></g></g></svg>