<svg xmlns="http://www.w3.org/2000/svg" width="76.931" height="76.894" viewBox="0 0 76.931 76.894"><g transform="translate(0 0)"><path d="M53.6,49.989A35.648,35.648,0,0,0,41.56,52.154c.55.745,1.05,1.414,1.544,2.088.194.266.389.533.563.814a2.181,2.181,0,0,1-.589,2.968c-.165.114-.322.242-.507.381.738,1,1.432,2,2.185,2.952a2.375,2.375,0,0,1-.382,3.609c-.291.246-.59.487-.855.759a2.319,2.319,0,0,1-3.727-.3c-1.391-1.909-2.825-3.788-4.239-5.68-.653-.875-1.3-1.754-1.957-2.628a3.593,3.593,0,0,0-.258-.282,7.146,7.146,0,0,1-4.037.922,6.848,6.848,0,0,1-3.845-1.468,6.707,6.707,0,0,1-2.511-3.975A6.9,6.9,0,0,1,24.255,46.5a7.448,7.448,0,0,1,2.32-1.943c1.357-.8,2.724-1.575,4.085-2.366a1.2,1.2,0,0,1,1.267-.18A37.685,37.685,0,0,0,42.351,30.589c-.153-.493-.293-.9-.4-1.312a3.839,3.839,0,0,1,7.166-2.509c1.042,1.8,2.075,3.608,3.113,5.413.1.173.21.341.311.5,2.446-.7,4.349-.108,5.441,1.682a4.412,4.412,0,0,1-1.123,5.8c.417.729.84,1.474,1.267,2.216.7,1.21,1.411,2.41,2.085,3.632a6.921,6.921,0,0,1,.536,1.331,3.827,3.827,0,0,1-6.818,3.07c-.093-.121-.183-.243-.322-.427m-9.953-17.3A37.657,37.657,0,0,1,38.9,38.732a52.3,52.3,0,0,1-5.736,5.06l4.377,7.575a49.834,49.834,0,0,1,7.235-2.454,40.927,40.927,0,0,1,7.6-1.116l-8.725-15.11M44,28.553a7.844,7.844,0,0,0,.266.857,7.965,7.965,0,0,0,.447.8q2.985,5.174,5.972,10.349,2.322,4.021,4.652,8.036a3.46,3.46,0,0,0,.588.788,1.6,1.6,0,0,0,2.4-.242,1.691,1.691,0,0,0,.06-1.934c-.716-1.285-1.46-2.555-2.2-3.829q-3.631-6.3-7.266-12.59c-.622-1.076-1.239-2.157-1.9-3.208a1.59,1.59,0,0,0-1.811-.64A1.693,1.693,0,0,0,44,28.553M31.056,44.467c-1.327.776-2.616,1.486-3.86,2.267a4.686,4.686,0,0,0-2.1,5.21,4.823,4.823,0,0,0,7.116,3.031c1.086-.6,2.157-1.234,3.23-1.86a4.019,4.019,0,0,0,.422-.323l-4.808-8.326M43.271,63,37.077,54.66l-1.821,1.071L41.7,64.35a1.534,1.534,0,0,0,.26-.14c.411-.375.817-.755,1.308-1.211M55.716,38.207a2.085,2.085,0,0,0,.332-2.821,1.965,1.965,0,0,0-2.366-.7l2.034,3.521M38.723,53.232l2.526,3.416.611-.443-2.426-3.26-.711.288" transform="translate(-6.389 -6.94)" fill="#91ddea"/><path d="M70.249,24A1.229,1.229,0,0,1,71.3,25.139a4.124,4.124,0,0,1-.229.565q-.97,1.716-1.962,3.419a1.087,1.087,0,0,1-.729.616,1.063,1.063,0,0,1-1.1-.337,1.081,1.081,0,0,1-.083-1.278c.446-.793.9-1.579,1.359-2.366.19-.329.381-.656.58-.979.358-.582.373-.588,1.115-.775" transform="translate(-18.809 -6.736)" fill="#926cdc"/><path d="M81.708,44.551c-.295.916-.473,1.06-1.348,1.064-1.267.006-2.534,0-3.8,0a1.1,1.1,0,0,1-.847-.257,1.028,1.028,0,0,1-.345-1.028,1.123,1.123,0,0,1,.887-.844,2.5,2.5,0,0,1,.53-.021c1.165,0,2.331,0,3.5,0,.9,0,1.132.177,1.427,1.082" transform="translate(-21.141 -12.197)" fill="#926cdc"/><path d="M75.507,35.885a1.2,1.2,0,0,1-1.2-1.12,1.266,1.266,0,0,1,.685-.993c1.075-.622,2.142-1.257,3.231-1.855a1.462,1.462,0,0,1,.8-.144.981.981,0,0,1,.765,1.473,1.64,1.64,0,0,1-.579.57c-1.021.613-2.057,1.2-3.092,1.79-.2.112-.412.19-.61.279" transform="translate(-20.853 -8.915)" fill="#926cdc"/><path d="M3.7,51.9a1.754,1.754,0,0,1-1.6-1.071,10.683,10.683,0,0,1-.478-1.384A40.1,40.1,0,0,1,.389,43.857a37.348,37.348,0,0,1-.306-7.833A38.593,38.593,0,0,1,19.107,5.2,37.519,37.519,0,0,1,28.9,1.2,41.526,41.526,0,0,1,35.146.136C36.122.045,37.154,0,38.3,0c.655,0,1.309.014,1.964.037A36.066,36.066,0,0,1,45.2.588a38.524,38.524,0,0,1,8.789,2.667A36.715,36.715,0,0,1,61.9,7.976c.69.54,1.356,1.118,2,1.677l.128.111V9.419c0-1.071,0-2.142.006-3.214A3.379,3.379,0,0,1,64.2,5.164a1.739,1.739,0,0,1,1.659-1.173,1.757,1.757,0,0,1,1.679,1.242,3.612,3.612,0,0,1,.15,1.029Q67.7,9.1,67.7,11.941v1.575c0,.168,0,.272-.009.375a1.858,1.858,0,0,1-2.094,1.9l-4,0q-1.9,0-3.795-.006a1.9,1.9,0,0,1-1.488-.6,1.774,1.774,0,0,1-.4-1.437,1.683,1.683,0,0,1,1.522-1.525,3.089,3.089,0,0,1,.366-.019l.326,0H61.4l-.193-.168a35.655,35.655,0,0,0-6.071-4.2,34.6,34.6,0,0,0-7.73-3.071,31.926,31.926,0,0,0-5.036-.928c-1.32-.129-2.634-.257-3.914-.257q-.313,0-.627.011A36.742,36.742,0,0,0,27.789,5.29a34.279,34.279,0,0,0-11.852,6.573,34.913,34.913,0,0,0-12,21.629,32.217,32.217,0,0,0-.305,6.618,34.755,34.755,0,0,0,1.6,8.767,7.254,7.254,0,0,1,.217.814,1.742,1.742,0,0,1-1.132,2.1A1.859,1.859,0,0,1,3.7,51.9" transform="translate(0 0)" fill="#555"/><path d="M42.669,86.637c-.734,0-1.468-.027-2.2-.058a41.149,41.149,0,0,1-4.695-.478,37.029,37.029,0,0,1-7.459-2.024,37.43,37.43,0,0,1-9.629-5.435C18,78.107,17.341,77.534,16.7,76.98l-.085-.073v3.34a5.332,5.332,0,0,1-.024.653,1.725,1.725,0,0,1-1.452,1.562,1.693,1.693,0,0,1-.294.025,1.772,1.772,0,0,1-1.614-1.031,2.37,2.37,0,0,1-.207-.955q-.014-3.933,0-7.867a1.838,1.838,0,0,1,1.947-1.951q2.037-.009,4.075-.009,1.935,0,3.87.01a1.938,1.938,0,0,1,1.59.778,1.738,1.738,0,0,1,.237,1.573,1.674,1.674,0,0,1-1.4,1.2,4.1,4.1,0,0,1-.542.029H19.049a34.36,34.36,0,0,0,10.473,6.386,34.586,34.586,0,0,0,6.946,1.892c1.133.186,2.316.276,3.336.347.833.058,1.719.115,2.6.115q.3,0,.6-.009a35.283,35.283,0,0,0,13.216-2.961,34.948,34.948,0,0,0,18.9-20.569,35.528,35.528,0,0,0,1.832-13.051A36.288,36.288,0,0,0,75.3,37.5a5.285,5.285,0,0,1-.163-.591,1.758,1.758,0,0,1,1.151-2.085,1.85,1.85,0,0,1,.606-.1,1.737,1.737,0,0,1,1.6,1.08,10.959,10.959,0,0,1,.476,1.384A40.547,40.547,0,0,1,80.2,42.769a37.189,37.189,0,0,1,.314,7.678,38.339,38.339,0,0,1-9.652,23.258,39,39,0,0,1-9.184,7.588A38.244,38.244,0,0,1,49.428,85.94c-.837.165-1.687.259-2.509.349-.483.053-.966.106-1.446.173a20.154,20.154,0,0,1-2.8.175" transform="translate(-3.652 -9.744)" fill="#555"/></g></svg>