<svg xmlns="http://www.w3.org/2000/svg" xmlns:xlink="http://www.w3.org/1999/xlink" width="108" height="108" viewBox="0 0 108 108"><defs><linearGradient id="a" x1="0.5" x2="0.5" y2="1" gradientUnits="objectBoundingBox"><stop offset="0" stop-color="#8eecff"/><stop offset="1" stop-color="#743fdb"/></linearGradient></defs><g transform="translate(-0.001)"><rect width="108" height="108" transform="translate(0.001)" opacity="0" fill="url(#a)"/><g transform="translate(4707.899 87.017)"><path d="M-4675.309,3.606a5.352,5.352,0,0,0-.5-.231,4.233,4.233,0,0,1-2.936-4.006c-.019-4.069-.011-8.138,0-12.206a1.48,1.48,0,0,1,1.457-1.612,1.475,1.475,0,0,1,1.4,1.594c.01,2.561,0,5.122,0,7.683,0,1.34,0,2.681,0,4.021a3.677,3.677,0,0,0,.07.709,1.3,1.3,0,0,0,1.086,1.1,4.806,4.806,0,0,0,.923.079q25.777.005,51.554.015c1.5,0,2.107-.605,2.106-2.105q-.029-25.884-.013-51.769v-.864h-.81c-2.656,0-5.313.023-7.97-.009a4.151,4.151,0,0,1-3.853-2.421,4.268,4.268,0,0,1-.441-2.009c.011-2.585,0-5.17,0-7.754v-.825c-.218-.019-.4-.048-.582-.048q-20.1,0-40.209,0a3.47,3.47,0,0,0-.431.011,1.489,1.489,0,0,0-1.425,1.445c-.038.379-.013.765-.015,1.148,0,.211,0,.422,0,.622,1.216-.118,2.372-.232,3.529-.339a3.42,3.42,0,0,1,.574,0,1.4,1.4,0,0,1,1.351,1.329c.021.238.015.478.015.717q0,8.15,0,16.3c0,.215.006.431-.009.646a1.4,1.4,0,0,1-1.361,1.39c-.19.015-.383.011-.574.011q-8.257,0-16.515-.006a4.238,4.238,0,0,1-1.122-.149c-.42-.117-.578-.541-.822-.859v-2.154a3.843,3.843,0,0,0,.139-.467c.118-.706.168-1.428.345-2.118a18.922,18.922,0,0,1,9.551-12.4c.646-.355,1.325-.653,2.035-1,0-.917-.006-1.848,0-2.779a4.072,4.072,0,0,1,.891-2.523,4.391,4.391,0,0,1,3.7-1.694q20.931.015,41.86-.008a2.567,2.567,0,0,1,1.961.831q6.076,6.109,12.19,12.181a2.8,2.8,0,0,1,.88,2.159q-.031,26.746-.015,53.492c0,.239,0,.479,0,.718a4.268,4.268,0,0,1-2.872,3.908c-.2.069-.379.171-.567.258Zm1.994-64.825a16.056,16.056,0,0,0-10.823,5.644c-2.273,2.613-3.8,6.731-3.586,8.871h14.409Zm42.957-3.632v3.11c0,1.052-.012,2.1,0,3.157a1.558,1.558,0,0,0,1.735,1.727c.049,0,.1,0,.145,0q2.8,0,5.6,0c.173,0,.345-.022.483-.031Z" transform="translate(0)" fill="#fff"/><path d="M-4644.625,8.219V7.332c0-4.882.031-9.764-.019-14.645-.016-1.531.726-2.052,2.01-2a18.782,18.782,0,0,1,13.283,6.021,18.447,18.447,0,0,1,4.768,9.236,18.364,18.364,0,0,1,.111,6.7,18.753,18.753,0,0,1-6.43,11.434,18.265,18.265,0,0,1-8.673,4.2,18.567,18.567,0,0,1-12.572-1.913,18.791,18.791,0,0,1-8.048-8.319,19.467,19.467,0,0,1-1.9-6.567,13.189,13.189,0,0,1-.049-1.864,1.369,1.369,0,0,1,1.355-1.388c.238-.018.479-.011.718-.011h15.443Zm-14.513,2.876a15.923,15.923,0,0,0,12.221,14.194,16.03,16.03,0,0,0,17.877-8.026A15.815,15.815,0,0,0-4630.9-.58c-.185.181-.371.362-.554.545-3.384,3.384-6.78,6.757-10.143,10.163a3,3,0,0,1-2.336.986c-4.81-.04-9.62-.018-14.43-.018Zm17.418-5.224,8.679-8.679a15.791,15.791,0,0,0-8.679-3.538Z" transform="translate(-23.511 -49.72)" fill="#fff"/><path d="M-4531.123,188.046a4.216,4.216,0,0,1,.146-3.464,4.3,4.3,0,0,1,1.99-1.991,4.337,4.337,0,0,1,5,.912,4.289,4.289,0,0,1,.533,5.231,4.245,4.245,0,0,1-2.524,1.885c-.9.254-1.367.209-3.083-.265l-8.2,8.2c.664,2.279.219,3.949-1.417,5.2a4.227,4.227,0,0,1-4.9.142,4.151,4.151,0,0,1-1.785-2.429,4.553,4.553,0,0,1,.179-2.918l-5.326-5.342a9.619,9.619,0,0,1-1.918.429,10.165,10.165,0,0,1-2-.313l-5.23,5.235a4.223,4.223,0,0,1-.071,3.61,4.287,4.287,0,0,1-1.983,2,4.3,4.3,0,0,1-5.06-.948,4.308,4.308,0,0,1-.462-5.24c1.091-1.754,2.956-2.314,5.368-1.648l5.3-5.3a4.272,4.272,0,0,1,1.734-5.349,4.25,4.25,0,0,1,4.787.157,4.344,4.344,0,0,1,1.562,4.9l5.558,5.571a4.482,4.482,0,0,1,3.494.046Zm4.011-.2a1.379,1.379,0,0,0,1.418-1.4,1.406,1.406,0,0,0-1.377-1.377,1.4,1.4,0,0,0-1.451,1.372A1.358,1.358,0,0,0-4527.111,187.845Zm-12.72,12.443a1.438,1.438,0,0,0-1.422-1.415,1.461,1.461,0,0,0-1.381,1.389,1.414,1.414,0,0,0,1.391,1.439A1.379,1.379,0,0,0-4539.831,200.288Zm-12.78-9.568a1.369,1.369,0,0,0,1.431-1.369,1.386,1.386,0,0,0-1.4-1.411,1.4,1.4,0,0,0-1.4,1.341A1.384,1.384,0,0,0-4552.611,190.72Zm-9.585,9.593a1.474,1.474,0,0,0-1.417-1.434,1.5,1.5,0,0,0-1.416,1.369,1.486,1.486,0,0,0,1.386,1.469A1.472,1.472,0,0,0-4562.2,200.313Z" transform="translate(-100.796 -206.755)" fill="#fff"/><path d="M-4420.9,41.11h8.255a5.709,5.709,0,0,1,.645.014,1.45,1.45,0,0,1,1.289,1.4,1.451,1.451,0,0,1-1.255,1.433,4.347,4.347,0,0,1-.573.017h-16.726c-.143,0-.288,0-.431,0a1.487,1.487,0,0,1-1.443-1.413,1.485,1.485,0,0,1,1.409-1.445c.191-.013.383-.006.574-.006Z" transform="translate(-212.966 -91.073)" fill="#fff"/><path d="M-4420.887,79.439h8.255a4.614,4.614,0,0,1,.716.024,1.452,1.452,0,0,1,1.2,1.409,1.455,1.455,0,0,1-1.2,1.409,4.054,4.054,0,0,1-.645.024q-8.362,0-16.725,0a4.063,4.063,0,0,1-.644-.025,1.487,1.487,0,0,1-1.212-1.408,1.484,1.484,0,0,1,1.213-1.407,4.626,4.626,0,0,1,.716-.025Q-4425.05,79.437-4420.887,79.439Z" transform="translate(-212.967 -122.507)" fill="#fff"/><path d="M-4425.876,120.638c-1.171,0-2.341,0-3.511,0a1.651,1.651,0,0,1-1.021-.256,1.409,1.409,0,0,1-.605-1.423,1.436,1.436,0,0,1,1.2-1.172,1.887,1.887,0,0,1,.286-.016q3.691,0,7.38,0a1.867,1.867,0,0,1,.563.077,1.4,1.4,0,0,1,.972,1.5,1.414,1.414,0,0,1-1.248,1.275,4.565,4.565,0,0,1-.573.016Q-4424.156,120.64-4425.876,120.638Z" transform="translate(-213.049 -153.946)" fill="#fff"/><path d="M-4622.34,212.474a1.453,1.453,0,0,1-1.369-1.469,1.449,1.449,0,0,1,1.523-1.385,1.449,1.449,0,0,1,1.333,1.5A1.452,1.452,0,0,1-4622.34,212.474Z" transform="translate(-55.038 -229.271)" fill="#fff"/><path d="M-4352.464,119.2a1.416,1.416,0,0,1,1.423-1.405,1.486,1.486,0,0,1,1.437,1.418,1.481,1.481,0,0,1-1.485,1.44A1.416,1.416,0,0,1-4352.464,119.2Z" transform="translate(-277.493 -153.962)" fill="#fff"/></g></g></svg>