<svg xmlns="http://www.w3.org/2000/svg" width="78.13" height="78.247" viewBox="0 0 78.13 78.247"><g transform="translate(0 0)"><path d="M21.293,0Q29.7,0,38.1,0c2.907,0,4.542,1.619,4.545,4.524q.012,10.608,0,21.217c0,2.852-1.654,4.493-4.49,4.5-3.106,0-6.213.021-9.319-.015a1.277,1.277,0,0,0-1.3.764c-.946,1.692-1.943,3.356-2.939,5.019-1.867,3.114-5.6,3.1-7.453-.021-1.019-1.713-2.035-3.429-3.022-5.161a1.048,1.048,0,0,0-1.055-.6c-2.856.024-5.713.014-8.57.01A4.137,4.137,0,0,1,0,25.734Q0,15.125,0,4.517A4.135,4.135,0,0,1,4.486,0q8.4,0,16.807,0m.068,3.614c-5.6,0-11.2.01-16.8-.013-.713,0-.964.194-.962.938q.036,10.562,0,21.124c0,.695.161.988.923.979,2.882-.038,5.766-.023,8.649-.013A4.255,4.255,0,0,1,17.136,28.9c.967,1.711,1.97,3.4,2.964,5.1.547.934.977.937,1.522.01.995-1.694,1.992-3.389,2.967-5.095A4.262,4.262,0,0,1,28.606,26.6c3.161.027,6.321-.016,9.481.024.81.01,1.037-.255,1.034-1.048q-.039-10.479,0-20.957c0-.815-.257-1.028-1.044-1.024-5.572.029-11.144.016-16.716.016" transform="translate(0 0)" fill="#926cdc"/><path d="M72.261,76.67c0-1.885-.017-3.771.01-5.655a.861.861,0,0,0-.6-.924,14.094,14.094,0,0,1-8.208-14.3,14.212,14.212,0,0,1,28.263-.13,14.009,14.009,0,0,1-8.1,14.414.976.976,0,0,0-.677,1.05q.039,5.405.006,10.812a5.344,5.344,0,1,1-10.68.306c-.038-1.857-.006-3.715-.008-5.572M67,57.205A10.615,10.615,0,1,0,77.661,46.621,10.589,10.589,0,0,0,67,57.205m8.885,14.212c0,3.687-.034,7.363.042,11.036a1.992,1.992,0,0,0,.942,1.328c1.188.708,2.511-.265,2.519-1.808.017-3.044.005-6.087.005-9.13V71.417Z" transform="translate(-13.683 -9.29)" fill="#91ddea"/><path d="M56.287,21.694V42.018c0,.278.009.556-.011.832a1.753,1.753,0,0,1-2.652,1.571c-1.9-.907-3.756-1.889-5.656-2.787a1.481,1.481,0,0,0-1.114,0c-1.852.868-3.671,1.808-5.51,2.706-1.557.761-2.805.013-2.827-1.715s-.026-3.438.046-5.154a1.721,1.721,0,0,1,1.8-1.592,1.794,1.794,0,0,1,1.7,1.727c.023.47.005.942.006,1.414v.968c1.331-.684,2.583-1.26,3.765-1.954a2.8,2.8,0,0,1,3.11-.016c1.185.693,2.436,1.27,3.781,1.96v-1.02q0-9.273,0-18.545c0-1.592.668-2.269,2.279-2.272,4.463-.008,8.927-.022,13.389,0a5.3,5.3,0,0,1,5.625,5.7q0,4.99,0,9.98c0,1.286-.664,2.06-1.754,2.068s-1.791-.751-1.8-2.035c-.018-3.244,0-6.487-.008-9.73,0-1.875-.561-2.431-2.427-2.432H56.287Z" transform="translate(-8.314 -3.914)" fill="#555"/><path d="M38.745,73.737c-5.713,0-11.425.009-17.137,0a5.333,5.333,0,0,1-5.622-4.3,4.747,4.747,0,0,1-.089-.989q-.007-10.565,0-21.13a1.746,1.746,0,0,1,2.079-1.952,1.591,1.591,0,0,1,1.4,1.336,5.874,5.874,0,0,1,.074,1.158q.007,9.9,0,19.8c0,1.991.528,2.518,2.51,2.518H56.4a1.852,1.852,0,0,1,2.06,1.409,1.753,1.753,0,0,1-1.5,2.1,7.849,7.849,0,0,1-1.078.048q-8.569,0-17.137,0" transform="translate(-3.432 -9.79)" fill="#555"/><path d="M30.257,62.445c-1.134,0-2.267.009-3.4,0a1.742,1.742,0,0,1-1.894-1.662,1.7,1.7,0,0,1,1.763-1.87q3.566-.065,7.133,0a1.762,1.762,0,0,1,1.762,1.82,1.8,1.8,0,0,1-1.878,1.708c-1.161.014-2.323,0-3.484,0" transform="translate(-5.389 -12.715)" fill="#555"/><path d="M30.227,69.237c-1.134,0-2.268.01-3.4,0a1.738,1.738,0,0,1-1.867-1.691,1.68,1.68,0,0,1,1.713-1.834q3.607-.069,7.216,0a1.749,1.749,0,0,1,1.73,1.845,1.8,1.8,0,0,1-1.905,1.679c-1.161.012-2.323,0-3.484,0" transform="translate(-5.389 -14.182)" fill="#555"/><path d="M29.476,17.052c0-1.966,0-3.932,0-5.9,0-1.4.635-2.047,2.012-2.053,1.578-.006,3.157-.011,4.735,0A3.857,3.857,0,0,1,40.117,13q.02,4.07,0,8.141a3.86,3.86,0,0,1-3.872,3.921c-1.606.015-3.212.01-4.818,0a1.752,1.752,0,0,1-1.948-1.951c-.009-2.021,0-4.043,0-6.064M33.07,21.5c1.036,0,2,.031,2.957-.027a.774.774,0,0,0,.506-.559q.052-3.821.005-7.643c0-.2-.257-.561-.408-.569-1.009-.051-2.021-.027-3.06-.027Z" transform="translate(-6.365 -1.964)" fill="#926cdc"/><path d="M17.453,19.747c-1.055,0-2.079-.028-3.1.026-.183.01-.453.333-.507.554-.258,1.074-.439,2.167-.678,3.246a1.869,1.869,0,0,1-2.31,1.483,1.775,1.775,0,0,1-1.306-2.182c.855-3.8,1.723-7.6,2.652-11.383A3.66,3.66,0,0,1,15.836,9.1a3.611,3.611,0,0,1,3.491,2.453c.9,3.818,1.757,7.65,2.6,11.482a1.819,1.819,0,0,1-3.564.7c-.33-1.307-.6-2.628-.915-4m-1.532-7.154-.315,0c-.267,1.167-.536,2.333-.812,3.54h1.923c-.277-1.229-.537-2.382-.8-3.536" transform="translate(-2.052 -1.966)" fill="#926cdc"/><path d="M81.476,52.138a7.052,7.052,0,0,1,6.676,6.868,1.8,1.8,0,0,1-1.59,1.976,1.765,1.765,0,0,1-1.955-1.7c-.371-2.463-1.262-3.327-3.744-3.629a1.746,1.746,0,0,1-1.566-1.9c.076-1.081.891-1.685,2.178-1.613" transform="translate(-17.122 -11.258)" fill="#91ddea"/></g></svg>