<svg xmlns="http://www.w3.org/2000/svg" width="108" height="108" viewBox="0 0 108 108"><g transform="translate(-387 -2447)"><rect width="108" height="108" transform="translate(387 2447)" opacity="0"/><g transform="translate(3342.589 4739.43)"><path d="M-2859.838-1886.645a1.748,1.748,0,0,0-1.743-.966c-1.581.019-3.162.006-4.743.006h-24.624c-1.218.027-2.724.029-3.843,0h-5.9c-.671.025-1.472.027-2.2,0h-33.974c-1.61,0-3.22.006-4.83,0a1.668,1.668,0,0,0-1.54.742,1.614,1.614,0,0,0,1.105,2.5,4.343,4.343,0,0,0,.654.023q39.862,0,79.727.016a2.123,2.123,0,0,0,2.061-1.159v-.982A.986.986,0,0,1-2859.838-1886.645Z" transform="translate(-0.063 -312.26)" fill="#91ddea"/><path d="M-2860.053-2274.36a8.045,8.045,0,0,0-3.068-4.481,8.724,8.724,0,0,0-3.167-1.425l-.31-.077a3.046,3.046,0,0,0-.725-.088h-68.134a8.06,8.06,0,0,0-2.054.3l-.008,0a7.92,7.92,0,0,0-4.487,3.087,8,8,0,0,0-1.575,4.473c-.008.191,0,.381,0,.574q0,28.772-.006,57.543a6.068,6.068,0,0,0,.827,3.359,5.448,5.448,0,0,0,4.232,2.715c.784.076,1.573.113,2.367.17a9.263,9.263,0,0,1,.078,1.142l.035-4.585c-.8,0-1.536.057-2.258-.012a2.369,2.369,0,0,1-1.985-2.19,6.365,6.365,0,0,1-.018-.736q0-24.967,0-49.935v-.7c.055-.053.072-.076.094-.092s.043-.039.065-.039c.162-.01.326-.018.49-.018q38.265,0,76.579,0a5.432,5.432,0,0,1,.062.576q0,25.212,0,50.427a3.636,3.636,0,0,1-.162,1.124,2.172,2.172,0,0,1-1.893,1.583,20.478,20.478,0,0,1-2.2.015l.047,11.78v-8.314a3.05,3.05,0,0,1,1.015-.082,15.5,15.5,0,0,0,2.254-.279,5.487,5.487,0,0,0,3.974-3.847c.066-.2.162-.388.244-.58v-59.361a6.84,6.84,0,0,0-.234-1.773Zm-2.984,5.672h-77.311c.037-1.413-.01-2.779.127-4.126a4.865,4.865,0,0,1,5-4.344c.164,0,.326,0,.49,0q33.066,0,66.132,0a6.143,6.143,0,0,1,2.709.494,4.791,4.791,0,0,1,2.838,4.262C-2862.971-2271.187-2863.037-2269.961-2863.037-2268.687Z" transform="translate(0 0)" fill="#555"/><path d="M-2865.231-2149.482l-11.258-11.275a5.908,5.908,0,0,1-5.186.136l-9.818,9.833a5.966,5.966,0,0,1,.253,4.783,5.615,5.615,0,0,1-2.313,2.88,5.866,5.866,0,0,1-7.411-.831,5.811,5.811,0,0,1-.7-7.361,5.911,5.911,0,0,1,7.661-2.011l9.674-9.671a5.861,5.861,0,0,1-.481-4.865,5.727,5.727,0,0,1,2.212-2.962,5.862,5.862,0,0,1,7.135.3,5.977,5.977,0,0,1,1.49,7.283l11.368,11.367a6.005,6.005,0,0,1,5.244.151l10.867-10.88a5.987,5.987,0,0,1-.652-5.45,5.722,5.722,0,0,1,2.247-2.838,5.855,5.855,0,0,1,6.935.291,5.87,5.87,0,0,1,1.751,6.924,5.829,5.829,0,0,1-3.181,3.13,5.864,5.864,0,0,1-4.265.1l-11.195,11.178a5.9,5.9,0,0,1-1.89,7.587,5.8,5.8,0,0,1-7.007-.2A5.9,5.9,0,0,1-2865.231-2149.482Zm26.222-16.544a2.662,2.662,0,0,0-2.642-2.58,2.57,2.57,0,0,0-2.567,2.635,2.511,2.511,0,0,0,2.622,2.568A2.586,2.586,0,0,0-2839.01-2166.026Zm-21.13,16.909a2.615,2.615,0,0,0-2.58,2.639,2.647,2.647,0,0,0,2.629,2.59,2.658,2.658,0,0,0,2.581-2.639A2.638,2.638,0,0,0-2860.14-2149.117ZM-2881.792-2166a2.575,2.575,0,0,0,2.564,2.618,2.629,2.629,0,0,0,2.591-2.605,2.614,2.614,0,0,0-2.58-2.61A2.553,2.553,0,0,0-2881.792-2166Zm-14.859,15.371a2.529,2.529,0,0,0-2.672,2.469,2.549,2.549,0,0,0,2.477,2.674,2.579,2.579,0,0,0,2.681-2.479A2.533,2.533,0,0,0-2896.65-2150.634Z" transform="translate(-32.535 -86.278)" fill="#91ddea"/><path d="M-2901.338-2176.539c-1.252,0-2.5,0-3.757,0a1.635,1.635,0,0,1-1.36-.618,1.627,1.627,0,0,1,1.036-2.632,3.635,3.635,0,0,1,.57-.023q3.594,0,7.188,0a3.692,3.692,0,0,1,.57.023,1.64,1.64,0,0,1,1.395,1.654,1.629,1.629,0,0,1-1.477,1.579,6.322,6.322,0,0,1-.653.015h-3.512Z" transform="translate(-29.231 -79.985)" fill="#555"/><path d="M-2901.338-2138.214c-1.252,0-2.5,0-3.757,0a1.634,1.634,0,0,1-1.36-.618,1.627,1.627,0,0,1,1.036-2.631,3.606,3.606,0,0,1,.57-.024q3.594,0,7.188,0a3.692,3.692,0,0,1,.57.024,1.64,1.64,0,0,1,1.395,1.655,1.628,1.628,0,0,1-1.477,1.578,6.391,6.391,0,0,1-.653.015h-3.512Z" transform="translate(-29.231 -110.45)" fill="#555"/><path d="M-2835.581-2178.12a1.589,1.589,0,0,1-1.6,1.6,1.694,1.694,0,0,1-1.665-1.656,1.7,1.7,0,0,1,1.639-1.6A1.6,1.6,0,0,1-2835.581-2178.12Z" transform="translate(-83.265 -80.009)" fill="#555"/><path d="M-2636.9-2006.729a1.609,1.609,0,0,1,1.625,1.6,1.693,1.693,0,0,1-1.6,1.659,1.686,1.686,0,0,1-1.665-1.671A1.614,1.614,0,0,1-2636.9-2006.729Z" transform="translate(-242.493 -217.57)" fill="#91ddea"/><path d="M-2754.119-2251.682h17.848a7.607,7.607,0,0,1,.818.015,1.624,1.624,0,0,1,1.467,1.593,1.625,1.625,0,0,1-1.5,1.648c-.217.021-.436.012-.655.012h-35.941a5.726,5.726,0,0,1-.736-.018,1.652,1.652,0,0,1-1.433-1.631,1.642,1.642,0,0,1,1.464-1.6,7.3,7.3,0,0,1,.818-.016Z" transform="translate(-134.614 -22.85)" fill="#926cdc"/><path d="M-2898.762-2248.387a1.652,1.652,0,0,1-1.654-1.645,1.651,1.651,0,0,1,1.6-1.613,1.653,1.653,0,0,1,1.654,1.645A1.653,1.653,0,0,1-2898.762-2248.387Z" transform="translate(-34.32 -22.882)" fill="#555"/><path d="M-2866.819-2251.646a1.651,1.651,0,0,1,1.594,1.7,1.657,1.657,0,0,1-1.663,1.554,1.651,1.651,0,0,1-1.594-1.7A1.657,1.657,0,0,1-2866.819-2251.646Z" transform="translate(-59.703 -22.881)" fill="#555"/><path d="M-2834.875-2248.387a1.649,1.649,0,0,1-1.667-1.632,1.651,1.651,0,0,1,1.591-1.626,1.65,1.65,0,0,1,1.667,1.632A1.651,1.651,0,0,1-2834.875-2248.387Z" transform="translate(-85.095 -22.881)" fill="#555"/><path d="M-2874.082-2027.758c-.357-.01-.7-.029-.995-.053,0-.3-.014-.621-.014-.937q0-16.292,0-32.583c0-.191,0-.381,0-.572a1.768,1.768,0,0,0-2-2.01c-.737-.017-1.475,0-2.211,0q-3.6,0-7.2,0a4.457,4.457,0,0,0-.812.047,1.646,1.646,0,0,0-1.513,1.8c-.012,1.009,0,2.018,0,3.029v31.225h-4.59v-15.453c0-.191-.016-.383,0-.574a1.772,1.772,0,0,0-1.967-1.95c-3.273.052-6.548.012-9.823.024a2.568,2.568,0,0,0-1.031.177,1.531,1.531,0,0,0-.927,1.507q0,1.843,0,3.685v.851l-.035,4.585v.008c.072,2.108.063,6.368-.055,7.19Zm-11.439-32.784h7.018c.033.035.051.053.068.074s.047.043.047.066c.012.191.027.379.027.57,0,10.656,0,21.312,0,32.021h-7.159Zm-18.34,18.068h7.112v14.665h-7.112Z" transform="translate(-28.872 -172.107)" fill="#926cdc"/><line x1="0.055" y2="7.19" transform="translate(-2936.141 -2207.054)"/><path d="M-2722.885-1974.095c.127-1.624.074-18.226-.062-18.845a62.205,62.205,0,0,0-7.083.065v18.833c.289.025.718.043,1.227.055h-5.9a8.148,8.148,0,0,0,1.378-.127v-19.876c0-.246-.01-.492.01-.736a1.613,1.613,0,0,1,1.54-1.522c.217-.016.437-.008.656-.008,3.082,0,6.167.053,9.249-.02,1.678-.041,2.326.744,2.313,2.282-.049,6.357-.021,12.715-.021,19.074v.906c.218.012.349.025.48.025,1.335,0,2.668,0,4.112,0h-9.979A18.527,18.527,0,0,0-2722.885-1974.095Z" transform="translate(-166.051 -225.878)" fill="#926cdc"/><path d="M-2638.563-2038.243q0-8.023,0-16.045c0-.246-.012-.492.01-.736a1.693,1.693,0,0,1,1.638-1.53,1.7,1.7,0,0,1,1.61,1.561c.02.244.008.49.008.736q0,8.023,0,16.045v.913h7.186c.008-.17.023-.3.023-.431q-.012-17.313-.027-34.624c0-.023-.031-.045-.049-.066s-.037-.037-.039-.039h-7.094v.845c0,1.829-.008,3.657,0,5.486a1.736,1.736,0,0,1-.595,1.458,1.525,1.525,0,0,1-1.686.246,1.6,1.6,0,0,1-.991-1.556c0-2.7-.01-5.4,0-8.1a1.575,1.575,0,0,1,1.427-1.7,3.968,3.968,0,0,1,.81-.076c3.083,0,6.167.014,9.249-.01,1.505-.01,2.289.652,2.278,2.264-.047,7.859-.02,15.718-.02,23.576v.994l.047,11.78h-13.8Z" transform="translate(-242.469 -162.608)" fill="#926cdc"/><line x1="3.843" transform="translate(-2894.855 -2199.864)" fill="none"/><line x1="2.203" transform="translate(-2902.953 -2199.864)" fill="none"/></g></g></svg>