<svg xmlns="http://www.w3.org/2000/svg" width="80.726" height="80.744" viewBox="0 0 80.726 80.744"><g transform="translate(4773.948 1183.199)"><path d="M-4736.886-1183.2a4.7,4.7,0,0,0,.672.148,34.166,34.166,0,0,1,16.072,5.383,34.518,34.518,0,0,1,12.47,13.884,34.5,34.5,0,0,1,3.116,9.438,32.9,32.9,0,0,1,.556,5.944,34.819,34.819,0,0,1-7.164,21.376c-.2.269-.405.54-.636.847.9.668,1.783,1.325,2.667,1.978,4.223,3.115,8.431,6.251,12.677,9.334a7.228,7.228,0,0,1,3.133,4.535c.008.043.065.076.1.115v2.207a2.113,2.113,0,0,0-.15.351,6.56,6.56,0,0,1-5.366,5.109,6.3,6.3,0,0,1-5.539-1.62c-1.785-1.705-3.514-3.468-5.265-5.208q-4.748-4.722-9.5-9.445c-.129-.128-.272-.24-.417-.366a35.54,35.54,0,0,1-6.687,3.513,34.212,34.212,0,0,1-8.5,2.158,34.116,34.116,0,0,1-5.1.28,34.718,34.718,0,0,1-17.907-5.424,34.59,34.59,0,0,1-14-17.122,34.816,34.816,0,0,1-1.978-7.823,34.119,34.119,0,0,1-.25-6.756,34.59,34.59,0,0,1,3-12.137,34.619,34.619,0,0,1,7.139-10.386,34.778,34.778,0,0,1,13.13-8.285,38.345,38.345,0,0,1,6.7-1.669c.7-.113,1.409-.13,2.112-.208a5.77,5.77,0,0,0,.669-.151Zm30.172,34.906a32.172,32.172,0,0,0-32.839-32.186,32.182,32.182,0,0,0-31.648,33.152,32.124,32.124,0,0,0,32.649,31.348A32.161,32.161,0,0,0-4706.714-1148.293Zm-10.43,27.457a1.2,1.2,0,0,0,.11.156q7.132,7.118,14.269,14.232a4.02,4.02,0,0,0,2.585,1.183,3.89,3.89,0,0,0,3.9-2.239,3.873,3.873,0,0,0-.9-4.464,9.761,9.761,0,0,0-.8-.634q-7.565-5.58-15.134-11.155c-.162-.119-.335-.224-.476-.318Z" fill="#555"/><path d="M-4692.018-1128.184a26.515,26.515,0,0,0-7.112-18.162,26.553,26.553,0,0,0-14.724-8.207,31.456,31.456,0,0,0-4.691-.479,2.754,2.754,0,0,1-.919-.151,1.316,1.316,0,0,1-.745-1.426,1.358,1.358,0,0,1,1.259-1.115,14.384,14.384,0,0,1,1.654.013,29.364,29.364,0,0,1,17.157,6.661,29.125,29.125,0,0,1,10.237,16.807,28.5,28.5,0,0,1,.56,8.136,29.2,29.2,0,0,1-6.359,16.382,29.165,29.165,0,0,1-15.21,10.11,29.091,29.091,0,0,1-5.876,1,28.491,28.491,0,0,1-15.864-3.337,29.1,29.1,0,0,1-15.054-19.494,27.886,27.886,0,0,1-.729-8.593,29.162,29.162,0,0,1,5.32-15.082,29.247,29.247,0,0,1,14.963-11.12,1.746,1.746,0,0,1,1.143-.156,1.4,1.4,0,0,1,1.021,1.18,1.347,1.347,0,0,1-.772,1.347,7.8,7.8,0,0,1-.88.335,26.791,26.791,0,0,0-17.412,19.3,26.289,26.289,0,0,0-.711,6.63,26.891,26.891,0,0,0,20.352,25.531,25.837,25.837,0,0,0,8.508.729,26.469,26.469,0,0,0,18.551-9.475,26.4,26.4,0,0,0,5.78-11.814A23,23,0,0,0-4692.018-1128.184Z" transform="translate(-20.087 -20.097)" fill="#555"/><path d="M-4690.811-1082.708c0-4.07-.012-8.141.006-12.211a5.119,5.119,0,0,1,2.456-4.412,5.434,5.434,0,0,1,3.136-.849c5.383.019,10.767.008,16.149.008,2.652,0,5.305-.028,7.958.015a5.164,5.164,0,0,1,4.816,3.216,4.886,4.886,0,0,1,.461,2.135c0,8.088.013,16.176-.008,24.264a5.365,5.365,0,0,1-5.382,5.351q-12.132.026-24.265,0a5.384,5.384,0,0,1-5.338-5.3C-4690.786-1074.567-4690.812-1078.638-4690.811-1082.708Zm32.276-3.944c-1.248-.154-29.015-.1-29.6.049v.615q0,7.526,0,15.052c0,.158-.005.316.007.473a2.66,2.66,0,0,0,2.31,2.506,6.418,6.418,0,0,0,1.019.064q11.427,0,22.854,0c.184,0,.368.006.551,0a2.733,2.733,0,0,0,2.854-2.817c.008-.157,0-.315,0-.473v-15.469Zm-.1-2.825c.041-.087.081-.133.081-.179.006-1.707.04-3.414,0-5.12a2.536,2.536,0,0,0-1.642-2.465,3.58,3.58,0,0,0-1.3-.238q-11.819-.02-23.637-.008a2.744,2.744,0,0,0-3,2.979c-.008,1.471,0,2.941,0,4.412,0,.2.024.4.038.619Z" transform="translate(-65.622 -65.536)" fill="#926cdc"/><path d="M-4656.326-1012.923h2.662v-.807c0-.972-.014-1.944.008-2.916a2.221,2.221,0,0,1,.184-.907,1.276,1.276,0,0,1,1.391-.659,1.337,1.337,0,0,1,1.115,1.337c.026,1.05.008,2.1.009,3.152v.8h2.675v-.793q0-3.31,0-6.62c0-.236-.007-.474.014-.709a1.264,1.264,0,0,1,1.3-1.205,1.3,1.3,0,0,1,1.369,1.233c.016.183.006.367.006.551q0,3.35,0,6.7v.84a26.59,26.59,0,0,0,2.688.023v-.822q0-2.049,0-4.1c0-.184-.011-.369.007-.552a1.289,1.289,0,0,1,1.326-1.188,1.28,1.28,0,0,1,1.335,1.174,6.155,6.155,0,0,1,.013.63q0,2.01,0,4.02v.854c.334,0,.589-.01.843,0a4.877,4.877,0,0,1,.781.078,1.257,1.257,0,0,1,1.054,1.2,1.26,1.26,0,0,1-.857,1.351,2.288,2.288,0,0,1-.767.125q-9.1.01-18.206,0c-1.165,0-1.668-.494-1.707-1.678-.025-.787-.006-1.576-.006-2.364q0-3.7,0-7.409a4.989,4.989,0,0,1,.076-.939,1.345,1.345,0,0,1,1.25-1.115,1.35,1.35,0,0,1,1.341,1.009,3.282,3.282,0,0,1,.086.854q.01,3.98,0,7.96Z" transform="translate(-90.669 -125.966)" fill="#91ddea"/><path d="M-4663.232-1072.023c-.289,0-.58.024-.865,0a1.283,1.283,0,0,1-1.181-1.253,1.323,1.323,0,0,1,1.129-1.391,9.35,9.35,0,0,1,1.808,0,1.358,1.358,0,0,1,1.124,1.331,1.367,1.367,0,0,1-1.229,1.312c-.26.024-.524,0-.787,0Z" transform="translate(-85.785 -85.64)" fill="#91ddea"/><path d="M-4631.28-1072.019c-.262,0-.526.02-.786,0a1.268,1.268,0,0,1-1.194-1.309,1.277,1.277,0,0,1,1.161-1.347,10.854,10.854,0,0,1,1.649,0,1.283,1.283,0,0,1,1.2,1.315,1.285,1.285,0,0,1-1.243,1.348c-.26.021-.524,0-.785,0Z" transform="translate(-111.062 -85.642)" fill="#91ddea"/></g></svg>