<svg xmlns="http://www.w3.org/2000/svg" width="81.483" height="77.309" viewBox="0 0 81.483 77.309"><g transform="translate(6783.411 1196.99)"><path d="M-6742.67-1196.987q17.324,0,34.647.009a8.986,8.986,0,0,1,2.1.21,5.284,5.284,0,0,1,3.988,5.029c.007.307.008.614.008.921q0,32.481,0,64.962a8.613,8.613,0,0,1-.121,1.921,5.4,5.4,0,0,1-5.324,4.246c-.245.012-.491,0-.737,0q-34.555,0-69.109-.013a8.732,8.732,0,0,1-2.537-.329,5.2,5.2,0,0,1-3.645-4.906c.008-.307,0-.614,0-.921q0-32.481,0-64.962a8.707,8.707,0,0,1,.117-1.922,5.407,5.407,0,0,1,5.329-4.244c.275-.013.552,0,.829,0Zm-38.558,15.1v1.126q0,27.411,0,54.821c0,.338-.005.676.009,1.013a3.051,3.051,0,0,0,2.473,2.918,7.468,7.468,0,0,0,1.461.124q34.6.008,69.195,0c.246,0,.492.009.737,0a3.362,3.362,0,0,0,2.57-1.235,3.465,3.465,0,0,0,.677-2.328q-.018-8.615-.006-17.23,0-19.072,0-38.145c0-.355-.02-.711-.03-1.068Zm.036-2.286h76.986a.906.906,0,0,0,.078-.222c0-2.487.03-4.975-.006-7.463a3,3,0,0,0-2.292-2.782,7.4,7.4,0,0,0-1.642-.153q-34.6-.011-69.2-.006c-.215,0-.43,0-.645,0a3.273,3.273,0,0,0-3.331,3.4c.082,2.177.02,4.361.021,6.542C-6781.226-1184.643-6781.206-1184.434-6781.192-1184.17Z" transform="translate(0)" fill="#555"/><path d="M-6664.82-1057.866c.915,2.4.471,4.335-1.2,5.582a4.274,4.274,0,0,1-5.147,0c-1.669-1.237-2.113-3.176-1.247-5.455a57.433,57.433,0,0,0-7.386-.072,4.5,4.5,0,0,1,.147,3.787,4.423,4.423,0,0,1-1.729,1.981,4.256,4.256,0,0,1-4.907-.333c-1.592-1.3-1.953-3-1.115-5.486h-.932c-1.29,0-2.58.016-3.87-.006a3.167,3.167,0,0,1-3.177-2.868,3.173,3.173,0,0,1,2.292-3.442,3.8,3.8,0,0,1,1-.121c1.658-.012,3.317-.005,4.975-.005h1.021l-5.821-21.354c-.306-.018-.6-.05-.9-.05-2.12,0-4.238,0-6.357-.01a2.744,2.744,0,0,1-.981-.164,1.049,1.049,0,0,1-.612-1.128,1.083,1.083,0,0,1,.949-.873,4.348,4.348,0,0,1,.552-.011q3.87,0,7.739,0c1.1,0,1.281.142,1.583,1.245q2.933,10.716,5.861,21.433c.08.291.169.579.257.88h18.713l4.713-16.024H-6685a6.114,6.114,0,0,1-.828-.017,1.087,1.087,0,0,1-1-1.118,1.067,1.067,0,0,1,1.064-1.046c.214-.018.43-.006.646-.006h25.521c1.624,0,1.966.461,1.506,2.033q-2.5,8.548-5.014,17.1c-.321,1.093-.6,1.3-1.781,1.3q-13.314,0-26.627,0a6.8,6.8,0,0,0-.828.016,1.034,1.034,0,0,0-.9,1,1.048,1.048,0,0,0,.882,1.029,6.8,6.8,0,0,0,.92.02h30.589c.246,0,.492-.013.737,0a1.092,1.092,0,0,1,1.157,1.156,1.065,1.065,0,0,1-1.18,1.022c-1.351.017-2.7.006-4.054.006Zm-16.667,2.149a2.144,2.144,0,0,0-2.153-2.147,2.157,2.157,0,0,0-2.1,2.115,2.129,2.129,0,0,0,2.159,2.135A2.116,2.116,0,0,0-6681.487-1055.718Zm14.983-.007a2.1,2.1,0,0,0-2.06-2.138,2.1,2.1,0,0,0-2.122,2.164,2.078,2.078,0,0,0,2.1,2.084A2.079,2.079,0,0,0-6666.5-1055.725Z" transform="translate(-62.28 -82.229)" fill="#91ddea"/><path d="M-6729.013-1061.75h4.779c.214,0,.431-.01.643.011a1.063,1.063,0,0,1,.967.84,1.039,1.039,0,0,1-.57,1.144,1.967,1.967,0,0,1-.794.176q-5.056.017-10.111,0a2.1,2.1,0,0,1-.543-.059,1.036,1.036,0,0,1-.828-1.155,1,1,0,0,1,1.034-.952c.734-.027,1.47-.008,2.206-.009Z" transform="translate(-36.133 -101.937)" fill="#926cdc"/><path d="M-6712.237-1040c1.562,0,3.123-.009,4.684,0a1.03,1.03,0,0,1,1.165.915.989.989,0,0,1-.692,1.149,2.538,2.538,0,0,1-.808.111q-4.362.011-8.724,0a2.827,2.827,0,0,1-.726-.066,1.085,1.085,0,0,1-.829-1.165,1.051,1.051,0,0,1,1.063-.943c.979-.024,1.958-.007,2.938-.008Z" transform="translate(-49.174 -118.333)" fill="#926cdc"/><path d="M-6695.389-1018.276h3.593c.184,0,.369-.006.553,0a1.139,1.139,0,0,1,1.232,1.089,1.174,1.174,0,0,1-1.25,1.09q-4.146.022-8.292,0a1.159,1.159,0,0,1-1.23-1.108,1.117,1.117,0,0,1,1.249-1.068C-6698.153-1018.287-6696.771-1018.276-6695.389-1018.276Z" transform="translate(-62.283 -134.708)" fill="#926cdc"/><path d="M-6562.668-1168.652h-10.042c-.246,0-.493.012-.736-.01a1.07,1.07,0,0,1-1-.911,1.031,1.031,0,0,1,.73-1.137,3.436,3.436,0,0,1,1-.115q7.232-.01,14.464,0c1.935,0,3.87,0,5.8.005a2.907,2.907,0,0,1,.9.118.974.974,0,0,1,.674,1.16,1.01,1.01,0,0,1-.916.881,6.538,6.538,0,0,1-.736.012Z" transform="translate(-157.503 -19.718)" fill="#926cdc"/><path d="M-6684.457-1179.31a3.217,3.217,0,0,1,3.257,3.157,3.259,3.259,0,0,1-3.257,3.281,3.282,3.282,0,0,1-3.2-3.235A3.234,3.234,0,0,1-6684.457-1179.31Zm-1,3.211a1.046,1.046,0,0,0,1.054,1.042,1.082,1.082,0,0,0,1.005-1.106,1.013,1.013,0,0,0-1.122-.958A.93.93,0,0,0-6685.452-1176.1Z" transform="translate(-72.175 -13.323)" fill="#555"/><path d="M-6719.379-1179.311a3.188,3.188,0,0,1,3.268,3.129,3.264,3.264,0,0,1-3.216,3.312,3.266,3.266,0,0,1-3.239-3.209A3.178,3.178,0,0,1-6719.379-1179.311Zm.059,2.189a1.048,1.048,0,0,0-1.067,1.026,1.125,1.125,0,0,0,1.087,1.039,1.023,1.023,0,0,0,.983-1.013A.946.946,0,0,0-6719.32-1177.122Z" transform="translate(-45.862 -13.322)" fill="#555"/><path d="M-6757.264-1176.136a3.213,3.213,0,0,1,3.172-3.23,3.274,3.274,0,0,1,3.271,3.259,3.278,3.278,0,0,1-3.251,3.2A3.208,3.208,0,0,1-6757.264-1176.136Zm2.191-.01a1.028,1.028,0,0,0,1.04,1.053,1.107,1.107,0,0,0,1.025-1.1,1.031,1.031,0,0,0-1.119-.969A.924.924,0,0,0-6755.072-1176.146Z" transform="translate(-19.706 -13.284)" fill="#555"/></g></svg>