<svg xmlns="http://www.w3.org/2000/svg" xmlns:xlink="http://www.w3.org/1999/xlink" width="448.955" height="254.178" viewBox="0 0 448.955 254.178"><defs><linearGradient id="a" x1="0.199" y1="-0.514" x2="1.263" y2="3.01" gradientUnits="objectBoundingBox"><stop offset="0" stop-color="#ff9085"/><stop offset="1" stop-color="#fb6fbb"/></linearGradient><linearGradient id="b" x1="0.342" y1="0.254" x2="1.326" y2="1.886" xlink:href="#a"/><linearGradient id="c" x1="-3.03" y1="-0.718" x2="1.794" y2="0.946" xlink:href="#a"/><linearGradient id="d" x1="0.343" y1="0.24" x2="1.322" y2="1.828" gradientUnits="objectBoundingBox"><stop offset="0.004" stop-color="#e38ddd"/><stop offset="1" stop-color="#9571f6"/></linearGradient><linearGradient id="e" x1="-3.023" y1="-0.696" x2="1.791" y2="0.938" xlink:href="#d"/><linearGradient id="f" x1="-1.125" y1="-0.902" x2="2.221" y2="1.982" gradientUnits="objectBoundingBox"><stop offset="0" stop-color="#ffc444"/><stop offset="0.996" stop-color="#f36f56"/></linearGradient><linearGradient id="g" x1="0.554" y1="1.227" x2="0.438" y2="-0.33" xlink:href="#f"/><linearGradient id="h" x1="-0.282" y1="-0.059" x2="3.858" y2="2.9" gradientUnits="objectBoundingBox"><stop offset="0" stop-color="#aa80f9"/><stop offset="0.996" stop-color="#6165d7"/></linearGradient><linearGradient id="i" x1="-0.937" y1="-0.457" x2="3.254" y2="2.308" xlink:href="#h"/><linearGradient id="j" x1="-0.283" y1="-0.058" x2="3.863" y2="2.896" xlink:href="#h"/><linearGradient id="k" x1="-1.168" y1="-0.438" x2="3.856" y2="2.389" xlink:href="#h"/><linearGradient id="l" x1="-1.107" y1="-2.08" x2="3.153" y2="4.908" xlink:href="#f"/><linearGradient id="m" x1="-0.757" y1="-0.257" x2="2.773" y2="2.331" xlink:href="#h"/><linearGradient id="n" x1="-4.162" y1="-20.7" x2="9.571" y2="41.779" xlink:href="#h"/><linearGradient id="o" x1="-1.484" y1="-0.777" x2="3.54" y2="3.31" xlink:href="#h"/><linearGradient id="p" x1="-1.125" y1="-0.902" x2="2.221" y2="1.982" xlink:href="#a"/><linearGradient id="q" x1="0.44" y1="0.099" x2="0.689" y2="1.769" xlink:href="#a"/><linearGradient id="r" x1="-7.361" y1="3.177" x2="-7.879" y2="5.221" gradientUnits="objectBoundingBox"><stop offset="0" stop-color="#40447e"/><stop offset="0.996" stop-color="#3c3b6b"/></linearGradient><linearGradient id="s" x1="-4.964" y1="1.768" x2="-5.316" y2="3.376" xlink:href="#r"/><linearGradient id="t" x1="-7.498" y1="3.181" x2="-8.024" y2="5.225" xlink:href="#a"/><linearGradient id="u" x1="-4.976" y1="1.772" x2="-5.328" y2="3.38" xlink:href="#a"/><linearGradient id="v" x1="-54.695" y1="21.232" x2="-54.569" y2="18.57" gradientUnits="objectBoundingBox"><stop offset="0" stop-color="#ff9085"/><stop offset="0.033" stop-color="#ff8f87"/><stop offset="1" stop-color="#fb6fbb"/></linearGradient><linearGradient id="w" x1="-7.091" y1="3.354" x2="-7.073" y2="2.912" xlink:href="#v"/><linearGradient id="x" x1="-230.412" y1="0.5" x2="-229.412" y2="0.5" xlink:href="#r"/><linearGradient id="y" x1="-508.936" y1="-2.699" x2="-508.626" y2="0.749" gradientUnits="objectBoundingBox"><stop offset="0" stop-color="#311944"/><stop offset="1" stop-color="#a03976"/></linearGradient><linearGradient id="z" x1="-313.607" y1="-1.467" x2="-313.405" y2="2.573" xlink:href="#y"/><linearGradient id="aa" x1="-38.747" y1="0.856" x2="-39.157" y2="0.295" xlink:href="#r"/><linearGradient id="ab" x1="-41.032" y1="0.859" x2="-41.465" y2="0.298" xlink:href="#r"/><linearGradient id="ac" x1="-62.317" y1="0.48" x2="-63.398" y2="0.542" xlink:href="#r"/><linearGradient id="ad" x1="-40.297" y1="0.4" x2="-41.811" y2="5.122" xlink:href="#f"/><linearGradient id="ae" x1="-24.543" y1="0.182" x2="-25.443" y2="2.029" xlink:href="#f"/><linearGradient id="af" x1="-303.483" y1="-6.545" x2="-308.843" y2="5.039" xlink:href="#y"/><linearGradient id="ag" x1="-189.378" y1="1.899" x2="-188.844" y2="-0.742" xlink:href="#y"/><linearGradient id="ah" x1="-394.924" y1="-68.839" x2="-393.104" y2="-71.112" xlink:href="#y"/><linearGradient id="ai" x1="-1787.923" y1="-322.224" x2="-1779.688" y2="-332.788" xlink:href="#y"/><linearGradient id="aj" x1="-24.988" y1="0.046" x2="-25.905" y2="2.249" xlink:href="#f"/><linearGradient id="ak" x1="-400.326" y1="0.5" x2="-399.326" y2="0.5" xlink:href="#r"/><linearGradient id="al" x1="2.618" y1="-8.59" x2="-0.965" y2="6.66" xlink:href="#y"/><linearGradient id="am" x1="0.574" y1="-0.344" x2="0.169" y2="4.698" xlink:href="#a"/><linearGradient id="an" x1="1.039" y1="-0.209" x2="-0.247" y2="1.475" xlink:href="#a"/><linearGradient id="ao" x1="0.807" y1="-0.297" x2="0.076" y2="1.59" xlink:href="#a"/><linearGradient id="ap" x1="0.695" y1="-0.441" x2="0.232" y2="1.787" xlink:href="#a"/><linearGradient id="aq" x1="1.379" y1="-0.171" x2="-0.718" y2="1.426" xlink:href="#a"/><linearGradient id="ar" x1="1.297" y1="-0.178" x2="-0.603" y2="1.434" xlink:href="#a"/><linearGradient id="as" x1="1.477" y1="-0.166" x2="-0.853" y2="1.419" xlink:href="#a"/><linearGradient id="at" x1="1.23" y1="-0.184" x2="-0.51" y2="1.442" xlink:href="#a"/><linearGradient id="au" x1="0.947" y1="-0.232" x2="-0.117" y2="1.504" xlink:href="#a"/><linearGradient id="av" x1="-233.515" y1="0.5" x2="-232.515" y2="0.5" xlink:href="#r"/><linearGradient id="aw" x1="-343.241" y1="0.5" x2="-342.241" y2="0.5" xlink:href="#r"/><linearGradient id="ax" x1="-441.882" y1="1.086" x2="-441.195" y2="3.067" xlink:href="#y"/><linearGradient id="ay" x1="-642.505" y1="-2.415" x2="-644.078" y2="5.498" xlink:href="#y"/><linearGradient id="az" x1="-75.092" y1="0.872" x2="-75.938" y2="0.479" gradientUnits="objectBoundingBox"><stop offset="0" stop-color="#ab316d"/><stop offset="1" stop-color="#792d3d"/></linearGradient><linearGradient id="bb" x1="-61.615" y1="0.841" x2="-62.322" y2="0.335" xlink:href="#az"/><linearGradient id="bc" x1="-57.443" y1="-0.045" x2="-57.799" y2="0.875" xlink:href="#f"/><linearGradient id="bd" x1="-272.076" y1="1.234" x2="-272.617" y2="0.558" xlink:href="#y"/><linearGradient id="be" x1="-45.218" y1="0.116" x2="-45.504" y2="1.45" xlink:href="#f"/><linearGradient id="bf" x1="-61.677" y1="-0.356" x2="-62.058" y2="0.833" xlink:href="#f"/><linearGradient id="bg" x1="-230.78" y1="1.51" x2="-229.652" y2="-0.984" xlink:href="#y"/><linearGradient id="bh" x1="-345.557" y1="2.049" x2="-343.867" y2="-0.19" xlink:href="#y"/><linearGradient id="bi" x1="-1904.063" y1="6.892" x2="-1894.762" y2="-3.202" xlink:href="#y"/><linearGradient id="bj" x1="-122.988" y1="-0.014" x2="-123.378" y2="1.22" xlink:href="#az"/><linearGradient id="bk" x1="-353.627" y1="-0.268" x2="-354.799" y2="1.709" xlink:href="#az"/><linearGradient id="bl" x1="-239.999" y1="57.202" x2="-239.234" y2="57.887" xlink:href="#f"/><linearGradient id="bm" x1="44.743" y1="1.152" x2="44.743" y2="-0.027" xlink:href="#f"/><linearGradient id="bn" x1="46.78" y1="0.734" x2="46.78" y2="-0.116" xlink:href="#f"/><linearGradient id="bo" x1="6.138" y1="0.5" x2="7.138" y2="0.5" gradientUnits="objectBoundingBox"><stop offset="0" stop-color="#311944"/><stop offset="1" stop-color="#893976"/></linearGradient><linearGradient id="bp" x1="-50.89" y1="1.101" x2="-51.564" y2="-0.255" gradientUnits="objectBoundingBox"><stop offset="0" stop-color="#444b8c"/><stop offset="0.996" stop-color="#26264f"/></linearGradient><linearGradient id="bq" x1="6.389" y1="0.047" x2="7.11" y2="0.677" xlink:href="#bo"/><linearGradient id="br" x1="-29.992" y1="-0.647" x2="-30.954" y2="1.18" xlink:href="#d"/><linearGradient id="bs" x1="-94.018" y1="-0.369" x2="-95.79" y2="2.006" xlink:href="#d"/><linearGradient id="bt" x1="13.485" y1="-1.343" x2="14.029" y2="1.115" xlink:href="#d"/><linearGradient id="bu" x1="-308.234" y1="-1.129" x2="-307.199" y2="3.497" xlink:href="#f"/><linearGradient id="bv" x1="-105.552" y1="-0.943" x2="-107.588" y2="1.086" xlink:href="#d"/><linearGradient id="bw" x1="-91.306" y1="-0.415" x2="-92.664" y2="2.104" xlink:href="#a"/><linearGradient id="bx" x1="19.625" y1="0.292" x2="18.879" y2="1.155" xlink:href="#f"/><linearGradient id="by" x1="3.634" y1="0.5" x2="4.634" y2="0.5" gradientUnits="objectBoundingBox"><stop offset="0" stop-color="#311944"/><stop offset="1" stop-color="#6b3976"/></linearGradient><linearGradient id="bz" x1="0.325" y1="23.974" x2="-3.108" y2="29.692" xlink:href="#f"/><linearGradient id="ca" x1="-518.23" y1="-0.036" x2="-518.663" y2="1.475" xlink:href="#az"/><linearGradient id="cb" x1="127.251" y1="-57.76" x2="126.463" y2="-64.435" xlink:href="#bp"/><linearGradient id="cc" x1="442.666" y1="-52.926" x2="442.666" y2="-62.692" xlink:href="#f"/><linearGradient id="cd" x1="302.675" y1="-51.759" x2="302.675" y2="-61.169" xlink:href="#f"/><linearGradient id="ce" x1="167.318" y1="-33.124" x2="166.28" y2="-36.857" xlink:href="#bp"/><linearGradient id="cf" x1="51.642" y1="-2.527" x2="51.486" y2="-1.569" xlink:href="#bo"/><linearGradient id="cg" x1="57.97" y1="-2.527" x2="57.795" y2="-1.569" xlink:href="#bo"/><linearGradient id="ch" x1="51.718" y1="-2.017" x2="48.945" y2="-2.051" xlink:href="#bo"/><linearGradient id="ci" x1="14.213" y1="-1.256" x2="14.771" y2="-2.497" xlink:href="#a"/><linearGradient id="cj" x1="-24.454" y1="-14.373" x2="-23.998" y2="-12.37" xlink:href="#a"/><linearGradient id="ck" x1="92.424" y1="-13.897" x2="91.764" y2="-13.03" xlink:href="#f"/><linearGradient id="cl" x1="37.545" y1="-7.623" x2="37.01" y2="-6.678" xlink:href="#bp"/><linearGradient id="cm" x1="47.082" y1="-8.411" x2="46.511" y2="-7.241" xlink:href="#f"/><linearGradient id="cn" x1="126.99" y1="-52.793" x2="127.428" y2="-54.769" xlink:href="#h"/><linearGradient id="co" x1="272.918" y1="-32.055" x2="271.971" y2="-31.123" xlink:href="#f"/><linearGradient id="cp" x1="38.862" y1="-2.683" x2="40.459" y2="-5.382" xlink:href="#a"/><linearGradient id="cq" x1="17.666" y1="-2.408" x2="18.174" y2="-3.542" xlink:href="#bp"/></defs><g transform="translate(-1601.837 -634.48)"><path d="M1702.969,1601.609c-2.948.345-35.651,4.229-35.482,6.847.12,1.872,17.014,2.858,32.37,1.868,24.464-1.578,47.452-8.331,47.1-10.583C1746.565,1597.2,1716.354,1600.042,1702.969,1601.609Z" transform="translate(-50.853 -751.345)" opacity="0.15"/><path d="M2015.946,1639.976c-18.534,2.453-27.8,3.679-28.013,5.188-.41,2.925,15.656,8.752,32.37,10.583,9.822,1.076,30.11,1.894,31.125-2.7.978-4.427-15.747-14.83-32.163-13.488C2018.794,1639.6,2017.839,1639.726,2015.946,1639.976Z" transform="translate(-300.541 -783.072)" opacity="0.15"/><path d="M3337.936,1727.376c-4.153.233-30.322,1.7-30.5,5.6-.134,2.87,13.815,7.041,27.39,6.848,17.214-.245,33.515-7.5,32.993-10.583C3367.221,1725.73,3344.644,1727,3337.936,1727.376Z" transform="translate(-1328.708 -851.174)" opacity="0.15"/><g transform="translate(1601.837 634.48)" opacity="0.05"><path d="M1686.04,637.123l-55.964-2.642-29.6,45.936,29.6,46.939,55.964-.748,26.477-44.294Z" transform="translate(-1600.473 -634.48)" fill="#232323"/><path d="M2111.577,655.474l-20.723-.974-10.589,17.452,10.589,18.186,20.723.463,10.14-17.212Z" transform="translate(-1974.33 -650.079)" fill="#232323"/><path d="M1777.444,1072.229l-32.7.534-16.9,27.568,16.9,26.414,32.7-1.7,15.827-26.949Z" transform="translate(-1699.723 -975.577)" fill="#232323"/></g><g transform="translate(1873.255 664.666)"><path d="M2909.58,884.937l-69.526,1.258c-5.656.1-10.3,5.234-10.3,11.46s4.645,11.058,10.3,10.8l69.526-3.223c4.638-.215,8.354-4.877,8.354-10.415S2914.218,884.853,2909.58,884.937Z" transform="translate(-2829.753 -859.823)" opacity="0.5" fill="url(#a)"/><g transform="translate(30.727 0)"><path d="M3008.993,771.754l-35.131-.558c-2.722-.043-4.942,2.424-4.942,5.51s2.22,5.592,4.942,5.6l35.131.046c2.459,0,4.441-2.351,4.441-5.259S3011.452,771.793,3008.993,771.754Z" transform="translate(-2968.92 -771.196)" fill="url(#b)"/><path d="M3188.521,779.733c0,2.85-1.913,5.158-4.288,5.155-2.391,0-4.34-2.345-4.34-5.229s1.95-5.192,4.34-5.154C3186.607,774.542,3188.521,776.883,3188.521,779.733Z" transform="translate(-3133.311 -773.773)" fill="url(#c)"/></g><g transform="translate(54.535 13.658)" opacity="0.5"><path d="M3106.859,833.137l-26.438.058c-2.024,0-3.674,1.925-3.674,4.289s1.65,4.258,3.674,4.231l26.438-.363c1.873-.025,3.384-1.877,3.384-4.135S3108.732,833.133,3106.859,833.137Z" transform="translate(-3076.747 -833.119)" fill="url(#d)"/><path d="M3242.205,837.069c0,2.221-1.469,4.041-3.289,4.065s-3.32-1.772-3.32-4.013,1.49-4.062,3.32-4.066S3242.205,834.848,3242.205,837.069Z" transform="translate(-3200.524 -833.055)" fill="url(#e)"/></g></g><g transform="translate(1651.365 660.145)"><path d="M2226.589,1504.958l-384.272-2.789v8.461a4.65,4.65,0,0,0,3.947,4.6l108.664,16.641a17.441,17.441,0,0,0,3.9.155l263.588-19.044a4.5,4.5,0,0,0,4.175-4.489Z" transform="translate(-1838.447 -1336.253)" fill="#bfc8d6"/><path d="M2073.479,905.468,1832.635,920.99c-4.309.278-7.814-2.665-7.815-6.573l-.029-156.573c0-3.908,3.5-7.076,7.813-7.077l240.847-.044a6.407,6.407,0,0,1,6.423,6.4l.026,141.538A6.931,6.931,0,0,1,2073.479,905.468Z" transform="translate(-1824.791 -750.722)" fill="#bfc8d6"/><path d="M2090.872,905.464l-240.845,15.522c-4.31.278-7.814-2.665-7.815-6.573l-.028-156.573c0-3.908,3.5-7.076,7.813-7.077l240.848-.044a6.406,6.406,0,0,1,6.423,6.4l.026,141.539A6.93,6.93,0,0,1,2090.872,905.464Z" transform="translate(-1838.343 -750.719)" fill="#d8dee8"/><path d="M2120.346,927.573l-224.322,13.486c-3.507.21-6.358-2.2-6.359-5.395l-.025-137.08c0-3.19,2.849-5.788,6.357-5.8l224.324-.885a5.255,5.255,0,0,1,5.3,5.241l.023,124.855A5.679,5.679,0,0,1,2120.346,927.573Z" transform="translate(-1875.322 -782.805)" fill="#eff2f6"/><path d="M2441.931,760.919a2.777,2.777,0,1,1-2.771-2.632A2.714,2.714,0,0,1,2441.931,760.919Z" transform="translate(-2301.348 -756.616)" fill="#fff"/><path d="M2033.81,862.757c-18.664-9.087-33.335,2.435-47.5-8.928-8.586-6.889-4.372-12.028-14.939-22.323-11.7-11.4-19.32-7.568-31.081-17.83-14.871-12.976-7.436-23.074-20.245-32.39-15.54-11.3-32.294-.836-47.086-11.674-6.38-4.675-9.882-11.472-11.711-18.7l-14.471,0a4.393,4.393,0,0,0-4.595,4.157l.03,162.412a4.072,4.072,0,0,0,4.6,3.86l246.717-15.9a4.046,4.046,0,0,0,2.973-1.646c-18.06-.593-29.157-6.072-36.251-11.737C2046.369,880.975,2048.773,870.043,2033.81,862.757Z" transform="translate(-1838.341 -750.868)" fill="#fff" opacity="0.48" style="mix-blend-mode:soft-light;isolation:isolate"/><path d="M2100.578,1449.447l-258.259,16.339,112.61,17.245a17.439,17.439,0,0,0,3.9.155l267.764-19.345-121.906-14.284A22.87,22.87,0,0,0,2100.578,1449.447Z" transform="translate(-1838.449 -1295.136)" fill="#fff"/><path d="M2012.995,1475.493,2228,1461.687l66.545,7.735-213.155,14.754Z" transform="translate(-1971.441 -1304.709)" fill="#d8dee8" opacity="0.47"/><g transform="translate(23.786 20.797)"><path d="M1997.377,907.274,1979.4,844.911a67.773,67.773,0,0,0-46.883,64.222Z" transform="translate(-1932.522 -844.911)" fill="#d8dee8"/><g transform="translate(16.772 13.371)"><path d="M2008.483,1148.759a51,51,0,0,0,18.217,35.57l28.1-36.9Z" transform="translate(-2008.483 -1094.007)" fill="#fff"/><path d="M2197.923,952.371c10.809-10.35,23.829-22.845,34.166-32.81a51.193,51.193,0,0,0-47.272-12.665Z" transform="translate(-2145.884 -905.47)" fill="#fff"/><path d="M2254.39,1017.133l39.13,28.742a51.114,51.114,0,0,0-4.179-62.3q-4.291,4.136-9.529,9.172C2269.239,1002.909,2258.6,1013.1,2254.39,1017.133Z" transform="translate(-2200.095 -966.328)" fill="#fff"/><path d="M2249.242,1156.4l.759,46.71a51.007,51.007,0,0,0,36.914-19.039Z" transform="translate(-2196.084 -1100.999)" fill="#fff"/><path d="M2133.855,1165.357l-27.115,35.6a50.84,50.84,0,0,0,27.843,9.193Z" transform="translate(-2085.045 -1107.975)" fill="#fff"/></g></g><g transform="translate(157.448 40.781)"><path d="M2537.887,957.239v39.435a2.292,2.292,0,0,0,2.368,2.305l77.226-2.137a2.28,2.28,0,0,0,2.15-2.315V957Z" transform="translate(-2537.887 -952.233)" fill="#f4f7fa"/><path d="M2617.48,935.419h-77.226a2.369,2.369,0,0,0-2.368,2.37v4.041l81.744-.31v-3.846A2.2,2.2,0,0,0,2617.48,935.419Z" transform="translate(-2537.887 -935.419)" fill="#d8dee8"/><path d="M2555.4,945.593a1.048,1.048,0,1,1-1.048-1.049A1.052,1.052,0,0,1,2555.4,945.593Z" transform="translate(-2549.903 -942.529)" fill="#fff"/><g transform="translate(5.196 14.824)"><path d="M2572.052,1011.861a4.845,4.845,0,0,1,3.646-2.565l.111-6.736a11.621,11.621,0,0,0-10.068,7.038Z" transform="translate(-2564.788 -1002.56)" fill="#d8dee8"/><path d="M2616.568,1009.336a4.68,4.68,0,0,1,4,4.231l6.6.172a11.239,11.239,0,0,0-10.49-11.134Z" transform="translate(-2604.393 -1002.595)" fill="#fff"/><path d="M2598.755,1058.024a4.856,4.856,0,0,1-4.661,4.035,4.64,4.64,0,0,1-1.936-.38l-3.52,5.813a11.132,11.132,0,0,0,5.456,1.275,11.664,11.664,0,0,0,11.26-10.577Z" transform="translate(-2582.629 -1045.778)" fill="#fff"/><path d="M2566.346,1052.74l3.525-5.815a4.719,4.719,0,0,1-1.743-3.684,4.832,4.832,0,0,1,.115-1.054l-6.314-2.259a11.669,11.669,0,0,0-.509,3.418A11.315,11.315,0,0,0,2566.346,1052.74Z" transform="translate(-2561.421 -1031.677)" fill="#fff"/></g><g transform="translate(29.966 14.608)"><path d="M2683.927,1010.745a4.705,4.705,0,0,1,3.541-2.526l.107-6.638a11.287,11.287,0,0,0-9.775,6.934Z" transform="translate(-2676.874 -1001.581)" fill="#fff"/><path d="M2727.149,1008.258a4.584,4.584,0,0,1,3.885,4.17l6.408.171a11.009,11.009,0,0,0-10.187-10.974Z" transform="translate(-2715.327 -1001.615)" fill="#d8dee8"/><path d="M2709.854,1056.24a4.736,4.736,0,0,1-4.526,3.975,4.452,4.452,0,0,1-1.88-.374l-3.418,5.727a10.685,10.685,0,0,0,5.3,1.259,11.394,11.394,0,0,0,10.935-10.42Z" transform="translate(-2694.195 -1044.172)" fill="#fff"/><path d="M2678.386,1051.018l3.422-5.73a4.68,4.68,0,0,1-1.693-3.631,4.872,4.872,0,0,1,.112-1.039l-6.129-2.227a11.659,11.659,0,0,0-.494,3.368A11.2,11.2,0,0,0,2678.386,1051.018Z" transform="translate(-2673.604 -1030.264)" fill="#fff"/></g><g transform="translate(54.018 14.398)"><path d="M2792.567,1009.661a4.574,4.574,0,0,1,3.439-2.489l.1-6.543a10.973,10.973,0,0,0-9.495,6.832Z" transform="translate(-2785.716 -1000.629)" fill="#fff"/><path d="M2834.552,1007.212a4.494,4.494,0,0,1,3.775,4.111l6.226.169a10.79,10.79,0,0,0-9.9-10.818Z" transform="translate(-2823.068 -1000.664)" fill="#fff"/><path d="M2817.751,1054.507a4.622,4.622,0,0,1-4.4,3.917,4.286,4.286,0,0,1-1.826-.369l-3.32,5.643a10.257,10.257,0,0,0,5.147,1.242,11.137,11.137,0,0,0,10.623-10.268Z" transform="translate(-2802.541 -1042.611)" fill="#fff"/><path d="M2787.186,1049.347l3.324-5.646a4.638,4.638,0,0,1-1.644-3.579,4.878,4.878,0,0,1,.108-1.024l-5.954-2.2a11.662,11.662,0,0,0-.48,3.319A11.087,11.087,0,0,0,2787.186,1049.347Z" transform="translate(-2782.54 -1028.894)" fill="#d8dee8"/></g></g></g><g transform="translate(1729.584 720.575)"><g transform="translate(158.103 0)"><path d="M2978.139,1100.376l1.747-3.849a3.1,3.1,0,0,0-.87-3.873l-4.524-2.78a49.863,49.863,0,0,0,2.516-10.943l5.05-.354a2.886,2.886,0,0,0,2.354-3.04v-4.222a2.478,2.478,0,0,0-2.354-2.74l-4.918.281a46.35,46.35,0,0,0-2.282-10.887l4.158-3.085a2.6,2.6,0,0,0,.366-.333l.532,1.382,6.831-8.4-8.917-.761a2.2,2.2,0,0,0-1.475-.877,2.089,2.089,0,0,0-1.486.411l-4.108,2.985a37.633,37.633,0,0,0-6.779-8.125l.309-.646,6.279,1.282.8-10.394-9.535-1.573a2.348,2.348,0,0,0-2.94,1.356l-2.37,4.888c-3.045-1.514-.522-3.108-3.983-3.569l3.62-5.331c0-1.661-10.6-2.768-12.036-2.768h-3.834a2.865,2.865,0,0,0-2.631,3.049v5.708a34.012,34.012,0,0,0-10.281,3.337l6.549-4.812s-11.535-2.185-12.848-1.318l-3.51,2.32a3.371,3.371,0,0,0-1.015,4.283l2.655,5.138a30.1,30.1,0,0,0-6.342,7.5l-6.167-1.392a2.758,2.758,0,0,0-3.9,1.273l-2.113,4.116a3.3,3.3,0,0,0,1.054,4.312l4.973,2.98a49.9,49.9,0,0,0-2.716,12.135l-5.966.341a3.293,3.293,0,0,0-2.912,3.374v4.712a2.869,2.869,0,0,0,2.473,2.994v0l6.78,1.085a45.137,45.137,0,0,0,2.773,9.98l-5.4,3.928a3.551,3.551,0,0,0-1.054,4.446l2.113,3.847c.791,1.442,13.357,2.318,13.357,2.318l-3.99-5.6a36.185,36.185,0,0,0,7.539,7.547l-3.149,6.5a3.129,3.129,0,0,0,1.015,4.153l3.51,1.873a2.269,2.269,0,0,0,.69.234l-.014.066,10.95,1.349,1.072-8.264a31.112,31.112,0,0,0,3.881.349v7.071a2.662,2.662,0,0,0,1.6,2.6l-.048.207,10.849,1.354.218-13.406a35.921,35.921,0,0,0,5.728-2.786l2.892,5.6a2.183,2.183,0,0,0,1.591,1.211v0l10.486,1.419-3.591-9.883-1.449.445-2.39-4.686a44.8,44.8,0,0,0,6.651-8.462l4.679,2.805C2976.017,1102.45,2977.48,1101.828,2978.139,1100.376Zm-35.928-3.621c-10.266.914-18.78-8.093-18.78-20.139s8.514-22.123,18.78-22.5c10.012-.366,17.949,8.677,17.949,20.191S2952.223,1095.863,2942.211,1096.755Zm43.843-23.131,7.1-3.362-7.1-.862Zm-8.719,28.7,8.126,1.1,1.186-2.771-6.732-4.092Z" transform="translate(-2895.116 -1024.412)" opacity="0.3" fill="url(#f)" style="mix-blend-mode:multiply;isolation:isolate"/><path d="M3031.241,1076.151l-4.89.282a46.32,46.32,0,0,0-2.269-10.855l4.135-3.077a3.324,3.324,0,0,0,.865-3.973l-1.737-3.615a2.129,2.129,0,0,0-3.253-.965l-4.084,2.979a37.479,37.479,0,0,0-6.741-8.1l2.35-4.922a3.253,3.253,0,0,0-.9-4l-3.128-2.133a2.288,2.288,0,0,0-3.387,1.11l-2.356,4.874a30.979,30.979,0,0,0-9.752-3v-5.629a2.813,2.813,0,0,0-2.575-3.005l-3.812,0a2.855,2.855,0,0,0-2.616,3.041v5.692a33.763,33.763,0,0,0-10.222,3.332l-2.547-5.007a2.537,2.537,0,0,0-3.716-1.1l-3.49,2.314a3.368,3.368,0,0,0-1.01,4.271l2.64,5.122a43.926,43.926,0,0,0-7.661,9.034l-4.776-2.941a2.74,2.74,0,0,0-3.88,1.271l-2.1,4.105a3.3,3.3,0,0,0,1.048,4.3l4.944,2.97a49.861,49.861,0,0,0-2.7,12.1l-5.932.343a3.283,3.283,0,0,0-2.895,3.366v4.7a2.813,2.813,0,0,0,2.895,2.994l6.089-.431a45.439,45.439,0,0,0,2.972,11.453l-5.374,3.919a3.549,3.549,0,0,0-1.048,4.434l2.1,3.835a2.55,2.55,0,0,0,3.88.772l5.433-4.044a36.015,36.015,0,0,0,7.5,7.522l-3.131,6.478a3.125,3.125,0,0,0,1.01,4.141l3.49,1.866a2.785,2.785,0,0,0,3.716-1.58l3.1-6.5a30.756,30.756,0,0,0,9.664,1.828v7.051a2.455,2.455,0,0,0,2.616,2.705l3.813-.488a3.29,3.29,0,0,0,2.575-3.336v-6.972a34.907,34.907,0,0,0,9.233-3.913l2.875,5.58a2.135,2.135,0,0,0,3.387.675l3.128-2.535a3.49,3.49,0,0,0,.9-4.113l-2.791-5.487a44.7,44.7,0,0,0,6.613-8.44l4.653,2.8c1.142.686,2.6.065,3.253-1.382l1.737-3.839a3.094,3.094,0,0,0-.865-3.862l-4.5-2.77a49.886,49.886,0,0,0,2.5-10.913l5.021-.355a2.877,2.877,0,0,0,2.34-3.032v-4.21A2.467,2.467,0,0,0,3031.241,1076.151Zm-39.62,28.115c-10.206.916-18.672-8.062-18.672-20.074s8.466-22.063,18.672-22.442c9.955-.37,17.847,8.645,17.847,20.126S3001.576,1103.372,2991.621,1104.266Z" transform="translate(-2933.828 -1030.426)" fill="url(#g)"/></g><g transform="translate(0 15.272)" opacity="0.3" style="mix-blend-mode:multiply;isolation:isolate"><path d="M2239.208,1168q0-5.793-4.176-8.567c-2.805-1.862-7.9-3.681-15.348-5.47a108.442,108.442,0,0,1-18.17-5.748c-12.55-5.6-18.946-13.923-18.946-24.858a24.771,24.771,0,0,1,5.152-15.329c3.4-4.5,8.255-8.022,14.505-10.574a55.112,55.112,0,0,1,20.482-3.872,46.671,46.671,0,0,1,19.541,3.659,29.247,29.247,0,0,1,12.871,10.518c3,4.513-4.381,12.148-4.381,17.986l-11.46-1.644q0-6.815-4.386-10.465c-2.947-2.452-7.117-3.612-12.543-3.469-5.3.14-9.451,1.336-12.437,3.6a10.559,10.559,0,0,0-4.515,8.784q0,5.014,5.288,8.152c3.493,2.074,8.59,3.91,15.241,5.5,12.01,2.859,20.573,6.673,25.865,11.456,5.233,4.729,7.828,10.854,7.828,18.411a26.2,26.2,0,0,1-9.586,20.822c-6.5,5.574-15.4,9.047-26.824,10.386a54.166,54.166,0,0,1-22.445-1.733c-6.955-2.145-12.326-5.589-16.06-10.338a27.324,27.324,0,0,1-5.653-17.412l23.062-1.906,11.661,1.659s-2.512,14.5,9.435,13.3q7.628-.763,11.823-4.161A10.649,10.649,0,0,0,2239.208,1168Z" transform="translate(-2179.052 -1093.579)" fill="url(#h)"/><path d="M2668.113,1132.878,2623,1148.149v25.1l39.908-3.924,10.92,1.575-58.6,21.453-11.159-3.466v-93.641l58.728-.625,10.83,1.573L2623,1110.688v22.335l34.231-1.822Z" transform="translate(-2510.227 -1094.393)" fill="url(#i)"/></g><g transform="translate(11.742 16.997)"><path d="M2292.027,1175.587q0-5.776-4.152-8.539c-2.789-1.855-7.849-3.667-15.256-5.448a107.467,107.467,0,0,1-18.061-5.724c-12.475-5.579-18.831-13.873-18.831-24.775a24.751,24.751,0,0,1,5.121-15.285c3.384-4.484,8.2-8,14.418-10.549a54.651,54.651,0,0,1,20.359-3.869,46.26,46.26,0,0,1,19.424,3.64,29.078,29.078,0,0,1,12.794,10.481,27.254,27.254,0,0,1,4.473,15.446l-20.221.854q0-6.794-4.36-10.432c-2.929-2.443-7.075-3.6-12.468-3.453-5.264.142-9.395,1.336-12.363,3.591a10.542,10.542,0,0,0-4.488,8.759q0,5,5.256,8.125c3.472,2.067,8.539,3.894,15.15,5.479,11.938,2.845,20.45,6.644,25.712,11.411,5.2,4.713,7.782,10.818,7.782,18.354a26.166,26.166,0,0,1-9.529,20.764c-6.463,5.56-15.306,9.026-26.664,10.365a53.677,53.677,0,0,1-22.31-1.719c-6.913-2.136-12.252-5.568-15.962-10.3a27.285,27.285,0,0,1-5.619-17.357l22.923-1.91c0,11.348,7.091,16.307,20.969,14.909,5.055-.509,8.963-1.9,11.752-4.153A10.633,10.633,0,0,0,2292.027,1175.587Z" transform="translate(-2232.232 -1101.395)" fill="url(#j)"/><path d="M2707.561,1153.194l-34.031,2.409v25.029l39.675-3.928v14.775l-58.5,6.81v-95.423l58.385-.65v14.9l-39.563,1.136v22.269l34.031-1.831Z" transform="translate(-2561.428 -1102.036)" fill="url(#k)"/></g><g transform="translate(11.742 19.912)"><path d="M2986.408,1342.9a41.566,41.566,0,0,0-11.186,1.283c.121.318.241.636.369.95L2970.3,1349a3.494,3.494,0,0,0-1.032,4.367l2.068,3.777a2.511,2.511,0,0,0,3.822.761l5.351-3.982a35.471,35.471,0,0,0,7.381,7.408l-3.083,6.379a3.078,3.078,0,0,0,.995,4.078l3.437,1.837a2.741,2.741,0,0,0,3.659-1.555l3.057-6.4a30.306,30.306,0,0,0,9.518,1.8v6.943a2.418,2.418,0,0,0,2.577,2.664l3.755-.481a3.241,3.241,0,0,0,2.536-3.286v-6.866a34.374,34.374,0,0,0,9.093-3.854l2.832,5.495a2.1,2.1,0,0,0,3.33.669C3012.231,1348.326,2997.467,1343.193,2986.408,1342.9Z" transform="translate(-2806.238 -1292.484)" opacity="0.3" fill="url(#l)" style="mix-blend-mode:multiply;isolation:isolate"/><path d="M2255.266,1115.553c-6.214,2.547-11.034,6.064-14.418,10.549a24.752,24.752,0,0,0-5.121,15.285c0,10.9,6.357,19.2,18.831,24.775a107.476,107.476,0,0,0,18.061,5.724c7.406,1.781,12.467,3.593,15.256,5.448q4.158,2.768,4.152,8.539a10.633,10.633,0,0,1-4.152,8.662c-2.789,2.257-6.7,3.644-11.752,4.153-13.878,1.4-20.969-3.561-20.969-14.909l-22.923,1.91a27.284,27.284,0,0,0,5.619,17.357c3.711,4.733,9.05,8.165,15.962,10.3a53.677,53.677,0,0,0,22.31,1.719c11.358-1.339,20.2-4.8,26.664-10.365a26.166,26.166,0,0,0,9.529-20.764c0-7.535-2.579-13.64-7.782-18.354-5.261-4.767-13.773-8.566-25.712-11.411-6.611-1.584-11.678-3.412-15.15-5.478q-5.247-3.121-5.256-8.125a10.543,10.543,0,0,1,4.488-8.759,14.656,14.656,0,0,1,2.608-1.568c-3.113-3.355-5.983-8.259-7.7-15.647Q2256.522,1115.041,2255.266,1115.553Z" transform="translate(-2232.232 -1114.595)" opacity="0.3" fill="url(#m)" style="mix-blend-mode:multiply;isolation:isolate"/><path d="M2501.7,1220.777a17.451,17.451,0,0,1,.366,3.653l20.22-.854q0-1.556-.145-3.048C2515.136,1219.871,2508.241,1220.553,2501.7,1220.777Z" transform="translate(-2442.205 -1196.921)" fill="url(#n)"/><path d="M2661.736,1240.4a39.775,39.775,0,0,0-7.027-3.954v66.435l58.5-6.81v-14.775l-39.675,3.928v-25.029l3.422-.242C2673.133,1254.288,2671.293,1247.108,2661.736,1240.4Z" transform="translate(-2561.428 -1209.541)" opacity="0.3" fill="url(#o)" style="mix-blend-mode:multiply;isolation:isolate"/></g></g><g transform="translate(1964.878 686.337)"><path d="M3283.043,904.408l.806-1.777a1.431,1.431,0,0,0-.4-1.788l-2.089-1.283a22.991,22.991,0,0,0,1.161-5.051l2.331-.164a1.332,1.332,0,0,0,1.086-1.4v-1.949a1.144,1.144,0,0,0-1.086-1.265l-2.27.13a21.367,21.367,0,0,0-1.053-5.025l1.92-1.424a1.253,1.253,0,0,0,.169-.155l.246.638,3.153-3.877-4.116-.351a1.016,1.016,0,0,0-.68-.405.963.963,0,0,0-.686.189l-1.9,1.378a17.342,17.342,0,0,0-3.129-3.75l.143-.3,2.9.592.368-4.8-4.4-.726a1.084,1.084,0,0,0-1.357.626l-1.094,2.256c-1.406-.7-.24-1.434-1.838-1.648l1.671-2.461c0-.767-4.894-1.278-5.555-1.278h-1.77a1.322,1.322,0,0,0-1.214,1.408v2.635a15.693,15.693,0,0,0-4.745,1.541l3.023-2.221s-5.325-1.009-5.93-.608l-1.62,1.071a1.556,1.556,0,0,0-.47,1.977l1.226,2.372a13.9,13.9,0,0,0-2.927,3.461l-2.847-.643a1.273,1.273,0,0,0-1.8.588l-.976,1.9a1.525,1.525,0,0,0,.487,1.991l2.3,1.376a23,23,0,0,0-1.253,5.6l-2.754.157a1.519,1.519,0,0,0-1.344,1.558v2.174a1.324,1.324,0,0,0,1.141,1.382l3.129.5a20.82,20.82,0,0,0,1.281,4.607l-2.495,1.813a1.64,1.64,0,0,0-.487,2.053l.976,1.776c.366.665,6.165,1.07,6.165,1.07l-1.841-2.583a16.714,16.714,0,0,0,3.48,3.483l-1.454,3a1.445,1.445,0,0,0,.47,1.917l1.62.865a1.053,1.053,0,0,0,.319.108l-.006.03,5.054.623.5-3.815a14.427,14.427,0,0,0,1.791.162v3.264a1.229,1.229,0,0,0,.736,1.2l-.022.1,5.008.625.1-6.188a16.537,16.537,0,0,0,2.644-1.286l1.335,2.583a1.008,1.008,0,0,0,.734.559l4.84.656-1.658-4.561-.668.205-1.1-2.163a20.69,20.69,0,0,0,3.07-3.906l2.16,1.295A1.082,1.082,0,0,0,3283.043,904.408Zm-16.584-1.672c-4.739.422-8.668-3.735-8.668-9.3s3.93-10.211,8.668-10.385c4.622-.169,8.285,4.005,8.285,9.32S3271.08,902.325,3266.459,902.736ZM3286.7,892.06l3.279-1.552-3.279-.4Zm-4.025,13.246,3.751.506.548-1.279-3.108-1.889Z" transform="translate(-3244.721 -869.345)" opacity="0.3" fill="url(#p)" style="mix-blend-mode:multiply;isolation:isolate"/><path d="M3307.552,893.227l-2.257.13a21.382,21.382,0,0,0-1.048-5.01l1.909-1.42a1.535,1.535,0,0,0,.4-1.834l-.8-1.669a.983.983,0,0,0-1.5-.445l-1.885,1.375a17.292,17.292,0,0,0-3.111-3.738l1.084-2.272a1.5,1.5,0,0,0-.413-1.845l-1.444-.984a1.056,1.056,0,0,0-1.563.512l-1.088,2.25a14.291,14.291,0,0,0-4.5-1.383v-2.6a1.3,1.3,0,0,0-1.188-1.387h-1.76a1.319,1.319,0,0,0-1.208,1.4v2.627a15.583,15.583,0,0,0-4.718,1.538l-1.175-2.312a1.171,1.171,0,0,0-1.715-.508l-1.611,1.068a1.555,1.555,0,0,0-.466,1.971l1.219,2.364a20.265,20.265,0,0,0-3.536,4.17l-2.2-1.357a1.265,1.265,0,0,0-1.792.587l-.969,1.895a1.521,1.521,0,0,0,.484,1.985l2.282,1.371a22.993,22.993,0,0,0-1.246,5.586l-2.738.158a1.515,1.515,0,0,0-1.336,1.553v2.168a1.3,1.3,0,0,0,1.336,1.382l2.811-.2a20.929,20.929,0,0,0,1.371,5.286l-2.48,1.809a1.637,1.637,0,0,0-.484,2.046l.969,1.77a1.178,1.178,0,0,0,1.792.357l2.508-1.867a16.62,16.62,0,0,0,3.459,3.472l-1.446,2.99a1.443,1.443,0,0,0,.466,1.911l1.611.861a1.285,1.285,0,0,0,1.715-.729l1.432-3a14.216,14.216,0,0,0,4.461.844v3.254a1.134,1.134,0,0,0,1.208,1.249l1.76-.226a1.518,1.518,0,0,0,1.188-1.54v-3.218a16.083,16.083,0,0,0,4.261-1.806l1.328,2.575a.985.985,0,0,0,1.563.311l1.444-1.17a1.611,1.611,0,0,0,.413-1.9l-1.287-2.533a20.657,20.657,0,0,0,3.052-3.9l2.147,1.29a1.074,1.074,0,0,0,1.5-.638l.8-1.772a1.428,1.428,0,0,0-.4-1.782l-2.076-1.278a23.013,23.013,0,0,0,1.155-5.037l2.318-.164a1.328,1.328,0,0,0,1.08-1.4v-1.943A1.139,1.139,0,0,0,3307.552,893.227ZM3289.265,906.2c-4.711.423-8.618-3.721-8.618-9.266s3.907-10.184,8.618-10.359c4.595-.17,8.238,3.99,8.238,9.29S3293.86,905.792,3289.265,906.2Z" transform="translate(-3262.59 -872.121)" fill="url(#q)"/></g><g transform="translate(1619.9 731.202)"><path d="M2077.745,1123.488l-19.921-7.7-3.292-21.1,23.692-17c1.449-1.167-.547-4.495-2.386-4.773a32.673,32.673,0,1,0,15.609,57.742c7.42-5.981,12.566-13.443,13.13-22.259.12-1.859-3.051-4.076-4.5-2.907Z" transform="translate(-1959.685 -1072.543)" fill="url(#r)"/><path d="M1769.41,1260.836l-82.473,61.732a11.9,11.9,0,1,0,14.934,18.536l77.883-67.434Z" transform="translate(-1682.28 -1219.262)" fill="url(#s)"/><path d="M2082.444,1130.067l-19.92-7.7-3.293-21.1,22.33-18a2.136,2.136,0,0,0-1.024-3.776,32.674,32.674,0,1,0,27.709,34.384,2.137,2.137,0,0,0-3.471-1.808Z" transform="translate(-1963.347 -1077.669)" fill="url(#t)"/><path d="M1774.109,1267.415l-82.474,61.732a11.905,11.905,0,1,0,14.934,18.536l77.883-67.435Z" transform="translate(-1685.941 -1224.388)" fill="url(#u)"/><circle cx="4.833" cy="4.833" r="4.833" transform="translate(82.247 59.014) rotate(-88.251)" opacity="0.3" fill="url(#v)" style="mix-blend-mode:multiply;isolation:isolate"/><path d="M1807.872,1332.329l-67.2,54.165a2.859,2.859,0,1,1-3.588-4.452l67.2-54.165Z" transform="translate(-1724.152 -1271.501)" opacity="0.3" fill="url(#w)" style="mix-blend-mode:multiply;isolation:isolate"/></g><g transform="translate(1701.982 780.824)"><path d="M2190.813,1688.808l1.869-.4s2.277-.553,2.391-.544.588.96-.609,1.482a9.941,9.941,0,0,1-3.65.972C2190.271,1690.177,2190.813,1688.808,2190.813,1688.808Z" transform="translate(-2160.427 -1601.626)" fill="url(#x)"/><path d="M2193.971,1679.238l-.714,2.942a1.328,1.328,0,0,1-1.4,0l.426-2.929Z" transform="translate(-2161.425 -1594.905)" fill="url(#y)"/><path d="M2058.575,1650.569l-1.415,2.425.21.108a1.331,1.331,0,0,0,1.665-.37l1.375-1.782Z" transform="translate(-2056.472 -1572.566)" fill="url(#z)"/><path d="M2074.574,1504.779a11.875,11.875,0,0,0-1.389,5.117c-.062,2.825-7.323,17.766-9.882,21.358a28.7,28.7,0,0,0-3.358,5.714s1.371,1.409,2.634,1.341c0,0,12.844-11.077,18.974-23.09l4.786-10.44Z" transform="translate(-2058.641 -1458.966)" fill="url(#aa)"/><g transform="translate(2.734 45.813)" opacity="0.3" style="mix-blend-mode:multiply;isolation:isolate"><path d="M2073.856,1528.479c1.634-2.345.465-2.925,2.031-6.462,2.055-4.643,4.664-4.987,5.662-8.371.463-1.568.159-5.255-1.43-8.867h11.268l-4.786,10.44c-6.13,12.013-18.974,23.09-18.974,23.09a2.476,2.476,0,0,1-1.2-.3c.427-.8.517-2.213,1.279-3.747C2069.286,1531.072,2071.691,1531.586,2073.856,1528.479Z" transform="translate(-2066.423 -1504.779)" fill="url(#ab)"/></g><path d="M2148.632,1500.584a62.261,62.261,0,0,1,2.127,39.713,3.462,3.462,0,0,1-2.668.185,87.028,87.028,0,0,1-1.757-14.274,22.926,22.926,0,0,0-.961-7.008c-.592-1.825-1.695-3.666-3.876-7.275-2.968-4.908-3.716-5.473-4.357-7.853-.334-1.241-1.029-4.415-1.029-4.415Z" transform="translate(-2117.99 -1454.975)" fill="url(#ac)"/><path d="M2096.777,1371.416c-.333-1.067-2.406-1.292-4.461-1.494-7.426-.731-12.917,1.885-13.417.831-.18-.381.46-.885,1.478-2.216a20.988,20.988,0,0,0,3-5.45l-1.768-.38c-7.229,3.048-11.174,8.032-10.339,11.739.482,2.144,2.463,3.414,3.4,4.015,5.805,3.721,13.336.055,15.32-.911C2093.052,1376.058,2097.311,1373.13,2096.777,1371.416Z" transform="translate(-2067.377 -1348.262)" fill="url(#ad)"/><path d="M2164.183,1325.689l-2.331-.234a37.723,37.723,0,0,1-8.57,9.3,31,31,0,0,1-11.515,5.9c-7.011,1.768-9.68-.63-13.13.739-3.955,1.569-7.771,7.625-7.651,26.8a17.717,17.717,0,0,0,16.78-.864,21.225,21.225,0,0,1,1.172-6.533c.49-1.4,2.195-5.781,8.927-11.541,6.049-5.176,7.774-4.294,10.891-7.613C2161.224,1339.011,2163.978,1334.372,2164.183,1325.689Z" transform="translate(-2106.202 -1319.236)" fill="url(#ae)"/><path d="M2303.043,1303.481a16.242,16.242,0,0,1-.9-2.176c-.073-.773.221-.635.342-.98s.038,1.088.83,1.245.957-2.325,1.161-3.73,1.329.123,1.329,1.689a19.805,19.805,0,0,1-.752,4.154S2303.575,1304.5,2303.043,1303.481Z" transform="translate(-2247.353 -1297.286)" fill="url(#af)"/><path d="M2174.352,1389.546l-.623-1.04-1.28-.157-.171,1.167a.763.763,0,0,1-.833.649l-.622-.063a2.959,2.959,0,0,0,2.712,1.91,2.763,2.763,0,0,0,2.946-1.881l-.811.079A1.379,1.379,0,0,1,2174.352,1389.546Z" transform="translate(-2145.038 -1368.243)" fill="url(#ag)"/><g transform="translate(26.14 15.298)"><path d="M2173.671,1380.258c-.118-.065-1.076-.181-1.207-.7a2.5,2.5,0,0,1,.527-1.686c.328-.573.41-.651.563-.748l.211-.124.025-.009a2.409,2.409,0,0,1,.683-.026c.294.07.581,1.28.453,2.978.011.065.021.131.031.2C2174.982,1380.316,2173.662,1380.319,2173.671,1380.258Z" transform="translate(-2172.431 -1374.663)" fill="url(#ah)"/><path d="M2175.746,1368.415a1.974,1.974,0,0,0,.349,1.188.874.874,0,0,1,.186.213.229.229,0,0,1,.028.063c.108.334-.428.714-.33.864.072.109.434-.026.474.067s-.264.264-.22.37c.032.08.218.012.33.135.057.062.039.109.1.3a1.713,1.713,0,0,0,.115.285c.175.313.688.438.79.316.028-.034.005-.063.036-.178a.9.9,0,0,1,.106-.229,2.387,2.387,0,0,1,.635-.477,1.708,1.708,0,0,0,.667-.727c.015-.035.024-.062.031-.081a1.959,1.959,0,0,0-.02-1.311c-.279-.594-.945-.33-1.472-.925-.608-.686-.216-1.6-.552-1.7C2176.626,1366.46,2175.764,1367.441,2175.746,1368.415Z" transform="translate(-2175.013 -1366.57)" fill="#26264f"/><path d="M2176.951,1384.676c.133-.174.356,0,.352.227s-.232.463-.447.413S2176.772,1384.911,2176.951,1384.676Z" transform="translate(-2175.792 -1380.622)" fill="url(#ai)"/></g><path d="M2129.972,1392.9c2.73-2.3-.181-8.465,3.816-12.064,1.7-1.53,2.785-.92,4.862-2.954,2.6-2.548,1.826-4.412,3.878-6.278,2.44-2.218,4.462-.422,8.986-2.092,3.991-1.474,6.394-4.341,8.74-7.14a31.289,31.289,0,0,0,3.094-4.417,19.2,19.2,0,0,1-4.592,9.01c-3.117,3.32-4.841,2.438-10.891,7.613-6.732,5.761-8.436,10.14-8.927,11.542a21.231,21.231,0,0,0-1.172,6.533,17.719,17.719,0,0,1-16.781.864c0-.565,0-1.116,0-1.658C2126.353,1394.3,2128.777,1393.911,2129.972,1392.9Z" transform="translate(-2106.203 -1344.561)" opacity="0.3" fill="url(#aj)" style="mix-blend-mode:multiply;isolation:isolate"/><path d="M2055.373,1658.07s-.64-.442-1.133.615a4.221,4.221,0,0,0,.12,2.708c.041.246,1.994.246,1.994.246s.517-.574,0-.739-.314-1.355-.191-1.6S2056.316,1658.352,2055.373,1658.07Z" transform="translate(-2054.041 -1578.34)" fill="url(#ak)"/><path d="M2112.469,1349.973s1.7-1.459,0-1.7-2.917-2.188-3.4-2.431-.487,2.188.486,2.431a3.863,3.863,0,0,1,1.783,1.494Z" transform="translate(-2096.668 -1335.106)" fill="url(#al)"/></g><g transform="translate(1816.002 637.923)"><g transform="translate(0 0)"><path d="M2570.448,674.123V717.1a2.516,2.516,0,0,0,2.573,2.53l77.193-1.6a2.183,2.183,0,0,0,1.977-2.3V678.208Z" transform="translate(-2570.448 -668.813)" fill="#fff"/><path d="M2650.214,654.588l-77.193-4.512a2.406,2.406,0,0,0-2.573,2.433v4.4l81.743,3.891v-3.846A2.285,2.285,0,0,0,2650.214,654.588Z" transform="translate(-2570.448 -650.072)" fill="url(#am)"/><path d="M2589.1,662.191a1.067,1.067,0,0,1-1.13,1.08,1.212,1.212,0,0,1-1.135-1.2,1.067,1.067,0,0,1,1.135-1.08A1.212,1.212,0,0,1,2589.1,662.191Z" transform="translate(-2583.219 -658.579)" fill="#fff"/></g><g transform="translate(11.147 13.393)"><path d="M2627.249,742.355l-6.315.076v-31.7l6.315.241Z" transform="translate(-2620.933 -710.729)" fill="#d8dee8"/><path d="M2627.249,801.115l-6.315.076V786.14l6.315.075Z" transform="translate(-2620.933 -769.489)" fill="url(#an)"/><path d="M2666.713,743.429l-6.142.073V712.239l6.142.234Z" transform="translate(-2651.819 -711.906)" fill="#d8dee8"/><path d="M2666.713,827.566l-6.142.073v-7.422h6.142Z" transform="translate(-2651.819 -796.043)" fill="url(#ao)"/><path d="M2705.1,744.474l-5.977.071V713.708l5.977.228Z" transform="translate(-2681.863 -713.05)" fill="#d8dee8"/><path d="M2705.1,839.616l-5.977.072v-3.843l5.977-.034Z" transform="translate(-2681.863 -808.193)" fill="url(#ap)"/><path d="M2742.466,745.49l-5.819.07V715.137l5.819.222Z" transform="translate(-2711.098 -714.164)" fill="#d8dee8"/><path d="M2742.466,768.747l-5.819.07V744.984l5.819.158Z" transform="translate(-2711.098 -737.421)" fill="url(#aq)"/><path d="M2778.838,746.48l-5.666.068V716.529l5.666.216Z" transform="translate(-2739.559 -715.248)" fill="#d8dee8"/><path d="M2778.838,778.858l-5.666.068V758.082l5.666.129Z" transform="translate(-2739.559 -747.627)" fill="url(#ar)"/><path d="M2814.259,747.443l-5.519.066V717.884l5.519.21Z" transform="translate(-2767.273 -716.304)" fill="#d8dee8"/><path d="M2814.259,762.645l-5.519.066V737.393l5.519.17Z" transform="translate(-2767.273 -731.506)" fill="url(#as)"/><path d="M2848.765,748.382l-5.377.064V719.2l5.377.2Z" transform="translate(-2794.271 -717.333)" fill="#d8dee8"/><path d="M2848.765,788.192l-5.377.064V770.294l5.377.1Z" transform="translate(-2794.271 -757.143)" fill="url(#at)"/><path d="M2882.393,749.3l-5.241.063V720.49l5.241.2Z" transform="translate(-2820.58 -718.335)" fill="#d8dee8"/><path d="M2882.393,815.807l-5.241.063V805.847l5.241.028Z" transform="translate(-2820.58 -784.846)" fill="url(#au)"/></g></g><g transform="translate(1847.452 667.04)"><path d="M2869,1089.592c.665.671.934,1.391.693,1.813-.167.292-.536.367-.941.445a5.487,5.487,0,0,1-2.672-.3c-1.278-.361-2.028-.573-2.029-.88,0-.287.656-.51,1.232-.706a7.222,7.222,0,0,1,2.021-.376Z" transform="translate(-2830.672 -1021.665)" fill="url(#av)"/><path d="M2785.987,1040.315a1.283,1.283,0,0,1,.786.734c.162.595-.474,1.209-1.491,2.167-.763.719-1.793,1.69-2.152,1.445-.22-.15-.09-.689.031-1.191a6.715,6.715,0,0,1,1.263-2.564Z" transform="translate(-2767.528 -983.268)" fill="url(#aw)"/><path d="M2874.5,1082.9l1.43,1.587a.3.3,0,0,1-.138.484,2.2,2.2,0,0,1-1.151.045.557.557,0,0,1-.232-.142l-1.428-1.395Z" transform="translate(-2837.633 -1016.448)" fill="url(#ax)"/><path d="M2788.7,1035.976l.771,1.112a.322.322,0,0,1-.111.466,2.787,2.787,0,0,1-.381.176.581.581,0,0,1-.634-.158l-.837-.942Z" transform="translate(-2771.03 -979.887)" fill="url(#ay)"/><path d="M2818.747,920.7a26.973,26.973,0,0,0-2.154,6.51,29.168,29.168,0,0,0,.987,14.081,30.1,30.1,0,0,0,8.068,12.692,5.461,5.461,0,0,1-3.324,1.289,33.821,33.821,0,0,1-10.772-12.4c-4.692-9.381-3.515-18.591-1.464-22.486a4.339,4.339,0,0,1,2.3-2.28C2815.149,917.116,2818.356,920.3,2818.747,920.7Z" transform="translate(-2787.226 -887.894)" fill="url(#az)"/><path d="M2810.088,920.385a4.339,4.339,0,0,1,2.3-2.28c2.766-.989,5.972,2.2,6.363,2.594a27.011,27.011,0,0,0-2.129,6.4c-1.932.454-4.632,1.532-5.947,4.078-2.127,4.12.932,9.058,1.567,10.083,1.4,2.255,2.243,2.044,4.308,5.286,1.558,2.449,1.677,3.515,3.034,4.7a8.491,8.491,0,0,0,5.2,1.888c.315.32.609.605.874.853a5.461,5.461,0,0,1-3.324,1.289,33.821,33.821,0,0,1-10.772-12.4C2806.86,933.49,2808.037,924.28,2810.088,920.385Z" transform="translate(-2787.226 -887.894)" opacity="0.3" fill="url(#az)" style="mix-blend-mode:multiply;isolation:isolate"/><path d="M2766.164,914.924a10.935,10.935,0,0,1-1.909,2.741c-2.479,2.586-4.8,2.341-7.426,4.471a11.319,11.319,0,0,0-3.51,5.007c-1.654,5.419,3.153,10.762,3.686,11.338a5.783,5.783,0,0,1-2.931,1.454c-6.892-6.3-10.259-13.928-7.966-18.887,1.251-2.7,4.213-4.672,6.4-6.124a28.547,28.547,0,0,1,9.212-3.98Z" transform="translate(-2738.216 -882.462)" fill="url(#bb)"/><path d="M2809.66,828.737c-.1,3.047.6,4.628-.387,7.114a9.741,9.741,0,0,1-2.783,3.779,11.86,11.86,0,0,0,10.675,6.4,23.9,23.9,0,0,0,8.635-7.425c1.908-2.707,4-5.679,3.449-9.468-.7-4.813-5.165-7.384-6.429-8.113-.832-.48-6.58-3.794-10.093-1.358C2809.9,821.624,2809.738,826.457,2809.66,828.737Z" transform="translate(-2785.823 -810.647)" fill="url(#bc)"/><path d="M2717.514,870.9a2.1,2.1,0,0,0-.646-1.052c-.233-.236-.281-.2-.433-.391-.384-.485-.291-.987-.438-1-.128-.015-.353.346-.338.72.018.417.323.542.265.773-.08.325-.8.562-1.444.44-.742-.14-1.1-.739-1.4-.587-.211.11-.2.5-.2.538.032.739,1.019,1.514,1.982,1.615.554.058.762-.143,1.42.024.436.111.589.261.808.171C2717.457,872,2717.6,871.369,2717.514,870.9Z" transform="translate(-2712.888 -849.351)" fill="url(#bd)"/><path d="M2730.321,832.219c5.935.411,9.479-1.133,11.616-2.61,4.847-3.352,5.8-8.682,11.42-10.115,1.025-.261,2.811-.717,3.784.2,2.025,1.9-.362,8.845-4.568,13.117a16.977,16.977,0,0,1-9.8,4.988,17.506,17.506,0,0,1-13.031-3.752,1.121,1.121,0,0,1-.218-1.134A1.172,1.172,0,0,1,2730.321,832.219Z" transform="translate(-2725.801 -810.932)" fill="url(#be)"/><path d="M2825.136,863.074c1.671-1.583.88-2.564,2.937-5.743,2.095-3.238,3.6-3.3,4.568-5.482a7.781,7.781,0,0,0,.257-5.081,9.2,9.2,0,0,1,1.778,4.177c.554,3.789-1.541,6.761-3.449,9.468a23.893,23.893,0,0,1-8.636,7.426,12.019,12.019,0,0,1-6.666-1.953,11.788,11.788,0,0,1-2.47-2.178,11.011,11.011,0,0,0,3,1.129C2817.014,864.956,2822.073,865.975,2825.136,863.074Z" transform="translate(-2791.25 -832.456)" opacity="0.3" fill="url(#bf)" style="mix-blend-mode:multiply;isolation:isolate"/><path d="M2862.294,812.742l.484,1.633a2.62,2.62,0,0,0,.9,1.32l1.283,1s-3.913-.657-5.784-2.48l1.142-.36a.289.289,0,0,0,.2-.275v-1.2Z" transform="translate(-2826.875 -805.662)" fill="url(#bg)"/><g transform="translate(31.743 0)"><path d="M2859.343,800.807c-.187-.041-1.537.18-1.921-.469a3.56,3.56,0,0,1,.05-2.507c.22-.911.3-1.049.47-1.242l.24-.253.03-.022a3.438,3.438,0,0,1,.921-.307c.428-.021,1.3,1.513,1.8,3.879q.06.127.12.256C2861.153,800.366,2859.355,800.893,2859.343,800.807Z" transform="translate(-2857.073 -792.902)" fill="url(#bh)"/><path d="M2856.746,784.94a2.812,2.812,0,0,0,.948,1.481,1.241,1.241,0,0,1,.338.216.375.375,0,0,1,.064.075c.28.413-.3,1.142-.107,1.309.141.121.58-.208.673-.1s-.255.463-.154.591c.076.1.3-.07.5.054.1.062.1.134.247.365a2.386,2.386,0,0,0,.269.344c.363.358,1.111.324,1.2.118.025-.057-.018-.088-.021-.258a1.3,1.3,0,0,1,.054-.354,3.4,3.4,0,0,1,.676-.9,2.425,2.425,0,0,0,.622-1.255c.006-.054.008-.094.01-.123a2.778,2.778,0,0,0-.546-1.778c-.616-.7-1.419-.075-2.372-.676-1.1-.693-.927-2.088-1.428-2.1C2857.171,781.927,2856.386,783.6,2856.746,784.94Z" transform="translate(-2856.655 -781.944)" fill="#26264f"/><path d="M2863.269,807.823c.113-.291.485-.145.57.169a.594.594,0,0,1-.444.74C2863.083,808.749,2863.119,808.214,2863.269,807.823Z" transform="translate(-2861.721 -801.986)" fill="url(#bi)"/></g></g><g transform="translate(1987.869 761.245)"><path d="M3377.837,1231.935l.663-.773-.579-1.2a.683.683,0,0,0-.712-.379,13.63,13.63,0,0,0-9.367,5.868.683.683,0,0,0,.029.782,9.287,9.287,0,0,0,.717.817Z" transform="translate(-3363.562 -1224.945)" fill="url(#bj)"/><path d="M3408.565,1296.545l-1.574,2.742a5.282,5.282,0,0,1-.584,1.117,2.679,2.679,0,0,0,.939,1.066l2.844-2.717-1.523-2.184Z" transform="translate(-3393.698 -1277.13)" fill="url(#bk)"/><g transform="translate(1.198 6.196)"><path d="M3395.864,1302.5l.457-2.02a3.728,3.728,0,0,1,2.707-2.142c2.094-.456,2.166.689,2.166.689l-1.346.525a2.778,2.778,0,0,0-1.375,1.679,7.423,7.423,0,0,1-1.562,2.069Z" transform="translate(-3386.682 -1284.638)" fill="url(#bl)"/><path d="M3482.744,1707.079s1.449,3.646,1.068,5.263a16.277,16.277,0,0,0,2.563-.229,17.647,17.647,0,0,1-.748-2.486,24.383,24.383,0,0,1-.152-2.913Z" transform="translate(-3454.379 -1602.932)" fill="url(#bm)"/><path d="M3394.021,1746.926a1.143,1.143,0,0,1,.273.669,1.093,1.093,0,0,1-.082.449c-.247.65-.635.736-1.054,1.426-.256.421-.208.549-.442.739a1.535,1.535,0,0,1-1.006.269,17.921,17.921,0,0,1-2.328-.131q.78-1.006,1.662-2.039.386-.452.772-.883l1.529-.517Z" transform="translate(-3381.631 -1634.251)" fill="#26264f"/><path d="M3394.385,1713.366s-.874,4.561.239,5.838c.947,1.277-.458.366-.458.366l-1.678,1.464-1.007,1.739s.927-4.464.68-6.235-.371-2.966-.371-2.966Z" transform="translate(-3383.267 -1608.115)" fill="url(#bn)"/><path d="M3381.421,1484.254s-2.348,2.1-2.348,10.752,1.113,27.436,1.113,27.436l1.78,13.449a11.77,11.77,0,0,0,3.081-.305c1.112-5.067,2.925-13.638,2.06-20.806-.371-7.786,3.09-17.549,3.09-17.549s2.966,9.887,5.066,14.83,6.1,20.43,6.472,21.542a6.092,6.092,0,0,0,3.508-.427s-1.576-16.666-3.059-22.969-1.359-21.5-3.831-25.829C3392.791,1482.153,3381.421,1484.254,3381.421,1484.254Z" transform="translate(-3373.598 -1428.89)" fill="url(#bo)"/><path d="M3381.421,1484.254s-2.348,2.1-2.348,10.752,1.113,27.436,1.113,27.436l1.78,13.449a11.77,11.77,0,0,0,3.081-.305c1.112-5.067,2.925-13.638,2.06-20.806-.371-7.786,3.09-17.549,3.09-17.549s2.966,9.887,5.066,14.83,6.1,20.43,6.472,21.542a6.092,6.092,0,0,0,3.508-.427s-1.577-16.666-3.059-22.969-1.359-21.5-3.831-25.829C3392.791,1482.153,3381.421,1484.254,3381.421,1484.254Z" transform="translate(-3373.598 -1428.89)" fill="url(#bp)"/><path d="M3393.619,1500.1c.733,4.759,2.2,7.322,5.858,10.617,2.928,2.2.732,6.955,1.83,10.617.366,1.1,1.464,2.2,1.831,3.295,1.362,2.725.09,6.057.707,8.942a3.934,3.934,0,0,0,1.4-.4s-1.577-16.666-3.059-22.969-1.359-21.5-3.831-25.829c-5.561-2.224-16.932-.124-16.932-.124s-2.348,2.1-2.348,10.752c0,.7.008,1.471.021,2.291a8.9,8.9,0,0,0,10.5.245,1.451,1.451,0,0,1,.588-.266l.016-.046.012.043C3391.608,1497.017,3393.3,1498.835,3393.619,1500.1Z" transform="translate(-3373.598 -1428.89)" opacity="0.25" fill="url(#bq)" style="mix-blend-mode:multiply;isolation:isolate"/><g transform="translate(28.719 108.091)"><path d="M3484.679,1738.471s-.362,0-.331.467-.163,2.071,1.673,2.146a5.618,5.618,0,0,0,2.179-.13,15.068,15.068,0,0,0-.482-1.535l-.587-.753-1.58-.165Z" transform="translate(-3484.346 -1735.769)" fill="#26264f"/><path d="M3488.969,1730.546a5.87,5.87,0,0,0-.474-1.488c-.324-.729-.058-1-.367-1.667a1.982,1.982,0,0,0-.438-.663,1.9,1.9,0,0,0-1.3-.494,1.319,1.319,0,0,0-.61.143,1.42,1.42,0,0,0-.55.58,6.469,6.469,0,0,0-.442,1.312,3.308,3.308,0,0,0-.115.447,3.047,3.047,0,0,0-.048.4,8.579,8.579,0,0,1,2.723.361,1.532,1.532,0,0,1,.587,1.249c0,.481.241.707.482.692A.79.79,0,0,0,3488.969,1730.546Z" transform="translate(-3484.565 -1726.233)" fill="#444b8c"/></g><path d="M3391.8,1736.9c.414.006.717.335.946,1.129s1.327,1.495.046,1.327-2.212,1.647-2.669,2.318-1.686,1.268-1.656.612.572-.963.725-1.633S3390.862,1736.888,3391.8,1736.9Z" transform="translate(-3380.921 -1626.456)" fill="#444b8c"/><path d="M3383.3,1353.257c-2.075-.061-7.354-.637-9.823,1.83-2.526,2.524.032,5.553-.424,9.712-.228,2.083-.227,3.534-.427,6.008-.02.252-.205,2.282-.306,3.082-.7,5.541-4.6,7.708-5.676,12.3-.415,1.777-.561,4.577,1.245,8.508a14.13,14.13,0,0,1,4.565,1.037c5.409,2.246,5.816,6.575,9.545,7.677,3.621,1.071,4.952-2.505,10.582-3.528,8.772-1.592,14.648,5.434,16.808,3.32,1.837-1.8-.235-9.014-5.187-12.865-5.916-4.6-11.974-1.313-14.732-5.6-1.719-2.672-1.02-6.519-.021-12.029a38.462,38.462,0,0,1,1.635-6.162,61.688,61.688,0,0,1,3.352-7.89c.959-1.968-1.318-.866-2.777-2.593C3389.426,1353.414,3385.4,1353.318,3383.3,1353.257Z" transform="translate(-3363.71 -1327.438)" fill="url(#br)"/><path d="M3367.314,1321.035c-1.648.426-6.543-1-6.88-1.9-.768-2.037,1.091-3,4.835-5.417-.986-.6-1.035-1.737-2.022-2.34-3.1,1.563-10.121,3.954-8.809,10.137,1.066,5.026,7.022,9.689,12.117,12.749C3367.57,1332.046,3369.353,1320.507,3367.314,1321.035Z" transform="translate(-3354.276 -1294.886)" fill="url(#bs)"/><path d="M3416.559,1352.412l1.487-.458s.389,2.013,5.171,2.265a7.145,7.145,0,0,0,4.37-1.487l1.016.741a7.815,7.815,0,0,1-5.775,2.714A7.115,7.115,0,0,1,3416.559,1352.412Z" transform="translate(-3402.807 -1326.502)" fill="url(#bt)"/><path d="M3457.009,1473.139a1.436,1.436,0,0,1-1.047.138c-.635-.138-1.406-.661-2.095-.882s-.745.8.275,1.323a5.69,5.69,0,0,1,2.288,2.37c.386.8,1.351-.965,1.351-.965Z" transform="translate(-3431.483 -1420.325)" fill="url(#bu)"/><path d="M3464.476,1360.6a13.976,13.976,0,0,1,6.692,3.9,14.589,14.589,0,0,1,3.638,11.137c-.671,6.9-6.3,11.468-10.432,13.121l-.913-2.932c1.069-.654,5.178-3.332,5.832-7.873a5.416,5.416,0,0,0-.441-3.749c-1.422-2.312-4.456-1.531-5.955-3.2C3461.814,1369.8,3461.369,1367.125,3464.476,1360.6Z" transform="translate(-3438.282 -1333.237)" fill="url(#bv)"/><path d="M3386.091,1252.212s-4.912-9.784-4.575-15.516c-5.816-.422-9.914,5.885-9.914,5.885s9.432,7.271,11.961,11.232C3384.911,1253.983,3386.091,1252.212,3386.091,1252.212Z" transform="translate(-3367.776 -1236.677)" fill="url(#bw)"/><g transform="translate(14.584 13.516)"><path d="M3421.754,1312.038a5.656,5.656,0,0,1,2.146-3.492c1.419-1.128,1.708-1.241,2.195-1.334l.666-.1.073,0a6.637,6.637,0,0,1,1.769.628c.678.477.179,3.854-1.877,8.055l-.242,1.067c1.792.315,2.236.638,2.25.9.031.559-1.932,1.273-3.75,1.319-2.28.058-4.7-.923-4.655-1.655.019-.3.448-.662,2.1-1.021l.776-1.091C3422.975,1315.027,3421.567,1313.485,3421.754,1312.038Z" transform="translate(-3420.328 -1305.076)" fill="url(#bx)"/><path d="M3436.288,1298.612a3.423,3.423,0,0,0-.752,3.09c.14.58.321.641.3,1.021-.073,1.067-2.015,1.531-1.907,2.069.077.384,1.088.243,1.263.725.191.528-.92.982-1.4,2.311-.009.024-.022.063-.039.113a3.621,3.621,0,0,0,.093,2.089c3.227,9.62,11.717,15.2,11.717,15.2a31.209,31.209,0,0,0,16.172,5.456c4.433.168,12.88.489,15.393-4.676,2.1-4.319-.674-10.978-4.872-13.249-3.574-1.935-5.93.531-9.352-1.559-4.4-2.691-2.8-8.18-6.43-9.742-4.133-1.777-8.6,4.306-12.311,2.178-2.467-1.414-2.121-5.219-4.97-5.669A3.455,3.455,0,0,0,3436.288,1298.612Z" transform="translate(-3430.702 -1297.894)" fill="url(#by)"/><path d="M3433.847,1319.455c.573-.343,1.009.394.74,1.038a1.274,1.274,0,0,1-1.727.663C3432.31,1320.772,3433.076,1319.916,3433.847,1319.455Z" transform="translate(-3429.947 -1314.626)" fill="url(#bz)"/></g></g><path d="M3426.88,1307.566a2.315,2.315,0,0,1,1.422-.526c.355-.007-.639,1.915-2.529,1.6Z" transform="translate(-3408.789 -1285.307)" fill="url(#ca)"/><path d="M3349.8,1218.886a.954.954,0,0,0,.836-.492c4.808-8.675,11.768-7.854,11.835-7.845a.955.955,0,1,0,.253-1.893c-.339-.046-8.326-.99-13.759,8.812a.955.955,0,0,0,.834,1.418Z" transform="translate(-3348.848 -1208.612)" fill="#ebeff2" style="mix-blend-mode:multiply;isolation:isolate"/></g><g transform="translate(1740.115 662.267)"><path d="M2324.92,1093.522c-.4.644-.342.946-.272,1.083.2.4.826.107,2.334.448a2.578,2.578,0,0,0,.951.066c.375-.048.826-.2.817-.3,0-.036-.067-.057-.09-.065-.415-.135-2.982-1.226-2.982-1.226Z" transform="translate(-2302.993 -1019.955)" fill="url(#cb)"/><path d="M2325.843,1086.664l.078,1.543s.6.529.833-.012a7.891,7.891,0,0,0,.275-1.475Z" transform="translate(-2303.963 -1014.611)" fill="url(#cc)"/><path d="M2354.226,1093.147l-.823,1.681-.915-.245.385-1.6Z" transform="translate(-2324.726 -1019.538)" fill="url(#cd)"/><path d="M2351.872,1099.461c-.394-.581-.8-.575-.844-.951a.756.756,0,0,1,.46-.737c.4-.15.818.193.913.27.649.526.385,1.214,1.01,1.589a1.765,1.765,0,0,1,.528.393c.084.1.294.339.224.484-.082.167-.5.117-.888.071a1.731,1.731,0,0,1-.92-.25C2352.061,1100.1,2352.176,1099.91,2351.872,1099.461Z" transform="translate(-2323.585 -1023.239)" fill="url(#ce)"/><path d="M2316.389,919.849a50.343,50.343,0,0,0,.312,9.133,41.243,41.243,0,0,1,.655,5.05c.05,4.036-1.288,4.5-1.9,9.009a27.665,27.665,0,0,0,.72,10.618,28.639,28.639,0,0,0,1.035,3.245c.425.438,1.138.342,1.89.253.648-4.511,1.341-8.749,1.989-13.26q2.164-10.121,4.329-20.241Z" transform="translate(-2295.692 -884.628)" fill="url(#cf)"/><path d="M2323.1,957.157c.648-4.511,1.341-8.749,1.989-13.26q2.164-10.121,4.329-20.241l-9.029-3.807c-.013.235-.021.462-.03.693,4.028,4.129,4.63,7.185,4.419,9.219-.257,2.466-1.708,3.578-1.741,7.182-.024,2.576.708,3.091.516,5.4-.247,2.976-1.663,4.543-2.427,6.211-.739,1.612-1.148,3.948-.264,7.393.124.359.242.68.349.956C2321.631,957.342,2322.344,957.247,2323.1,957.157Z" transform="translate(-2299.687 -884.628)" opacity="0.3" fill="url(#cg)" style="mix-blend-mode:multiply;isolation:isolate"/><path d="M2344.016,923.719a53.259,53.259,0,0,1,3.5,9.08,12.8,12.8,0,0,1,.564,3.954,12.2,12.2,0,0,1-.97,4.424,23.538,23.538,0,0,0-1.553,4.377,24.9,24.9,0,0,0,.358,12.84l1.6.748a91.341,91.341,0,0,0,5.07-14.2,49.457,49.457,0,0,0,1.827-9.167,39.079,39.079,0,0,0-2.058-15.918Z" transform="translate(-2318.124 -884.632)" fill="url(#ch)"/><path d="M2256.421,798.765c3.447.89,6.057,1.736,7.093,3.666,1.1,2.038-1.021,3.329-1.916,7.528-1.369,6.428,2.165,9.165.548,15.618a16.956,16.956,0,0,1-2.036,4.787,17.858,17.858,0,0,1-5.613,2.587c-3.648.946-5.337.08-10.13-.042-7.839-.2-9.195,1.965-12.6.281-3.447-1.7-5.71-5.715-4.82-7.277.533-.935,1.91-.21,4.056-1.234,2.766-1.32,2.5-3.457,4.787-5.081,3.29-2.333,6.031.526,8.847-1.506,2.849-2.056,3.625-7.565,2.768-10.954-.56-2.214-.38-4.556-.745-6.81a1.421,1.421,0,0,1,.1-.805c.541-1.233,2.884-1.284,4.654-1.306A20.118,20.118,0,0,1,2256.421,798.765Z" transform="translate(-2226.749 -789.85)" fill="url(#ci)"/><path d="M2233.7,897.944c1.14-.63.724-2.72,2.414-3.67,1.568-.883,2.617.529,4.862.039,2.878-.628,2.955-3.343,5.716-3.982,1.986-.46,2.467.824,5.253,1.108a11.131,11.131,0,0,0,9.084-3.324,9.979,9.979,0,0,0,2.148-3.679c.545,2.468,1.161,4.861.293,8.324a16.982,16.982,0,0,1-2.035,4.787,17.863,17.863,0,0,1-5.614,2.587c-3.647.946-5.337.08-10.13-.043-7.839-.2-9.2,1.965-12.6.281a10.15,10.15,0,0,1-4.638-4.85C2231.347,898.022,2232.874,898.4,2233.7,897.944Z" transform="translate(-2228.074 -857.034)" opacity="0.3" fill="url(#cj)" style="mix-blend-mode:multiply;isolation:isolate"/><path d="M2355.587,774.058a9.5,9.5,0,0,1,.77,3.163c-.044,1.274-1.469,1.063-1.469,1.063l-.013.805a1.743,1.743,0,0,0,1.007,1.606l.549.255s-3.755.484-5.652-1.106l.585-.009a1.741,1.741,0,0,0,1.686-1.422l.063-.34S2352.8,774.065,2355.587,774.058Z" transform="translate(-2323.394 -771.027)" fill="url(#ck)"/><g transform="translate(35.955 13.808)"><path d="M2389.594,832.706l5.614-9.683a.314.314,0,0,1,.343-.148l7.854,1.836a.314.314,0,0,1,.195.472l-6.515,10.416a.313.313,0,0,1-.372.129l-6.9-2.493Z" transform="translate(-2389.594 -822.867)" fill="url(#cl)"/><path d="M2395.849,834.337l4.545-7.84a.255.255,0,0,1,.278-.12l6.359,1.486a.254.254,0,0,1,.158.383l-5.275,8.434a.254.254,0,0,1-.3.1l-5.589-2.019Z" transform="translate(-2394.468 -825.596)" fill="url(#cm)"/><path d="M2422.4,824.725l.361-.629a.23.23,0,0,1,.25-.11l3.271.736a.23.23,0,0,1,.148.341l-.4.684a.229.229,0,0,1-.252.107l-3.231-.79A.23.23,0,0,1,2422.4,824.725Z" transform="translate(-2415.135 -823.735)" fill="url(#cn)"/><path d="M2421.178,833.835l-.015,0-5.759-1.359a.132.132,0,1,1,.061-.258l5.759,1.359a.132.132,0,0,1-.046.261Z" transform="translate(-2409.626 -830.149)" fill="#fff"/><path d="M2419.667,836.172l-.016,0-5.723-1.413a.133.133,0,0,1,.063-.258l5.723,1.413a.133.133,0,0,1-.047.26Z" transform="translate(-2408.476 -831.927)" fill="#fff"/><path d="M2415.21,840.941l-.02,0-3.112-.859a.133.133,0,1,1,.07-.256l3.112.859a.133.133,0,0,1-.051.259Z" transform="translate(-2407.038 -836.075)" fill="#fff"/></g><path d="M2430.745,857.93s1.389-.746,1.605-1.352a9.046,9.046,0,0,0,.3-1.78l-.928,1.569a.892.892,0,0,1-.456-.7c-.1-.56-.418-.09-.354.332A12.161,12.161,0,0,1,2430.745,857.93Z" transform="translate(-2385.704 -833.939)" fill="url(#co)"/><path d="M2378.982,814.238a9.71,9.71,0,0,1,2.387,2.607c2.247,3.634.859,7.11,2.875,8.6.577.427,1.625.834,3.644.349l.7.475s.427,4.732-5.221,4.317-7.722-7.708-7.722-7.708Z" transform="translate(-2342.772 -802.335)" fill="url(#cp)"/><path d="M2269.9,765.111c-.189-.032-.327-.287-.463-.225s-.157.418-.059.675a.9.9,0,0,0,.314.4,2.359,2.359,0,0,0-.49.9,3.244,3.244,0,0,0,.345,2.129c.752,2.021-.924,4.979-2.613,6.4-1.372,1.157-1.922.6-2.764,1.569-1.64,1.885.211,4.259-.775,6.9-1.5,4.011-8.086,4.7-8.359,4.721-.107.01-.18.016-.291.024-2.948.221-7.416.556-10.323-2.089a9.089,9.089,0,0,1-2.58-7.9,8.879,8.879,0,0,1,2.965-5.481,8.1,8.1,0,0,1,5.483-2.035c1.5.111,1.759.664,2.932.433a6.169,6.169,0,0,0,3.365-2.5c1.238-1.537.819-1.922,1.679-2.656,1.685-1.44,3.407-.057,5.183-1.3,1.75-1.229.916-3.162,2.595-4.213,1.731-1.083,4.815-.4,5.359,1.107C2271.869,763.259,2270.479,765.208,2269.9,765.111Z" transform="translate(-2238.431 -760.329)" fill="url(#cq)"/></g></g></svg>