<svg xmlns="http://www.w3.org/2000/svg" xmlns:xlink="http://www.w3.org/1999/xlink" width="524.833" height="281.105" viewBox="0 0 524.833 281.105"><defs><linearGradient id="a" x1="0.199" y1="-0.514" x2="1.263" y2="3.01" gradientUnits="objectBoundingBox"><stop offset="0" stop-color="#ff9085"/><stop offset="1" stop-color="#fb6fbb"/></linearGradient><linearGradient id="b" x1="0.342" y1="0.254" x2="1.326" y2="1.886" xlink:href="#a"/><linearGradient id="c" x1="-3.03" y1="-0.718" x2="1.794" y2="0.946" xlink:href="#a"/><linearGradient id="d" x1="0.343" y1="0.24" x2="1.322" y2="1.828" gradientUnits="objectBoundingBox"><stop offset="0.004" stop-color="#e38ddd"/><stop offset="1" stop-color="#9571f6"/></linearGradient><linearGradient id="e" x1="-3.023" y1="-0.696" x2="1.791" y2="0.938" xlink:href="#d"/><linearGradient id="f" x1="-1.125" y1="-0.902" x2="2.221" y2="1.982" gradientUnits="objectBoundingBox"><stop offset="0" stop-color="#ffc444"/><stop offset="0.996" stop-color="#f36f56"/></linearGradient><linearGradient id="g" x1="0.554" y1="1.227" x2="0.438" y2="-0.33" xlink:href="#f"/><linearGradient id="h" x1="-0.282" y1="-0.059" x2="3.858" y2="2.9" gradientUnits="objectBoundingBox"><stop offset="0" stop-color="#aa80f9"/><stop offset="0.996" stop-color="#6165d7"/></linearGradient><linearGradient id="i" x1="-0.937" y1="-0.457" x2="3.254" y2="2.308" xlink:href="#h"/><linearGradient id="j" x1="-0.283" y1="-0.058" x2="3.863" y2="2.896" xlink:href="#h"/><linearGradient id="k" x1="-1.168" y1="-0.438" x2="3.856" y2="2.389" xlink:href="#h"/><linearGradient id="l" x1="-1.107" y1="-2.08" x2="3.153" y2="4.908" xlink:href="#f"/><linearGradient id="m" x1="-0.757" y1="-0.257" x2="2.773" y2="2.331" xlink:href="#h"/><linearGradient id="n" x1="-4.162" y1="-20.7" x2="9.571" y2="41.779" xlink:href="#h"/><linearGradient id="o" x1="-1.484" y1="-0.777" x2="3.54" y2="3.31" xlink:href="#h"/><linearGradient id="p" x1="-1.125" y1="-0.902" x2="2.221" y2="1.982" xlink:href="#a"/><linearGradient id="q" x1="0.44" y1="0.099" x2="0.689" y2="1.769" xlink:href="#a"/><linearGradient id="r" x1="-7.361" y1="3.177" x2="-7.879" y2="5.221" gradientUnits="objectBoundingBox"><stop offset="0" stop-color="#40447e"/><stop offset="0.996" stop-color="#3c3b6b"/></linearGradient><linearGradient id="s" x1="-4.964" y1="1.768" x2="-5.316" y2="3.376" xlink:href="#r"/><linearGradient id="t" x1="-7.498" y1="3.181" x2="-8.024" y2="5.225" xlink:href="#a"/><linearGradient id="u" x1="-4.976" y1="1.772" x2="-5.328" y2="3.38" xlink:href="#a"/><linearGradient id="v" x1="-54.695" y1="21.232" x2="-54.569" y2="18.57" gradientUnits="objectBoundingBox"><stop offset="0" stop-color="#ff9085"/><stop offset="0.033" stop-color="#ff8f87"/><stop offset="1" stop-color="#fb6fbb"/></linearGradient><linearGradient id="w" x1="-7.091" y1="3.354" x2="-7.073" y2="2.912" xlink:href="#v"/><linearGradient id="x" x1="-230.412" y1="0.5" x2="-229.412" y2="0.5" xlink:href="#r"/><linearGradient id="y" x1="-508.936" y1="-2.699" x2="-508.626" y2="0.749" gradientUnits="objectBoundingBox"><stop offset="0" stop-color="#311944"/><stop offset="1" stop-color="#a03976"/></linearGradient><linearGradient id="z" x1="-313.607" y1="-1.467" x2="-313.405" y2="2.573" xlink:href="#y"/><linearGradient id="aa" x1="-38.747" y1="0.856" x2="-39.157" y2="0.295" xlink:href="#r"/><linearGradient id="ab" x1="-41.032" y1="0.859" x2="-41.465" y2="0.298" xlink:href="#r"/><linearGradient id="ac" x1="-62.317" y1="0.48" x2="-63.398" y2="0.542" xlink:href="#r"/><linearGradient id="ad" x1="-40.297" y1="0.4" x2="-41.811" y2="5.122" xlink:href="#f"/><linearGradient id="ae" x1="-24.543" y1="0.182" x2="-25.443" y2="2.029" xlink:href="#f"/><linearGradient id="af" x1="-303.483" y1="-6.545" x2="-308.843" y2="5.039" xlink:href="#y"/><linearGradient id="ag" x1="-189.378" y1="1.899" x2="-188.844" y2="-0.742" xlink:href="#y"/><linearGradient id="ah" x1="-394.924" y1="-68.839" x2="-393.104" y2="-71.112" xlink:href="#y"/><linearGradient id="ai" x1="-1787.923" y1="-322.224" x2="-1779.688" y2="-332.788" xlink:href="#y"/><linearGradient id="aj" x1="-24.988" y1="0.046" x2="-25.905" y2="2.249" xlink:href="#f"/><linearGradient id="ak" x1="-400.326" y1="0.5" x2="-399.326" y2="0.5" xlink:href="#r"/><linearGradient id="al" x1="2.618" y1="-8.59" x2="-0.965" y2="6.66" xlink:href="#y"/><linearGradient id="am" x1="0.574" y1="-0.344" x2="0.169" y2="4.698" xlink:href="#a"/><linearGradient id="an" x1="1.039" y1="-0.209" x2="-0.247" y2="1.475" xlink:href="#a"/><linearGradient id="ao" x1="0.807" y1="-0.297" x2="0.076" y2="1.59" xlink:href="#a"/><linearGradient id="ap" x1="0.695" y1="-0.441" x2="0.232" y2="1.787" xlink:href="#a"/><linearGradient id="aq" x1="1.379" y1="-0.171" x2="-0.718" y2="1.426" xlink:href="#a"/><linearGradient id="ar" x1="1.297" y1="-0.178" x2="-0.603" y2="1.434" xlink:href="#a"/><linearGradient id="as" x1="1.477" y1="-0.166" x2="-0.853" y2="1.419" xlink:href="#a"/><linearGradient id="at" x1="1.23" y1="-0.184" x2="-0.51" y2="1.442" xlink:href="#a"/><linearGradient id="au" x1="0.947" y1="-0.232" x2="-0.117" y2="1.504" xlink:href="#a"/><linearGradient id="av" x1="-233.515" y1="0.5" x2="-232.515" y2="0.5" xlink:href="#r"/><linearGradient id="aw" x1="-343.241" y1="0.5" x2="-342.241" y2="0.5" xlink:href="#r"/><linearGradient id="ax" x1="-441.882" y1="1.086" x2="-441.195" y2="3.067" xlink:href="#y"/><linearGradient id="ay" x1="-642.505" y1="-2.415" x2="-644.078" y2="5.498" xlink:href="#y"/><linearGradient id="az" x1="-75.092" y1="0.872" x2="-75.938" y2="0.479" gradientUnits="objectBoundingBox"><stop offset="0" stop-color="#ab316d"/><stop offset="1" stop-color="#792d3d"/></linearGradient><linearGradient id="bb" x1="-61.615" y1="0.841" x2="-62.322" y2="0.335" xlink:href="#az"/><linearGradient id="bc" x1="-57.443" y1="-0.045" x2="-57.799" y2="0.875" xlink:href="#f"/><linearGradient id="bd" x1="-272.076" y1="1.234" x2="-272.617" y2="0.558" xlink:href="#y"/><linearGradient id="be" x1="-45.218" y1="0.116" x2="-45.504" y2="1.45" xlink:href="#f"/><linearGradient id="bf" x1="-61.677" y1="-0.356" x2="-62.058" y2="0.833" xlink:href="#f"/><linearGradient id="bg" x1="-230.78" y1="1.51" x2="-229.652" y2="-0.984" xlink:href="#y"/><linearGradient id="bh" x1="-345.557" y1="2.049" x2="-343.867" y2="-0.19" xlink:href="#y"/><linearGradient id="bi" x1="-1904.063" y1="6.892" x2="-1894.762" y2="-3.202" xlink:href="#y"/><linearGradient id="bj" x1="-122.988" y1="-0.014" x2="-123.378" y2="1.22" xlink:href="#az"/><linearGradient id="bk" x1="-353.627" y1="-0.268" x2="-354.799" y2="1.709" xlink:href="#az"/><linearGradient id="bl" x1="-239.999" y1="57.202" x2="-239.234" y2="57.887" xlink:href="#f"/><linearGradient id="bm" x1="44.743" y1="1.152" x2="44.743" y2="-0.027" xlink:href="#f"/><linearGradient id="bn" x1="46.78" y1="0.734" x2="46.78" y2="-0.116" xlink:href="#f"/><linearGradient id="bo" x1="6.138" y1="0.5" x2="7.138" y2="0.5" gradientUnits="objectBoundingBox"><stop offset="0" stop-color="#311944"/><stop offset="1" stop-color="#893976"/></linearGradient><linearGradient id="bp" x1="-50.89" y1="1.101" x2="-51.564" y2="-0.255" gradientUnits="objectBoundingBox"><stop offset="0" stop-color="#444b8c"/><stop offset="0.996" stop-color="#26264f"/></linearGradient><linearGradient id="bq" x1="6.389" y1="0.047" x2="7.11" y2="0.677" xlink:href="#bo"/><linearGradient id="br" x1="-29.992" y1="-0.647" x2="-30.954" y2="1.18" xlink:href="#d"/><linearGradient id="bs" x1="-94.018" y1="-0.369" x2="-95.79" y2="2.006" xlink:href="#d"/><linearGradient id="bt" x1="13.485" y1="-1.343" x2="14.029" y2="1.115" xlink:href="#d"/><linearGradient id="bu" x1="-308.234" y1="-1.129" x2="-307.199" y2="3.497" xlink:href="#f"/><linearGradient id="bv" x1="-105.552" y1="-0.943" x2="-107.588" y2="1.086" xlink:href="#d"/><linearGradient id="bw" x1="-91.306" y1="-0.415" x2="-92.664" y2="2.104" xlink:href="#a"/><linearGradient id="bx" x1="19.625" y1="0.292" x2="18.879" y2="1.155" xlink:href="#f"/><linearGradient id="by" x1="3.634" y1="0.5" x2="4.634" y2="0.5" gradientUnits="objectBoundingBox"><stop offset="0" stop-color="#311944"/><stop offset="1" stop-color="#6b3976"/></linearGradient><linearGradient id="bz" x1="0.325" y1="23.974" x2="-3.108" y2="29.692" xlink:href="#f"/><linearGradient id="ca" x1="-518.23" y1="-0.036" x2="-518.663" y2="1.475" xlink:href="#az"/><linearGradient id="cb" x1="127.251" y1="-57.76" x2="126.463" y2="-64.435" xlink:href="#bp"/><linearGradient id="cc" x1="442.666" y1="-52.926" x2="442.666" y2="-62.692" xlink:href="#f"/><linearGradient id="cd" x1="302.675" y1="-51.759" x2="302.675" y2="-61.169" xlink:href="#f"/><linearGradient id="ce" x1="167.318" y1="-33.124" x2="166.28" y2="-36.857" xlink:href="#bp"/><linearGradient id="cf" x1="51.642" y1="-2.527" x2="51.486" y2="-1.569" xlink:href="#bo"/><linearGradient id="cg" x1="57.97" y1="-2.527" x2="57.795" y2="-1.569" xlink:href="#bo"/><linearGradient id="ch" x1="51.718" y1="-2.017" x2="48.945" y2="-2.051" xlink:href="#bo"/><linearGradient id="ci" x1="14.213" y1="-1.256" x2="14.771" y2="-2.497" xlink:href="#a"/><linearGradient id="cj" x1="-24.454" y1="-14.373" x2="-23.998" y2="-12.37" xlink:href="#a"/><linearGradient id="ck" x1="92.424" y1="-13.897" x2="91.764" y2="-13.03" xlink:href="#f"/><linearGradient id="cl" x1="37.545" y1="-7.623" x2="37.01" y2="-6.678" xlink:href="#bp"/><linearGradient id="cm" x1="47.082" y1="-8.411" x2="46.511" y2="-7.241" xlink:href="#f"/><linearGradient id="cn" x1="126.99" y1="-52.793" x2="127.428" y2="-54.769" xlink:href="#h"/><linearGradient id="co" x1="272.918" y1="-32.055" x2="271.971" y2="-31.123" xlink:href="#f"/><linearGradient id="cp" x1="38.862" y1="-2.683" x2="40.459" y2="-5.382" xlink:href="#a"/><linearGradient id="cq" x1="17.666" y1="-2.408" x2="18.174" y2="-3.542" xlink:href="#bp"/></defs><g transform="translate(-1585.521 -634.48)"><path d="M1710.889,1431.742c-70.981,11.3-100.357,23.6-99.81,28.509.388,3.484,15.954,4.12,16.4,9.5.462,5.572-15.9,8.591-15.932,12.5-.065,9.172,89.539,37.467,197.278,22.507,86.566-12.02,129.921-44.339,178.066-15,15.817,9.637,24.748,21.418,48.265,27.508,42.291,10.953,87.846-7.865,88.564-23.007.5-10.507-20.778-15.311-20.149-27.509.76-14.726,32.313-18.221,32.333-25.008C2135.957,1423.541,1909.085,1400.193,1710.889,1431.742Z" transform="translate(-25.55 -604.954)" fill="#6741e0" opacity="0.75"/><path d="M1704.574,1601.74c-3.082.361-37.263,4.42-37.087,7.157.125,1.956,17.783,2.988,33.834,1.952,25.571-1.65,49.6-8.707,49.233-11.061C1750.142,1597.129,1718.564,1600.1,1704.574,1601.74Z" transform="translate(-49.446 -741.716)" fill="#fff" opacity="0.15"/><path d="M2017.213,1640c-19.373,2.564-29.059,3.845-29.28,5.422-.428,3.057,16.364,9.148,33.834,11.062,10.266,1.124,31.472,1.979,32.533-2.819,1.022-4.627-16.459-15.5-33.618-14.1C2020.19,1639.607,2019.191,1639.739,2017.213,1640Z" transform="translate(-295.934 -773.037)" fill="#fff" opacity="0.15"/><path d="M3339.315,1727.4c-4.34.244-31.693,1.781-31.882,5.856-.14,3,14.439,7.359,28.629,7.157,17.992-.256,35.031-7.841,34.485-11.061C3369.925,1725.68,3346.327,1727.006,3339.315,1727.4Z" transform="translate(-1310.924 -840.266)" fill="#fff" opacity="0.15"/><g transform="translate(1602.575 634.48)" opacity="0.5"><path d="M1689.91,637.242l-58.495-2.762-30.942,48.014,30.942,49.062,58.495-.782,27.675-46.3Z" transform="translate(-1600.473 -634.48)" fill="#8c57f2"/><path d="M2112.993,655.518l-21.66-1.018-11.068,18.241,11.068,19.008,21.66.484,10.6-17.99Z" transform="translate(-1969.538 -649.88)" fill="#8c57f2"/><path d="M1779.687,1072.229l-34.18.558-17.661,28.814,17.661,27.609,34.18-1.774,16.543-28.168Z" transform="translate(-1698.451 -971.205)" fill="#8c57f2"/></g><g transform="translate(1886.269 666.032)"><path d="M2913.19,884.937l-72.671,1.316c-5.911.107-10.766,5.47-10.766,11.978s4.855,11.558,10.766,11.284l72.671-3.369c4.848-.225,8.731-5.1,8.731-10.886S2918.038,884.849,2913.19,884.937Z" transform="translate(-2829.753 -858.687)" opacity="0.5" fill="url(#a)"/><g transform="translate(32.117 0)"><path d="M3010.806,771.779l-36.72-.583c-2.845-.045-5.166,2.533-5.166,5.76s2.321,5.845,5.166,5.848l36.72.048c2.57,0,4.642-2.458,4.642-5.5S3013.376,771.82,3010.806,771.779Z" transform="translate(-2968.92 -771.196)" fill="url(#b)"/><path d="M3188.911,779.969c0,2.979-2,5.391-4.482,5.388-2.5,0-4.537-2.451-4.537-5.466s2.038-5.427,4.537-5.387C3186.911,774.544,3188.911,776.991,3188.911,779.969Z" transform="translate(-3131.204 -773.74)" fill="url(#c)"/></g><g transform="translate(57.001 14.276)" opacity="0.5"><path d="M3108.221,833.137l-27.634.061c-2.116,0-3.84,2.012-3.84,4.483s1.724,4.451,3.84,4.422l27.634-.379c1.957-.027,3.536-1.962,3.536-4.322S3110.178,833.133,3108.221,833.137Z" transform="translate(-3076.747 -833.118)" fill="url(#d)"/><path d="M3242.5,837.25c0,2.321-1.535,4.224-3.437,4.249s-3.469-1.852-3.469-4.195,1.557-4.246,3.469-4.25S3242.5,834.929,3242.5,837.25Z" transform="translate(-3198.937 -833.055)" fill="url(#e)"/></g></g><g transform="translate(1654.343 661.306)"><path d="M2243.968,1505.084l-401.652-2.915v8.843a4.861,4.861,0,0,0,4.125,4.8l113.578,17.394a18.237,18.237,0,0,0,4.075.162l275.51-19.905a4.7,4.7,0,0,0,4.364-4.692Z" transform="translate(-1838.272 -1328.749)" fill="#bfc8d6"/><path d="M2084.727,912.467l-251.738,16.224c-4.5.29-8.167-2.786-8.168-6.87l-.03-163.655c0-4.084,3.661-7.4,8.166-7.4l251.74-.046a6.7,6.7,0,0,1,6.714,6.685l.027,147.94A7.244,7.244,0,0,1,2084.727,912.467Z" transform="translate(-1824.791 -750.722)" fill="#bfc8d6"/><path d="M2102.119,912.463l-251.738,16.224c-4.5.29-8.167-2.785-8.169-6.87l-.03-163.654c0-4.085,3.661-7.4,8.166-7.4l251.741-.046a6.7,6.7,0,0,1,6.713,6.685l.027,147.94A7.244,7.244,0,0,1,2102.119,912.463Z" transform="translate(-1838.169 -750.719)" fill="#d8dee8"/><path d="M2130.78,933.709l-234.468,14.1c-3.666.22-6.646-2.3-6.646-5.639l-.026-143.28c0-3.335,2.978-6.049,6.645-6.064l234.469-.925a5.492,5.492,0,0,1,5.539,5.478l.024,130.5A5.936,5.936,0,0,1,2130.78,933.709Z" transform="translate(-1874.674 -782.394)" fill="#eff2f6"/><path d="M2442.182,761.038a2.9,2.9,0,1,1-2.9-2.751A2.836,2.836,0,0,1,2442.182,761.038Z" transform="translate(-2295.24 -756.54)" fill="#fff"/><path d="M2042.477,867.816c-19.508-9.5-34.843,2.545-49.648-9.332-8.975-7.2-4.57-12.572-15.615-23.333-12.232-11.919-20.194-7.91-32.487-18.637-15.544-13.562-7.772-24.118-21.161-33.855-16.243-11.813-33.754-.874-49.216-12.2-6.668-4.886-10.329-11.991-12.24-19.547l-15.126,0a4.592,4.592,0,0,0-4.8,4.345l.031,169.758a4.256,4.256,0,0,0,4.8,4.035l257.875-16.62a4.23,4.23,0,0,0,3.108-1.72c-18.877-.619-30.476-6.347-37.891-12.268C2055.6,886.858,2058.117,875.431,2042.477,867.816Z" transform="translate(-1838.168 -750.866)" fill="#fff" opacity="0.48" style="mix-blend-mode:soft-light;isolation:isolate"/><path d="M2112.258,1449.449l-269.939,17.078,117.7,18.025a18.219,18.219,0,0,0,4.074.162l279.874-20.22-127.419-14.931A23.912,23.912,0,0,0,2112.258,1449.449Z" transform="translate(-1838.274 -1288.159)" fill="#fff"/><path d="M2012.995,1476.117l224.732-14.43,69.554,8.084-222.8,15.422Z" transform="translate(-1969.561 -1297.61)" fill="#d8dee8" opacity="0.47"/><g transform="translate(24.862 21.738)"><path d="M2000.31,910.094l-18.785-65.183a70.838,70.838,0,0,0-49,67.127Z" transform="translate(-1932.522 -844.911)" fill="#d8dee8"/><g transform="translate(17.53 13.976)"><path d="M2008.483,1148.819A53.3,53.3,0,0,0,2027.524,1186l29.372-38.568Z" transform="translate(-2008.483 -1091.591)" fill="#fff"/><path d="M2198.516,954.492c11.3-10.818,24.907-23.878,35.711-34.294a53.508,53.508,0,0,0-49.41-13.238Z" transform="translate(-2144.123 -905.47)" fill="#fff"/><path d="M2254.39,1018.651l40.9,30.041a53.424,53.424,0,0,0-4.368-65.12q-4.485,4.323-9.96,9.587C2269.91,1003.784,2258.792,1014.435,2254.39,1018.651Z" transform="translate(-2197.639 -965.548)" fill="#fff"/><path d="M2249.242,1156.4l.792,48.822a53.314,53.314,0,0,0,38.583-19.9Z" transform="translate(-2193.68 -1098.493)" fill="#fff"/><path d="M2135.082,1165.357l-28.342,37.215a53.141,53.141,0,0,0,29.1,9.609Z" transform="translate(-2084.064 -1105.38)" fill="#fff"/></g></g><g transform="translate(164.569 42.625)"><path d="M2537.887,957.25v41.218a2.4,2.4,0,0,0,2.475,2.409l80.719-2.234a2.383,2.383,0,0,0,2.247-2.42V957Z" transform="translate(-2537.887 -952.017)" fill="#f4f7fa"/><path d="M2621.08,935.419h-80.719a2.477,2.477,0,0,0-2.475,2.478v4.224l85.441-.324v-4.019A2.3,2.3,0,0,0,2621.08,935.419Z" transform="translate(-2537.887 -935.419)" fill="#d8dee8"/><path d="M2555.5,945.641a1.1,1.1,0,1,1-1.1-1.1A1.1,1.1,0,0,1,2555.5,945.641Z" transform="translate(-2549.749 -942.438)" fill="#fff"/><g transform="translate(5.431 15.495)"><path d="M2572.338,1012.282a5.065,5.065,0,0,1,3.812-2.681l.116-7.041a12.146,12.146,0,0,0-10.523,7.357Z" transform="translate(-2564.745 -1002.56)" fill="#d8dee8"/><path d="M2616.568,1009.64a4.892,4.892,0,0,1,4.182,4.422l6.9.18a11.747,11.747,0,0,0-10.964-11.637Z" transform="translate(-2603.842 -1002.594)" fill="#fff"/><path d="M2599.212,1058.024a5.075,5.075,0,0,1-4.871,4.217,4.852,4.852,0,0,1-2.023-.4l-3.679,6.076a11.635,11.635,0,0,0,5.7,1.333,12.192,12.192,0,0,0,11.769-11.056Z" transform="translate(-2582.357 -1045.224)" fill="#fff"/><path d="M2566.569,1053.319l3.685-6.078a4.932,4.932,0,0,1-1.822-3.851,5.065,5.065,0,0,1,.121-1.1l-6.6-2.361a12.2,12.2,0,0,0-.532,3.573A11.826,11.826,0,0,0,2566.569,1053.319Z" transform="translate(-2561.421 -1031.303)" fill="#fff"/></g><g transform="translate(31.321 15.269)"><path d="M2684.2,1011.16a4.919,4.919,0,0,1,3.7-2.641l.112-6.938a11.8,11.8,0,0,0-10.217,7.247Z" transform="translate(-2676.832 -1001.581)" fill="#fff"/><path d="M2727.149,1008.558a4.791,4.791,0,0,1,4.061,4.359l6.7.179a11.508,11.508,0,0,0-10.647-11.47Z" transform="translate(-2714.792 -1001.615)" fill="#d8dee8"/><path d="M2710.3,1056.24a4.95,4.95,0,0,1-4.73,4.155,4.657,4.657,0,0,1-1.965-.391l-3.572,5.986a11.165,11.165,0,0,0,5.537,1.315A11.909,11.909,0,0,0,2717,1056.413Z" transform="translate(-2693.931 -1043.626)" fill="#fff"/><path d="M2678.6,1051.589l3.577-5.989a4.891,4.891,0,0,1-1.769-3.795,5.086,5.086,0,0,1,.117-1.086l-6.407-2.328a12.191,12.191,0,0,0-.517,3.521A11.706,11.706,0,0,0,2678.6,1051.589Z" transform="translate(-2673.604 -1029.897)" fill="#fff"/></g><g transform="translate(56.461 15.049)"><path d="M2792.836,1010.069a4.781,4.781,0,0,1,3.6-2.6l.109-6.839a11.469,11.469,0,0,0-9.924,7.141Z" transform="translate(-2785.675 -1000.629)" fill="#fff"/><path d="M2834.552,1007.507a4.7,4.7,0,0,1,3.946,4.3l6.508.177a11.278,11.278,0,0,0-10.344-11.307Z" transform="translate(-2822.549 -1000.664)" fill="#fff"/><path d="M2818.183,1054.507a4.832,4.832,0,0,1-4.6,4.094,4.478,4.478,0,0,1-1.909-.386l-3.47,5.9a10.721,10.721,0,0,0,5.379,1.3,11.641,11.641,0,0,0,11.1-10.732Z" transform="translate(-2802.284 -1042.073)" fill="#fff"/><path d="M2787.4,1049.91l3.475-5.9a4.848,4.848,0,0,1-1.719-3.74,5.1,5.1,0,0,1,.113-1.07l-6.223-2.3a12.188,12.188,0,0,0-.5,3.469A11.588,11.588,0,0,0,2787.4,1049.91Z" transform="translate(-2782.54 -1028.532)" fill="#d8dee8"/></g></g></g><g transform="translate(1736.1 724.469)"><g transform="translate(165.254 0)"><path d="M2981.894,1103.812l1.826-4.023a3.239,3.239,0,0,0-.909-4.048l-4.729-2.905a52.1,52.1,0,0,0,2.629-11.438l5.278-.37a3.017,3.017,0,0,0,2.46-3.177v-4.413c0-1.659-1.1-2.942-2.46-2.864l-5.14.294a48.439,48.439,0,0,0-2.385-11.379l4.346-3.224a2.724,2.724,0,0,0,.383-.348l.556,1.444,7.139-8.779-9.321-.8a2.3,2.3,0,0,0-1.541-.917,2.183,2.183,0,0,0-1.553.429l-4.294,3.12a39.334,39.334,0,0,0-7.086-8.492l.323-.675,6.563,1.34.833-10.864-9.966-1.644a2.455,2.455,0,0,0-3.073,1.418l-2.477,5.109c-3.183-1.582-.545-3.249-4.163-3.731l3.784-5.572c0-1.736-11.083-2.894-12.58-2.894h-4.008a3,3,0,0,0-2.75,3.187v5.967a35.547,35.547,0,0,0-10.746,3.488l6.845-5.029s-12.057-2.284-13.428-1.378l-3.669,2.425a3.524,3.524,0,0,0-1.061,4.476l2.775,5.37a31.461,31.461,0,0,0-6.629,7.837l-6.447-1.455a2.883,2.883,0,0,0-4.079,1.331l-2.209,4.3a3.45,3.45,0,0,0,1.1,4.507l5.2,3.115a52.147,52.147,0,0,0-2.838,12.684l-6.235.356a3.443,3.443,0,0,0-3.044,3.527v4.925a3,3,0,0,0,2.585,3.129v0l7.087,1.134a47.183,47.183,0,0,0,2.9,10.432l-5.649,4.105a3.711,3.711,0,0,0-1.1,4.647l2.209,4.021c.827,1.507,13.961,2.423,13.961,2.423l-4.17-5.848a37.82,37.82,0,0,0,7.88,7.888l-3.292,6.789a3.271,3.271,0,0,0,1.061,4.341l3.669,1.957a2.368,2.368,0,0,0,.721.244l-.014.069,11.446,1.41,1.12-8.638a32.527,32.527,0,0,0,4.056.365v7.391a2.782,2.782,0,0,0,1.667,2.717l-.05.216,11.34,1.416.227-14.012a37.538,37.538,0,0,0,5.987-2.913l3.023,5.85a2.282,2.282,0,0,0,1.663,1.266v0l10.96,1.483-3.754-10.33-1.515.465-2.5-4.9a46.833,46.833,0,0,0,6.952-8.844l4.891,2.932C2979.676,1105.979,2981.205,1105.329,2981.894,1103.812Zm-37.553-3.785c-10.73.956-19.629-8.459-19.629-21.05s8.9-23.124,19.629-23.516c10.465-.383,18.761,9.07,18.761,21.1S2954.806,1099.094,2944.341,1100.026Zm45.826-24.177,7.425-3.514-7.425-.9Zm-9.114,30,8.493,1.146,1.24-2.9-7.036-4.277Z" transform="translate(-2895.116 -1024.412)" opacity="0.3" fill="url(#f)" style="mix-blend-mode:multiply;isolation:isolate"/><path d="M3035.15,1078.142l-5.111.3a48.41,48.41,0,0,0-2.372-11.345l4.322-3.217a3.474,3.474,0,0,0,.9-4.153l-1.816-3.779a2.225,2.225,0,0,0-3.4-1.008l-4.269,3.113a39.177,39.177,0,0,0-7.046-8.465l2.457-5.145a3.4,3.4,0,0,0-.936-4.179l-3.269-2.229a2.391,2.391,0,0,0-3.54,1.16l-2.463,5.095a32.376,32.376,0,0,0-10.194-3.131v-5.883a2.94,2.94,0,0,0-2.692-3.141l-3.985,0a2.984,2.984,0,0,0-2.734,3.179v5.949a35.293,35.293,0,0,0-10.684,3.483l-2.662-5.234a2.651,2.651,0,0,0-3.884-1.152l-3.648,2.419a3.521,3.521,0,0,0-1.055,4.464l2.759,5.354a45.906,45.906,0,0,0-8.008,9.443l-4.992-3.074a2.864,2.864,0,0,0-4.055,1.329l-2.2,4.291a3.444,3.444,0,0,0,1.1,4.494l5.167,3.1a52.108,52.108,0,0,0-2.821,12.649l-6.2.358a3.431,3.431,0,0,0-3.026,3.518v4.91a2.94,2.94,0,0,0,3.026,3.129l6.364-.45a47.474,47.474,0,0,0,3.106,11.97l-5.616,4.1a3.708,3.708,0,0,0-1.1,4.634l2.2,4.009a2.665,2.665,0,0,0,4.055.807l5.679-4.227a37.645,37.645,0,0,0,7.835,7.862l-3.273,6.771a3.267,3.267,0,0,0,1.055,4.329l3.648,1.95a2.91,2.91,0,0,0,3.884-1.651l3.245-6.8a32.153,32.153,0,0,0,10.1,1.911v7.369a2.566,2.566,0,0,0,2.734,2.828l3.985-.51a3.439,3.439,0,0,0,2.692-3.487v-7.288a36.485,36.485,0,0,0,9.651-4.09l3.006,5.832a2.232,2.232,0,0,0,3.54.705l3.269-2.649a3.649,3.649,0,0,0,.936-4.3l-2.917-5.735a46.7,46.7,0,0,0,6.912-8.822l4.864,2.922c1.193.717,2.715.068,3.4-1.445l1.816-4.012a3.234,3.234,0,0,0-.9-4.036l-4.7-2.9a52.128,52.128,0,0,0,2.614-11.407l5.249-.371a3.008,3.008,0,0,0,2.446-3.169V1081C3037.6,1079.342,3036.5,1078.064,3035.15,1078.142Zm-41.412,29.386c-10.668.957-19.516-8.427-19.516-20.982s8.848-23.061,19.516-23.457c10.406-.386,18.655,9.036,18.655,21.036S3004.144,1106.594,2993.738,1107.528Z" transform="translate(-2933.332 -1030.349)" fill="url(#g)"/></g><g transform="translate(0 15.962)" opacity="0.3" style="mix-blend-mode:multiply;isolation:isolate"><path d="M2241.928,1171.366q0-6.055-4.365-8.954c-2.932-1.946-8.254-3.847-16.042-5.718a113.349,113.349,0,0,1-18.992-6.009c-13.118-5.855-19.8-14.553-19.8-25.982a25.89,25.89,0,0,1,5.385-16.022c3.559-4.7,8.628-8.385,15.161-11.052a57.6,57.6,0,0,1,21.408-4.047,48.781,48.781,0,0,1,20.424,3.825,30.571,30.571,0,0,1,13.453,10.994c3.141,4.717-4.579,12.7-4.579,18.8L2242,1125.48q0-7.123-4.584-10.938c-3.08-2.563-7.439-3.776-13.111-3.625-5.535.146-9.879,1.4-13,3.759a11.037,11.037,0,0,0-4.719,9.181q0,5.241,5.527,8.521c3.651,2.168,8.979,4.086,15.93,5.75,12.553,2.989,21.5,6.975,27.035,11.974,5.47,4.943,8.182,11.345,8.182,19.244a27.385,27.385,0,0,1-10.02,21.764c-6.8,5.827-16.095,9.456-28.037,10.855a56.618,56.618,0,0,1-23.46-1.811c-7.27-2.242-12.883-5.842-16.786-10.806a28.56,28.56,0,0,1-5.909-18.2l24.1-1.993,12.188,1.734s-2.625,15.153,9.861,13.9q7.973-.8,12.357-4.349A11.131,11.131,0,0,0,2241.928,1171.366Z" transform="translate(-2179.052 -1093.579)" fill="url(#h)"/><path d="M2671.01,1134.608l-47.152,15.962v26.238l41.713-4.1,11.415,1.646-61.253,22.424-11.664-3.623v-97.876l61.385-.653,11.319,1.644-52.914,15.147v23.345l35.779-1.9Z" transform="translate(-2505.983 -1094.383)" fill="url(#i)"/></g><g transform="translate(12.273 17.766)"><path d="M2294.731,1178.942q0-6.037-4.34-8.926c-2.915-1.939-8.2-3.833-15.946-5.695a112.331,112.331,0,0,1-18.878-5.983c-13.039-5.832-19.683-14.5-19.683-25.9a25.873,25.873,0,0,1,5.352-15.976c3.538-4.687,8.576-8.363,15.07-11.026a57.122,57.122,0,0,1,21.28-4.044,48.353,48.353,0,0,1,20.3,3.8,30.392,30.392,0,0,1,13.373,10.955,28.489,28.489,0,0,1,4.676,16.144l-21.135.892q0-7.1-4.557-10.9c-3.062-2.553-7.395-3.761-13.032-3.609-5.5.148-9.819,1.4-12.922,3.754a11.018,11.018,0,0,0-4.691,9.155q0,5.225,5.494,8.492c3.629,2.16,8.925,4.071,15.835,5.726,12.479,2.974,21.375,6.945,26.874,11.927,5.438,4.927,8.134,11.308,8.134,19.184a27.349,27.349,0,0,1-9.96,21.7c-6.756,5.811-16,9.434-27.87,10.833a56.106,56.106,0,0,1-23.319-1.8c-7.226-2.233-12.806-5.82-16.684-10.767a28.52,28.52,0,0,1-5.873-18.142l23.959-2c0,11.861,7.412,17.044,21.917,15.583,5.284-.532,9.369-1.982,12.283-4.341A11.115,11.115,0,0,0,2294.731,1178.942Z" transform="translate(-2232.232 -1101.395)" fill="url(#j)"/><path d="M2709.951,1155.5l-35.57,2.518v26.161l41.47-4.105v15.443l-61.143,7.119V1102.9l61.025-.679v15.573l-41.352,1.187v23.276l35.57-1.914Z" transform="translate(-2557.209 -1102.027)" fill="url(#k)"/></g><g transform="translate(12.273 20.812)"><path d="M2987.2,1342.9a43.44,43.44,0,0,0-11.692,1.342c.126.332.252.665.385.992l-5.531,4.033a3.651,3.651,0,0,0-1.079,4.564l2.162,3.948a2.625,2.625,0,0,0,3.994.8l5.593-4.163a37.071,37.071,0,0,0,7.715,7.743l-3.223,6.668a3.217,3.217,0,0,0,1.04,4.263l3.593,1.92a2.865,2.865,0,0,0,3.824-1.626l3.2-6.693a31.678,31.678,0,0,0,9.948,1.882v7.257a2.528,2.528,0,0,0,2.693,2.785l3.924-.5a3.388,3.388,0,0,0,2.651-3.435V1367.5a35.929,35.929,0,0,0,9.5-4.028l2.96,5.744a2.2,2.2,0,0,0,3.48.7C3014.192,1348.572,2998.76,1343.207,2987.2,1342.9Z" transform="translate(-2798.882 -1290.205)" opacity="0.3" fill="url(#l)" style="mix-blend-mode:multiply;isolation:isolate"/><path d="M2256.307,1115.6c-6.495,2.663-11.533,6.339-15.07,11.026a25.873,25.873,0,0,0-5.352,15.976c0,11.4,6.644,20.064,19.683,25.9a112.329,112.329,0,0,0,18.878,5.983c7.741,1.862,13.031,3.756,15.946,5.694q4.346,2.893,4.34,8.926a11.115,11.115,0,0,1-4.34,9.054c-2.915,2.359-7,3.809-12.283,4.341-14.505,1.461-21.917-3.722-21.917-15.583l-23.959,2a28.52,28.52,0,0,0,5.873,18.142c3.879,4.947,9.458,8.534,16.684,10.767a56.106,56.106,0,0,0,23.319,1.8c11.871-1.4,21.114-5.022,27.87-10.833a27.348,27.348,0,0,0,9.96-21.7c0-7.876-2.7-14.257-8.134-19.184-5.5-4.982-14.4-8.953-26.874-11.927-6.91-1.656-12.206-3.566-15.835-5.726q-5.484-3.263-5.494-8.493a11.019,11.019,0,0,1,4.691-9.155,15.287,15.287,0,0,1,2.726-1.639c-3.254-3.507-6.254-8.633-8.047-16.355Q2257.62,1115.061,2256.307,1115.6Z" transform="translate(-2232.232 -1114.595)" opacity="0.3" fill="url(#m)" style="mix-blend-mode:multiply;isolation:isolate"/><path d="M2501.7,1220.8a18.238,18.238,0,0,1,.383,3.818l21.135-.892q0-1.627-.151-3.186C2515.744,1219.854,2508.537,1220.567,2501.7,1220.8Z" transform="translate(-2439.514 -1195.866)" fill="url(#n)"/><path d="M2662.054,1240.578a41.587,41.587,0,0,0-7.345-4.133v69.44l61.143-7.118v-15.444l-41.469,4.105v-26.161l3.577-.253C2673.967,1255.095,2672.043,1247.59,2662.054,1240.578Z" transform="translate(-2557.209 -1208.324)" opacity="0.3" fill="url(#o)" style="mix-blend-mode:multiply;isolation:isolate"/></g></g><g transform="translate(1982.035 688.683)"><path d="M3284.776,905.994l.843-1.857a1.5,1.5,0,0,0-.419-1.869l-2.183-1.341a24.027,24.027,0,0,0,1.214-5.279l2.437-.171a1.392,1.392,0,0,0,1.135-1.466v-2.037a1.2,1.2,0,0,0-1.135-1.322l-2.373.136a22.328,22.328,0,0,0-1.1-5.252l2.007-1.488a1.3,1.3,0,0,0,.177-.162l.257.667,3.3-4.052-4.3-.367a1.062,1.062,0,0,0-.711-.423,1.006,1.006,0,0,0-.717.2l-1.982,1.44a18.138,18.138,0,0,0-3.271-3.92l.149-.312,3.029.619.385-5.015-4.6-.759a1.133,1.133,0,0,0-1.418.654l-1.143,2.358c-1.469-.73-.251-1.5-1.921-1.722l1.746-2.572c0-.8-5.115-1.336-5.806-1.336h-1.85a1.382,1.382,0,0,0-1.269,1.471v2.754a16.4,16.4,0,0,0-4.96,1.61l3.159-2.322s-5.565-1.054-6.2-.636l-1.693,1.119a1.627,1.627,0,0,0-.491,2.066l1.281,2.479a14.534,14.534,0,0,0-3.06,3.617l-2.976-.672a1.33,1.33,0,0,0-1.882.614l-1.02,1.986a1.593,1.593,0,0,0,.509,2.081l2.4,1.438a24.028,24.028,0,0,0-1.31,5.855l-2.879.165a1.588,1.588,0,0,0-1.4,1.628v2.273a1.384,1.384,0,0,0,1.193,1.445l3.27.524a21.772,21.772,0,0,0,1.338,4.815l-2.608,1.895a1.714,1.714,0,0,0-.509,2.145l1.02,1.856c.382.7,6.444,1.119,6.444,1.119l-1.925-2.7a17.463,17.463,0,0,0,3.637,3.641l-1.52,3.134a1.51,1.51,0,0,0,.491,2l1.693.9a1.1,1.1,0,0,0,.333.113l-.007.032,5.283.651.518-3.988a15.067,15.067,0,0,0,1.872.169v3.411a1.284,1.284,0,0,0,.77,1.254l-.023.1,5.235.653.1-6.468a17.294,17.294,0,0,0,2.763-1.344l1.4,2.7a1.054,1.054,0,0,0,.767.584l5.059.686-1.733-4.768-.7.214-1.154-2.261a21.63,21.63,0,0,0,3.209-4.082l2.258,1.353A1.131,1.131,0,0,0,3284.776,905.994Zm-17.334-1.747c-4.953.441-9.061-3.9-9.061-9.716s4.108-10.673,9.061-10.854c4.831-.177,8.66,4.186,8.66,9.741S3272.272,903.816,3267.442,904.247Zm21.152-11.159,3.427-1.622-3.427-.416Zm-4.207,13.845,3.921.529.573-1.337-3.248-1.974Z" transform="translate(-3244.721 -869.345)" opacity="0.3" fill="url(#p)" style="mix-blend-mode:multiply;isolation:isolate"/><path d="M3309.357,894.146l-2.359.136a22.363,22.363,0,0,0-1.095-5.237l1.995-1.485a1.6,1.6,0,0,0,.417-1.917l-.838-1.744a1.027,1.027,0,0,0-1.569-.465l-1.97,1.437a18.085,18.085,0,0,0-3.252-3.907l1.133-2.375a1.569,1.569,0,0,0-.432-1.929l-1.509-1.029a1.1,1.1,0,0,0-1.634.536l-1.137,2.352a14.937,14.937,0,0,0-4.7-1.445v-2.716a1.357,1.357,0,0,0-1.242-1.45h-1.84a1.378,1.378,0,0,0-1.262,1.468v2.746a16.286,16.286,0,0,0-4.932,1.608l-1.229-2.416a1.224,1.224,0,0,0-1.793-.531l-1.684,1.116a1.626,1.626,0,0,0-.487,2.061l1.274,2.471a21.18,21.18,0,0,0-3.7,4.359l-2.3-1.419a1.322,1.322,0,0,0-1.872.613l-1.013,1.98a1.59,1.59,0,0,0,.506,2.074l2.385,1.433a24.054,24.054,0,0,0-1.3,5.838l-2.861.165a1.583,1.583,0,0,0-1.4,1.624v2.266a1.357,1.357,0,0,0,1.4,1.444l2.938-.208a21.872,21.872,0,0,0,1.434,5.525l-2.593,1.891a1.711,1.711,0,0,0-.506,2.139l1.013,1.85a1.231,1.231,0,0,0,1.872.373l2.622-1.951a17.373,17.373,0,0,0,3.616,3.629l-1.511,3.125a1.508,1.508,0,0,0,.487,2l1.684.9a1.343,1.343,0,0,0,1.793-.762l1.5-3.137a14.858,14.858,0,0,0,4.663.882v3.4a1.185,1.185,0,0,0,1.262,1.305l1.84-.236a1.587,1.587,0,0,0,1.242-1.609v-3.364a16.808,16.808,0,0,0,4.454-1.888l1.388,2.692a1.03,1.03,0,0,0,1.634.325l1.509-1.223a1.684,1.684,0,0,0,.432-1.984l-1.346-2.647a21.58,21.58,0,0,0,3.19-4.072l2.244,1.348a1.123,1.123,0,0,0,1.569-.667l.838-1.852a1.492,1.492,0,0,0-.417-1.863l-2.17-1.336a24.045,24.045,0,0,0,1.207-5.265l2.423-.172a1.388,1.388,0,0,0,1.129-1.463v-2.031A1.19,1.19,0,0,0,3309.357,894.146Zm-19.115,13.564c-4.924.442-9.008-3.89-9.008-9.685s4.084-10.644,9.008-10.827c4.8-.178,8.611,4.171,8.611,9.71S3295.045,907.279,3290.242,907.71Z" transform="translate(-3262.361 -872.086)" fill="url(#q)"/></g><g transform="translate(1621.454 735.577)"><path d="M2079.529,1125.792l-20.822-8.047-3.441-22.056,24.763-17.77c1.514-1.22-.572-4.7-2.494-4.989a34.151,34.151,0,1,0,16.314,60.354c7.756-6.252,13.134-14.05,13.724-23.266.125-1.943-3.188-4.26-4.7-3.038Z" transform="translate(-1956.13 -1072.543)" fill="url(#r)"/><path d="M1773.351,1260.836l-86.2,64.524a12.443,12.443,0,1,0,15.609,19.374l81.406-70.484Z" transform="translate(-1682.28 -1217.382)" fill="url(#s)"/><path d="M2084.228,1132.371l-20.822-8.048-3.442-22.056,23.34-18.812a2.233,2.233,0,0,0-1.07-3.946,34.151,34.151,0,1,0,28.963,35.939,2.233,2.233,0,0,0-3.628-1.89Z" transform="translate(-1959.745 -1077.604)" fill="url(#t)"/><path d="M1778.05,1267.415l-86.2,64.524a12.444,12.444,0,1,0,15.61,19.374l81.406-70.484Z" transform="translate(-1685.894 -1222.442)" fill="url(#u)"/><circle cx="5.052" cy="5.052" r="5.052" transform="translate(85.967 61.683) rotate(-88.251)" opacity="0.3" fill="url(#v)" style="mix-blend-mode:multiply;isolation:isolate"/><path d="M1811.122,1332.53l-70.241,56.615a2.988,2.988,0,1,1-3.75-4.653l70.241-56.615Z" transform="translate(-1723.616 -1268.951)" opacity="0.3" fill="url(#w)" style="mix-blend-mode:multiply;isolation:isolate"/></g><g transform="translate(1707.25 787.443)"><path d="M2190.824,1688.851l1.954-.419s2.38-.578,2.5-.569.615,1-.637,1.549a10.388,10.388,0,0,1-3.816,1.016C2190.257,1690.282,2190.824,1688.851,2190.824,1688.851Z" transform="translate(-2159.063 -1597.726)" fill="url(#x)"/><path d="M2194.067,1679.238l-.746,3.074a1.388,1.388,0,0,1-1.468,0l.445-3.062Z" transform="translate(-2160.049 -1591.091)" fill="url(#y)"/><path d="M2058.639,1650.569l-1.479,2.535.219.113a1.391,1.391,0,0,0,1.74-.387l1.437-1.863Z" transform="translate(-2056.44 -1569.038)" fill="url(#z)"/><path d="M2075.236,1504.779a12.411,12.411,0,0,0-1.452,5.349c-.065,2.953-7.654,18.569-10.329,22.324a30,30,0,0,0-3.51,5.973s1.433,1.473,2.753,1.4c0,0,13.425-11.578,19.833-24.135l5-10.912Z" transform="translate(-2058.582 -1456.894)" fill="url(#aa)"/><g transform="translate(2.858 47.885)" opacity="0.3" style="mix-blend-mode:multiply;isolation:isolate"><path d="M2074.192,1529.551c1.708-2.451.486-3.058,2.123-6.755,2.148-4.853,4.875-5.212,5.918-8.749.483-1.639.167-5.493-1.5-9.268h11.778l-5,10.912c-6.407,12.557-19.833,24.135-19.833,24.135a2.587,2.587,0,0,1-1.258-.311c.446-.836.54-2.313,1.337-3.917C2069.416,1532.261,2071.929,1532.8,2074.192,1529.551Z" transform="translate(-2066.423 -1504.779)" fill="url(#ab)"/></g><path d="M2149.2,1500.625a65.075,65.075,0,0,1,2.224,41.509,3.617,3.617,0,0,1-2.788.193,90.984,90.984,0,0,1-1.837-14.919,23.953,23.953,0,0,0-1-7.325c-.619-1.907-1.771-3.832-4.052-7.6-3.1-5.13-3.883-5.721-4.554-8.208-.35-1.3-1.075-4.615-1.075-4.615Z" transform="translate(-2117.171 -1452.954)" fill="url(#ac)"/><path d="M2097.935,1371.81c-.348-1.115-2.514-1.35-4.663-1.562-7.762-.764-13.5,1.97-14.024.869-.188-.4.481-.925,1.544-2.316a21.939,21.939,0,0,0,3.134-5.7l-1.848-.4c-7.556,3.186-11.679,8.4-10.806,12.27.5,2.241,2.575,3.568,3.555,4.2,6.068,3.889,13.939.057,16.012-.952C2094.042,1376.662,2098.494,1373.6,2097.935,1371.81Z" transform="translate(-2067.206 -1347.609)" fill="url(#ad)"/><path d="M2166.137,1325.7l-2.437-.244a39.429,39.429,0,0,1-8.958,9.717,32.4,32.4,0,0,1-12.035,6.171c-7.328,1.848-10.118-.658-13.724.772-4.134,1.64-8.122,7.97-8,28.011a18.519,18.519,0,0,0,17.54-.9,22.181,22.181,0,0,1,1.225-6.828c.512-1.465,2.293-6.042,9.33-12.063,6.323-5.41,8.126-4.488,11.384-7.958C2163.044,1339.624,2165.922,1334.775,2166.137,1325.7Z" transform="translate(-2105.534 -1318.954)" fill="url(#ae)"/><path d="M2303.084,1303.761a16.986,16.986,0,0,1-.943-2.275c-.076-.808.231-.663.358-1.024s.04,1.137.868,1.3,1-2.43,1.214-3.9,1.389.129,1.389,1.765a20.7,20.7,0,0,1-.786,4.342S2303.64,1304.823,2303.084,1303.761Z" transform="translate(-2244.875 -1297.286)" fill="url(#af)"/><path d="M2174.512,1389.6l-.651-1.087-1.338-.164-.179,1.219a.8.8,0,0,1-.871.679l-.65-.066a3.092,3.092,0,0,0,2.834,2,2.888,2.888,0,0,0,3.08-1.966l-.848.083A1.441,1.441,0,0,1,2174.512,1389.6Z" transform="translate(-2143.872 -1367.334)" fill="url(#ag)"/><g transform="translate(27.322 15.989)"><path d="M2173.727,1380.407c-.124-.067-1.124-.189-1.262-.727a2.615,2.615,0,0,1,.551-1.763c.343-.6.429-.68.588-.781l.221-.13.026-.009a2.525,2.525,0,0,1,.714-.028c.307.073.608,1.338.473,3.113.011.068.022.136.033.206C2175.1,1380.468,2173.718,1380.471,2173.727,1380.407Z" transform="translate(-2172.431 -1374.559)" fill="url(#ah)"/><path d="M2175.746,1368.5a2.065,2.065,0,0,0,.365,1.242.911.911,0,0,1,.194.222.237.237,0,0,1,.03.066c.113.35-.448.746-.345.9.075.114.454-.028.5.07s-.276.276-.23.386c.034.083.228.012.345.142.06.065.041.114.1.309a1.783,1.783,0,0,0,.12.3c.183.328.719.458.826.331.03-.035.006-.066.038-.187a.951.951,0,0,1,.111-.239,2.5,2.5,0,0,1,.664-.5,1.786,1.786,0,0,0,.7-.76c.016-.037.025-.065.032-.085a2.049,2.049,0,0,0-.02-1.37c-.292-.621-.988-.345-1.539-.966-.635-.717-.226-1.668-.577-1.782C2176.666,1366.455,2175.765,1367.48,2175.746,1368.5Z" transform="translate(-2174.98 -1366.57)" fill="#26264f"/><path d="M2176.961,1384.679c.139-.182.372,0,.368.237s-.242.484-.467.431S2176.773,1384.924,2176.961,1384.679Z" transform="translate(-2175.749 -1380.442)" fill="url(#ai)"/></g><path d="M2130.379,1394.483c2.854-2.407-.189-8.848,3.989-12.609,1.776-1.6,2.911-.961,5.082-3.088,2.719-2.663,1.908-4.612,4.053-6.562,2.551-2.319,4.664-.441,9.392-2.187,4.171-1.541,6.683-4.537,9.135-7.463a32.682,32.682,0,0,0,3.234-4.617,20.061,20.061,0,0,1-4.8,9.418c-3.258,3.47-5.06,2.548-11.383,7.958-7.037,6.021-8.817,10.6-9.33,12.064a22.189,22.189,0,0,0-1.225,6.828,18.52,18.52,0,0,1-17.54.9c0-.59,0-1.167,0-1.733C2126.6,1395.946,2129.129,1395.536,2130.379,1394.483Z" transform="translate(-2105.535 -1343.955)" opacity="0.3" fill="url(#aj)" style="mix-blend-mode:multiply;isolation:isolate"/><path d="M2055.433,1658.074s-.669-.462-1.184.643a4.41,4.41,0,0,0,.126,2.83c.043.258,2.084.258,2.084.258s.54-.6,0-.772-.328-1.417-.2-1.674S2056.418,1658.369,2055.433,1658.074Z" transform="translate(-2054.041 -1574.738)" fill="url(#ak)"/><path d="M2112.638,1350.161s1.779-1.525,0-1.779-3.049-2.287-3.557-2.541-.509,2.287.508,2.541a4.036,4.036,0,0,1,1.864,1.562Z" transform="translate(-2096.122 -1334.621)" fill="url(#al)"/></g><g transform="translate(1826.426 638.079)"><g transform="translate(0 0)"><path d="M2570.448,674.123v44.925a2.63,2.63,0,0,0,2.689,2.645l80.685-1.672a2.282,2.282,0,0,0,2.066-2.4V678.393Z" transform="translate(-2570.448 -668.572)" fill="#fff"/><path d="M2653.822,654.792l-80.685-4.716a2.515,2.515,0,0,0-2.689,2.543v4.6l85.44,4.067v-4.02A2.388,2.388,0,0,0,2653.822,654.792Z" transform="translate(-2570.448 -650.072)" fill="url(#am)"/><path d="M2589.2,662.246a1.115,1.115,0,0,1-1.181,1.129,1.267,1.267,0,0,1-1.186-1.254,1.115,1.115,0,0,1,1.186-1.129A1.267,1.267,0,0,1,2589.2,662.246Z" transform="translate(-2583.055 -658.47)" fill="#fff"/></g><g transform="translate(11.651 13.999)"><path d="M2627.534,743.785l-6.6.079V710.729l6.6.251Z" transform="translate(-2620.934 -710.729)" fill="#d8dee8"/><path d="M2627.534,801.792l-6.6.079V786.139l6.6.078Z" transform="translate(-2620.934 -768.736)" fill="url(#an)"/><path d="M2666.991,744.839l-6.42.077V712.239l6.42.245Z" transform="translate(-2651.424 -711.891)" fill="#d8dee8"/><path d="M2666.991,827.9l-6.42.077v-7.757h6.42Z" transform="translate(-2651.424 -794.95)" fill="url(#ao)"/><path d="M2705.375,745.865l-6.247.075V713.708l6.247.238Z" transform="translate(-2681.082 -713.021)" fill="#d8dee8"/><path d="M2705.375,839.788l-6.247.075v-4.017l6.247-.036Z" transform="translate(-2681.082 -806.944)" fill="url(#ap)"/><path d="M2742.729,746.863l-6.082.073v-31.8l6.082.232Z" transform="translate(-2709.943 -714.12)" fill="#d8dee8"/><path d="M2742.729,769.821l-6.082.073v-24.91l6.082.166Z" transform="translate(-2709.943 -737.079)" fill="url(#aq)"/><path d="M2779.094,747.834l-5.922.071V716.529l5.922.226Z" transform="translate(-2738.038 -715.19)" fill="#d8dee8"/><path d="M2779.094,779.8l-5.922.071V758.082l5.922.135Z" transform="translate(-2738.038 -747.154)" fill="url(#ar)"/><path d="M2814.508,748.78l-5.769.069V717.884l5.769.22Z" transform="translate(-2765.398 -716.233)" fill="#d8dee8"/><path d="M2814.508,763.787l-5.769.069V737.393l5.769.178Z" transform="translate(-2765.398 -731.24)" fill="url(#as)"/><path d="M2849.009,749.7l-5.621.067V719.2l5.621.214Z" transform="translate(-2792.05 -717.248)" fill="#d8dee8"/><path d="M2849.009,789l-5.621.067V770.294l5.621.106Z" transform="translate(-2792.05 -756.548)" fill="url(#at)"/><path d="M2882.63,750.6l-5.479.066V720.49l5.479.209Z" transform="translate(-2818.021 -718.237)" fill="#d8dee8"/><path d="M2882.63,816.258l-5.479.066V805.847l5.479.03Z" transform="translate(-2818.021 -783.896)" fill="url(#au)"/></g></g><g transform="translate(1859.299 668.512)"><path d="M2869.22,1089.592c.695.7.977,1.454.725,1.9-.175.3-.56.384-.983.465a5.732,5.732,0,0,1-2.793-.31c-1.335-.377-2.12-.6-2.121-.92,0-.3.686-.533,1.288-.738a7.548,7.548,0,0,1,2.112-.393Z" transform="translate(-2829.163 -1018.593)" fill="url(#av)"/><path d="M2786.121,1040.315a1.339,1.339,0,0,1,.821.768c.169.622-.5,1.264-1.559,2.265-.8.751-1.875,1.766-2.25,1.51-.229-.156-.094-.72.032-1.245a7.021,7.021,0,0,1,1.321-2.68Z" transform="translate(-2766.827 -980.688)" fill="url(#aw)"/><path d="M2874.567,1082.9l1.5,1.658a.309.309,0,0,1-.144.506,2.3,2.3,0,0,1-1.2.047.581.581,0,0,1-.242-.148l-1.493-1.458Z" transform="translate(-2836.034 -1013.443)" fill="url(#ax)"/><path d="M2788.75,1035.976l.806,1.162a.337.337,0,0,1-.116.487,2.914,2.914,0,0,1-.4.184.607.607,0,0,1-.662-.165l-.875-.985Z" transform="translate(-2770.285 -977.35)" fill="url(#ay)"/><path d="M2819.22,920.825a28.2,28.2,0,0,0-2.251,6.8A30.487,30.487,0,0,0,2818,942.347a31.457,31.457,0,0,0,8.433,13.266,5.709,5.709,0,0,1-3.475,1.348A35.353,35.353,0,0,1,2811.7,944c-4.9-9.806-3.674-19.432-1.53-23.5a4.535,4.535,0,0,1,2.4-2.383C2815.459,917.08,2818.811,920.409,2819.22,920.825Z" transform="translate(-2786.273 -886.536)" fill="url(#az)"/><path d="M2810.169,920.5a4.535,4.535,0,0,1,2.4-2.383c2.891-1.034,6.242,2.3,6.651,2.711a28.236,28.236,0,0,0-2.226,6.685c-2.02.475-4.841,1.6-6.216,4.263-2.224,4.307.974,9.468,1.637,10.539,1.46,2.357,2.345,2.136,4.5,5.525,1.628,2.559,1.753,3.674,3.171,4.911a8.874,8.874,0,0,0,5.431,1.974c.33.335.637.633.913.891a5.709,5.709,0,0,1-3.475,1.348A35.353,35.353,0,0,1,2811.7,944C2806.795,934.194,2808.025,924.568,2810.169,920.5Z" transform="translate(-2786.273 -886.536)" opacity="0.3" fill="url(#az)" style="mix-blend-mode:multiply;isolation:isolate"/><path d="M2767.1,915.1a11.431,11.431,0,0,1-2,2.865c-2.592,2.7-5.016,2.447-7.761,4.673a11.828,11.828,0,0,0-3.669,5.234c-1.729,5.664,3.3,11.249,3.852,11.85a6.045,6.045,0,0,1-3.063,1.52c-7.2-6.582-10.723-14.558-8.326-19.741,1.308-2.827,4.4-4.883,6.69-6.4a29.835,29.835,0,0,1,9.629-4.16Z" transform="translate(-2737.891 -881.173)" fill="url(#bb)"/><path d="M2809.8,829.187c-.108,3.185.63,4.837-.4,7.436a10.184,10.184,0,0,1-2.909,3.95,12.4,12.4,0,0,0,11.157,6.69,24.973,24.973,0,0,0,9.026-7.761c1.995-2.829,4.185-5.936,3.605-9.9-.737-5.031-5.4-7.718-6.72-8.48-.87-.5-6.878-3.965-10.549-1.42C2810.056,821.752,2809.884,826.8,2809.8,829.187Z" transform="translate(-2784.889 -810.28)" fill="url(#bc)"/><path d="M2717.723,871.009a2.2,2.2,0,0,0-.675-1.1c-.244-.246-.294-.207-.453-.409-.4-.507-.3-1.031-.458-1.049-.134-.015-.369.362-.354.752.019.436.337.566.277.808-.084.34-.84.587-1.509.46-.776-.147-1.154-.772-1.458-.614-.221.115-.206.527-.2.563.034.772,1.065,1.582,2.072,1.688.579.061.8-.149,1.484.026.456.116.615.273.844.179C2717.663,872.16,2717.815,871.5,2717.723,871.009Z" transform="translate(-2712.888 -848.487)" fill="url(#bd)"/><path d="M2730.36,832.81c6.2.429,9.907-1.184,12.141-2.729,5.067-3.5,6.061-9.075,11.937-10.573,1.072-.273,2.938-.749,3.956.2,2.116,1.982-.379,9.245-4.774,13.71a17.747,17.747,0,0,1-10.24,5.213,18.3,18.3,0,0,1-13.62-3.922,1.171,1.171,0,0,1-.228-1.185A1.224,1.224,0,0,1,2730.36,832.81Z" transform="translate(-2725.635 -810.56)" fill="url(#be)"/><path d="M2825.664,863.812c1.747-1.655.92-2.68,3.07-6,2.19-3.385,3.766-3.448,4.774-5.73a8.133,8.133,0,0,0,.269-5.311,9.614,9.614,0,0,1,1.858,4.366c.58,3.96-1.611,7.067-3.6,9.9a24.975,24.975,0,0,1-9.027,7.761,12.562,12.562,0,0,1-6.968-2.041,12.318,12.318,0,0,1-2.582-2.276,11.51,11.51,0,0,0,3.139,1.18C2817.175,865.779,2822.463,866.844,2825.664,863.812Z" transform="translate(-2790.245 -831.808)" opacity="0.3" fill="url(#bf)" style="mix-blend-mode:multiply;isolation:isolate"/><path d="M2862.435,812.758l.506,1.707a2.738,2.738,0,0,0,.938,1.38l1.341,1.05s-4.09-.687-6.045-2.592l1.194-.377a.3.3,0,0,0,.21-.288v-1.255Z" transform="translate(-2825.414 -805.358)" fill="url(#bg)"/><g transform="translate(33.179 0)"><path d="M2859.44,801.024c-.195-.043-1.606.188-2.008-.491a3.719,3.719,0,0,1,.052-2.62c.229-.952.315-1.1.491-1.3l.25-.264.031-.023a3.592,3.592,0,0,1,.963-.321c.448-.022,1.358,1.582,1.879,4.054q.063.132.125.267C2861.332,800.563,2859.453,801.114,2859.44,801.024Z" transform="translate(-2857.067 -792.762)" fill="url(#bh)"/><path d="M2856.75,785.075a2.938,2.938,0,0,0,.99,1.548,1.291,1.291,0,0,1,.353.226.387.387,0,0,1,.067.078c.292.432-.315,1.194-.112,1.368.147.127.606-.217.7-.1s-.267.484-.161.617c.08.1.315-.074.527.056.106.065.1.14.258.381a2.5,2.5,0,0,0,.281.359c.379.374,1.161.339,1.256.123.027-.06-.019-.092-.022-.269a1.371,1.371,0,0,1,.056-.37,3.555,3.555,0,0,1,.707-.942,2.538,2.538,0,0,0,.65-1.312c.006-.056.008-.1.01-.128a2.9,2.9,0,0,0-.571-1.859c-.644-.731-1.483-.079-2.48-.707-1.15-.725-.969-2.183-1.492-2.2C2857.194,781.927,2856.374,783.68,2856.75,785.075Z" transform="translate(-2856.655 -781.944)" fill="#26264f"/><path d="M2863.274,807.83c.117-.3.507-.152.6.177a.621.621,0,0,1-.464.773C2863.079,808.8,2863.117,808.238,2863.274,807.83Z" transform="translate(-2861.656 -801.729)" fill="url(#bi)"/></g></g><g transform="translate(2006.066 766.979)"><path d="M3378.294,1232.042l.693-.808-.605-1.257a.714.714,0,0,0-.745-.4,14.246,14.246,0,0,0-9.791,6.133.714.714,0,0,0,.03.818,9.687,9.687,0,0,0,.749.854Z" transform="translate(-3363.374 -1224.736)" fill="url(#bj)"/><path d="M3408.662,1296.545l-1.646,2.866a5.523,5.523,0,0,1-.61,1.168,2.8,2.8,0,0,0,.982,1.115l2.972-2.84-1.592-2.282Z" transform="translate(-3393.123 -1276.252)" fill="url(#bk)"/><g transform="translate(1.253 6.477)"><path d="M3395.864,1302.69l.477-2.111a3.9,3.9,0,0,1,2.829-2.239c2.188-.476,2.264.72,2.264.72l-1.407.549a2.9,2.9,0,0,0-1.437,1.756,7.751,7.751,0,0,1-1.633,2.162Z" transform="translate(-3386.266 -1284.023)" fill="url(#bl)"/><path d="M3482.744,1707.1s1.515,3.81,1.116,5.5a17.026,17.026,0,0,0,2.679-.239,18.43,18.43,0,0,1-.781-2.6,25.48,25.48,0,0,1-.159-3.045Z" transform="translate(-3453.096 -1598.238)" fill="url(#bm)"/><path d="M3394.231,1746.927a1.194,1.194,0,0,1,.286.7,1.14,1.14,0,0,1-.086.469c-.258.68-.664.769-1.1,1.491-.267.44-.217.573-.462.772a1.605,1.605,0,0,1-1.052.281,18.717,18.717,0,0,1-2.434-.137q.816-1.051,1.737-2.131.4-.473.807-.923l1.6-.54Z" transform="translate(-3381.28 -1629.156)" fill="#26264f"/><path d="M3394.517,1713.366s-.913,4.767.249,6.1c.99,1.335-.479.383-.479.383l-1.753,1.531-1.053,1.818s.968-4.666.71-6.517-.388-3.1-.388-3.1Z" transform="translate(-3382.895 -1603.355)" fill="url(#bn)"/><path d="M3381.527,1484.294s-2.454,2.2-2.454,11.238,1.163,28.677,1.163,28.677l1.86,14.057a12.3,12.3,0,0,0,3.22-.319c1.163-5.3,3.057-14.255,2.153-21.747-.388-8.138,3.229-18.343,3.229-18.343s3.1,10.334,5.3,15.5,6.377,21.354,6.765,22.516a6.366,6.366,0,0,0,3.667-.446s-1.647-17.42-3.2-24.008-1.421-22.476-4-27C3393.411,1482.1,3381.527,1484.294,3381.527,1484.294Z" transform="translate(-3373.35 -1426.427)" fill="url(#bo)"/><path d="M3381.527,1484.294s-2.454,2.2-2.454,11.238,1.163,28.677,1.163,28.677l1.86,14.057a12.3,12.3,0,0,0,3.22-.319c1.163-5.3,3.057-14.255,2.153-21.747-.388-8.138,3.229-18.343,3.229-18.343s3.1,10.334,5.3,15.5,6.377,21.354,6.765,22.516a6.366,6.366,0,0,0,3.667-.446s-1.648-17.42-3.2-24.008-1.421-22.476-4-27C3393.411,1482.1,3381.527,1484.294,3381.527,1484.294Z" transform="translate(-3373.35 -1426.427)" fill="url(#bp)"/><path d="M3394.277,1500.862c.766,4.974,2.3,7.653,6.123,11.1,3.061,2.3.765,7.27,1.913,11.1.383,1.148,1.53,2.3,1.913,3.444,1.423,2.848.094,6.331.74,9.347a4.107,4.107,0,0,0,1.461-.418s-1.648-17.42-3.2-24.008-1.421-22.476-4-27c-5.813-2.325-17.7-.129-17.7-.129s-2.454,2.2-2.454,11.238c0,.734.008,1.538.022,2.395a9.306,9.306,0,0,0,10.973.256,1.518,1.518,0,0,1,.614-.278l.017-.048.013.045C3392.175,1497.635,3393.945,1499.535,3394.277,1500.862Z" transform="translate(-3373.35 -1426.427)" opacity="0.25" fill="url(#bq)" style="mix-blend-mode:multiply;isolation:isolate"/><g transform="translate(30.018 112.98)"><path d="M3484.694,1738.471s-.378,0-.346.488-.17,2.165,1.749,2.244a5.873,5.873,0,0,0,2.278-.136,15.7,15.7,0,0,0-.5-1.6l-.613-.787-1.651-.173Z" transform="translate(-3484.346 -1735.647)" fill="#26264f"/><path d="M3489.165,1730.741a6.127,6.127,0,0,0-.5-1.556c-.339-.762-.061-1.048-.384-1.742a2.071,2.071,0,0,0-.458-.693,1.981,1.981,0,0,0-1.355-.516,1.377,1.377,0,0,0-.637.15,1.482,1.482,0,0,0-.574.606,6.741,6.741,0,0,0-.462,1.371,3.479,3.479,0,0,0-.121.467,3.216,3.216,0,0,0-.05.419,8.964,8.964,0,0,1,2.846.378,1.6,1.6,0,0,1,.613,1.306c0,.5.252.739.5.724A.826.826,0,0,0,3489.165,1730.741Z" transform="translate(-3484.563 -1726.233)" fill="#444b8c"/></g><path d="M3391.955,1736.9c.432.007.75.351.989,1.18s1.387,1.562.048,1.387-2.312,1.722-2.79,2.423-1.762,1.325-1.73.639.6-1.006.758-1.707S3390.97,1736.887,3391.955,1736.9Z" transform="translate(-3380.579 -1621.46)" fill="#444b8c"/><path d="M3384.069,1353.261c-2.169-.064-7.687-.666-10.267,1.913-2.64,2.638.033,5.8-.443,10.151-.238,2.177-.237,3.694-.446,6.28-.021.263-.214,2.386-.32,3.222-.735,5.792-4.812,8.057-5.933,12.856-.434,1.857-.586,4.784,1.3,8.892a14.772,14.772,0,0,1,4.771,1.084c5.654,2.348,6.079,6.872,9.977,8.025,3.785,1.119,5.176-2.619,11.061-3.687,9.169-1.664,15.311,5.68,17.568,3.47,1.92-1.879-.246-9.422-5.422-13.447-6.183-4.809-12.516-1.372-15.4-5.856-1.8-2.793-1.066-6.814-.022-12.573a40.2,40.2,0,0,1,1.709-6.441,64.424,64.424,0,0,1,3.5-8.247c1-2.057-1.378-.905-2.9-2.71C3390.468,1353.425,3386.256,1353.325,3384.069,1353.261Z" transform="translate(-3363.589 -1326.275)" fill="url(#br)"/><path d="M3367.9,1321.471c-1.723.446-6.839-1.049-7.191-1.983-.8-2.129,1.141-3.138,5.053-5.662-1.031-.63-1.082-1.816-2.114-2.446-3.243,1.634-10.579,4.133-9.208,10.6,1.114,5.253,7.34,10.127,12.665,13.325C3368.172,1332.981,3370.034,1320.92,3367.9,1321.471Z" transform="translate(-3354.276 -1294.14)" fill="url(#bs)"/><path d="M3416.559,1352.433l1.554-.478s.407,2.1,5.4,2.367a7.468,7.468,0,0,0,4.568-1.555l1.062.775a8.167,8.167,0,0,1-6.036,2.837A7.436,7.436,0,0,1,3416.559,1352.433Z" transform="translate(-3402.185 -1325.351)" fill="url(#bt)"/><path d="M3457.174,1473.174a1.5,1.5,0,0,1-1.095.144c-.663-.144-1.47-.691-2.19-.922s-.778.835.288,1.383a5.949,5.949,0,0,1,2.392,2.478c.4.835,1.412-1.009,1.412-1.009Z" transform="translate(-3430.494 -1417.972)" fill="url(#bu)"/><path d="M3464.584,1360.6a14.609,14.609,0,0,1,6.994,4.072,15.248,15.248,0,0,1,3.8,11.64c-.7,7.213-6.584,11.987-10.9,13.714l-.954-3.065c1.117-.684,5.413-3.482,6.1-8.229a5.661,5.661,0,0,0-.461-3.918c-1.487-2.417-4.657-1.6-6.224-3.342C3461.8,1370.211,3461.337,1367.42,3464.584,1360.6Z" transform="translate(-3437.205 -1332)" fill="url(#bv)"/><path d="M3386.747,1252.915s-5.135-10.226-4.782-16.217c-6.079-.441-10.363,6.151-10.363,6.151s9.858,7.6,12.5,11.74C3385.513,1254.765,3386.747,1252.915,3386.747,1252.915Z" transform="translate(-3367.603 -1236.677)" fill="url(#bw)"/><g transform="translate(15.244 14.128)"><path d="M3421.819,1312.261a5.912,5.912,0,0,1,2.243-3.65c1.483-1.179,1.785-1.3,2.294-1.394l.7-.105.076,0a6.934,6.934,0,0,1,1.849.657c.709.5.187,4.029-1.962,8.419l-.253,1.115c1.873.329,2.337.667,2.352.937.032.584-2.019,1.33-3.919,1.379-2.383.061-4.914-.965-4.865-1.73.02-.31.469-.692,2.2-1.067l.811-1.141C3423.094,1315.385,3421.623,1313.774,3421.819,1312.261Z" transform="translate(-3420.328 -1304.984)" fill="url(#bx)"/><path d="M3436.408,1298.645a3.579,3.579,0,0,0-.786,3.229c.146.606.336.67.309,1.067-.076,1.115-2.107,1.6-1.994,2.162.081.4,1.137.254,1.32.758.2.552-.961,1.027-1.461,2.415-.009.025-.023.066-.041.118a3.784,3.784,0,0,0,.1,2.184c3.373,10.055,12.247,15.885,12.247,15.885a32.62,32.62,0,0,0,16.9,5.7c4.634.176,13.462.511,16.089-4.888,2.2-4.514-.7-11.474-5.092-13.848-3.736-2.022-6.2.555-9.775-1.629-4.6-2.813-2.924-8.55-6.72-10.183-4.32-1.858-8.987,4.5-12.868,2.277-2.579-1.477-2.217-5.456-5.2-5.925A3.611,3.611,0,0,0,3436.408,1298.645Z" transform="translate(-3430.569 -1297.894)" fill="url(#by)"/><path d="M3433.9,1319.459c.6-.358,1.055.412.773,1.085a1.331,1.331,0,0,1-1.8.693C3432.293,1320.836,3433.094,1319.941,3433.9,1319.459Z" transform="translate(-3429.824 -1314.412)" fill="url(#bz)"/></g></g><path d="M3426.93,1307.59a2.419,2.419,0,0,1,1.486-.55c.372-.007-.668,2-2.643,1.674Z" transform="translate(-3408.02 -1284.324)" fill="url(#ca)"/><path d="M3349.846,1219.351a1,1,0,0,0,.874-.514c5.026-9.067,12.3-8.209,12.371-8.2a1,1,0,1,0,.264-1.979c-.354-.048-8.7-1.035-14.381,9.21a1,1,0,0,0,.872,1.482Z" transform="translate(-3348.848 -1208.612)" fill="#ebeff2" style="mix-blend-mode:multiply;isolation:isolate"/></g><g transform="translate(1747.107 663.524)"><path d="M2324.934,1093.522c-.422.673-.357.989-.284,1.132.213.42.864.112,2.44.468a2.7,2.7,0,0,0,.994.069c.392-.05.863-.206.854-.311,0-.038-.07-.06-.094-.068-.433-.141-3.117-1.281-3.117-1.281Z" transform="translate(-2302.016 -1016.627)" fill="url(#cb)"/><path d="M2325.843,1086.664l.082,1.613s.631.553.871-.013a8.246,8.246,0,0,0,.288-1.542Z" transform="translate(-2302.974 -1011.352)" fill="url(#cc)"/><path d="M2354.3,1093.154l-.86,1.757-.956-.257.4-1.668Z" transform="translate(-2323.47 -1016.216)" fill="url(#cd)"/><path d="M2351.91,1099.539c-.412-.608-.838-.6-.882-.994a.79.79,0,0,1,.481-.77c.413-.156.855.2.955.282.678.549.4,1.269,1.055,1.661a1.846,1.846,0,0,1,.552.411c.088.1.307.355.234.505-.085.174-.517.123-.928.074a1.807,1.807,0,0,1-.962-.261C2352.108,1100.208,2352.229,1100.009,2351.91,1099.539Z" transform="translate(-2322.344 -1019.869)" fill="url(#ce)"/><path d="M2316.441,919.849a52.585,52.585,0,0,0,.326,9.546,43.058,43.058,0,0,1,.685,5.279c.052,4.219-1.346,4.706-1.986,9.417a28.915,28.915,0,0,0,.753,11.1,29.939,29.939,0,0,0,1.081,3.391c.444.458,1.19.358,1.975.265.677-4.715,1.4-9.145,2.079-13.859q2.262-10.579,4.524-21.157Z" transform="translate(-2294.808 -883.035)" fill="url(#cf)"/><path d="M2323.219,958.845c.677-4.715,1.4-9.145,2.079-13.859q2.262-10.579,4.524-21.157l-9.437-3.98c-.014.245-.021.483-.031.724,4.21,4.316,4.839,7.51,4.619,9.635-.268,2.577-1.786,3.74-1.82,7.507-.025,2.693.741,3.231.54,5.646-.258,3.11-1.738,4.748-2.537,6.492-.772,1.685-1.2,4.127-.276,7.727.13.375.253.71.365,1C2321.688,959.037,2322.434,958.938,2323.219,958.845Z" transform="translate(-2298.752 -883.035)" opacity="0.3" fill="url(#cg)" style="mix-blend-mode:multiply;isolation:isolate"/><path d="M2344.016,923.893a55.664,55.664,0,0,1,3.658,9.49,13.376,13.376,0,0,1,.589,4.133,12.752,12.752,0,0,1-1.014,4.624,24.568,24.568,0,0,0-1.623,4.575,26.023,26.023,0,0,0,.374,13.42l1.671.781a95.456,95.456,0,0,0,5.3-14.843,51.676,51.676,0,0,0,1.909-9.582,40.847,40.847,0,0,0-2.151-16.638Z" transform="translate(-2316.953 -883.039)" fill="url(#ch)"/><path d="M2257.763,798.789c3.6.931,6.331,1.815,7.414,3.832,1.145,2.13-1.067,3.479-2,7.868-1.431,6.719,2.263,9.579.573,16.324a17.724,17.724,0,0,1-2.128,5,18.664,18.664,0,0,1-5.867,2.7c-3.813.989-5.579.084-10.589-.044-8.194-.21-9.611,2.054-13.174.294-3.6-1.779-5.968-5.974-5.038-7.606.557-.977,2-.219,4.24-1.29,2.891-1.38,2.61-3.613,5-5.311,3.438-2.438,6.3.55,9.247-1.575,2.978-2.149,3.789-7.907,2.893-11.449-.585-2.314-.4-4.762-.779-7.118a1.488,1.488,0,0,1,.1-.842c.565-1.289,3.015-1.342,4.864-1.366A21.032,21.032,0,0,1,2257.763,798.789Z" transform="translate(-2226.749 -789.471)" fill="url(#ci)"/><path d="M2233.938,898.555c1.192-.659.757-2.843,2.523-3.836,1.639-.923,2.736.552,5.082.041,3.008-.656,3.089-3.494,5.975-4.163,2.076-.48,2.579.861,5.49,1.158a11.634,11.634,0,0,0,9.495-3.474,10.429,10.429,0,0,0,2.245-3.845c.57,2.579,1.214,5.08.306,8.7a17.75,17.75,0,0,1-2.127,5,18.672,18.672,0,0,1-5.868,2.7c-3.813.989-5.579.084-10.588-.044-8.194-.21-9.611,2.054-13.175.294a10.611,10.611,0,0,1-4.848-5.07C2231.478,898.636,2233.074,899.033,2233.938,898.555Z" transform="translate(-2228.057 -855.795)" opacity="0.3" fill="url(#cj)" style="mix-blend-mode:multiply;isolation:isolate"/><path d="M2355.8,774.058a9.931,9.931,0,0,1,.8,3.306c-.046,1.332-1.535,1.111-1.535,1.111l-.013.842a1.821,1.821,0,0,0,1.053,1.679l.573.266s-3.925.506-5.907-1.156l.612-.009a1.819,1.819,0,0,0,1.762-1.486l.066-.355S2352.893,774.065,2355.8,774.058Z" transform="translate(-2322.155 -770.89)" fill="url(#ck)"/><g transform="translate(37.581 14.432)"><path d="M2389.594,833.151l5.868-10.121a.328.328,0,0,1,.359-.155l8.209,1.919a.328.328,0,0,1,.2.494l-6.809,10.887a.328.328,0,0,1-.389.135l-7.215-2.606Z" transform="translate(-2389.594 -822.867)" fill="url(#cl)"/><path d="M2395.849,834.7l4.75-8.195a.267.267,0,0,1,.291-.125l6.647,1.553a.266.266,0,0,1,.165.4l-5.513,8.815a.266.266,0,0,1-.316.109l-5.842-2.11Z" transform="translate(-2394.406 -825.561)" fill="url(#cm)"/><path d="M2422.4,824.759l.377-.657a.24.24,0,0,1,.261-.115l3.419.769a.24.24,0,0,1,.155.356l-.42.715a.239.239,0,0,1-.264.112l-3.377-.826A.24.24,0,0,1,2422.4,824.759Z" transform="translate(-2414.807 -823.724)" fill="url(#cn)"/><path d="M2421.444,833.909l-.016,0-6.02-1.421a.139.139,0,0,1-.1-.167.14.14,0,0,1,.167-.1l6.02,1.421a.138.138,0,0,1-.048.272Z" transform="translate(-2409.369 -830.055)" fill="#fff"/><path d="M2419.931,836.248l-.017,0-5.982-1.477a.139.139,0,0,1,.066-.269l5.982,1.477a.139.139,0,0,1-.049.272Z" transform="translate(-2408.234 -831.811)" fill="#fff"/><path d="M2415.356,840.992l-.021,0-3.252-.9a.139.139,0,1,1,.073-.267l3.253.9a.139.139,0,0,1-.053.271Z" transform="translate(-2406.814 -835.906)" fill="#fff"/></g><path d="M2430.745,858.071s1.452-.78,1.678-1.414a9.437,9.437,0,0,0,.314-1.861l-.97,1.64a.932.932,0,0,1-.476-.734c-.1-.585-.437-.094-.37.347A12.711,12.711,0,0,1,2430.745,858.071Z" transform="translate(-2383.667 -832.996)" fill="url(#co)"/><path d="M2379.133,814.238a10.151,10.151,0,0,1,2.5,2.725c2.348,3.8.9,7.432,3.005,8.99.6.446,1.7.872,3.809.364l.737.5s.447,4.946-5.458,4.512-8.072-8.057-8.072-8.057Z" transform="translate(-2341.286 -801.797)" fill="url(#cp)"/><path d="M2271.172,765.327c-.2-.033-.342-.3-.484-.236s-.165.436-.062.706a.939.939,0,0,0,.329.418,2.458,2.458,0,0,0-.512.942,3.392,3.392,0,0,0,.36,2.225c.787,2.113-.966,5.2-2.731,6.692-1.434,1.21-2.009.628-2.889,1.64-1.714,1.97.22,4.452-.81,7.209-1.567,4.193-8.452,4.908-8.737,4.934-.112.01-.188.016-.3.025-3.081.231-7.751.581-10.79-2.184a9.5,9.5,0,0,1-2.7-8.258,9.279,9.279,0,0,1,3.1-5.728,8.469,8.469,0,0,1,5.731-2.127c1.568.116,1.838.694,3.065.452a6.446,6.446,0,0,0,3.517-2.612c1.294-1.606.855-2.008,1.755-2.776,1.761-1.505,3.562-.059,5.418-1.362,1.83-1.285.958-3.305,2.712-4.4,1.81-1.132,5.033-.417,5.6,1.157C2273.231,763.391,2271.779,765.429,2271.172,765.327Z" transform="translate(-2238.281 -760.329)" fill="url(#cq)"/></g></g></svg>