<svg xmlns="http://www.w3.org/2000/svg" width="108" height="108" viewBox="0 0 108 108"><g transform="translate(-387 -2447)"><rect width="108" height="108" transform="translate(387 2447)" opacity="0"/><g transform="translate(2753.371 4508.322)"><path d="M-2212.578-1833.65a4.18,4.18,0,0,0-4.137-4.242c-1.337.044-2.674.011-4.01.02a9.524,9.524,0,0,0-4.943,1.138,9.075,9.075,0,0,1-1.352,3.949c.1.409.186.775.276,1.138.274,1.1.58,2.2.814,3.317a7.5,7.5,0,0,1,.1,3.315,5.511,5.511,0,0,1-4.159,4.356,5.661,5.661,0,0,1-6.964-4.409,8.46,8.46,0,0,1,.205-3.792c.052-.232.118-.462.186-.724a6.123,6.123,0,0,1-2.278-1.313c-.175.8-.363,1.615-.531,2.431a8.744,8.744,0,0,0,.875,6.242,7.8,7.8,0,0,0,5.855,4.142,8.11,8.11,0,0,0,9.257-6.49,11.721,11.721,0,0,0-.249-4.932c-.267-1.135-.554-2.267-.827-3.4a3.231,3.231,0,0,1-.09-.56c-.052-.954.149-1.308,1.072-1.545a11.353,11.353,0,0,1,2.328-.368c1.444-.059,2.893-.035,4.339-.026a1.6,1.6,0,0,1,1.729,1.492,4.387,4.387,0,0,1,.022.654v28.244a5.613,5.613,0,0,1-.009.573,1.713,1.713,0,0,1-1.711,1.643c-.135.009-.271,0-.409,0H-2247.6a5.5,5.5,0,0,1-.061-.569c-.007-1.092.035-2.186-.013-3.275-.062-1.411-.156-2.825-.3-4.232a5.017,5.017,0,0,0-.93-2.494,3.265,3.265,0,0,0-2.632-1.4,13.186,13.186,0,0,0-3.529.56c-1.057.241-2.1.549-3.175.707a5.742,5.742,0,0,1-6.9-5.754,5.655,5.655,0,0,1,4.21-5.325,6.535,6.535,0,0,1,3.157-.081c1.409.284,2.8.659,4.2.969a5.81,5.81,0,0,0,2.661.138,3.378,3.378,0,0,0,2.256-1.733,7.305,7.305,0,0,0,.847-3.291c.1-2.232.144-4.468.212-6.8h5.822a5.176,5.176,0,0,1-.333-2.516c-.72,0-1.372,0-2.024,0q-3.055-.026-6.113-.052v2.575c.011.177.026.309.026.438-.007,1.938.009,3.877-.042,5.813a8.61,8.61,0,0,1-.326,2c-.291,1.074-.685,1.313-1.8,1.087-1.3-.263-2.584-.619-3.885-.884a15.189,15.189,0,0,0-2.737-.4,8.349,8.349,0,0,0-8.441,6.533,8.164,8.164,0,0,0,6.233,9.631,9.331,9.331,0,0,0,3.652.042c1.678-.322,3.337-.742,5-1.118a3.554,3.554,0,0,1,.4-.074c.89-.081,1.271.131,1.521,1a7.94,7.94,0,0,1,.374,2c.048,2.127.018,4.255.018,6.4v2.558h34.392c.061-.046.118-.12.188-.138a4.2,4.2,0,0,0,3.092-4.1Q-2212.616-1819.115-2212.578-1833.65Z" transform="translate(-63.076 -165.133)" fill="#926cdc"/><g transform="translate(-2348.37 -2020.494)"><path d="M-2313.323-1900.144v2.575c-.245-.015-.457-.037-.667-.039-1.009,0-2.02.02-3.028-.006-1.2-.031-2.4-.063-3.591-.171a7.2,7.2,0,0,1-2.437-.617,3.533,3.533,0,0,1-2.137-2.6,6.037,6.037,0,0,1,.179-2.5c.3-1.379.683-2.739.961-4.12a6.549,6.549,0,0,0-.245-3.77,5.647,5.647,0,0,0-7.211-3.354,5.711,5.711,0,0,0-3.7,6.459c.217,1.308.549,2.6.86,3.89a10.234,10.234,0,0,1,.385,3.144,3.174,3.174,0,0,1-.816,1.914,4.415,4.415,0,0,1-2.166,1.241,14.529,14.529,0,0,1-3.549.468c-1.254.052-2.512.006-3.765.026a1.485,1.485,0,0,0-1.569,1.267,4.359,4.359,0,0,0-.083.971q-.006,14.037,0,28.078a5.5,5.5,0,0,0,.017.735,1.7,1.7,0,0,0,1.628,1.549c.217.017.438.006.656.006.571,0,1.144-.011,1.718,0a1.165,1.165,0,0,1,1.109.818,1.138,1.138,0,0,1-.3,1.271,4.459,4.459,0,0,1-.427.359h-3.6a2.7,2.7,0,0,0-.35-.166,4.119,4.119,0,0,1-2.917-3.912q0-14.7,0-29.393a4.08,4.08,0,0,1,3.958-4.07c.3.006.6,0,.9-.006,1.444-.037,2.89-.044,4.332-.134a7.959,7.959,0,0,0,1.908-.4,1.039,1.039,0,0,0,.854-1.289,11.4,11.4,0,0,0-.278-1.6c-.313-1.431-.731-2.846-.952-4.291a8.264,8.264,0,0,1,5.993-9.493,8.2,8.2,0,0,1,9.979,5.914,9,9,0,0,1,.074,4.282c-.3,1.378-.659,2.744-.963,4.122a10.154,10.154,0,0,0-.142,1.3.923.923,0,0,0,.676,1,6.52,6.52,0,0,0,2.382.479Q-2316.485-1900.169-2313.323-1900.144Z" transform="translate(2348.37 1917.566)" fill="#555"/></g><path d="M-2273.75-1677.78v2.558h-23.258c-.123-.133-.24-.274-.37-.4a1.145,1.145,0,0,1-.225-1.293,1.1,1.1,0,0,1,1.065-.755l.656,0q10.64,0,21.282-.007C-2274.312-1677.682-2274-1677.577-2273.75-1677.78Z" transform="translate(-39.579 -290.251)" fill="#555"/><path d="M-2161.764-2036.959q0,11.381,0,22.761a2.164,2.164,0,0,1-1.322,2.232,2.929,2.929,0,0,1-1.033.179c-.845.026-1.691,0-2.538.011-1.444.028-2.89.042-4.33.131a7.951,7.951,0,0,0-1.906.4c-.7.228-.871.495-.825,1.219a11.355,11.355,0,0,0,.276,1.683c.221.978.481,1.949.711,2.925a11.886,11.886,0,0,1,.328,3.157c0,.107.011.215.022.389a9.075,9.075,0,0,1-1.352,3.949,8.343,8.343,0,0,1-9.537,3.2,6.125,6.125,0,0,1-2.278-1.313,8.644,8.644,0,0,1-2.943-4.472,5.179,5.179,0,0,1-.333-2.516c.1-.65.173-1.291.311-1.917.3-1.352.637-2.693.941-4.043a10.213,10.213,0,0,0,.135-1.129.977.977,0,0,0-.75-1.107,6.648,6.648,0,0,0-2.225-.448c-2.127-.048-4.253-.072-6.38-.12a4.012,4.012,0,0,1-1.205-.147,1.988,1.988,0,0,1-1.381-1.941c-.015-2.262.062-4.525.094-6.787a9.886,9.886,0,0,1,.368-2.494,4.89,4.89,0,0,1,.359-.993,3.578,3.578,0,0,1,4.153-2c1.361.241,2.7.606,4.045.939a10.613,10.613,0,0,0,2.91.311,5.787,5.787,0,0,0,5.431-4.689,5.7,5.7,0,0,0-5.569-6.649,15.09,15.09,0,0,0-3.774.586,27.6,27.6,0,0,1-2.689.639,6.54,6.54,0,0,1-2.262-.024,3.587,3.587,0,0,1-2.6-2.873,14.874,14.874,0,0,1-.464-3.47c-.062-1.254-.04-2.512-.018-3.766a4.132,4.132,0,0,1,3.159-4.063,4.462,4.462,0,0,1,.884-.112q14.778-.01,29.559,0a4.076,4.076,0,0,1,4.008,3.857,20.582,20.582,0,0,1,.007,2.293,1.71,1.71,0,0,1-.193.7,1.255,1.255,0,0,1-1.227.643,1.225,1.225,0,0,1-1.024-1.114c-.033-.571-.007-1.146-.024-1.718a4.82,4.82,0,0,0-.1-.888,1.577,1.577,0,0,0-1.473-1.309,5.952,5.952,0,0,0-.654-.011q-14.122,0-28.246,0a3.982,3.982,0,0,0-1.044.127,1.35,1.35,0,0,0-1.072,1.37c-.009,1.774,0,3.549.046,5.321a6.559,6.559,0,0,0,.3,1.516c.282,1.042.755,1.345,1.807,1.131.8-.162,1.582-.383,2.372-.582a17.279,17.279,0,0,1,5.15-.711,7.851,7.851,0,0,1,4.516,1.672,7.945,7.945,0,0,1,3.14,5.443,7.759,7.759,0,0,1-1.709,6.039,8.414,8.414,0,0,1-5,3.017,8.691,8.691,0,0,1-3.564-.031c-1.407-.3-2.8-.65-4.2-.974a7.646,7.646,0,0,0-.958-.188c-.805-.083-1.254.177-1.416.792a8.948,8.948,0,0,0-.435,1.978c-.057,2.181-.022,4.365-.022,6.623a5.669,5.669,0,0,0,.587.061c1.556.009,3.111-.026,4.665.024a12.976,12.976,0,0,1,3.551.462,6.425,6.425,0,0,1,1.486.643,3.412,3.412,0,0,1,1.58,3.505c-.16,1.494-.685,2.906-.971,4.369a12.975,12.975,0,0,0-.361,2.494,5.859,5.859,0,0,0,4.766,5.888,5.736,5.736,0,0,0,6.52-4.551,9.8,9.8,0,0,0-.254-3.8c-.236-1.14-.6-2.258-.805-3.4a8.319,8.319,0,0,1-.094-2.352,3,3,0,0,1,1.611-2.243,7.859,7.859,0,0,1,3.194-.9c2.067-.229,4.139-.114,6.211-.142.267,0,.534,0,.877,0v-.954q0-10.683,0-21.37c0-.273-.011-.547.011-.818a1.13,1.13,0,0,1,1.142-1.14,1.225,1.225,0,0,1,1.3,1.011A2.379,2.379,0,0,1-2161.764-2036.959Z" transform="translate(-116.367 0)" fill="#91ddea"/><path d="M-2306.256-2031.92c0-.834-.021-1.542,0-2.248a4.326,4.326,0,0,1,2.075-3.762,4.094,4.094,0,0,1,4.337-.131,4.046,4.046,0,0,1,2.242,3.634c.02.627,0,1.255.012,1.882,0,.184.025.368.044.625.713,0,1.389-.01,2.064,0a4.749,4.749,0,0,1,2.972.962,4.266,4.266,0,0,1,1.467,4.61,4.207,4.207,0,0,1-3.8,3.079c-.87.017-1.74,0-2.653,0a4.738,4.738,0,0,0-.1.6c-.013.682-.009,1.364-.014,2.046a4.337,4.337,0,0,1-4.092,4.094,4.4,4.4,0,0,1-4.564-4.416c-.017-.734,0-1.468,0-2.253-.257-.02-.466-.048-.676-.051-.627-.01-1.255.006-1.882-.018a4.267,4.267,0,0,1-4.042-3.5,4.294,4.294,0,0,1,3.589-5.04c.514-.043,1.029-.09,1.544-.111C-2307.265-2031.934-2306.807-2031.92-2306.256-2031.92Zm9.333,6.2v-.007c.627,0,1.256.03,1.882-.007a1.8,1.8,0,0,0,1.7-1.847,1.8,1.8,0,0,0-1.761-1.779c-.245-.011-.491-.007-.736-.007-.9,0-1.8.01-2.7,0a1.348,1.348,0,0,1-1.513-1.506c-.006-.491,0-.982,0-1.473,0-.682.028-1.366-.012-2.045a1.845,1.845,0,0,0-1.85-1.7,1.809,1.809,0,0,0-1.784,1.751c.021.572,0,1.145,0,1.718s.015,1.146,0,1.719a1.4,1.4,0,0,1-1.517,1.537c-.191.009-.382,0-.573,0-.955,0-1.91-.013-2.864.009a1.715,1.715,0,0,0-1.734,1.431,1.8,1.8,0,0,0,1.17,2.089,2.5,2.5,0,0,0,.8.111c1.091.012,2.182,0,3.273.009a1.329,1.329,0,0,1,1.435,1.265,4.78,4.78,0,0,1,.015.654c0,1.036-.017,2.074.017,3.109a1.752,1.752,0,0,0,1.762,1.68,1.813,1.813,0,0,0,1.863-1.855c.021-1.145,0-2.292.009-3.437a1.271,1.271,0,0,1,1.41-1.417C-2298.068-2025.728-2297.5-2025.719-2296.922-2025.719Z" transform="translate(-27.678 -8.361)" fill="#926cdc"/><path d="M-2114.249-1717.375a3.822,3.822,0,0,1-2.893-1.263,1.243,1.243,0,0,1-.427-1.242,1.245,1.245,0,0,1,1.992-.705,1.693,1.693,0,0,1,.239.222,1.51,1.51,0,0,0,2.3,0,1.379,1.379,0,0,1,1.07-.483,1.207,1.207,0,0,1,1.029,1.76,2.094,2.094,0,0,1-.335.454A3.915,3.915,0,0,1-2114.249-1717.375Z" transform="translate(-180.271 -256.6)" fill="#926cdc"/><path d="M-2142.711-1725.6c0,.217.018.436,0,.651a1.361,1.361,0,0,1-1.261,1.266,1.224,1.224,0,0,1-1.215-1.1,7.187,7.187,0,0,1,.052-1.927,1.051,1.051,0,0,1,1.191-.873,1.072,1.072,0,0,1,1.125.86,8.311,8.311,0,0,1,.156,1.116Z" transform="translate(-158.694 -251.343)" fill="#926cdc"/><path d="M-2070.046-1725.635c0-.272-.017-.546,0-.817a1.114,1.114,0,0,1,1.142-1.134,1.185,1.185,0,0,1,1.286,1,8.472,8.472,0,0,1,.005,1.794,1.293,1.293,0,0,1-1.326,1.1,1.226,1.226,0,0,1-1.109-1.207c-.018-.244,0-.49,0-.735Z" transform="translate(-217.423 -251.341)" fill="#926cdc"/></g></g></svg>