<svg xmlns="http://www.w3.org/2000/svg" width="604.905" height="593.372" viewBox="0 0 604.905 593.372"><g transform="translate(0.5 0.009)"><g transform="translate(10.365)"><path d="M108.821,327.481c-.069-2.834-.171-5.639-.2-8.425l.415.415c-6.718.078-13.434.241-20.15.248l-20.152.1.76-.76-.081,17.029-.679-.677c3.32.027,6.632.012,9.963.083l10.013.17,20.326.424Zm-19.76,9.028-10.137.172c-3.387.071-6.792.056-10.189.083l-.674.006,0-.684-.081-17.029,0-.764.763,0,20.152.1c6.716.007,13.433.17,20.15.248l.42,0,0,.411c-.03,2.89-.132,5.763-.2,8.6l-.216,8.425Z" transform="translate(-45.49 80.084)" fill="#ebebeb"/><path d="M93.614,342.007c-.069-2.836-.172-5.639-.2-8.425l.415.414c-6.716.078-13.434.242-20.15.25l-20.15.1.76-.76-.083,17.029-.677-.678c3.32.027,6.632.012,9.961.084l10.013.17,20.326.424Zm-19.758,9.028-10.139.17c-3.387.072-6.792.056-10.187.084l-.676,0,0-.683-.083-17.029,0-.764.764,0,20.15.1c6.716.007,13.434.172,20.15.248l.42.006,0,.411c-.028,2.889-.13,5.763-.2,8.6l-.216,8.425Z" transform="translate(-52.765 87.033)" fill="#ebebeb"/><path d="M124.027,342.007c-.068-2.836-.17-5.639-.2-8.425l.414.414c-6.716.078-13.433.242-20.15.25l-20.15.1.76-.76-.081,17.029-.679-.678c3.32.027,6.632.012,9.963.084l10.013.17,20.326.424Zm-19.758,9.028-10.137.17c-3.387.072-6.792.056-10.189.084l-.674,0,0-.683-.081-17.029,0-.764.763,0,20.15.1c6.718.007,13.434.172,20.15.248l.42.006,0,.411c-.03,2.889-.132,5.763-.2,8.6l-.216,8.425Z" transform="translate(-38.216 87.033)" fill="#ebebeb"/><path d="M444.816,342.007c-.068-2.836-.17-5.639-.2-8.425l.414.414c-6.716.078-13.433.242-20.15.25l-20.15.1.76-.76-.081,17.029-.679-.678c3.32.027,6.632.012,9.961.084l10.013.17,20.328.424Zm-19.758,9.028-10.137.17c-3.387.072-6.793.056-10.189.084l-.676,0,0-.683-.081-17.029,0-.764.764,0,20.15.1c6.718.007,13.434.172,20.15.248l.42.006,0,.411c-.028,2.889-.13,5.763-.2,8.6l-.216,8.425Z" transform="translate(115.242 87.033)" fill="#ebebeb"/><path d="M444.816,58.013c-.068-2.836-.17-5.639-.2-8.425l.414.415c-6.716.078-13.433.241-20.15.248l-20.15.1.76-.76-.081,17.029-.679-.679c3.32.028,6.632.013,9.961.084l10.013.17,20.328.424Zm-19.758,9.028-10.137.17c-3.387.072-6.793.058-10.189.084l-.676.006,0-.684-.081-17.029,0-.764.764,0,20.15.1c6.718.007,13.434.17,20.15.248l.42,0,0,.411c-.028,2.89-.13,5.763-.2,8.6l-.216,8.425Z" transform="translate(115.242 -48.823)" fill="#ebebeb"/><path d="M460.023,72.539c-.068-2.836-.17-5.639-.2-8.427l.415.415c-6.716.078-13.434.242-20.15.25l-20.15.095.76-.76-.081,17.031-.679-.679c3.32.027,6.632.012,9.961.084l10.013.17,20.326.424Zm-19.758,9.028-10.137.17c-3.389.071-6.793.056-10.189.083l-.676.006,0-.683-.081-17.031,0-.763.764,0,20.15.1c6.716.007,13.434.171,20.15.248l.42.006,0,.41c-.028,2.89-.13,5.764-.2,8.606l-.216,8.425Z" transform="translate(122.516 -41.874)" fill="#ebebeb"/><path d="M93.614,58.024c-.069-2.834-.172-5.637-.2-8.425l.415.415c-6.716.078-13.434.242-20.15.25l-20.15.095.76-.76L54.206,66.63l-.677-.679c3.32.027,6.632.012,9.961.084l10.013.17,20.326.424Zm-19.758,9.03-10.139.17c-3.387.071-6.792.056-10.187.084l-.676,0,0-.683L52.768,49.6l0-.763.764,0,20.15.1c6.716.007,13.434.171,20.15.248l.42.006,0,.409c-.028,2.89-.13,5.764-.2,8.606L93.83,66.63Z" transform="translate(-52.765 -48.817)" fill="#ebebeb"/><path d="M219.158,178.349c.068,2.836.17,5.639.2,8.425l-.414-.415c6.716-.077,13.433-.241,20.15-.248l20.15-.1-.76.76.081-17.029.679.679c-3.32-.027-6.632-.012-9.963-.084l-10.013-.17-20.325-.424Zm19.759-9.028,10.137-.17c3.387-.072,6.793-.058,10.189-.084l.676,0,0,.683L260,186.774l0,.764-.764,0-20.15-.1c-6.718-.007-13.434-.171-20.15-.25l-.42,0,0-.411c.03-2.889.132-5.763.2-8.6l.217-8.425Z" transform="translate(26.529 8.697)" fill="#ebebeb"/><path d="M234.363,163.825c.07,2.836.171,5.639.2,8.425l-.415-.415c6.718-.078,13.434-.241,20.152-.248l20.15-.1-.76.76.081-17.029.679.679c-3.32-.028-6.632-.013-9.963-.084l-10.013-.17-20.326-.424Zm19.76-9.028,10.137-.172c3.387-.071,6.792-.056,10.189-.083l.676-.006,0,.685.081,17.029,0,.764-.764,0-20.15-.1c-6.718-.007-13.434-.17-20.152-.248l-.418,0,0-.411c.03-2.89.132-5.763.2-8.6l.216-8.425Z" transform="translate(33.804 1.748)" fill="#ebebeb"/></g><g transform="translate(10.365 35.922)"><g transform="translate(0 161.982)"><rect width="65.55" height="65.55" transform="translate(71.956 0) rotate(90)" fill="#dbdbdb"/><rect width="45.222" height="45.222" transform="translate(61.792 10.164) rotate(90)" fill="#fff"/><path d="M109.2,189.563H63.973v45.222Z" transform="translate(-47.403 -179.4)" fill="#ebebeb"/><rect width="6.406" height="65.55" transform="translate(0 0)" fill="#c7c7c7"/></g><g transform="translate(81.147 161.982)"><rect width="65.55" height="65.549" transform="translate(71.956 0) rotate(90)" fill="#dbdbdb"/><rect width="45.222" height="45.222" transform="translate(61.792 10.164) rotate(90)" fill="#fff"/><path d="M150.807,189.563H118.862v31.944Z" transform="translate(-102.292 -179.4)" fill="#ebebeb"/><rect width="6.406" height="65.55" transform="translate(0)" fill="#c7c7c7"/></g><g transform="translate(0 243.223)"><rect width="85.669" height="146.696" transform="translate(153.103 0) rotate(90)" fill="#dbdbdb"/><rect width="64.483" height="125.28" transform="translate(142.395 10.593) rotate(90)" fill="#fff"/><path d="M146.465,244.806H64.341v42.27Z" transform="translate(-47.227 -234.214)" fill="#ebebeb"/><rect width="6.406" height="85.669" transform="translate(0 0)" fill="#c7c7c7"/></g><g transform="translate(0)"><rect width="146.697" height="146.696" transform="translate(153.103 0) rotate(90)" fill="#dbdbdb"/><rect width="125.292" height="125.27" transform="translate(17.107 10.708)" fill="#fff"/><path d="M64.336,170.557c19.047-18.935,73.014-72.631,90.351-90.193H64.336Z" transform="translate(-47.23 -69.656)" fill="#ebebeb"/><rect width="6.406" height="146.697" transform="translate(0)" fill="#c7c7c7"/></g></g><g transform="translate(190.219 44.552)"><g transform="translate(0 251.304)"><path d="M216.974,301.078a27.6,27.6,0,0,1-8.136,3.292,28.072,28.072,0,1,1,8.136-3.292Z" transform="translate(-174.422 -248.945)" fill="#ebebeb"/><g transform="translate(13.031 16.329)"><path d="M204.744,268.634a8.543,8.543,0,1,1-8.44-8.643A8.543,8.543,0,0,1,204.744,268.634Z" transform="translate(-181.12 -259.991)" fill="#fff"/><path d="M212.8,286.66l-.043,3.523a27.6,27.6,0,0,1-8.135,3.292,27.917,27.917,0,0,1-21.386-3.655l.041-3.511a14.763,14.763,0,1,1,29.523.35Z" transform="translate(-183.236 -254.379)" fill="#fff"/></g></g><g transform="translate(295.116 0)"><path d="M452.249,174.771a51.584,51.584,0,0,1-54.256-.667,51.59,51.59,0,1,1,54.256.667Z" transform="translate(-374.044 -78.959)" fill="#ebebeb"/><g transform="translate(23.949 30.008)"><path d="M429.771,115.144a15.7,15.7,0,1,1-15.513-15.885A15.7,15.7,0,0,1,429.771,115.144Z" transform="translate(-386.354 -99.257)" fill="#fff"/><path d="M444.576,148.27l-.077,6.477a51.584,51.584,0,0,1-54.256-.667l.077-6.453a27.13,27.13,0,1,1,54.256.643Z" transform="translate(-390.243 -88.943)" fill="#fff"/></g></g><g transform="translate(354.964 258.935)"><path d="M426.749,263.914a35.717,35.717,0,0,0-2.422,11.064c-.055,0-.1.006-.142.006h-9.537c-.041,0-.081,0-.123-.007V274.7c.027-.25.056-.5.08-.751a26.864,26.864,0,0,1,.648-3.863,29.766,29.766,0,0,1,2.179-6.036.219.219,0,0,1,.235-.143q4.457,0,8.913,0Z" transform="translate(-414.526 -249.417)" fill="#ebebeb"/><path d="M426.452,284.124H426.3q-4.422,0-8.847,0a.208.208,0,0,1-.22-.142,28.194,28.194,0,0,1-2.677-10.254.882.882,0,0,0-.025-.118v-.271c.049,0,.1-.01.148-.01h9.484c.174,0,.166,0,.179.176.061.786.112,1.574.188,2.359a31.047,31.047,0,0,0,.6,3.708,33.558,33.558,0,0,0,1.282,4.408C426.423,284.025,426.434,284.068,426.452,284.124Z" transform="translate(-414.526 -244.91)" fill="#ebebeb"/><path d="M454.576,282.563c-.031.055-.053.095-.078.133A26.86,26.86,0,0,1,451.946,286a25.2,25.2,0,0,1-3.739,3.447,26.869,26.869,0,0,1-8.762,4.391,27.991,27.991,0,0,1-3.749.8c-.124.018-.247.041-.37.061h-.217l-.208-.133c.089-.062.163-.118.239-.169a28.909,28.909,0,0,0,7.1-6.886,32.542,32.542,0,0,0,2.9-4.815.207.207,0,0,1,.223-.139q4.526,0,9.051,0Z" transform="translate(-404.78 -240.495)" fill="#ebebeb"/><path d="M446.208,274.971H433.56V263.92c.052,0,.1-.006.146-.006q4.863,0,9.728,0a.182.182,0,0,1,.2.13,30.644,30.644,0,0,1,2.011,6.477,31.9,31.9,0,0,1,.488,3.507C446.156,274.337,446.182,274.647,446.208,274.971Z" transform="translate(-405.421 -249.417)" fill="#ebebeb"/><path d="M446.157,273.387c-.012.262-.015.522-.037.781-.056.616-.1,1.231-.185,1.845-.12.846-.248,1.693-.417,2.533a30.179,30.179,0,0,1-1.641,5.395.21.21,0,0,1-.231.163q-4.981-.007-9.958,0h-.179V273.387Z" transform="translate(-405.445 -244.884)" fill="#ebebeb"/><path d="M435.628,263.962v11.069H423.276c.019-.281.027-.556.055-.829.064-.618.114-1.24.211-1.854.152-.939.313-1.876.514-2.806a28.777,28.777,0,0,1,1.784-5.446.194.194,0,0,1,.21-.136q4.71,0,9.419,0Z" transform="translate(-410.34 -249.394)" fill="#ebebeb"/><path d="M435.641,273.538q0,5.2,0,10.408v.157h-.166q-4.852,0-9.7,0a.2.2,0,0,1-.217-.145,28.133,28.133,0,0,1-1.681-5.578c-.185-.983-.327-1.975-.451-2.967-.083-.648-.1-1.306-.145-1.957a.44.44,0,0,1,0-.07c.049,0,.095-.006.143-.006q6.032,0,12.061,0C435.613,273.378,435.641,273.416,435.641,273.538Z" transform="translate(-410.34 -244.888)" fill="#ebebeb"/><path d="M455.324,275.049H444.959a35.995,35.995,0,0,0-2.416-11.135h.163q4.748,0,9.5,0a.215.215,0,0,1,.226.135,27.269,27.269,0,0,1,2.389,6.929,30.18,30.18,0,0,1,.5,3.887C455.327,274.921,455.324,274.98,455.324,275.049Z" transform="translate(-401.123 -249.417)" fill="#ebebeb"/><path d="M455.239,273.333c-.012.25-.018.488-.035.723a27.638,27.638,0,0,1-.34,2.793,27.193,27.193,0,0,1-1.906,6.222c-.14.322-.294.639-.438.958a.145.145,0,0,1-.154.1q-4.761,0-9.524,0c-.031,0-.061,0-.1-.006.117-.333.231-.655.342-.977a33.549,33.549,0,0,0,1.282-5.049,32.793,32.793,0,0,0,.445-3.758c.018-.3.037-.6.05-.893,0-.08.025-.118.108-.111.033,0,.064,0,.1,0Z" transform="translate(-401.03 -244.911)" fill="#ebebeb"/><path d="M454.289,265.782l-.021.043h-9.2a.206.206,0,0,1-.219-.129,31.2,31.2,0,0,0-4.5-6.667,25.164,25.164,0,0,0-3.454-3.183c-.616-.476-1.258-.921-1.891-1.379-.033-.022-.064-.047-.1-.078l.126-.086c-.018-.058-.034-.117-.059-.2a27.111,27.111,0,0,1,19.318,11.675Z" transform="translate(-404.777 -254.107)" fill="#ebebeb"/><path d="M436.631,294.605a1.112,1.112,0,0,1-.263.043,24.719,24.719,0,0,1-2.955-.575,26.555,26.555,0,0,1-5.262-1.948,26.9,26.9,0,0,1-5.362-3.52,25.537,25.537,0,0,1-3.224-3.223,27.172,27.172,0,0,1-2.011-2.785c-.013-.024-.024-.046-.043-.087h.149q4.222,0,8.441,0a.2.2,0,0,1,.211.136,32.459,32.459,0,0,0,3.1,5.058,31.928,31.928,0,0,0,3.635,4.026,27.981,27.981,0,0,0,3.5,2.813C436.566,294.549,436.579,294.562,436.631,294.605Z" transform="translate(-413.098 -240.522)" fill="#ebebeb"/><path d="M436.425,254.359c-.384.281-.838.6-1.279.939a31.609,31.609,0,0,0-4.088,3.807,28.663,28.663,0,0,0-4.293,6.122c-.072.14-.138.285-.219.42a.187.187,0,0,1-.13.081c-.154.01-.307,0-.461,0H417.7a26.949,26.949,0,0,1,18.626-11.586c-.018.037-.035.071-.053.106C436.33,254.291,436.386,254.329,436.425,254.359Z" transform="translate(-413.006 -254.088)" fill="#ebebeb"/><path d="M442.459,282.567a29.563,29.563,0,0,1-4.178,5.652,26.361,26.361,0,0,1-4.771,4.048v-9.7Z" transform="translate(-405.444 -240.492)" fill="#ebebeb"/><path d="M434.407,282.569v9.513a27.525,27.525,0,0,1-8.585-9.513Z" transform="translate(-409.122 -240.491)" fill="#ebebeb"/><path d="M442.152,264.91h-8.591v-9.064a26.218,26.218,0,0,1,4.819,4.036A30.323,30.323,0,0,1,442.152,264.91Z" transform="translate(-405.42 -253.275)" fill="#ebebeb"/><path d="M434.3,256.038v8.854h-8.246A26.072,26.072,0,0,1,434.3,256.038Z" transform="translate(-409.012 -253.183)" fill="#ebebeb"/></g><g transform="translate(15.12 6.07)"><path d="M193.166,130.372h-3.993a4.488,4.488,0,0,1-4.524-4.525,4.542,4.542,0,0,1,4.524-4.525h5.566l2.612-15.124H192.3a4.525,4.525,0,0,1,0-9.049h6.628L200.644,86.8a4.438,4.438,0,0,1,4.525-3.737,4.645,4.645,0,0,1,4.524,5.31l-1.551,8.773H221.78L223.521,86.8a4.465,4.465,0,0,1,4.61-3.737,4.6,4.6,0,0,1,4.44,5.31l-1.487,8.773H235.1a4.538,4.538,0,0,1,4.5,4.524,4.594,4.594,0,0,1-4.5,4.525h-5.566l-2.612,15.124h4.95a4.488,4.488,0,0,1,4.524,4.525,4.542,4.542,0,0,1-4.524,4.525h-6.521l-1.827,10.684A4.482,4.482,0,0,1,219,144.795a4.593,4.593,0,0,1-4.525-5.29l1.657-9.133H202.471l-1.827,10.684a4.532,4.532,0,0,1-4.589,3.739,4.446,4.446,0,0,1-4.44-5.29Zm24.451-9.051,2.612-15.124H206.655l-2.612,15.124Z" transform="translate(-184.649 -83.065)" fill="#ebebeb"/></g><g transform="translate(212.202 330.834)"><path d="M362.573,303.5a37.115,37.115,0,1,0-14.909,72.717,35.327,35.327,0,0,0,9.08.684,2.989,2.989,0,0,0,2.395-1,2.95,2.95,0,0,0,.722-2.342,2.53,2.53,0,0,0-.649-1.988,3.4,3.4,0,0,0-2.639-1.039,27.054,27.054,0,0,1-7.59-.742,30.543,30.543,0,1,1,36.024-23.852,28.939,28.939,0,0,1-6.1,12.98c-.483.745-3.383,3.622-6.307,3.746l-.723-.148c-.927-.189-1.1-.528-1.122-.562a8.349,8.349,0,0,1-.228-2.129c.3-3.7,3.016-14.714,3.057-14.841l.274-1.333c2.229-10.876-4.355-21.447-14.682-23.564-10.427-2.138-20.728,4.97-22.959,15.847-2.253,10.993,4.4,21.683,14.827,23.821a18.082,18.082,0,0,0,13.43-2.5l-.341,1.666a9.667,9.667,0,0,0,.677,5.677,7.769,7.769,0,0,0,5.749,4.348,8.088,8.088,0,0,0,2.278.225c3.848-.3,7.549-2.225,10.984-5.732.114-.112.192-.2.21-.213l.169-.161A37.351,37.351,0,0,0,362.573,303.5Zm-10.152,49.517c-6.836-1.4-10.993-8.291-9.472-15.706,1.5-7.328,8.186-12.176,14.9-10.8,6.662,1.366,11.049,8.6,9.57,15.817C365.931,349.617,359.2,354.41,352.421,353.021Z" transform="translate(-317.959 -302.741)" fill="#ebebeb"/></g></g><ellipse cx="250.167" cy="22.704" rx="250.167" ry="22.704" transform="translate(51.786 547.954)" fill="#ebebeb"/><g transform="translate(494.005 346.551)"><g transform="translate(0)"><g transform="translate(56.323 52.265)"><path d="M464.529,318.939c-20.255,27.434-41.377,59.271-46.52,93.674-.062.52.773.69.893.173a204.833,204.833,0,0,1,8.958-27.545c13.317-3.665,26.389-6.675,33.382-19.893,7.133-13.586,6.227-31.3,4.871-46.1C466.016,318.452,464.942,318.413,464.529,318.939Z" transform="translate(-418.006 -318.589)" fill="#91ddea"/><g transform="translate(10.017 8.642)"><path d="M424.819,382.188c9.1-20.419,20.781-40.924,35.63-57.716.1-.112.256.05.163.164-9.72,11.959-17.108,24.983-24.322,38.235,6.707-6.809,14.056-12.909,20.41-20.128.123-.142.321.062.2.2-6.31,7.569-13.2,15.795-21.416,21.4q-3.311,6.1-6.682,12.222c.551-.308,1.122-.583,1.688-.863.1-.049.188.1.087.151-.627.316-1.246.651-1.892.926-1.067,1.929-2.124,3.86-3.223,5.786C425.223,383,424.627,382.62,424.819,382.188Z" transform="translate(-424.782 -324.434)" fill="#263238"/><path d="M429.421,362.05a119.808,119.808,0,0,0,15.55-10.38c.132-.108.324.077.189.191a82.093,82.093,0,0,1-15.516,10.57C429.393,362.562,429.173,362.192,429.421,362.05Z" transform="translate(-422.614 -311.421)" fill="#263238"/></g></g><g transform="translate(52.524)"><path d="M416.9,424.412c.041.417.749.408.741-.034.105-11.329.01-22.711.18-34.091,2.9-5.857,9.132-9.1,13.464-13.793a60.379,60.379,0,0,0,8.081-11.251,80.824,80.824,0,0,0,9.373-31.253c1.2-12.118-3.4-52.108-8.511-50.719-2.649.72-11.221,20.527-13.495,27.075a188.57,188.57,0,0,0-8.063,33.2C414.524,370.206,414.868,397.583,416.9,424.412Z" transform="translate(-415.436 -283.236)" fill="#91ddea"/><g transform="translate(1.277 6.994)"><path d="M416.4,373.275l.052-.044c.62-14.334,3.85-28.811,6.873-42.715,3.257-14.977,7.064-29.081,14.772-42.44a.221.221,0,0,1,.381.223,157.6,157.6,0,0,0-11.866,32.576c.516-.807,1.143-1.573,1.68-2.336.211-.3.708-.021.5.291a21.121,21.121,0,0,1-2.408,3.4.209.209,0,0,1-.1.044c-2.654,10.706-4.559,21.657-6.188,32.58.123-.139.241-.288.364-.421.083-.09.223.024.166.127-.2.362-.427.723-.649,1.084-.82,5.545-1.582,11.079-2.348,16.564,9.873-8.439,18.3-18.384,23.058-30.639.022-.056.114-.032.093.027-4.658,12.711-12,24.01-23.308,31.723q-.311,2.218-.624,4.426c-.043.306-.529.225-.529-.072,0-1.305.068-2.614.118-3.924A.3.3,0,0,1,416.4,373.275Z" transform="translate(-416.3 -287.967)" fill="#263238"/><path d="M419.526,342.853c7.544-11.259,14.59-22.195,20.112-34.64.061-.139.3-.04.245.1-4.652,12.365-11.166,24.9-19.979,34.828C419.724,343.346,419.374,343.08,419.526,342.853Z" transform="translate(-414.774 -278.314)" fill="#263238"/><path d="M426.31,311.686c3.125-5.529,6.421-10.91,9.361-16.549.083-.157.3-.019.234.136a86.229,86.229,0,0,1-9.113,16.7C426.585,312.254,426.128,312.007,426.31,311.686Z" transform="translate(-411.531 -284.57)" fill="#263238"/><path d="M425.485,307.936a.049.049,0,0,1,0,.1A.049.049,0,0,1,425.485,307.936Z" transform="translate(-411.928 -278.415)" fill="#263238"/></g></g><g transform="translate(14.677 17.128)"><path d="M421.473,386.106a115.334,115.334,0,0,1-2.646,22.32c.115.806.232,1.611.35,2.442a106.39,106.39,0,0,0,3.993-24.88.76.76,0,0,0,.034-.769V385.2a164.88,164.88,0,0,0-2.5-33.71c-3.508-20.821-11.174-40.8-25.694-56.407a1.036,1.036,0,0,0-1.6.33c-5.86,14.9-3.816,32.678,1.175,47.542A86.982,86.982,0,0,0,406.1,365.527C411.077,372.531,417.427,378.457,421.473,386.106Z" transform="translate(-389.836 -294.822)" fill="#91ddea"/><g transform="translate(6.315 7.081)"><path d="M394.684,299.759c13.761,22.334,23.336,48.816,24.507,75.2.021.467-.766.591-.832.114-.325-2.371-.687-4.72-1.067-7.059-.007-.007-.016,0-.024-.01-5.693-5.452-11.537-11.206-15.615-18.02-.071-.118.1-.26.2-.151,4.953,5.661,9.574,11.459,15.167,16.508-.986-5.834-2.153-11.574-3.536-17.23-.368-.421-.727-.855-1.088-1.279-.24-.281.16-.688.408-.408l.331.365a199.107,199.107,0,0,0-7.2-22.844c-3.5-4.179-7.42-7.79-9.972-12.823a.106.106,0,0,1,.183-.107c2.051,2.878,4.036,5.775,6.364,8.446.927,1.063,1.944,2.059,2.906,3.1a176.3,176.3,0,0,0-11.267-23.484A.309.309,0,0,1,394.684,299.759Z" transform="translate(-394.107 -299.612)" fill="#263238"/><path d="M396.484,318.371c4.448,5.986,9.518,11.7,13.651,17.885.12.177-.139.359-.287.222-5.313-4.984-9.809-11.79-13.663-17.931C396.064,318.354,396.355,318.2,396.484,318.371Z" transform="translate(-393.127 -290.674)" fill="#263238"/><path d="M406.114,331.4l.189.189a.144.144,0,0,1-.2.2l-.189-.189A.144.144,0,0,1,406.114,331.4Z" transform="translate(-388.482 -284.427)" fill="#263238"/></g></g><g transform="translate(0 65.945)"><path d="M379.914,329.189c1.106,11.491,7.151,25.217,14.522,34.071a36.142,36.142,0,0,0,11.775,9.19c5.1,2.524,10.442,5.43,15.718,7.5a103.149,103.149,0,0,1,5.563,19.766c.172-.575.34-1.175.51-1.75-3.387-29.093-22.213-53.959-46.292-69.921A1.169,1.169,0,0,0,379.914,329.189Z" transform="translate(-379.908 -327.842)" fill="#91ddea"/><g transform="translate(8.267 9.59)"><path d="M385.559,334.681c-.17-.149.059-.454.245-.316,12.76,9.453,24.259,23.237,30.682,37.814.176.4-.371.748-.6.35-1.119-1.962-2.26-3.87-3.422-5.744-.006,0-.009,0-.016,0-5.5-1.035-10.7-4.9-14.781-8.575-.111-.1.052-.262.163-.164a33.821,33.821,0,0,0,6.954,4.886c2.241,1.137,4.652,1.854,6.985,2.766-2.037-3.233-4.16-6.333-6.376-9.342-5.915-2.013-11.548-5.647-16.519-9.286-.155-.114-.018-.37.155-.266a164.911,164.911,0,0,0,15.353,8.208,137.525,137.525,0,0,0-10.84-12.639c-1.867-.986-3.762-1.977-5.572-3.032a.155.155,0,0,1,.118-.282,19.973,19.973,0,0,1,4.275,2.1C390.194,338.967,387.956,336.8,385.559,334.681Z" transform="translate(-385.5 -334.33)" fill="#263238"/><path d="M385.959,341.37a7.116,7.116,0,0,1,.927.661c.089.078-.025.192-.117.152a6.831,6.831,0,0,1-.965-.547C385.638,341.53,385.792,341.264,385.959,341.37Z" transform="translate(-385.388 -330.973)" fill="#263238"/></g></g></g><g transform="translate(19.69 118.213)"><g transform="translate(0 9.265)"><path d="M459.212,442.807H393.227l5.327-60.09,1.169-13.252h52.993l1.169,13.252Z" transform="translate(-393.227 -369.464)" fill="#455a64"/><path d="M452.161,382.717H396.83L398,369.464h52.993Z" transform="translate(-391.503 -369.464)" fill="#263238"/></g><rect width="59.306" height="13.115" transform="translate(3.34)" fill="#455a64"/></g></g><line x2="603.905" transform="translate(0 547.371)" fill="none" stroke="#263238" stroke-linecap="round" stroke-linejoin="round" stroke-width="1"/><g transform="translate(183.514 0)"><g transform="translate(48.943 46.731)"><path d="M458.479,222.206c-9.775,83.678-63.526,99.069-72.528,121.388-4.809,12.083-11.179,42.792-11.179,42.792l-87.425.013s-6.326-30.706-11.194-42.787c-8.952-22.318-62.764-37.69-72.51-121.366-6.441-54.982,34.881-141.8,127.4-141.813S464.846,167.221,458.479,222.206Z" transform="translate(-202.992 -80.433)" fill="#e8dcff"/><path d="M458.479,222.206c-9.775,83.678-63.526,99.069-72.528,121.388-4.809,12.083-11.179,42.792-11.179,42.792l-87.425.013s-6.326-30.706-11.194-42.787c-8.952-22.318-62.764-37.69-72.51-121.366-6.441-54.982,34.881-141.8,127.4-141.813S464.846,167.221,458.479,222.206Z" transform="translate(-202.992 -80.433)" fill="#e8dcff" opacity="0.6"/><g transform="translate(80.636 164.546)"><line x1="25.964" y1="139.065" transform="translate(0 8.06)" fill="none" stroke="#fff" stroke-miterlimit="10" stroke-width="1"/><line y1="139.073" x2="25.919" transform="translate(68.946 8.046)" fill="none" stroke="#fff" stroke-miterlimit="10" stroke-width="1"/><path d="M259.038,205.105s5.142,27.23,17.473,27.229,23.886-40.595,7.7-40.593-.509,53.179,20.045,53.176,32.363-53.183,17.976-53.182-9.837,42.391,9.943,42.388c10.616,0,18.194-27.306,18.194-27.306" transform="translate(-256.817 -191.735)" fill="none" stroke="#fff" stroke-miterlimit="10" stroke-width="0.5"/></g><g transform="translate(74.157 302.216)"><rect width="107.868" height="21.081" transform="translate(0)" fill="#555"/><rect width="107.869" height="21.08" transform="translate(0.004 24.491)" fill="#555"/><rect width="107.868" height="21.08" transform="translate(0.008 48.981)" fill="#555"/></g></g><g transform="translate(0)"><line x1="0.585" y1="31.726" transform="translate(174.922)" fill="none" stroke="#263238" stroke-miterlimit="10" stroke-width="1"/><line x1="16.37" y1="27.184" transform="translate(86.7 24.755)" fill="none" stroke="#263238" stroke-miterlimit="10" stroke-width="1"/><line x1="27.767" y1="15.357" transform="translate(22.674 90.305)" fill="none" stroke="#263238" stroke-miterlimit="10" stroke-width="1"/><line x1="31.727" y2="0.585" transform="translate(0 178.501)" fill="none" stroke="#263238" stroke-miterlimit="10" stroke-width="1"/><line x1="27.184" y2="16.37" transform="translate(24.755 250.939)" fill="none" stroke="#263238" stroke-miterlimit="10" stroke-width="1"/><line x2="27.768" y2="15.357" transform="translate(303.567 248.347)" fill="none" stroke="#263238" stroke-miterlimit="10" stroke-width="1"/><line y1="0.584" x2="31.727" transform="translate(322.282 174.923)" fill="none" stroke="#263238" stroke-miterlimit="10" stroke-width="1"/><line y1="16.369" x2="27.183" transform="translate(302.07 86.699)" fill="none" stroke="#263238" stroke-miterlimit="10" stroke-width="1"/><line y1="27.768" x2="15.357" transform="translate(248.346 22.673)" fill="none" stroke="#263238" stroke-miterlimit="10" stroke-width="1"/></g></g><g transform="translate(239.599 52.159)"><g transform="translate(99.137 82.388)"><g transform="translate(24.14)"><path d="M314.716,149.256a9.424,9.424,0,1,1-9.425-9.423A9.425,9.425,0,0,1,314.716,149.256Z" transform="translate(-288.983 -139.833)" fill="#263238"/><path d="M323.806,169.04v3.446h-32.6V169.04a16.3,16.3,0,0,1,32.6,0Z" transform="translate(-291.211 -133.641)" fill="#263238"/></g><g transform="translate(0 5.68)"><path d="M298.387,153.1a9.424,9.424,0,1,1-9.423-9.425A9.424,9.424,0,0,1,298.387,153.1Z" transform="translate(-272.654 -143.675)" fill="#455a64"/><path d="M307.477,172.881v3.446h-32.6v-3.446a16.3,16.3,0,0,1,32.6,0Z" transform="translate(-274.882 -137.483)" fill="#455a64"/></g></g><path d="M251.5,248a2.482,2.482,0,0,1,2.6.019q.326.2.665.378c.229.123.458.238.69.347a2.471,2.471,0,0,1,1.446,2.147l.1,3.193,10.4-.322-.1-3.193a2.474,2.474,0,0,1,1.307-2.244,14.451,14.451,0,0,0,1.319-.815,2.474,2.474,0,0,1,2.583-.166l2.809,1.506,4.92-9.175-2.809-1.506a2.475,2.475,0,0,1-1.291-2.244,14.64,14.64,0,0,0-.05-1.549,2.473,2.473,0,0,1,1.146-2.33l2.714-1.684-5.486-8.845-2.729,1.69a2.465,2.465,0,0,1-2.584-.019c-.217-.132-.441-.257-.665-.378s-.455-.237-.686-.344a2.479,2.479,0,0,1-1.45-2.154l-.1-3.2-10.4.324.1,3.184a2.478,2.478,0,0,1-1.305,2.244,14.563,14.563,0,0,0-1.323.82,2.47,2.47,0,0,1-2.584.166l-2.807-1.5-4.922,9.176,2.807,1.5a2.473,2.473,0,0,1,1.292,2.246,14.409,14.409,0,0,0,.049,1.557,2.473,2.473,0,0,1-1.149,2.327l-2.708,1.678,5.486,8.845Zm2.608-16.428a8.526,8.526,0,1,1,3.489,11.542A8.534,8.534,0,0,1,254.11,231.571Z" transform="translate(-190.991 -20.475)" fill="#263238"/><path d="M209.759,173.3a1.737,1.737,0,0,1,.849,1.61q-.013.266-.013.537t.013.541a1.731,1.731,0,0,1-.846,1.6l-1.938,1.118,3.644,6.316,1.938-1.118a1.731,1.731,0,0,1,1.817.064,9.885,9.885,0,0,0,.94.544,1.736,1.736,0,0,1,.958,1.541v2.232h7.293v-2.232a1.736,1.736,0,0,1,.958-1.541,9.885,9.885,0,0,0,.94-.544,1.731,1.731,0,0,1,1.817-.064l1.94,1.118,3.644-6.316-1.947-1.125a1.728,1.728,0,0,1-.844-1.6q.013-.268.013-.537t-.013-.537a1.733,1.733,0,0,1,.849-1.608l1.943-1.119-3.644-6.314-1.934,1.116a1.731,1.731,0,0,1-1.817-.062,10.312,10.312,0,0,0-.945-.546,1.73,1.73,0,0,1-.96-1.54v-2.232h-7.293v2.232a1.73,1.73,0,0,1-.959,1.54,10.3,10.3,0,0,0-.945.546,1.731,1.731,0,0,1-1.817.062l-1.932-1.116-3.644,6.314Zm11.006-3.829a5.973,5.973,0,1,1-5.971,5.976A5.978,5.978,0,0,1,220.766,169.472Z" transform="translate(-207.824 -46.551)" fill="#555"/><path d="M250.66,137.637c-.931-9.357-7.379-18.669-18.712-18.669s-17.767,9.312-18.7,18.669c-1.433,14.442,8.31,27.524,18.7,39.459C242.35,165.161,252.094,152.079,250.66,137.637Zm-18.712,10.389a10.244,10.244,0,1,1,10.258-10.245A10.244,10.244,0,0,1,231.948,148.025Z" transform="translate(-205.296 -67.426)" fill="#ff2727"/><g transform="translate(47.759 0)"><ellipse cx="42.842" cy="42.842" rx="42.842" ry="42.842" fill="#0f70de"/><path d="M275.062,109.43c-.1,2.726-.031,5.483-.031,8.437h10.643c-.455,3.5-.844,6.749-1.363,9.961-.033.325-.844.714-1.3.747-2.563.065-5.127.033-7.918.033v35.5a41.918,41.918,0,0,1-11.292-1.752V128.673H254.49V117.965h9.119c.031-.812.1-1.461.1-2.077.065-2.824-.032-5.646.228-8.437.584-6.132,4.348-10.448,10.417-11.292,3.764-.519,7.689-.1,11.648-.1V105.8c-1.4,0-2.822-.033-4.218,0a17.862,17.862,0,0,0-3.731.26A3.5,3.5,0,0,0,275.062,109.43Z" transform="translate(-233.259 -78.461)" fill="#fff"/></g><g transform="translate(159.596 61.397)"><ellipse cx="42.842" cy="42.842" rx="42.842" ry="42.842" fill="#5dc7f9"/><g transform="translate(19.449 24.032)"><path d="M328.934,180.807a23.909,23.909,0,0,0,15.434-4.757c-6.385-1.94-8.929-3.888-9.858-7.519,1.431-.07,2.856-.141,4.283-.211-5.04-1.934-8-5.319-8.388-10.848l4.409,1.166c-4.623-5.817-5.559-10.328-2.8-14.538a31.854,31.854,0,0,0,22.643,11.324c-.041-.723-.083-1.264-.1-1.807-.182-4.768,1.818-8.372,6.066-10.473a10.534,10.534,0,0,1,12.029,1.452,2.209,2.209,0,0,0,2.429.5c1.719-.645,3.448-1.267,5.343-1.962a10.962,10.962,0,0,1-4.2,5.39c.041.1.081.207.121.31l5.294-1.359c.069.071.142.141.211.21-1.367,1.378-2.679,2.819-4.126,4.105a2.831,2.831,0,0,0-1.15,2.361A30.975,30.975,0,0,1,348.375,185.2a31.447,31.447,0,0,1-18.383-3.752C329.63,181.247,329.286,181.021,328.934,180.807Z" transform="translate(-328.934 -141.89)" fill="#fff"/></g></g><g transform="translate(0.945 140.467)"><ellipse cx="30.047" cy="30.047" rx="30.047" ry="30.047" transform="translate(0 59.327) rotate(-80.841)" fill="#096997"/><g transform="translate(18.654 18.695)"><path d="M225.1,191.764a.642.642,0,0,0,.126.037,3.75,3.75,0,0,1,3.445,3.179,3.71,3.71,0,0,1-1.273,3.493,3.646,3.646,0,0,1-1.79.852,3.8,3.8,0,0,1-4.324-2.642,3.512,3.512,0,0,1-.139-.791c0-.053.009-.114-.062-.137v-.328c.067-.025.058-.086.062-.139.012-.108.016-.217.034-.325a3.729,3.729,0,0,1,3.467-3.161.653.653,0,0,0,.127-.037Z" transform="translate(-221.081 -191.764)" fill="#fff"/><path d="M234.987,201.795c.031-.043.065-.083.095-.127a7.525,7.525,0,0,1,1.1-1.3,6.867,6.867,0,0,1,3.06-1.642,9.422,9.422,0,0,1,1.7-.231,8.927,8.927,0,0,1,1.161.013,8.654,8.654,0,0,1,3.226.8,5.587,5.587,0,0,1,2.416,2.3,8.63,8.63,0,0,1,.8,2.025,11.07,11.07,0,0,1,.3,1.471c.033.248.047.5.062.748.03.463.052.927.078,1.39v.04c.012.442.03.884.033,1.325q.016,2.222.021,4.441.007,3.355,0,6.71c0,.25-.01.26-.263.26q-1.421,0-2.843,0c-.884,0-1.767,0-2.651,0-.14,0-.282.013-.423.019a.517.517,0,0,1-.068,0c-.313-.016-.318-.089-.318-.324q0-2.781,0-5.562c0-1.841,0-3.681-.007-5.522a7.063,7.063,0,0,0-.269-2.064,4.037,4.037,0,0,0-.506-1.115,2.6,2.6,0,0,0-1.665-1.1,3.266,3.266,0,0,0-.785-.083,8.433,8.433,0,0,0-.844.031,3.119,3.119,0,0,0-2.663,1.925,5.824,5.824,0,0,0-.421,1.563,12.521,12.521,0,0,0-.106,1.73v10.114c0,.077,0,.154,0,.232-.009.1-.053.143-.157.151-.059,0-.118,0-.177,0H231.65q-1.018,0-2.036,0c-.2,0-.4.013-.6.019a.737.737,0,0,1-.081,0c-.266-.028-.287-.1-.284-.293,0-.1,0-.2,0-.3q0-6.662,0-13.325,0-3.362,0-6.724c0-.059,0-.12,0-.177.007-.149.061-.2.211-.211.035,0,.072,0,.109,0h5.656c.037,0,.074,0,.109,0,.145.009.2.056.2.2,0,.254-.01.509-.01.764,0,.373,0,.747.007,1.119,0,.179,0,.356.006.534,0,.047,0,.1,0,.145Z" transform="translate(-217.461 -188.549)" fill="#fff"/><path d="M221.46,209.339V199.145a1.158,1.158,0,0,1,.009-.176.119.119,0,0,1,.127-.117c.05,0,.1,0,.149,0h6.014c.229,0,.288.061.288.3,0,.769,0,1.539,0,2.309V219.49a1.325,1.325,0,0,1-.015.217.16.16,0,0,1-.155.146c-.154.009-.309.013-.463.016-.059,0-.118-.012-.176-.012h-5.016c-.132,0-.263.013-.395.019a.507.507,0,0,1-.081,0c-.222-.025-.288-.05-.288-.3q0-5.118,0-10.236Z" transform="translate(-220.9 -188.376)" fill="#fff"/></g></g><g transform="translate(73.294 124.132)"><ellipse cx="42.803" cy="42.803" rx="42.803" ry="42.803" transform="translate(0 83.372) rotate(-76.883)" fill="#f61d8a"/><g transform="translate(25.842 25.719)"><path d="M325.963,197.045c-.03-6.947-4.367-11.44-11.253-11.5q-14.292-.144-28.587,0c-6.738.071-11.106,4.534-11.208,11.259-.065,4.756-.012,9.516-.012,14.271,0,4.652-.029,9.312.006,13.965.059,7.1,4.391,11.642,11.422,11.713q14.139.153,28.283,0c6.894-.077,11.308-4.611,11.344-11.474Q326.037,211.162,325.963,197.045Zm-4.556,28.312c-.049,4.391-2.414,6.823-6.811,6.852q-14.139.089-28.277,0c-4.414-.024-6.8-2.45-6.827-6.823q-.064-14.263,0-28.527c.018-4.355,2.454-6.858,6.8-6.888q14.137-.1,28.277,0c4.361.03,6.786,2.519,6.834,6.864.053,4.754.012,9.509.012,14.263S321.46,220.6,321.406,225.357Z" transform="translate(-274.882 -185.466)" fill="#fff"/><path d="M296.5,193.774a13.341,13.341,0,1,0,13.255,13.536A13.321,13.321,0,0,0,296.5,193.774ZM296.328,216a9.01,9.01,0,0,1-8.747-8.782,8.892,8.892,0,0,1,17.785-.006A9.012,9.012,0,0,1,296.328,216Z" transform="translate(-270.908 -181.491)" fill="#fff"/><path d="M305.87,194.661a2.766,2.766,0,0,1-3.181,2.759,2.794,2.794,0,0,1-2.9-3.325c.137-1.864,1.353-2.729,3.217-2.835C304.9,191.58,306.019,192.659,305.87,194.661Z" transform="translate(-262.975 -182.694)" fill="#fff"/></g></g><g transform="translate(133.461 0.754)"><path d="M28.942,0A28.942,28.942,0,1,1,0,28.942,28.942,28.942,0,0,1,28.942,0Z" transform="translate(0 55.762) rotate(-74.438)" fill="#df1920"/><g transform="translate(24.851 24.534)"><path d="M314.909,123.432V101.209l26.5,11.112Z" transform="translate(-314.909 -101.209)" fill="#fff"/></g></g><g transform="translate(59.851 223.793)"><ellipse cx="30.046" cy="30.047" rx="30.046" ry="30.047" transform="translate(0 22.714) rotate(-22.209)" fill="#f61d8a"/><path d="M297.62,270.931c-4.96,10-16.756,15.934-16.756,15.934s-11.794-5.934-16.744-15.934c-4.131-8.341-1.514-17.356,5-19.325,9.343-2.827,11.74,13.446,11.74,13.446s2.4-16.272,11.75-13.446C299.132,253.575,301.749,262.59,297.62,270.931Z" transform="translate(-241.695 -227.926)" fill="#fff"/></g><g transform="translate(22.945 74.566)"><circle cx="30.047" cy="30.047" r="30.047" transform="translate(0 42.492) rotate(-45)" fill="#263238"/><g transform="translate(26.628 23.971)"><path d="M265.512,156.495a7.52,7.52,0,0,0,.522.826.378.378,0,0,1,.044.037A7.863,7.863,0,0,1,265.512,156.495Zm.577.877v0h0v0c.105.074.208.149.313.222C266.3,157.525,266.194,157.445,266.089,157.372Zm5.1,5.463v-2.361a7.935,7.935,0,0,1-.927-.214,8.27,8.27,0,0,1-1.523-.6,7.571,7.571,0,0,1-1.35-.888,6.87,6.87,0,0,1-.633-.577l-.09-.1-.077-.086a4.97,4.97,0,0,1-.5-.637.732.732,0,0,1-.222-.149,7.765,7.765,0,0,1-.943-.954,8.356,8.356,0,0,1-1.1-1.731,9.675,9.675,0,0,1-.686-1.937c-.059-.242-.109-.486-.161-.732v0l0-.016v-.015c0-.021,0-.043,0-.064H258.4c-.106,0-.126.031-.126.13q0,10.866,0,21.734c0,.636,0,1.27,0,1.906,0,.362-.037.723-.075,1.082a8.682,8.682,0,0,1-.247,1.35,2.525,2.525,0,0,1-.275.56,5.134,5.134,0,0,1-.976,1.224,4.539,4.539,0,0,1-.928.668,4.9,4.9,0,0,1-1.468.532c-.185.034-.37.058-.556.077a4.989,4.989,0,0,1-.556.015,5.2,5.2,0,0,1-1.869-.383,4.538,4.538,0,0,1-1.192-.7,3.638,3.638,0,0,1-.965-1.175,8.107,8.107,0,0,1-.4-1.044,4.811,4.811,0,0,0,.374.995.062.062,0,0,1,.006.04l0,.013a2.234,2.234,0,0,1-.38-.259l-.024-.018a3.756,3.756,0,0,1-1.254-1.728,6.031,6.031,0,0,1-.254-.9,5.272,5.272,0,0,1-.092-.73c-.007-.148-.021-.294-.018-.442a5.837,5.837,0,0,1,.241-1.545,4.836,4.836,0,0,1,.718-1.44,4.475,4.475,0,0,1,1.307-1.186,5.126,5.126,0,0,1,1.512-.6,6.654,6.654,0,0,1,.705-.112,7.268,7.268,0,0,1,1.106-.034,4.4,4.4,0,0,1,.773.077c.1.022.124,0,.124-.109q0-2.5,0-5c-.383,0-.766-.018-1.146,0a10.925,10.925,0,0,0-2.784.513,9.5,9.5,0,0,0-1,.393,9.859,9.859,0,0,0-1.449.81,10.968,10.968,0,0,0-.949.726,10.027,10.027,0,0,0-.865.835,10.152,10.152,0,0,0-.955,1.192,11.593,11.593,0,0,0-.918,1.571,12.375,12.375,0,0,0-.522,1.254,12.784,12.784,0,0,0-.5,1.839c-.059.294-.095.594-.132.893a12.306,12.306,0,0,0-.077,1.761c.007.343.04.683.077,1.023a11.24,11.24,0,0,0,.3,1.6,11.026,11.026,0,0,0,.563,1.622,10.891,10.891,0,0,0,.927,1.682,4.176,4.176,0,0,1,.248.39,10.9,10.9,0,0,0,.733.841c-.2-.211-.381-.433-.563-.656a.036.036,0,0,1,0-.05.7.7,0,0,1,.083.052c.075.053.142.12.213.179l.021.016a11.489,11.489,0,0,0,2.289,1.422,13.006,13.006,0,0,0,1.77.682,9.447,9.447,0,0,0,.927.194c.276.055.554.089.831.136.126.021.257.031.386.043a11.082,11.082,0,0,0,1.254.059c.359-.012.719-.033,1.076-.075a11.776,11.776,0,0,0,1.249-.208,9.648,9.648,0,0,0,1.811-.593,9.776,9.776,0,0,0,1.92-1.128,10.29,10.29,0,0,0,1.325-1.211,9.338,9.338,0,0,0,.854-1.072,11.425,11.425,0,0,0,.957-1.647,12.637,12.637,0,0,0,.744-2c.106-.38.191-.764.266-1.152.055-.282.092-.568.136-.852a4.7,4.7,0,0,0,.043-.476c.129-2.175.043-4.349.058-6.526s0-4.358,0-6.536V162.2c.087.072.157.132.226.191a9.137,9.137,0,0,0,1.118.8,10.985,10.985,0,0,0,1.088.584,13.957,13.957,0,0,0,2,.752c.494.146.995.266,1.5.368.386.077.772.143,1.161.2.237.033.476.055.716.071.158.01.315,0,.472.016.086.006.1-.027.1-.1C271.183,164.329,271.185,163.582,271.185,162.834Zm-26.695,20.1-.015-.007.006-.006.016.007Zm.08.071-.018-.012.015-.01.016.007C244.585,182.995,244.585,183.007,244.57,183Zm.593.714.05.055Zm14.966-31.942h0Zm2.847,0s0,.034,0,.064c0-.021,0-.043,0-.064Z" transform="translate(-240.897 -150.272)" fill="#fefefe"/><path d="M271.942,163.792c0,.087-.018.112-.109.111-.34-.01-.677-.044-1.016-.08-.271-.028-.54-.067-.807-.108-.306-.049-.609-.115-.911-.18a15.465,15.465,0,0,1-1.743-.486A14.391,14.391,0,0,1,266,162.5a10.7,10.7,0,0,1-1.579-.894,7.623,7.623,0,0,1-.823-.64c-.027.009-.015.033-.015.05.015.914-.024,1.827-.022,2.742q.007,4.8,0,9.609a7.629,7.629,0,0,1-.075.986c-.028.216-.049.435-.083.65-.049.312-.111.621-.179.931a12.438,12.438,0,0,1-.349,1.26,13.034,13.034,0,0,1-.594,1.459,11.574,11.574,0,0,1-.97,1.647c-.17.244-.358.478-.55.705-.17.2-.349.4-.534.584a9.426,9.426,0,0,1-.828.742c-.265.207-.535.407-.819.588a9.537,9.537,0,0,1-1.511.789,10.174,10.174,0,0,1-1.43.469c-.294.071-.591.127-.892.176s-.6.077-.9.12c-.084.012-.171-.024-.253.021h-1.2c-.019-.038-.055-.019-.081-.021a9.123,9.123,0,0,1-.982-.1c-.259-.035-.515-.084-.772-.121a8.019,8.019,0,0,1-1.669-.458c-.324-.121-.639-.259-.954-.4a11.5,11.5,0,0,1-1.546-.869,10.357,10.357,0,0,1-.835-.619,10.675,10.675,0,0,1-1-.92l-.01-.012-.024-.024-.05-.055a10.9,10.9,0,0,1-.733-.841,1.936,1.936,0,0,1,.251.186c.081.067.16.135.213.179l.021.016a11.489,11.489,0,0,0,2.288,1.422,13.013,13.013,0,0,0,1.77.682c.3.092.618.133.927.194.276.055.554.089.831.136.126.021.257.031.386.043a11.076,11.076,0,0,0,1.254.059c.359-.012.718-.033,1.076-.075a11.775,11.775,0,0,0,1.249-.208,9.65,9.65,0,0,0,1.811-.593,9.777,9.777,0,0,0,1.92-1.128,10.289,10.289,0,0,0,1.325-1.211,9.328,9.328,0,0,0,.855-1.072,11.434,11.434,0,0,0,.957-1.647,12.639,12.639,0,0,0,.744-2c.106-.38.191-.764.266-1.152.055-.282.092-.568.136-.852a4.7,4.7,0,0,0,.043-.476c.129-2.175.043-4.349.058-6.526s0-4.358,0-6.536v-.118c.087.072.157.132.226.191a9.149,9.149,0,0,0,1.118.8,10.992,10.992,0,0,0,1.088.584,13.95,13.95,0,0,0,2,.752c.494.146.995.266,1.5.368.386.077.772.143,1.161.2.237.033.476.055.715.071.158.01.315,0,.472.016.086.006.1-.027.1-.1,0-.747,0-1.493,0-2.241v-2.361l.018,0a2.734,2.734,0,0,0,.423.08c.219.033.441.058.661.081.093.009.186,0,.279.018.05.01.064.024.059.068a.407.407,0,0,0,0,.041Q271.941,160.866,271.942,163.792Z" transform="translate(-240.213 -147.456)" fill="#455a64"/><path d="M254.088,161.052l-.019.006c-.383,0-.766-.018-1.146,0a10.922,10.922,0,0,0-2.784.513,9.5,9.5,0,0,0-1,.393,9.861,9.861,0,0,0-1.449.81,10.968,10.968,0,0,0-.949.726,10.036,10.036,0,0,0-.865.835,10.15,10.15,0,0,0-.955,1.192A11.6,11.6,0,0,0,244,167.1a12.382,12.382,0,0,0-.522,1.254,12.792,12.792,0,0,0-.5,1.839c-.059.294-.095.594-.132.893a12.3,12.3,0,0,0-.077,1.761c.007.343.04.683.077,1.023a11.22,11.22,0,0,0,.3,1.6,11.018,11.018,0,0,0,.563,1.622,10.9,10.9,0,0,0,.927,1.682,4.162,4.162,0,0,1,.248.39c-.081-.07-.166-.135-.242-.208a11.311,11.311,0,0,1-1.091-1.227,10.977,10.977,0,0,1-.893-1.384,11.028,11.028,0,0,1-1.158-3.411c-.049-.293-.083-.59-.112-.886a1.264,1.264,0,0,0-.035-.365v-1.419c.025-.016.021-.041.021-.064a7.625,7.625,0,0,1,.078-.84,11.473,11.473,0,0,1,.331-1.671A12.083,12.083,0,0,1,243.5,164c.213-.3.443-.6.682-.881a10.017,10.017,0,0,1,.869-.9,10.055,10.055,0,0,1,3.74-2.185,9.524,9.524,0,0,1,1.532-.359q.426-.06.856-.1a10.363,10.363,0,0,1,1.372-.033,8.5,8.5,0,0,1,1.079.095c.12.021.24.033.359.041.072.006.1.038.1.109C254.086,160.208,254.088,160.631,254.088,161.052Z" transform="translate(-241.356 -146.559)" fill="#ffc727"/><path d="M260.76,152.258h-4.58c-.106,0-.126.031-.126.13q0,10.866,0,21.734c0,.636,0,1.27,0,1.906,0,.362-.037.723-.075,1.082a8.675,8.675,0,0,1-.247,1.35,2.529,2.529,0,0,1-.275.56,5.137,5.137,0,0,1-.976,1.224,4.543,4.543,0,0,1-.928.668,4.9,4.9,0,0,1-1.468.532c-.185.034-.37.058-.556.077a4.992,4.992,0,0,1-.556.015,5.2,5.2,0,0,1-1.869-.383,4.538,4.538,0,0,1-1.192-.7,3.638,3.638,0,0,1-.965-1.175c.092.049.16.083.226.12a5.043,5.043,0,0,0,1.33.5,5.253,5.253,0,0,0,1.563.114,4.863,4.863,0,0,0,1.931-.543,4.712,4.712,0,0,0,.917-.616,5.352,5.352,0,0,0,1.06-1.246,3.2,3.2,0,0,0,.466-1.24c.046-.306.092-.614.133-.923a4.439,4.439,0,0,0,.041-.56c0-.321.025-.64.024-.959q0-11.5,0-23c0-.031,0-.062,0-.092,0-.052.015-.077.068-.071.024,0,.047,0,.071,0h5.706c.151,0,.157,0,.155.152a6.723,6.723,0,0,0,.118,1.229A.811.811,0,0,1,260.76,152.258Z" transform="translate(-238.682 -150.756)" fill="#ffc727"/><path d="M253.512,161.941v5.16c0,.132,0,.126-.127.1s-.27-.037-.405-.049c-.2-.016-.4-.016-.594-.024a6.343,6.343,0,0,0-1.549.142,5.045,5.045,0,0,0-1.384.506,4.677,4.677,0,0,0-.825.578,4.475,4.475,0,0,0-1.011,1.282,4.949,4.949,0,0,0-.489,1.366c-.04.2-.062.392-.084.59a6.024,6.024,0,0,0-.015.766,4.62,4.62,0,0,0,.127.954c.016.078.035.154.056.228a8.1,8.1,0,0,0,.4,1.044l-.016-.009a2.706,2.706,0,0,1-.408-.263,3.757,3.757,0,0,1-1.254-1.728,6.03,6.03,0,0,1-.254-.9,5.265,5.265,0,0,1-.092-.73c-.007-.148-.021-.294-.018-.442a5.834,5.834,0,0,1,.241-1.545,4.835,4.835,0,0,1,.718-1.44,4.475,4.475,0,0,1,1.307-1.186,5.128,5.128,0,0,1,1.512-.6,6.659,6.659,0,0,1,.705-.112,7.261,7.261,0,0,1,1.106-.034,4.4,4.4,0,0,1,.773.077c.1.022.124,0,.124-.109q0-2.5,0-5l.019-.006a.347.347,0,0,0,.146.025,8.075,8.075,0,0,1,1.032.1.728.728,0,0,0,.188.024c.068-.007.074.025.074.081C253.512,161.171,253.512,161.556,253.512,161.941Z" transform="translate(-239.342 -146.067)" fill="#455a64"/><path d="M259.406,157.376h0a.73.73,0,0,1-.222-.149,7.763,7.763,0,0,1-.943-.954,8.359,8.359,0,0,1-1.1-1.731,9.671,9.671,0,0,1-.686-1.937c-.059-.242-.109-.486-.161-.732v0l0-.016v0a.449.449,0,0,1,0-.074h0c.408,0,.816,0,1.224,0,.059,0,.073.019.073.075a7.352,7.352,0,0,0,.083,1.066,11,11,0,0,0,.372,1.7,10.124,10.124,0,0,0,.554,1.431c.074.16.152.309.228.443l0,0a7.852,7.852,0,0,0,.566.863h0l.009.013h0Z" transform="translate(-234.213 -150.271)" fill="#263238"/><path d="M263.513,157.392c0,.421,0,.844,0,1.265l-.018,0a7.939,7.939,0,0,1-.927-.214,8.271,8.271,0,0,1-1.523-.6,7.572,7.572,0,0,1-1.35-.888,6.867,6.867,0,0,1-.633-.577l-.09-.1a5.607,5.607,0,0,1-.571-.721l0,0h0c.1.074.211.154.316.228l.047.034a7.484,7.484,0,0,0,1.19.673,7.828,7.828,0,0,0,.831.33,9.493,9.493,0,0,0,1.577.377,10.4,10.4,0,0,0,1.087.118C263.5,157.321,263.513,157.342,263.513,157.392Z" transform="translate(-233.205 -148.459)" fill="#ffc727"/></g></g><g transform="translate(163.264 141.966)"><path d="M30.046,0A30.046,30.046,0,1,1,0,30.047,30.046,30.046,0,0,1,30.046,0Z" transform="translate(0 22.714) rotate(-22.209)" fill="#30d461"/><g transform="translate(20.803 20.939)"><path d="M332.331,230.766c.787-2.831,1.484-5.464,2.262-8.073a2.914,2.914,0,0,0-.217-2.333,18.234,18.234,0,1,1,34.693-7.541,18.382,18.382,0,0,1-17.256,17.56,19.545,19.545,0,0,1-9.039-1.708,2.888,2.888,0,0,0-1.733-.132C338.211,229.215,335.4,229.974,332.331,230.766Zm4.419-4.287c1.8-.466,3.322-.909,4.868-1.229a2.59,2.59,0,0,1,1.607.207,16.226,16.226,0,0,0,7.347,1.913c9.385.164,16.944-8.552,15.158-17.695-1.237-6.32-5.122-10.468-11.4-11.9-6.438-1.474-11.914.6-15.808,5.918-3.808,5.2-3.909,10.8-.8,16.472a2.811,2.811,0,0,1,.229,1.781C337.655,223.407,337.2,224.836,336.75,226.479Z" transform="translate(-332.331 -194.296)" fill="#fff"/><path d="M339.8,201.922c1.239-1.669,2.9-1.339,3.768.5.339.721.42.964.752,1.786a2.227,2.227,0,0,1-.505,2.874c-.652.582-.59,1.1-.139,1.765a12.8,12.8,0,0,0,5.528,4.67,1.218,1.218,0,0,0,1.675-.372c1.6-1.912,1.623-1.892,3.884-.828.26.121.519.247.778.371,1.737.832,2,2.394.585,3.768a5.084,5.084,0,0,1-5.1,1.24c-4.876-1.237-8.368-4.305-11.066-8.409a7.033,7.033,0,0,1-1.387-4.125A6.119,6.119,0,0,1,339.8,201.922Z" transform="translate(-329.348 -191.166)" fill="#fff"/></g></g><g transform="translate(137.98 197.174)"><g transform="translate(0)"><path d="M316.549,261.762c-1.1-.683-2.051-1.678-3.516-1.535-.562.058-.439-.408-.444-.713q-.04-8.269-.067-16.525c0-.4.022-.73.458-.952,4.2-2.135,6.01-6.316,8.574-9.89a16.475,16.475,0,0,0,3.012-12.509c-.18-1.239.4-1.8,1.512-2.055,1.344-.31,2.683.058,3.146.979a22.208,22.208,0,0,1,2.427,7.212c.25,2.089-.492,4.125-.747,6.191-.186,1.514-.534,3.01-.816,4.543.37.266.8.126,1.194.13q6.979-.013,13.96-.041c1.96-.006,2.923.553,3.2,1.854a3.731,3.731,0,0,1-2.012,4.042c-.348.176-.977.019-1.019.565s.608.5.93.718c1.688,1.15,1.384,3.535-.56,4.919-.469.331-1.378.182-1.4.869-.009.548.843.54,1.228.926,1.365,1.338.7,3.85-1.332,4.87a6.413,6.413,0,0,0-.816.318c-.231.157-.457.331-.007.647,2.019,1.433,1.984,3.437-.04,4.905-.2.145-.4.293-.606.438a3.933,3.933,0,0,1-2.448.544q-10.946.058-21.892.078A2.6,2.6,0,0,1,316.549,261.762Z" transform="translate(-295.719 -217.476)" fill="#0f70de" fill-rule="evenodd"/><path d="M301.2,244.658c-.012-3.5-.007-7-.047-10.5-.007-.713.065-1.063.937-1.056q6.406.058,12.8-.038c.837-.012.968.276.965,1.02q0,10.564.075,21.129c.009.9-.235,1.15-1.134,1.138-4.141-.033-8.282-.03-12.42.049-1.03.021-1.174-.34-1.165-1.242C301.261,251.66,301.216,248.16,301.2,244.658Z" transform="translate(-301.157 -210.018)" fill="#0f70de" fill-rule="evenodd"/></g></g><g transform="translate(131.732 246.878)"><path d="M302.777,283.57h-2.741a3.081,3.081,0,0,1-3.106-3.106,3.117,3.117,0,0,1,3.106-3.106h3.82l1.793-10.381h-3.47a3.106,3.106,0,0,1,0-6.212h4.549l1.181-7.1a3.046,3.046,0,0,1,3.106-2.566,3.19,3.19,0,0,1,3.106,3.646l-1.064,6.021h9.361l1.195-7.1a3.066,3.066,0,0,1,3.165-2.566,3.155,3.155,0,0,1,3.047,3.646l-1.02,6.021h2.756a3.115,3.115,0,0,1,3.091,3.106,3.154,3.154,0,0,1-3.091,3.106h-3.82l-1.795,10.381h3.4a3.08,3.08,0,0,1,3.1,3.106,3.118,3.118,0,0,1-3.1,3.106h-4.477l-1.255,7.334a3.074,3.074,0,0,1-3.1,2.565,3.151,3.151,0,0,1-3.106-3.629l1.137-6.27h-9.376L307.91,290.9a3.11,3.11,0,0,1-3.149,2.565,3.051,3.051,0,0,1-3.048-3.629Zm16.782-6.212,1.795-10.381h-9.318l-1.793,10.381Z" transform="translate(-296.93 -251.097)" fill="#263238"/></g></g><g transform="translate(193.221 13.33)"><path d="M350.926,273.315l-8.837,1.633-1.975,9.308-1.975-9.308-8.837-1.637,8.8-2.148,2.013-8.793,2.013,8.793Z" transform="translate(-103.332 40.003)" fill="#ffc727"/><path d="M207.727,204.7l-8.837,1.632-1.975,9.308-1.975-9.308-8.837-1.637,8.8-2.149,2.013-8.792,2.013,8.792Z" transform="translate(-171.835 7.178)" fill="#ffc727"/><path d="M329.374,76.7l-8.837,1.633-1.975,9.308-1.975-9.308-8.837-1.637,8.8-2.148,2.013-8.793,2.013,8.793Z" transform="translate(-113.642 -54.054)" fill="#ffc727"/><path d="M204.237,154.917l-4.939.913-1.1,5.2-1.1-5.2-4.939-.915,4.918-1.2,1.125-4.914,1.125,4.914Z" transform="translate(-168.942 -14.327)" fill="#ffc727"/><path d="M224.67,263.942l-4.939.913-1.1,5.2-1.1-5.2-4.939-.915,4.918-1.2,1.125-4.914,1.125,4.914Z" transform="translate(-159.167 37.829)" fill="#ffc727"/><path d="M393.342,199.458l-4.939.912-1.1,5.2-1.1-5.2-4.939-.915,4.918-1.2,1.125-4.915,1.125,4.915Z" transform="translate(-78.478 6.981)" fill="#ffc727"/><path d="M356.016,260.213l-4.939.912-1.1,5.2-1.1-5.2-4.939-.915,4.918-1.2,1.125-4.914,1.125,4.914Z" transform="translate(-96.335 36.044)" fill="#ffc727"/><path d="M214.071,217.572l-4.939.913-1.1,5.2-1.1-5.2-4.939-.915,4.918-1.2,1.125-4.914,1.125,4.914Z" transform="translate(-164.238 15.646)" fill="#ffc727"/><path d="M307.952,63.957l-4.939.913-1.1,5.2-1.1-5.2-4.939-.915,4.918-1.2,1.125-4.914,1.125,4.914Z" transform="translate(-119.327 -57.84)" fill="#ffc727"/><path d="M224.545,101.785l-4.939.913-1.1,5.2-1.1-5.2-4.939-.915,4.918-1.2,1.125-4.914,1.125,4.914Z" transform="translate(-159.227 -39.744)" fill="#ffc727"/><path d="M356.891,271.473a1.431,1.431,0,0,0,0,2.861A1.431,1.431,0,0,0,356.891,271.473Z" transform="translate(-90.796 44.358)" fill="#ffc727"/><path d="M225.595,87.018a1.432,1.432,0,0,0,0,2.862A1.432,1.432,0,0,0,225.595,87.018Z" transform="translate(-153.605 -43.881)" fill="#ffc727"/><path d="M364.213,114.951a1.431,1.431,0,0,0,0,2.861A1.431,1.431,0,0,0,364.213,114.951Z" transform="translate(-87.293 -30.519)" fill="#ffc727"/><path d="M405.38,190.779a1.431,1.431,0,0,0,0,2.861A1.431,1.431,0,0,0,405.38,190.779Z" transform="translate(-67.6 5.756)" fill="#ffc727"/><path d="M232.012,263.719a1.432,1.432,0,0,0,0,2.862A1.432,1.432,0,0,0,232.012,263.719Z" transform="translate(-150.535 40.648)" fill="#ffc727"/><path d="M392.226,185.147a1.013,1.013,0,0,0,0,2.024A1.013,1.013,0,0,0,392.226,185.147Z" transform="translate(-73.699 3.061)" fill="#ffc727"/><path d="M227.651,276.918a1.013,1.013,0,0,0,0,2.025A1.013,1.013,0,0,0,227.651,276.918Z" transform="translate(-152.427 46.962)" fill="#ffc727"/><path d="M185.868,140.656a1.012,1.012,0,0,0,0,2.024A1.012,1.012,0,0,0,185.868,140.656Z" transform="translate(-172.416 -18.222)" fill="#ffc727"/><path d="M364.624,104.548c-3.532,0-3.538,5.486,0,5.486S368.163,104.548,364.624,104.548Z" transform="translate(-87.703 -35.495)" fill="#ffc727"/><path d="M179.1,155.233c-3.533,0-3.539,5.486,0,5.486S182.642,155.233,179.1,155.233Z" transform="translate(-176.452 -11.249)" fill="#ffc727"/></g><g transform="translate(26.346 230.577)"><g transform="translate(113.388 123.087)"><g transform="translate(0.124 1.155)"><path d="M141.926,312.471c11.128,50.113,34.483,110.253,44.564,120.06,12.748,12.4,97.551,35.589,101.785,36.077,10.489,1.135,32.054-74.254,20.892-75.949-16.994-2.58-78.821-6.391-82.5-10.223-3.816-4.009-29.683-37.115-56.26-74.5C152.064,282.1,135.02,281.378,141.926,312.471Z" transform="translate(-140.357 -288.829)" fill="#eb9481"/><g transform="translate(139.524 102.712)"><path d="M234.733,431.239c1.245.643,18.934,9.7,29.887,12.959,8.172,2.433,31.886,8.805,35.457.074,2.444-5.952-11.06-11.341-20.523-15.365-4.985-2.118-11.11-7.4-9.612-10.6,2.617-5.6,15.449.137,23.879,5.117,16.3,9.63,37.985,26.908,48.046,18.676,3.8-3.114-.548-8.861-6.929-14.513,10.372,6.608,21.447,12.047,25.8,8.756,2.5-1.873,2.634-4.469,1.271-7.444,3.21,1.067,6.054.884,8.051-1.2,3.414-3.52,1.8-8.762-1.867-14.153a4.037,4.037,0,0,0,3.09-2c7.251-10.884-28.417-42.537-40.812-45.565-36.461-8.946-74.96-7.608-74.96-7.608C241.084,369.737,234.7,431.214,234.733,431.239Z" transform="translate(-234.733 -358.305)" fill="#eb9481"/><g transform="translate(53.859 10.769)"><path d="M271.256,385.158a62,62,0,0,1,24.294,9.553c9.215,6.177,15.306,13.375,23.023,20.635.2.191-.087.512-.291.321-3.677-3.452-18.923-16.435-22.865-19.389a59.016,59.016,0,0,0-24.2-10.973C271.125,385.287,271.159,385.142,271.256,385.158Z" transform="translate(-271.164 -356.229)" fill="#263238"/><path d="M275.938,374.709c9.58,2.694,19.4,5.418,28.274,10.023,9.714,5.038,17.287,13.194,24.733,21.043q6.708,7.072,13.1,14.435c.179.207-.1.528-.29.321Q330.42,408.37,318.364,396.9a78.062,78.062,0,0,0-25.733-16.476c-5.479-2.133-11.109-3.842-16.731-5.545C275.794,374.847,275.83,374.678,275.938,374.709Z" transform="translate(-268.929 -361.229)" fill="#263238"/><path d="M282.921,365.59c9.312,1.983,17.437,3.68,25.66,8.737,10.885,6.694,21.36,17.919,25.035,21.9,4.06,4.4,7.967,8.922,11.806,13.509.157.186-.164.463-.325.278a309.67,309.67,0,0,0-28.25-28.382,61.61,61.61,0,0,0-15.833-10.46c-5.786-2.541-11.994-4-18.107-5.517A.033.033,0,0,1,282.921,365.59Z" transform="translate(-265.559 -365.589)" fill="#263238"/></g></g></g><g transform="translate(0)"><path d="M294.843,388.853l-26.728,82.587s-70.6-20.7-83.423-34.742-36.167-86.2-42.934-121.14,10.87-33.952,26.927-11.836,56.042,75.726,58.291,76.9S294.843,388.853,294.843,388.853Z" transform="translate(-140.273 -288.048)" fill="#926cdc"/><path d="M147.636,322.085a3.3,3.3,0,0,1-1.449-.488,2.786,2.786,0,0,1-1.257-2.351,3.533,3.533,0,0,0-2.292-3.267,4.08,4.08,0,0,0-.4-.118c.089.473.207.946.31,1.434l.015.015a2.6,2.6,0,0,1,.931,1.966,3.589,3.589,0,0,0,2.188,3.326,3.456,3.456,0,0,0,1.951.192c.577-.118,1.153-.192,1.744-.355C148.789,322.277,148.213,322.2,147.636,322.085Zm127.17,73.372a3.237,3.237,0,0,1-1.434-.488,2.733,2.733,0,0,1-1.257-2.351,3.568,3.568,0,0,0-2.306-3.267,3.517,3.517,0,0,0-1.937-.133c-.577.118-1.168.192-1.744.355.577.163,1.168.237,1.744.355a3.349,3.349,0,0,1,1.478.444,2.734,2.734,0,0,1,1.331,2.277,3.576,3.576,0,0,0,2.173,3.326,3.481,3.481,0,0,0,1.952.192c.591-.118,1.168-.192,1.759-.355C275.974,395.649,275.4,395.575,274.806,395.457Zm-113.983-23.7a2.908,2.908,0,0,1-1.434-.488,2.708,2.708,0,0,1-1.257-2.336,3.574,3.574,0,0,0-2.025-3.164c.65,2.025,1.316,4.051,2,6.061a2.671,2.671,0,0,0,.769.444,3.48,3.48,0,0,0,1.951.192c.591-.118,1.168-.192,1.759-.355C161.991,371.951,161.415,371.877,160.823,371.759ZM241.1,449.566a3.3,3.3,0,0,1-1.434-.488,2.786,2.786,0,0,1-1.257-2.351,3.534,3.534,0,0,0-2.292-3.267,3.576,3.576,0,0,0-1.951-.133c-.577.118-1.153.192-1.744.355.591.163,1.168.237,1.744.355a3.17,3.17,0,0,1,1.478.443,2.715,2.715,0,0,1,1.331,2.277,3.581,3.581,0,0,0,2.188,3.326,3.417,3.417,0,0,0,1.937.192c.591-.133,1.168-.192,1.759-.355C242.267,449.758,241.69,449.684,241.1,449.566Zm-31.859-47.5a3.018,3.018,0,0,1-1.449-.488,2.7,2.7,0,0,1-1.242-2.336,3.588,3.588,0,0,0-2.306-3.282,3.513,3.513,0,0,0-1.937-.118c-.591.118-1.168.177-1.759.34.591.163,1.168.237,1.759.355a3.486,3.486,0,0,1,1.464.444,2.668,2.668,0,0,1,1.331,2.277,3.612,3.612,0,0,0,2.188,3.326,3.457,3.457,0,0,0,1.951.192c.577-.118,1.168-.192,1.744-.355C210.408,402.257,209.817,402.184,209.24,402.065Zm-7.214-36.679a3.353,3.353,0,0,1-1.345.724,2.713,2.713,0,0,1-2.558-.68,3.611,3.611,0,0,0-3.9-.8,3.415,3.415,0,0,0-1.508,1.242c-.325.5-.68.961-.991,1.493.532-.3.991-.665,1.493-.991a3.273,3.273,0,0,1,1.36-.68,2.725,2.725,0,0,1,2.543.784,3.5,3.5,0,0,0,5.411-.606c.325-.488.695-.946.991-1.478C202.986,364.692,202.528,365.062,202.026,365.387Zm70.459,63.792c-.118-.577-.192-1.168-.355-1.744-.163.577-.222,1.168-.355,1.744a3.171,3.171,0,0,1-.444,1.478,2.715,2.715,0,0,1-2.277,1.33,3.591,3.591,0,0,0-3.326,2.173,3.48,3.48,0,0,0-.192,1.952c.133.591.192,1.168.355,1.759.163-.591.237-1.168.355-1.759a3.236,3.236,0,0,1,.488-1.434,2.751,2.751,0,0,1,2.351-1.257,3.569,3.569,0,0,0,3.267-2.306A3.518,3.518,0,0,0,272.485,429.179Zm-40.951-54.035a2.9,2.9,0,0,0-.724,1.079,3.457,3.457,0,0,0-.192,1.951c.118.591.192,1.168.355,1.745.163-.577.237-1.153.355-1.745a3.236,3.236,0,0,1,.488-1.434,2.7,2.7,0,0,1,2.247-1.257C233.16,375.366,232.3,375.248,231.534,375.144Zm-50.664-39.4c-.118-.591-.177-1.168-.34-1.759-.163.591-.237,1.168-.355,1.759a3.486,3.486,0,0,1-.443,1.464,2.669,2.669,0,0,1-2.277,1.33,3.633,3.633,0,0,0-3.341,2.188,3.324,3.324,0,0,0-.177,1.952c.118.577.192,1.168.355,1.744.163-.577.237-1.168.355-1.744a3.114,3.114,0,0,1,.473-1.449,2.737,2.737,0,0,1,2.351-1.242,3.588,3.588,0,0,0,3.282-2.306A3.514,3.514,0,0,0,180.87,335.745Zm-9.979-34.18h-.015a3.333,3.333,0,0,0-1.774.31,3.544,3.544,0,0,0-1.464,1.271c-.325.5-.68.961-.976,1.493.517-.3.976-.665,1.478-.991a3.4,3.4,0,0,1,1.36-.724,2.668,2.668,0,0,1,2.543.665,3.223,3.223,0,0,0,.724.547C172.118,303.251,171.482,302.393,170.891,301.565Zm2.587,100.367a3.23,3.23,0,0,1-1.36.665,2.717,2.717,0,0,1-2.543-.769,2.983,2.983,0,0,0-.784-.577c.311.813.636,1.611.976,2.41a3.5,3.5,0,0,0,2.705.015,3.444,3.444,0,0,0,1.508-1.257c.325-.488.68-.946.991-1.478C174.439,401.237,173.981,401.592,173.478,401.932Zm74.643,8.737a3.2,3.2,0,0,1-1.375.665,2.739,2.739,0,0,1-2.543-.769,3.549,3.549,0,0,0-3.932-.695,3.585,3.585,0,0,0-1.464,1.286c-.34.5-.695.961-.991,1.493.532-.3.991-.665,1.478-.99a3.4,3.4,0,0,1,1.36-.724,2.668,2.668,0,0,1,2.543.665,3.594,3.594,0,0,0,3.9.813,3.517,3.517,0,0,0,1.508-1.242c.34-.5.695-.961.99-1.493C249.068,409.975,248.609,410.344,248.121,410.669ZM216.07,428a3.108,3.108,0,0,1-1.36.68,2.736,2.736,0,0,1-2.543-.784,3.594,3.594,0,0,0-3.947-.68,3.544,3.544,0,0,0-1.464,1.271c-.325.5-.695.961-.991,1.493.532-.3.991-.665,1.493-.991a3.451,3.451,0,0,1,1.345-.724,2.733,2.733,0,0,1,2.558.665,3.589,3.589,0,0,0,3.9.813,3.416,3.416,0,0,0,1.508-1.242c.325-.5.695-.961.99-1.493C217.031,427.3,216.573,427.671,216.07,428Z" transform="translate(-139.332 -281.589)" fill="#fff"/><path d="M224.739,400.726c3.026-9.221,6.126-18.419,8.81-27.757,1.524-5.3,3.079-10.6,4.553-15.924.055-.2-.282-.327-.356-.129-3.4,9.13-6.8,18.3-9.784,27.585-2.97,9.243-6.017,18.46-8.867,27.743-1.62,5.279-3.076,10.588-4.375,15.964-.025.108.145.171.188.068C218.623,419.256,221.692,410.01,224.739,400.726Z" transform="translate(-104.66 -255.15)" fill="#263238"/><path d="M232.519,459.8q-1.563-.561-3.127-1.121c-5.878-2.147-11.871-4.45-17.513-6.8-.729-.293-1.446-.6-2.15-.9-1.132-.479-2.266-.971-3.36-1.462-.56-.239-1.094-.491-1.641-.73-.2-.093-.39-.173-.585-.265-.574-.266-1.134-.531-1.693-.8-2.24-1.048-4.363-2.1-6.341-3.155-.455-.24-.924-.491-1.366-.742a49.217,49.217,0,0,1-8.687-5.8c-.247-.225-.492-.448-.714-.671-.245-.225-.454-.448-.648-.659-12.835-14.033-36.173-86.2-42.938-121.143-.075-.406-.151-.812-.226-1.2-.013-.092-.025-.17-.038-.262-.451-2.657-.846-5.939-1.159-9.494v-.04c-.855-17.371,7.385-20.147,17.48-12.443C182.834,346.646,220.953,436.672,232.519,459.8Z" transform="translate(-140.273 -288.047)" fill="#263238"/></g></g><g transform="translate(0 117.225)"><path d="M237.4,483.895l-173.822-.285c.412-3.427,49.418-165.8,82.727-193.487,14.2-11.8,40.3-3.143,43.622-.43C222.14,316,239.824,481.893,237.4,483.895Z" transform="translate(-63.575 -284.083)" fill="#926cdc"/><path d="M107.222,354.7a3.188,3.188,0,0,1-1.36.68,2.723,2.723,0,0,1-1.094,0c-.177.414-.355.828-.532,1.257a3.239,3.239,0,0,0,1.981-.192,3.32,3.32,0,0,0,1.508-1.242c.325-.5.695-.961.991-1.493C108.183,354.024,107.725,354.379,107.222,354.7Zm5.278,108.38a3.23,3.23,0,0,1-1.36.665,2.716,2.716,0,0,1-2.543-.769,3.572,3.572,0,0,0-3.947-.695,3.682,3.682,0,0,0-1.464,1.286c-.325.5-.695.961-.991,1.493.532-.3.991-.665,1.493-.991a3.352,3.352,0,0,1,1.345-.724,2.706,2.706,0,0,1,2.558.665,3.589,3.589,0,0,0,3.9.813A3.516,3.516,0,0,0,113,463.586c.325-.5.68-.961.991-1.493C113.461,462.389,113,462.758,112.5,463.084Zm65.936-7.5a3.272,3.272,0,0,1-1.36.68,2.755,2.755,0,0,1-2.558-.769,3.544,3.544,0,0,0-3.932-.695,3.584,3.584,0,0,0-1.464,1.286c-.325.5-.695.961-.991,1.478.532-.3.991-.65,1.478-.976a3.448,3.448,0,0,1,1.36-.739,2.712,2.712,0,0,1,2.558.68,3.592,3.592,0,0,0,3.888.813,3.486,3.486,0,0,0,1.523-1.257c.325-.488.68-.961.976-1.478C179.4,454.908,178.924,455.263,178.436,455.588Zm29.05-45.844a3.232,3.232,0,0,1-1.36.665,2.717,2.717,0,0,1-2.543-.769,3.572,3.572,0,0,0-3.947-.695,3.682,3.682,0,0,0-1.464,1.286c-.325.5-.695.961-.991,1.493.532-.311.991-.665,1.493-.991a3.181,3.181,0,0,1,1.345-.724,2.67,2.67,0,0,1,2.558.665,3.616,3.616,0,0,0,3.9.813,3.444,3.444,0,0,0,1.508-1.257c.325-.488.68-.946.991-1.478C208.447,409.049,207.989,409.4,207.486,409.744ZM145.6,481.667a3.109,3.109,0,0,1-1.36.68,2.736,2.736,0,0,1-2.543-.784,3.594,3.594,0,0,0-3.947-.68,3.543,3.543,0,0,0-1.464,1.271c-.222.355-.473.68-.695,1.035h.4c.266-.163.532-.355.8-.532a3.4,3.4,0,0,1,1.36-.724,2.715,2.715,0,0,1,2.543.665,3.557,3.557,0,0,0,.8.606h3.519a3.513,3.513,0,0,0,1.094-1.035c.325-.5.695-.961.99-1.493C146.562,480.972,146.1,481.341,145.6,481.667Zm-13.823-65.448a3.074,3.074,0,0,1-1.36.665,2.727,2.727,0,0,1-2.543-.769,3.572,3.572,0,0,0-3.947-.695,3.682,3.682,0,0,0-1.464,1.286c-.325.5-.695.961-.99,1.493.532-.31.99-.665,1.493-.991a3.227,3.227,0,0,1,1.36-.724,2.678,2.678,0,0,1,2.543.665,3.616,3.616,0,0,0,3.9.813,3.444,3.444,0,0,0,1.508-1.257c.325-.488.695-.946.991-1.478C132.739,415.524,132.281,415.879,131.778,416.219ZM169.654,354.7a3.272,3.272,0,0,1-1.36.68,2.689,2.689,0,0,1-2.543-.783,3.5,3.5,0,0,0-5.411.606c-.325.488-.695.961-.99,1.478.532-.3.99-.651,1.493-.991a3.442,3.442,0,0,1,1.345-.724,2.712,2.712,0,0,1,2.558.68,3.611,3.611,0,0,0,3.9.8,3.321,3.321,0,0,0,1.508-1.242c.325-.5.68-.961.976-1.493C170.615,354.024,170.142,354.379,169.654,354.7Zm31.3-42.7c-.1.148-.192.3-.281.444a3.135,3.135,0,0,0,.37-.237C201.011,312.141,200.981,312.082,200.951,312.008Zm-127.5,130.6c-.118-.577-.192-1.168-.355-1.744-.163.577-.237,1.168-.355,1.744a3.223,3.223,0,0,1-.444,1.478,3.3,3.3,0,0,1-.5.621l-.015.015c-.207.65-.414,1.3-.636,1.937a3.578,3.578,0,0,0,2.173-2.114A3.517,3.517,0,0,0,73.456,442.608Zm66.63,4.8c-.118-.591-.177-1.168-.34-1.759-.163.591-.237,1.168-.355,1.759a3.554,3.554,0,0,1-.443,1.464,2.668,2.668,0,0,1-2.277,1.331,3.633,3.633,0,0,0-3.341,2.188,3.324,3.324,0,0,0-.177,1.952c.118.577.192,1.168.355,1.744.163-.577.237-1.168.355-1.744a3.114,3.114,0,0,1,.473-1.449,2.737,2.737,0,0,1,2.351-1.242,3.588,3.588,0,0,0,3.282-2.306A3.514,3.514,0,0,0,140.087,447.413Zm72.2-101.195a2.624,2.624,0,0,1-.828.133,3.633,3.633,0,0,0-3.341,2.188,3.324,3.324,0,0,0-.177,1.951c.118.577.192,1.168.355,1.744.163-.577.237-1.168.355-1.744a3.114,3.114,0,0,1,.473-1.449,2.737,2.737,0,0,1,2.351-1.242,3.485,3.485,0,0,0,1.168-.222C212.527,347.12,212.409,346.676,212.291,346.218Zm-78.324-15.094c-.118-.591-.192-1.168-.355-1.744-.163.577-.237,1.153-.355,1.744a3.485,3.485,0,0,1-.444,1.464,2.668,2.668,0,0,1-2.277,1.331,3.612,3.612,0,0,0-3.326,2.188,3.457,3.457,0,0,0-.192,1.951c.118.577.192,1.168.355,1.745.163-.577.237-1.168.355-1.745a3.365,3.365,0,0,1,.488-1.449,2.7,2.7,0,0,1,2.351-1.242,3.569,3.569,0,0,0,3.267-2.306A3.525,3.525,0,0,0,133.966,331.124Zm-27.675,59.357c-.118-.577-.192-1.168-.355-1.745-.163.577-.237,1.168-.355,1.745a3.556,3.556,0,0,1-.444,1.478,2.686,2.686,0,0,1-2.277,1.316,3.612,3.612,0,0,0-3.326,2.188,3.457,3.457,0,0,0-.192,1.951c.118.591.192,1.168.355,1.744.163-.577.237-1.153.355-1.744a3.235,3.235,0,0,1,.488-1.434,2.715,2.715,0,0,1,2.351-1.257,3.584,3.584,0,0,0,3.267-2.306A3.517,3.517,0,0,0,106.291,390.481ZM232.929,465.6a2.65,2.65,0,0,1-1.257.325,3.612,3.612,0,0,0-3.326,2.188,3.457,3.457,0,0,0-.192,1.952c.118.577.192,1.168.355,1.744.163-.577.237-1.168.355-1.744a3.3,3.3,0,0,1,.488-1.449,2.737,2.737,0,0,1,2.351-1.242,3.568,3.568,0,0,0,1.36-.3C233.017,466.587,232.973,466.1,232.929,465.6Zm-70.1-78.783c-.118-.591-.192-1.168-.355-1.744-.163.577-.237,1.153-.355,1.744a3.286,3.286,0,0,1-.444,1.464,2.669,2.669,0,0,1-2.277,1.331,3.612,3.612,0,0,0-3.326,2.188,3.458,3.458,0,0,0-.192,1.952c.118.577.192,1.168.355,1.744.163-.577.237-1.168.355-1.744a3.366,3.366,0,0,1,.488-1.449,2.737,2.737,0,0,1,2.351-1.242,3.569,3.569,0,0,0,3.267-2.306A3.526,3.526,0,0,0,162.824,386.814ZM175.8,285.22a3.12,3.12,0,0,1-.237.5,2.7,2.7,0,0,1-2.277,1.331,3.589,3.589,0,0,0-3.326,2.188,3.456,3.456,0,0,0-.192,1.951c.118.577.192,1.168.355,1.745.163-.577.236-1.168.355-1.745a3.3,3.3,0,0,1,.488-1.449,2.7,2.7,0,0,1,2.351-1.242,3.568,3.568,0,0,0,3.267-2.306,2.572,2.572,0,0,0,.177-.739C176.455,285.383,176.129,285.294,175.8,285.22Zm-25.753,20.919a3.447,3.447,0,0,1-1.36.739,2.675,2.675,0,0,1-2.543-.68,3.622,3.622,0,0,0-3.9-.813,3.443,3.443,0,0,0-1.508,1.257c-.325.488-.695.961-.99,1.478.532-.3.99-.65,1.493-.976a3.11,3.11,0,0,1,1.36-.68,2.739,2.739,0,0,1,2.543.769,3.572,3.572,0,0,0,3.947.695,3.681,3.681,0,0,0,1.464-1.286c.325-.5.68-.961.976-1.478C151.012,305.459,150.554,305.814,150.051,306.139Zm44.78,73.431a2.907,2.907,0,0,1-1.434-.488,2.708,2.708,0,0,1-1.257-2.336,3.567,3.567,0,0,0-2.306-3.282,3.507,3.507,0,0,0-1.937-.118c-.577.118-1.168.177-1.745.34.577.163,1.168.237,1.745.355a3.556,3.556,0,0,1,1.478.444,2.734,2.734,0,0,1,1.331,2.277,3.561,3.561,0,0,0,2.173,3.326,3.48,3.48,0,0,0,1.951.192c.591-.118,1.168-.192,1.759-.355C196,379.762,195.422,379.688,194.831,379.57Zm-91.659,57.864a3.3,3.3,0,0,1-1.449-.488,2.749,2.749,0,0,1-1.257-2.351,3.534,3.534,0,0,0-2.291-3.267,3.579,3.579,0,0,0-1.951-.133c-.577.118-1.153.192-1.744.355.591.163,1.168.237,1.744.355a3.351,3.351,0,0,1,1.478.443,2.734,2.734,0,0,1,1.331,2.277,3.566,3.566,0,0,0,2.188,3.326,3.456,3.456,0,0,0,1.951.192c.577-.118,1.153-.192,1.744-.355C104.325,437.626,103.748,437.552,103.172,437.434Zm62.772-10.319a3.3,3.3,0,0,1-1.449-.488,2.737,2.737,0,0,1-1.242-2.351,3.506,3.506,0,0,0-4.243-3.4c-.591.118-1.168.192-1.759.355.591.163,1.168.222,1.759.34a3.352,3.352,0,0,1,1.464.458,2.682,2.682,0,0,1,1.331,2.277,3.6,3.6,0,0,0,2.188,3.326,3.322,3.322,0,0,0,1.951.178c.577-.118,1.168-.178,1.744-.34C167.111,427.292,166.52,427.233,165.943,427.115ZM82.223,481.1a3.3,3.3,0,0,1-1.449-.488,2.749,2.749,0,0,1-1.257-2.351A3.534,3.534,0,0,0,77.226,475a3.578,3.578,0,0,0-1.951-.133c-.577.118-1.153.192-1.745.355.591.163,1.168.237,1.745.355a3.35,3.35,0,0,1,1.478.444,2.734,2.734,0,0,1,1.331,2.277,3.566,3.566,0,0,0,2.188,3.326,3.457,3.457,0,0,0,1.951.192c.577-.118,1.153-.192,1.744-.355C83.376,481.3,82.8,481.223,82.223,481.1Zm114.959-.015a3.569,3.569,0,0,0-2.306-3.267,3.518,3.518,0,0,0-1.937-.133c-.591.118-1.168.192-1.744.355.577.163,1.153.237,1.744.355a3.486,3.486,0,0,1,1.464.444,2.668,2.668,0,0,1,1.331,2.277,3.655,3.655,0,0,0,.724,2.173h1.789A2.625,2.625,0,0,1,197.182,481.09ZM130.95,378.18a3.062,3.062,0,0,1-1.434-.488,2.715,2.715,0,0,1-1.257-2.351,3.584,3.584,0,0,0-2.306-3.267,3.518,3.518,0,0,0-1.937-.133c-.577.118-1.168.192-1.744.355.577.163,1.168.237,1.744.355a3.556,3.556,0,0,1,1.478.444,2.686,2.686,0,0,1,1.316,2.277A3.612,3.612,0,0,0,129,378.7a3.469,3.469,0,0,0,1.951.192c.591-.118,1.168-.192,1.744-.355C132.118,378.373,131.542,378.3,130.95,378.18ZM208.979,445.3a3.172,3.172,0,0,1-1.449-.473,2.737,2.737,0,0,1-1.242-2.351,3.588,3.588,0,0,0-2.306-3.282,3.65,3.65,0,0,0-1.937-.118c-.591.118-1.168.177-1.744.34a17.331,17.331,0,0,0,1.744.355,3.485,3.485,0,0,1,1.464.444,2.686,2.686,0,0,1,1.331,2.277,3.633,3.633,0,0,0,2.188,3.341,3.324,3.324,0,0,0,1.951.177c.577-.118,1.168-.192,1.744-.355C210.147,445.491,209.556,445.432,208.979,445.3ZM181.644,329.9a3.3,3.3,0,0,1-1.449-.488,2.786,2.786,0,0,1-1.257-2.351,3.533,3.533,0,0,0-2.291-3.267,3.577,3.577,0,0,0-1.951-.133c-.577.118-1.153.192-1.745.355.591.163,1.168.236,1.745.355a3.17,3.17,0,0,1,1.478.443,2.715,2.715,0,0,1,1.331,2.277,3.589,3.589,0,0,0,2.188,3.326,3.457,3.457,0,0,0,1.951.192c.577-.118,1.153-.192,1.744-.355C182.8,330.089,182.22,330.015,181.644,329.9Z" transform="translate(-59.951 -283.538)" fill="#fff"/></g><g transform="translate(29.655 77.162)"><g transform="translate(116.686)"><path d="M183.064,266.55s-7.441-13.985-16.565-8.137.475,18.449.475,18.449Z" transform="translate(-162.563 -256.983)" fill="#926cdc"/><rect width="19.11" height="111.396" transform="matrix(-0.842, 0.54, -0.54, -0.842, 80.27, 102.828)" fill="#91ddea"/><rect width="22.315" height="4.428" transform="matrix(-0.842, 0.54, -0.54, -0.842, 23.578, 11.4)" fill="#232323"/><rect width="22.315" height="4.428" transform="translate(26.22 15.521) rotate(147.344)" fill="#232323"/><g transform="translate(64.171 101.525)"><path d="M205.969,337.273l13.474,7.7,4.434,2.553-.433-5.117-1.366-15.456-3.127-1.294s-.083,3.3-.095,3.357l-3.127-1.292s-.083,3.3-.095,3.357l-3.091-1.316s-.118,3.322-.132,3.38l-3.09-1.314s-.118,3.322-.132,3.38l-3.09-1.316S205.982,337.216,205.969,337.273Z" transform="translate(-205.969 -325.656)" fill="#ebebeb"/><path d="M215.083,339.55l4.433,2.553-.433-5.117Z" transform="translate(-201.609 -320.236)" fill="#37474f"/></g></g><g transform="translate(0 48.917)"><g transform="translate(2.437 1.444)"><path d="M115.758,318.366c-16.734,39.069-42.421,120.99-24.229,147.112,17.52,25.158,119.892-29.715,140.654-40.952,8.521-4.613-13.162-77.455-22.81-73.681-21.185,8.291-64.519,37.215-65.652,36.668-1.005-.488.812-33.745,1.452-66.49C146.105,273.373,127.787,290.282,115.758,318.366Z" transform="translate(-85.283 -291.048)" fill="#eb9481"/><g transform="translate(99.055 12.847)"><path d="M238.023,301.721c6.948,5.979.664,13.058.664,13.058s6.4-.31,11.018,3.768c5.285,4.669.281,15,.281,15a21.115,21.115,0,0,1,10.987,5.826c4.61,4.978,1.047,16.128,1.047,16.128s5.57,4.306,6.434,11.208c1.48,11.8-12.526,23.355-21.481,30.639-13.3,10.82-40.97,19.992-46.842,23.015L152.285,363.8s30.852-43.722,42.067-51.606C205.808,304.136,231.192,295.843,238.023,301.721Z" transform="translate(-152.285 -299.738)" fill="#eb9481"/><g transform="translate(52.392 14.448)"><path d="M220.575,309.526c-12,3.934-22.179,11.2-32.753,17.879a.217.217,0,0,0,.235.364c10.439-6.762,22.087-11.366,32.774-17.7A.3.3,0,0,0,220.575,309.526Z" transform="translate(-187.724 -309.511)" fill="#263238"/><path d="M227.271,322.221c-2.686.971-5.046,2.828-7.364,4.457q-3.743,2.635-7.393,5.392-7.316,5.515-14.349,11.392c-.207.174.007.534.235.364,4.867-3.656,9.788-7.238,14.8-10.687q3.763-2.588,7.571-5.117c2.359-1.57,4.981-3.029,6.947-5.1A.436.436,0,0,0,227.271,322.221Z" transform="translate(-182.769 -303.442)" fill="#263238"/><path d="M234.928,337.562c-2.37.751-4.488,2.85-6.415,4.367q-3.282,2.581-6.591,5.128c-4.41,3.394-8.823,6.784-13.35,10.022-.226.163.006.526.235.364,4.616-3.266,9.275-6.469,13.863-9.777q3.38-2.435,6.731-4.908c1.9-1.4,4.434-2.939,5.705-4.982C235.178,337.662,235.046,337.525,234.928,337.562Z" transform="translate(-177.794 -296.094)" fill="#263238"/></g></g></g><path d="M184.336,361.2l38.089,75.484s-88.006,40.638-118.767,36.151-15.77-63.2-13.727-76.445c1.461-9.468,18.3-66.61,31.188-89.773s24.032-23.426,25.385,8.338-1.694,70.326-.411,69.766S184.336,361.2,184.336,361.2Z" transform="translate(-83.226 -290.071)" fill="#926cdc"/><path d="M201.43,438.859a3.173,3.173,0,0,1-1.449-.473,2.737,2.737,0,0,1-1.242-2.351,3.589,3.589,0,0,0-2.306-3.282,3.651,3.651,0,0,0-1.937-.118c-.591.118-1.168.177-1.744.34a17.385,17.385,0,0,0,1.744.355,3.485,3.485,0,0,1,1.464.443,2.686,2.686,0,0,1,1.331,2.277,3.633,3.633,0,0,0,2.188,3.341,3.323,3.323,0,0,0,1.951.178c.577-.118,1.168-.192,1.744-.355C202.6,439.051,202.007,438.992,201.43,438.859ZM123.4,371.74a3.062,3.062,0,0,1-1.434-.488,2.715,2.715,0,0,1-1.257-2.351,3.584,3.584,0,0,0-2.306-3.267,3.517,3.517,0,0,0-1.937-.133c-.577.118-1.168.192-1.745.355.577.163,1.168.237,1.745.355a3.555,3.555,0,0,1,1.478.443,2.686,2.686,0,0,1,1.316,2.277,3.612,3.612,0,0,0,2.188,3.326,3.467,3.467,0,0,0,1.951.192c.591-.118,1.168-.192,1.745-.355C124.569,371.933,123.993,371.859,123.4,371.74Zm34.993,48.934a3.3,3.3,0,0,1-1.449-.488,2.737,2.737,0,0,1-1.242-2.351,3.506,3.506,0,0,0-4.243-3.4c-.591.118-1.168.192-1.759.355.591.163,1.168.222,1.759.34a3.35,3.35,0,0,1,1.464.458,2.682,2.682,0,0,1,1.331,2.277,3.6,3.6,0,0,0,2.188,3.326,3.323,3.323,0,0,0,1.951.177c.577-.118,1.168-.177,1.744-.34C159.563,420.852,158.971,420.793,158.395,420.675ZM95.623,430.994a3.3,3.3,0,0,1-1.449-.488,2.749,2.749,0,0,1-1.257-2.351,3.533,3.533,0,0,0-2.291-3.267,3.578,3.578,0,0,0-1.951-.133c-.577.118-1.153.192-1.744.355.591.163,1.168.236,1.744.355a3.351,3.351,0,0,1,1.478.443,2.734,2.734,0,0,1,1.331,2.277,3.566,3.566,0,0,0,2.188,3.326,3.456,3.456,0,0,0,1.951.192c.577-.118,1.153-.192,1.744-.355C96.776,431.186,96.2,431.112,95.623,430.994Zm91.659-57.864a2.908,2.908,0,0,1-1.434-.488,2.708,2.708,0,0,1-1.257-2.336,3.567,3.567,0,0,0-2.306-3.282,3.508,3.508,0,0,0-1.937-.118c-.577.118-1.168.177-1.744.34.577.163,1.168.237,1.744.355a3.555,3.555,0,0,1,1.478.444,2.734,2.734,0,0,1,1.331,2.277,3.561,3.561,0,0,0,2.173,3.326,3.479,3.479,0,0,0,1.951.192c.591-.118,1.168-.192,1.759-.355C188.45,373.322,187.874,373.248,187.282,373.13ZM142.5,299.7a3.448,3.448,0,0,1-1.36.739,2.675,2.675,0,0,1-2.543-.68,3.622,3.622,0,0,0-3.9-.813,3.444,3.444,0,0,0-1.508,1.257c-.325.488-.695.961-.99,1.478.532-.3.99-.651,1.493-.976a3.11,3.11,0,0,1,1.36-.68,2.739,2.739,0,0,1,2.543.769,3.572,3.572,0,0,0,3.947.695A3.683,3.683,0,0,0,143,300.2c.325-.5.68-.961.976-1.478C143.463,299.019,143,299.374,142.5,299.7Zm12.773,80.675c-.118-.591-.192-1.168-.355-1.744-.163.577-.237,1.153-.355,1.744a3.285,3.285,0,0,1-.444,1.464,2.668,2.668,0,0,1-2.277,1.331,3.612,3.612,0,0,0-3.326,2.188,3.457,3.457,0,0,0-.192,1.952c.118.576.192,1.168.355,1.744.163-.577.237-1.168.355-1.744a3.367,3.367,0,0,1,.488-1.449,2.737,2.737,0,0,1,2.351-1.242,3.569,3.569,0,0,0,3.267-2.306A3.526,3.526,0,0,0,155.275,380.374ZM98.742,384.04c-.118-.577-.192-1.168-.355-1.744-.163.577-.237,1.168-.355,1.744a3.555,3.555,0,0,1-.444,1.478,2.686,2.686,0,0,1-2.277,1.316,3.612,3.612,0,0,0-3.326,2.188,3.457,3.457,0,0,0-.192,1.951c.118.591.192,1.168.355,1.745.163-.577.237-1.153.355-1.745a3.235,3.235,0,0,1,.488-1.434,2.715,2.715,0,0,1,2.351-1.257,3.584,3.584,0,0,0,3.267-2.306A3.517,3.517,0,0,0,98.742,384.04Zm27.675-59.357c-.118-.591-.192-1.168-.355-1.744-.163.577-.237,1.153-.355,1.744a3.485,3.485,0,0,1-.444,1.464,2.668,2.668,0,0,1-2.277,1.331,3.612,3.612,0,0,0-3.326,2.188,3.457,3.457,0,0,0-.192,1.951c.118.577.192,1.168.355,1.745.163-.577.237-1.168.355-1.745a3.366,3.366,0,0,1,.488-1.449,2.7,2.7,0,0,1,2.351-1.242,3.569,3.569,0,0,0,3.267-2.306A3.525,3.525,0,0,0,126.417,324.684Zm6.121,116.289c-.118-.591-.177-1.168-.34-1.759-.163.591-.237,1.168-.355,1.759a3.554,3.554,0,0,1-.443,1.464,2.668,2.668,0,0,1-2.277,1.331,3.633,3.633,0,0,0-3.341,2.188,3.323,3.323,0,0,0-.177,1.951c.118.577.192,1.168.355,1.744.163-.577.237-1.168.355-1.744a3.114,3.114,0,0,1,.473-1.449,2.737,2.737,0,0,1,2.351-1.242,3.588,3.588,0,0,0,3.282-2.306A3.515,3.515,0,0,0,132.538,440.973Zm-8.309-31.194a3.074,3.074,0,0,1-1.36.665,2.728,2.728,0,0,1-2.543-.769,3.572,3.572,0,0,0-3.947-.695,3.682,3.682,0,0,0-1.464,1.286c-.325.5-.695.961-.991,1.493.532-.31.991-.665,1.493-.991a3.226,3.226,0,0,1,1.36-.724,2.678,2.678,0,0,1,2.543.665,3.616,3.616,0,0,0,3.9.813,3.444,3.444,0,0,0,1.508-1.257c.325-.488.695-.946.991-1.478C125.19,409.084,124.732,409.439,124.229,409.779Zm75.708-6.475a3.233,3.233,0,0,1-1.36.665,2.717,2.717,0,0,1-2.543-.769,3.572,3.572,0,0,0-3.947-.695,3.682,3.682,0,0,0-1.464,1.286c-.325.5-.695.961-.99,1.493.532-.311.99-.665,1.493-.991a3.18,3.18,0,0,1,1.345-.724,2.67,2.67,0,0,1,2.558.665,3.616,3.616,0,0,0,3.9.813,3.444,3.444,0,0,0,1.508-1.257c.325-.488.68-.946.991-1.478C200.9,402.609,200.44,402.964,199.937,403.3Zm-29.05,45.844a3.272,3.272,0,0,1-1.36.68,2.756,2.756,0,0,1-2.558-.769,3.544,3.544,0,0,0-3.932-.695,3.585,3.585,0,0,0-1.464,1.286c-.325.5-.695.961-.991,1.478.532-.3.991-.65,1.478-.976a3.447,3.447,0,0,1,1.36-.739,2.712,2.712,0,0,1,2.558.68,3.592,3.592,0,0,0,3.888.813,3.486,3.486,0,0,0,1.523-1.257c.325-.488.68-.961.976-1.478C171.848,448.468,171.375,448.823,170.887,449.148Zm-65.936,7.5a3.23,3.23,0,0,1-1.36.665,2.717,2.717,0,0,1-2.543-.769,3.572,3.572,0,0,0-3.947-.695,3.682,3.682,0,0,0-1.464,1.286c-.325.5-.695.961-.99,1.493.532-.3.99-.665,1.493-.99a3.352,3.352,0,0,1,1.345-.724,2.706,2.706,0,0,1,2.558.665,3.589,3.589,0,0,0,3.9.813,3.516,3.516,0,0,0,1.508-1.242c.325-.5.68-.961.991-1.493C105.912,455.949,105.454,456.318,104.951,456.644Z" transform="translate(-82.058 -285.952)" fill="#fff"/><g transform="translate(0 43.539)"><path d="M131.951,353.416c-4.135,4.138-7.148,8.691-10.2,13.172a151.878,151.878,0,0,0-7.988,13.925c-.058.106.22.163.282.061,2.813-4.576,6.178-9.014,9.277-13.512s6.681-8.83,9.484-13.388C132.989,353.379,132.214,353.155,131.951,353.416Z" transform="translate(-69.224 -303.363)" fill="#263238"/><path d="M96.128,347.068c-2.42,9.425-4.592,18.905-6.322,28.46a214.986,214.986,0,0,0-3.692,28.79A97.993,97.993,0,0,0,86.53,418.7a48.166,48.166,0,0,0,3.217,13.773,18.56,18.56,0,0,0,8.983,9.821c4.1,1.944,8.876,2.4,13.577,2.207,9.479-.415,18.88-3.044,28.159-5.748,9.289-2.756,18.466-5.939,27.638-9.132s18.308-6.521,27.4-9.958,18.2-6.845,27.261-10.4l-.083.226-2.355-5.035,2.651,4.886.084.154-.167.075q-13.321,5.976-26.809,11.573-13.512,5.531-27.173,10.721-13.682,5.129-27.665,9.493c-9.333,2.775-18.814,5.643-28.839,6.069-4.967.151-10.183-.337-14.906-2.618a19.437,19.437,0,0,1-6.184-4.732,24.2,24.2,0,0,1-4.027-6.555,50.655,50.655,0,0,1-3.289-14.562,86.727,86.727,0,0,1-.114-14.766C85.519,384.625,90.258,365.611,96.128,347.068Z" transform="translate(-83.634 -306.345)" fill="#263238"/><path d="M127.385,319.522c.111,4,.093,8,.152,12l-.03,11.994c.018,7.991-.185,16-.1,23.947l.041,1.471.035.708.028.322.016.115c0,.027.006.032,0,0l-.012-.033-.087-.169a.98.98,0,0,0-.547-.414l-.152-.056a.634.634,0,0,0-.274-.012.592.592,0,0,0-.123.036l.013-.006.065-.031c.092-.044.164-.068.273-.127l.631-.331,1.289-.717c1.721-.98,3.436-2,5.148-3.026l10.306-6.119,10.337-6.085,10.415-5.967.1-.056.043.1.724,1.657-.9-1.569.14.04q-4.919,3.442-9.9,6.793l-10.025,6.6c-3.349,2.189-6.744,4.305-10.14,6.429-1.71,1.042-3.421,2.082-5.165,3.1l-1.325.752-.695.37c-.109.061-.271.129-.4.191l-.106.047-.072.031a1.746,1.746,0,0,1-.67.089.961.961,0,0,1-.241-.04,1.255,1.255,0,0,1-.6-.488.944.944,0,0,1-.1-.194l-.021-.061-.038-.123a1.524,1.524,0,0,1-.044-.186l-.038-.256-.043-.424-.046-.788L125.2,367.5c-.028-8.048.239-16.026.633-24.024l.643-11.984C126.774,327.5,127.006,323.509,127.385,319.522Z" transform="translate(-63.752 -319.522)" fill="#263238"/><path d="M162.253,387.446c-4.327-8.685-8.586-17.409-13.239-25.937-2.643-4.846-5.262-9.707-7.952-14.528-.1-.182-.43-.036-.343.158,3.995,8.888,8.022,17.794,12.426,26.5,4.382,8.663,8.691,17.362,13.189,25.969q3.834,7.342,8.107,14.43c.056.095.223.021.18-.083C170.923,404.927,166.61,396.193,162.253,387.446Z" transform="translate(-56.334 -306.426)" fill="#263238"/><path d="M129.839,325.927a61.387,61.387,0,0,1-1.37,6.951,60.739,60.739,0,0,1-2.087,6.771,60.761,60.761,0,0,1,1.37-6.951A61.9,61.9,0,0,1,129.839,325.927Z" transform="translate(-63.185 -316.458)" fill="#263238"/></g></g></g><g transform="translate(55.853)"><g transform="translate(0)"><g transform="translate(27.331 89.215)"><g transform="translate(0 0.005)"><path d="M161.8,322.574c-8.963,4.151-28.07-6.941-36.837-17.3-.6-.713-1.093-9.392-2.194-19.911-.692-6.381-1.614-13.469-2.923-19.877-.275-1.313,42.18,1.558,42.18,1.558s-1.208,14.237,1.141,25.394a14.555,14.555,0,0,0,.813,2.572c.038.118.1.257.146.424C165.958,300.261,170.459,318.557,161.8,322.574Z" transform="translate(-119.842 -265.139)" fill="#eb9481"/></g><path d="M121.537,265.148c4.076,10.452,16.159,35.247,37.7,31.355a24.72,24.72,0,0,0,4.065-1.063,1.9,1.9,0,0,0-.142-.43,16.556,16.556,0,0,1-.819-2.562c-2.349-11.177-1.132-25.415-1.132-25.415S130.585,264.962,121.537,265.148Z" transform="translate(-119.031 -265.136)" fill="#263238"/></g><g transform="translate(14.281 11.22)"><path d="M111.317,240.631c-2.472,15,10.709,55.624,22.2,63.538,16.664,11.472,41.168,9.5,50.215-9.892,8.77-18.8-9.346-71.437-21.926-78.342C143.279,205.763,114.965,218.469,111.317,240.631Z" transform="translate(-111.015 -212.379)" fill="#eb9481"/></g><g transform="translate(47.758 38.251)"><g transform="translate(5.285 19.168)"><path d="M141.242,245.013c-.059-.1-.166.206-.123.315,1.063,2.673,1.83,5.915-.293,7.7-.065.055-.009.188.077.143C143.739,251.67,142.677,247.376,141.242,245.013Z" transform="translate(-135.53 -242.975)" fill="#263238"/><path d="M139.509,243.713c-4.471,1.242-1.659,10.091,2.484,8.941C146.069,251.522,143.255,242.673,139.509,243.713Z" transform="translate(-137.234 -243.629)" fill="#263238"/></g><g transform="translate(26.322 12.544)"><path d="M151.5,241.776c-.012-.111.256.062.288.174.784,2.769,2.148,5.809,4.917,5.931.086,0,.123.145.027.16C153.565,248.578,151.794,244.524,151.5,241.776Z" transform="translate(-151.45 -237.907)" fill="#263238"/><path d="M153.047,239.374c4.3-1.736,7.458,7,3.473,8.606C152.6,249.563,149.441,240.829,153.047,239.374Z" transform="translate(-151.464 -239.147)" fill="#263238"/></g><path d="M136.553,244.739a36.542,36.542,0,0,0,3.4-1.727c1.3-.676,2.4-1.081,3.131-2.42a1.964,1.964,0,0,0-.622-2.315c-1.542-1.041-3.337-.608-4.933.142a7.149,7.149,0,0,0-3.681,3.607C133.047,243.694,134.954,245.372,136.553,244.739Z" transform="translate(-133.66 -227.316)" fill="#263238"/><path d="M156.645,235.684a36.049,36.049,0,0,1-3.808.2c-1.462.064-2.62.265-3.922-.531a1.967,1.967,0,0,1-.618-2.318c.815-1.671,2.587-2.192,4.343-2.34a7.159,7.159,0,0,1,4.992,1.283C159.159,233.026,158.346,235.432,156.645,235.684Z" transform="translate(-126.731 -230.663)" fill="#263238"/><path d="M143.556,263.472c.86.433,1.8,1.109,2.818.875a7.57,7.57,0,0,0,2.728-1.625.1.1,0,0,1,.164.1,3.877,3.877,0,0,1-3.007,2.594,3.065,3.065,0,0,1-2.927-1.74C143.24,263.534,143.431,263.409,143.556,263.472Z" transform="translate(-129.044 -215.337)" fill="#263238"/><g transform="translate(14.672 5.444)"><path d="M143.7,267.911a9.8,9.8,0,0,0,7.55,2.175,12.357,12.357,0,0,0,3.408-.914,3.57,3.57,0,0,0,.618-.278c.192-.087.365-.169.571-.282a.715.715,0,0,0,.355-.789l-.006-.019a1.383,1.383,0,0,0-.115-.272l-.006-.021-.083-.24c-.612-2.129-1.838-5.273-1.838-5.273.894.142,5.389.661,4.976-.423-3.446-8.956-7.278-18.916-12.6-27.1a.267.267,0,0,0-.479.229c2.972,8.739,7.458,16.9,10.584,25.626-1.407-.078-3.734-.31-4.831.062-.272.182,2.475,6.036,2.674,7.015a.369.369,0,0,1,.013.106c-3.4,1.579-6.416,1.357-10.615.069C143.623,267.492,143.464,267.746,143.7,267.911Z" transform="translate(-143.584 -234.345)" fill="#263238"/></g><g transform="translate(14.607 38.93)"><path d="M153.092,257.663a11.627,11.627,0,0,1-3.344,4.845,5.218,5.218,0,0,1-2.966,1.15c-2.373.121-3.065-1.872-3.21-3.718a12.569,12.569,0,0,1,.145-2.943A15.044,15.044,0,0,0,153.092,257.663Z" transform="translate(-143.54 -256.996)" fill="#263238"/><path d="M149.737,261.6a5.219,5.219,0,0,1-2.966,1.15c-2.373.121-3.065-1.872-3.21-3.718C145.985,258.528,148.815,259.383,149.737,261.6Z" transform="translate(-143.53 -256.089)" fill="#ff98b9"/></g></g><path d="M131.988,265.808c1.783-8.8-4.859-22.306-1.131-26.632,8.07-9.364,28.747,3.965,41.573,2.4,12.43-1.514,15.561-10.032,12.028-19.825s-12.961-15.47-27.168-15.767c-14.7-.308-27.1,7.186-33.657,12.68,0,0,2.493-5.433,1.119-6.848s-6.839,4.2-8.434,6.5a18.907,18.907,0,0,0-2.274,6.376,20.16,20.16,0,0,0-5.746.139c-3.147.485-6.811,3.468-6.941,4.238s4.465.77,7.654.525c0,0-4.9,8.6-3.916,15.3s15.518,37.261,18.073,37.285C126.452,282.219,131.264,269.384,131.988,265.808Z" transform="translate(-101.355 -204.22)" fill="#263238"/><path d="M109.379,221.309c.1-.08.274.055.177.161a21.418,21.418,0,0,0-5.5,10.359c-.878,4.661.043,9.45,1.634,13.855,3.1,8.569,8.428,16.018,13.218,23.681.139.225-.237.467-.39.253-5.594-7.789-11.354-16.292-14.265-25.506C101.77,236.254,102.45,226.766,109.379,221.309Z" transform="translate(-100.598 -196.898)" fill="#263238"/><path d="M120.782,226.575a30.6,30.6,0,0,1,11.363-.705c3.623.438,6.907,2.24,10.27,3.545,7.546,2.932,15.666,4.913,23.758,3.369a.081.081,0,0,1,.028.16c-7.336,1.889-14.906.6-21.946-1.845-3.551-1.236-7.009-3.213-10.686-4.011-4.181-.908-8.477-.3-12.668.151A.337.337,0,0,1,120.782,226.575Z" transform="translate(-92.189 -194.816)" fill="#263238"/><path d="M121.3,214.728a59.542,59.542,0,0,1,15.264-7.3,46.914,46.914,0,0,1,16-2.614c9.392.324,18.605,5.1,21.972,14.275a20.269,20.269,0,0,1-.04,14.587.261.261,0,0,1-.489-.18c2.723-8.758-.041-18.6-7.844-23.8-8.379-5.584-19.044-4.732-28.268-2.024a85.819,85.819,0,0,0-16.552,7.12C121.307,214.8,121.27,214.75,121.3,214.728Z" transform="translate(-91.819 -204.789)" fill="#263238"/><g transform="translate(9.371 63.599)"><path d="M126.344,256.428s-11.459-11.979-17.035-7.692,4.485,22.662,12.049,24.222a7.361,7.361,0,0,0,9.144-5.414Z" transform="translate(-107.694 -247.809)" fill="#eb9481"/><path d="M110.853,251.955c-.117.007-.114.171-.007.2,5.328,1.258,8.687,5.5,11.279,10.037-1.779-1.625-3.965-2.328-6.178-.17-.115.114.041.3.177.247a4.527,4.527,0,0,1,5.165.8,21.886,21.886,0,0,1,2.972,3.619c.3.414,1.078.049.828-.442l-.061-.109C124.169,259.722,117.818,251.54,110.853,251.955Z" transform="translate(-106.224 -245.833)" fill="#263238"/></g></g><g transform="translate(23.723 118.889)"><path d="M164.809,285.208l-5.5,25.435L124.592,285.57l-6.733,11.094s37.1,42.916,36.911,40.722l6.31-22.19,16.6,11.858-7.263-35.642Z" transform="translate(-117.183 -285.208)" fill="#ebebeb"/><path d="M175.3,307.19c-1.4-5.846-2.639-11.769-4.305-17.542-.059-.206-.4-.244-.411.012-.211,5.911,5.248,28.231,6.147,33.654-.024-.018-.052-.034-.074-.052-.7-.517-15.269-10.322-15.36-10.109-1.572,3.619-6.223,19.79-6.483,21.232-5.872-6.82-30.4-33.472-37.047-39.736a.208.208,0,0,0-.319.266c5.411,7.337,37.248,42.6,37.586,42.434.275.146,6.082-19.784,6.558-23.443,2.565,2.241,17.517,13.56,17.411,12.674A189.009,189.009,0,0,0,175.3,307.19Z" transform="translate(-117.402 -283.164)" fill="#263238"/></g></g></g><g transform="translate(225.159 458.081)"><g transform="translate(0 101.475)"><rect width="164.387" height="7.373" fill="#455a64"/><rect width="82.738" height="7.373" transform="translate(0 0.008)" fill="#263238"/></g><g transform="translate(80.819)"><path d="M252.723,467.519l160.207-.03,22.616-108.812-160.207.03Z" transform="translate(-252.723 -358.677)" fill="#37474f"/><path d="M306.175,400.59a9.434,9.434,0,0,0,9.558,10.675,12.152,12.152,0,0,0,11.8-10.68,9.434,9.434,0,0,0-9.558-10.675A12.149,12.149,0,0,0,306.175,400.59Z" transform="translate(-227.181 -343.736)" fill="#fff"/></g></g></g></svg>