<svg xmlns="http://www.w3.org/2000/svg" width="78.412" height="78.38" viewBox="0 0 78.412 78.38"><g transform="translate(0 -0.001)"><path d="M96.5,0c.046.049.083.129.138.144a3.964,3.964,0,0,1,2.87,2.971,1.9,1.9,0,0,1,.049.525c0,5.384.014,10.769,0,16.153a3.885,3.885,0,0,1-3.211,3.663,12.039,12.039,0,0,1-1.655.118c-4.772,0-9.544.009-14.315-.005a4.7,4.7,0,0,1-2.819-.877,3.762,3.762,0,0,1-1.406-2.243,6.724,6.724,0,0,1-.168-1.725C76,13.9,75.986,9.079,76,4.256A4.125,4.125,0,0,1,77.39.965,3.223,3.223,0,0,1,79.049.138c.056-.008.1-.09.149-.137Zm-15.1,10.4a6.5,6.5,0,0,1,5.848-5.162,5.931,5.931,0,0,1,3.758.831,6.843,6.843,0,0,1,3.22,4.315h2.729c0-2.076,0-4.112,0-6.149a1.452,1.452,0,0,0-1.626-1.627H80.574a1.9,1.9,0,0,0-.457.005c-.5.13-1.084.136-1.287.748a2.415,2.415,0,0,0-.1.739c-.008,1.937-.005,3.875,0,5.813,0,.167.03.333.045.488Zm12.884,2.663c-.222.525-.5,1.06-.673,1.626a5.375,5.375,0,0,1-1,1.5,4.179,4.179,0,0,1-1.413,1.127,8.608,8.608,0,0,1-1.63.737,6.143,6.143,0,0,1-1.766.289,9.235,9.235,0,0,1-1.769-.273,4.358,4.358,0,0,1-1.637-.714,14.527,14.527,0,0,1-1.385-1.183A4.289,4.289,0,0,1,81.968,14.7c-.236-.539-.424-1.1-.629-1.641H78.757V20.2l.615.625H96.054a1.079,1.079,0,0,0,.776-.926c.029-.246.122-.488.126-.732.014-1,.006-1.99.006-2.985V13.227c-.092-.073-.151-.159-.211-.16-.814-.009-1.628-.006-2.46-.006m-6.55,2.568a3.956,3.956,0,0,0,4-3.863A3.913,3.913,0,0,0,83.92,11.7a3.868,3.868,0,0,0,3.821,3.928" transform="translate(-21.156 0)" fill="#91ddea"/><path d="M0,12.183a5.1,5.1,0,0,0,.286-.568A3.587,3.587,0,0,1,3.7,9.117C7.73,9.1,11.762,9.105,15.793,9.1c1.378,0,2.756.008,4.134.009a3.135,3.135,0,0,1,2.233.935,3.539,3.539,0,0,1,1.18,1.8,7.053,7.053,0,0,1,.225,1.4q.025,7.578.006,15.157a4.115,4.115,0,0,1-2.205,3.779,4.913,4.913,0,0,1-1.209.356,1.561,1.561,0,0,1-.382.013q-8.038,0-16.075,0a3.542,3.542,0,0,1-1.908-.6A3.878,3.878,0,0,1,.156,29.784a2.038,2.038,0,0,0-.156-.3V12.183M20.835,29V12.669a1.37,1.37,0,0,0-.987-.952H4.355c-.128,0-.255.006-.382,0a1.218,1.218,0,0,0-.945.4A1.711,1.711,0,0,0,2.6,13.444q0,7.388,0,14.778a2.7,2.7,0,0,0,0,.382,1.4,1.4,0,0,0,.92,1.265,2.4,2.4,0,0,0,.746.08q7.5.006,15.007,0h.527A1.373,1.373,0,0,0,20.835,29" transform="translate(0 -2.535)" fill="#91ddea"/><path d="M27.376,55.877c.024-4.354.048-8.659.075-12.964,0-.039.063-.076.12-.144h2.555q0,1.63.007,3.263t0,3.292v6.545H41.125l.639.758a6.971,6.971,0,0,1-1.024,4.521,8.138,8.138,0,0,1-3.484,3.16c-.129.063-.248.147-.368.219a22.476,22.476,0,0,1,1.738,1.517,19.2,19.2,0,0,1,1.328,1.739,7.509,7.509,0,0,1,1.041,1.989,15.173,15.173,0,0,1,.615,2.071c.147.73.183,1.484.27,2.254H52.061a4.682,4.682,0,0,1-.168-3.425,4.912,4.912,0,0,1,2.352-2.634,4.641,4.641,0,0,1,.683-5.638c-.2-.292-.416-.595-.619-.907a4.279,4.279,0,0,1-.626-3.141,4.59,4.59,0,0,1,4.39-3.821c.919,0,1.837,0,2.756,0h.563V36.322H64.12V54.529c.854,0,1.664-.006,2.474,0a4.707,4.707,0,0,1,3.878,2.01,3.378,3.378,0,0,1,.714,2.1,14.154,14.154,0,0,1-.1,1.585,3.588,3.588,0,0,1-.994,1.906,2.776,2.776,0,0,0-.193.284,4.63,4.63,0,0,1,1.287,2.575,4.762,4.762,0,0,1-.437,2.742,4.308,4.308,0,0,1-2.123,2.023,4.581,4.581,0,0,1,.119,4.573,4.644,4.644,0,0,1-3.8,2.445,5.465,5.465,0,0,1,.409,2.295,4.528,4.528,0,0,1-1.6,3.138,4.9,4.9,0,0,1-3.348,1.117c-1.582-.03-3.165-.007-4.747-.007H54.95v5.179h-2.6v-5.1c-.484-.1-.931-.158-1.355-.289a4.486,4.486,0,0,1-3.188-3.4,4.008,4.008,0,0,1,.159-2.464,1.708,1.708,0,0,0,.093-.283c.009-.043-.018-.094-.039-.185H40.159a1.794,1.794,0,0,1-.976-1.811c.018-.305,0-.613,0-.919a8.862,8.862,0,0,0-2.627-6.3,9.151,9.151,0,0,0-4.176-2.43,4.768,4.768,0,0,0-1.79-.225,2.187,2.187,0,0,1-1.088-.239,1.158,1.158,0,0,1-.735-1.2,1.267,1.267,0,0,1,.838-1.145,2.741,2.741,0,0,1,.805-.144c1.225-.015,2.45.022,3.675-.014a4.887,4.887,0,0,0,4.493-2.785c.159-.31.307-.625.463-.945-.655-.152-8.595-.206-11.98-.087l-.548.365-.364.708v28.9H23.588a2.379,2.379,0,0,1-.031-.276q0-14.24,0-28.48a3.778,3.778,0,0,1,1.171-2.767,3.7,3.7,0,0,1,2.65-1.09m28.812,3.206a5.655,5.655,0,0,0,.249.836,1.986,1.986,0,0,0,1.877,1.176c2.728.022,5.457.016,8.185,0a2.081,2.081,0,0,0,1.323-.444,1.891,1.891,0,0,0,.517-2.479,2.071,2.071,0,0,0-1.877-1.028q-4.092-.028-8.185,0a1.956,1.956,0,0,0-1.968,1.718.914.914,0,0,1-.121.221M51.494,76.952a2.092,2.092,0,0,0-1.138,1.819,2.239,2.239,0,0,0,1.232,1.794,8.712,8.712,0,0,0,1.09.134q3.9.018,7.8.005a2.132,2.132,0,0,0,2.268-2.334,2.392,2.392,0,0,0-2.593-1.639c-2.09.036-4.181.005-6.271.012a6.69,6.69,0,0,0-2.389.209M66.967,63.712c-2.878,0-5.832,0-8.786,0a1.912,1.912,0,0,0-1.525.794,3.2,3.2,0,0,0-.427,1.153,2.06,2.06,0,0,0,1.5,1.88h9.485a1.974,1.974,0,0,0,1.333-2.352,2.118,2.118,0,0,0-1.575-1.478M54.4,71.521a2.019,2.019,0,0,0,1.465,2.6h9.191A2.392,2.392,0,0,0,66.6,72.728V71.694a2.32,2.32,0,0,0-1.406-1.4H55.738A2.284,2.284,0,0,0,54.4,71.521" transform="translate(-6.558 -10.113)" fill="#555"/><path d="M49.838,19.951c2.653,0,5.307.009,7.961,0A3.955,3.955,0,0,1,61.431,22.9a5.3,5.3,0,0,1,.143,1.194q-.005,7.617,0,15.233a4.158,4.158,0,0,1-1.086,2.884A3.843,3.843,0,0,1,58.2,43.4a18.156,18.156,0,0,1-3.033.118c-4.236.01-8.472.019-12.708-.007a4.6,4.6,0,0,1-2.895-.871,4.084,4.084,0,0,1-1.569-3.418q.009-7.54,0-15.08a4.061,4.061,0,0,1,1.054-2.9,3.577,3.577,0,0,1,2.681-1.288c2.7-.006,5.409,0,8.114,0Zm9.037,20.1c.027-.752.077-1.531.08-2.31.009-2.8,0-5.61,0-8.414,0-1.631.006-3.264,0-4.9-.006-1.225-.429-1.9-1.838-1.893-4.9.031-9.79.012-14.686.012-.153,0-.307-.01-.459,0a1.254,1.254,0,0,0-1.245,1,2.782,2.782,0,0,0-.122.965q0,6.885,0,13.768a4.707,4.707,0,0,0,.231,1.9l.619.582H58.112l.763-.724" transform="translate(-10.577 -5.554)" fill="#926cdc"/><path d="M36.309,11.7V9.145H62.294a5,5,0,0,1,.051,1.243c.014.428,0,.857,0,1.312Z" transform="translate(-10.109 -2.546)" fill="#555"/><path d="M55.151,74.273v2.56a6.5,6.5,0,0,1-1.324.044c-.433.012-.866,0-1.345,0-.1-.841-.013-1.673-.053-2.551a5.991,5.991,0,0,1,1.352-.053c.432-.013.865,0,1.37,0" transform="translate(-14.598 -20.677)" fill="#926cdc"/><path d="M7.241,19.166l.337-.662a1.667,1.667,0,0,1,1.365-.324A9.643,9.643,0,0,0,12.588,19.8a1.56,1.56,0,0,0,.127-.387,3.6,3.6,0,0,1,3.363-3.091,3.5,3.5,0,0,1,3.544,2.492,1.479,1.479,0,0,0,.6.75c.419.276.8.61,1.162.892a2.7,2.7,0,0,0,.122.416,1.055,1.055,0,0,1-.242,1.249c-.271.305-.566.589-.857.874a3.13,3.13,0,0,0-.815,1.485,4.356,4.356,0,0,1-.742,1.543,4.745,4.745,0,0,1-3.419,1.994c-.577.045-1.154.1-1.732.1q-2.22.016-4.44,0c-.448,0-.9-.062-1.308-.092a4.169,4.169,0,0,1-.564-.613,1.215,1.215,0,0,1,.175-1.53c.335-.346.711-.653,1.064-.973a8.382,8.382,0,0,1-1.383-5.739m9.727.092c-.844-.463-1.009-.432-1.639.265v1.865a1.2,1.2,0,0,0-.125.225,1.335,1.335,0,0,1-1.569.987,13.063,13.063,0,0,1-1.707-.236c-.6-.124-1.178-.312-1.785-.477a.624.624,0,0,0-.015.235,6.13,6.13,0,0,0,1.019,1.747c.195.225.359.477.535.714v.787h3.829a1.624,1.624,0,0,1,.219-.135,2.2,2.2,0,0,0,1.437-2.1A1.843,1.843,0,0,1,17.711,22c.181-.2.369-.4.546-.585l-.87-.791-.418-1.367" transform="translate(-2.003 -4.544)" fill="#91ddea"/><path d="M48.88,32.39h2.528c.014-.187.038-.354.04-.522,0-.662,0-1.325,0-1.988a5.283,5.283,0,0,1,.242-2.129l.7-.556h4.359v2.559H54.218a10,10,0,0,0-.035,1.318c-.006.407,0,.815,0,1.263.854.133,1.715-.023,2.58.087v2.567H54.194V40.17H51.457V35.011H48.88Z" transform="translate(-13.609 -7.572)" fill="#926cdc"/></g></svg>