<svg xmlns="http://www.w3.org/2000/svg" xmlns:xlink="http://www.w3.org/1999/xlink" width="108" height="108" viewBox="0 0 108 108"><defs><linearGradient id="a" x1="0.5" x2="0.5" y2="1" gradientUnits="objectBoundingBox"><stop offset="0" stop-color="#8eecff"/><stop offset="1" stop-color="#743fdb"/></linearGradient></defs><rect width="108" height="108" opacity="0" fill="url(#a)"/><g transform="translate(5357.113 659.114)"><path d="M-5246.848-647.114c.175.065.345.14.523.195a5.73,5.73,0,0,1,4.092,5.434,5.744,5.744,0,0,1-4.1,5.424,5.636,5.636,0,0,1-6.743-3.245c-.115-.275-.209-.559-.328-.877h-5.434c-.236.663-.335,12.786-.147,15.916a32.12,32.12,0,0,0,5.586.077,5.761,5.761,0,0,1,3.086-3.786,5.567,5.567,0,0,1,3.749-.411,5.71,5.71,0,0,1,4.317,5.417,5.679,5.679,0,0,1-4.249,5.544,5.5,5.5,0,0,1-4.332-.662,5.848,5.848,0,0,1-2.581-3.531h-5.553v15.894a29.924,29.924,0,0,0,5.567.089,5.813,5.813,0,0,1,3.26-3.836,5.5,5.5,0,0,1,3.607-.3,5.673,5.673,0,0,1,4.277,5.845,5.713,5.713,0,0,1-4.6,5.178c-2.329.379-5.257-.443-6.578-4.223-.188-.016-.4-.05-.61-.051-1.367,0-2.734.007-4.1-.008a6.036,6.036,0,0,1-1.22-.125,2.79,2.79,0,0,1-2.1-2.266,7.846,7.846,0,0,1-.066-1.144q-.007-7.013,0-14.027v-1.017h-7.235a2.466,2.466,0,0,0-.082.266,2.4,2.4,0,0,1-2.159,2.131c-.777.138-1.559.254-2.3.374l-2.083,5.01c.362.493.8,1.084,1.228,1.677a2.49,2.49,0,0,1-.277,3.716c-.5.506-.995,1.018-1.513,1.5a2.454,2.454,0,0,1-3.221.245c-.362-.244-.708-.513-1.061-.771l-1-.728a17.98,17.98,0,0,1-4.849,2c-.105.623-.213,1.261-.322,1.9-.045.268-.077.541-.143.8a2.423,2.423,0,0,1-2.4,1.959c-.792.03-1.586.024-2.378,0a2.441,2.441,0,0,1-2.5-2.048c-.127-.557-.184-1.13-.278-1.695-.049-.294-.109-.587-.141-.757l-4.994-2.08c-.534.391-1.166.868-1.812,1.325a2.473,2.473,0,0,1-3.472-.27q-.765-.742-1.508-1.508a2.427,2.427,0,0,1-.25-3.465c.443-.622.9-1.233,1.32-1.8l-2.083-5.011c-.7-.114-1.5-.281-2.307-.368a2.478,2.478,0,0,1-2.165-2.557,20.544,20.544,0,0,0,0-2.214,2.488,2.488,0,0,1,2.281-2.626c.756-.091,1.507-.232,2.2-.34l2.056-4.983a4.674,4.674,0,0,0-.251-.4c-.367-.51-.755-1.005-1.113-1.521a2.409,2.409,0,0,1,.274-3.339c.452-.475.953-.907,1.384-1.4a2.6,2.6,0,0,1,3.792-.311c.565.468,1.182.873,1.659,1.222l5-2.079c.081-.489.187-1.154.3-1.819a5.933,5.933,0,0,1,.186-.962,2.157,2.157,0,0,1,1.87-1.621,21.523,21.523,0,0,1,3.351-.011,2.13,2.13,0,0,1,1.949,1.73c.167.63.227,1.288.337,1.933.05.293.105.584.136.752l5,2.079c.531-.391,1.163-.868,1.807-1.327a2.466,2.466,0,0,1,3.474.261c.531.513,1.057,1.032,1.564,1.568a2.411,2.411,0,0,1,.249,3.343c-.465.67-.961,1.318-1.371,1.878l2.079,5c.579.1,1.276.219,1.974.331a2.575,2.575,0,0,1,2.557,2.443h7.248v-.928c0-4.7.055-9.407-.024-14.108-.038-2.206,1.229-3.652,3.492-3.517,1.523.09,3.057.017,4.6.017.087-.217.161-.388.225-.564a5.713,5.713,0,0,1,3.821-3.648,4.211,4.211,0,0,0,.424-.188Zm-42.113,43.06a19.548,19.548,0,0,0,.379-2.475c.037-1.34.69-1.905,1.974-2.133a11.9,11.9,0,0,0,4.547-1.978,1.355,1.355,0,0,1,1.8.044c.189.157.4.292.594.438l1.836,1.345,1.837-1.634c-.652-.885-1.26-1.725-1.882-2.554a1.337,1.337,0,0,1-.1-1.67,15.311,15.311,0,0,0,2.266-5.485,1.231,1.231,0,0,1,1.129-1.024c.4-.059.811-.11,1.214-.175.688-.112,1.374-.233,2.037-.346v-2.4c-1.106-.176-2.178-.355-3.252-.516a1.272,1.272,0,0,1-1.15-1.1c-.108-.506-.235-1.01-.385-1.5a13.909,13.909,0,0,0-1.777-3.76,1.433,1.433,0,0,1,.067-1.878c.171-.213.326-.438.488-.658.449-.609.9-1.219,1.365-1.854l-1.726-1.709c-.858.635-1.625,1.2-2.393,1.77-.868.64-1.174.66-2.066.086a14.674,14.674,0,0,0-5.042-2.064,1.39,1.39,0,0,1-1.291-1.365c-.073-.485-.121-.975-.2-1.46-.083-.528-.184-1.053-.277-1.577h-2.375a3.2,3.2,0,0,0-.122.417c-.126.864-.24,1.729-.366,2.593a1.373,1.373,0,0,1-1.189,1.372,14.471,14.471,0,0,0-5.33,2.209,1.311,1.311,0,0,1-1.664-.052q-1.081-.813-2.177-1.6a2.9,2.9,0,0,0-.4-.219l-1.743,1.63c.639.87,1.241,1.712,1.867,2.537a1.416,1.416,0,0,1,.042,1.81,13.622,13.622,0,0,0-2.1,5.025,1.532,1.532,0,0,1-1.522,1.422c-.19.014-.379.044-.568.074-.8.128-1.6.259-2.387.387v2.378c.315.066.6.139.895.185.755.119,1.509.241,2.267.333a1.3,1.3,0,0,1,1.253,1.186c.022.134.079.262.107.395a12.942,12.942,0,0,0,1.912,4.578,1.668,1.668,0,0,1-.114,2.359c-.578.716-1.1,1.48-1.58,2.137l1.729,1.758c.791-.581,1.635-1.181,2.457-1.812a1.344,1.344,0,0,1,1.729-.095,14.352,14.352,0,0,0,5.33,2.207,1.382,1.382,0,0,1,1.177,1.291c.122.837.235,1.675.362,2.511.031.206.1.408.148.625Zm41.065-34.3a3.141,3.141,0,0,0,3.182-3.146,3.212,3.212,0,0,0-3.133-3.142,3.14,3.14,0,0,0-3.148,3.093A3.07,3.07,0,0,0-5247.9-638.358Zm-3.1,15.5a3.149,3.149,0,0,0,3.116,3.128,3.219,3.219,0,0,0,3.166-3.194,3.162,3.162,0,0,0-3.149-3.106A3.092,3.092,0,0,0-5251-622.859Zm0,18.525a3.091,3.091,0,0,0,3.05,3.171,3.178,3.178,0,0,0,3.231-3.107,3.156,3.156,0,0,0-3.087-3.159A3.066,3.066,0,0,0-5251-604.334Z" transform="translate(-26.237)" fill="#fff"/><path d="M-5345.114-373.943a2.292,2.292,0,0,1,1.89-.687c2.379.036,4.758,0,7.137.021a2.047,2.047,0,0,0,1.205-.389c1.6-1.05,3.215-2.063,4.838-3.07a2.074,2.074,0,0,1,.833-.292,1.152,1.152,0,0,1,1.222.768,1.157,1.157,0,0,1-.317,1.341,4.182,4.182,0,0,1-.759.48,32.765,32.765,0,0,0-4.864,3.176,2.033,2.033,0,0,1-1.355.461c-2.16-.02-4.32-.008-6.48-.008h-.844v13.8h.833c1.722,0,3.447-.054,5.167.014,2.072.082,4.141.257,6.21.412,1.5.112,2.993.255,4.489.389q3.264.293,6.528.592c1.468.132,2.938.258,4.408.39,1.6.144,3.208.3,4.814.434,1.552.132,3.1.327,4.657.355a26,26,0,0,0,9.125-1.7,76.934,76.934,0,0,0,11.229-5.326c1.293-.707,2.581-1.424,3.871-2.137.048-.026.095-.055.143-.08a1.255,1.255,0,0,1,1.841.413,1.215,1.215,0,0,1-.583,1.734c-5.021,2.756-9.96,5.677-15.373,7.647a30.492,30.492,0,0,1-8.186,1.875,31.092,31.092,0,0,1-4.011-.054c-1.445-.081-2.884-.251-4.326-.38q-3.428-.309-6.855-.615c-2.1-.185-4.191-.358-6.286-.545-2.149-.192-4.3-.414-6.446-.589-1.633-.133-3.269-.267-4.906-.3-2.323-.051-4.648-.032-6.973,0a2.145,2.145,0,0,1-1.876-.73Z" transform="translate(0 -209.838)" fill="#fff"/><path d="M-5216.523-421.417c.746-.4,1.456-.8,2.185-1.165a4.1,4.1,0,0,1,4.546.405,4.051,4.051,0,0,1,1.56,2.519c.032.153.068.306.122.551.848-.441,1.634-.861,2.43-1.261a7.451,7.451,0,0,1,1.269-.56,4.264,4.264,0,0,1,5.357,3.256c.034.154.063.309.1.493.3-.065.563-.124.827-.178a4.688,4.688,0,0,1,5.252,2.69,4.711,4.711,0,0,1-1.5,5.715,8.568,8.568,0,0,1-.975.6q-5.462,2.981-10.928,5.952c-.192.1-.381.216-.58.3a1.168,1.168,0,0,1-1.6-.517,1.154,1.154,0,0,1,.4-1.638c.18-.122.379-.216.571-.32q5.533-3.02,11.071-6.035a2.479,2.479,0,0,0,1.363-1.539,2.09,2.09,0,0,0-.63-2.235,2.118,2.118,0,0,0-2.365-.391,11.111,11.111,0,0,0-1.229.65c-3.654,2.021-7.284,4.086-10.967,6.054a39.012,39.012,0,0,1-12.843,4.194,37.451,37.451,0,0,1-7.435.425c-1.906-.1-3.807-.334-5.706-.542-2.034-.224-4.065-.486-6.1-.736a3.971,3.971,0,0,1-.8-.151,1.2,1.2,0,0,1-.823-1.117,1.231,1.231,0,0,1,.843-1.186,2.133,2.133,0,0,1,.475-.123c2.328-.29,4.659-.568,6.987-.861,1.922-.243,3.841-.509,5.764-.752,1.976-.249,3.956-.478,5.932-.724.7-.088,1.41-.177,2.1-.313a2.022,2.022,0,0,0,1.665-2.271,2.029,2.029,0,0,0-1.946-1.861c-.3-.018-.6-.012-.9-.012-5.03,0-10.061.007-15.091-.012a4.286,4.286,0,0,1-1.428-.263,25.611,25.611,0,0,0-10.87-1.48,19.346,19.346,0,0,0-4.486.893,6.457,6.457,0,0,1-.7.213,1.224,1.224,0,0,1-1.547-.852,1.21,1.21,0,0,1,.858-1.537c.8-.267,1.616-.5,2.439-.686a26.559,26.559,0,0,1,14.445.852c.155.051.309.107.464.157a1.881,1.881,0,0,0,.208.036c.207-.1.452-.222.691-.348q7.359-3.859,14.714-7.724a4.6,4.6,0,0,1,3.064-.642,4.3,4.3,0,0,1,3.565,3.307C-5216.64-421.948-5216.592-421.71-5216.523-421.417Zm-15.329,15.279,0,.059c.149.024.3.059.448.071a36.581,36.581,0,0,0,7.759-.3,35.31,35.31,0,0,0,11.349-3.517c3.322-1.709,6.561-3.58,9.832-5.384a2.1,2.1,0,0,0,.457-.342,1.692,1.692,0,0,0,.449-1.808,1.67,1.67,0,0,0-1.335-1.189,2.124,2.124,0,0,0-1.481.316q-3.4,1.794-6.806,3.582-3.255,1.715-6.507,3.435c-.032.126-.053.232-.084.334a4.556,4.556,0,0,1-3.859,3.439c-1.509.235-3.029.4-4.544.589Zm-1.525-10.569a4.26,4.26,0,0,0,.513.079c2.375,0,4.749.013,7.124-.01a2.142,2.142,0,0,0,.919-.274c1.063-.553,2.11-1.137,3.164-1.711.574-.313,1.162-.6,1.718-.946a1.866,1.866,0,0,0,.838-1.979,1.8,1.8,0,0,0-1.663-1.452,2.878,2.878,0,0,0-1.314.339c-3.58,1.853-7.146,3.735-10.716,5.61C-5232.955-416.967-5233.108-416.867-5233.377-416.707Zm15.358,2.835c2.167-1.141,4.263-2.243,6.357-3.348a2.231,2.231,0,0,0,.342-.222,1.81,1.81,0,0,0,.6-1.913,1.657,1.657,0,0,0-1.513-1.182,3.012,3.012,0,0,0-1.3.368c-2.168,1.142-4.317,2.321-6.47,3.491-.179.1-.34.229-.56.38A5.059,5.059,0,0,1-5218.019-413.872Z" transform="translate(-68.635 -172.996)" fill="#fff"/><path d="M-5247-560.42a9.343,9.343,0,0,1-9.37-7.534,9.327,9.327,0,0,1,7.534-10.889,9.325,9.325,0,0,1,10.721,7.369,9.054,9.054,0,0,1-.83,5.967,2.288,2.288,0,0,1-.358.544,1.162,1.162,0,0,1-1.492.225,1.2,1.2,0,0,1-.552-1.472c.07-.205.173-.4.264-.6a6.788,6.788,0,0,0-4.477-9.462,6.815,6.815,0,0,0-8.459,6.239,6.8,6.8,0,0,0,7.073,7.11,14.024,14.024,0,0,0,2.38-.522,3.665,3.665,0,0,1,.94-.2,1.2,1.2,0,0,1,1.057,1,1.114,1.114,0,0,1-.5,1.211,4.758,4.758,0,0,1-1.029.487A7.949,7.949,0,0,1-5247-560.42Z" transform="translate(-69.168 -53.2)" fill="#fff"/></g></svg>