<svg xmlns="http://www.w3.org/2000/svg" width="86.798" height="86.823" viewBox="0 0 86.798 86.823"><g transform="translate(5680.28 -1523.7)"><path d="M-5660.626,1737.2c0-.056,0-.113,0-.17a2.821,2.821,0,0,0-2.953-2.926c-1.607.052-3.218.011-4.828.011h-4.493c-1.58,0-3.161.011-4.744,0a2.568,2.568,0,0,0-1.735.7,4.839,4.839,0,0,0-.9,1.345v23.9c.045.025.123.041.131.075a2.471,2.471,0,0,0,1.5,1.676c.2.084.4.19.588.281h2.052c.677,0,1.354-.007,2.034,0s1.338-.039,2.016.027l2.862-.029h.836c1.61,0,3.22.011,4.83,0a2.755,2.755,0,0,0,2.512-1.662,3.092,3.092,0,0,0,.3-1.449Q-5660.631,1748.088-5660.626,1737.2Zm-2.88,21.909a.587.587,0,0,1-.057.063.169.169,0,0,1-.068.041c-.253,0-.507.009-.761.009h-12.982v-22.359h13.775C-5663.44,1737.618-5663.377,1752.639-5663.506,1759.108Z" transform="translate(0 -162.758)" fill="#555"/><path d="M-5655.044,1536.358c.014-.5-.117-.994-.138-1.492a7.127,7.127,0,0,0-.1-.944,11.15,11.15,0,0,0-.971-2.946,12.482,12.482,0,0,0-4.354-5.1,12.434,12.434,0,0,0-5.51-2.074l-.1-.014c-.055-.007-.11-.017-.165-.022-.114-.011-.227-.02-.34-.029-.344-.027-.69-.041-1.042-.041-.143,0-.283,0-.423.007a11.2,11.2,0,0,0-2.525.371,13,13,0,0,0-5.568,3.036,12.6,12.6,0,0,0-2.973,4.214,9.723,9.723,0,0,0-.873,3.177c0,.086-.1.165-.151.249v3.22c.3.227.118.557.184.836a13.1,13.1,0,0,0,3.714,6.664,11.973,11.973,0,0,0,3.145,2.178,12.5,12.5,0,0,0,3.131,1.03,12.765,12.765,0,0,0,2.9.292c.385-.02.768-.1,1.153-.154a11.491,11.491,0,0,0,1.474-.233,13.2,13.2,0,0,0,6.657-4.253c.27-.317.512-.654.741-.947h.088a12.659,12.659,0,0,0,1.409-2.907h-.043c.038-.188.052-.324.093-.451A13.054,13.054,0,0,0-5655.044,1536.358Zm-12.794,9.751a9.821,9.821,0,0,1-9.606-9.909c.034-5.115,4.511-9.805,9.814-9.595a9.7,9.7,0,0,1,9.724,9.844A9.769,9.769,0,0,1-5667.838,1546.109Z" transform="translate(0)" fill="#91ddea"/><path d="M-5413.745,1543.48H-5411v-19.441h8.437v22.3h-30.718c-.13-.743-.174-7.737-.066-11.049a82.937,82.937,0,0,1,8.416-.076c.066.915.018,1.838.027,2.758.009.9,0,1.808,0,2.712v2.8h2.7v-13.847h8.453Zm8.318.005v-16.618c-.479,0-.925-.008-1.371,0a7.276,7.276,0,0,0-1.289.039v16.577Zm-11.268.01c.146-.568.168-10.152.025-11h-2.6v11Zm-13.77-5.411v5.437c.912-.05,1.793.051,2.661-.058v-5.379Z" transform="translate(-190.969 -0.262)" fill="#926cdc"/><path d="M-5584.62,1863.3h-.785q-26.9,0-53.8.016a4.384,4.384,0,0,1-4.109-3.032,8.776,8.776,0,0,1-.245-1.214c-.041-.419-.01-.845-.01-1.336l2.863-.03a6.407,6.407,0,0,0,.156,1.923,1.174,1.174,0,0,0,1.064.795,8.124,8.124,0,0,0,.847.009h53.826c.068.122.184.24.188.358C-5584.611,1861.6-5584.62,1862.41-5584.62,1863.3Z" transform="translate(-28.389 -258.367)" fill="#555"/><path d="M-5624.157,1709.469v2.67c-.208.011-.451.038-.691.038q-6.991,0-13.98,0c-.2,0-.4-.016-.594,0a1.526,1.526,0,0,0-1.478,1.594c-.007.392,0,.786,0,1.261h-2.939q.122-1.315.242-2.557a9.157,9.157,0,0,1,.519-1.071,3.956,3.956,0,0,1,3.469-1.968l15.166,0C-5624.363,1709.44-5624.282,1709.456-5624.157,1709.469Z" transform="translate(-28.188 -143.68)" fill="#555"/><path d="M-5547.867,1599.255c.013.453,0,.9,0,1.338a.665.665,0,0,1-.072.077.141.141,0,0,1-.07.036c-.141.007-.283.009-.424.009-9.8,0-19.594,0-29.469,0a12.622,12.622,0,0,0,1.409-2.907h28.562A6.526,6.526,0,0,1-5547.867,1599.255Z" transform="translate(-79.195 -57.328)" fill="#555"/><path d="M-5409.28,1635.4h2.832c.013.231.035.448.035.664,0,4.683.011,9.367,0,14.051a4.979,4.979,0,0,1-1,3.274,3.638,3.638,0,0,1-2.777,1.488c-3.356.049-6.714.021-10.072.021a.621.621,0,0,1-.175-.068v-2.664h9.122c.169,0,.34.01.508,0a1.535,1.535,0,0,0,1.531-1.545c.01-.169,0-.339,0-.508V1635.4Z" transform="translate(-200.998 -86.406)" fill="#555"/><path d="M-5374.854,1820.855c-.141-.34-.487-.158-.73-.278a4.349,4.349,0,0,1-2.522-3.2,13.987,13.987,0,0,1-.124-2.087c-.017-.309,0-.619,0-1.013-1.04-1.017-2.129-2.044-3.173-3.115a8.024,8.024,0,0,1-2.091-3.908,8.371,8.371,0,0,1-.32-2.552,9.555,9.555,0,0,1,2.221-5.7,9.379,9.379,0,0,1,3.209-2.479,10.471,10.471,0,0,1,2.689-.784,11.652,11.652,0,0,1,2.425-.117,9.452,9.452,0,0,1,5.316,1.852,9.779,9.779,0,0,1,2.751,3.22,10,10,0,0,1,.879,2.571,8.861,8.861,0,0,1,.124,2.592,7.823,7.823,0,0,1-.551,2.408,10.2,10.2,0,0,1-2.323,3.53c-.9.892-1.8,1.793-2.695,2.69,0,.781.026,1.543-.005,2.3a4.077,4.077,0,0,1-2.216,3.581c-.326.184-.734.188-1,.488Zm3.13-8.492c1.019-1.011,2.054-1.974,3.015-3.006a6.185,6.185,0,0,0,1.453-6.133,6.261,6.261,0,0,0-4.356-4.465,8.354,8.354,0,0,0-2.562-.289,6.71,6.71,0,0,0-4.126,1.3,6.32,6.32,0,0,0-2.64,4.8,6.3,6.3,0,0,0,1.75,4.885c.927,1.023,1.95,1.959,2.912,2.917h.849a42.553,42.553,0,0,0-.03-5.426c-.445,0-.9.027-1.344-.008s-.955.167-1.433-.19c.021-.872-.022-1.76.025-2.643,2.652-.109,7.72-.064,8.446.074-.038.913.057,1.835-.054,2.747-.916.053-1.783-.025-2.646.048v5.4Zm-3.641,2.913a8.565,8.565,0,0,1,0,.879c-.147,1.363.7,2.048,2.035,1.782l.667-.651c.044-.729.029-1.363.024-2.01Z" transform="translate(-229.318 -210.332)" fill="#91ddea"/><path d="M-5343.661,1759.028v5.509c-.915.122-1.834.013-2.746.06a37.412,37.412,0,0,1-.066-5.569Z" transform="translate(-258.166 -182.039)" fill="#91ddea"/><path d="M-5322.023,1768.714l-2.629-1.081,2.158-5.216,2.608,1.1Z" transform="translate(-275.097 -184.66)" fill="#91ddea"/><path d="M-5376.375,1763.529a15.3,15.3,0,0,1,2.521-1.124c.686,1.6,1.357,3.163,2.016,4.729a1.8,1.8,0,0,1,.048.5l-2.355.972A25.112,25.112,0,0,1-5376.375,1763.529Z" transform="translate(-235.088 -184.651)" fill="#91ddea"/><path d="M-5647.017,1808.279v2.674c-.093.066-.183.184-.272.185-2.7.01-5.407.008-8.142.008v-2.866Z" transform="translate(-19.223 -220.137)" fill="#926cdc"/><path d="M-5647.027,1759.038v2.581a80.558,80.558,0,0,1-8.419.051v-2.632Z" transform="translate(-19.21 -182.047)" fill="#926cdc"/><path d="M-5655.444,1786.39V1783.7h8.4v2.611A83.338,83.338,0,0,1-5655.444,1786.39Z" transform="translate(-19.212 -201.126)" fill="#926cdc"/><path d="M-5651.476,1562.3l1.728,1.783,7.244-7.246,2.047,1.993-9.276,9.276a37.685,37.685,0,0,1-3.689-3.753.744.744,0,0,1,.105-.213C-5652.743,1563.563-5652.164,1562.989-5651.476,1562.3Z" transform="translate(-20.776 -25.636)" fill="#91ddea"/><path d="M-5543.563,1678.441l1.617-1.506h-2.159c-.131-.738-.173-6.457-.067-8.463h2.213l-1.534-1.525c0-.162,0-.191,0-.218a.145.145,0,0,1,.03-.074c1.943-1.931,3.886-3.861,5.869-5.83.611.4,1.035,1.05,1.7,1.567v-2.229h8.465v2.279c.364-.352.63-.608.9-.866s.519-.507.725-.708l5.982,5.98-1.554,1.6h2.19c.131.739.174,6.429.067,8.464h-2.282l1.6,1.5c0,.186,0,.215,0,.242a.143.143,0,0,1-.03.074c-1.943,1.931-3.886,3.861-5.869,5.83-.61-.4-1.035-1.052-1.7-1.569v2.231h-8.466v-2.278c-.364.352-.63.608-.9.865s-.519.507-.726.71Zm15.873-11.644-2.615-1.105v-2.79h-2.7v2.819l-2.567,1.077-2.009-1.988c-.37.368-.693.677-1,1a5.808,5.808,0,0,0-.941,1.046l1.95,1.935c-.38.837-.631,1.74-1.08,2.536-.509,0-.961-.013-1.412,0a5.241,5.241,0,0,0-1.409.07c.046.909-.054,1.776.063,2.66h2.81l1.092,2.7-1.969,1.9c.311.318.621.638.935.953s.628.623.965.955l2.017-1.986,2.556,1.087c0,.513-.006.963,0,1.412a10.617,10.617,0,0,0,.031,1.393h2.709v-2.8l2.56-1.069c.706.649,1.311,1.349,1.9,1.855l1.906-1.906-1.855-1.84,1.091-2.684h2.81v-2.7h-2.83l-1.044-2.579,1.994-2.017c-.384-.366-.7-.681-1.035-.984a4.461,4.461,0,0,0-1-.885Z" transform="translate(-105.24 -105.562)" fill="#649abd"/><path d="M-5503.04,1696.8a4.209,4.209,0,0,1,4.206,4.258,4.139,4.139,0,0,1-4.26,4.185,4.138,4.138,0,0,1-4.165-4.2A4.2,4.2,0,0,1-5503.04,1696.8Zm1.355,4.3a1.4,1.4,0,0,0-1.289-1.448,1.41,1.41,0,0,0-1.439,1.3,1.365,1.365,0,0,0,1.293,1.441A1.356,1.356,0,0,0-5501.684,1701.106Z" transform="translate(-133.842 -133.904)" fill="#649abd"/></g></svg>