<svg xmlns="http://www.w3.org/2000/svg" width="75.931" height="75.914" viewBox="0 0 75.931 75.914"><g transform="translate(0 -0.001)"><path d="M35.368,75.932a2.694,2.694,0,0,0-.526-.128c-.367-.045-.735-.085-1.1-.126-.526-.057-1.07-.116-1.594-.191a34.269,34.269,0,0,1-8.912-2.505,37.917,37.917,0,0,1-20.964-22,34.336,34.336,0,0,1-2.133-9.76,2.717,2.717,0,0,0-.128-.613L0,40.585v-5.2c0-.01.006-.02.009-.03a2.776,2.776,0,0,0,.127-.608,34.735,34.735,0,0,1,2.217-9.971A37.86,37.86,0,0,1,24.406,2.513a34.691,34.691,0,0,1,8.926-2.2A39.223,39.223,0,0,1,37.922.04C38.97.04,40.04.082,41.1.166a37.93,37.93,0,0,1,7.476,1.37,1.375,1.375,0,0,1,1.166,1.442,1.4,1.4,0,0,1-1.412,1.4,1.523,1.523,0,0,1-.354-.043c-.293-.071-.586-.143-.879-.215-.957-.236-1.945-.48-2.944-.663a34,34,0,0,0-6.141-.567c-.811,0-1.632.031-2.442.09a36.082,36.082,0,0,0-9.081,1.841,34.442,34.442,0,0,0-10.369,5.708A34.891,34.891,0,0,0,2.951,35.455a33.18,33.18,0,0,0,.064,5.954A35.151,35.151,0,0,0,30.215,72.2a34.37,34.37,0,0,0,7.629.894c.411,0,.826-.008,1.233-.025a35.235,35.235,0,0,0,32.842-26.23,35.551,35.551,0,0,0,1.041-6.392,34.058,34.058,0,0,0-.075-5.948,32.367,32.367,0,0,0-1.158-6.073,1.957,1.957,0,0,1-.115-1.179,1.4,1.4,0,0,1,1.3-1.052h.062a1.3,1.3,0,0,1,1.333.914c.307.975.578,2.024.831,3.209a36.943,36.943,0,0,1,.735,9.636,36.607,36.607,0,0,1-4.034,15.165,37.838,37.838,0,0,1-22.916,19.22,33.843,33.843,0,0,1-7.732,1.46,2.656,2.656,0,0,0-.616.13l-.026.008Z" transform="translate(0 -0.017)" fill="#555"/><path d="M47.162,73.143a26,26,0,0,1-25.192-20.43,25.884,25.884,0,0,1,3.608-19.507,25.7,25.7,0,0,1,15.9-11.135,25.09,25.09,0,0,1,5.719-.666h.193a25.366,25.366,0,0,1,6.523.87,1.464,1.464,0,0,1,1.226,1.269,1.359,1.359,0,0,1-.277,1.026,1.271,1.271,0,0,1-.86.524,3.073,3.073,0,0,1-.321.018,1.651,1.651,0,0,1-.431-.049,22.13,22.13,0,0,0-5.933-.778c-.608,0-1.236.022-1.869.066a21.5,21.5,0,0,0-8.319,2.285A22.842,22.842,0,0,0,25.048,41.322,23.031,23.031,0,0,0,30.9,63.415a22.376,22.376,0,0,0,11.467,6.316,23.627,23.627,0,0,0,4.928.525A23.015,23.015,0,0,0,69.528,41.484a3.309,3.309,0,0,1-.111-.615,1.367,1.367,0,0,1,1.222-1.48,1.131,1.131,0,0,1,.219-.021,1.4,1.4,0,0,1,1.294.961,18.207,18.207,0,0,1,.543,2.232,25.641,25.641,0,0,1,.3,7.282,25.06,25.06,0,0,1-2.954,9.629,25.872,25.872,0,0,1-15.492,12.6,26.525,26.525,0,0,1-7.39,1.07" transform="translate(-9.3 -9.303)" fill="#555"/><path d="M66.043,39.4a1.427,1.427,0,0,1-1.03-.439A1.407,1.407,0,0,1,64.9,37.1a4.967,4.967,0,0,1,.382-.4l.117-.116,2.356-2.357c3.563-3.565,7.248-7.25,10.882-10.864a3,3,0,0,0,.923-2.048c.051-.838.148-1.7.241-2.533.045-.4.09-.8.131-1.2q.125-1.236.244-2.472l.223-2.282c.088-.907.176-1.815.273-2.722A1.683,1.683,0,0,1,81.2,9.047q3.022-3.011,6.036-6.03L89.76.5A1.444,1.444,0,0,1,90.784,0a1.576,1.576,0,0,1,.59.128,1.388,1.388,0,0,1,.9,1.383c.109,1.474.236,2.969.358,4.414q.1,1.2.2,2.408c.031.381.053.76.077,1.161.011.186.021.373.033.561l.049.774.759.157c.064.014.12.027.172.04a2.894,2.894,0,0,0,.466.082q1.023.075,2.046.146c.909.064,1.818.127,2.726.2l.607.046c.984.072,2,.148,2.986.263a1.287,1.287,0,0,1,1.13.871,1.322,1.322,0,0,1-.208,1.431,3.758,3.758,0,0,1-.313.335l-.065.065q-1.171,1.171-2.343,2.34c-1.9,1.893-3.861,3.851-5.775,5.8a2.66,2.66,0,0,1-1.846.8c-.939.071-1.884.173-2.8.271-.436.047-.872.094-1.309.138q-1.735.174-3.472.341-.593.056-1.185.109c-.78.071-1.586.144-2.383.231a2.4,2.4,0,0,0-1.039.425,2.319,2.319,0,0,0-.474.424c-.025.028-.05.057-.077.083L67.418,38.6l-.11.111a4.992,4.992,0,0,1-.41.386,1.364,1.364,0,0,1-.855.3M88.293,6.218a39.166,39.166,0,0,0-4.587,4.411l-.224.248L82.406,21.6l10.5-1.059,5.958-5.951L97.082,14.2a1.77,1.77,0,0,0-.366-.068l-.758-.055c-1.315-.1-2.631-.192-3.946-.281-1.184-.08-1.686-.544-1.789-1.658-.047-.508-.08-1.033-.111-1.541-.023-.365-.046-.73-.074-1.1-.044-.57-.094-1.141-.145-1.718l-.068-.781-.139-1.615Z" transform="translate(-28.081 0)" fill="#926cdc"/><path d="M57.078,70.3c-.107,0-.215,0-.322-.006h-.1a13.6,13.6,0,0,1-2.718-26.919,14.458,14.458,0,0,1,2.885-.265c.328,0,.664.008,1.027.024a1.5,1.5,0,0,1,1.281.585,1.318,1.318,0,0,1,.137,1.562A1.473,1.473,0,0,1,58,46.04a1.263,1.263,0,0,1-.131-.007,12.139,12.139,0,0,0-1.27-.068,10.243,10.243,0,0,0-7.088,2.765,10.444,10.444,0,0,0-3.485,9.333A10.727,10.727,0,0,0,67.1,59.254a10.863,10.863,0,0,0,.319-2.568,1.454,1.454,0,0,1,.446-.972,1.43,1.43,0,0,1,1-.437h.024a1.566,1.566,0,0,1,1.4,1.455,13.706,13.706,0,0,1-9.627,12.985,12.506,12.506,0,0,1-3.579.587" transform="translate(-18.72 -18.739)" fill="#91ddea"/></g></svg>