<svg xmlns="http://www.w3.org/2000/svg" width="84.018" height="84" viewBox="0 0 84.018 84"><g transform="translate(6018.938 1390.201)"><path d="M-5937.067-1390.2a5.748,5.748,0,0,1,1.489,1.383,3.763,3.763,0,0,1,.649,2.085c0,.11,0,.22,0,.329q0,30.914.009,61.829a4.017,4.017,0,0,1-1.312,3.152,3.929,3.929,0,0,1-2.712,1.009c-2.771.018-5.543.006-8.315.006-.027,0-.055,0-.082,0a1.444,1.444,0,0,1-1.544-1.378,1.422,1.422,0,0,1,1.581-1.334c2.552-.016,5.1-.006,7.657-.006.274,0,.549.009.823-.006a1.229,1.229,0,0,0,1.259-1.241c.016-.191.005-.384.005-.576q0-25.151,0-50.3v-.778c-.062-.057-.081-.078-.1-.094s-.044-.041-.067-.041q-39.064-.012-78.129-.021h-.733c-.01.363-.025.681-.025,1q0,23.34,0,46.68,0,1.811,0,3.622a5.392,5.392,0,0,0,.008.576,1.222,1.222,0,0,0,1.238,1.175c.219.013.439.006.658.006,2.442,0,4.885-.005,7.328.006a3.564,3.564,0,0,1,1.049.141,1.283,1.283,0,0,1,.84,1.207,1.3,1.3,0,0,1-.833,1.212,2.721,2.721,0,0,1-.883.146q-3.951.016-7.9,0a4.075,4.075,0,0,1-3.418-1.654,1.551,1.551,0,0,1-.386-1.135,4.621,4.621,0,0,0,0-.494q0-31.779-.022-63.558a2.939,2.939,0,0,1,1.38-2.609c.154-.109.3-.228.451-.343Zm-.589,11.335c.041-.083.083-.13.084-.177.006-2.5.022-4.994.006-7.49a1.261,1.261,0,0,0-1.328-1.362c-.164-.01-.33,0-.494,0h-75.4c-.192,0-.385-.012-.576.006a1.273,1.273,0,0,0-1.248,1.279c-.009.109,0,.219,0,.329v7.418Z" fill="#555"/><path d="M-5933.884-1221.367v.936q0,14.161-.008,28.323a7.608,7.608,0,0,1-.193,1.95,5.047,5.047,0,0,1-4.805,3.662q-18.732-.03-37.462,0a5.06,5.06,0,0,1-4.983-4.883c0-.329-.007-.659-.007-.988q0-14.038,0-28.076v-.934c-.351-.38-.7-.767-1.056-1.142q-5.13-5.346-10.263-10.69c-.323-.337-.648-.673-.95-1.028a1.2,1.2,0,0,1-.241-1.37,1.286,1.286,0,0,1,1.221-.812c1.042-.038,2.083-.1,3.124-.135,1.563-.059,3.126-.093,4.688-.171a2,2,0,0,1,1.614.638c1.62,1.6,3.262,3.18,4.9,4.764a1.57,1.57,0,0,1,.614,1.2,1.29,1.29,0,0,1-1.932,1.13,3.219,3.219,0,0,1-.632-.518q-2.1-2.03-4.2-4.069c-.156-.152-.324-.293-.487-.439l-4.681.124,10.14,10.6h43.734l10.149-10.6-4.7-.121c-.522.493-1.1,1.031-1.673,1.582q-1.567,1.518-3.123,3.048a1.569,1.569,0,0,1-1.062.556,1.242,1.242,0,0,1-1.222-.678,1.279,1.279,0,0,1,.078-1.4,2.432,2.432,0,0,1,.333-.363q2.538-2.468,5.076-4.936a1.7,1.7,0,0,1,1.331-.517q3.988.166,7.976.307a1.274,1.274,0,0,1,1.212.821,1.211,1.211,0,0,1-.251,1.368c-.339.4-.7.77-1.064,1.146q-5.408,5.65-10.818,11.3C-5933.619-1221.665-5933.727-1221.541-5933.884-1221.367Zm-44.818.782v.815q0,13.915,0,27.83c0,.165-.006.33,0,.494a2.324,2.324,0,0,0,1.716,2.165,4.583,4.583,0,0,0,1.213.139q10.869.012,21.737.006c4.94,0,9.881-.019,14.82.011a2.567,2.567,0,0,0,2.7-2.65c-.025-9.386-.012-18.773-.015-28.159,0-.21-.032-.419-.052-.65Z" transform="translate(-19.473 -119.705)" fill="#926cdc"/><path d="M-5909.272-1257.611c0,.5.027.909-.007,1.315a1.311,1.311,0,0,1-1.083,1.185,1.244,1.244,0,0,1-1.333-.594,1.744,1.744,0,0,1-.2-.775c-.027-.712-.022-1.426-.006-2.139a1.331,1.331,0,0,1,1.19-1.437c.853-.192,1.714-.353,2.57-.531.294-.061.586-.13.869-.193l1.223-2.944-1.582-2.438c-.135-.207-.283-.405-.405-.619a1.273,1.273,0,0,1,.145-1.662q1.3-1.371,2.676-2.677a1.267,1.267,0,0,1,1.663-.14c.793.488,1.563,1.013,2.345,1.52.25.162.5.319.721.457l2.917-1.21c.15-.657.329-1.421.5-2.186.1-.453.173-.914.3-1.361a1.249,1.249,0,0,1,1.337-1.086q1.811-.032,3.622,0a1.229,1.229,0,0,1,1.381,1.129c.227.929.4,1.87.6,2.805.052.239.121.474.178.7l2.9,1.195c.155-.089.37-.2.572-.33.806-.52,1.6-1.059,2.413-1.567a1.328,1.328,0,0,1,1.862.166q1.274,1.227,2.5,2.5a1.306,1.306,0,0,1,.147,1.857c-.631.994-1.282,1.975-1.915,2.946.4.967.785,1.9,1.216,2.935,1,.216,2.084.452,3.173.691a3.931,3.931,0,0,1,.633.168,1.188,1.188,0,0,1,.82,1.122c.018.823.03,1.646,0,2.468a1.32,1.32,0,0,1-1.264,1.272,1.362,1.362,0,0,1-1.348-1.2c-.04-.407-.007-.821-.007-1.266a13.484,13.484,0,0,0-2.369-.594c-.315-.088-.647-.113-.965-.194a1.4,1.4,0,0,1-1.12-1.077,11.87,11.87,0,0,0-1.431-3.476,1.468,1.468,0,0,1,.04-1.7c.589-.891,1.166-1.789,1.792-2.752l-1.1-1.138c-.882.572-1.75,1.088-2.563,1.679a1.7,1.7,0,0,1-2.122.057,10.079,10.079,0,0,0-3.1-1.276,1.5,1.5,0,0,1-1.271-1.311c-.189-1.043-.443-2.074-.673-3.129h-1.571q-.268,1.226-.536,2.459a1.3,1.3,0,0,0-.019.164,1.95,1.95,0,0,1-1.758,1.943,8.256,8.256,0,0,0-2.782,1.18,1.668,1.668,0,0,1-2.051-.073c-.82-.587-1.687-1.11-2.575-1.688l-1.055,1.134c.088.159.182.35.3.528.459.714.912,1.434,1.393,2.134a1.539,1.539,0,0,1,.064,1.837,11.091,11.091,0,0,0-1.378,3.323,1.482,1.482,0,0,1-1.278,1.206C-5907.118-1258.086-5908.155-1257.852-5909.272-1257.611Z" transform="translate(-83.475 -89.745)" fill="#91ddea"/><path d="M-5851.654-1224.155a4.08,4.08,0,0,1-.124.653,1.319,1.319,0,0,1-1.316.917,1.3,1.3,0,0,1-1.2-1.055,4.8,4.8,0,0,1-.11-.813,6.343,6.343,0,0,0-5.413-5.737,6.361,6.361,0,0,0-7.045,4.8c-.07.318-.094.647-.137.972-.029.217-.043.437-.085.651a1.322,1.322,0,0,1-1.42,1.185,1.373,1.373,0,0,1-1.218-1.42,8.567,8.567,0,0,1,.182-1.712,9.131,9.131,0,0,1,7.423-7.094,9.061,9.061,0,0,1,10.26,7.122C-5851.752-1225.211-5851.726-1224.715-5851.654-1224.155Z" transform="translate(-116.386 -122.67)" fill="#91ddea"/><path d="M-5866.276-1362.523h-21.737a5.755,5.755,0,0,1-.822-.023,1.369,1.369,0,0,1-1.232-1.322,1.332,1.332,0,0,1,1.2-1.334,4.643,4.643,0,0,1,.738-.034q21.779,0,43.557,0a4.3,4.3,0,0,1,.977.092,1.178,1.178,0,0,1,.975,1.163,1.193,1.193,0,0,1-.872,1.324,3.6,3.6,0,0,1-1.05.128Q-5855.408-1362.518-5866.276-1362.523Z" transform="translate(-100.517 -19.471)" fill="#555"/><path d="M-5937.47-1363.559a1.264,1.264,0,0,1-1.247,1.26,1.272,1.272,0,0,1-1.333-1.268,1.258,1.258,0,0,1,1.34-1.256A1.262,1.262,0,0,1-5937.47-1363.559Z" transform="translate(-61.531 -19.794)" fill="#926cdc"/><path d="M-5987.932-1363.557a1.22,1.22,0,0,1-1.3,1.27,1.221,1.221,0,0,1-1.227-1.256,1.222,1.222,0,0,1,1.3-1.265A1.207,1.207,0,0,1-5987.932-1363.557Z" transform="translate(-22.215 -19.806)" fill="#926cdc"/><path d="M-5962.648-1363.559a1.229,1.229,0,0,1-1.217,1.268,1.217,1.217,0,0,1-1.309-1.258,1.21,1.21,0,0,1,1.3-1.263A1.222,1.222,0,0,1-5962.648-1363.559Z" transform="translate(-41.936 -19.803)" fill="#926cdc"/><path d="M-5797.174-1119.8c.039-1.479.049-2.959.124-4.435a4.052,4.052,0,0,1,4.116-3.708,4.076,4.076,0,0,1,4.146,3.587,13.549,13.549,0,0,1,.1,1.391q.014,3.289,0,6.579a4.9,4.9,0,0,1-.85,2.945,4.256,4.256,0,0,1-4.447,1.568,4.2,4.2,0,0,1-3.061-3.492c-.021-.218-.077-.435-.078-.653-.007-1.261,0-2.521,0-3.782Zm5.767-.051h-.006c0-1.341.025-2.682-.009-4.022a1.385,1.385,0,0,0-1.443-1.368,1.435,1.435,0,0,0-1.548,1.355c-.016.19-.01.383-.01.574q0,3.489,0,6.978c0,.192-.006.384.011.574a1.431,1.431,0,0,0,1.088,1.284,1.5,1.5,0,0,0,1.922-1.435C-5791.425-1117.222-5791.407-1118.536-5791.407-1119.85Z" transform="translate(-172.973 -204.557)" fill="#91ddea"/><path d="M-5894.674-1129.706a4.207,4.207,0,0,1,2.735.855,3.746,3.746,0,0,1,1.48,3.772,1.227,1.227,0,0,1-1.2,1.131,1.271,1.271,0,0,1-1.38-1.034,2.867,2.867,0,0,1-.055-.816,1.068,1.068,0,0,0-.72-1.084,1.793,1.793,0,0,0-1.591,0,1.166,1.166,0,0,0-.729,1.083,2.32,2.32,0,0,0,.937,2.147c.947.746,1.849,1.551,2.761,2.34.331.287.648.593.952.908a4.862,4.862,0,0,1,.235,5.787,4.466,4.466,0,0,1-7.028-.445,3.845,3.845,0,0,1-.515-2.608,1.254,1.254,0,0,1,1.388-1.213,1.311,1.311,0,0,1,1.274,1.266,2.979,2.979,0,0,1,.01.575,1.051,1.051,0,0,0,.785,1.118,1.971,1.971,0,0,0,1.447,0,1.159,1.159,0,0,0,.8-1.118,2.294,2.294,0,0,0-.881-2.089c-1-.809-1.937-1.7-2.946-2.5a4.854,4.854,0,0,1-1.784-5.131,3.529,3.529,0,0,1,1.944-2.423A3.891,3.891,0,0,1-5894.674-1129.706Z" transform="translate(-93.678 -203.176)" fill="#91ddea"/><path d="M-5844.587-1125.328c-.053,1.366-.022,2.616-.026,3.92.264.028.473.068.681.069.988.007,1.977,0,2.964.008a3.721,3.721,0,0,1,.893.1,1.274,1.274,0,0,1,.939,1.124,1.291,1.291,0,0,1-.783,1.322,2.866,2.866,0,0,1-.962.156c-1.2.017-2.407.007-3.594.007a14.429,14.429,0,0,0-.016,3.965,8.113,8.113,0,0,0,.987.134c.933.02,1.867.005,2.8.008a5.245,5.245,0,0,1,.658.023,1.249,1.249,0,0,1,1.088,1.065,1.242,1.242,0,0,1-.744,1.409,2.258,2.258,0,0,1-.8.153c-1.18.015-2.361.027-3.541,0a3.247,3.247,0,0,1-3.29-3.374q-.017-4.735,0-9.469a3.263,3.263,0,0,1,3.278-3.394c1.207-.039,2.415-.025,3.623,0a1.329,1.329,0,0,1,1.483,1.392,1.214,1.214,0,0,1-.849,1.183,3.615,3.615,0,0,1-.971.132c-.933.017-1.866,0-2.8.008C-5843.859-1125.386-5844.154-1125.354-5844.587-1125.328Z" transform="translate(-133.846 -204.414)" fill="#91ddea"/></g></svg>