<svg xmlns="http://www.w3.org/2000/svg" width="80.228" height="80.868" viewBox="0 0 80.228 80.868"><g transform="translate(4177.581 455.937)"><path d="M-4175.84-455.937c.619.631,1.233,1.267,1.858,1.892q3.955,3.96,7.916,7.914c.148.148.3.292.439.452a1.169,1.169,0,0,1-.024,1.694,1.153,1.153,0,0,1-1.636,0c-.12-.1-.228-.218-.339-.329l-9.308-9.311c-.093-.093-.189-.182-.275-.281a1.159,1.159,0,0,1,.113-1.8c.1-.087.2-.16.308-.239Z" transform="translate(0 0)" fill="#fff"/><path d="M-3844.118-455.937a4.608,4.608,0,0,1,.475.4,1.129,1.129,0,0,1,.093,1.449,3.567,3.567,0,0,1-.424.465q-4.652,4.656-9.309,9.309a3.471,3.471,0,0,1-.528.47,1.144,1.144,0,0,1-1.5-.2,1.143,1.143,0,0,1-.112-1.452,3.389,3.389,0,0,1,.421-.467q4.68-4.684,9.362-9.367c.2-.2.384-.407.576-.611Z" transform="translate(-254.026 0)" fill="#fff"/><path d="M-4100.881-455.937a3,3,0,0,1,.826,1.543c.354,1.424.789,2.826,1.152,4.247a1.188,1.188,0,0,1-1.522,1.466,1.227,1.227,0,0,1-.818-.973c-.339-1.265-.695-2.526-1.043-3.788a5.483,5.483,0,0,0-.166-.606,1.424,1.424,0,0,1,.623-1.891Z" transform="translate(-59.167 0)" fill="#fff"/><path d="M-3887.018-455.937a1.493,1.493,0,0,1,.634,1.895c-.426,1.376-.766,2.777-1.145,4.168a4.114,4.114,0,0,1-.142.45,1.19,1.19,0,0,1-1.533.74,1.193,1.193,0,0,1-.744-1.463c.3-1.167.627-2.327.945-3.489a7.264,7.264,0,0,0,.216-.755,2.6,2.6,0,0,1,.82-1.545Z" transform="translate(-226.918 0)" fill="#fff"/><path d="M-4097.726-357.723a19.176,19.176,0,0,1-1.978-.362,4.967,4.967,0,0,0-5.262,1.4,7.294,7.294,0,0,1-6.131,2.286,6.658,6.658,0,0,1-4.339-2.025,5.535,5.535,0,0,0-5.947-1.589,7.244,7.244,0,0,1-8.7-4.809c-.114-.349-.194-.709-.31-1.057a4.926,4.926,0,0,0-3.322-3.311,15.57,15.57,0,0,1-2.136-.783,7.28,7.28,0,0,1-3.729-8.248,6.11,6.11,0,0,0,.3-2.563,5.228,5.228,0,0,0-1.562-3.025,7.183,7.183,0,0,1-2.208-3.917,7.243,7.243,0,0,1,1.795-6.5c.14-.157.294-.3.441-.451a4.918,4.918,0,0,0,1.354-5.062,7.441,7.441,0,0,1-.089-4.119,7.225,7.225,0,0,1,4.817-5.112c.173-.061.351-.109.529-.153a5.179,5.179,0,0,0,3.99-4.02,8.069,8.069,0,0,1,.981-2.218,7.26,7.26,0,0,1,7.9-3.1,6.054,6.054,0,0,0,2.563.29,5.36,5.36,0,0,0,3.076-1.627,7.054,7.054,0,0,1,3.788-2.127,7.233,7.233,0,0,1,6.576,1.8c.234.211.438.457.676.663a4.851,4.851,0,0,0,4.38,1.216c.589-.127,1.176-.274,1.771-.357a7.319,7.319,0,0,1,8.046,5.459,7.337,7.337,0,0,0,.248.829,5.008,5.008,0,0,0,3.726,3.191,6.994,6.994,0,0,1,3.558,2.074,7.173,7.173,0,0,1,1.819,6.779,6.654,6.654,0,0,0-.3,2.641,5.344,5.344,0,0,0,1.641,3.07,6.919,6.919,0,0,1,2.087,3.638,7.151,7.151,0,0,1-1.958,6.889,5.822,5.822,0,0,0-1.747,3.1,5.184,5.184,0,0,0,.186,2.333,7.286,7.286,0,0,1-.751,5.921,7.119,7.119,0,0,1-4.5,3.34,5,5,0,0,0-3.282,2.259,8.338,8.338,0,0,0-.727,1.815,7.324,7.324,0,0,1-5.584,5.325A15.34,15.34,0,0,1-4097.726-357.723Zm.142-2.408a5.146,5.146,0,0,0,3.139-1.161,5.217,5.217,0,0,0,1.778-2.99,7.178,7.178,0,0,1,2.166-3.591,8.121,8.121,0,0,1,3.534-1.818,4.755,4.755,0,0,0,3.5-3.5,5.535,5.535,0,0,0-.085-2.953,7.263,7.263,0,0,1,1.916-7.258,8.7,8.7,0,0,0,.743-.817,4.846,4.846,0,0,0,.933-3.937,5.171,5.171,0,0,0-1.6-2.83,7.261,7.261,0,0,1-2.173-4.108,8.648,8.648,0,0,1,.271-3.663,4.792,4.792,0,0,0-.847-4.248,5.473,5.473,0,0,0-3.162-1.925,7.182,7.182,0,0,1-4.806-4.114,11,11,0,0,1-.52-1.566,4.844,4.844,0,0,0-3.736-3.567,5.579,5.579,0,0,0-2.728.146,7.251,7.251,0,0,1-7.259-1.91,9.6,9.6,0,0,0-.756-.693,4.81,4.81,0,0,0-4.074-.97,5.183,5.183,0,0,0-2.752,1.587,7.255,7.255,0,0,1-4.031,2.154,8.6,8.6,0,0,1-3.74-.254,4.781,4.781,0,0,0-3.924.623,5.185,5.185,0,0,0-2.231,3.31,7.225,7.225,0,0,1-3.159,4.365,9.31,9.31,0,0,1-2.612,1.064,4.794,4.794,0,0,0-3.412,3.406,5.341,5.341,0,0,0,.043,2.954,7.291,7.291,0,0,1-1.944,7.393,8.387,8.387,0,0,0-.59.636,4.833,4.833,0,0,0-1.019,4.137,5.173,5.173,0,0,0,1.588,2.751,7.275,7.275,0,0,1,2.171,4.11,8.662,8.662,0,0,1-.271,3.663,4.788,4.788,0,0,0,.848,4.249,5.524,5.524,0,0,0,3.162,1.927,7.234,7.234,0,0,1,4.99,4.547c.155.388.23.807.354,1.208a4.853,4.853,0,0,0,3.415,3.407,5.54,5.54,0,0,0,3.031-.065,7.264,7.264,0,0,1,7.2,1.863c.19.181.375.37.571.545a4.83,4.83,0,0,0,3.462,1.274,5.191,5.191,0,0,0,3.614-1.691,7.255,7.255,0,0,1,7.381-1.983C-4098.673-360.288-4098.124-360.226-4097.584-360.13Z" transform="translate(-27.12 -28.28)" fill="#fff"/><path d="M-4165.253-129.556a4.718,4.718,0,0,1-.322.632,3.629,3.629,0,0,1-.486.515q-4.519,4.52-9.041,9.038a5,5,0,0,1-.578.535,1.155,1.155,0,0,1-1.512-.13,1.152,1.152,0,0,1-.14-1.51,3.744,3.744,0,0,1,.428-.462q4.657-4.661,9.318-9.319a2.834,2.834,0,0,1,.6-.5A1.21,1.21,0,0,1-4165.253-129.556Z" transform="translate(-0.024 -256.464)" fill="#fff"/><path d="M-3843.334-120.074a1.264,1.264,0,0,1-.584,1.25,1.08,1.08,0,0,1-1.194,0,3.28,3.28,0,0,1-.536-.461q-4.69-4.685-9.374-9.374a3.305,3.305,0,0,1-.371-.408,1.143,1.143,0,0,1,.109-1.513,1.15,1.15,0,0,1,1.51-.16,2.4,2.4,0,0,1,.354.313q4.8,4.8,9.592,9.6A3.76,3.76,0,0,1-3843.334-120.074Z" transform="translate(-254.03 -256.427)" fill="#fff"/><path d="M-4171.537-164.744a1.174,1.174,0,0,1,1.273.889,1.136,1.136,0,0,1-.583,1.325,3.276,3.276,0,0,1-.661.243c-1.385.383-2.771.764-4.161,1.131a2.566,2.566,0,0,1-.847.115,1.169,1.169,0,0,1-1.017-.958,1.182,1.182,0,0,1,.677-1.292,3.089,3.089,0,0,1,.521-.176q2.156-.587,4.316-1.167C-4171.818-164.689-4171.614-164.727-4171.537-164.744Z" transform="translate(-0.022 -229.76)" fill="#fff"/><path d="M-4171.481-377.741c-.36-.087-.667-.154-.968-.236q-1.93-.526-3.857-1.06a3.466,3.466,0,0,1-.522-.168,1.19,1.19,0,0,1-.687-1.425,1.171,1.171,0,0,1,1.416-.814c1.218.3,2.425.646,3.636.976.5.138,1.013.263,1.505.435a1.076,1.076,0,0,1,.726,1.031,1.07,1.07,0,0,1-.622,1.092A3.406,3.406,0,0,1-4171.481-377.741Z" transform="translate(-0.012 -58.748)" fill="#fff"/><path d="M-3830.793-377.7a1.153,1.153,0,0,1-1.25-.923,1.145,1.145,0,0,1,.765-1.373c.492-.172,1.007-.279,1.511-.417,1.136-.309,2.267-.632,3.406-.924a1.2,1.2,0,0,1,1.57.777,1.193,1.193,0,0,1-.91,1.5c-1.606.469-3.224.9-4.838,1.336A1.193,1.193,0,0,1-3830.793-377.7Z" transform="translate(-272.614 -58.815)" fill="#fff"/><path d="M-3830.7-164.724c.066.016.244.055.42.1q2.119.574,4.237,1.152a3.416,3.416,0,0,1,.668.223,1.181,1.181,0,0,1,.584,1.4,1.174,1.174,0,0,1-1.356.8c-.486-.1-.963-.244-1.442-.375q-1.7-.466-3.4-.938a2.19,2.19,0,0,1-.441-.154,1.141,1.141,0,0,1-.594-1.32A1.174,1.174,0,0,1-3830.7-164.724Z" transform="translate(-272.619 -229.775)" fill="#fff"/><path d="M-4098.822-106.069c-.021.085-.057.237-.1.388q-.6,2.234-1.2,4.468a3.318,3.318,0,0,1-.119.374,1.2,1.2,0,0,1-1.454.767,1.2,1.2,0,0,1-.821-1.485c.273-1.063.579-2.118.871-3.176.174-.63.315-1.272.533-1.886a1.114,1.114,0,0,1,1.338-.7A1.216,1.216,0,0,1-4098.822-106.069Z" transform="translate(-59.193 -275.049)" fill="#fff"/><path d="M-3887.463-100.067a1.136,1.136,0,0,1-1.121-.923c-.327-1.1-.621-2.215-.927-3.323-.139-.5-.286-1.006-.409-1.514a1.191,1.191,0,0,1,.786-1.5,1.14,1.14,0,0,1,1.487.8c.492,1.681.963,3.369,1.39,5.067A1.162,1.162,0,0,1-3887.463-100.067Z" transform="translate(-226.939 -275.021)" fill="#fff"/><path d="M-4058.437-360.689a25.924,25.924,0,0,1-19.8,25.31,25.865,25.865,0,0,1-28.528-12.218,24.687,24.687,0,0,1-3.263-9.549,25.484,25.484,0,0,1,5.338-19.457,25.508,25.508,0,0,1,15.018-9.342c.64-.142,1.293-.227,1.942-.328a3.078,3.078,0,0,1,.551-.028,1.189,1.189,0,0,1,1.216,1.1,1.224,1.224,0,0,1-1,1.24c-.875.17-1.764.28-2.633.475a23.238,23.238,0,0,0-17.812,18.488c-1.546,8.551.966,15.867,7.268,21.808a21.9,21.9,0,0,0,12.412,5.867,22.989,22.989,0,0,0,21.158-7.877,21.829,21.829,0,0,0,5.228-10.455,23.031,23.031,0,0,0-4.767-19.773,22.993,22.993,0,0,0-14.165-8.327c-.438-.082-.886-.12-1.326-.192a1.216,1.216,0,0,1-1.137-1.27,1.152,1.152,0,0,1,1.38-1.072,24.925,24.925,0,0,1,3.712.68q13.8,4.03,18.178,17.75A22.023,22.023,0,0,1-4058.437-360.689Z" transform="translate(-53.131 -54.945)" fill="#fff"/><path d="M-4056.914-315.311c.233-.222.443-.413.645-.613,3.666-3.664,7.375-7.285,10.975-11.012a3.892,3.892,0,0,1,6.053.031c.773.86,1.609,1.666,2.452,2.458a3.822,3.822,0,0,1-.022,5.6c-3.111,3.027-6.151,6.126-9.222,9.195a4.274,4.274,0,0,1-.4.376,1.165,1.165,0,0,1-1.577-.066,1.151,1.151,0,0,1-.059-1.632c.149-.182.326-.342.493-.51l8.817-8.819a6.473,6.473,0,0,0,.493-.511,1.22,1.22,0,0,0-.031-1.718q-1.527-1.6-3.125-3.124a1.264,1.264,0,0,0-1.726,0c-.183.149-.343.326-.51.494-4,4-8.014,7.984-11.989,12.008-.96.972-1.632.942-2.505.024-1.36-1.429-2.781-2.8-4.177-4.194-.13-.13-.256-.265-.393-.388a1.286,1.286,0,0,0-2.01.022c-.85.824-1.678,1.671-2.515,2.508-.224.223-.458.436-.666.673a1.275,1.275,0,0,0,0,1.842c.086.1.184.188.277.281q3.99,3.991,7.979,7.982a3.4,3.4,0,0,0,2.28,1.105,3.3,3.3,0,0,0,2.632-1.019c.892-.893,1.789-1.783,2.677-2.681a1.326,1.326,0,0,1,.96-.472,1.12,1.12,0,0,1,1.053.57,1.16,1.16,0,0,1,0,1.2.8.8,0,0,1-.139.19c-1.2,1.179-2.324,2.454-3.625,3.511a5.562,5.562,0,0,1-6.933-.167c-.243-.2-.473-.418-.7-.641q-3.993-3.988-7.984-7.977a3.806,3.806,0,0,1-1.25-3.028,3.245,3.245,0,0,1,.863-2.147c1.2-1.25,2.408-2.505,3.682-3.683a3.554,3.554,0,0,1,4.935.092c1.254,1.2,2.462,2.449,3.692,3.674C-4057.327-315.689-4057.134-315.517-4056.914-315.311Z" transform="translate(-84.342 -100.657)" fill="#fff"/></g></svg>