<svg xmlns="http://www.w3.org/2000/svg" width="78.251" height="78.097" viewBox="0 0 78.251 78.097"><g transform="translate(-0.001)"><path d="M47.206,96.555A9.906,9.906,0,0,0,49.7,98.481c-.138.539-.589.941-.59,1.507a16.027,16.027,0,0,0-1.275,4.053c-.184.8-.241,1.614-.39,2.408a42.446,42.446,0,0,0-.169,4.416,8.447,8.447,0,0,0,.208,1.207c.017.373-.176.791.174,1.115a11.275,11.275,0,0,0,.564,2.884,10.5,10.5,0,0,0,.563,1.871c.307.788.663,1.559,1.033,2.32a33.425,33.425,0,0,0,1.867,3.168,24.22,24.22,0,0,0,4.51,4.986,17.785,17.785,0,0,0,4.448,2.961,5.658,5.658,0,0,0,1.295.649,5.539,5.539,0,0,1,1.321.563,16.768,16.768,0,0,0,2.982.993c.828.228,1.7.278,2.521.561a.364.364,0,0,0,.091,0c.892.061,1.784.146,2.677.176a13.87,13.87,0,0,0,2.747-.024c1.056-.179,2.128-.2,3.182-.483,1.1-.292,2.212-.542,3.3-.9a27.8,27.8,0,0,0,3.565-1.583,22.963,22.963,0,0,0,3.2-2.04,23.477,23.477,0,0,0,4.024-3.736,22.717,22.717,0,0,0,3.508-5.4c.587-1.261,1.091-2.544,1.562-3.843a15.3,15.3,0,0,0,.424-2.024c.089-.418.238-.827.3-1.248a7.586,7.586,0,0,1,.09-1.341,7.034,7.034,0,0,0,.157-2.13c.023-.7.025-1.405,0-2.106-.015-.374-.122-.742-.173-1.115s.124-.784-.186-1.114a12.035,12.035,0,0,0-.576-2.973,12.242,12.242,0,0,0-.768-2.333c-.236-.6-.543-1.18-.837-1.76a15.865,15.865,0,0,0-1.614-2.723.527.527,0,0,1-.063-.259l2.255-2.251c.24.333.527.712.794,1.1.544.8,1.716,3.4,2.3,4.632a20.942,20.942,0,0,1,.975,2.71,6.807,6.807,0,0,1,.476,2.008,7.14,7.14,0,0,0,.169.841c.035.259-.059.544.189.748-.13.664.2,1.281.191,1.939-.026,1.4.012,2.809-.016,4.213a10.13,10.13,0,0,1-.207,2.3c-.144.561-.134,1.14-.324,1.692-.176.511-.2,1.079-.4,1.578-.213.529-.124,1.154-.534,1.611a12.011,12.011,0,0,1-.764,2.16,12.332,12.332,0,0,1-.992,1.968,30.778,30.778,0,0,1-2.083,3.35,14.852,14.852,0,0,1-1.677,2.058c-.5.513-.92,1.106-1.439,1.6a30.846,30.846,0,0,1-4.559,3.6,27.115,27.115,0,0,1-3.749,2.018,27.579,27.579,0,0,1-4.07,1.47,14.121,14.121,0,0,1-2.708.555c-.314.019-.621.133-.935.171-.289.035-.579-.039-.852.174-.114.089-.356.015-.539.015-1.621,0-3.243-.015-4.863.012a4.891,4.891,0,0,1-1.025-.2c-.342-.064-.7.126-1.046-.148-.151-.12-.473-.006-.712-.04s-.438-.122-.659-.176a28.371,28.371,0,0,1-4.089-1.2c-1.049-.427-2.095-.858-3.1-1.371a25.88,25.88,0,0,1-3.512-2.152,18.817,18.817,0,0,1-2.06-1.677c-.47-.456-1.012-.839-1.471-1.306a35.56,35.56,0,0,1-3.08-3.752,28.2,28.2,0,0,1-2.942-5.2,19.7,19.7,0,0,1-1.423-4.359c-.215-1.08-.415-2.159-.586-3.247a26.863,26.863,0,0,1-.128-3.137,18.675,18.675,0,0,1,.021-3.11,17.053,17.053,0,0,1,.47-2.724c.168-.568.279-1.172.393-1.759a26.136,26.136,0,0,1,.825-2.689,18.123,18.123,0,0,1,1.04-2.315,1.973,1.973,0,0,1,.281-.334" transform="translate(-33.321 -70.185)" fill="#555"/><path d="M73.386,117.672a6.783,6.783,0,0,0,1.933-2.4c1.1.786,2.379,1.2,3.462,1.976.757.081,1.284.755,2.056.8a15.805,15.805,0,0,0,3.335,1.245,19.187,19.187,0,0,0,3.353.8c.713.083,1.426.252,2.139.376.595.1,1.192.045,1.763.163a30.421,30.421,0,0,0,5.068.156,8.858,8.858,0,0,0,1.392-.17,5.625,5.625,0,0,0,1.4-.152c.444-.164.975-.071,1.477-.2,1.249-.312,2.517-.529,3.767-.87a39.993,39.993,0,0,0,3.934-1.374,29.861,29.861,0,0,0,3.65-1.816,28.1,28.1,0,0,0,4.192-2.739c.733-.6,1.462-1.205,2.2-1.8a15.207,15.207,0,0,0,1.969-1.848c1.057-1.225,2.123-2.441,3.1-3.738.86-1.136,1.464-2.424,2.352-3.528a47.137,47.137,0,0,0,2.412-5.419c.148-.531.441-1.038.583-1.588.115-.443.238-.883.337-1.332s.253-.869.365-1.313a9.907,9.907,0,0,1,.522-2.254.37.37,0,0,0,0-.181c-.066-.809.326-1.583.184-2.4a26.541,26.541,0,0,0,.179-4.871,4.643,4.643,0,0,0-.161-1.579c-.143-.468.034-.977-.172-1.488a5.351,5.351,0,0,1-.181-1.381,23.106,23.106,0,0,0-.778-3.538c-.257-.955-.646-1.876-.886-2.835-.1-.394-.48-.679-.389-1.125-.551-1.147-1.047-2.323-1.666-3.432a37.772,37.772,0,0,0-2.411-3.769l-.7-.964,2.031-2.383c.5.148.6.724.948,1.076a9.088,9.088,0,0,1,1.059,1.477,48.326,48.326,0,0,1,2.587,4.609,32.668,32.668,0,0,1,2.026,5.028c.257.844.483,1.695.733,2.538.293.99.393,2.018.693,3.007a6.877,6.877,0,0,1,.172,1.477,27.558,27.558,0,0,1,.23,3.77,21.288,21.288,0,0,0,0,2.838,23.883,23.883,0,0,1-.229,3.221c-.023.358-.127.738-.158,1.116s-.116.744-.177,1.116a9.115,9.115,0,0,1-.19,1.113c-.4,1.361-.726,2.742-1.185,4.089a42.47,42.47,0,0,1-2.65,6.144,31.73,31.73,0,0,1-2.181,3.582c-.867,1.218-1.776,2.407-2.752,3.55a43.034,43.034,0,0,1-3.223,3.318,29.363,29.363,0,0,1-3.291,2.649c-.782.549-1.564,1.1-2.361,1.626a38.545,38.545,0,0,1-3.656,2.026,42.539,42.539,0,0,1-5.519,2.185c-.536.188-1.1.3-1.639.477-.515.168-1.055.207-1.57.419a6.336,6.336,0,0,1-1.474.211c-.313.046-.621.137-.935.176s-.662-.082-.935.186c-.015.015-.059,0-.09,0-.862.061-1.723.155-2.586.175-1.284.03-2.573-.043-3.854.023a18.3,18.3,0,0,1-3.5-.238,26.088,26.088,0,0,1-4.314-.854c-.837-.268-1.7-.455-2.539-.741s-1.658-.583-2.488-.858a43.488,43.488,0,0,1-4.251-1.924,21.843,21.843,0,0,1-2.352-1.411c-.067-.041-.1-.132-.175-.226" transform="translate(-55.423 -45.843)" fill="#555"/><path d="M62.431,7.8V9.088l-.853.82c-.032,0-.185-.048-.256.008-.516.408-.945.061-1.341-.179-1.222-.741-2.354-1.613-3.658-2.24-.738-.355-1.434-.786-2.21-1.094a10.453,10.453,0,0,0-2.2-.891c-1.078-.678-2.381-.735-3.511-1.269a13.474,13.474,0,0,1-2.041-.406c-.806-.1-1.611-.25-2.415-.376-.5-.079-1-.061-1.488-.158-1.774-.357-3.564-.057-5.34-.187-.44-.032-.793.215-1.21.2a3.106,3.106,0,0,0-1.182.025c-.416.166-.84.05-1.212.178a7.317,7.317,0,0,1-1.122.175c-.307.058-.62.129-.92.212-.851.234-1.715.423-2.566.654-.393.107-.724.322-1.118.421a22.939,22.939,0,0,0-3.718,1.428c-.674.3-1.3.7-1.973.992A13.908,13.908,0,0,0,20.15,8.451c-.876.563-1.739,1.153-2.559,1.793a33.394,33.394,0,0,0-4.569,4.018c-1.032,1.164-2.028,2.36-2.963,3.614-.747,1-1.351,2.09-2.1,3.084a6.732,6.732,0,0,0-.467.994c-.428.83-.854,1.659-1.258,2.5-.357.743-.638,1.51-.933,2.272A7.313,7.313,0,0,0,4.6,29c-.551.994-.488,2.158-.895,3.2A6.976,6.976,0,0,0,3.5,33.86c-.053.434-.13.865-.179,1.3s.1.886-.173,1.306c-.084.129-.013.358-.013.541,0,1.313.035,2.627-.016,3.938-.022.549.191,1.041.207,1.573a4.412,4.412,0,0,0,.149,1.491,9.259,9.259,0,0,1,.218,1.653c.109.65.237,1.3.407,1.938.358,1.341.788,2.661,1.224,3.98.124.376.479.676.392,1.122.7,1.1.976,2.421,1.8,3.478.3.389.415.933.759,1.33.045.052.006.178.006.277l-2.421,1.8c-.08-.07-.227-.144-.288-.261-.757-1.457-1.524-2.909-2.242-4.385-.842-1.732-1.314-3.607-2.026-5.39-.034-.961-.492-1.832-.585-2.791a4.2,4.2,0,0,0-.176-1.108c-.14-.353-.058-.716-.176-1.026A12.247,12.247,0,0,1,.18,43.046a16.13,16.13,0,0,1-.156-3.593c-.038-1.22-.023-2.442,0-3.663.007-.373.128-.742.171-1.115A4.851,4.851,0,0,1,.353,33.55,9.744,9.744,0,0,0,.571,31.9c.1-.625.211-1.25.369-1.862.192-.74.433-1.468.664-2.2s.462-1.457.715-2.178a40.232,40.232,0,0,1,1.805-4.2,40.817,40.817,0,0,1,3.341-5.482c.6-.868,1.349-1.654,2.03-2.474a37.5,37.5,0,0,1,3.415-3.513A34.378,34.378,0,0,1,17.27,6.6a47.2,47.2,0,0,1,5.663-3.167,29.7,29.7,0,0,1,3.554-1.384c.618-.205,1.249-.395,1.868-.6s1.265-.346,1.9-.5A15.6,15.6,0,0,1,33.6.38c.432-.3.941-.083,1.389-.2A14.062,14.062,0,0,1,38.218.017c1.1-.02,2.2-.028,3.3,0C42.415.045,43.307.135,44.2.2c.47.406,1.078.055,1.615.315.45.218,1.055.09,1.548.248,1.73.555,3.514.891,5.228,1.55,1.884.725,3.688,1.595,5.483,2.487a34.778,34.778,0,0,1,3.44,2.1,6.421,6.421,0,0,1,.919.9" transform="translate(0 0)" fill="#555"/><path d="M142.846,67.2q10.67-10.649,21.368-21.353a2.44,2.44,0,0,1,2.487-.871l.7.7a2.471,2.471,0,0,1-.937,2.558c-7.135,7.077-14.238,14.185-21.383,21.315a6.169,6.169,0,0,1,.871,2.054,6.394,6.394,0,0,1,.039,1.727,6.073,6.073,0,0,1-1.115,3.386,6.569,6.569,0,0,1-3.655,2.647,2.706,2.706,0,0,1-.566.177,3.558,3.558,0,0,1-.733,0,12.519,12.519,0,0,1-2.226-.145,8.366,8.366,0,0,1-2.013-.9,6.564,6.564,0,0,1-2.644-3.367,3.509,3.509,0,0,1-.258-1.171c-.041-.669-.021-1.343-.008-2.014a3.55,3.55,0,0,1,.376-1.4,6.613,6.613,0,0,1,1.763-2.565,7.794,7.794,0,0,1,2.788-1.465,8.273,8.273,0,0,1,2.954-.116,8.685,8.685,0,0,1,2.192.8" transform="translate(-100.261 -33.905)" fill="#926cdc"/><path d="M112.463,89.437l.923,1.048a1.641,1.641,0,0,1-.458,1.555,1.735,1.735,0,0,1-1.595.485,5.783,5.783,0,0,0-2.123-.705,4.123,4.123,0,0,0-1.116-.22c-.393.022-.781-.211-1.208-.168-.394.039-.795.008-1.193.008a6.29,6.29,0,0,0-1.191.013c-.762.15-1.53.275-2.291.432a15.587,15.587,0,0,0-2.48.893,8.788,8.788,0,0,0-1.983,1.2A13.975,13.975,0,0,0,95.5,95.859a16.965,16.965,0,0,0-1.935,2.584,15.009,15.009,0,0,0-1.3,2.856,19.374,19.374,0,0,0-.541,2.257,15.43,15.43,0,0,0-.132,3.229,12.737,12.737,0,0,0,.451,2.642c.188.873.625,1.64.885,2.48a8.115,8.115,0,0,0,1.024,1.683,11.467,11.467,0,0,0,2.6,3.03,14.627,14.627,0,0,0,3.513,2.133,13.178,13.178,0,0,0,2.834.925,19.291,19.291,0,0,0,1.964.334,11.485,11.485,0,0,0,2.108-.009c.655-.079,1.315-.233,1.966-.315a24.673,24.673,0,0,1,2.471-.642,8.39,8.39,0,0,0,2.037,2.353,5.4,5.4,0,0,1-1.811.815,17.51,17.51,0,0,1-3.267.776,15.641,15.641,0,0,1-2.225.141,17.114,17.114,0,0,1-2.2-.009,13.709,13.709,0,0,1-2.217-.4,19.069,19.069,0,0,1-4.107-1.6,19.467,19.467,0,0,1-2.319-1.494,18.823,18.823,0,0,1-2.636-2.476,16.542,16.542,0,0,1-2.574-3.877c-.527-1.044-.809-2.17-1.244-3.243a11.136,11.136,0,0,1-.22-1.56,18.472,18.472,0,0,1-.15-4.415,9.476,9.476,0,0,1,.4-2.665,20.092,20.092,0,0,1,1.463-3.7,14.78,14.78,0,0,1,2.8-3.882c.2-.189.4-.381.584-.583a15.816,15.816,0,0,1,4.61-3.268c1.044-.53,2.174-.808,3.248-1.244a13.823,13.823,0,0,1,1.562-.221,16.051,16.051,0,0,1,3.691-.164,15.173,15.173,0,0,1,5.1.985c.08.025.151.085.231.1a1.678,1.678,0,0,0,.295.017" transform="translate(-66.779 -66.69)" fill="#91ddea"/><path d="M195.983,174.422a5.244,5.244,0,0,1,3.943,1.6,5.494,5.494,0,0,1,0,7.8A5.407,5.407,0,0,1,196,185.411a4.769,4.769,0,0,1-2.417-.568,5.673,5.673,0,0,1-2.314-2.2,6.036,6.036,0,0,1-.735-3,5.128,5.128,0,0,1,1.638-3.624,5.016,5.016,0,0,1,3.81-1.6" transform="translate(-143.895 -131.722)" fill="#91ddea"/><path d="M38.9,250.28a5.041,5.041,0,0,1-.741,2.727,5.294,5.294,0,0,1-2.028,2.018,5.5,5.5,0,0,1-8.235-4.79,5.164,5.164,0,0,1,1.622-3.9,5.541,5.541,0,0,1,4.3-1.577,5.238,5.238,0,0,1,3.6,1.736,5.385,5.385,0,0,1,1.48,3.786" transform="translate(-21.068 -184.839)" fill="#926cdc"/><path d="M59.209,66.064a6.117,6.117,0,0,1,.36-2.059,5.032,5.032,0,0,1,1.846-2.4A5.213,5.213,0,0,1,63,60.795a8.37,8.37,0,0,0,1.265-.269,1.171,1.171,0,0,1,1.191.146,4.953,4.953,0,0,1,3.508,1.937,4.071,4.071,0,0,1,1.064,2.75c-.014.307.463.515.088.894-.156.158,0,.586-.063.878a6.029,6.029,0,0,1-.873,2.019A5.408,5.408,0,0,1,66.566,71.2a2.65,2.65,0,0,1-1.077.263,7.532,7.532,0,0,1-2.317-.146,4.672,4.672,0,0,1-1.745-.875c-.314-.277-.633-.558-.928-.865a5.5,5.5,0,0,1-1.192-2.174,5.318,5.318,0,0,1-.1-1.344" transform="translate(-44.715 -45.635)" fill="#91ddea"/><path d="M133.357,51.139H132.27c-.68-.38-1.394-.794-2.121-1.18-.449-.238-.913-.453-1.383-.647-.5-.2-1.02-.346-1.51-.562a7.036,7.036,0,0,1-1.427-.542c-1.027-.011-1.942-.622-2.984-.55-.451-.313-1.009-.046-1.459-.243a4.11,4.11,0,0,0-1.51-.116c-.518-.035-1.04-.008-1.559-.008s-1.041.011-1.56,0c-.359-.011-.641.275-1.028.2a1.824,1.824,0,0,0-1.03.152c-.31.124-.719-.1-1.018.2-1.465.04-2.745.767-4.128,1.118a11.651,11.651,0,0,0-1.783.782c-.129.058-.266.1-.463.169a12.311,12.311,0,0,0-1.848-2.458,22.652,22.652,0,0,1,4.554-1.987,22.349,22.349,0,0,1,3.085-.77c.744-.113,1.5-.221,2.232-.37a17.7,17.7,0,0,1,3.052-.141c1.039-.033,2.08-.021,3.12,0a5.616,5.616,0,0,1,.934.175c.341.067.687-.1,1.043.159.223.161.65-.08.916.207a16.009,16.009,0,0,1,4.132,1.1c.533.188,1.06.393,1.584.606a6.348,6.348,0,0,1,1.307.6,12.184,12.184,0,0,0,1.207.64,12.54,12.54,0,0,1,1.215.834,1.538,1.538,0,0,1,.52,1.155,1.188,1.188,0,0,1-.5.979c-.153.149-.3.3-.5.5" transform="translate(-79.644 -33.353)" fill="#91ddea"/><path d="M214.27,134.177c0-.547.01-1.034,0-1.522a12.764,12.764,0,0,0-.629-3.4,6.27,6.27,0,0,0-.583-1.5,1.646,1.646,0,0,1-.1-.6c.739-.714,1.461-1.411,2.185-2.106.016-.015.059,0,.09,0a17.2,17.2,0,0,1,1.74,4.106,4.359,4.359,0,0,1,.218,1.188,15.388,15.388,0,0,1,.211,2.122c-.06.727-.013,1.464-.013,2.2v.54a8.208,8.208,0,0,0-3.121-1.018" transform="translate(-160.832 -94.431)" fill="#555"/></g></svg>