<svg xmlns="http://www.w3.org/2000/svg" width="140" height="140" viewBox="0 0 140 140"><g transform="translate(-1785 -2446)"><rect width="140" height="140" transform="translate(1785 2446)" opacity="0"/><g transform="translate(3622.22 1715.138)"><path d="M-1492.789,900.123a.647.647,0,0,1-.05-.054c.1.1.209.209.309.313a.112.112,0,0,1,.019.022C-1492.6,900.31-1492.7,900.216-1492.789,900.123Z" transform="translate(-238.988 -109.968)" fill="#fff"/><path d="M-1491.322,901.625l-.272-.283.05.05c.036.035.073.073.106.11S-1491.359,901.584-1491.322,901.625Z" transform="translate(-239.905 -110.906)" fill="#fff"/><path d="M-1669.028,1020.857a17.82,17.82,0,0,1-1.839.05Q-1669.95,1020.907-1669.028,1020.857Z" transform="translate(-107.87 -198.929)" fill="#fff"/><path d="M-1524.22,1095.871c.456-.233.907-.479,1.354-.732Q-1523.536,1095.525-1524.22,1095.871Z" transform="translate(-215.876 -253.637)" fill="#fff"/><path d="M-1519,1089.606a33.457,33.457,0,0,0,3.024-1.962A31.77,31.77,0,0,1-1519,1089.606Z" transform="translate(-219.719 -248.117)" fill="#fff"/><path d="M-1654.984,913.084a38.484,38.484,0,0,1-54.421,0,38.685,38.685,0,0,1-4.391-5.241c-.013-.021-.028-.039-.041-.06q-1.177-1.713-2.213-3.6c-.006-.013-.013-.024-.019-.037a38.419,38.419,0,0,1-2.506-5.707,38.516,38.516,0,0,0,7.021,1.7,32.592,32.592,0,0,0,6.285,8.807,33.034,33.034,0,0,0,2.592,2.331l.384.306c.147.117.294.231.443.343.229.173.46.345.693.51.147.106.3.212.449.315l.456.311a.01.01,0,0,0,.007,0c.144.1.285.188.431.281a1.266,1.266,0,0,0,.112.075.339.339,0,0,0,.063.041c.16.1.324.205.49.307a1.223,1.223,0,0,0,.116.071c.162.1.328.2.492.294.041.026.086.052.132.076.194.112.386.222.582.328s.419.229.63.339c.186.1.373.194.561.289.052.026.106.054.16.078.123.06.248.121.373.179.1.052.214.1.32.153.179.082.356.162.535.24s.376.164.568.244c.065.028.132.058.2.084.184.076.369.149.557.222a.1.1,0,0,0,.035.013c.173.069.347.134.524.2.114.043.231.086.348.125.1.035.19.067.287.1.134.048.268.093.406.138.1.033.2.067.3.1l.421.13c.1.033.209.063.313.093.136.039.272.078.41.116.1.03.2.056.3.082.132.035.265.071.4.1.112.03.225.058.335.086.166.039.328.078.492.112.065.017.132.032.2.045.2.049.415.091.626.13a.776.776,0,0,0,.088.017c.24.05.485.093.732.132a.014.014,0,0,0,.009,0c.188.035.378.065.572.091.092.017.183.03.276.041.233.035.464.065.7.091.2.024.393.047.591.065.1.013.2.022.309.03s.2.019.309.026c.155.013.309.026.464.035.244.017.488.03.734.041.172.007.345.013.516.017.363.01.73.015,1.1.013.536,0,1.079-.021,1.621-.052a33.48,33.48,0,0,0,3.358-.354,32.23,32.23,0,0,0,8.3-2.476l.39-.177q.26-.12.514-.246c.194-.093.385-.188.574-.287.227-.115.455-.235.68-.356,0,0,0,0,0,0l.074-.041c.2-.108.4-.218.6-.334a.07.07,0,0,0,.021-.013l.388-.223a0,0,0,0,1,0,0c.129-.076.257-.153.384-.231l.384-.239c.255-.158.507-.324.756-.492.125-.084.25-.168.373-.253.064-.041.125-.084.184-.125s.125-.088.184-.132c.123-.086.246-.175.367-.263a.228.228,0,0,0,.032-.024q.419-.307.829-.628c.238-.186.473-.377.706-.568.3-.25.6-.507.894-.768s.6-.54.887-.82q.252-.241.5-.486l.039-.039c.14-.14.277-.281.415-.427.045-.045.09-.089.134-.138.128-.136.257-.272.385-.412.155-.169.309-.343.462-.514l.218-.252a32.008,32.008,0,0,0,2.3-3c.078-.112.153-.224.227-.339l.022-.034c.1-.147.2-.3.289-.445.071-.112.14-.222.208-.335.116-.183.229-.371.339-.559.138-.227.272-.462.4-.7.074-.13.147-.263.22-.4q.232-.428.451-.868c.145-.287.287-.581.423-.878.06-.119.114-.24.166-.363.175-.391.346-.786.507-1.189.065-.166.13-.332.193-.5a.046.046,0,0,0,.011-.03c.075-.186.145-.373.211-.565.059-.168.119-.335.177-.5s.114-.341.171-.511c.043-.129.086-.261.125-.393.175-.551.335-1.114.479-1.682.041-.16.082-.32.119-.484.024-.1.048-.2.071-.3.043-.181.082-.362.119-.544.035-.166.069-.333.1-.5.03-.149.058-.3.084-.445s.05-.274.071-.41c.028-.162.054-.326.08-.49.084-.546.153-1.1.209-1.655.017-.14.03-.283.041-.425.024-.255.045-.514.062-.773.043-.639.065-1.272.071-1.9v-.47a31.79,31.79,0,0,0-.294-4.125c-.033-.25-.071-.5-.11-.747-.1-.637-.224-1.267-.365-1.889-.054-.248-.114-.494-.175-.738q-.226-.914-.5-1.8c-.086-.272-.175-.54-.266-.807s-.19-.544-.291-.812c-.028-.072-.054-.147-.084-.218q-.568-1.5-1.269-2.9c-.046-.1-.093-.187-.141-.28-.03-.06-.06-.119-.09-.175q-.349-.679-.732-1.336c-.015-.03-.032-.058-.049-.086-.132-.229-.269-.454-.406-.678a.048.048,0,0,1-.011-.019c-.142-.231-.285-.456-.431-.68-.3-.46-.611-.913-.928-1.353-.08-.11-.16-.22-.242-.328s-.162-.218-.244-.326-.142-.183-.212-.276c-.019-.022-.033-.044-.052-.067-.134-.172-.268-.343-.408-.509-.054-.069-.11-.136-.166-.2a.035.035,0,0,0-.009-.013c-.223-.276-.454-.544-.687-.807-.088-.1-.177-.2-.266-.3-.177-.2-.358-.4-.544-.585-.037-.041-.076-.084-.116-.123s-.071-.075-.106-.11-.045-.048-.069-.073c-.1-.1-.2-.209-.309-.313l-.022-.022c-.086-.086-.171-.172-.259-.255-.233-.229-.468-.453-.706-.673a32.564,32.564,0,0,0-7.842-5.357,38.5,38.5,0,0,0-1.7-7.021,38.347,38.347,0,0,1,14.641,9.171A38.484,38.484,0,0,1-1654.984,913.084Z" transform="translate(-72.732 -72.717)" fill="#91ddea"/><path d="M-1708.994,1057.068q1.039,1.884,2.213,3.6A38.639,38.639,0,0,1-1708.994,1057.068Z" transform="translate(-79.79 -225.598)" fill="#fff"/><path d="M-1584.755,863.694c-.684-.009-1.369,0-2.051.039A18.693,18.693,0,0,1-1584.755,863.694Z" transform="translate(-169.781 -83.171)" fill="#fff"/><path d="M-1669.028,1020.857a17.82,17.82,0,0,1-1.839.05Q-1669.95,1020.907-1669.028,1020.857Z" transform="translate(-107.87 -198.929)" fill="#fff"/><path d="M-1488.582,904.582c-.27-.315-.55-.628-.835-.935.082.086.162.173.242.261s.179.2.266.3C-1488.8,904.329-1488.69,904.456-1488.582,904.582Z" transform="translate(-241.508 -112.603)" fill="#fff"/><path d="M-1486.249,907.2q.484.562.945,1.15c.019.022.034.045.052.067.071.093.142.183.212.276s.164.216.244.326.162.218.242.328c.317.44.628.892.928,1.352.146.224.287.451.431.68a.048.048,0,0,0,.011.019c.138.224.272.451.406.678.017.028.033.056.049.086q.383.657.732,1.336c.03.056.06.116.089.175.049.093.1.184.142.28q.7,1.4,1.269,2.9c.03.071.056.145.084.218.1.269.2.537.291.812s.181.535.266.807c.184.591.354,1.193.5,1.8.062.244.119.492.175.738.141.622.261,1.252.365,1.889.039.248.076.5.11.747a31.788,31.788,0,0,1,.294,4.125v.47c-.006.628-.028,1.261-.071,1.9a33.057,33.057,0,0,1-1.908,9.119A32.66,32.66,0,0,0-1486.249,907.2Z" transform="translate(-243.841 -115.218)" fill="#fff"/><path d="M-1618.9,1092.488a32.233,32.233,0,0,1-8.3,2.476,32.145,32.145,0,0,1-23.564-5.383A32.691,32.691,0,0,0-1618.9,1092.488Z" transform="translate(-122.671 -249.544)" fill="#fff"/><path d="M-1524.22,1095.871c.456-.233.907-.479,1.354-.732Q-1523.536,1095.525-1524.22,1095.871Z" transform="translate(-215.876 -253.637)" fill="#fff"/><path d="M-1519,1089.606a33.457,33.457,0,0,0,3.024-1.962A31.77,31.77,0,0,1-1519,1089.606Z" transform="translate(-219.719 -248.117)" fill="#fff"/><path d="M-1683.544,884.524a38.42,38.42,0,0,1-32.761,10.868,38.521,38.521,0,0,1-7.021-1.7,38.532,38.532,0,0,1-1.7-7.021,32.668,32.668,0,0,0,6.4,2.318,32.6,32.6,0,0,0,7.759.954,1.1,1.1,0,0,0,.11,0,17.8,17.8,0,0,0,1.839-.05.093.093,0,0,0,.03,0,32.47,32.47,0,0,0,20.434-8.759c.071-.063.14-.129.209-.194.192-.181.378-.363.565-.55.1-.1.2-.2.3-.3a32.621,32.621,0,0,0,8.306-30.646,32.685,32.685,0,0,0-2.318-6.4,38.518,38.518,0,0,1,7.021,1.7,38.5,38.5,0,0,1,1.7,7.021A38.424,38.424,0,0,1-1683.544,884.524Z" transform="translate(-67.983 -67.967)" fill="#926cdc"/><path d="M-1792.7,819a38.533,38.533,0,0,0,1.7,7.021,38.344,38.344,0,0,1-14.641-9.171,38.483,38.483,0,0,1,0-54.421,38.484,38.484,0,0,1,54.423,0,38.678,38.678,0,0,1,4.114,4.848l.192.27a44.748,44.748,0,0,1,2.454,3.993c.037.067.073.136.108.205a38.5,38.5,0,0,1,2.3,5.325,38.517,38.517,0,0,0-7.02-1.7,32.59,32.59,0,0,0-6.285-8.807q-.973-.972-2.007-1.846l-.341-.285c-.117-.1-.235-.194-.354-.287q-.355-.288-.715-.559c-.121-.091-.242-.183-.363-.27q-.257-.19-.52-.374c-.049-.034-.1-.067-.144-.1-.145-.1-.291-.2-.436-.3a32.1,32.1,0,0,0-23.242-5.165,32,32,0,0,0-7.127,1.973l-.477.2-.453.2c-.2.084-.388.172-.58.259l-.061.028c-.17.08-.341.162-.509.244-.2.1-.406.2-.607.306s-.378.2-.564.3a32.43,32.43,0,0,0-7.654,5.69,32.581,32.581,0,0,0-5.923,8.092c-.09.172-.179.346-.265.522-.03.06-.062.121-.09.183q-.076.148-.145.3c-.106.229-.214.46-.317.69-.1.212-.188.427-.277.639-.009.021-.017.039-.024.058-.047.1-.089.205-.128.311-.1.257-.205.518-.3.777l-.168.458c-.058.151-.112.306-.162.46a32.9,32.9,0,0,0-1.724,8.5A31.968,31.968,0,0,0-1806.5,806.3c.078.134.158.263.238.395s.164.265.248.4.179.283.27.42.186.279.28.417c.153.227.309.451.468.676s.319.438.482.654l.112.145c.089.119.183.239.276.358.063.082.13.164.2.246q.218.274.442.542l.009.01q.925,1.109,1.968,2.15c.119.119.239.227.359.345l.013.013c.035.036.075.071.112.108.009.009.021.017.032.028.158.151.315.3.475.446A32.484,32.484,0,0,0-1792.7,819Z" transform="translate(-0.309 -0.293)" fill="#555"/><path d="M-1548.806,817.343a44.72,44.72,0,0,0-2.454-3.993A38.32,38.32,0,0,1-1548.806,817.343Z" transform="translate(-195.961 -46.1)" fill="#fff"/><path d="M-1780.928,801.81a32.584,32.584,0,0,1,5.923-8.092,32.431,32.431,0,0,1,7.654-5.69A32.944,32.944,0,0,0-1780.928,801.81Z" transform="translate(-26.81 -27.45)" fill="#fff"/><path d="M-1686.694,778.781a32.7,32.7,0,0,0-30.369-3.192,32,32,0,0,1,7.127-1.973A32.1,32.1,0,0,1-1686.694,778.781Z" transform="translate(-73.847 -16.537)" fill="#fff"/><path d="M-1790.281,884.279a31.968,31.968,0,0,1-4.537-18.753,32.911,32.911,0,0,1,1.724-8.5A32.707,32.707,0,0,0-1790.281,884.279Z" transform="translate(-16.524 -78.269)" fill="#fff"/><path d="M-1763.59,979.109c-.121-.118-.24-.226-.359-.345q-1.04-1.04-1.968-2.15A32.283,32.283,0,0,0-1763.59,979.109Z" transform="translate(-37.866 -166.344)" fill="#fff"/><path d="M-1757.035,986.131c.047.047.095.091.143.136-.011-.011-.022-.018-.032-.028C-1756.96,986.2-1757,986.167-1757.035,986.131Z" transform="translate(-44.407 -173.353)" fill="#fff"/><path d="M-1584.755,863.694c-.684-.009-1.369,0-2.051.039A18.693,18.693,0,0,1-1584.755,863.694Z" transform="translate(-169.781 -83.171)" fill="#fff"/><path d="M-1669.028,1020.857a17.82,17.82,0,0,1-1.839.05Q-1669.95,1020.907-1669.028,1020.857Z" transform="translate(-107.87 -198.929)" fill="#fff"/><path d="M-1780.928,801.81a32.584,32.584,0,0,1,5.923-8.092,32.431,32.431,0,0,1,7.654-5.69A32.944,32.944,0,0,0-1780.928,801.81Z" transform="translate(-26.81 -27.45)" fill="#fff"/><path d="M-1763.59,979.109c-.121-.118-.24-.226-.359-.345q-1.04-1.04-1.968-2.15A32.283,32.283,0,0,0-1763.59,979.109Z" transform="translate(-37.866 -166.344)" fill="#fff"/><path d="M-1757.035,986.131c.047.047.095.091.143.136-.011-.011-.022-.018-.032-.028C-1756.96,986.2-1757,986.167-1757.035,986.131Z" transform="translate(-44.407 -173.353)" fill="#fff"/><path d="M-1719.743,887.872a32.68,32.68,0,0,1-6.4-2.318,38.42,38.42,0,0,1,10.868-32.761,38.424,38.424,0,0,1,32.763-10.87,32.686,32.686,0,0,1,2.318,6.4,32.76,32.76,0,0,0-7.367-.95.542.542,0,0,0-.11,0,18.674,18.674,0,0,0-2.051.039A32.463,32.463,0,0,0-1710.7,856.5c-.08.073-.16.149-.239.227s-.138.134-.207.2c-.1.1-.2.2-.3.3-.07.071-.138.141-.206.214l-.011.011c-.078.082-.155.166-.229.248A32.614,32.614,0,0,0-1719.743,887.872Z" transform="translate(-66.862 -66.849)" fill="#91ddea"/><path d="M-1584.755,863.694c-.684-.009-1.369,0-2.051.039A18.693,18.693,0,0,1-1584.755,863.694Z" transform="translate(-169.781 -83.171)" fill="#fff"/><path d="M-1635.9,864.681a32.758,32.758,0,0,0-7.367-.95,32.359,32.359,0,0,1,7.343,1.027,31.51,31.51,0,0,1,.823,10.628c-3.829-3.837-7.656-7.667-11.412-11.431a4.81,4.81,0,0,1,1.084-.186,32.463,32.463,0,0,0-20.972,9.085,18.727,18.727,0,0,1,1.692-1.438q11.062,11.068,22.055,22.063A11.726,11.726,0,0,1-1643.9,895c-.1.108-.2.218-.307.326A32.622,32.622,0,0,0-1635.9,864.681Zm-23.553,3.091a28.876,28.876,0,0,1,5.394-2.368l17.408,17.419a23.3,23.3,0,0,1-2.363,5.389Z" transform="translate(-111.162 -83.205)" fill="#926cdc"/><path d="M-1673.235,925.233a13.365,13.365,0,0,1-1.326,1.088q-11.02-11.02-22.04-22.044a7.851,7.851,0,0,1,1.053-1.358,32.614,32.614,0,0,0-7.857,30.171,32.6,32.6,0,0,0,7.758.954,31.458,31.458,0,0,1-7.721-1.036,30.929,30.929,0,0,1-.822-10.753c3.918,3.918,7.742,7.742,11.539,11.543a3.988,3.988,0,0,1-1.017.194A32.47,32.47,0,0,0-1673.235,925.233Zm-29.448-10.268a27.9,27.9,0,0,1,2.389-5.478q10.257,10.263,20.484,20.488a28.69,28.69,0,0,1-5.465,2.406C-1691.073,926.578-1696.826,920.825-1702.683,914.965Z" transform="translate(-83.2 -112.067)" fill="#926cdc"/></g></g></svg>