<svg xmlns="http://www.w3.org/2000/svg" width="108" height="108" viewBox="0 0 108 108"><g transform="translate(-387 -2447)"><rect width="108" height="108" transform="translate(387 2447)" opacity="0"/><g transform="translate(2054.539 4595.898)"><path d="M-1645.959-2063.862a8.975,8.975,0,0,1-8.744-7.228,1.542,1.542,0,0,0-.146-.417v-57.4a2.411,2.411,0,0,0,.147-.419,8.758,8.758,0,0,1,6.592-6.92,6.3,6.3,0,0,1,1.724-.258h41.3a8.362,8.362,0,0,1,2.166.305,8.778,8.778,0,0,1,6.426,7.308,14.176,14.176,0,0,1,.124,1.789q.008,4.958.006,9.917,0,4.215,0,8.43a2.033,2.033,0,0,1-.491,1.524,1.707,1.707,0,0,1-1.254.618,1.833,1.833,0,0,1-.6-.11,1.621,1.621,0,0,1-1.207-1.5c-.024-.268-.024-.55-.024-.849v-5.129q0-6.352-.008-12.7a8.752,8.752,0,0,0-.2-2.106,5.285,5.285,0,0,0-4.938-3.943c-.132-.007-.265-.009-.4-.009h-16.257q-11.871,0-23.739-.006a5.864,5.864,0,0,0-3.576,1.006,5.293,5.293,0,0,0-2.231,3.92,6.048,6.048,0,0,0-.028.643v7.31c0,15.324,0,31.17.01,46.755a7.766,7.766,0,0,0,.279,2.212,5.24,5.24,0,0,0,4.821,3.7c.165.01.33.012.5.012h27.284a1.758,1.758,0,0,1,1.9,1.242,1.711,1.711,0,0,1-.223,1.515,1.7,1.7,0,0,1-1.314.772c-.069,0-.139,0-.209,0l-.364,0q-3.976,0-7.952-.006t-7.953-.006c-4.418,0-8.031.009-11.372.028Z" transform="translate(0)" fill="#555"/><path d="M-1442.888-1928.943a2.97,2.97,0,0,1-1.326-.347,40.846,40.846,0,0,1-12.817-9.53,23.662,23.662,0,0,1-5.8-11.227,20.829,20.829,0,0,1-.418-3.781c-.027-2.574-.025-5.194-.023-7.728,0-2.254,0-4.583-.015-6.877a2.014,2.014,0,0,1,1.413-1.946c2.829-.935,5.692-1.917,8.461-2.867q1.806-.619,3.613-1.236.991-.338,1.984-.67c1.331-.448,2.708-.911,4.058-1.389a2.582,2.582,0,0,1,.861-.149,2.512,2.512,0,0,1,.815.135c3.633,1.243,7.33,2.5,10.9,3.708l4.6,1.561c.321.109.64.222.959.336.56.2,1.138.4,1.723.585a1.947,1.947,0,0,1,1.372,1.948c-.037,1.818-.03,3.662-.022,5.445q0,1.1.006,2.208,0,.97,0,1.94c0,1.407-.008,2.861.008,4.295a22.09,22.09,0,0,1-3.732,12.405,33.986,33.986,0,0,1-9.722,9.591,49.533,49.533,0,0,1-5.556,3.231A2.972,2.972,0,0,1-1442.888-1928.943Zm.027-43.978a2.966,2.966,0,0,0-.967.176q-3.844,1.318-7.694,2.616l-3.743,1.269q-1.318.448-2.637.907l-1.758.608-.039.588c0,.061-.009.119-.014.174-.01.131-.022.266-.022.412l0,2.691c0,3.01-.005,6.123.012,9.185a17.6,17.6,0,0,0,.22,2.608,19.567,19.567,0,0,0,3.728,8.675,32.775,32.775,0,0,0,8.472,7.828,34.128,34.128,0,0,0,4.012,2.334l.376.183.381-.174.12-.054c.1-.044.186-.083.268-.127l.138-.073c.279-.148.557-.3.831-.451a35.461,35.461,0,0,0,10.677-8.841,19.849,19.849,0,0,0,4.439-12.748c-.031-2.445-.023-4.935-.015-7.343q0-1.636.007-3.272v-1.518l-.559-.223-.223-.091c-.158-.065-.308-.127-.471-.183l-4.655-1.586q-5.037-1.715-10.072-3.436A2.5,2.5,0,0,0-1442.861-1972.921Z" transform="translate(-149.063 -124.353)" fill="#91ddea"/><path d="M-1572.134-2005.2h-11.178q-10.64,0-21.279,0h-.132a3.8,3.8,0,0,1-.755-.049,1.764,1.764,0,0,1-1.465-1.965,1.742,1.742,0,0,1,1.729-1.551c.145-.009.3-.01.423-.01h32.557c.252,0,.5.005.756.01h.057a1.786,1.786,0,0,1,1.694,1.775,1.851,1.851,0,0,1-1.735,1.784c-.076.006-.162.009-.278.009Z" transform="translate(-37.273 -99.387)" fill="#926cdc"/><path d="M-1605.089-1941.374a1.705,1.705,0,0,1-1.76-1.055,1.659,1.659,0,0,1,.1-1.646,1.88,1.88,0,0,1,1.49-.853c1.212.018,2.5.027,4.078.027q1.416,0,2.832-.006t2.826-.006l5.737,0q1.982,0,3.964.005a1.846,1.846,0,0,1,1.429.6,1.83,1.83,0,0,1,.381,1.491,1.76,1.76,0,0,1-1.552,1.431c-.055,0-.111,0-.167,0l-9.995,0q-4.678,0-9.354.007Z" transform="translate(-37.219 -149.069)" fill="#926cdc"/><path d="M-1604.907-2069.2a2.237,2.237,0,0,1-1.263-.266,1.811,1.811,0,0,1-.808-1.925,1.862,1.862,0,0,1,1.66-1.38c.07-.006.14-.007.211-.007l.282,0h6.522q4.3,0,8.591.008a3.5,3.5,0,0,1,1.035.134,1.776,1.776,0,0,1,1.145,1.93,1.767,1.767,0,0,1-1.533,1.474,7.479,7.479,0,0,1-.813.031q-1.955,0-3.91,0Z" transform="translate(-37.214 -49.583)" fill="#926cdc"/><path d="M-1406.515-1895.153c-.044,0-.088,0-.134,0a1.849,1.849,0,0,1-1.241-.627q-.878-.875-1.753-1.752l-2-2q-1.526-1.529-3.057-3.053a1.812,1.812,0,0,1-.588-1.915,1.725,1.725,0,0,1,1.682-1.284,1.839,1.839,0,0,1,1.26.506c.469.429.909.88,1.376,1.356.2.2.4.405.6.605l3.673,3.684,1.466-1.946c.616-.818,1.211-1.606,1.8-2.4q.843-1.125,1.692-2.248c1.427-1.893,2.9-3.85,4.322-5.8a1.9,1.9,0,0,1,1.57-.809,1.709,1.709,0,0,1,1.125.393,1.737,1.737,0,0,1,.3,2.363c-.453.663-.955,1.323-1.441,1.961-.187.246-.375.493-.56.74l-2.774,3.7q-2.871,3.825-5.736,7.655A1.871,1.871,0,0,1-1406.515-1895.153Z" transform="translate(-186.349 -174.034)" fill="#91ddea"/></g></g></svg>