<svg xmlns="http://www.w3.org/2000/svg" xmlns:xlink="http://www.w3.org/1999/xlink" width="564" height="588" viewBox="0 0 564 588"><defs><clipPath id="a"><rect width="564" height="588" transform="translate(1119 2323)" fill="#fff"/></clipPath><linearGradient id="b" x1="0.44" y1="1.091" x2="1.103" y2="0.092" gradientUnits="objectBoundingBox"><stop offset="0" stop-color="#d5005b" stop-opacity="0.969"/><stop offset="0.024" stop-color="#c8005d" stop-opacity="0.969"/><stop offset="0.116" stop-color="#9d0068" stop-opacity="0.969"/><stop offset="0.21" stop-color="#790070" stop-opacity="0.969"/><stop offset="0.305" stop-color="#5e0076" stop-opacity="0.969"/><stop offset="0.401" stop-color="#4a007b" stop-opacity="0.969"/><stop offset="0.5" stop-color="#3e007e" stop-opacity="0.969"/><stop offset="0.604" stop-color="#3b007f" stop-opacity="0.969"/></linearGradient><linearGradient id="c" x1="0.431" y1="0.067" x2="0.615" y2="0.977" xlink:href="#b"/><linearGradient id="d" x1="0.364" y1="0.065" x2="0.742" y2="0.987" xlink:href="#b"/><linearGradient id="e" x1="0.461" y1="0.204" x2="0.624" y2="1.401" gradientUnits="objectBoundingBox"><stop offset="0" stop-color="#d5005b" stop-opacity="0.969"/><stop offset="0.099" stop-color="#d0005c" stop-opacity="0.941"/><stop offset="0.238" stop-color="#c2005f" stop-opacity="0.855"/><stop offset="0.399" stop-color="#ac0064" stop-opacity="0.714"/><stop offset="0.579" stop-color="#8d006b" stop-opacity="0.522"/><stop offset="0.77" stop-color="#660074" stop-opacity="0.275"/><stop offset="0.956" stop-color="#3b007f" stop-opacity="0"/></linearGradient><linearGradient id="f" x1="-0.107" y1="-1.127" x2="0.146" y2="0.093" xlink:href="#b"/><linearGradient id="g" x1="-0.168" y1="-0.783" x2="0.085" y2="0.437" xlink:href="#b"/><linearGradient id="h" x1="0.404" y1="0.039" x2="0.66" y2="1.273" xlink:href="#b"/></defs><g transform="translate(-1119 -2323)" clip-path="url(#a)"><g transform="matrix(0.998, -0.07, 0.07, 0.998, 1080.339, 2327.117)"><path d="M561.536,100.667V596.256H0c3.242-2.359,35.279-42.343,134.963-81.194,103.8-40.45,135.732-60.736,168.1-126.763,22.8-46.488,28.513-99.653,41.225-150.14,7.88-31.334,32.362-72.464,57.885-104.413,32.813-42.43,70.078-72.145,102.431-97.311S561.536,0,561.536,0Z" transform="matrix(0.998, 0.07, -0.07, 0.998, 39.998, -0.111)" fill="url(#b)"/><path d="M155.618,24.709C152.016,7.516,132.953-3.466,116.413.449s-28.9,20.523-30.57,38.062c-2.464-10.964-14.317-16.661-25.1-17.8-13.482-1.423-27.709,2.066-38.266,10.971C10.3,41.958,4.121,58.184,1.415,74.219c-2.479,14.7-2.43,30.031,1.788,44.254s12.835,27.267,25.016,35.061c9.912,6.344,21.674,8.986,33.318,9.7,18.8,1.157,38.086-2.59,54.61-12.1s30.109-24.957,36.41-43.455c4.005-11.757,5.039-24.349,5.544-36.792q.872-21.474-.217-42.955c-.131-2.562-1.021-5.9-3.488-5.9" transform="translate(388.141 228.724)" opacity="0.31" fill="url(#c)"/><path d="M135.559-.095l-.037,55.486c0,7.088-.189,14.263-.385,21.451-.283,11.329-.565,22.682-.095,33.787.012.423.035.833.071,1.256l-.1,142.583a78.753,78.753,0,0,1-29.081,21.956c-23.167,9.977-50.641,7.795-72.5-4.911-11.414-6.62-21.475-16.126-27.7-28.072-9.9-18.969-5.738-37.289.982-56.37,8.134-23.073,26.022-42.97,48.7-49.887-6.5-4.174-9.509-12.864-8.5-20.749s5.474-14.939,11.038-20.4c3.194-3.161,6.987-5.961,11.339-6.661s9.337,1.262,11.128,5.439A96.355,96.355,0,0,1,95.555,30.25C105.8,14.886,119.245,6.905,135.188.067,135.307,0,135.439-.045,135.559-.095Z" transform="translate(455.609 154.357) rotate(3)" opacity="0.31" fill="url(#d)"/><path d="M363.851,0V249.181H.735c-2.822-15.818,2.774-32.332,11.813-45.452C29.562,179,60.493,164.235,89.069,170.676c20.78,4.688,38.021,19.213,54.414,33.3.49-14.823,9.266-29.049,22.024-35.69a39.435,39.435,0,0,1,40.676,3.1C208.7,140.185,212.2,106.6,232.2,83.23a2.019,2.019,0,0,0,.155-.174c20.015-23.229,55.2-30.566,82.284-17.148-6.277-11.913-3.467-28.2,6.409-37.095s25.778-9.463,36.216-1.306A73.169,73.169,0,0,1,363.851,0Z" transform="matrix(0.998, 0.07, -0.07, 0.998, 220.514, 311.354)" opacity="0.31" fill="url(#e)"/><g transform="translate(358.055 275.296)"><path d="M16.795-.047A212.547,212.547,0,0,1-.128,47.92" transform="translate(5.628 -0.016)" fill="none" stroke="#ff7900" stroke-miterlimit="10" stroke-width="4" opacity="0.283" style="mix-blend-mode:multiply;isolation:isolate"/><path d="M19.039-.053A211.9,211.9,0,0,1-.126,47" transform="translate(-0.085 31.688)" fill="none" stroke="#ff7900" stroke-miterlimit="10" stroke-width="4" opacity="0.283" style="mix-blend-mode:multiply;isolation:isolate"/><path d="M6.513-.018A117.943,117.943,0,0,1-.053,19.8" transform="translate(4.605 14.48)" fill="none" stroke="#ff7900" stroke-miterlimit="10" stroke-width="4" opacity="0.283" style="mix-blend-mode:multiply;isolation:isolate"/></g><path d="M8.091,54.756c-2.1.7-4.513,2.052-6.611,2.463-1.95.383-2.051-1.205-.832-2.448,1.694-1.727,3.565-3.344,5.292-5.061Q29.883,25.9,51.632-.144C52.113,2.473,47.01,27.6,44.1,37.273,43.746,38.447,12.166,53.4,8.091,54.756Z" transform="translate(349.517 207.85)" fill="#ffb200" opacity="0.302" style="mix-blend-mode:screen;isolation:isolate"/><path d="M40.386,12.622C37.936,25.659,29.3,36.413,20.493,46.135,7.549,43.361,2.129,39.932-.1,37.837l.012-.037A298.63,298.63,0,0,0,17.592,12.934c2.522-4.11,4.986-8.493,8.927-11.128S36.417-.956,39.2,2.928C41.135,5.608,41.017,9.326,40.386,12.622Z" transform="translate(287.613 353.982)" fill="#ffb200" opacity="0.134" style="mix-blend-mode:screen;isolation:isolate"/><path d="M36.249,17.975,32.233,17.4a14.59,14.59,0,0,0-.817-3.163l3.324-2.607a1.21,1.21,0,0,0,.227-1.648L31.809,5.615a1.1,1.1,0,0,0-1.584-.227L26.851,8.034a13.5,13.5,0,0,0-2.624-1.572l.611-4.429A1.16,1.16,0,0,0,23.879.709L18.664-.04a1.147,1.147,0,0,0-1.281,1l-.611,4.429a13.286,13.286,0,0,0-2.909.755L11.271,2.566a1.1,1.1,0,0,0-1.584-.227L5.47,5.647a1.209,1.209,0,0,0-.227,1.647l2.54,3.513a14.436,14.436,0,0,0-1.611,2.709l-4.185-.6a1.146,1.146,0,0,0-1.28,1l-.749,5.427a1.164,1.164,0,0,0,.959,1.326l4.043.579a14.56,14.56,0,0,0,.714,3.218L2.426,27.017A1.21,1.21,0,0,0,2.2,28.665L5.358,33.03a1.1,1.1,0,0,0,1.584.228L10.078,30.8a13.522,13.522,0,0,0,2.808,1.781l-.556,4.032a1.162,1.162,0,0,0,.959,1.326l5.214.748a1.146,1.146,0,0,0,1.281-1l.546-3.961a13.237,13.237,0,0,0,3.238-.857L25.9,36.079a1.1,1.1,0,0,0,1.584.228L31.7,33a1.211,1.211,0,0,0,.227-1.648l-2.334-3.227a14.479,14.479,0,0,0,1.647-2.959l3.943.566a1.147,1.147,0,0,0,1.28-1l.749-5.427A1.162,1.162,0,0,0,36.249,17.975Zm-18.7,9.341a7.745,7.745,0,0,1-6.4-8.836,7.646,7.646,0,0,1,8.541-6.7,7.753,7.753,0,0,1,6.4,8.843A7.649,7.649,0,0,1,17.55,27.315Z" transform="translate(538.931 214.67)" opacity="0.174" fill="url(#f)"/><path d="M36.248,17.975,32.233,17.4a14.587,14.587,0,0,0-.815-3.162l3.323-2.608a1.208,1.208,0,0,0,.228-1.647L31.81,5.615a1.1,1.1,0,0,0-1.584-.227L26.851,8.035a13.5,13.5,0,0,0-2.624-1.572l.611-4.429A1.163,1.163,0,0,0,23.879.707L18.663-.04a1.146,1.146,0,0,0-1.28,1l-.611,4.428a13.357,13.357,0,0,0-2.909.757L11.271,2.566a1.1,1.1,0,0,0-1.583-.228L5.471,5.646a1.21,1.21,0,0,0-.227,1.648l2.54,3.513a14.363,14.363,0,0,0-1.611,2.709l-4.185-.6a1.149,1.149,0,0,0-1.281,1l-.748,5.427A1.16,1.16,0,0,0,.918,20.67l4.043.581a14.64,14.64,0,0,0,.712,3.218L2.426,27.017A1.208,1.208,0,0,0,2.2,28.664L5.358,33.03a1.1,1.1,0,0,0,1.583.227L10.078,30.8a13.4,13.4,0,0,0,2.808,1.78l-.557,4.034a1.164,1.164,0,0,0,.959,1.326l5.216.748a1.145,1.145,0,0,0,1.28-1l.546-3.961a13.235,13.235,0,0,0,3.24-.857L25.9,36.079a1.1,1.1,0,0,0,1.583.227L31.7,33a1.209,1.209,0,0,0,.228-1.647l-2.335-3.227a14.374,14.374,0,0,0,1.647-2.959l3.942.566a1.148,1.148,0,0,0,1.281-1l.748-5.427A1.16,1.16,0,0,0,36.248,17.975Zm-18.7,9.341a7.746,7.746,0,0,1-6.4-8.836,7.648,7.648,0,0,1,8.541-6.7,7.753,7.753,0,0,1,6.4,8.844A7.648,7.648,0,0,1,17.549,27.315Z" transform="translate(448.491 191.232)" opacity="0.174" fill="url(#g)"/><path d="M69.959,29.837l-7.944.022a28.3,28.3,0,0,0-2.414-5.9l5.767-5.994a2.367,2.367,0,0,0,.009-3.257L58.1,7.144a2.157,2.157,0,0,0-3.133.009L49.112,13.24a26.1,26.1,0,0,0-5.506-2.3l.023-8.757a2.246,2.246,0,0,0-2.21-2.3L31.1-.087A2.276,2.276,0,0,0,28.88,2.222l-.023,8.755a26.439,26.439,0,0,0-5.448,2.292l-5.97-6.207a2.155,2.155,0,0,0-3.133.009L6.989,14.676a2.367,2.367,0,0,0-.009,3.257l5.852,6.085a28.617,28.617,0,0,0-2.416,5.707l-8.279.023A2.276,2.276,0,0,0-.086,32.057L-.115,42.785a2.246,2.246,0,0,0,2.21,2.3l8-.022a28.32,28.32,0,0,0,2.229,6.034L6.686,56.952a2.369,2.369,0,0,0-.009,3.259l7.276,7.565a2.157,2.157,0,0,0,3.133-.009l5.442-5.658a26.02,26.02,0,0,0,5.917,2.655l-.021,7.975a2.245,2.245,0,0,0,2.21,2.3l10.318-.029A2.276,2.276,0,0,0,43.174,72.7l.021-7.833a26.339,26.339,0,0,0,6.062-2.579l5.359,5.574a2.157,2.157,0,0,0,3.133-.009l7.316-7.607a2.366,2.366,0,0,0,.009-3.256L59.7,51.395a28.569,28.569,0,0,0,2.42-6.2l7.8-.022a2.276,2.276,0,0,0,2.222-2.309l.029-10.727A2.246,2.246,0,0,0,69.959,29.837ZM36.118,53.243c-8.164.023-14.759-6.834-14.736-15.309S28.036,22.551,36.2,22.528s14.76,6.834,14.737,15.324S44.271,53.22,36.118,53.243Z" transform="translate(483.142 293.235)" opacity="0.174" fill="url(#h)"/></g></g></svg>