<svg xmlns="http://www.w3.org/2000/svg" width="87.289" height="87.301" viewBox="0 0 87.289 87.301"><g transform="translate(5904.354 -2508.851)"><path d="M-5842.463,2673.806c-1.709-2.137-3.44-4.317-5.191-6.482a3.826,3.826,0,0,1-.734-1.375c-.752-2.673-1.53-5.34-2.276-8.015a3.4,3.4,0,0,0-.966-1.855l-2.956-2.81c-.258-.292-.534-.637-.844-.945q-12.933-12.944-25.869-25.885a8.328,8.328,0,0,0-4.853-2.617,18.694,18.694,0,0,0-2.619-.019,4.946,4.946,0,0,0-.624.084l-3.682-3.7-2.838-2.8c-.346-.289-.607-.51-.837-.705a7.026,7.026,0,0,0-7.55,7.738c2.342,2.335,4.75,4.733,7.186,7.159a8.5,8.5,0,0,0,1.086,6.475c-.292.183-.515.317-.731.463a4.371,4.371,0,0,0-.976,6.459,7.861,7.861,0,0,0,.543.576q6.592,6.6,13.188,13.19c.165.165.329.334.506.487a4.387,4.387,0,0,0,6.492-.8l.534-.748c.263.32.449.585.675.811q5.5,5.512,11.006,11.015a2.559,2.559,0,0,0,1.181.7c2.845.783,5.675,1.613,8.516,2.419a3.623,3.623,0,0,1,1.382.719c.92.774,1.868,1.514,2.806,2.264,1.258,1,2.518,2.006,3.719,2.96A4.23,4.23,0,0,0-5842.463,2673.806Zm-58.966-50.744a3.909,3.909,0,0,1,3.428-3.475c1.909,1.909,3.788,3.788,5.556,5.558-1.11,1.122-2.278,2.3-3.435,3.475C-5897.687,2626.812-5899.544,2624.952-5901.43,2623.062Zm21.605,34.192a1.434,1.434,0,0,1-1.58-.024,4.112,4.112,0,0,1-.661-.576q-6.5-6.5-13-13a5.578,5.578,0,0,1-.482-.513,1.519,1.519,0,0,1,.12-2.074,1.516,1.516,0,0,1,2.005-.148,2.6,2.6,0,0,1,.332.289q6.719,6.719,13.439,13.433a2.15,2.15,0,0,1,.632,1.216A1.666,1.666,0,0,1-5879.824,2657.253Zm11.467,4.66q-12.161-12.157-24.321-24.314a5.766,5.766,0,0,1-1.7-3,5.156,5.156,0,0,1,1.23-4.573,24.563,24.563,0,0,1,2.109-2.118,5.351,5.351,0,0,1,7.138-.014c.176.153.341.32.508.487q12.161,12.157,24.316,24.319c.165.165.32.339.449.475-3.1,3.1-6.137,6.149-9.208,9.224C-5867.979,2662.264-5868.174,2662.1-5868.357,2661.914Zm4.733,4.658c-.619-.628-1.308-1.331-1.933-1.966l9.156-9.158c.619.628,1.307,1.329,1.938,1.97Zm9.351,3.343c-2.015-.578-4.216-1.208-6.4-1.832l7.726-7.728c.616,2.139,1.242,4.312,1.841,6.383Zm8.116,5.843-5.328-4.263,1.982-1.933,4.247,5.316C-5845.574,2675.188-5845.847,2675.457-5846.157,2675.758Z" transform="translate(0 -82.459)" fill="#91ddea"/><path d="M-5789.645,2517.756c0-1.584.006-3.167,0-4.752a4.055,4.055,0,0,0-1.557-3.209,4.372,4.372,0,0,0-2.938-.945q-34.926.018-69.853.009h-.353a4.029,4.029,0,0,0-3.092,1.427,4.172,4.172,0,0,0-1.054,2.9q.018,10.337.007,20.675v1.068l2.839,2.8v-14.74h73.19v1.018q0,22.3.02,44.6c0,1.6-.509,2.229-2.241,2.222-10.468-.038-20.937-.019-31.405-.019h-1.074l2.955,2.81h1.1q14.559,0,29.12,0a4.18,4.18,0,0,0,3.743-2.055,4.536,4.536,0,0,0,.6-2.523Q-5789.652,2543.4-5789.645,2517.756Zm-2.81,2.312h-73.22v-3.29c0-1.143-.014-2.288,0-3.43a1.5,1.5,0,0,1,1.686-1.679c.177,0,.353,0,.529,0h68.778c.207,0,.411-.007.615,0a1.478,1.478,0,0,1,1.6,1.585c.024,1,0,1.994,0,2.991C-5792.451,2517.5-5792.454,2518.758-5792.454,2520.068Z" transform="translate(-27.431)" fill="#555"/><path d="M-5685.516,2581v28.051h-39.247c-.174-.627-.253-25.9-.079-28.051Zm-36.527,19.653h.895c2.462,0,4.925-.02,7.387.006a8.294,8.294,0,0,0,6.376-2.623c1.032-1.08,2.074-2.16,3.193-3.147a10.287,10.287,0,0,1,8.8-2.535,10.594,10.594,0,0,1,5.054,2.294c.647.521,1.3,1.035,2,1.591.173-2.19.1-11.839-.085-12.46-3.968-.188-32.924-.093-33.617.108Zm-.01,5.575h33.738v-6.333c-1.511-1.186-2.992-2.432-4.562-3.555a7.144,7.144,0,0,0-4.913-1.283,7.8,7.8,0,0,0-4.966,2.361c-.968.98-1.938,1.958-2.925,2.92a10.509,10.509,0,0,1-7.671,3.128c-2.638-.016-5.276,0-7.914,0-.253,0-.507.029-.788.045Z" transform="translate(-137.23 -55.184)" fill="#555"/><path d="M-5688.652,2715.443v-2.765h30.892v2.765Z" transform="translate(-164.985 -155.903)" fill="#926cdc"/><path d="M-5844.351,2607.6v-2.7h25.259v2.642C-5819.736,2607.69-5842.645,2607.752-5844.351,2607.6Z" transform="translate(-45.894 -73.461)" fill="#926cdc"/><path d="M-5819.259,2628.9v2.71h-25.2a3.64,3.64,0,0,1-.089-1.345c-.02-.435,0-.872,0-1.365Z" transform="translate(-45.728 -91.823)" fill="#926cdc"/><path d="M-5688.656,2739.339v-2.7h25.255a3.567,3.567,0,0,1,.042.366c0,.759,0,1.518,0,2.267C-5664.041,2739.433-5686.945,2739.495-5688.656,2739.339Z" transform="translate(-164.982 -174.227)" fill="#926cdc"/><path d="M-5820.392,2583.64v-2.706h19.572a3.5,3.5,0,0,1,.09,1.339c.02.435,0,.872,0,1.367Z" transform="translate(-64.22 -55.135)" fill="#926cdc"/><path d="M-5841.8,2583.744h-2.646a3.394,3.394,0,0,1-.1-1.363c-.02-.435,0-.871,0-1.369h2.755Z" transform="translate(-45.729 -55.195)" fill="#926cdc"/><path d="M-5568.884,2739.336v-2.706h2.681a3.767,3.767,0,0,1,.086,1.343c.018.434,0,.87,0,1.364Z" transform="translate(-256.593 -174.224)" fill="#926cdc"/><path d="M-5844.345,2535.807v-2.7h2.716v2.7Z" transform="translate(-45.899 -18.553)" fill="#91ddea"/><path d="M-5820.39,2535.732v-2.708h2.682a3.872,3.872,0,0,1,.085,1.346c.018.434,0,.869,0,1.362Z" transform="translate(-64.222 -18.49)" fill="#91ddea"/><path d="M-5793.626,2533.082v2.712h-2.7v-2.712Z" transform="translate(-82.624 -18.534)" fill="#91ddea"/><path d="M-5696.653,2613.1a4.258,4.258,0,0,1-4.2-4.276,4.3,4.3,0,0,1,4.313-4.175,4.225,4.225,0,0,1,4.144,4.24A4.19,4.19,0,0,1-5696.653,2613.1Zm1.433-4.223a1.47,1.47,0,0,0-1.4-1.4,1.47,1.47,0,0,0-1.4,1.4,1.469,1.469,0,0,0,1.4,1.4A1.471,1.471,0,0,0-5695.221,2608.882Z" transform="translate(-155.65 -73.277)" fill="#555"/></g></svg>