<svg xmlns="http://www.w3.org/2000/svg" width="91.135" height="76.845" viewBox="0 0 91.135 76.845"><g transform="translate(0 0)"><path d="M102.278,67.68c-.008-.126-.017-.252-.026-.377a15.02,15.02,0,0,0-.215-1.643l0-.007c-.034-.181-.071-.359-.11-.537-.049-.226-.106-.449-.169-.672-.162-.59-.345-1.175-.557-1.746-.026-.069-.052-.138-.08-.206a12.977,12.977,0,0,0-.658-1.451l-.15-.276c-.009-.017-.019-.031-.029-.048A17.391,17.391,0,0,0,97.1,56.654,15.443,15.443,0,0,0,90,52.7c-.267-.066-.523-.159-.785-.249l-.005,0a16.332,16.332,0,0,0-3-.359.12.12,0,0,1-.005.029c-7.089.014-12.1,3.309-15.413,9.352a.078.078,0,0,1-.009.019,16.385,16.385,0,0,0-1.176,3.321c-.131.834-.259,1.645-.39,2.468q-.058.682-.057,1.377a16.7,16.7,0,0,0,.152,2.249c.224.977.435,1.913.649,2.852a16.358,16.358,0,0,0,1.408,3.169h.04a17.467,17.467,0,0,0,3.157,3.894,14.655,14.655,0,0,0,3.495,2.489,15.121,15.121,0,0,0,5.009,1.653c.8.1,1.591.209,2.39.263.188.014.376.024.566.031a2.615,2.615,0,0,0,.544-.049,5.616,5.616,0,0,1,.666-.091,12.2,12.2,0,0,0,2.235-.352,16.232,16.232,0,0,0,8.761-5.277,16.019,16.019,0,0,0,2.872-4.674,18.276,18.276,0,0,0,.8-2.536,14.417,14.417,0,0,0,.35-2.259c.031-.451.048-.906.048-1.357v0q0-.493-.029-.978m-6.7,10.708a13.835,13.835,0,1,1-19.628-19.5,13.834,13.834,0,0,1,19.628,19.5" transform="translate(-11.172 -8.415)" fill="#91ddea"/><path d="M89.5,51.214c.242-1.312-.231-2.717.311-4.039l1.051-.514c.558.231,1.15.366,1.372,1.229v3.595l.263.088a16.4,16.4,0,0,0-3-.359" transform="translate(-14.457 -7.538)" fill="#555"/><path d="M62.465,73.833c-.029-.128-.06-.257-.088-.385h-34.9c-.257-.257-.5-.506-.72-.725v-1.15c.257-.3.508-.585.715-.821H62.285c.029-.183.057-.363.086-.544q-.058.682-.057,1.377a16.7,16.7,0,0,0,.152,2.249" transform="translate(-4.321 -11.341)" fill="#555"/><path d="M60.2,70.845H2.408A3.533,3.533,0,0,1,.521,69.48,10.59,10.59,0,0,1,0,68.525V16.741a2.459,2.459,0,0,0,.276-.395,3.147,3.147,0,0,1,3.088-1.895c2.4-.033,4.8-.007,7.206-.009a1.717,1.717,0,0,1,1.491.578,4.115,4.115,0,0,1,.373.771,1.828,1.828,0,0,1-.932,1.346c-.352.03-.9.114-1.448.118-2.37.014-4.741.005-7.185.005a3.108,3.108,0,0,0-.195.54,3.826,3.826,0,0,0-.008.62V55.7H59.457c.052-.1.1-.195.158-.292a16.436,16.436,0,0,0-1.176,3.321c.009-.048.017-.1.023-.143H2.7V67.9c.053.062.069.086.088.109s.04.045.062.065a.41.41,0,0,0,.071.052A.346.346,0,0,0,3,68.164a.39.39,0,0,0,.088.007c.15,0,.3,0,.445,0q27.623,0,55.246-.009c.023,0,.049-.029.071-.048a.3.3,0,0,0,.035-.04c-.031-.133-.06-.267-.091-.4A16.459,16.459,0,0,0,60.2,70.845" transform="translate(0 -2.332)" fill="#555"/><path d="M92.343,2.838A2.6,2.6,0,0,0,90.81.372,3.933,3.933,0,0,0,89.032,0C82.686.013,76.34.007,70,.016c-.549,0-1.1.088-1.531.126a2.023,2.023,0,0,0-.808,1.289A1.5,1.5,0,0,0,68.9,2.774a4.125,4.125,0,0,0,.789.052q9.518,0,19.037.008c.311,0,.644-.1.906.062V18.519a2.067,2.067,0,0,1-.242-.216c-1.1-1.443-2.19-2.9-3.3-4.329-.578-.742-1.212-1.414-2.329-1.17a3.747,3.747,0,0,0-1.118.781c-1.809,2.338-3.576,4.708-5.364,7.062-.325.428-.68.832-1.036,1.264-.2-.224-.359-.366-.485-.53-1.277-1.676-2.546-3.36-3.823-5.038-1.7-2.237-3.4-4.478-5.126-6.7-.563-.725-1.06-1.591-2.28-1.6a2.5,2.5,0,0,0-1.512.916c-.657.86-1.32,1.719-1.978,2.579Q60,12.9,58.962,14.259,57.9,15.652,56.839,17.05c-.128-.707-.138-13.317-.007-14.225H57.7q2.357,0,4.714,0a1.694,1.694,0,0,0,1.527-.7,3.066,3.066,0,0,0,.262-.685A1.7,1.7,0,0,0,63.4.187a5.359,5.359,0,0,0-.926-.169C60.6,0,58.733-.015,56.865.023a2.81,2.81,0,0,0-1.971.807,3.106,3.106,0,0,0-.97,2.354q0,4.09,0,8.183v7.41c0,2.075-.029,4.151.01,6.226a2.859,2.859,0,0,0,1.776,2.855,3.555,3.555,0,0,0,1.364.255q12.9-.018,25.8-.01H86.54c1.027,0,2.006-.018,2.984.005a2.9,2.9,0,0,0,2.832-2.852c-.022-7.472-.008-14.945-.013-22.416M56.782,25.4V21.572c2.535-3.308,5.169-6.743,7.865-10.259,3.6,4.685,7.146,9.31,10.812,14.086Zm32.865-.21c-.188.293-.44.236-.671.236-3.347,0-6.694,0-10.066,0-.323-.4-.649-.813-.977-1.222,2.1-2.736,4.181-5.451,6.293-8.2,1.838,2.4,3.619,4.721,5.421,7.071Z" transform="translate(-8.709 0)" fill="#91ddea"/><path d="M48.31,14.443v2.908a1.772,1.772,0,0,0-.953-.084q-12.988-.01-25.976-.012c-.49,0-.981-.075-1.341-.106a1.774,1.774,0,0,1-.882-1.315,1.654,1.654,0,0,1,.868-1.246A10.714,10.714,0,0,1,21.3,14.45q13.03-.014,26.063-.007Z" transform="translate(-3.095 -2.333)" fill="#555"/><path d="M92.237,35.618c-.019.711-.005,1.422-.005,2.135v2.085c-.152.723-.7.929-1.338,1.175l-.9-.414a1.441,1.441,0,0,1-.428-1.175c.012-1.69.005-3.38.005-5.07v-.838H92.3a11.757,11.757,0,0,0-.062,2.1" transform="translate(-14.467 -5.414)" fill="#555"/><path d="M36.171,51.643a1.855,1.855,0,0,1-1.788-.515,1.463,1.463,0,0,1-.434-1.022c0-.208-.008-.415-.008-.623V29.422l.508-.954,1.112-.456a8.927,8.927,0,0,1,2.861,1.369c1.591.911,3.165,1.855,4.743,2.789,1.328.786,2.65,1.581,3.979,2.366q2.367,1.4,4.74,2.794c.427.251.859.491,1.28.753.755.471.751.476,1.28,1.527-.061.308-.139.7-.213,1.076a7.14,7.14,0,0,1-2.407,1.76q-1.829,1.113-3.671,2.2c-1.4.83-2.816,1.643-4.22,2.472-2.206,1.3-4.406,2.619-6.613,3.921-.376.222-.774.407-1.148.6M50.809,39.865,36.661,31.486V48.275c4.7-2.816,9.411-5.537,14.148-8.411" transform="translate(-5.483 -4.525)" fill="#926cdc"/><path d="M79.778,15c-.5-.107-.96-.179-1.4-.305a4.534,4.534,0,0,1-3.366-3.47,4.847,4.847,0,0,1,3.183-5.979A4.977,4.977,0,0,1,84.3,7.773a5.228,5.228,0,0,1,.537,2,4.986,4.986,0,0,1-1.089,3.242,4.574,4.574,0,0,1-2.58,1.726c-.449.11-.908.173-1.4.263m.51-7.283A2.177,2.177,0,0,0,77.631,9.4a2.282,2.282,0,0,0,1.6,2.779h1.023a2.267,2.267,0,0,0,1.78-1.657V9.445A2.286,2.286,0,0,0,80.288,7.72" transform="translate(-12.091 -0.799)" fill="#926cdc"/><path d="M89.245,77.109v1.117c-.724,1.518-1.526,1.679-2.622.532a6.73,6.73,0,0,1-.2-.806,6.345,6.345,0,0,1-.008-.833,3.2,3.2,0,0,0-1.21-.08c-.413-.022-.829-.005-1.239-.005a1.4,1.4,0,0,1-1.118-1.208c-.083-.68.35-1.082.859-1.464,1.761,0,3.538.006,5.316-.007a3.147,3.147,0,0,0,.853-.138,1.114,1.114,0,0,0,.973-1.243c.008-.266,0-.532,0-.914l-.734-.731c-1.2,0-2.3.006-3.391,0A5.273,5.273,0,0,1,83.7,70.38a3.747,3.747,0,0,1-1.529-2.454,4.338,4.338,0,0,1,.184-2.52,3.928,3.928,0,0,1,2.711-2.416c.417-.111.849-.163,1.288-.245l.222-1.383a1.4,1.4,0,0,1,2.677.477v.933h2.375l.984.777v1.123l-.77.81c-1.677,0-3.362.012-5.048-.006a3.089,3.089,0,0,0-1.62.432,1.7,1.7,0,0,0-.329,1.613c.111.494.5.779,1.072.992.948,0,2.014,0,3.081,0a6.075,6.075,0,0,1,1.79.32,3.622,3.622,0,0,1,2.645,2.773,4.686,4.686,0,0,1-.606,3.793A3.779,3.779,0,0,1,90.7,76.846a12.194,12.194,0,0,1-1.458.262" transform="translate(-13.256 -9.777)" fill="#926cdc"/><path d="M77.591,72.9H76.482l-.689-.777V71.082a1.385,1.385,0,0,1,2.222-.463c.709.664.565,1.445-.424,2.282" transform="translate(-12.243 -11.345)" fill="#91ddea"/><path d="M100.932,72.9h-1.1l-.692-.753V71.1a1.494,1.494,0,0,1,1.554-.835,1.3,1.3,0,0,1,1.073,1.028,1.51,1.51,0,0,1-.831,1.613" transform="translate(-16.014 -11.346)" fill="#91ddea"/><path d="M6.947,70.9c.822.187,1.42.59,1.421,1.4S7.777,73.523,6.979,73.7a1.679,1.679,0,0,1-1.245-.849v-1.1A2.008,2.008,0,0,1,6.947,70.9" transform="translate(-0.926 -11.454)" fill="#555"/><path d="M12.314,72.849V71.773a1.713,1.713,0,0,1,1.241-.855c.747.148,1.387.537,1.392,1.391.005.8-.584,1.225-1.427,1.385a1.655,1.655,0,0,1-1.206-.845" transform="translate(-1.989 -11.456)" fill="#555"/><path d="M20.11,73.717a1.685,1.685,0,0,1-1.216-.92v-1.03a1.592,1.592,0,0,1,1.474-.793,1.354,1.354,0,0,1,1.159,1.344c.007.807-.591,1.217-1.417,1.4" transform="translate(-3.052 -11.465)" fill="#555"/></g></svg>